<?xml version="1.0" encoding="utf-8"?>
<!-- Generator: Adobe Illustrator 16.0.0, SVG Export Plug-In . SVG Version: 6.00 Build 0)  -->
<!DOCTYPE svg PUBLIC "-//W3C//DTD SVG 1.1//EN" "http://www.w3.org/Graphics/SVG/1.1/DTD/svg11.dtd">
<svg version="1.1" id="Capa_1" xmlns="http://www.w3.org/2000/svg" xmlns:xlink="http://www.w3.org/1999/xlink" x="0px" y="0px"
	 width="1182px" height="233.897px" viewBox="0 0 1182 233.897" enable-background="new 0 0 1182 233.897" xml:space="preserve">
<path fill-rule="evenodd" clip-rule="evenodd" fill="#0058A2" d="M235.812,73.077c21.427,27.823,3.198,71.876-40.695,98.18
	c-43.973,26.464-96.661,25.744-118.088-2.079c-22.786-29.502-3.597-72.036,40.376-98.5c36.857-22.226,80.11-25.024,105.775-8.874
	c25.344-15.99,44.532-19.348,44.532-19.348c-11.273,4.317-30.781,18.149-37.417,24.705C232.293,69,234.132,70.998,235.812,73.077"/>
<path fill-rule="evenodd" clip-rule="evenodd" fill="#FFFFFF" d="M102.453,96.183c0,0,68.998,8.075,66.599,69.238
	c0,0,21.907-102.258,98.66-122.965c0,0-65.48-2.319-98.42,77.792C169.292,120.249,155.301,91.786,102.453,96.183"/>
<path fill-rule="evenodd" clip-rule="evenodd" fill="#FFFFFF" d="M107.65,140.795c1.199-8.155,12.152-11.433,29.182-10.313
	c4.397,0.319,11.593,0.56,16.31,1.6c-5.277-2.879-11.513-5.118-18.309-6.558c-21.586-4.557-41.094,1.279-43.573,12.953
	c-2.398,11.672,12.232,24.386,33.819,28.942c19.748,4.557,39.496-2.239,42.614-9.514c-5.516,5.676-18.548,6.235-35.338,2.798
	C127.558,159.744,105.891,153.507,107.65,140.795"/>
<path fill-rule="evenodd" clip-rule="evenodd" fill="#E40420" d="M339.748,143.754c-0.8,4.157-2.319,7.835-4.638,10.953
	c-2.238,3.117-4.956,5.676-8.154,7.675c-3.838,2.398-7.836,4.158-11.993,5.199c-3.278,0.798-7.196,1.276-11.753,1.437v-15.271
	c1.999-0.16,3.998-0.64,6.156-1.439c2.159-0.799,3.838-1.999,5.117-3.598c1.199-1.6,1.999-3.357,2.399-5.356
	c0.559-2.638,0.4-4.638-0.48-6.077c-0.799-1.438-2.238-2.558-4.317-3.356c-1.2-0.48-3.038-0.721-5.357-0.8
	c-1.039,0-2.159-0.08-3.518-0.08v-14.392c1.519,0,2.719,0,3.518-0.08c1.519-0.08,3.198-0.399,4.877-1.119
	c1.919-0.8,3.358-1.839,4.317-3.278c0.96-1.359,1.599-2.959,1.919-4.797c0.24-1.279,0.16-2.718-0.32-4.078
	c-0.4-1.439-1.359-2.478-2.798-3.118c-1.279-0.64-2.958-0.96-4.957-0.96c-1.519-0.079-3.758-0.079-6.556-0.159V85.789l8.235,0.08
	c6.476,0,11.353,0.24,14.551,0.72c3.278,0.479,6.236,1.439,8.875,2.958c2.798,1.599,4.717,3.757,5.836,6.476
	c1.039,2.719,1.199,5.757,0.48,9.274c-0.72,4.078-2.559,7.675-5.277,10.874c-2.798,3.119-6.156,5.436-10.234,6.957l-0.08,0.398
	c5.197,1.119,9.195,3.358,11.833,6.716C340.067,133.6,340.787,138.078,339.748,143.754 M303.21,169.018
	c-1.199,0.08-2.398,0.08-3.678,0.08l-35.338-0.16l16.07-83.229l22.946,0.08v15.271h-2.238h-1.519l-3.439,17.589h2.799h4.397v14.392
	c-1.679,0-3.678-0.08-5.836-0.08h-4.078l-4.077,20.946h1.199c5.756,0,9.754,0,11.913-0.078c0.319,0,0.559,0,0.879-0.081V169.018z"/>
<path fill-rule="evenodd" clip-rule="evenodd" fill="#E40420" d="M381.882,162.462c-1.599,1.119-3.119,2.079-4.398,2.958
	c-0.719,0.561-1.519,1.04-2.478,1.52v-9.994c0.959-0.24,1.999-0.479,3.038-0.879c1.999-0.801,3.917-1.919,5.757-3.278l2.478-13.192
	c-3.518,0.32-6.396,0.64-8.635,0.88c-0.879,0.079-1.759,0.239-2.638,0.399v-11.912c4.317-0.479,8.874-0.88,13.672-1.12l0.079-0.319
	c0.72-3.599-0.16-6.076-2.638-7.436c-2.318-1.279-6.076-1.999-11.113-2.079v-13.431c1.999-0.16,3.998-0.241,5.996-0.241
	c11.513,0.081,19.508,1.919,23.986,5.517c4.557,3.678,6.076,9.194,4.717,16.55l-8.315,42.773l-20.787-0.08L381.882,162.462z
	 M375.006,166.94c-0.8,0.399-1.599,0.8-2.559,1.198c-1.998,0.88-3.917,1.521-5.756,1.919c-1.839,0.48-4.317,0.721-7.516,0.721
	c-5.836,0-10.313-1.919-13.511-5.678c-3.118-3.677-4.157-8.395-3.038-14.07c0.879-4.638,2.558-8.476,5.117-11.354
	c2.478-2.879,5.756-5.117,9.833-6.796c4.078-1.679,8.715-2.878,14.072-3.518c1.119-0.16,2.159-0.239,3.358-0.399v11.912
	c-1.359,0.24-2.638,0.56-3.918,1.04c-1.919,0.559-3.518,1.438-4.797,2.638c-1.199,1.279-1.998,2.878-2.398,4.877
	c-0.56,2.958-0.16,4.957,1.359,6.076c1.439,1.12,3.758,1.679,7.035,1.679c0.88,0,1.759-0.079,2.719-0.239V166.94z M375.006,118.009
	h-0.56c-2.478,0-5.356,0.4-8.795,1.28c-3.437,0.879-6.795,1.918-10.153,3.277l-1.759-0.08l2.878-15.11
	c2.159-0.48,5.597-1.2,10.314-1.919c2.718-0.4,5.356-0.72,8.075-0.879V118.009z"/>
<path fill-rule="evenodd" clip-rule="evenodd" fill="#E40420" d="M476.704,169.098h-20.787l5.996-31.181
	c0.56-2.559,0.879-5.117,1.199-7.596c0.24-2.559,0.24-4.397-0.16-5.597c-0.399-1.438-1.279-2.478-2.478-3.117
	c-1.2-0.561-2.959-0.88-5.197-0.96c-1.679,0-3.438,0.319-5.277,0.88c-1.839,0.64-3.917,1.599-6.076,2.878l-8.635,44.692h-20.867
	l12.153-63.001l20.867,0.079l-1.359,6.797c3.917-2.719,7.595-4.798,11.113-6.317c3.518-1.518,7.195-2.319,11.113-2.319
	c6.796,0.081,11.593,2.079,14.391,6.157c2.799,4.077,3.438,9.995,1.919,17.669L476.704,169.098z"/>
<path fill-rule="evenodd" clip-rule="evenodd" fill="#E40420" d="M521.636,169.898c-5.437,0-10.394-0.64-14.711-1.999
	c-4.318-1.359-7.835-3.357-10.713-6.076c-2.799-2.718-4.718-6.156-5.757-10.314c-1.039-4.076-1.039-9.033,0-14.631
	c1.199-5.996,3.198-11.112,5.996-15.35c2.879-4.238,6.237-7.676,10.234-10.394c3.838-2.638,8.075-4.557,12.872-5.836
	c4.717-1.2,9.514-1.839,14.391-1.839c3.598,0.08,7.276,0.48,10.794,1.279c3.518,0.799,6.955,2.079,10.314,3.837l-3.279,16.871
	h-2.638c-0.64-0.8-1.519-1.601-2.559-2.56c-1.039-0.88-2.158-1.759-3.437-2.479c-1.359-0.799-2.958-1.519-4.717-2.078
	c-1.839-0.56-3.838-0.8-6.237-0.879c-5.276,0-9.674,1.758-13.271,5.277c-3.598,3.518-5.997,8.314-7.116,14.23
	c-1.279,6.396-0.64,11.193,1.919,14.313c2.478,3.117,6.316,4.717,11.433,4.717c2.558,0,4.957-0.24,7.035-0.8
	c2.079-0.56,3.918-1.279,5.517-2.078c1.519-0.8,2.878-1.601,3.997-2.479c1.2-0.8,2.159-1.599,3.039-2.238h2.638l-3.198,16.71
	c-1.279,0.479-2.798,1.04-4.477,1.679c-1.679,0.64-3.358,1.119-5.117,1.519c-2.079,0.561-4.077,0.96-5.836,1.199
	C526.913,169.818,524.594,169.898,521.636,169.898"/>
<path fill-rule="evenodd" clip-rule="evenodd" fill="#E40420" d="M622.774,136.877c-1.999,10.314-6.556,18.39-13.672,24.306
	c-5.756,4.637-12.632,7.516-20.787,8.395v-13.991c0.56-0.159,1.199-0.319,1.759-0.56c1.839-0.637,3.438-1.678,4.717-2.958
	c1.519-1.599,2.879-3.519,3.918-5.837c1.039-2.238,1.999-5.356,2.718-9.354c0.72-3.677,1.04-6.796,0.88-9.273
	c-0.24-2.479-0.72-4.478-1.599-5.996c-0.88-1.6-2.079-2.639-3.518-3.278c-1.439-0.64-3.118-0.96-5.117-0.96
	c-1.28,0-2.559,0.16-3.758,0.4v-14.071c2.079-0.24,4.237-0.32,6.476-0.32c10.954,0,18.788,3.038,23.666,9.034
	c3.357,4.078,5.037,9.114,5.197,15.271v1.358C623.573,131.521,623.334,134.08,622.774,136.877 M588.315,169.578
	c-1.999,0.24-4.157,0.4-6.396,0.4c-10.873-0.08-18.708-3.038-23.586-8.954c-3.357-4.078-5.036-9.195-5.196-15.352v-1.278
	c0.08-2.479,0.319-5.037,0.879-7.754c1.999-10.476,6.636-18.63,13.752-24.467c5.676-4.717,12.552-7.515,20.547-8.474v14.071
	c-0.479,0.08-0.959,0.241-1.439,0.4c-1.599,0.561-3.198,1.6-4.717,3.118c-1.519,1.439-2.878,3.438-4.077,5.916
	c-1.2,2.562-2.159,5.757-2.879,9.594c-0.719,3.839-1.039,6.956-0.799,9.355c0.239,2.318,0.719,4.238,1.519,5.676
	c0.799,1.439,1.999,2.479,3.518,3.198c1.599,0.64,3.358,1.039,5.356,1.039c1.12,0,2.319-0.16,3.518-0.479V169.578z"/>
<path fill-rule="evenodd" clip-rule="evenodd" fill="#E40420" d="M688.174,85.629l22.226,0.08l13.752,83.389h-22.626l-2.159-16.87
	h-11.193v-15.271h9.194l-3.838-28.143l-5.356,10.394V85.629z M640.203,169.098l46.052-83.469h1.919v33.579l-9.195,17.67l9.195,0.079
	v15.271l-17.03-0.079l-8.874,16.949H640.203z"/>
<polygon fill-rule="evenodd" clip-rule="evenodd" fill="#E40420" points="808.02,85.949 761.568,169.098 738.383,169.098 
	724.072,85.709 747.098,85.79 755.412,142.315 785.554,85.869 "/>
<polygon fill-rule="evenodd" clip-rule="evenodd" fill="#E40420" points="906.2,85.949 859.748,169.098 836.563,169.098 
	822.252,85.709 845.198,85.79 853.592,142.315 883.734,85.869 "/>
<path fill-rule="evenodd" clip-rule="evenodd" fill="#E40420" d="M895.967,169.098l12.072-62.761l20.867,0.079l-12.072,62.682
	H895.967z M931.065,97.462l-21.907-0.08l2.959-15.271l21.906,0.08L931.065,97.462z"/>
<polygon fill-rule="evenodd" clip-rule="evenodd" fill="#E40420" points="930.186,169.098 946.976,82.271 967.763,82.351 
	951.052,169.098 "/>
<polygon fill-rule="evenodd" clip-rule="evenodd" fill="#E40420" points="985.271,169.098 964.404,169.098 981.114,82.351 
	1001.981,82.431 "/>
<path fill-rule="evenodd" clip-rule="evenodd" fill="#E40420" d="M1036.36,162.462c-1.679,1.119-3.118,2.079-4.397,2.958
	c-0.72,0.561-1.599,1.04-2.559,1.52v-9.994c1.04-0.24,1.999-0.479,3.118-0.879c1.999-0.801,3.918-1.919,5.677-3.358l2.558-13.112
	c-3.518,0.32-6.396,0.64-8.634,0.88c-0.88,0.079-1.759,0.239-2.719,0.399v-11.912c4.397-0.479,8.955-0.88,13.751-1.12l0.081-0.319
	c0.639-3.599-0.24-6.076-2.639-7.436c-2.318-1.279-6.076-1.999-11.193-2.079v-13.431c2.079-0.16,4.077-0.241,6.077-0.241
	c11.432,0.081,19.427,1.919,23.985,5.517c4.557,3.678,6.076,9.194,4.637,16.55l-8.235,42.773l-20.787-0.08L1036.36,162.462z
	 M1029.404,166.94c-0.719,0.399-1.599,0.8-2.478,1.198c-1.999,0.88-3.918,1.521-5.757,1.919c-1.839,0.48-4.637,0.721-7.835,0.721
	c-5.837,0-10.313-1.919-13.512-5.678c-3.118-3.677-4.157-8.395-3.038-14.07c0.88-4.718,2.558-8.476,5.117-11.354
	c2.559-2.879,5.756-5.117,9.834-6.796c4.077-1.679,9.035-2.878,14.391-3.518c1.039-0.16,2.159-0.239,3.278-0.399v11.912
	c-1.279,0.24-2.558,0.56-3.917,1.04c-1.919,0.559-3.438,1.438-4.717,2.638c-1.2,1.199-2,2.878-2.399,4.877
	c-0.56,2.958-0.16,4.957,1.279,6.076c1.519,1.12,3.838,1.679,7.116,1.679c0.879,0,1.759-0.079,2.638-0.239V166.94z
	 M1029.404,118.009h-0.48c-2.478,0-5.356,0.4-8.794,1.28c-3.438,0.799-6.796,1.918-10.154,3.277l-1.839-0.08l2.958-15.11
	c2.159-0.48,5.597-1.2,10.314-1.919c2.718-0.4,5.357-0.72,7.995-0.879V118.009z"/>
<path fill-rule="evenodd" clip-rule="evenodd" fill="#E40420" d="M1088.728,170.057c-4.957,0-9.434-0.56-13.671-1.599
	c-4.158-0.959-7.516-2.158-10.074-3.518l3.198-16.471h1.679c0.799,0.721,1.838,1.521,2.878,2.4c1.12,0.879,2.719,1.758,4.717,2.717
	c1.759,0.88,3.838,1.6,6.077,2.241c2.318,0.638,4.876,0.958,7.755,0.958c2.878,0,5.517-0.401,7.915-1.28
	c2.398-0.88,3.758-2.317,4.157-4.157c0.24-1.519-0.079-2.639-0.959-3.357c-0.8-0.72-2.719-1.439-5.517-2.159
	c-1.519-0.4-3.358-0.8-5.676-1.199c-2.319-0.479-4.318-0.96-6.077-1.519c-4.877-1.601-8.394-3.838-10.393-6.876
	c-1.999-3.036-2.559-6.956-1.599-11.911c0.561-2.8,1.679-5.439,3.517-7.917c1.92-2.479,4.318-4.638,7.356-6.637
	c2.958-1.839,6.556-3.358,10.634-4.477c4.157-1.119,8.635-1.678,13.511-1.678c4.717,0.08,8.875,0.48,12.632,1.358
	c3.758,0.959,6.796,1.999,9.275,3.278l-3.038,15.91h-1.679c-0.64-0.56-1.599-1.279-2.958-2.158c-1.359-0.88-2.719-1.679-3.998-2.318
	c-1.599-0.801-3.438-1.439-5.436-1.92c-2.079-0.48-4.238-0.718-6.476-0.718c-2.959-0.08-5.597,0.48-7.836,1.438
	c-2.239,0.959-3.518,2.317-3.838,3.917c-0.239,1.438,0,2.559,0.88,3.357c0.879,0.881,2.958,1.68,6.156,2.48
	c1.679,0.397,3.678,0.798,5.917,1.198c2.158,0.399,4.317,0.959,6.316,1.599c4.477,1.52,7.595,3.678,9.514,6.476
	c1.919,2.879,2.398,6.637,1.519,11.273c-0.56,2.959-1.839,5.757-3.838,8.475c-1.919,2.639-4.477,4.798-7.515,6.637
	c-3.198,1.998-6.876,3.518-10.874,4.557C1098.802,169.579,1094.085,170.057,1088.728,170.057"/>
</svg>
