<svg id="Capa_1" data-name="Capa 1" xmlns="http://www.w3.org/2000/svg" viewBox="0 0 580.37 210.57"><path d="M616.86,115.26c-.1,61.11-52,107.09-109.32,104.87-52.86-2-101.26-45.93-101.22-105.34,0-60,50.32-106.22,107.69-105.14C570.22,10.71,616.88,57.74,616.86,115.26ZM445.14,105.21h.06c0,8.59-.34,17.21.07,25.78.76,16.18,8.54,28.21,23.33,34.81,14.64,6.52,28.63,4.29,41.19-5.73,1.79-1.43,2.73-1.74,4.68-.07,12.17,10.4,26,12.22,40.31,5.71,14.73-6.68,22.63-18.7,23.09-34.93.42-14.4.12-28.82.08-43.23,0-7.52-4.42-11.85-12-11.94-3.63,0-7.28.19-10.9-.06-3.07-.22-4.12.52-4.08,3.89.21,16,.09,32,.11,48a29.71,29.71,0,0,1-.67,6.85c-1.36,5.87-5.36,9.13-11.36,9.28-8.41.21-13.88-5.39-13.95-14.61-.11-13.81,0-27.61-.05-41.42,0-7.45-4.21-11.68-11.69-11.87-3.87-.11-7.76.13-11.62-.08-2.75-.14-3.7.55-3.67,3.55.17,15.86.08,31.73.07,47.59a27.33,27.33,0,0,1-.49,6.5c-1.67,6.84-6.72,10.65-13.79,10.33-6.55-.3-10.4-4.12-11.36-11.38a39.12,39.12,0,0,1-.33-5.07c0-13.32,0-26.64,0-40,0-6.85-4.5-11.35-11.35-11.49-4.24-.08-8.48.1-12.72-.06-2.43-.09-3,.78-3,3.13C445.22,87.52,445.14,96.37,445.14,105.21Z" transform="translate(-36.48 -9.63)" fill="#01a2af"/><path d="M83.88,106.86a71.72,71.72,0,0,1,7.1,3.2c7.41,4.36,10.38,11.13,10.11,19.52-.3,8.92-3.44,16.25-11.75,20.61-7.89,4.13-16.51,4.43-25.1,4.61-8.34.17-16.7,0-25,.07-2,0-2.72-.43-2.72-2.59q.1-42.46,0-84.93c0-1.53.18-2.46,2-2.61,13.39-1.07,26.81-2.49,40.12.43C95,68.75,102,84.29,93.81,98.2A22.12,22.12,0,0,1,83.88,106.86ZM54.73,127.71c0,3.86.06,7.73,0,11.59,0,1.57.48,2.14,2.06,2.1,4.7-.12,9.41.13,14.09-.64,7.24-1.2,10.93-5.21,11.27-12.37.33-6.89-3-11.29-9.91-13.14-5.23-1.4-10.57-.67-15.86-.88-1.64-.06-1.64.94-1.63,2.11C54.74,120.22,54.73,124,54.73,127.71Zm0-38.61c0,3.5,0,7,0,10.51,0,.88-.42,2.28,1,2.29,5.86,0,12,1.27,17.1-2.88,4.54-3.71,5.79-8.75,4.66-14.37-1-5.15-5.14-6.64-9.56-7.56-3.7-.76-7.46-.48-11.2-.37-1.54,0-2.1.68-2.06,2.23C54.79,82.33,54.73,85.71,54.73,89.1Z" transform="translate(-36.48 -9.63)" fill="#fe6e06"/><path d="M201.88,97c6.9-7.56,15.36-8.67,24.35-7.77s14.61,6.39,16,15.54a82.37,82.37,0,0,1,.72,12c0,11.62-.06,23.24.05,34.85,0,2.4-.38,3.48-3.09,3.33a113.06,113.06,0,0,0-12.35,0c-2.66.14-3.17-.88-3.15-3.32.06-12.59,0-25.17-.11-37.76,0-4-.5-7.87-5.11-9.42-4.91-1.65-12.49.1-15.23,3.4-1.2,1.44-1.19,3.09-1.19,4.79,0,13-.08,25.91.07,38.85,0,2.73-.67,3.61-3.41,3.46-4-.23-8-.18-12,0-2.39.11-3.34-.39-3.32-3.11q.19-29,0-58.1c0-2.44.8-3.27,3.06-3.21,1.57.05,3.15-.09,4.72,0C196.28,90.7,200,92.05,201.88,97Z" transform="translate(-36.48 -9.63)" fill="#fe6e06"/><path d="M384.62,122.51a37,37,0,0,1-.9,10.45c-3.06,14.47-13.59,23.26-28.42,23.77a44.94,44.94,0,0,1-10.48-.62C334.19,154,327,147.8,323.46,137.59a42.91,42.91,0,0,1-.93-25.71c4.47-16.66,19.31-25.5,37.4-22.46,14.85,2.49,23.56,12.62,24.68,28.74C384.71,119.61,384.62,121.06,384.62,122.51Zm-45.07.16c0,4.5.42,9,2.35,13.11,2.26,4.86,6.07,7.33,11.53,7.16s9.07-2.78,10.83-7.64a36.25,36.25,0,0,0,.29-24.19,11.06,11.06,0,0,0-10.6-8,11.69,11.69,0,0,0-11.6,6.57C340.15,113.75,339.64,118.16,339.55,122.67Z" transform="translate(-36.48 -9.63)" fill="#fe6e06"/><path d="M150.39,149.6c-7.39,6.32-15.75,8.15-24.94,6.36-7.24-1.42-12.41-5.51-14.32-12.78-2-7.56-1.19-14.69,4.91-20.39,4.68-4.37,10.45-6.44,16.63-7.48A80.41,80.41,0,0,1,147.11,114c1.74,0,2.24-.58,2.28-2.29.13-5.65-2.44-8.66-8.29-9.43-7.17-.94-13.74,1-19.76,4.63-2.76,1.66-3.69.62-4.9-1.6-3.53-6.47-2.64-9.58,4.21-12.45A49.85,49.85,0,0,1,152,90.29c9,2.11,13.62,7.75,14.68,17.13.94,8.32.26,16.69.45,25,.16,7.1-.71,14.33,2.51,21.06.44.93.05,1.23-.67,1.64C162.69,158.73,153.81,156.19,150.39,149.6Zm-.68-18.44c0-8.09,0-8.11-8.08-7.08-4,.51-7.91,1.36-11,4.23S126.92,135,128.27,139c1.18,3.51,3.9,5.21,8.2,5.34C145.66,144.58,149.71,140.55,149.71,131.16Z" transform="translate(-36.48 -9.63)" fill="#fe6e06"/><path d="M276.13,122.35c.08,1.64.1,2.86.21,4.06.61,6.58,2.53,12.63,9.17,15.33A18.36,18.36,0,0,0,305,138.69c2.62-2.17,3.41-1.2,4.66,1,4.27,7.52,3.06,11.48-5,14.71a38.6,38.6,0,0,1-30.07-.33c-8.9-3.71-13.89-11-16.09-20.23a47.09,47.09,0,0,1-.66-18c3-19.92,21.45-31,42.29-25.57a25.83,25.83,0,0,1,8.9,4c4.47,3.26,4.36,11.6-.13,14.9-1.25.93-1.72-.23-2.39-.72-3.05-2.24-6.2-4.19-10-4.94-10.91-2.17-18.63,3.28-20.05,14.3C276.23,119.39,276.21,121.09,276.13,122.35Z" transform="translate(-36.48 -9.63)" fill="#fe6e06"/><path d="M312.24,184.71c-.38,2.38-.83,5.37-1.35,8.34-.12.71-.37,1.52-1.39,1.19-.79-.26-.55-1-.47-1.53.37-2.39.76-4.78,1.15-7.17.29-1.84.72-3.9-1.78-4.38a3.76,3.76,0,0,0-4.67,3c-.57,2.34-.79,4.77-1.27,7.13-.22,1.09.09,3.11-1.38,2.87-1.9-.32-.56-2.19-.49-3.31.12-1.92.62-3.81.93-5.72.26-1.6.51-3.33-1.5-3.93-1.83-.55-3.31.41-4.37,1.86-1.5,2.07-1.1,4.66-1.81,6.95-.46,1.46.32,4.33-1.7,4-1.68-.26-.2-2.86-.17-4.39a32.49,32.49,0,0,1,.74-4.66c.75-4.24.88-3.78,3.06-4.4,2.43-.68,4.61-2.41,7,0,1.29,1.29,1.9-.25,2.72-.62C309.46,178.11,312.36,179.85,312.24,184.71Z" transform="translate(-36.48 -9.63)" fill="#fe6e06"/><path d="M153.59,184.94l-1.34,8c-.12.73-.29,1.56-1.27,1.37s-.71-1-.59-1.73c.4-2.38.79-4.77,1.13-7.16.25-1.82.61-3.92-2-4.28a3.9,3.9,0,0,0-4.57,3.23c-.61,2.58-.89,5.24-1.38,7.85-.16.85.07,2.32-1.36,2.06s-.53-1.57-.44-2.39c.25-2.15.68-4.29,1-6.45.22-1.65.76-3.65-1.53-4.2a3.88,3.88,0,0,0-4.65,2.6,32.61,32.61,0,0,0-1.25,5.63c-.21,1.06-.39,2.13-.58,3.2-.14.83-.19,1.92-1.4,1.6s-.55-1.35-.44-2.1c.32-2,.67-4,1-6.08.88-5.7.92-5.31,2.85-5.56,2.57-.32,5-2.51,7.56.26,1,1.11,1.63-.42,2.38-.78C150.81,178,153.82,179.9,153.59,184.94Z" transform="translate(-36.48 -9.63)" fill="#fe6e06"/><path d="M37.44,194.17c3.4-6.77,6.65-13.21,9.87-19.66.34-.68.69-1.34,1.54-1.29s1,.93,1.16,1.6q1.65,8.94,3.2,17.87c.12.68.39,1.58-.75,1.61-.92,0-1-.79-1.28-1.49-.58-1.58.64-4.33-2.53-4.29s-7-1.25-8.23,3.53C40.15,193.07,39.84,194.56,37.44,194.17Zm11.13-17-.69-.19q-1.41,2.87-2.8,5.74c-2,4.1-1.88,4.15,2.66,4,2-.05,2.45-.7,2-2.57C49.23,181.88,49,179.52,48.57,177.18Z" transform="translate(-36.48 -9.63)" fill="#fe6e06"/><path d="M334,180.48c3.22-1.31,5.92-2.15,7.85,1,1.76,2.85.7,8.26-2.1,11-2.37,2.35-6.19,3-8.69,1.66-1.11-.61-1.13-1.38-1-2.4,1-6.08,2-12.15,3-18.23.12-.7.13-1.65,1.11-1.5.81.11,1,.94.87,1.73C334.78,175.78,334.46,177.79,334,180.48Zm6.61,4.59c-.16-1.34.15-3.44-2.31-3.88a4,4,0,0,0-4.81,2.94c-.69,2.17-.81,4.51-1.32,6.75-.45,2,.6,2.28,2.16,2.26C337.74,193.11,340.46,189.81,340.65,185.07Z" transform="translate(-36.48 -9.63)" fill="#fe6e06"/><path d="M255.05,194.26a15,15,0,0,0-8,.35c-2.62.66-4.17-1.39-4.65-4-1.2-6.39,3.15-11.46,9.6-11,1.29.09,1.45-.41,1.6-1.26a20.87,20.87,0,0,1,.53-3.21c.39-1.08-.25-3.32,1.43-3s.6,2.31.42,3.51c-.69,4.78-1.51,9.54-2.32,14.31C253.36,191.53,252.53,193.16,255.05,194.26Zm-4.67-13.42c-3.12.07-5.71,3.22-6,7.2-.14,2.05-.35,4.42,2.42,4.83s4.32-1.16,4.94-3.68c.44-1.74.46-3.59,1-5.29C253.51,181.37,252.07,181,250.38,180.84Z" transform="translate(-36.48 -9.63)" fill="#fe6e06"/><path d="M93,194.25c-3.14-1.13-5.64-.19-8.25.41a3.46,3.46,0,0,1-4-2.43,10,10,0,0,1,1.39-9.6c1.77-2.59,4.23-4,7.44-3.09,1.41.43,1.68-.11,1.86-1.2a11.64,11.64,0,0,1,.33-1.78c.52-1.52-.31-4.45,1.69-4.22,1.59.18.39,2.93.18,4.48-.64,4.53-1.46,9-2.25,13.54C91.12,191.81,90.56,193.28,93,194.25Zm-10.76-6.09c0,2.59.15,4.48,2.52,4.76a4.24,4.24,0,0,0,4.69-3.14,33.93,33.93,0,0,0,1-5.65c.45-2.8-1.21-4.11-3.91-2.93C83.27,182.63,82.42,185.59,82.22,188.16Z" transform="translate(-36.48 -9.63)" fill="#fe6e06"/><path d="M160.15,194.74c-2.87-.82-1.84,1.61-2.36,2.79s.22,3.72-1.57,3.44c-2-.32-.43-2.44-.29-3.6.63-5,1.52-10,2.5-15,.16-.8-.77-4.24,2.3-1.71.19.16,1-.46,1.54-.68,3.8-1.58,6.46-.1,7.07,3.92A9.23,9.23,0,0,1,160.15,194.74Zm7.21-9.65c-.06-1.46-.06-3.28-2.12-3.85a4,4,0,0,0-4.8,2.29c-1.29,2.48-1.21,5.35-1.71,8-.3,1.66,1.17,1.53,2.19,1.56C164.28,193.23,167.25,189.6,167.36,185.09Z" transform="translate(-36.48 -9.63)" fill="#fe6e06"/><path d="M289,194.24c-3-1.12-5.55,0-8.16.43a3.09,3.09,0,0,1-3.06-1.62c-2-3.32-1.09-6.57.58-9.64,1.48-2.73,3.76-4.45,7.07-4.11,2.47.26,4.11,1.2,3.3,4.22-.59,2.21-.81,4.52-1.23,6.79C287.24,191.74,286.83,193.2,289,194.24Zm-10.37-5.3c.08,1.9.36,3.52,2.26,3.92a3.76,3.76,0,0,0,4.51-2.77,32.93,32.93,0,0,0,1.24-6.37c.34-2.57-.92-3.55-3.36-2.53C279.77,182.65,279.08,185.87,278.63,188.94Z" transform="translate(-36.48 -9.63)" fill="#fe6e06"/><path d="M361.77,191.55c-.48,2.78-2.6,3.2-4.71,3.27a4.91,4.91,0,0,1-5-2.88c-2-4.28.7-10.78,5.23-12.28,2.19-.73,4.49-.88,5.6,1.61s-.25,4.4-2.45,5.68a11.59,11.59,0,0,1-4.14,1.17c-1.08.18-3-.68-2.8,1.65a3.41,3.41,0,0,0,2.83,3.3C358.36,193.5,360,192.4,361.77,191.55Zm-5.95-4.89c2.39-.36,5-.65,5.46-3.69.24-1.46-.94-2.12-2.35-2.09-1.95,0-5,3-5,4.72C354,187.05,355,186.55,355.82,186.66Z" transform="translate(-36.48 -9.63)" fill="#fe6e06"/><path d="M327.47,194.16c-2.87-.29-5.33-.51-7.88.48-1.34.52-2.76-.59-3.6-1.92-2.71-4.3,1.1-12.6,6.14-13.41,3.9-.62,5.58,1.07,4.92,5-.35,2-.69,4.06-1.08,6.08C325.69,191.8,325.44,193.21,327.47,194.16Zm-2.24-10.84c0-2.15-1.1-2.94-3.1-2.27-3.34,1.1-4.39,4-4.88,7-.31,1.92-.39,4.18,2.09,4.75s4.15-1.13,4.81-3.38A49.86,49.86,0,0,0,325.23,183.32Z" transform="translate(-36.48 -9.63)" fill="#fe6e06"/><path d="M216.11,194.22c-3.16-1.27-5.65.06-8.23.46a3.09,3.09,0,0,1-3.08-1.58c-2-3.31-1.14-6.58.52-9.65,1.54-2.86,4-4.62,7.41-4.1,2.25.33,3.88,1.13,3,4.06a62.81,62.81,0,0,0-1.24,7.15C214.3,191.9,213.92,193.29,216.11,194.22Zm-10.34-5.95c-.05,2.23-.05,4.22,2.32,4.62s3.75-1,4.38-3a43.54,43.54,0,0,0,1.23-6c.46-2.77-.88-3.82-3.55-2.64C207,182.62,206.12,185.5,205.77,188.27Z" transform="translate(-36.48 -9.63)" fill="#fe6e06"/><path d="M106.3,191.35c-1.92,3.36-4.24,3.76-6.86,3.3-2.46-.43-3.72-2-4.07-4.45-.65-4.51,1.66-9,5.45-10.44,2.35-.89,4.77-1,5.91,1.63s-.38,4.46-2.65,5.59a25.9,25.9,0,0,1-3.79,1.1c-1.09.34-3-.6-2.93,1.64s1.33,3.21,3.48,3.45C102.64,193.37,103.82,191.86,106.3,191.35Zm-8.69-4.9c2.58.41,4.85.15,6.69-1.71a2.32,2.32,0,0,0,.46-3c-.66-1.09-1.74-1.1-2.84-.7A6.4,6.4,0,0,0,97.61,186.45Z" transform="translate(-36.48 -9.63)" fill="#fe6e06"/><path d="M268,191.43c-.74,2.93-2.8,3.24-4.75,3.38a5,5,0,0,1-5.15-2.66c-2.34-4.37.78-11.48,5.64-12.69,2-.5,4-.37,5.05,1.7s.13,4-1.74,5.33a10.53,10.53,0,0,1-4.75,1.63c-1.08.17-3-.67-2.81,1.68a3.38,3.38,0,0,0,3.19,3.34C264.6,193.44,266,192,268,191.43Zm-8.29-4.92a8.12,8.12,0,0,0,5.9-1c1.31-.85,2.13-2.13,1.26-3.66s-2.25-1.06-3.49-.48A6.42,6.42,0,0,0,259.74,186.51Z" transform="translate(-36.48 -9.63)" fill="#fe6e06"/><path d="M189.06,191.1c-1.28,3.43-3.47,3.7-5.59,3.71a4.84,4.84,0,0,1-4.83-3.16c-1.88-4.62,1.32-11.19,6-12.23,2-.45,4-.23,4.95,1.91s.08,3.78-1.65,5.06a10,10,0,0,1-5.07,1.74c-1,.12-2.72-.52-2.65,1.5a3.36,3.36,0,0,0,2.68,3.42C185,193.6,186.55,192.26,189.06,191.1Zm-8.6-4.52c2.59.16,4.92.08,6.75-1.83a2.31,2.31,0,0,0,.46-3c-.68-1.09-1.75-1.09-2.85-.71C182.32,182,181,183.78,180.46,186.58Z" transform="translate(-36.48 -9.63)" fill="#fe6e06"/><path d="M118.09,194.89a11.41,11.41,0,0,1-2-.35c-1.07-.36-2.87-.53-2.25-2.09.52-1.3,1.57.23,2.4.41,1.82.39,3.83.8,4.73-1.32,1.07-2.49-1.27-3.28-2.77-4.3-2.32-1.6-3.94-3.42-2.06-6.26,1.34-2,5.23-2.34,7.19-.69.53.45,1.34,1,.83,1.75-.61.93-1.2.07-1.77-.29-1.69-1.05-3.63-1.57-4.77.37-1.37,2.32,1,3.09,2.42,4,2.05,1.35,3.74,2.82,2.94,5.55C122.34,194,120.43,194.69,118.09,194.89Z" transform="translate(-36.48 -9.63)" fill="#fe6e06"/><path d="M59.62,194.88a15.48,15.48,0,0,1-2.17-.43c-.88-.29-2.26-.62-1.92-1.73.5-1.65,1.48-.18,2.22,0,1.83.55,3.82.93,4.84-1,1.27-2.43-1-3.34-2.53-4.41-2.23-1.54-4.17-3.24-2.31-6.21,1.24-2,4.77-2.49,6.86-1.09.66.44,1.75.95,1.23,1.9-.71,1.29-1.35,0-2-.36-1.22-.64-2.48-1-3.76-.21-1.44.92-1.55,2.15-.38,3.3a19.21,19.21,0,0,0,2.92,2.11c1.81,1.19,2.67,2.78,2.1,4.93C64.23,193.56,62.27,194.82,59.62,194.88Z" transform="translate(-36.48 -9.63)" fill="#fe6e06"/><path d="M221.74,194.89a11.3,11.3,0,0,1-2-.41c-1-.36-2.59-.57-2-1.94s1.54.14,2.35.31c1.82.39,3.8.83,4.75-1.29,1-2.3-1-3.16-2.48-4.14-2.25-1.52-4.2-3.18-2.53-6.19,1.17-2.12,5.05-2.66,7.14-1.12.62.46,1.67,1,1,2s-1.23-.1-1.79-.42c-1.74-1-3.68-1.43-4.75.58s1,2.92,2.36,3.79c2.17,1.39,4,2.93,3,5.83C226,194.11,224.07,194.78,221.74,194.89Z" transform="translate(-36.48 -9.63)" fill="#fe6e06"/><path d="M349.89,194c-3.34.8-5,.56-4.6-2.12.9-6.2,2-12.38,3-18.57.1-.58.14-1.38.94-1.24,1.08.19,1.06,1.1.92,2-.88,5.24-1.76,10.47-2.59,15.71C347.32,191.27,346.35,193.07,349.89,194Z" transform="translate(-36.48 -9.63)" fill="#fe6e06"/><path d="M175.65,193.91c-2.76.91-4.1.22-3.67-2.5q1.38-8.76,2.88-17.51c.13-.71,0-2,1.21-1.79s.84,1.32.72,2.11c-.84,5.24-1.75,10.47-2.59,15.71C174,191.38,173,193.12,175.65,193.91Z" transform="translate(-36.48 -9.63)" fill="#fe6e06"/><path d="M234.42,194.13c-3.16.71-4.38-.07-3.93-2.74.66-3.91,1.78-7.8,2-11.72a8.06,8.06,0,0,1,2.38-5.65,1.92,1.92,0,0,1,2.21-.64c0,.32.17.61.08.76-1.49,2.42-5.21,3.5-3.34,7.88.88,2-.5,5.18-1.14,7.75C232.22,191.5,232.33,192.87,234.42,194.13Z" transform="translate(-36.48 -9.63)" fill="#fe6e06"/><path d="M72.65,194.1c-3.85.76-4.78-.31-4.29-2.9.73-3.9,1.48-7.82,2-11.72a8.62,8.62,0,0,1,2.45-5.59c.64-.62,1.35-1,2.63.07-3.52,2.15-4.56,5.21-4,9.24.34,2.29-.46,4.8-1,7.14C70,192,70.33,193.06,72.65,194.1Z" transform="translate(-36.48 -9.63)" fill="#fe6e06"/><path d="M130.73,194c-3.09.88-4.49.35-4.1-2.44.48-3.44,1.08-6.87,1.63-10.3.11-.69.14-1.61,1.13-1.44s1,1,.84,1.73c-.47,2.84-.89,5.69-1.44,8.51C128.49,191.63,128.43,193,130.73,194Z" transform="translate(-36.48 -9.63)" fill="#fe6e06"/><path d="M190.06,198.08c1.28-1.94,2.94-2.75,1.78-4.65-.4-.66.4-1.89,1.64-1.76,1,.11,1.32,1,1.14,1.86C194.21,195.56,193.39,197.29,190.06,198.08Z" transform="translate(-36.48 -9.63)" fill="#fe6e06"/><path d="M366.17,194.79a1.37,1.37,0,0,1-1.51-1.23,1.62,1.62,0,0,1,1.57-2c.85-.06,1.28.59,1.33,1.37A1.72,1.72,0,0,1,366.17,194.79Z" transform="translate(-36.48 -9.63)" fill="#fe6e06"/></svg>