<svg id="Capa_1" data-name="Capa 1" xmlns="http://www.w3.org/2000/svg" viewBox="0 0 961.17 201.04"><path d="M241.48,112.73c0,30.58-.11,61.15.09,91.72,0,5-.82,6.93-6.55,6.9-41.68-.28-83.36,0-125-.18C70.86,211,42,181.9,41.94,143c0-41.15.1-82.29-.15-123.43,0-5.44,1.59-6.66,6.85-6.65q93.11.27,186.2,0c5.37,0,6.82,1.37,6.77,6.7C241.36,50.68,241.49,81.71,241.48,112.73ZM208.22,79.45c0-9.67-.09-19.34.05-29,0-3.07-.76-4.39-4.16-4.36q-29.24.2-58.47,0c-3,0-4,1-3.91,3.9.14,7.2.22,14.4,0,21.59-.12,3.67,1.32,4.57,4.76,4.49,8.83-.2,17.68.18,26.51-.17,4.33-.17,5.36,1.3,5.23,5.35-.3,8.53,0,17.09-.16,25.63-.09,3.63.77,5.36,4.87,5.19,6.78-.29,13.6-.28,20.39,0,3.89.15,5.08-1.16,5-5C208.06,97.9,208.22,88.67,208.22,79.45Z" transform="translate(-41.79 -11.67)" fill="#fddc02"/><path d="M534.28,66.58c0-15.89.19-31.79-.11-47.68-.1-4.77,1.27-6.06,6-6,12,.25,12,0,12,12,0,22-.1,44.08.09,66.12,0,4.26-1,5.25-5.52,5.75-11.6,1.29-18.73-2.7-24.11-13.28C515.45,69.44,506.49,56.25,497.05,43c0,15.59-.27,31.19.15,46.77.15,5.68-1.52,7.19-7.1,7-11-.43-11-.11-11-10.93,0-22.27.12-44.53-.1-66.8-.05-4.55,1.08-5.57,5.83-6.18,11.92-1.51,18.66,3.41,24,13.63,7.28,13.88,16,27,24.08,40.47Z" transform="translate(-41.79 -11.67)" fill="#13285d"/><path d="M307.45,54.71c0-12.13.16-24.27-.08-36.39-.08-4,.88-5.49,5.23-5.37,11.76.32,23.55-.15,35.31.22,15.4.49,24.78,8,26.22,20.28.74,6.37-.76,12.17-5.34,16.74-2.31,2.3-2.23,3.26.12,5.66C382.76,70,376.59,91.19,357,95.28c-15.37,3.22-31.14.72-46.72,1.29-3.79.14-2.84-2.76-2.85-4.79C307.41,79.42,307.44,67.07,307.45,54.71Zm30.34,25.2c3.61,0,7.26.38,10.8-.09,5.27-.69,9.76-2.88,9.67-9.17s-4.81-8.37-10-8.8c-6.5-.53-13.07-.26-19.6-.38-1.78,0-2.72.4-3.17,2.45C322.71,76.58,325.4,80.23,337.79,79.91Zm-.6-33.16A103.76,103.76,0,0,0,348,46c4.49-.77,8.19-2.73,8.18-8.18s-3.69-7.49-8.3-7.85c-6.27-.5-12.6-.39-18.9-.6-2.15-.07-3.09.64-3.47,3C323.45,44.75,324.85,46.55,337.19,46.75Z" transform="translate(-41.79 -11.67)" fill="#13285d"/><path d="M706.08,181.28c0-15.94.18-31.89-.12-47.82-.08-4.7,1.19-6.05,6-6,12,.28,12,0,12,12,0,22-.1,44.05.09,66.08,0,4.21-.77,6.36-5.53,5.71a37.54,37.54,0,0,0-8.14,0c-5.68.48-9.26-2.05-12.07-6.84-8.77-14.93-17.82-29.7-26.76-44.53-.54-.88-1.16-1.72-2.91-4.32v42.56c0,14.27,0,14.16-14.18,13.18-3-.21-3.78-1.2-3.77-4q.12-37.41,0-74.84c0-3.14,1.24-3.72,4-3.66,4.74.1,9.5,0,14.23-.26,4-.22,5.43,2.68,7,5.34q13.26,22,26.43,43.95l2.27,3.81Z" transform="translate(-41.79 -11.67)" fill="#13285d"/><path d="M655.92,54.19c.26-24.67,19-42.79,43.89-42.44,24.7.34,43,19.07,42.65,43.77s-18.86,42.54-44,42.36C673.7,97.71,655.65,79.18,655.92,54.19Zm68.42.67c0-15-10.74-26.24-25-26.24-14.61,0-25,10.78-25.11,26-.08,15.51,10.52,26.63,25.31,26.57C714,81.11,724.34,70.1,724.34,54.86Z" transform="translate(-41.79 -11.67)" fill="#13285d"/><path d="M518.49,169.09c0-12.14.2-24.28-.11-36.41-.11-4.3,1.26-5.19,5.36-5.15,12.69.1,12.7-.09,12.7,12.68,0,5.17.18,10.35-.07,15.51-.17,3.42.75,4.76,4.46,4.65,8.83-.26,17.67-.19,26.5,0,3.23.06,4.39-.95,4.26-4.22-.23-5.84-.15-11.69-.05-17.53.15-8.66,7.82-13.81,16-11,2.12.74,1.88,2.22,1.88,3.74,0,25.4,0,50.8.06,76.2,0,3.08-1.29,4-4.07,3.67a5.14,5.14,0,0,0-.68,0c-13.22.48-13.22.48-13.22-12.67,0-5.17-.3-10.37.09-15.51.37-4.8-.79-6.88-6.19-6.56-8.13.47-16.31.28-24.46,0-3.56-.1-4.68,1-4.59,4.56.21,8.54-.09,17.09.14,25.62.1,3.56-1.06,4.52-4.61,4.61-13.41.34-13.41.48-13.41-12.57Q518.48,183.93,518.49,169.09Z" transform="translate(-41.79 -11.67)" fill="#13285d"/><path d="M906.09,169.79c0,11.91-.15,23.82.08,35.72.08,4.11-.59,5.93-5.44,5.86-12.53-.18-12.35.09-12.6-12.2-.15-7.34,3.25-16.87-1.41-21.38-4.27-4.15-13.78-1-21-1.14-12.58-.14-12.58,0-12.58,12.69,0,5.39-.35,10.81.1,16.17.42,5-1.62,5.89-6.15,5.82-12.08-.19-12.08,0-12.08-11.94,0-21.8.12-43.6-.1-65.39,0-4.72.71-6.7,6.16-6.51,12.06.4,12.07.06,12.07,12,0,5.39.17,10.79-.06,16.18-.15,3.36.69,4.8,4.44,4.69,8.82-.25,17.66-.2,26.48,0,3.23.06,4.39-.92,4.26-4.19-.23-5.83-.15-11.68,0-17.53.14-8.69,7.78-13.87,16-11,2.86,1,1.84,3.29,1.86,5.09C906.14,145.07,906.09,157.43,906.09,169.79Z" transform="translate(-41.79 -11.67)" fill="#13285d"/><path d="M307.45,169.4c0-12.12.12-24.24-.07-36.36-.06-3.77.45-5.68,5-5.52,10.84.38,21.72-.2,32.55.29,20.9.94,33,16,28.67,35.16-2.58,11.41-12.86,20.09-25.85,21.33a122.75,122.75,0,0,1-16.94.3c-4-.18-5.71.76-5.41,5.12.38,5.58-.06,11.22.14,16.82.12,3.29-.59,4.68-4.4,4.79-13.72.42-13.72.6-13.73-13ZM325.53,156c0,2.92,0,5.84,0,8.75,0,1.47-.5,3.55,1.92,3.52,7.63-.11,15.44,1.29,22.75-2,4.63-2.08,6.61-6,6.4-10.91s-2.94-8.39-7.74-9.92A37.29,37.29,0,0,0,337.49,144C325.53,144,325.53,144,325.53,156Z" transform="translate(-41.79 -11.67)" fill="#13285d"/><path d="M1003,211.24c-5.67,0-10.58-.19-15.48.06-3.92.2-4.1-2.79-5.1-5.13-4.8-11.33-4.79-11.33-17.18-11.33a29.69,29.69,0,0,1-5.42-.05c-10.69-2-17.71,1.31-19.6,12.71-.45,2.73-2.2,4-5.32,3.81-4.49-.31-9-.08-13.58-.08-1-2.32.44-4,1.12-5.69q14-35.73,28-71.43c1.36-3.46,2-7.07,7.54-6.65,6.23.48,12.2-.12,15,7.31,6.88,18,14,35.94,21.09,53.91ZM961.56,152c-3.66,9.55-6.87,18-10.14,26.49h20.32C968.36,169.72,965.18,161.47,961.56,152Z" transform="translate(-41.79 -11.67)" fill="#13285d"/><path d="M383.3,96.58,408,33.68c1.64-4.18,3.29-8.36,5-12.53s2.16-8.88,9.14-8.33c6.57.52,11.64,1.11,14.39,8.33,9.49,25,19.47,49.73,29.6,75.43-4.91,0-9.14-.31-13.3.09s-5.91-1.26-7.36-4.94c-4.58-11.58-4.74-11.52-17-11.52a27.63,27.63,0,0,1-4.07,0c-11-1.65-19.47.4-21.28,13.27-.38,2.68-2.44,3.29-5.06,3.18C393.5,96.44,389,96.58,383.3,96.58ZM414.52,64h20.36L424.6,37.49Z" transform="translate(-41.79 -11.67)" fill="#13285d"/><path d="M423.34,171.17c.14-19.68,7.7-33.4,24.28-40.67s32.78-6.12,47.22,5.61c2.12,1.72,7.3,3.43,4.34,7.48-3.1,4.23-7,8.75-13.62,6.19a28,28,0,0,1-4.07-2.4c-12.3-7.42-26.61-5.16-34.72,5.48-7.73,10.15-6.49,27.3,2.61,36,9.37,9,25,9.25,35.56,1,2-1.6,3.21-6.48,6.4-4.28,4,2.74,7.21,6.81,10,10.83,1.16,1.67-1.82,3.26-3.2,4.58C485.61,213,464.91,216.22,448,208.59S423.4,187.48,423.34,171.17Z" transform="translate(-41.79 -11.67)" fill="#13285d"/><path d="M612.7,97.89c-20.46,0-36.89-11.12-42.29-28.57-6.08-19.6.39-39.69,16.17-50.24s38.57-9.84,52.59,2c2.32,2,8.07,3.36,4.75,8.31-4.53,6.78-9.85,8.19-15.49,4.7-3.28-2-6.54-4-10.35-4.87-12.16-2.77-24,2.74-28.91,13.41-5.38,11.71-2.1,26.4,7.5,33.6s24.66,7.36,33.13-1.38c5.6-5.79,8-3.19,11.47,1.08a21.55,21.55,0,0,0,3.28,3.4c2.62,2.07,2.18,3.65-.06,5.89C635.69,94,625,97.94,612.7,97.89Z" transform="translate(-41.79 -11.67)" fill="#13285d"/><path d="M784.27,212.53c-20.68-.1-37.25-11.57-42.42-29.38-5.73-19.76,1.1-39.7,17.12-49.93s38.81-9.16,52.58,2.88c2.1,1.83,6.92,3.18,4.46,7.56-3.4,6-9.91,8.39-14.87,5.59-3.34-1.89-6.45-4.15-10.21-5.2-11.84-3.3-24.18,1.72-29.59,12-5.78,11-3,26.5,6.07,34,9.41,7.75,25.06,8.56,33.62-.36,6.77-7,8.81-2,13.05,1.73,4.76,4.21,4.38,7-.39,10.84A44.77,44.77,0,0,1,784.27,212.53Z" transform="translate(-41.79 -11.67)" fill="#13285d"/><path d="M389.41,169c0-12.12.19-24.24-.11-36.35-.11-4.29,1.27-5.17,5.36-5.14,12.64.08,12.64-.1,12.64,12.69,0,21.54-.14,43.08.1,64.62.06,4.71-.66,6.71-6.12,6.54-11.86-.38-11.87,0-11.87-12.07Z" transform="translate(-41.79 -11.67)" fill="#13285d"/><path d="M611.17,168.74c0-12.11.14-24.22-.09-36.33-.07-3.8,1-4.85,4.89-4.88,13-.09,13-.26,13,12.32,0,22-.12,44,.11,65.93,0,4.49-1.27,5.61-5.7,5.56-12.21-.14-12.22.08-12.22-12.32Q611.16,183.89,611.17,168.74Z" transform="translate(-41.79 -11.67)" fill="#13285d"/><path d="M208.22,79.45c0,9.22-.16,18.45.07,27.66.1,3.81-1.09,5.12-5,5-6.79-.28-13.61-.29-20.39,0-4.1.17-5-1.56-4.87-5.19.2-8.54-.14-17.1.16-25.63.13-4.05-.9-5.52-5.23-5.35-8.83.35-17.68,0-26.51.17-3.44.08-4.88-.82-4.76-4.49.24-7.19.16-14.39,0-21.59,0-2.89.94-3.92,3.91-3.9q29.24.13,58.47,0c3.4,0,4.2,1.29,4.16,4.36C208.13,60.11,208.22,69.78,208.22,79.45Z" transform="translate(-41.79 -11.67)" fill="#13285d"/></svg>