<svg id="Capa_1" data-name="Capa 1" xmlns="http://www.w3.org/2000/svg" viewBox="0 0 1202.87 204.08"><path d="M251.56,162.34c0,15.9-.56,29.87.21,43.78.45,8.14-2.58,10.39-9.9,9.61a47,47,0,0,0-8.88,0c-4.69.39-6.21-1.49-6.18-6.2.19-27.58.09-55.17.12-82.75,0-2.19-.47-4.53,2.35-5.82,8.86-4.07,27.18,1.61,32.39,10,7.71,12.4,18.28,22.85,24.77,36.08a3,3,0,0,0,3.89,1.7l.11-.05c2-.76,1.41-2.71,1.42-4.21.05-11.82.37-23.66-.12-35.46-.27-6.43,1.6-8.58,8.21-8.36,20.17.65,16.19-2.12,16.39,15.78.25,23.31-.22,46.64.23,69.94.14,7.14-1.73,8.65-9,9.73-16.76,2.48-22.35-9.38-30.16-19.57C269.2,185.8,262.66,173.79,251.56,162.34Z" transform="translate(-0.03 -72.48)" fill="#3b4542"/><path d="M677.72,168c0-13.45.21-26.9-.11-40.34-.13-5.24,1.86-7.06,6.79-6.93,15.1.4,30.19-.49,45.3,1.13,31.64,3.39,48.62,36.29,34.87,65.38-8.71,18.4-23.7,25.15-41.46,27.64-12.59,1.76-25.58.52-38.39.9-5.52.16-7.28-1.92-7.13-7.44C678,194.9,677.71,181.44,677.72,168Zm61.58-.14c0-18.38-4.11-24.92-27.26-24.79-4.43,0-5.51,1.92-5.47,5.93.16,12.74.28,25.5-.05,38.24-.14,5.38,2.07,6.39,6.92,6.54C729.56,194.29,740,185.9,739.3,167.86Z" transform="translate(-0.03 -72.48)" fill="#404a47"/><path d="M506.38,216.91c-28.55,1.79-52.52-21.1-51.92-48.77.72-33.57,22.21-49.68,51.9-49.51,31.55.19,50.63,18.26,51.49,48.39C558.63,194.57,537.11,218.38,506.38,216.91Zm21.67-48.84c-.22-2.94-.33-5.89-.68-8.81-1.28-10.74-8.64-18.16-18.12-19.48-9.25-1.29-21.1,5.74-24,16.48-2.12,7.88-1.67,14.71.4,22.28C488.7,189.65,493,194,504.3,194.78,518.33,195.79,528.69,188.41,528.05,168.07Z" transform="translate(-0.03 -72.48)" fill="#3d4744"/><path d="M57.76,166.42c7.25,3.77,15,6.35,16.82,15.75,3.35,17-5.91,30.82-24.15,32.47-15,1.35-30.15.68-45.23,1.1-4.72.13-5.19-2.4-5.17-6.16Q.17,168.3,0,127c0-4.58,1.33-6.48,6.14-6.34,13.77.4,27.6-.16,41.32.85,13.49,1,22.38,7.83,24.26,16.75C74.26,150.15,70.47,158.05,57.76,166.42ZM26.51,186.19c-1.69,6.06.47,9.46,7.88,8.47,6.23-.84,14,.38,13.65-9.44s-8.49-7.63-14.42-8.6C26.15,175.41,25.64,180,26.51,186.19Zm6.67-46c-8.25-1.44-6.91,4.51-6.83,9.19s-1.37,10.55,6.7,9.73c6-.61,11-2.75,10.75-9.81-.2-6.51-3.68-10-10.62-9.15Z" transform="translate(-0.03 -72.48)" fill="#3d4744"/><path d="M180.87,215.7c-5.73.26-14.59,2-15.14-10.46-.16-3.56-3.3-3.51-6-3.52-5.92,0-11.86.25-17.76-.1-7.72-.45-14.77-.36-15.29,9.95-.18,3.55-2.42,4.15-5.36,4.11-4.61-.06-9.21,0-13.82,0-11.32,0-11.89-1.46-7-11.34,4.64-9.46,8.27-19.41,12.23-29.19q10.3-25.36,20.44-50.83c1.18-3,3.33-3.69,6.22-3.59,3.29.11,6.65.45,9.86,0,10.42-1.68,14.21,3.23,17.78,12.84,5.92,16.13,12.25,32.23,19.63,47.89,3.9,8.26,6.21,17.49,10.12,25.92,3,6.45,1.78,9.14-5.6,8.38C188.49,215.47,185.84,215.7,180.87,215.7ZM139,178.94c3.74,1.6,8,.56,12.24.88,4.67.36,6.36-2.12,4.29-5.76A46.84,46.84,0,0,1,149.63,157c-.24-1.74-1.14-3.27-3-3.25-2.21,0-2,2.16-2.36,3.65C142.53,164.57,140.78,171.71,139,178.94Z" transform="translate(-0.03 -72.48)" fill="#3d4744"/><path d="M976.77,121.69c-5.44,14.59-15.3,26.62-23,39.86-1.91,3.3-3,5.18-.92,8.33q13.3,20,26.51,40.11c2.13,3.23,2,5.66-2.7,5.69-7.55,0-15.17.63-22.64-.17-6.47-.69-7.39-7.68-10.62-12-3-4-3.43-11.48-8.92-11.37-5.23.1-6.86,6.92-9.08,11.46-5.14,10.52-19.87,16.33-30.43,12-3.41-1.4-2.27-3.4-1-5.4,6.75-10.83,12.88-22.12,20.55-32.25,5.53-7.29,7-14.28,1.29-20.76-7.6-8.65-11.6-19.53-19.16-28.11-1.54-1.74-2.64-5.08-2.06-7.17.66-2.4,4-.83,6.11-1.08,1.94-.22,4,.27,5.9-.1,13.46-2.58,21.77,3,26.48,15.56,1.48,3.92,4.33,8.49,8.5,1.36C952.91,118.3,953.27,118.18,976.77,121.69Z" transform="translate(-0.03 -72.48)" fill="#3d4744"/><path d="M801.23,168.1c0-13.14.22-26.28-.11-39.4-.13-5.63.93-8.29,7.47-8.09q23.17.69,46.38,0c6.33-.17,7.68,2.12,7.67,8,0,14.9.24,14.9-14.83,14.91-4.6,0-9.21.07-13.81,0-4.12-.07-6.62.72-6.69,5.92-.07,5.52,2.29,6.78,7,6.56,4.26-.2,8.55,0,12.83,0,10.07,0,15.24,9,10.85,18.36-1.5,3.16-3.76,3.11-6.41,3.09-4.93,0-9.87.18-14.8,0-5.78-.26-9.67,0-9.66,8s4.17,8.18,9.83,8c4.28-.14,8.56,0,12.83,0,12.21,0,17.62,8.16,13.31,19.74-.93,2.48-2.66,2.63-4.6,2.63-17.43,0-34.87-.06-52.31.11-4.87,0-5.07-2.65-5-6.29C801.29,195.68,801.23,181.89,801.23,168.1Z" transform="translate(-0.03 -72.48)" fill="#3d4744"/><path d="M399.26,216.9c-35,.46-57-28.28-49.28-61.48,3.9-16.71,14.92-28.9,32.95-34,14.52-4.07,28.34-2.88,42.25,1.47,2,.63,5.82.42,5.81,2.8,0,6.93-6.66,11.09-8.42,17.66-1,3.63-4.89,1.76-7.66.8-7.54-2.58-14.37-5.75-22.93-.58-10.75,6.45-17.54,23.64-11.81,35.14,8.13,16.28,22,20.31,38.31,10.63,2.86-1.7,3.77-1.5,5.1,1.12a56.68,56.68,0,0,0,7.57,12.11c2.26,2.61,1.32,5-2.2,6.91C417.22,215.79,413.23,217,399.26,216.9Z" transform="translate(-0.03 -72.48)" fill="#3d4744"/><path d="M589.75,168c0-13.09.2-26.19-.1-39.28-.12-5.53.85-8.06,7.4-8.13,21.44-.21,21.44-.52,21.44,20.65,0,15.07.2,30.13-.11,45.18-.11,5.47,1.44,7.79,7.18,7.33,5.21-.41,10.58.52,15.72-.22,9.53-1.37,11.18,2.85,11.22,11.44,0,8.42-1.78,11.45-10.75,10.94-14.39-.82-28.87-.55-43.29-.07-6.69.22-9.21-1.38-8.88-8.55C590.18,194.21,589.75,181.09,589.75,168Z" transform="translate(-0.03 -72.48)" fill="#3b4542"/><path d="M1158.71,122.34c11.49,3,23.31,5.35,32.69,13.33,12,10.25,15,25.06,7.13,38.86-8.93,15.62-21.35,28.47-34.87,40.22-2.35,2-4.65,4.79-8.44,4.32a52.79,52.79,0,0,1-2.06-16.29c.17-18.2-.11-36.4.17-54.59.09-5.35-1.52-8.75-6.72-10.22l1.2-1.78c2.43-.13,3.43-1.53,3.43-3.83l3.84-9.43Z" transform="translate(-0.03 -72.48)" fill="#04a5eb"/><path d="M1146.61,138c5.2,1.47,6.81,4.87,6.72,10.22-.28,18.19,0,36.39-.17,54.59a52.79,52.79,0,0,0,2.06,16.29c-9.28,10.71-20.38,18.81-33.89,23.45-5.91-1.55-5.52-6.45-5.57-10.89-.12-10.34-.09-20.68,0-31,0-4-.11-7.87-4.73-9.56.63-1.81.89-3.87,1.94-5.38C1124.1,169.72,1135.37,153.86,1146.61,138Z" transform="translate(-0.03 -72.48)" fill="#039be3"/><path d="M1111,191.06c4.62,1.69,4.76,5.52,4.73,9.56-.07,10.33-.1,20.67,0,31,0,4.44-.34,9.34,5.57,10.89-2.84,7-10.46,6.68-15.72,9.64-18.19,10.22-37.71,17.7-57.49,24.41-.13-.63-.25-1.25-.38-1.88,1.72-.41,3.06-1.2,3.11-3.24L1067.21,248c3.65-5.63,9.42-9.85,11.1-16.78,6.28-5.45,10.26-12.48,13.76-19.85,7.7-4.87,11.42-12.78,15.61-20.34Z" transform="translate(-0.03 -72.48)" fill="#0489d3"/><path d="M1076.3,73c15.21-.69,30.4-1.08,45.46,1.88-4.06,13.7-1.27,27.75-2.09,41.62-12.07,0-24.14-.21-36.19,0-5.55.12-7.46-2-7.33-7.43C1076.44,97.06,1076.28,85,1076.3,73Z" transform="translate(-0.03 -72.48)" fill="#fe8b00"/><path d="M1119.67,116.47c.82-13.87-2-27.92,2.09-41.62,12.6-1.07,23.46,3.94,33.85,10.06,8.08,4.77,11.12,15.66,7.61,24.51-1.68,4.23-3,8.6-4.51,12.92l-3.63.59L1127.63,120C1126.61,115.22,1122.62,117,1119.67,116.47Z" transform="translate(-0.03 -72.48)" fill="#feb503"/><path d="M1119.67,116.47c3,.53,6.94-1.25,8,3.57l-19.89.53H1078.2l-13.83.07c-4.62-.34-9.14,2.2-13.81.43l-3.63-.33c-.15-13.64-.13-27.27-.55-40.9-.16-5,1.41-7.1,6.52-7,7.79.22,15.59.06,23.39.06,0,12,.14,24.09-.15,36.12-.16,5.5,1.84,7.57,7.34,7.5C1095.53,116.26,1107.6,116.46,1119.67,116.47Z" transform="translate(-0.03 -72.48)" fill="#fd5906"/><path d="M1047,120.76l3.63.33q.14,75.18.28,150.36c0,2-1.39,2.83-3.11,3.24-.41-1.21-1.2-2.43-1.19-3.64Q1046.67,195.9,1047,120.76Z" transform="translate(-0.03 -72.48)" fill="#c7012b"/><path d="M1107.77,120.57l19.86-.56,27.45,2.89-3.84,9.43c-2.34.21-3.78,1.22-3.43,3.83l-1.2,1.78c-11.24,15.89-22.51,31.75-33.66,47.71-1,1.51-1.31,3.57-1.94,5.38h-3.28Q1107.74,155.82,1107.77,120.57Z" transform="translate(-0.03 -72.48)" fill="#d60344"/><path d="M1147.81,136.19c-.35-2.61,1.09-3.62,3.43-3.83C1151.24,134.66,1150.24,136.06,1147.81,136.19Z" transform="translate(-0.03 -72.48)" fill="#039be3"/><path d="M1050.85,271.45q-.13-75.18-.28-150.36c4.67,1.77,9.19-.77,13.81-.43V233.85c0,5-.17,9.88,2.91,14.17Z" transform="translate(-0.03 -72.48)" fill="#b90116"/><path d="M1067.26,248c-3.08-4.29-2.91-9.22-2.91-14.17q.08-56.59,0-113.19l13.83-.07.15,110.65C1076.68,238.17,1070.91,242.39,1067.26,248Z" transform="translate(-0.03 -72.48)" fill="#c00120"/><path d="M1078.36,231.24l-.15-110.67H1092q.07,45.42.13,90.83C1088.62,218.76,1084.64,225.79,1078.36,231.24Z" transform="translate(-0.03 -72.48)" fill="#c7012b"/><path d="M1092.12,211.39q-.06-45.42-.13-90.83h15.79V191C1103.54,198.57,1099.82,206.57,1092.12,211.39Z" transform="translate(-0.03 -72.48)" fill="#ce0137"/></svg>