<svg id="Capa_1" data-name="Capa 1" xmlns="http://www.w3.org/2000/svg" viewBox="0 0 1118.8 217.17"><path d="M210.9,94.65c12.72,7.39,22,17.23,27.43,29.8,14.89,34.55-10,73.07-51.25,79.54a95.38,95.38,0,0,1-25.76.14,355.69,355.69,0,0,1-78.83-18.52c-13.32-4.73-26.18-10.29-37.59-18.11a55,55,0,0,1-9.62-8.18c-8.66-9.44-8.6-18.94.22-28.3,5.71-6.06,12.84-10.58,20.44-14.57,16-8.4,33.29-14.26,51-19.16,4.5-1.24,9-2.33,13.57-3.48l.89-.15c.1.74.78,1.12,1.33,1.55,1.72,1.36,3.48,2.68,5.25,4,6.08,4.56,12.36,8.85,19.71,11.76a56.13,56.13,0,0,0,25.67,3.49,54.26,54.26,0,0,0,19.75-5.53c7.1-3.53,13.12-8.1,17.46-14.24Z" transform="translate(-28.83 -9.2)" fill="#0d7f40"/><path d="M121.41,93.66l-.89.15c-.23-.89-1.11-1.31-1.77-1.88C103,78.44,88.55,64,78,46.89c-3.43-5.56-6.08-11.39-7-17.75-1.08-7.28,2.34-13.14,9.8-16.38A44.92,44.92,0,0,1,95.47,9.51c16.71-1.21,33,1.31,49.12,4.68,15.5,3.25,30.64,7.49,45,13.64,14.77,6.32,24.67,16.31,28.64,30.4,3.66,13,1.28,25.24-7.35,36.42l-.32,0c-11.42-6.31-24-9.09-37.34-8.93a157,157,0,0,0-21.11,2C141.78,89.24,131.54,91.25,121.41,93.66Z" transform="translate(-28.83 -9.2)" fill="#b8d338"/><path d="M296.07,109.65V77.1c0-.5,0-1,0-1.5.07-5.26,1.93-7,7.95-6.95,11.71.06,23.42-.46,35.12.07A32.09,32.09,0,0,1,354,72.62c12.47,7.21,12.65,24,.38,31.56-2.15,1.32-2.17,1.35.12,2.31a20.7,20.7,0,0,1,12.78,21.73c-1.46,11.88-11.25,20.54-24.83,22.2a42.17,42.17,0,0,1-5.26.39c-11.14,0-22.29,0-33.43,0q-.94,0-1.89-.06c-3.35-.19-4.94-1.39-5.49-4.27a17.43,17.43,0,0,1-.27-3.3Q296.06,126.43,296.07,109.65Zm16.27,15.42c0,3.88,0,7.75,0,11.62,0,.91.25,1.28,1.36,1.27,7.8-.07,15.6.06,23.4-.18,5.54-.18,10-2.48,12.18-7.11,2.28-4.85,1.87-9.67-2-13.91-2.75-3-6.62-4.16-10.85-4.23-7.54-.13-15.1,0-22.64-.11-1.24,0-1.44.42-1.43,1.37C312.37,117.55,312.34,121.31,312.34,125.07Zm13.48-43.78c-4.48,0-8.2,0-11.91,0-1.21,0-1.61.25-1.6,1.36.06,5.54.07,11.08,0,16.62,0,1.13.41,1.36,1.61,1.35,6.23,0,12.46,0,18.7,0a29.68,29.68,0,0,0,5.07-.36c5.59-1,8.68-4.45,8.67-9.76,0-4.83-3.06-8.09-8.67-8.93C333.51,80.91,329.26,81.45,325.82,81.29Z" transform="translate(-28.83 -9.2)" fill="#505458"/><path d="M884.54,108.72q0-17.35,0-34.72a14.65,14.65,0,0,1,.44-3.62c.89-3.51,4.2-5.87,8.42-6,1.38,0,2.77,0,4.15,0,2.25,0,2.53.25,2.55,2.2,0,3.6,0,7.2,0,10.8s.17,7.08.16,10.62c0,1.22.4,1.31,1.65,1,7.39-1.57,14.85-2.42,22.42-1.18,10,1.64,17,6.65,20.37,15,4.66,11.47,4.73,23.06-.91,34.29-4.48,8.9-12.92,13.54-23.74,14.59a76.09,76.09,0,0,1-32.61-3.6c-2.56-.88-2.92-1.41-2.92-3.87Q884.53,126.49,884.54,108.72Zm15.55,11.13c0,5.87,0,11.74,0,17.61,0,1.07.35,1.54,1.59,1.82a48.62,48.62,0,0,0,12.9,1.1c7.25-.34,12.73-3.19,15.17-9.41a30,30,0,0,0-.14-22.94c-2.31-5.68-7.49-8.71-14.29-8.85a54.64,54.64,0,0,0-13.45,1.38c-1.28.3-1.81.74-1.79,2C900.14,108.33,900.09,114.09,900.09,119.85Z" transform="translate(-28.83 -9.2)" fill="#95999a"/><path d="M875.86,125.32c0,6.15-.05,12.29,0,18.44,0,2.24-1,3.61-3.33,4.49a60.1,60.1,0,0,1-16.62,3.47,98,98,0,0,1-17.72.06,38.8,38.8,0,0,1-12.77-3.28A15.64,15.64,0,0,1,816,135.89c-.85-6.11.23-11.86,4.75-16.74,3.88-4.18,9.28-6.14,15.12-7.26a41.94,41.94,0,0,1,8.24-.7c4.16,0,8.31,0,12.47,0,3.54,0,3.54,0,3.46-3-.15-5.46-3.6-8.71-9.86-9.2a70.94,70.94,0,0,0-21.46,1.9c-.67.15-1.34.3-2,.41a1.73,1.73,0,0,1-2.23-1.28c-.62-2.26-1.28-4.5-1.86-6.77A1.83,1.83,0,0,1,824,90.66c11.55-3.3,23.33-4.59,35.31-2.37,9.65,1.78,15,7.34,16.28,15.95a34.41,34.41,0,0,1,.31,5C875.87,114.57,875.86,120,875.86,125.32ZM860,130.48c0-1.44,0-2.88,0-4.32s.72-3.22-.38-4.14-3-.26-4.57-.24c-4.77.07-9.57-.34-14.31.41-5.59.9-8.92,4.47-9,9.57-.09,4.8,2.51,7.55,8.39,8.72,6.31,1.26,12.49.25,18.63-1,1-.2,1.3-.66,1.28-1.52C859.94,135.47,860,133,860,130.48Z" transform="translate(-28.83 -9.2)" fill="#95999a"/><path d="M1147.59,124c0,7.45-.06,13.54,0,19.62,0,2.36-1.06,3.84-3.53,4.74a62.83,62.83,0,0,1-16.45,3.37,97.3,97.3,0,0,1-17.9.05,38.39,38.39,0,0,1-12.57-3.28c-5.61-2.62-8.63-6.85-9.43-12.28-1.06-7.21.34-13.85,6.78-19,4.34-3.44,9.7-5,15.42-5.69,6.58-.76,13.2-.29,19.8-.33,1.68,0,2.21-.39,2.08-1.86-.15-1.71,0-3.43-.79-5.06-1.72-3.72-5.32-5-9.45-5.37a69.09,69.09,0,0,0-21.26,1.92c-.54.12-1.08.27-1.64.36-1.36.23-2.25,0-2.57-1.45-.46-2-1.17-4.06-1.72-6.11s-.18-2.56,2-3.19c11.45-3.24,23.12-4.34,34.94-2.12,9.18,1.72,14.88,7.69,15.86,15.92C1148.06,111.29,1147.31,118.32,1147.59,124Zm-15.89,6.67v-4.81c0-4.08,0-4.13-4.56-4.07-4.9.06-9.82-.35-14.69.41-5.54.87-8.87,4.2-9.06,9-.21,5.12,2.16,8,7.87,9.22,6.54,1.43,13,.39,19.35-.95.91-.19,1.11-.7,1.1-1.47C1131.67,135.53,1131.69,133.1,1131.7,130.66Z" transform="translate(-28.83 -9.2)" fill="#95999a"/><path d="M775.34,125.12q0,9.3,0,18.6c0,2.77-.65,3.56-3.56,4.64a63.3,63.3,0,0,1-17.58,3.43,87.2,87.2,0,0,1-19.38-.38,30.14,30.14,0,0,1-12-4.13c-6.73-4.33-8-10.57-7.39-17.3a17.46,17.46,0,0,1,4.3-10.29c4-4.46,9.51-6.58,15.59-7.78a40.48,40.48,0,0,1,8.24-.72c4.78,0,9.57-.06,14.35,0,1.57,0,2-.44,1.84-1.7s-.19-2.77-.51-4.12c-.87-3.65-4.53-6.08-9.62-6.47a73.76,73.76,0,0,0-21.28,1.87c-.55.12-1.08.28-1.63.4-1.48.32-2.4-.08-2.74-1.48-.54-2.16-1.12-4.31-1.77-6.45-.45-1.49.22-2.25,1.8-2.74a67.88,67.88,0,0,1,14.33-2.76c6.77-.61,13.55-1,20.26.43,10.56,2.21,16.49,8.6,16.69,18.15.13,6.26,0,12.51,0,18.77Zm-15.88,5.49V124.8c0-3,0-3.08-3.51-3-5.21.09-10.46-.38-15.64.41-5.55.85-8.78,4.18-8.91,9-.15,5.43,2.11,8,8.24,9.25,6.37,1.28,12.61.24,18.82-1,1-.2,1-.82,1-1.53C759.45,135.48,759.46,133.05,759.46,130.61Z" transform="translate(-28.83 -9.2)" fill="#95999a"/><path d="M429.74,123.6c0,7.39,0,13.59,0,19.79,0,3.12-.72,4.07-4.05,5.25a62.81,62.81,0,0,1-17.83,3.3c-7.29.35-14.6.57-21.76-1.14-1-.25-2-.56-3-.89-7.36-2.43-11.91-6.89-12.73-13.9-.94-8,.92-15.14,9.07-20A32.25,32.25,0,0,1,393,111.88c6.41-.61,12.84-.25,19.26-.28,1.53,0,2-.41,1.8-1.67-.09-.6,0-1.22-.06-1.83-.27-4.89-3.4-7.91-8.91-8.52-7.62-.85-15.06.2-22.42,1.81-3.39.75-3.43.78-4.28-2.29-.47-1.66-.91-3.33-1.43-5s0-2.44,1.84-3c8.06-2.57,16.41-3.19,24.88-3.19a46.12,46.12,0,0,1,10.1,1c9.3,2.07,14.94,8,15.71,16.41C430,111.83,429.55,118.31,429.74,123.6ZM414,130.76c0-2.32-.09-4.65,0-7,.07-1.34-.28-1.83-1.92-1.77-3.46.12-6.92,0-10.38,0a40.6,40.6,0,0,0-7.14.46c-5.31,1-8.48,4.38-8.59,9.15-.12,5.09,2.1,7.64,8,8.86,6.42,1.32,12.74.47,19-1,.91-.21,1-.68,1-1.34C413.93,135.74,414,133.25,414,130.76Z" transform="translate(-28.83 -9.2)" fill="#505458"/><path d="M653.92,117.47c0-9.41,0-18.82,0-28.24a23.39,23.39,0,0,1,1.82-9.93c3.38-7.42,10.1-11,18.81-11.21,13.78-.32,27.58-.09,41.37-.14,1.8,0,2.58.78,2.61,2.19.08,2.71.1,5.43,0,8.14-.07,1.85-.84,2.35-3.25,2.35H680.33c-.69,0-1.38,0-2.07,0-5.18.23-8,2.73-8,7.3-.06,4.21,0,8.41-.06,12.62,0,1.32.41,1.67,1.9,1.66,12.59,0,25.19,0,37.78,0,3.14,0,3.45.28,3.46,3,0,2.27,0,4.54,0,6.81,0,1.34-.57,2.24-2.3,2.26-.81,0-1.62.13-2.44.13-12.09,0-24.18,0-36.27,0-1.61,0-2.14.3-2.12,1.82.09,8.3,0,16.61,0,24.91a12.58,12.58,0,0,1-.41,3.62,7.79,7.79,0,0,1-5.66,5.55c-2.77.8-5.61.5-8.43.38a1.82,1.82,0,0,1-1.8-2c0-1.44,0-2.88,0-4.32Z" transform="translate(-28.83 -9.2)" fill="#95999a"/><path d="M988.48,123.82c-5.79,0-11.58,0-17.38,0-1.24,0-1.57.31-1.57,1.41,0,8.49,6.65,14.53,16.3,15a43.24,43.24,0,0,0,17.81-2.9c2.08-.81,2.72-.6,3.72,1.2s2,3.68,3,5.54.68,2.51-1.23,3.53c-4.49,2.42-9.49,3.49-14.62,4.11a55.68,55.68,0,0,1-18.75-.59c-11.87-2.61-18.79-9.43-21.14-19.83-1.77-7.78-2-15.62.59-23.33C958.75,97.21,966.29,90,979,87.83a41.06,41.06,0,0,1,23.39,2.47c7.59,3.27,11.26,9.1,12.81,16.1a24.43,24.43,0,0,1,.53,9.56c-.93,5.46-3.95,7.82-10.28,7.85C999.82,123.84,994.15,123.82,988.48,123.82Zm-3.23-9.95H999.4c.72,0,1.58.2,1.53-.9a17.07,17.07,0,0,0-2.53-9.07c-3.51-5.29-11.71-6.09-17.5-4.43-6.8,2-10.25,8.37-10.89,13.47-.14,1.1.72.93,1.46.93Z" transform="translate(-28.83 -9.2)" fill="#95999a"/><path d="M628.87,119.65c-.1,5.82-.78,11.24-3.09,16.43-4.07,9.14-11.78,14.22-22.7,15.64a52.38,52.38,0,0,1-16.53-.41c-9.78-1.88-16.53-7-19.63-15.31-4-10.8-4.32-21.71.89-32.29,5-10.06,14.17-15,26.45-15.75A40.5,40.5,0,0,1,610.57,90c9.56,3.49,14.47,10.28,16.91,18.74A42.7,42.7,0,0,1,628.87,119.65Zm-16,.36c0-4.39-.4-8.74-2.36-12.86a12.75,12.75,0,0,0-9.6-7.51c-8.8-1.65-16.25,1.86-19.13,9.37-3.16,8.25-2.67,16.56.79,24.71a10.53,10.53,0,0,0,5.14,5.34c8.47,4.27,19,1.17,22.76-6.71A27.65,27.65,0,0,0,612.91,120Z" transform="translate(-28.83 -9.2)" fill="#505458"/><path d="M439,123.08q0-11.64,0-23.27a26.79,26.79,0,0,1,.16-3c.57-4.85,2.61-7.07,8.11-7.74,9.43-1.15,18.91-1.85,28.42-.53,14.22,2,22,9.33,23.34,22a77.3,77.3,0,0,1,.42,8.46v29.08c0,2.72,0,2.76-3.19,2.77s-6.18,0-9.26,0c-2.73,0-3-.29-3-2.69q0-14.86,0-29.74a33.64,33.64,0,0,0-.66-7.94c-1.53-6.36-5.22-9.53-12.49-10.5a61.16,61.16,0,0,0-14.31,0c-1.53.16-2,.62-2,2,.07,14.79,0,29.58,0,44.37v1.83c0,2.44-.14,2.57-2.83,2.59q-4.83,0-9.64,0c-2.72,0-3.05-.31-3.05-2.68Q439,135.62,439,123.08Z" transform="translate(-28.83 -9.2)" fill="#505458"/><path d="M522.15,120.83c.22,4,.5,8.07,2.49,11.83,2.46,4.66,6.66,7.08,12.41,7.45a41.42,41.42,0,0,0,17.48-2.71c2.75-1,3-1,4.2,1.5.94,1.93,1.86,3.86,2.82,5.79.85,1.71.67,2.32-1.19,3.21a36.3,36.3,0,0,1-11,3.33c-6.56.91-13.14,1.41-19.72.34-11-1.81-18.15-7.59-21.22-17-3.26-10-3.26-20,1.13-29.8,4.75-10.57,15-16.67,27.9-16.88a49,49,0,0,1,20.68,3.72c2.41,1,2.68,1.61,1.65,3.76-.85,1.78-1.73,3.55-2.6,5.33-1.27,2.6-1.51,2.68-4.48,1.77a46.17,46.17,0,0,0-13.05-2.39c-6.76-.08-11.53,2.61-14.56,7.83C522.75,112,522.29,116.38,522.15,120.83Z" transform="translate(-28.83 -9.2)" fill="#505458"/><path d="M1038.28,101.75q0,16.13,0,32.23c0,1.05,0,2.1.08,3.15.18,2.12,1.17,3,3.59,3a29.29,29.29,0,0,0,5.46-.21c1.39-.2,2.14.23,2.31,1.52q.43,3.47,1,6.9c.21,1.2-.56,1.71-1.61,2.12a25.43,25.43,0,0,1-7.51,1.43,39,39,0,0,1-9.22-.12c-5.91-1-9.18-4-9.92-9.22a36.85,36.85,0,0,1-.4-5.46q0-31.72,0-63.44c0-3.56,1.07-6.7,5.05-8.45,3.1-1.36,6.41-.92,9.65-.76,1.2,0,1.41,1.14,1.43,2.06,0,1.72,0,3.44,0,5.15Z" transform="translate(-28.83 -9.2)" fill="#95999a"/><path d="M1072.72,101.6v31.9c0,.88,0,1.77,0,2.66.1,3.1,1.18,4,4.72,4,1.5,0,3-.11,4.51-.26,1.32-.14,2,.24,2.2,1.44.32,2.3.66,4.6,1.06,6.89.27,1.54-.88,2.07-2.15,2.49a30.48,30.48,0,0,1-7.95,1.26,41.73,41.73,0,0,1-7.16,0c-7.11-.85-10.62-4.31-11.07-10.64-.1-1.33-.09-2.66-.09-4q0-31.47,0-63a13.62,13.62,0,0,1,.33-4c.91-3.14,3.08-5.1,6.7-5.82a32.18,32.18,0,0,1,7.14-.19c1.48,0,1.74,1,1.74,2.14,0,3,0,6,0,9Z" transform="translate(-28.83 -9.2)" fill="#95999a"/><path d="M801.08,100.42q0,16.36,0,32.73a31.9,31.9,0,0,0,.3,4.14c.24,1.88,1.31,2.8,3.45,2.86a36.83,36.83,0,0,0,5.46-.19c1.63-.19,2.32.24,2.49,1.68.26,2.2.64,4.38,1,6.57.19,1.1-.29,1.77-1.42,2.23a25.34,25.34,0,0,1-7.5,1.46,37.84,37.84,0,0,1-9.21-.07c-6.36-1-9.66-4.26-10.17-9.91-.22-2.38-.31-4.75-.31-7.13q0-30,0-60a15.57,15.57,0,0,1,.57-4.6c.93-3,3.12-5,6.69-5.63a37,37,0,0,1,7.14-.17A1.32,1.32,0,0,1,801,65.7c0,.56,0,1.11,0,1.66Z" transform="translate(-28.83 -9.2)" fill="#95999a"/><path d="M591.94,201.93c0-3.71,0-7.42,0-11.13a3.38,3.38,0,0,1,3.12-3.65c4.77-.85,9.8-1.6,14.28.31,3,1.28,5.19,1,8,0a20.82,20.82,0,0,1,11.87-.49c4.8,1.13,7.86,4.38,8.4,9.19.66,5.8.18,11.62.3,17.43,0,.8-.35,1.16-1.33,1.23-4.59.34-4.53.37-4.61-3.65-.08-4.7.43-9.42-.29-14.1-.61-4-2.86-5.72-7.4-5.92a19.89,19.89,0,0,0-6.86.91c-.71.22-1.25.48-.87,1.31a14.85,14.85,0,0,1,1,6.21c.05,4.48,0,9,.05,13.45,0,1.37-.47,1.84-2.05,1.8-4.55-.12-3.84.46-3.88-3.47,0-4.27,0-8.53-.06-12.79-.1-5.1-2.75-7.38-8.51-7.46-5.37-.07-5.37-.07-5.37,4.61,0,5.76,0,11.51,0,17.27,0,1.3-.3,1.87-2,1.85-3.89-.06-3.89,0-3.89-3.45v-9.47Z" transform="translate(-28.83 -9.2)" fill="#505458"/><path d="M459.23,202c0-3.55,0-7.09,0-10.63,0-2.87,1.12-4,4.38-4.45,4.37-.55,9-1.26,13,.52a9.27,9.27,0,0,0,8,.06,20.69,20.69,0,0,1,10.59-.8c5.55.82,9.24,4.37,9.75,9.79.53,5.69.14,11.4.22,17.11,0,.93-.45,1.25-1.49,1.24-5.43-.09-4.25.54-4.38-3.66-.15-4.65.35-9.31-.29-13.94-.56-4-2.85-5.89-7.45-6.08a20.14,20.14,0,0,0-6.86.93c-.74.23-1.18.54-.82,1.33a14.64,14.64,0,0,1,.9,6.06c.05,4.54,0,9.08.06,13.62,0,1.42-.58,1.79-2.1,1.75-4.54-.11-3.73.42-3.83-3.34-.13-4.86.4-9.75-.3-14.6-.53-3.66-2.62-5.26-6.83-5.69a50.64,50.64,0,0,0-5.65.12c-1.3,0-1.12.79-1.12,1.51V212.6c0,2.21,0,2.22-2.42,2.21-3.92,0-3.37.35-3.4-3s0-6.53,0-9.8Z" transform="translate(-28.83 -9.2)" fill="#505458"/><path d="M333.9,196.47c0,5.54,0,11.08,0,16.62,0,1.27-.4,1.77-1.91,1.75-5.2-.08-4.2.28-4.26-3.68s-.05-8.08,0-12.13c0-1.08-.32-1.41-1.57-1.39-5.67.05-11.34.06-17,0-1.37,0-1.67.4-1.65,1.52.06,4.54,0,9.08,0,13.62,0,1.6-.56,2.11-2.38,2.08-4.68-.09-3.88.09-3.89-3.36,0-10.52,0-21-.05-31.57,0-1.73.64-2.19,2.49-2.12,4,.14,3.79-.48,3.8,3.27,0,3.55,0,7.09,0,10.64,0,1,.31,1.31,1.48,1.3,5.79,0,11.58,0,17.38,0,1.09,0,1.38-.29,1.36-1.22-.05-4.1,0-8.2,0-12.3,0-1.19.4-1.7,1.82-1.68,5.32.09,4.29-.49,4.34,3.71C334,186.5,333.9,191.49,333.9,196.47Z" transform="translate(-28.83 -9.2)" fill="#505458"/><path d="M375.14,194.84c0-5.59.05-11.19,0-16.78,0-1.44.45-1.93,2.13-1.9,3.91.07,3.91,0,3.91,3.41,0,2.11.07,4.21,0,6.31-.06,1.26.21,1.63,1.76,1.29a25.17,25.17,0,0,1,8-.63c5.56.58,9.1,3.26,10.67,7.91a18.27,18.27,0,0,1-.46,13.52c-1.79,4.14-5.31,6.57-10.23,7.18a34.2,34.2,0,0,1-14-1.22,2.1,2.1,0,0,1-1.82-2.31C375.17,206,375.14,200.43,375.14,194.84Zm6,6.19c0,2.65.07,5.31,0,8,0,1,.41,1.38,1.42,1.54a29.23,29.23,0,0,0,5.61.45c3.86-.11,6.53-1.85,7.64-5.12a15.12,15.12,0,0,0,.22-9.17c-1.12-4-3.84-5.79-8.57-5.7a36.94,36.94,0,0,0-5,.61c-1,.17-1.29.62-1.27,1.48C381.18,195.73,381.14,198.38,381.14,201Z" transform="translate(-28.83 -9.2)" fill="#505458"/><path d="M780.55,194.68c0,5.6,0,11.19,0,16.78,0,1.26-.48,1.88-1.81,2.3a35.38,35.38,0,0,1-14.88,1.39c-5.09-.59-8.45-3.19-9.83-7.61a19.11,19.11,0,0,1,0-12c2.08-6.31,7.83-9.72,15.27-9.11,1.31.11,2.63.27,3.92.5,1,.17,1.32,0,1.3-.95-.06-2.76,0-5.53,0-8.3,0-1.14.36-1.57,1.7-1.54,5.29.1,4.28-.52,4.33,3.72C780.6,184.83,780.55,189.76,780.55,194.68Zm-6,6.31v-5.32c0-4.58,0-4.58-5.38-4.68s-8.33,1.9-9.45,6.57a16,16,0,0,0,.12,8.06c.86,3.11,3.18,4.91,6.7,5.25a23.47,23.47,0,0,0,6.74-.44c1-.19,1.31-.58,1.29-1.47C774.5,206.3,774.54,203.65,774.54,201Z" transform="translate(-28.83 -9.2)" fill="#505458"/><path d="M712.41,202.78c0,3.25-.06,5.85,0,8.45,0,1.51-.64,2.32-2.27,2.78a36.64,36.64,0,0,1-16.39.86c-4.69-.82-7.1-3.33-7.56-7.41s1.85-7.59,5.91-9.16c3.2-1.25,6.6-1.25,10-1.23a3.69,3.69,0,0,0,.94,0c1.09-.31,2.69.79,3.29-.62s-.61-3.9-2.16-4.64c-2.21-1.06-4.63-.94-7-.69a50.9,50.9,0,0,0-5.37.87c-1.28.27-1.92,0-2-1.18a3.84,3.84,0,0,0-.37-1.28c-.47-1,0-1.46,1-1.72,5-1.28,10-1.94,15.06-.8,4,.89,6.16,3.27,6.7,6.8C712.67,197,712.28,200.22,712.41,202.78Zm-6,2.94c-.16-1.16.72-3-.33-3.88s-3.11-.23-4.73-.26a18.6,18.6,0,0,0-5.42.4c-2.56.73-3.88,2.49-3.72,5,.13,2.17,1.57,3.55,4.26,3.95a24.45,24.45,0,0,0,6.94-.08c3-.41,3-.45,3-3.17Z" transform="translate(-28.83 -9.2)" fill="#505458"/><path d="M367.35,202.88c0,3.21-.08,5.75,0,8.29.06,1.59-.63,2.44-2.35,2.9a37.25,37.25,0,0,1-16.4.77c-4.39-.79-6.9-3.32-7.27-6.86-.48-4.66,1.52-8,5.78-9.68,3.2-1.25,6.6-1.25,10-1.23a3.68,3.68,0,0,0,.94,0c1.08-.32,2.68.8,3.27-.63s-.61-3.9-2.15-4.63c-2.21-1.05-4.62-.93-7-.68a53.79,53.79,0,0,0-5.38.86c-1.25.26-1.91,0-2.06-1.17a5,5,0,0,0-.44-1.44c-.38-.83,0-1.24.89-1.48,5.11-1.42,10.32-2.08,15.58-.83a7.66,7.66,0,0,1,6.31,6.53C367.63,196.9,367.2,200.23,367.35,202.88Zm-6,3c0-.94-.07-1.89,0-2.82.12-1.12-.25-1.6-1.63-1.52-1.82.1-3.65,0-5.48,0a13,13,0,0,0-3,.33c-2.82.69-4.32,2.53-4.09,5s1.78,3.68,4.86,4a27.15,27.15,0,0,0,5.84-.08c3.47-.37,3.46-.4,3.46-3.5Z" transform="translate(-28.83 -9.2)" fill="#505458"/><path d="M918.89,203.43c0,2.65,0,5.31,0,8a2.28,2.28,0,0,1-1.91,2.49,35.31,35.31,0,0,1-17.29.84c-4.37-.88-6.65-3.42-6.93-7.11a8.6,8.6,0,0,1,5.85-9.33,21,21,0,0,1,7.17-1.21c1.58,0,3.15,0,4.72,0,2.57,0,2.66-.11,2.24-2.31-.37-2-1.64-3.13-3.89-3.53-3.44-.61-6.75.05-10.08.61-.7.12-1.65.63-2.09,0a5.42,5.42,0,0,1-1-3.3c0-.43.61-.53,1-.64a31.87,31.87,0,0,1,14.68-1c4.82.95,7.28,3.81,7.43,8.42.09,2.71,0,5.42,0,8.14Zm-6,2.51v-.33c0-4,0-4.06-4.7-4a22.39,22.39,0,0,0-5.23.3c-3,.73-4.42,2.44-4.15,5.27.21,2.3,1.74,3.5,4.77,3.82a28.71,28.71,0,0,0,5.64-.07c3.67-.34,3.67-.36,3.67-3.62Z" transform="translate(-28.83 -9.2)" fill="#505458"/><path d="M451.39,203.17c0,2.71-.08,5.43,0,8.13.05,1.48-.63,2.23-2.17,2.67a36.19,36.19,0,0,1-16.74.84c-4.32-.79-6.83-3.32-7.21-6.74-.51-4.61,1.51-8.07,5.7-9.74a21.05,21.05,0,0,1,7.36-1.25c1.5,0,3,0,4.53,0,2.71,0,2.87-.17,2.38-2.52a4.1,4.1,0,0,0-3.54-3.26c-3.48-.73-6.87-.06-10.26.52-1.14.19-2.28.78-2.74-.9-.72-2.67-.79-2.75,1.52-3.33a34.68,34.68,0,0,1,12.31-1c5.5.62,8.67,3.67,8.8,8.57.07,2.66,0,5.32,0,8ZM445.31,206v-.5c0-4,0-4-4.61-4a22,22,0,0,0-5.62.37c-2.71.72-4,2.39-3.86,5,.15,2.27,1.6,3.58,4.46,3.95a25.79,25.79,0,0,0,6,0c3.61-.35,3.61-.37,3.61-3.52Z" transform="translate(-28.83 -9.2)" fill="#505458"/><path d="M858.4,202.58c-2.46,0-4.92,0-7.37,0-1.15,0-1.5.22-1.39,1.3.5,4.76,4.62,7.59,10.31,7a16.71,16.71,0,0,0,5.07-1.21c1.11-.51,1.76-.39,2.38.66,1.66,2.8,1.59,3.15-1.87,4.16a24.24,24.24,0,0,1-12.65.32c-5.87-1.44-8.37-5.37-9.08-10.32a17.63,17.63,0,0,1,1.37-10.75c3.45-6.89,13.31-9.53,20.56-5.46,3.88,2.17,6.24,8,4.8,11.75-.63,1.66-2.08,2.52-4.58,2.58s-5,0-7.55,0Zm-.86-4.15h6.59c.58,0,1,0,1.14-.73.43-3.29-2.18-6.34-5.91-6.76-5-.57-8.71,1.95-9.51,6.32-.15.84,0,1.21,1.1,1.19C853.14,198.39,855.34,198.43,857.54,198.43Z" transform="translate(-28.83 -9.2)" fill="#505458"/><path d="M815.5,200.34a20.53,20.53,0,0,1-1,7c-2,5.36-6.73,8.17-13.61,8-7.92-.18-12.56-3.94-13.55-10.88a20,20,0,0,1,.45-8.56c1.86-6.26,7.74-10,14.81-9.48,7.49.56,12,4.6,12.74,11.38C815.44,198.83,815.47,199.83,815.5,200.34Zm-22.46.9a13.77,13.77,0,0,0,.69,4.82c1.12,3.28,3.34,4.84,7.07,4.95,3.94.11,6.5-1.37,7.79-4.61a15.94,15.94,0,0,0,.42-10c-.89-3.6-3-5.29-6.67-5.56-3.87-.28-6.72,1.31-8.26,4.6A12.08,12.08,0,0,0,793,201.24Z" transform="translate(-28.83 -9.2)" fill="#505458"/><path d="M540.21,201a16.32,16.32,0,0,1-.53,4.89c-1.62,6.43-6.53,9.73-14.14,9.53s-12.19-3.68-13.36-10.46A17.88,17.88,0,0,1,513.29,194c2.42-5.19,8-8.1,14.31-7.49,6.92.66,11,4,12.22,9.95A18.26,18.26,0,0,1,540.21,201Zm-6-.1a16.37,16.37,0,0,0-.53-4.77,6.58,6.58,0,0,0-5.51-5.09c-4.51-.75-8,.95-9.51,4.77a15.14,15.14,0,0,0,0,10.77c1,2.92,3.28,4.34,6.7,4.47,3.79.15,6.27-1.14,7.71-4A13,13,0,0,0,534.25,200.85Z" transform="translate(-28.83 -9.2)" fill="#505458"/><path d="M1117.41,201.33a16.57,16.57,0,0,1-.55,4.63c-1.63,6.3-6.54,9.57-14.09,9.42-7.79-.16-12.31-3.73-13.44-10.57a18,18,0,0,1,1.18-10.93c2.4-5.09,8-8,14.21-7.4,6.86.65,11,3.94,12.26,9.75A24.15,24.15,0,0,1,1117.41,201.33Zm-6-.54a17.55,17.55,0,0,0-.55-4.78,6.67,6.67,0,0,0-6.15-5.09c-4.33-.46-7.48,1.21-8.91,4.89a15.14,15.14,0,0,0,0,10.61c1,3,3.28,4.45,6.8,4.58,3.77.14,6.23-1.16,7.68-4A13.35,13.35,0,0,0,1111.42,200.79Z" transform="translate(-28.83 -9.2)" fill="#505458"/><path d="M973.34,215.38c-7.67,0-12.31-3.3-13.66-9.93a18.29,18.29,0,0,1,.77-11c2.32-5.52,7.95-8.62,14.47-8,7.06.67,11.31,4.25,12.38,10.41a20.94,20.94,0,0,1-.21,8.74C985.47,212.14,980.93,215.35,973.34,215.38Zm8.31-14.89a12.87,12.87,0,0,0-.42-3.76c-.79-3.65-3.07-5.59-6.81-5.86-3.95-.29-6.86,1.34-8.31,4.75a15.21,15.21,0,0,0-.29,10.45c.9,3.13,3.2,4.74,6.69,4.92,4,.2,6.58-1.14,8-4.12A14,14,0,0,0,981.65,200.49Z" transform="translate(-28.83 -9.2)" fill="#505458"/><path d="M1066.39,201.59a16.4,16.4,0,0,1-.55,4.33c-1.63,6.41-6.72,9.74-14.4,9.44s-12.14-4-13.12-10.68a18.57,18.57,0,0,1,1.14-10.61c2.31-5.13,7.79-8.1,14-7.61,7,.55,11.16,3.86,12.46,9.73A25.64,25.64,0,0,1,1066.39,201.59Zm-22.4-.49a14.53,14.53,0,0,0,.53,4.68q1.45,5,6.82,5.21c4.14.2,6.85-1.26,8.19-4.56a15.67,15.67,0,0,0,.46-10c-.94-3.72-3.16-5.43-7-5.63s-6.76,1.56-8.16,5A12,12,0,0,0,1044,201.1Z" transform="translate(-28.83 -9.2)" fill="#505458"/><path d="M720.2,202.13c0-3.49,0-7,0-10.47s1.08-4.47,4.94-4.82,7.77-.74,11.66,0c5.64,1.09,8.7,4.12,9.38,9.31.65,5,.26,10.07.3,15.11,0,4.07.72,3.45-3.94,3.57-1.48,0-2-.4-2-1.71.07-4.32,0-8.64,0-13a14.32,14.32,0,0,0-.38-4c-.84-3-2.75-4.51-6.26-4.92a41.79,41.79,0,0,0-6.23,0c-1.33.05-1.64.51-1.63,1.62,0,6.64,0,13.29.06,19.94,0,1.63-.57,2.09-2.36,2-4-.14-3.58.43-3.6-3.24C720.19,208.45,720.2,205.29,720.2,202.13Z" transform="translate(-28.83 -9.2)" fill="#505458"/><path d="M1004,215.37a30.37,30.37,0,0,1-10.11-1.76c-1.34-.5-1.72-1.17-.95-2.3a5.25,5.25,0,0,0,.53-1.06c.43-1.19,1.13-1.48,2.52-.93a23.38,23.38,0,0,0,9.73,1.65,7.9,7.9,0,0,0,2.57-.47c2.77-1.08,3.25-4,.92-5.68a18.67,18.67,0,0,0-4.86-2.16c-1.8-.66-3.65-1.21-5.37-2-4.2-1.9-5.61-4.18-5-7.7.61-3.34,3.32-5.63,7.51-6.27a27.16,27.16,0,0,1,11.89,1c1.39.41,1.85,1.05,1.08,2.21-.06.1-.1.21-.15.31-1,2.17-1,2.18-3.54,1.45a20.43,20.43,0,0,0-7.26-.72c-1.73.13-3.26.67-3.74,2.3s.51,2.91,2.18,3.64,3.55,1.39,5.36,2a30.13,30.13,0,0,1,4.92,2.08c2.81,1.59,4.34,3.82,4.05,6.82s-2.1,5.25-5.31,6.53A17.88,17.88,0,0,1,1004,215.37Z" transform="translate(-28.83 -9.2)" fill="#505458"/><path d="M556.73,215.37a31.9,31.9,0,0,1-9.78-1.59c-1.58-.52-2.21-1.15-1.26-2.7,1.36-2.19,1.24-2.27,3.93-1.39a23.89,23.89,0,0,0,9.24,1.24c1.91-.14,3.61-.7,4.33-2.45.66-1.6,0-3-1.93-4.08a38.71,38.71,0,0,0-6-2.34c-1.22-.45-2.45-.86-3.62-1.4-4-1.86-5.46-4.08-5-7.57.46-3.2,3.14-5.62,7.24-6.33a26.37,26.37,0,0,1,12.44,1c1,.31,1.4.86,1,1.78a4.66,4.66,0,0,0-.22.45c-1,2.38-1,2.4-3.74,1.63a20.18,20.18,0,0,0-7.26-.68c-1.75.15-3.22.78-3.63,2.42s.61,2.79,2.19,3.48c1.74.76,3.55,1.41,5.35,2a32.41,32.41,0,0,1,4.92,2.08c3,1.65,4.42,4,4,7.13-.37,3-2.22,5-5.23,6.21A17.31,17.31,0,0,1,556.73,215.37Z" transform="translate(-28.83 -9.2)" fill="#505458"/><path d="M1133.89,215.37a30.92,30.92,0,0,1-10.12-1.73c-1.3-.47-1.88-1.07-1-2.24.09-.14.17-.3.25-.45,1.1-2.14,1.1-2.15,3.62-1.32a24.1,24.1,0,0,0,9.43,1.3c1.69-.12,3.23-.59,4.07-2,.94-1.62.34-3.28-1.62-4.44a33.29,33.29,0,0,0-5.84-2.3c-1.28-.46-2.57-.91-3.79-1.47-4.2-1.94-5.7-4.33-5-7.86.63-3.22,3.55-5.55,7.71-6.14a27.21,27.21,0,0,1,11.53,1c1.48.43,2,1.09,1.18,2.34a3.16,3.16,0,0,0-.41.92c-.33,1.24-1,1.59-2.44,1a18.46,18.46,0,0,0-7.58-1c-2.36.11-3.88,1-4.28,2.41s.46,2.79,2.66,3.74c1.74.75,3.58,1.33,5.38,2a29.91,29.91,0,0,1,4.56,2c2.9,1.66,4.28,4,3.93,7-.34,2.9-2.08,4.92-5,6.18A17,17,0,0,1,1133.89,215.37Z" transform="translate(-28.83 -9.2)" fill="#505458"/><path d="M830.27,183.42c0,3.63,0,3.63,4.12,3.63H835c2.36,0,3.53,1.67,2.54,3.6-.29.58-.87.56-1.43.56-1.45,0-2.9,0-4.34,0-1,0-1.45.21-1.44,1.19,0,5.1,0,10.19,0,15.28,0,2.39,1.19,3.28,3.92,3.17a37.13,37.13,0,0,0,4-.34c1-.14,1.31.15,1.54,1,.87,3,.63,3.39-2.9,3.73a31.23,31.23,0,0,1-5.47.12c-4.57-.35-6.84-2.36-6.91-6.43-.09-5.25-.1-10.51,0-15.77,0-1.47-.35-2.18-2.13-1.9a5.34,5.34,0,0,1-1.13,0c-.91,0-2,.2-2-1.12,0-1.12-.43-2.64,1.58-2.62,3.59,0,4.58-1.77,4.8-4.5.17-2,1.37-2.81,3.6-3.14.81-.12,1.06.21,1.09.77C830.3,181.54,830.27,182.48,830.27,183.42Z" transform="translate(-28.83 -9.2)" fill="#505458"/><path d="M943.85,194.08c0-5.43,0-10.85,0-16.27,0-1.21.34-1.67,1.78-1.64,5.17.12,4.23-.5,4.25,3.62,0,9.4,0,18.81,0,28.22,0,2.71.29,2.93,3.37,2.78.74,0,1.67-.27,1.62.8s1.37,2.66-.75,3.29a13.29,13.29,0,0,1-7.24.14c-2.49-.66-3-2.55-3-4.51,0-5.48,0-11,0-16.43Z" transform="translate(-28.83 -9.2)" fill="#505458"/><path d="M415.82,193.27c0,5,0,10.07,0,15.11,0,2.19.55,2.68,3.06,2.41,1.47-.15,2.07.22,2.17,1.49s.57,2.47-1.5,2.8a18.92,18.92,0,0,1-6.19.08,3.81,3.81,0,0,1-3.21-2.72,9,9,0,0,1-.35-2.63c0-10.62,0-21.25,0-31.87,0-1.4.47-1.81,2-1.77,4.85.12,4-.46,4,3.49C415.86,184.2,415.82,188.74,415.82,193.27Z" transform="translate(-28.83 -9.2)" fill="#505458"/><path d="M1080.93,202.08c-.19,4.24.46,9.29-.64,14.28-1,4.69-4,8-9.13,9.79-1.33.47-2,.24-2.26-1a1.69,1.69,0,0,0-.13-.31c-.89-2.35-.9-2.36,1.41-3.66a8.23,8.23,0,0,0,4.44-6.06A28.75,28.75,0,0,0,1075,211c0-7.42,0-14.83,0-22.24,0-1.29.39-1.75,1.91-1.71,4.73.14,4-.58,4.07,3.63C1081,194.22,1080.93,197.76,1080.93,202.08Z" transform="translate(-28.83 -9.2)" fill="#505458"/><path d="M668.44,203c0,3.44-.05,6.87,0,10.31,0,1.17-.46,1.54-1.76,1.51-5-.09-4.07.47-4.11-3.58-.05-6.59,0-13.19,0-19.78,0-3.5,1.08-4.42,5.07-4.82,5.15-.5,10.06-.13,14.45,2.57,2,1.22,2,1.24.54,2.89-1.89,2.18-1.9,2.18-4.37.74a13.83,13.83,0,0,0-8.3-1.64c-1.21.09-1.59.44-1.57,1.5C668.48,196.14,668.44,199.58,668.44,203Z" transform="translate(-28.83 -9.2)" fill="#505458"/><path d="M652.84,201c0,4.1-.05,8.19,0,12.28,0,1.26-.47,1.64-1.85,1.6-4.71-.11-4.07.57-4.09-3.62,0-7.41,0-14.82,0-22.23,0-1.55.55-2,2.27-1.95,4.43.11,3.62-.3,3.67,3.31S652.84,197.41,652.84,201Z" transform="translate(-28.83 -9.2)" fill="#505458"/><path d="M702.53,173.68c1.46.34,2.91.67,4.36,1,.88.21.84.65.36,1.22q-3.16,3.81-6.29,7.64c-1.13,1.39-2.27.24-3.32,0-1.22-.33-.37-1.11-.13-1.63,1.08-2.4,2.25-4.77,3.39-7.16C701.2,174.09,701.54,173.5,702.53,173.68Z" transform="translate(-28.83 -9.2)" fill="#505458"/><path d="M649.92,183.3a3.49,3.49,0,1,1,4-3.51C653.92,181.64,652,183.3,649.92,183.3Z" transform="translate(-28.83 -9.2)" fill="#505458"/><path d="M1077.92,183.29a3.82,3.82,0,0,1-4-3.48,3.77,3.77,0,0,1,3.81-3.43,3.82,3.82,0,0,1,4,3.39A3.78,3.78,0,0,1,1077.92,183.29Z" transform="translate(-28.83 -9.2)" fill="#505458"/><path d="M121.41,93.66c10.13-2.41,20.37-4.42,30.72-5.94a157,157,0,0,1,21.11-2c13.38-.16,25.92,2.62,37.34,8.93-4.34,6.14-10.36,10.71-17.46,14.24a54.26,54.26,0,0,1-19.75,5.53A56.13,56.13,0,0,1,147.7,111c-7.35-2.91-13.63-7.2-19.71-11.76-1.77-1.32-3.53-2.64-5.25-4C122.19,94.78,121.51,94.4,121.41,93.66Z" transform="translate(-28.83 -9.2)" fill="#004431"/><path d="M381.14,201c0-2.65,0-5.3,0-7.95,0-.86.24-1.31,1.27-1.48a36.94,36.94,0,0,1,5-.61c4.73-.09,7.45,1.68,8.57,5.7a15.12,15.12,0,0,1-.22,9.17c-1.11,3.27-3.78,5-7.64,5.12a29.23,29.23,0,0,1-5.61-.45c-1-.16-1.46-.54-1.42-1.54C381.21,206.34,381.14,203.68,381.14,201Z" transform="translate(-28.83 -9.2)" fill="#fefefe"/><path d="M706.37,205.72v1.91c0,2.72,0,2.76-3,3.17a24.45,24.45,0,0,1-6.94.08c-2.69-.4-4.13-1.78-4.26-3.95-.16-2.46,1.16-4.22,3.72-5a18.6,18.6,0,0,1,5.42-.4c1.62,0,3.69-.6,4.73.26S706.21,204.56,706.37,205.72Z" transform="translate(-28.83 -9.2)" fill="#fefefe"/><path d="M361.34,205.88v1.49c0,3.1,0,3.13-3.46,3.5A27.15,27.15,0,0,1,352,211c-3.08-.32-4.64-1.59-4.86-4s1.27-4.36,4.09-5a13,13,0,0,1,3-.33c1.83,0,3.66.07,5.48,0,1.38-.08,1.75.4,1.63,1.52C361.27,204,361.34,204.94,361.34,205.88Z" transform="translate(-28.83 -9.2)" fill="#fefefe"/><path d="M445.31,206v1.33c0,3.15,0,3.17-3.61,3.52a25.79,25.79,0,0,1-6,0c-2.86-.37-4.31-1.68-4.46-3.95-.16-2.63,1.15-4.3,3.86-5a22,22,0,0,1,5.62-.37c4.61,0,4.61,0,4.61,4Z" transform="translate(-28.83 -9.2)" fill="#fefefe"/><path d="M851,198.45c-1.08,0-1.25-.35-1.1-1.19" transform="translate(-28.83 -9.2)" fill="#fefefe"/><path d="M865.27,197.7c-.1.75-.56.73-1.14.73" transform="translate(-28.83 -9.2)" fill="#fefefe"/><path d="M534.25,200.85a13,13,0,0,1-1.18,6.17c-1.44,2.84-3.92,4.13-7.71,4-3.42-.13-5.68-1.55-6.7-4.47a15.14,15.14,0,0,1,0-10.77c1.49-3.82,5-5.52,9.51-4.77a6.58,6.58,0,0,1,5.51,5.09A16.37,16.37,0,0,1,534.25,200.85Z" transform="translate(-28.83 -9.2)" fill="#fefefe"/></svg>