<svg id="Capa_1" data-name="Capa 1" xmlns="http://www.w3.org/2000/svg" viewBox="0 0 923.23 198.3"><path d="M81.2,170.57c6.4,2.49,11.79,4.62,16.55,7.89,13.65,9.37,20.75,21.79,19.38,38-1.43,16.84-9.91,29.62-26.54,35.82-28.77,10.73-57.82,9-86.65-.56-3-1-3.94-2.85-3.93-5.84q.12-70.75,0-141.51c0-3.26.94-5.2,4.23-6.3C31,89.13,58.09,87.07,85,96.82c17.39,6.29,26.84,20.11,26.46,36.8-.39,17.36-9.75,28.9-26.56,35.22C84.08,169.15,83.29,169.57,81.2,170.57ZM30.53,208.12c0,8.13.25,16.28-.1,24.4-.18,4.08,1.57,5.72,5.43,6.48a66.75,66.75,0,0,0,24.16.57c15.8-2.66,24.15-11,25-25,1.14-17.83-6-28.87-21.62-33.47-9-2.64-18.23-2.3-27.47-2.46-4.56-.08-5.69,1.68-5.54,5.73C30.74,192.27,30.53,200.2,30.53,208.12Zm0-70.79v21.82c0,2-.57,4.26,3,4.52,10.87.79,21.65.72,31.91-3.22,11-4.24,16.09-13.67,15.17-27.43-.83-12.55-6.8-20.3-18.38-23.31-9.09-2.37-18.26-1.89-27.42,0-3.08.62-4.49,2-4.39,5.21C30.7,122.36,30.53,129.85,30.53,137.33Z" transform="translate(-0.01 -76.92)" fill="#a8292b"/><path d="M248.74,195.79c0-18.22.21-36.44-.14-54.65-.09-4.78,1.73-6.76,6.21-8.21a140.11,140.11,0,0,1,64.06-5.45c24.73,3.61,36.48,17.21,36.48,41,0,27.43-.12,54.86.12,82.29,0,4.79-1.25,6.49-6.41,6.12a120,120,0,0,0-17.58,0c-5.52.42-7.29-1.12-7.23-6.63.31-27,.15-54,.14-81,0-18-8-25.17-27.11-24.38-.9,0-1.8.1-2.7.16-14.33.88-14.85,1.41-14.85,15,0,30-.12,60,.12,90,0,5.12-1,7.39-6.94,6.91A149.62,149.62,0,0,0,254,257c-4.23.2-5.35-1.27-5.31-5.15C248.84,233.08,248.74,214.43,248.74,195.79Z" transform="translate(-0.01 -76.92)" fill="#a92a2c"/><path d="M923.13,206.31c0,12.64-.18,25.28.1,37.92.1,4.24-1,6.63-5.48,8.13-22.71,7.59-45.82,9.39-69.17,3.77-17.44-4.19-27.56-15.08-29.28-30-2-17.36,4-31.2,20.32-40.18,14.4-7.85,30.4-10.73,46.55-12.28,6.23-.59,8.46-2.27,8-8.45-.79-11.45-5.53-17.49-17.42-19.47-13.06-2.18-25.65.2-37.64,5.1-4.4,1.8-6,1.13-7.71-3.07-5.12-12.8-5.32-12.76,8.72-16.9a108.77,108.77,0,0,1,43.41-4.12c25.27,2.85,39.19,17.41,39.54,41.63C923.28,181,923.13,193.67,923.13,206.31Zm-29.07,7V190.85c0-2,.16-4-3.06-3.6-11.61,1.58-23.33,3-33,10.09s-10.78,17.28-9.21,27.88c1.26,8.53,6.84,13.76,15.37,16.09s16.89,1.86,25.32-.33c3.32-.86,4.78-2.42,4.65-5.86-.24-7.24-.06-14.55-.11-21.78Z" transform="translate(-0.01 -76.92)" fill="#a92a2c"/><path d="M559.87,205.83c0,13.07-.15,26.14.09,39.2.07,3.85-1.28,5.81-5,7.11a124.53,124.53,0,0,1-68.49,4.33c-17.75-3.9-28.45-14.9-30.33-29.82-2.39-18.75,5-33,21.54-41.4,14.17-7.22,29.64-10.3,45.4-11.53,7.15-.56,8.42-3.26,7.89-9.19-1-11.11-5.8-16.79-17.5-18.76-13.07-2.21-25.66.14-37.63,5-4.54,1.87-6.15,1-7.67-3.15-5-13.6-8.53-11.17,8.21-16.58a104.14,104.14,0,0,1,45.38-4.16c22.62,2.85,36.1,15.6,37.51,37.17.92,13.86.17,27.82.17,41.74ZM531,213.7c0-7.5-.07-15,0-22.5,0-2.86-.55-4.38-4.17-3.87-8.73,1.24-17.41,2.6-25.47,6.15-13.43,5.94-19.27,18.2-15.78,32.67,2.65,11,11.74,16.57,26.94,16.67a63.58,63.58,0,0,0,12.06-1.37c4.59-.85,6.93-2.8,6.52-7.83-.5-6.6-.09-13.28-.1-19.92Z" transform="translate(-0.01 -76.92)" fill="#a8282a"/><path d="M231.34,205.39c0,13.07-.15,26.14.1,39.21.07,4-.92,6.23-5.1,7.64-23.38,7.88-47.15,9.68-71.12,3.45-15.1-3.93-25.14-13.33-27.43-28.63-2.36-15.84,2.17-29.39,16.54-38.81,15-9.81,32.39-12.5,49.89-14.67,8.86-1.11,8.88-1,8.24-9.37-.82-10.87-5.78-16.43-17.09-18.41-13.31-2.31-26.1.17-38.28,5.17-4.33,1.78-5.67.84-7.24-3-5.36-13-5.53-13,8.92-17.2a109.82,109.82,0,0,1,44.11-3.9c24.12,2.91,38,17.4,38.41,40.59C231.53,180.1,231.34,192.75,231.34,205.39Zm-28.75,8.46c0-7.5-.12-15,.06-22.5.08-3.46-1.12-4.51-4.77-4-8.71,1.28-17.38,2.66-25.41,6.31-12.88,5.91-18.7,18.21-15.45,32.38,2.48,10.75,11.59,16.53,26.26,16.79A55.59,55.59,0,0,0,198,241c3.29-.83,4.8-2.43,4.67-5.9-.28-7.06-.1-14.14-.1-21.21Z" transform="translate(-0.01 -76.92)" fill="#a8282a"/><path d="M398,191.33c0,10.36,1.07,20.56,5.44,30.18,7.06,15.57,22,20.89,37.76,13,4-2,5-1,5.88,2.37a46,46,0,0,0,1.95,4.78c3.93,9.78,3.33,11-7.38,14.52-29.57,9.84-57.25-1.77-68.41-29.51a89.06,89.06,0,0,1-.42-67.31c11.46-29.43,44.11-41.9,72.37-28.66,5.34,2.51,8,5.14,4.43,10.64a13.94,13.94,0,0,0-1.62,4.23c-1.18,4.7-2.88,5.64-8.11,3.19-14.9-7-30.36-.94-36.79,13.6C399,171.63,398.12,181.42,398,191.33Z" transform="translate(-0.01 -76.92)" fill="#a8282a"/><path d="M808,192.65c0,19.5-.15,39,.1,58.48.06,4.55-1.36,6-6.09,5.75-6.75-.35-13.53-.22-20.29,0-3.5.09-4.71-1.07-4.7-4.43q.13-59.77,0-119.54c0-3.38,1.2-4.51,4.71-4.41,6.76.2,13.54.32,20.29,0,4.73-.25,6.14,1.21,6.08,5.74C807.86,153.66,808,173.16,808,192.65Z" transform="translate(-0.01 -76.92)" fill="#a92a2c"/><path d="M751.54,222.37c-14.23,20.3-34.09,34.3-56.54,45.32a172.65,172.65,0,0,1-16.07,6.75c-2.76,1-6.31,1.47-8-1.34-2-3.33,1.57-5,3.76-6.51,12-8.44,24-16.85,34-27.44,4.36-4.6,8.22-9.63,12.31-14.46,5.55,0,10.92-1.33,16.38-1.89C742,222.33,746.72,219.37,751.54,222.37Z" transform="translate(-0.01 -76.92)" fill="#ad2829"/><path d="M714.72,139.17c-14.21-5.1-26-.94-36.46,8.52a11,11,0,0,0-7.75-.82c-4.55.94-9.18,1.46-13.78,2.15a44,44,0,0,1,8.08-19.31,50.37,50.37,0,0,0,7.37-.17q24.3-4,48.54-8.38c5.82-1,12.09-.55,17.16-4.3C744,120,749.33,123.92,753,129.65c-10.1,1.73-20.21,3.43-30.3,5.23C719.58,135.44,715.66,134.86,714.72,139.17Z" transform="translate(-0.01 -76.92)" fill="#dd7929"/><path d="M569,169.57a34.54,34.54,0,0,1,3.84-16.74l53.74-9c2.22-.36,3.75-1.22,4.56-3.2,6.07,3.8,11.14,8.48,14.45,14.72-7.9,1.45-16.5.38-23.26,5.89-3.41-1.05-6.75-2.46-10.24-3.09-8.43-1.54-14.22,2.23-18.25,9C585.44,166.46,577.49,170.32,569,169.57Z" transform="translate(-0.01 -76.92)" fill="#da732a"/><path d="M786.83,115.24c-9.83,0-9.86,0-5.91-7.81,3.8-7.49,7.62-15,11.56-22.42,4-7.58,23.57-10.9,30.09-5.27,2,1.71,1.79,3.11.15,4.86q-13.44,14.34-26.79,28.78C793.18,116.37,789.64,114.75,786.83,115.24Z" transform="translate(-0.01 -76.92)" fill="#a92a2c"/><path d="M737.88,116.86c-5.07,3.75-11.34,3.26-17.16,4.3q-24.24,4.32-48.54,8.41a50.37,50.37,0,0,1-7.37.17c10.41-19.9,34.69-27.95,59.35-19.54C729,111.82,734,113.42,737.88,116.86Z" transform="translate(-0.01 -76.92)" fill="#e5862b"/><path d="M751.54,222.37c-4.82-3-9.51,0-14.2.43-5.46.56-10.83,1.94-16.38,1.89,5.43-8.6,10.73-17.27,14-26.87,9.71.82,18.93-3.44,28.66-2.49A62.11,62.11,0,0,1,751.54,222.37Z" transform="translate(-0.01 -76.92)" fill="#b53528"/><path d="M631.19,140.72c-.81,2-2.34,2.84-4.56,3.2-17.92,2.93-35.83,6-53.74,9C581.85,129.1,609.54,123.33,631.19,140.72Z" transform="translate(-0.01 -76.92)" fill="#e1802b"/><path d="M622.38,161.33c6.76-5.51,15.36-4.44,23.26-5.89l7.11,8.91c2.35-5.38,1.31-10.82,4-15.33,4.6-.69,9.23-1.21,13.78-2.15a11,11,0,0,1,7.75.82c-5,6.2-7.88,13.39-10.42,20.72a113.46,113.46,0,0,0-29.23,5.21Z" transform="translate(-0.01 -76.92)" fill="#d3682b"/><path d="M763.67,195.33c-9.73-1-18.95,3.31-28.66,2.49q1-10.23,2-20.48c10.13-.18,19.71-4.27,29.93-3.83.49,1.85.74,3.66-.94,5.15a2.28,2.28,0,0,0-1,2.52C764.73,185.91,766.43,190.81,763.67,195.33Z" transform="translate(-0.01 -76.92)" fill="#bf4426"/><path d="M617.85,229a208.6,208.6,0,0,0,30.66,21.81,20,20,0,0,1,3.75,2.72c1.23,1.18,2.9,2.55,1.92,4.4s-3.12,1.42-4.83.92c-15.8-4.68-30.65-11.07-43.07-21.78.3-2.53,1.49-4.07,4.4-4.55C613.35,232.1,616.39,231.88,617.85,229Z" transform="translate(-0.01 -76.92)" fill="#b53528"/><path d="M714.72,139.17c.94-4.31,4.86-3.73,8-4.29,10.09-1.8,20.2-3.5,30.3-5.23a28,28,0,0,1,8,12.92c-11,2.39-22.31,3.13-33,6.63A49.45,49.45,0,0,0,714.72,139.17Z" transform="translate(-0.01 -76.92)" fill="#d3682b"/><path d="M593.23,187.51l8.43,21.76c-5.49,2.44-12.68.32-17,5.76A58.66,58.66,0,0,1,572,190.2C579.18,190.42,586,187.85,593.23,187.51Z" transform="translate(-0.01 -76.92)" fill="#c8562a"/><path d="M728,149.17c10.72-3.5,22.06-4.24,33-6.63,3,4.78,4.11,10,4.74,15.47-10.76-.25-21,3.56-31.67,3.86Q731,155.57,728,149.17Z" transform="translate(-0.01 -76.92)" fill="#cf6028"/><path d="M734.11,161.87c10.69-.3,20.91-4.11,31.67-3.86,1.06,5.12,2.23,10.23,1.15,15.5-10.22-.44-19.8,3.65-29.93,3.83Q735.55,169.57,734.11,161.87Z" transform="translate(-0.01 -76.92)" fill="#c8562a"/><path d="M584.61,215c4.37-5.44,11.56-3.32,17-5.76A163.81,163.81,0,0,0,617.8,229c-1.46,2.86-4.5,3.08-7.17,3.52-2.91.48-4.1,2-4.4,4.55C597.56,231.07,590.11,223.91,584.61,215Z" transform="translate(-0.01 -76.92)" fill="#bf4426"/><path d="M593.23,187.51c-7.18.34-14.05,2.91-21.3,2.69A45.52,45.52,0,0,1,569,169.57c8.44.71,16.39-3.15,24.84-2.38C590.48,173.9,590.79,180.67,593.23,187.51Z" transform="translate(-0.01 -76.92)" fill="#cf6028"/><path d="M638.61,173.62a113.46,113.46,0,0,1,29.23-5.21c-.47,6.45-2.92,12.53-3.65,19s-5,7.64-10.23,3A92,92,0,0,1,638.61,173.62Z" transform="translate(-0.01 -76.92)" fill="#c8562a"/><path d="M765,181.18a2.28,2.28,0,0,1,1-2.52C767.71,180.2,765.41,180.36,765,181.18Z" transform="translate(-0.01 -76.92)" fill="#c8562a"/></svg>