<svg id="Capa_1" data-name="Capa 1" xmlns="http://www.w3.org/2000/svg" viewBox="0 0 698.11 199.71"><path d="M209.43,143c4.36,9.86,6.14,20.19,6.56,30.78a91.84,91.84,0,0,1-5.72,35.58c-.5,1.36-.72,2.5-3.1,1.9-27-6.79-53.86-6.45-81.11-.8-27,5.58-54.36,8.67-82.12,7.7-11.79-.42-23.46-1.61-34.55-5.75a5.85,5.85,0,0,1-3.92-3.79,94,94,0,0,1-2.55-54.83c.6-2.37,1.22-2.29,3.12-1.08a213.43,213.43,0,0,0,80.3,30.82,76.74,76.74,0,0,0,11,1.28,45.45,45.45,0,0,0,5.55,1c10.29.56,20.54,1.11,30.89.26a152.23,152.23,0,0,0,35-6.59,83.67,83.67,0,0,0,21.1-10C199.72,162.69,206.54,154.06,209.43,143Z" transform="translate(0 -77.29)" fill="#e30f1c"/><path d="M103.11,143.57c-8.59,5.7-17.77,10-28.47,11.34-13.16,1.66-25.52-.71-37.39-5.86a90.82,90.82,0,0,1-24-15.24c-1.45-1.24-1.58-2.24-.61-3.91,21.54-37,65.58-57.56,110.86-51.58,25.45,3.37,46.76,14,64.26,31.3,1.21,1.19,2.22,2.55,3.32,3.83-10.19-.35-20.35-1.4-30.57-.12-8.39,1-16.5,2.85-24.09,6.38C123.64,125.66,113.84,135.16,103.11,143.57Z" transform="translate(0 -77.29)" fill="#e30f1c"/><path d="M137.25,234c8.66-3.34,17.33-6.65,26.76-7.68a84,84,0,0,1,35.33,3.84,101.78,101.78,0,0,1-19.44,21.16c-46.92,38.79-120.7,32-158.33-14.61-.56-.69-1-1.47-1.49-2.21a19.5,19.5,0,0,1,2.71.67c11.31,4.55,22.8,8.58,34.87,11.1,14.38,3,28.75,3.81,43.28.85C113.84,244.57,125.52,239.25,137.25,234Z" transform="translate(0 -77.29)" fill="#e30f1c"/><path d="M137.25,234c-11.73,5.22-23.41,10.51-36.27,13.12-14.53,3-28.9,2.16-43.28-.85-12.07-2.52-23.56-6.55-34.87-11.1a19.5,19.5,0,0,0-2.71-.67c-1.36-2.63,1.11-3.47,2.71-4.37,5.07-2.82,10.84-3.86,16.57-4.7a246.57,246.57,0,0,1,56.87-2.09c13.14,1.14,25.39,5.38,37.68,9.44C135.07,233.18,136.15,233.62,137.25,234Z" transform="translate(0 -77.29)" fill="#6c150a"/><path d="M209.43,143c-2.89,11.11-9.71,19.74-19.6,26.44a83.67,83.67,0,0,1-21.1,10,152.23,152.23,0,0,1-35,6.59c-10.35.85-20.6.3-30.89-.26a45.45,45.45,0,0,1-5.55-1c19.54,0,34.68-8.56,48.7-20.19,11.83-9.81,24.79-18.39,39.46-24.45,5-2.06,10.14-3.75,15.73-3.56C205.06,136.7,209.2,138,209.43,143Z" transform="translate(0 -77.29)" fill="#6c150a"/><path d="M103.11,143.57c10.73-8.4,20.53-17.9,33.31-23.85,7.59-3.53,15.7-5.33,24.09-6.38,10.22-1.28,20.38-.23,30.57.12,3,6.34.67,11.77-3.74,16.57-5.79,6.31-13.88,9-22.23,11-15,3.57-30.31,3.7-45.65,3.38C114,144.27,108.56,143.85,103.11,143.57Z" transform="translate(0 -77.29)" fill="#6c150a"/><path d="M295.67,157.14c12.55,3.83,16.67,10.15,13.9,20.66-1.23,4.77-4.56,7.85-9.23,9.77a32.14,32.14,0,0,1-11.79,2.27c-8.21.06-16.42,0-24.63.06-2,0-2.64-.5-2.63-2.38.06-19.53,0-39.07,0-58.6,0-1.21-.24-2.44,1.87-2.37,10,.32,20-.66,29.94.7,14.58,2,17.35,12.26,13.63,22C305,153.7,300.65,155.39,295.67,157.14Zm-24,14.61v8.89c0,.89-.08,1.84,1.37,1.8,6.28-.17,12.63.62,18.8-1,5.08-1.34,7.4-4.08,7.65-8.72s-2-8.07-6.63-9.88c-4.05-1.58-8.35-1.6-12.61-1.67-8.58-.13-8.58-.06-8.58,8Zm0-27.84v7.88c0,.81-.31,1.92,1.23,1.86,5.88-.23,11.87.78,17.61-1.26,5.35-1.9,7.63-5.58,6.91-11.19-.48-3.64-4-6.38-9.22-6.73-4.72-.32-9.48-.18-14.22-.37-1.93-.08-2.44.59-2.36,2.26.13,2.51,0,5,0,7.55Z" transform="translate(0 -77.29)" fill="#103c5a"/><path d="M557.05,242c0,10.21-.09,20.42.06,30.62,0,2.25-.79,3-3.06,3.27-8.15.89-16.32,1.92-24.48.25-13.15-2.7-20.86-12.76-19.81-25.2.76-9,3.89-16.68,13.16-21.14,6.44-3.1,13.39-2.85,20.25-2.3,3.31.26,4.06-.5,3.89-3.39-.25-4.48,0-9-.11-13.49-.06-1.89.61-2.37,2.62-2.39C557,208.11,557,208,557,215v27Zm-10,10.48v-9.54c0-8.73-.76-9.35-10.47-8.57-1,.08-1.91.13-2.84.29-6.1,1.06-10.4,4-12.22,9.71a24.8,24.8,0,0,0-1.2,8.76c.47,11,8.27,17.59,20.22,16.93,1.42-.08,2.85-.39,4.26-.34,2,.06,2.3-.85,2.28-2.43-.12-4.93-.06-9.87-.06-14.81Z" transform="translate(0 -77.29)" fill="#103c5a"/><path d="M437.77,257.89c0,5.16-.09,10.32,0,15.47,0,2.1-.7,2.72-3,2.93a177.69,177.69,0,0,1-26,.41c-12.62-.72-18.66-8.38-15.8-19.54,1.38-5.37,6.77-9.15,14.36-10a86.39,86.39,0,0,1,17.09-.35c2.78.22,3.77-.45,3.42-3.23-.84-6.79-2.48-8.4-10-8.87a76.83,76.83,0,0,0-18.78,1.36c-2.29.42-3.25.22-3.07-2.21.35-4.76-1.33-4.46,5-5.33a94.48,94.48,0,0,1,23.1-.47c8.28.89,12.69,4.87,13.4,12.44.28,3,.21,5.92.24,8.88S437.76,255,437.77,257.89ZM428,262v-6.57c0-1-.12-1.71-1.46-1.75-5.92-.23-11.87-.79-17.67.76-4.21,1.14-5.94,3.53-5.87,7.54s2,6.32,6.14,7.44a36,36,0,0,0,9.87.86C428,270.23,428,270.24,428,262Z" transform="translate(0 -77.29)" fill="#103c5a"/><path d="M698.11,257.24v16.45c0,1.45-.07,2.32-2.16,2.52a183.22,183.22,0,0,1-26.71.51c-9-.44-14.4-4.27-15.93-10.72-2.41-10.22,3.17-17.54,14.46-18.88a84.8,84.8,0,0,1,17.08-.34c2.56.21,3.54-.36,3.39-3-.37-6.62-2.06-8.47-9.33-9.07a72,72,0,0,0-19.48,1.3c-2.37.45-3,.08-3-2.22.14-4.52,0-4.54,5-5.31a86.32,86.32,0,0,1,23.43-.44c8.51,1,13,5.72,13.22,13.7v15.47ZM679,253.41c-2.76.24-6.24,0-9.58,1-4.14,1.23-6.19,3.7-6.15,7.47s2.3,6.5,6.5,7.62a35,35,0,0,0,9.19.8c9.51,0,9.51,0,9.51-8.82,0-8.15,0-8.15-9.47-8.07Z" transform="translate(0 -77.29)" fill="#103c5a"/><path d="M363.92,171c0,5.48-.09,11,.05,16.46,0,1.85-.62,2.43-2.54,2.59a157.44,157.44,0,0,1-28.14.31c-9.67-.93-14.6-6.27-14.51-15.22.09-8.29,5.88-13.51,16.07-14.35a87.25,87.25,0,0,1,15.67-.14c2.67.26,3.87-.25,3.67-3.08-.47-6.62-1.8-8.11-9.07-9-6.82-.79-13.54.11-20.19,1.33-2.17.4-2.61,0-2.62-2,0-5-.11-5,5.26-5.73,8.4-1.1,16.82-1.48,25.19,0,7,1.28,10.81,5.56,11.14,12.22v.66Zm-9.53,4.61v-6.23c0-1.1-.15-2-1.65-2-5.68,0-11.4-.65-17,.67-4.19,1-6.45,3.5-6.6,7.15-.17,4,2,6.74,6.35,8a35.08,35.08,0,0,0,10.21.93c8.67-.1,8.67-.14,8.67-8.22A.4.4,0,0,1,354.39,175.64Z" transform="translate(0 -77.29)" fill="#103c5a"/><path d="M535.83,165.68c.08,20.88-19.91,29.85-37.33,23.39-10.85-4-16.48-15.47-14.31-28.13,1.66-9.66,7-16.36,17.61-18.89,11.43-2.73,23.2.45,29.08,7.8C534.15,153.93,535.83,159.32,535.83,165.68Zm-10.64.08a20.05,20.05,0,0,0-1.4-8.8c-2.22-5.81-6.7-8.71-13.48-8.77-7.39-.06-12,2.63-14.31,8.6a25.61,25.61,0,0,0-.41,17.1c2.06,6.78,7,10.28,14.15,10.31s12-3.34,14.33-10.12A21.37,21.37,0,0,0,525.19,165.76Z" transform="translate(0 -77.29)" fill="#103c5a"/><path d="M461.66,232.57c6.17-2.23,11.76-4.75,18-5s12.09.83,15.85,6.22a15.15,15.15,0,0,1,2.39,8.83c.08,10.31,0,20.63.07,30.94,0,1.76-.37,2.49-2.52,2.55-7.79.19-7.79.28-7.79-6.87v-25c0-7.14-3.7-10-11.36-8.76a72.78,72.78,0,0,0-11.61,3.09,3,3,0,0,0-2.41,3.36c.1,10.31,0,20.63.1,30.95,0,2.29-.31,3.27-3.21,3.2-6.74-.16-6.74,0-6.74-6.2,0-12.84.07-25.68-.07-38.52,0-2.5.72-3.46,3.38-3.05a4.79,4.79,0,0,0,1.07,0C460,228,462.65,228.11,461.66,232.57Z" transform="translate(0 -77.29)" fill="#103c5a"/><path d="M387.83,146.42c6.3-2.21,11.87-4.58,18.17-5,11.22-.78,18.11,4.7,18.17,15s-.08,20.42.07,30.63c0,2.43-.87,2.85-3.24,2.81-6.88-.09-6.85,0-6.89-6.34,0-9,0-18-.25-27-.12-5.24-2.88-7.53-8.57-7.42-5.45.11-10.4,2-15.39,3.82-1.78.63-1.19,2-1.19,3.08,0,10.32-.1,20.64,0,31,0,2.29-.6,3-3.13,2.92-6.82-.11-6.83,0-6.83-6.34,0-12.63.14-25.25-.09-37.87-.06-3.07,1-3.88,3.94-3.44a4.79,4.79,0,0,0,1.07,0C386.74,142,389.5,142,387.83,146.42Z" transform="translate(0 -77.29)" fill="#103c5a"/><path d="M345.87,232.43c3.58-1.25,6.72-2.51,10-3.46a30.3,30.3,0,0,1,14.4-1c6.56,1.25,11.08,5.59,11.48,11.74.76,11.4.13,22.81.34,34.22,0,1.81-.78,2.12-2.54,2.17-7.75.21-7.75.26-7.75-6.86V243.56c0-6.07-2.65-8.41-9.16-8.22-5.19.16-9.91,2-14.68,3.69-1.84.65-1.33,1.87-1.33,3,0,10.2-.12,20.4,0,30.6,0,2.63-.58,3.62-3.66,3.53-6.3-.19-6.31,0-6.31-5.88,0-12.94.07-25.89-.07-38.84,0-2.43.6-3.49,3.32-3.05a4.83,4.83,0,0,0,1.42,0C344.43,228,346.79,228.39,345.87,232.43Z" transform="translate(0 -77.29)" fill="#103c5a"/><path d="M261.27,244.24c0-9.55.08-19.1-.06-28.65,0-2.35.75-2.92,3.21-2.89,12.5.11,25,.14,37.49,0,2.82,0,3.35.82,3.27,3.17-.16,4.82,0,4.83-5.37,4.83-8.33,0-16.67.06-25,0-2.17,0-3.19.29-3.09,2.64.2,5.15.16,10.32,0,15.47-.06,2,.54,2.64,2.77,2.59,6.19-.14,12.38-.08,18.57,0,5.22,0,4.42-.78,4.74,4.42.17,2.73-.62,3.57-3.67,3.47-6.53-.23-13.09,0-19.63-.12-2.19,0-2.83.51-2.79,2.56.14,7.14,0,14.27.1,21.41,0,2.12-.33,3.08-3,3.05-7.52-.09-7.52,0-7.52-6.82Q261.26,256.76,261.27,244.24Z" transform="translate(0 -77.29)" fill="#103c5a"/><path d="M606,232.57c6.06-2,11.26-4.48,17.16-4.93A23.3,23.3,0,0,1,634,228.89c5.58,2.3,8.25,6.62,8.35,12.05.19,11,0,22,.12,32.94,0,1.76-.64,2.17-2.46,2.22-7.61.19-7.59.25-7.61-6.68,0-8.45,0-16.91-.12-25.36-.13-7.12-3.86-9.85-11.54-8.6a75,75,0,0,0-11.58,3.21c-1.9.62-2.39,1.63-2.38,3.42.1,10.32,0,20.64.12,31,0,2.55-.79,3.11-3.41,3.06C597,276,597,276.15,597,270c0-12.74.09-25.48-.06-38.21,0-2.72.72-3.89,3.72-3.42a4.9,4.9,0,0,0,1.43,0C605.34,227.81,606.76,228.93,606,232.57Z" transform="translate(0 -77.29)" fill="#103c5a"/><path d="M467.49,141.35c1.94.21,4.52.61,7.12.75,2.08.12,2.76.82,2.71,2.83-.1,4.59,0,4.6-5,4.08a40.52,40.52,0,0,0-11,.11c-10.89,1.87-16.2,9.26-14.42,19.88,1.45,8.66,7.12,13.54,16.67,14.36a49.45,49.45,0,0,0,11.72-.49c1.87-.3,2.5-.07,2.57,1.82.18,5.17,0,5.41-5.6,5.83-5.22.39-10.47.67-15.63-.29-16.92-3.14-21.79-16.11-20.26-28.39,1.56-12.5,11.4-19.86,26.58-20.48C464.2,141.3,465.52,141.35,467.49,141.35Z" transform="translate(0 -77.29)" fill="#103c5a"/><path d="M572,252.05c0-7,0-14,0-21,0-1.77.4-2.45,2.53-2.49,7.56-.12,7.56-.21,7.56,6.72,0,12.5-.07,25,0,37.5,0,2.43-.43,3.45-3.44,3.37-6.64-.2-6.65,0-6.65-6.28Z" transform="translate(0 -77.29)" fill="#103c5a"/><path d="M311.64,252.18c0-7,.07-14,0-21,0-1.86.26-2.64,2.62-2.65,7.32,0,7.32-.12,7.32,6.56,0,12.5-.07,25,.07,37.49,0,2.57-.45,3.67-3.62,3.56-6.35-.23-6.35-.05-6.35-5.83Q311.67,261.22,311.64,252.18Z" transform="translate(0 -77.29)" fill="#103c5a"/><path d="M578.24,208.23c1.55-.08,4.38-.81,3.93,3.68-.53,5.23-.13,5.27-5.29,5.26-4.9,0-4.55,0-5-5.52C571.53,207.29,574.46,208.31,578.24,208.23Z" transform="translate(0 -77.29)" fill="#103c5a"/><path d="M311.64,212.57c0-4.28,0-4.28,5.72-4.27,4.19,0,4.24,0,4.17,5.4,0,4.22.82,3.45-6.3,3.51C311.64,217.19,311.64,217.16,311.64,212.57Z" transform="translate(0 -77.29)" fill="#103c5a"/></svg>