<svg id="Capa_1" data-name="Capa 1" xmlns="http://www.w3.org/2000/svg" viewBox="0 0 809.23 195.83"><path d="M120.85,158c4.1,3,8.18,6.12,12.29,9.14,3.49,2.57,5.68,6,5.66,12q-.17,36.57,0,73.16c0,6.94-2,8-6.07,5.11-18.52-13-37-26-55.62-38.74-2.66-1.82-3.62-4.49-3.93-8.12l.72-1.92c1.89.43,3.22-1.09,4.77-2.22,12.12-8.81,24.2-17.75,36.55-25.92,3.72-2.46,5.6-5.08,5.27-10.71-.23-3.72-.21-7.46-.3-11.2C120.29,158.1,120.51,157.9,120.85,158Z" transform="translate(-0.01 -79.4)" fill="#33afdc"/><path d="M65.76,212.08c-.55,4.39-3.23,5.72-5.63,7.4Q33.36,238.23,6.58,257c-5.2,3.63-6.47,2.59-6.49-5.48,0-23.88.1-47.75-.08-71.63,0-6.19,1.5-10.16,5.53-12.73s8-5.53,11.92-8.33c-1.69,14.9,4.25,22.41,13.5,26.94,2.35,1.15,4.46,3.19,6.75,4.6,9.31,5.75,17.75,14,27.45,18.64l.47,1.62A6.86,6.86,0,0,0,65.76,212.08Z" transform="translate(-0.01 -79.4)" fill="#a5c74d"/><path d="M65.21,209c-9.7-4.67-18.14-12.89-27.45-18.64-2.29-1.41-4.4-3.45-6.75-4.6-9.25-4.53-15.19-12-13.5-26.94a2.43,2.43,0,0,1,.5-1.12,65.69,65.69,0,0,0,6.42-3.54q18-12.68,36.08-25.55c3-2.12,5-2.94,5,3.52Q65.16,170.49,65.21,209Z" transform="translate(-0.01 -79.4)" fill="#049444"/><path d="M73.9,208.57l-.72,1.92-2.25.18v-89q22.35-16.07,44.73-32.1c3.71-2.69,5.41-1.46,5.39,4.39q-.14,32-.2,64c-.34-.06-.56.14-.66.59-14-9.84-28-19.65-42-29.55-2.86-2-4.68-2.48-4.64,3.34C73.76,157.75,73.81,183.17,73.9,208.57Z" transform="translate(-0.01 -79.4)" fill="#e11051"/><path d="M65.21,209c.09-25.63.12-51.27.32-76.89,0-6.46-2-5.64-5-3.52q-18,12.87-36.13,25.57A65.69,65.69,0,0,1,18,157.66q-.19-32-.39-64c0-5.38,1.62-6.82,5-4.38q22.62,16.24,45.28,32.56c0,27,0,54-.14,81,0,2.71,1.54,6.76-2.1,7.84Z" transform="translate(-0.01 -79.4)" fill="#5b2c82"/><path d="M756.29,223.49c8.33-27.51,33.34-32,46.41-11.29a43,43,0,0,1,6.41,22.7c.17,10.18.09,20.37,0,30.55,0,2.2.82,5.57-1.61,6s-6.16,2.05-7-1c-1.91-7.24-4.2-2.86-6.46-1.39-12.36,8-26.81,2.78-34.7-12.58-2.41-4.72-3.53-10.08-4.5-15.55Zm8.9,13c.07,13,7.59,23.38,17,23.42,9.68,0,17.9-10.87,17.79-23.6s-8.49-24.23-17.67-24.12c-9.49.06-17.19,10.95-17.1,24.25Z" transform="translate(-0.01 -79.4)" fill="#5b3195"/><path d="M496.61,205.8l8.66-5.45a1.75,1.75,0,0,0,2.35-.74l.09-.21,9.19-.18c.67,1,1.46,1.33,2.4.82,9.61,4.49,16.45,12.92,19.79,26.37-.16,1.8-.17,3.54,1,4.84-.06,9.55-.15,19.09-.16,28.64,0,12.2,0,12.2-9,11.6-1.21-1.32,2.19-6.68-2.34-5.08-14.23,9.36-26.14,7.89-35.08-4.43a37.24,37.24,0,0,1-2.38-4.39c.2-2.1-.26-3.56-1.95-3.82-.72-1.69-1.87-3.13-1.65-5.37.78-6.87-.44-13.58-.81-20.36l-.24-3.26,3.85-10.47a5.68,5.68,0,0,0,2.44-3.84l1-1.34C495.12,208.7,496,207.38,496.61,205.8Zm-.6,29.94c-.11,13.64,7.27,24.1,17,24.12s17.68-10.77,17.67-23.67c0-12.68-8.37-24.08-17.61-24s-17,10.68-17.06,23.55Z" transform="translate(-0.01 -79.4)" fill="#5b3195"/><path d="M408.49,83c20,11.33,22.8,42.88,10.68,60.77-12.52,18.49-37.55,16.05-45.91-13.89a62.47,62.47,0,0,1-.05-22.73c3.26-11.84,9.09-20.09,17.78-24.38a1.8,1.8,0,0,0,2.3-1.1.84.84,0,0,0,0-.17l11.68-.1A2.92,2.92,0,0,0,408.49,83Zm-8.79,58.86c9.66-.11,17.34-10.67,17.36-23.88s-8.27-24.33-18-24-17,11.08-16.85,24.5C382.39,132.14,389.76,142,399.7,141.87Z" transform="translate(-0.01 -79.4)" fill="#5d3496"/><path d="M343.14,202c12.84,1.5,20.49,13.11,21.19,30.48.65,15.84-1.49,29.17-13,36.4-5.63,3.54-11.66,3.72-17.68,3.42-5.57-.28-12.67,3.22-16.32-1.46s-1.08-14.66-1.2-22.29c-.22-13.63-.12-27.27,0-40.9,0-2.39-1.24-6.45,2.6-5.83C326.86,205.32,335,205,343.14,202Zm-2.07,57.64a30.57,30.57,0,0,1,3.16-2c8.18-3.72,11.94-11.15,11.5-22.81-.41-11-4.79-18.36-13-20.42-4.15-1-8.51-.33-12.76-.69-3.28-.28-4.52,1.51-4.45,6,.18,13.12.18,26.25.25,39.37C330.77,263.81,335.9,262.91,341.07,259.68Z" transform="translate(-0.01 -79.4)" fill="#5d3496"/><path d="M262.74,152.64a5.92,5.92,0,0,1-6.29-.09c-.09-2.13.85-4.79-1-6.07-1.08-.74-2,.52-2.47,2.1-17.32,12.95-33.68,1.21-39.44-16a32.05,32.05,0,0,1-.78-4.55c1.35-3.14,0-5.38-1.32-7.67v-5.1c1.12-2.45,2.83-4.73,1.25-8,.18-1.09.35-2.17.53-3.26,1.59-.55,1.71-2.17,1.51-4,5.28-13.66,13.81-19.61,24.71-19.11,10,.46,17.72,6.4,22.29,19.13-.18,1.88,0,3.49,1.61,4l.48,3.26c-1.94,2.64-.07,3.54,1.14,4.74l-.06,3.31c-2.85.7-2.14,3.83-2.15,6.29C262.68,132,262.73,142.31,262.74,152.64Zm-41.31-35.16c.08,13.45,7.72,23.88,17.37,23.72,9.49-.15,17.36-11.29,17.18-24.31-.17-12.68-8-23.21-17.31-23.25C228.8,93.57,221.35,103.9,221.43,117.48Z" transform="translate(-0.01 -79.4)" fill="#5b3195"/><path d="M279,270.13c-8.53-5-14.16-13.64-16.75-26l-.36-17.53c4.57-15.91,14.36-25.83,25.69-26,10.53-.2,20.31,8.48,24.46,21.7,1.29,4.11,1.21,5.59-.42,8,.69-7-2.52-2.29-3.89-2.31-10.2-.13-20.4-.11-30.6,0-1.94,0-4.46-1.24-5.13,3.07-1.65,12,2.36,22.25,10.27,26.34s15.75-.18,20.26-10.92c.91-2.16.77-5.76,3.36-5.92s5.47-1.71,7.19,1.05c1.38,2.22-.24,5.69-1.08,8.21-4.19,12.59-11.38,20-21.28,22.31h-3.57l-5.79-.73a1.89,1.89,0,0,0-2.35-1.27Zm21.2-49.44c-6.37-10.81-18-10.73-24.36,0Z" transform="translate(-0.01 -79.4)" fill="#603798"/><path d="M370.21,129.83c-4.41,13-10.86,22.43-21.7,25-10.48,2.54-21.56-4-27.51-16.91-5.4-11.74-5.06-29.5.79-41,6.31-12.36,17.8-18.17,28.14-14.88s16.2,12.65,20.32,25.11c.7,5.33-1,6.78-4.75,6.84s-4.67-3.32-6.05-6.94c-4-10.49-12.63-15.17-20.74-11.62s-13,13.9-12.06,26c.78,10.4,7.49,19.73,15.47,20.62s14.42-3.68,17.79-14.15c1.71-5.3,4.66-4.64,7.74-4.59C371.28,123.48,370,127.23,370.21,129.83Z" transform="translate(-0.01 -79.4)" fill="#5d3496"/><path d="M211.43,120.4c1.27,2.29,2.67,4.53,1.32,7.67-2.9-.53-2.26,3-2.69,4.87-2.8,12.54-9,19.41-18.56,20.41-.28-1.82-1.11-2.64-2.44-2.64H173c-1.34,0-2.12.93-2.37,2.74-3.17.92-2.92-2.14-2.93-4.85V86.07c0-3.67.56-6.51,3.68-6.48,7.16,0,14.35-.88,21.43,1,8.88,2.39,12.75,12.48,9.28,23.87-.34,1.12-1.68,2.29-.58,3.34C205.21,111.42,206.75,118.3,211.43,120.4Zm-35.22,23.94c5.21.29,10.44.87,15.59-.41,5.52-1.36,10.15-7.89,10.14-14.36,0-8-3.57-12.61-8.71-15-5.61-2.65-11.4-1.65-17.15-.9a2.71,2.71,0,0,0-1.94,2.59q-.07,12.84,0,25.7C174.21,143.45,175.26,144,176.21,144.34Zm6.44-40.67c3.32,0,5.27.25,7.18-.06,2.65-.42,5-2,5.28-6.15.37-4.69-2-7-4.73-7.75s-5.79-.23-8.66-.7c-4.23-.7-5.49,1.31-5.73,7.42C175.6,106.41,180.41,103.4,182.65,103.67Z" transform="translate(-0.01 -79.4)" fill="#603798"/><path d="M612.56,272.05c-6.27-3.48-11.24-9.21-15.22-16.66a5.09,5.09,0,0,0-1.92-4.32c-.18-1.24-.35-2.48-.52-3.72a3.58,3.58,0,0,0-.83-3.31l-.32-11.18c.15-1.6.29-3.19.44-4.79q2.29-6.88,4.6-13.77a5.61,5.61,0,0,0,2.41-3.84l1-1.41c1.35-.43,2.21-1.69,2.88-3.26,6.29-5,13-7.42,20.3-6.61.67,1,1.44,1.37,2.39.9a3.77,3.77,0,0,0,3.77,1.17c.68,1.77,1.73,2.68,3.21,2.59a46.13,46.13,0,0,1,12.19,21.28c1.45,5.75-.16,7.25-4.35,7.29s-5-3.86-6.36-7.61c-3.09-8.15-10-13.43-16.27-12.63-7.19.93-13.53,7.77-15.53,16.78-2.25,10.14-.3,19.38,5.47,25.86,9,10.09,21.16,6.71,26.9-8.34,2.28-6,5.68-4.73,8.27-3.68,3.3,1.33,1.23,5.58.59,8.68-.16.76-.26,1.54-.39,2.31-4,8.63-9.31,14.93-16.32,18.4-.9-.25-1.78-.38-2.37.9L615,273a1.74,1.74,0,0,0-2.27-1Z" transform="translate(-0.01 -79.4)" fill="#5d3496"/><path d="M207.21,269.51l-5.14,2.6c-.91-.24-1.78-.34-2.38.93l-10.54.28c-.92-1.68-2.21-1.41-3.48-1.23-17.08-8.19-26.84-38-10.41-63.24,1.42-.18,2.21-1.46,2.78-3.1,11.53-9,22.71-9.27,33.46,2.49,2.95,3.23,4.77,7.66,6.95,11.71,0,2.64,1.8,4.73,1.22,7.55l-.21,3.38c-5,3.26-7.93,1.2-10.32-5.84-3.35-9.89-11.35-14.7-18.43-12.43-8.35,2.68-14.27,12.22-14.38,23.17-.1,10.7,5.19,20.82,12.38,23.65,7.86,3.1,16.51-.76,20.08-10.69,2.68-7.45,6.27-7.19,10.8-5.67v3l-1,6.12c-.17.75-.35,1.5-.52,2.25a5,5,0,0,0-2,4.18l-5.86,8.08C208.81,266.79,207.88,267.86,207.21,269.51Z" transform="translate(-0.01 -79.4)" fill="#5d3496"/><path d="M709.61,218.24l.85.19c.28,4.3,3.3,7.72,2.1,12.49a1.15,1.15,0,0,1-.91-.57c-.46-2.36-1.8-2.39-3.19-2.38H675.62c-1.6,0-3.11.08-3.63,2.75-2.14,10.54,1.4,21.4,8.49,26.07,7.58,5,17.2,2.1,20.81-8.32,2.79-8.07,6.57-8.48,11.6-7.6-.17,2.51-.33,5-.5,7.52-3.29,10-8.45,17.44-15.83,21.8-1-.28-1.79.1-2.34,1.31l-4.64.64-3.55.06c-5.43-.5-10.08-4-14.77-7.35a4.55,4.55,0,0,0-2.6-3.36l-1-1.41a5.79,5.79,0,0,0-2.33-4.06l-2-6.81a4.68,4.68,0,0,0-1.27-4.28l-.39-5.62a4.81,4.81,0,0,0,0-4.84q.89-6,1.76-12.1c3.08-8.09,7.47-14.4,13.29-18.8l3-1.27c4.52,1.62,9,3.4,13.48-.34a9.12,9.12,0,0,1,6.88,3.66c.21,2.33,1.12,3.21,2.77,2.54l-.37.32.34-.37c-.56,4,1.46,3.73,3.28,3.81.44.69.87,1.39,1.3,2.08C707,216.57,707.53,218.17,709.61,218.24Zm-9.72,2.42c-5.74-10.76-17.26-10.9-24.39,0Z" transform="translate(-0.01 -79.4)" fill="#5d3496"/><path d="M251,257.06a71.17,71.17,0,0,0,9.39,12.7c-4,4.5-8.54,1.63-12.86,1.7-3.12-4.36-6.22-8.75-9.38-13-1.34-1.83-2.66-4.48-4.91-2.77s-2,4.78-1.31,7.74a5.29,5.29,0,0,0,.08,5.05,11.07,11.07,0,0,0-.24,1.38c0,.19.18.41.28.62-3,2.58-6.27,1.45-9.47,1.3-.65-6.44.65-13-.75-19.42q.53-3,1.06-6v-6a16.1,16.1,0,0,1,0-6.91v-6c-.36-2.54-.71-5.08-1.07-7.63,2.17-5.75-1.51-12.82,2.16-18.23.23.42.46.84.68,1.26l.43-1.36H225c3.25.93,6.49,1.62,9.7-.27L239.4,200l1.23,1.49c1.31,3.33,2.85,3.19,4.54.55l1.55-.81c.77,1.53,1.75,2.51,3.17,2.36a29.73,29.73,0,0,1,8.56,11.52,4.61,4.61,0,0,0,1.49,4.42q.18,3.45.38,6.9-1.11,7.25-2.11,14.5a41.78,41.78,0,0,1-7.1,10C247.11,252.9,248.42,255,251,257.06Zm-13.28-43.18c-5.66-2.11-7,2.33-6.46,10,.35,4.47,0,9,.11,13.57,0,1.84,0,4.21,1.71,4.49,5.25.89,10.53,1,14.74-4.36,3.13-4,3.85-9.24,2.28-14.65C248,215.82,243.78,213.4,237.74,213.88Z" transform="translate(-0.01 -79.4)" fill="#5d3496"/><path d="M264.93,112.05c-1.21-1.2-3.08-2.1-1.14-4.74,1.3.17,3,6.15,3.9-.76.34-2.71,2-5.12,3.08-7.62,5.16-11.65,12.44-18.6,22.58-17.36,10.37,1.29,16.95,10.1,20.46,23,4,14.77,1.32,30.28,1.63,45.45.1,4.86-3.42,3-5.51,3.33-2.53.39-4-.74-4-4.83.11-10.18.21-20.38,0-30.56-.31-13.44-6.38-22.76-14.47-22.83-7.63-.08-12.78,6.89-14.25,19.29-1.92,2.3-1.08,5.42-1.24,8.21-.58,10.26.83,20.63-.85,30.83l-7.26-.09q-.21-18-.44-36C267.39,115,268.21,111.67,264.93,112.05Z" transform="translate(-0.01 -79.4)" fill="#5d3496"/><path d="M486.72,228c.37,6.78,1.59,13.49.81,20.36-1.19-1.09-2.23-1.21-2.34,1.2-.15,3.19.33,6.53-.2,9.57-.84,4.85,3.45,13.41-4.87,13.29-7.86-.11-4.17-8.17-4.55-12.85-.56-6.85-.14-13.86-.16-20.8a39.19,39.19,0,0,0-1.21-11c-2.6-8.71-9.11-14.6-14.94-13.59-6.16,1.08-11.15,8.56-12.4,18.59-2.94,4.09-.36,9.55-1.81,14-3.41,7.71-.7,16.27-1.76,24.3a1.88,1.88,0,0,1-2.64-.33,2.13,2.13,0,0,1-.16-.25c-.76-1.23-1.37-1.58-1.54.52l-2.36.24v.15q.14-22.41.28-44.83c2.45-10,7.61-17,13.63-22.91q2.16.17,3.22-2.44l3.65-.11a5,5,0,0,0,6.1,0c10.82,1.36,16.2,11.73,20.61,23.71.14,2.15.29,4.3.48,7.08C485.59,230.05,486.15,229.05,486.72,228Z" transform="translate(-0.01 -79.4)" fill="#603798"/><path d="M645.26,253.78c.13-.77.23-1.55.39-2.31.64-3.1,2.71-7.35-.59-8.68-2.59-1-6-2.3-8.27,3.68-5.74,15-17.92,18.43-26.9,8.34-5.77-6.48-7.72-15.72-5.47-25.86,2-9,8.34-15.85,15.53-16.78,6.25-.8,13.18,4.48,16.27,12.63,1.41,3.75,2.15,7.66,6.36,7.61s5.8-1.54,4.35-7.29l2.75-.34a191.26,191.26,0,0,1,0,24.18C647.21,248.71,647.93,254.27,645.26,253.78Z" transform="translate(-0.01 -79.4)" fill="#f4f1f7"/><path d="M738.63,202c8.93,2.47,13.21,8.38,14.11,19.5-.28,6.53.12,13.14-1.14,19.56a17.89,17.89,0,0,1-6.26,9.1c-2.88,2.22-3,4.28-.61,7.16a86.36,86.36,0,0,1,9.34,13.29c-5.61,1.56-10.88,4.08-15.3-3.1-2.24-3.63-4.94-6.71-7.43-10-1.3-1.75-2.75-3.09-4.63-2.17s-1.21,3.58-1.28,5.51c-.09,2.92.08,5.85.14,8.77-.3.26-.59.54-.87.83-6.32-1.94-6.16-8.31-6.07-15.42.23-17.89,0-35.79-.06-53.69a29.23,29.23,0,0,1,15.39.19C735.33,204.9,736.92,204.57,738.63,202ZM725,240.77c4.09,2.82,8.28,2.09,12.34.21,5.82-2.71,8-7.8,6.87-16.15-.93-7.06-4.65-10.31-9.45-10.84-3.22-.36-6.58-1-9.77.74A43.1,43.1,0,0,0,725,240.77Z" transform="translate(-0.01 -79.4)" fill="#5b3195"/><path d="M370.21,129.83c-.24-2.6,1.06-6.35-2.56-6.4-3.08,0-6-.71-7.74,4.59-3.37,10.47-9.68,15-17.79,14.15s-14.68-10.22-15.46-20.6c-.91-12.14,3.87-22.45,12.06-26s16.73,1.13,20.74,11.62c1.38,3.62,2.16,7,6.05,6.94s5.45-1.51,4.75-6.84l2.94-.07a62.47,62.47,0,0,0,.06,22.73Z" transform="translate(-0.01 -79.4)" fill="#f4f1f7"/><path d="M380.42,229.57c2.73-13.72,8.21-23.85,18.71-27.48.26,3.35,2,3.38,3.84,3.37,3.1,0,6.2-.09,9.29,0,1.44.06,3.56-.9,3.94,1.9.46,3.35-1.8,2.65-3.2,2.88s-2,1.33-2.17,3.12h-7c-.45-4-2.69-3.64-4.42-2.71s-.5,2.4.37,3.42c-4.42,4.53-8.17,9.54-9.27,17.6-1.16,8.45-.83,9.48,5.25,9.54,7,.07,14,.24,20.94-.08,3.6-.17,4.73,1.64,4.69,6.48s-1,6.82-4.65,6.68c-7.17-.29-14.35.12-21.52-.17-3.84-.16-5.54,1.24-5.49,7.13.09,12.34-.21,12.42-9.16,10.13Q380.5,250.58,380.42,229.57Z" transform="translate(-0.01 -79.4)" fill="#5d3496"/><path d="M574.21,218.13c-9.87-8.71-21.14-.35-22,16.67-.47,9.54-.6,19.19-.18,28.72.36,8-1.91,10-7,8.14,0-1.63-.4-3-1.75-3.25a3.62,3.62,0,0,1,0-3.47c3-11.73,2.34-23.54.36-35.37-.11-1.11-.21-2.21-.32-3.32,2.67-9.52,6.89-17.3,13.3-22.63,2-1.11,4.52-.07,6.12-2.82a.65.65,0,0,0,.75.37c1.66,1.39,3.3,1.53,4.9-.19,11,1.17,17,11,21.19,23.79.41,2.75.83,5.49,1.24,8.23h-.3l-.24-.25c-2.78.82-2.14,3.9-2.16,6.43-.06,7,.12,13.9-.09,20.84-.09,2.78,1.43,7.65-2.08,7.72-4.09.08-2.25-5.17-2.37-8.1-.27-6.66,0-13.36-.11-20,0-2.51.72-5.54-1.76-6.92a1.22,1.22,0,0,1-.86.27,3.38,3.38,0,0,0-.84-3.39,10.77,10.77,0,0,0-3.31-8.15C576.37,219.57,575.52,218.47,574.21,218.13Z" transform="translate(-0.01 -79.4)" fill="#5d3496"/><path d="M434.39,270c-1.75,1.53-3.32,3.24-5.67,3.24-2.84,0-4.25-.95-4.2-5.3.2-16.48.23-33,.33-49.44,3.29.24,6.68-1.05,9.83,1.25q-.09,3.45-.16,6.89A356.41,356.41,0,0,0,434.39,270Z" transform="translate(-0.01 -79.4)" fill="#603798"/><path d="M649.69,249a191.26,191.26,0,0,0,0-24.18l.57-4.81.81-1c2.85-.32,5.76-1.52,8.4,1.11a1.35,1.35,0,0,0,.1,1.42c-.82,3.21-.48,6.5-.32,9.77a16.91,16.91,0,0,0,0,8c-.21,3.26-.44,6.51.34,9.7-1.33,7.55,1,15.54-1.47,23l-2.37.13-4.64-.81c-.3-.46-.6-.92-.89-1.38Q649.92,259.43,649.69,249Z" transform="translate(-0.01 -79.4)" fill="#4b1a8c"/><path d="M368.55,270.14c-.09-10.14-.13-20.29-.28-30.43-.16-10.9-.25-21.82-.73-32.7-.24-5.37,1.78-5.38,4.56-5.18s5.81-.82,5.14,5.34a106.76,106.76,0,0,0,.27,22.25q-.24,21-.47,42.09l-2.37-.14q0-21.18-.07-42.37c0-2.57,1.15-6.85-2.08-7-3.8-.16-2.39,4.56-2.43,7.28-.16,10.92,0,21.85-.1,32.77C370,264.85,370.74,268,368.55,270.14Z" transform="translate(-0.01 -79.4)" fill="#4b1a8c"/><path d="M65.63,210.57c3.64-1.08,2.08-5.13,2.1-7.84.14-27,.11-54,.14-80.95l3-.13v89c-1.6,1.39-3.38,1.44-5.17,1.39A6.59,6.59,0,0,1,65.63,210.57Z" transform="translate(-0.01 -79.4)" fill="#dfd5e9"/><path d="M368.55,270.14c2.19-2.1,1.43-5.29,1.44-8.08.08-10.92-.06-21.85.1-32.77,0-2.72-1.37-7.44,2.43-7.28,3.23.14,2.06,4.42,2.08,7,.11,14.12.06,28.25.07,42.37C372.59,271.33,370.31,273.18,368.55,270.14Z" transform="translate(-0.01 -79.4)" fill="#5b3195"/><path d="M718.57,201.27c0,17.9.29,35.8.06,53.69-.09,7.11-.25,13.48,6.07,15.42-2.22,2.54-4.74,1.11-7.15,1-.37-.5-.74-1-1.1-1.52q-.23-10.37-.44-20.73a30.64,30.64,0,0,0,0-9.93v-7.9a64.26,64.26,0,0,0,0-14.67c.08-3.85.17-7.7.24-11.55C716.29,203,716.21,200.74,718.57,201.27Z" transform="translate(-0.01 -79.4)" fill="#4b1a8c"/><path d="M436.59,271.29l2.36-.24,1.54-.52a1.87,1.87,0,0,0,2.54.75,2.2,2.2,0,0,0,.25-.17c2.7.66,2.05-2.2,2-4,0-6.77-.17-13.54-.27-20.31,1.45-4.46-1.13-9.92,1.81-14,2.64,12.13.92,24.5.84,36.75,0,2.48-2.17,5.32-4.58,5S437.48,277.17,436.59,271.29Z" transform="translate(-0.01 -79.4)" fill="#dfd5e9"/><path d="M581.68,232.71c2.48,1.38,1.73,4.41,1.76,6.92.07,6.67-.16,13.37.11,20,.12,2.93-1.72,8.18,2.37,8.1,3.51-.07,2-4.94,2.08-7.72.21-6.94,0-13.89.09-20.84,0-2.53-.62-5.61,2.16-6.43v33.91c-1.24,1.25-1,3.11-1,4.84l-7.53.24Z" transform="translate(-0.01 -79.4)" fill="#4b1a8c"/><path d="M650.07,216.15,650,201l8.08-.9c.12.54.39.78.81.71C659.93,216.79,659.93,216.79,650.07,216.15Z" transform="translate(-0.01 -79.4)" fill="#5b3195"/><path d="M377,271.51q.24-21,.47-42.09c1-1.43,2-.44,2.91.18q.06,20.94.13,41.87Z" transform="translate(-0.01 -79.4)" fill="#f0edf5"/><path d="M424.94,216.33c-.13-1.3-.34-2.59-.38-3.89-.33-12.13-.32-12.13,8.43-11.87l1,1.74q.12,6.42.25,12.86C431.21,217.31,428,216.12,424.94,216.33Z" transform="translate(-0.01 -79.4)" fill="#603798"/><path d="M272,231.07c.67-4.31,3.19-3,5.13-3.07,10.2-.09,20.4-.11,30.6,0,1.37,0,4.58-4.67,3.89,2.31Z" transform="translate(-0.01 -79.4)" fill="#4b1a8c"/><path d="M410.83,213.43c.16-1.79.76-2.89,2.17-3.12s3.66.47,3.2-2.88c-.38-2.8-2.5-1.84-3.94-1.9-3.09-.13-6.19-.07-9.29,0-1.81,0-3.58,0-3.84-3.37l1-.85c6.71,1.05,13.43.72,20.15.19C422.83,213.71,422.21,214.57,410.83,213.43Z" transform="translate(-0.01 -79.4)" fill="#4b1a8c"/><path d="M434.39,270a356.41,356.41,0,0,1,.13-43.36h2.31q-.15,22.41-.28,44.83Z" transform="translate(-0.01 -79.4)" fill="#f4f1f7"/><path d="M264.93,112.05c3.29-.38,2.46,3,2.49,5.4q.25,18,.44,36h-3.29c.93-12.67.44-25.36.3-38Z" transform="translate(-0.01 -79.4)" fill="#cec0df"/><path d="M650.07,216.15c9.86.64,9.86.64,8.82-15.33,3.84.33,2.3,4.46,2.67,7.24.63,4.76-1.55,10.22,1.86,14.3q-.88,6.06-1.76,12.1c-.81-1.07-1.61-2.15-2.42-3.23-.16-3.27-.5-6.56.32-9.77.09-.15.28-.35.26-.46a8.49,8.49,0,0,0-.36-1c-2.64-2.63-5.55-1.43-8.4-1.11a1.1,1.1,0,0,0-1.07-.3C650,217.8,650.05,217,650.07,216.15Z" transform="translate(-0.01 -79.4)" fill="#f4f1f7"/><path d="M264.87,115.36c.14,12.68.63,25.37-.3,38l-1.83-.76c0-10.33-.06-20.66,0-31C262.73,119.19,262,116.06,264.87,115.36Z" transform="translate(-0.01 -79.4)" fill="#4b1a8c"/><path d="M275.12,153.5c1.68-10.2.27-20.57.85-30.83.16-2.79-.68-5.91,1.24-8.21,1.36,12,.3,24,.54,36C277.8,152.78,276.83,153.89,275.12,153.5Z" transform="translate(-0.01 -79.4)" fill="#cec0df"/><path d="M543.61,229.57c2,11.83,2.67,23.64-.36,35.37l-.66-30.52Z" transform="translate(-0.01 -79.4)" fill="#4b1a8c"/><path d="M170.61,153.47c.25-1.81,1-2.74,2.37-2.74h16.08c1.33,0,2.16.82,2.44,2.64Z" transform="translate(-0.01 -79.4)" fill="#4b1a8c"/><path d="M716,216.64a64.26,64.26,0,0,1,0,14.67l-3.47-.39c1.2-4.77-1.82-8.19-2.1-12.49A8.42,8.42,0,0,1,716,216.64Z" transform="translate(-0.01 -79.4)" fill="#dfd5e9"/><path d="M420.3,201.46c-6.72.53-13.44.86-20.15-.19C406.88,198,413.6,197.69,420.3,201.46Z" transform="translate(-0.01 -79.4)" fill="#cec0df"/><path d="M751.6,241c1.26-6.42.86-13,1.14-19.56l3.55,2-1.41,17.4Z" transform="translate(-0.01 -79.4)" fill="#cec0df"/><path d="M247.55,271.46c4.32-.07,8.84,2.8,12.86-1.7,2,.51,3,1.91,1.38,4.27S249.43,274.23,247.55,271.46Z" transform="translate(-0.01 -79.4)" fill="#f0edf5"/><path d="M693.14,202c-4.44,3.74-9,2-13.48.34a1.57,1.57,0,0,0,.32-1C684.36,201.64,688.81,199.62,693.14,202Z" transform="translate(-0.01 -79.4)" fill="#603798"/><path d="M343.14,202c-8.14,3-16.28,3.28-24.4-.18A125.9,125.9,0,0,1,343.14,202Z" transform="translate(-0.01 -79.4)" fill="#4b1a8c"/><path d="M258.21,240.92q1.07-7.26,2.15-14.51l1.58.22.36,17.53C260.49,244.05,260.1,240.63,258.21,240.92Z" transform="translate(-0.01 -79.4)" fill="#f0edf5"/><path d="M716,239.21a30.64,30.64,0,0,1,0,9.93c-1.39,1.42-2.47.09-3.62-.76.17-2.5.33-5,.5-7.52C713.6,239.09,714.85,239.28,716,239.21Z" transform="translate(-0.01 -79.4)" fill="#dfd5e9"/><path d="M222.6,271.73c3.2.15,6.47,1.28,9.47-1.3.48,3.92-1.44,4.85-3.42,4.13S223.21,278,222.6,271.73Z" transform="translate(-0.01 -79.4)" fill="#f0edf5"/><path d="M717.55,271.39c2.41.1,4.93,1.53,7.15-1,.28-.29.57-.57.87-.83-1.17,6.37-5.21,7.3-9.25,2.14Z" transform="translate(-0.01 -79.4)" fill="#dfd5e9"/><path d="M221.84,219.82c.36,2.55.71,5.09,1.07,7.64-1.07,1.12-2.14,1.37-3.22,0,.58-2.82-1.22-4.91-1.22-7.55Z" transform="translate(-0.01 -79.4)" fill="#f0edf5"/><path d="M234.65,201.21c-3.21,1.89-6.45,1.2-9.7.27,3-2.85,6.38-.48,9.48-1.68A13.75,13.75,0,0,0,234.65,201.21Z" transform="translate(-0.01 -79.4)" fill="#603798"/><path d="M581.73,271.76l7.53-.24,1.21.19C587.21,276,583.84,276,581.73,271.76Z" transform="translate(-0.01 -79.4)" fill="#f4f1f7"/><path d="M658.08,200.11,650,201C652.38,195.37,655.11,195.78,658.08,200.11Z" transform="translate(-0.01 -79.4)" fill="#f4f1f7"/><path d="M543.61,229.57l-1,4.85c-.28-1.91-1-3.16-2.52-3.17-1.15-1.3-1.14-3-1-4.84l4.2-.16C543.4,227.36,543.5,228.46,543.61,229.57Z" transform="translate(-0.01 -79.4)" fill="#dfd5e9"/><path d="M590.79,233c-.41-2.74-.83-5.48-1.24-8.23,1.92.1,2.53,3.7,4.63,3.3-.14,1.6-.28,3.19-.43,4.79Z" transform="translate(-0.01 -79.4)" fill="#f4f1f7"/><path d="M222.91,246.3q-.54,3-1.06,6l-3.22-.11,1-6.12C220.79,244.67,221.86,245.09,222.91,246.3Z" transform="translate(-0.01 -79.4)" fill="#f0edf5"/><path d="M659.55,249c-.78-3.19-.55-6.44-.34-9.7h2.48l.39,5.62c-.16,1.33-.31,2.66-.47,4Z" transform="translate(-0.01 -79.4)" fill="#f4f1f7"/><path d="M424.94,216.33c3.1-.21,6.29,1,9.26-1.16,1.18,1.3,1.05,2.88.48,4.55-3.15-2.3-6.54-1-9.83-1.25Z" transform="translate(-0.01 -79.4)" fill="#f4f1f7"/><path d="M463.43,201.13a5,5,0,0,1-6.1,0Q460.38,196.39,463.43,201.13Z" transform="translate(-0.01 -79.4)" fill="#f4f1f7"/><path d="M253,148.57c.44-1.58,1.39-2.84,2.47-2.1,1.86,1.28.92,3.94,1,6.07Z" transform="translate(-0.01 -79.4)" fill="#cec0df"/><path d="M212.66,107.32c1.58,3.25-.13,5.53-1.25,8A10.49,10.49,0,0,1,212.66,107.32Z" transform="translate(-0.01 -79.4)" fill="#603798"/><path d="M399.76,214.16c-.87-1-2.18-2.45-.37-3.42s4-1.34,4.42,2.71Z" transform="translate(-0.01 -79.4)" fill="#4b1a8c"/><path d="M234.65,201.21a13.75,13.75,0,0,1-.22-1.41c1.71-2.94,3.39-3.91,5,.18Z" transform="translate(-0.01 -79.4)" fill="#f0edf5"/><path d="M528.59,266.41c4.53-1.6,1.13,3.76,2.34,5.08C528.44,271.3,528.63,268.76,528.59,266.41Z" transform="translate(-0.01 -79.4)" fill="#dfd5e9"/><path d="M568.36,201c-1.6,1.72-3.24,1.58-4.9.19C565,198.22,566.67,198.17,568.36,201Z" transform="translate(-0.01 -79.4)" fill="#f4f1f7"/><path d="M562.71,200.8c-1.6,2.75-4.12,1.71-6.12,2.82C557.65,198.64,560.54,201.2,562.71,200.8Z" transform="translate(-0.01 -79.4)" fill="#f4f1f7"/><path d="M486.72,228l-2.2,3.88c-.19-2.78-.34-4.93-.48-7.08l2.44-.06Z" transform="translate(-0.01 -79.4)" fill="#f4f1f7"/><path d="M408.49,83a2.91,2.91,0,0,1-3.48-1.6C406.88,79,408,79.57,408.49,83Z" transform="translate(-0.01 -79.4)" fill="#f4f1f7"/><path d="M185.69,272.09c1.27-.18,2.56-.45,3.48,1.23Q186.71,276.58,185.69,272.09Z" transform="translate(-0.01 -79.4)" fill="#f0edf5"/><path d="M686,272.19l3.55-.06C688.42,275.71,687.21,275.76,686,272.19Z" transform="translate(-0.01 -79.4)" fill="#f4f1f7"/><path d="M232,268.43a5.29,5.29,0,0,1-.08-5.05C234.31,265,234.06,266.69,232,268.43Z" transform="translate(-0.01 -79.4)" fill="#f0edf5"/><path d="M251,257.06c-2.6-2.09-3.91-4.16,0-6.16Q251,254,251,257.06Z" transform="translate(-0.01 -79.4)" fill="#f0edf5"/><path d="M706,211.91c-1.82-.08-3.84.17-3.28-3.81A4.72,4.72,0,0,1,706,211.91Z" transform="translate(-0.01 -79.4)" fill="#603798"/><path d="M287.21,272.17h3.57C289.55,275.7,288.36,275.75,287.21,272.17Z" transform="translate(-0.01 -79.4)" fill="#f0edf5"/><path d="M492.77,210.47a5.68,5.68,0,0,1-2.44,3.84C490.09,211.76,490.8,210.36,492.77,210.47Z" transform="translate(-0.01 -79.4)" fill="#f4f1f7"/><path d="M702.79,208.15c-1.65.67-2.56-.21-2.77-2.54A3,3,0,0,1,702.79,208.15Z" transform="translate(-0.01 -79.4)" fill="#603798"/><path d="M259.94,219.51a4.61,4.61,0,0,1-1.49-4.42C260.3,215.69,260.44,217.39,259.94,219.51Z" transform="translate(-0.01 -79.4)" fill="#f0edf5"/><path d="M580,229.57a3.38,3.38,0,0,1,.84,3.39C579.34,232.42,578.15,231.72,580,229.57Z" transform="translate(-0.01 -79.4)" fill="#f4f1f7"/><path d="M601.21,210.46a5.61,5.61,0,0,1-2.41,3.84C598.55,211.78,599.21,210.36,601.21,210.46Z" transform="translate(-0.01 -79.4)" fill="#f4f1f7"/><path d="M605.07,205.79c-.67,1.57-1.53,2.83-2.88,3.26C602.15,206.28,603.21,205.41,605.07,205.79Z" transform="translate(-0.01 -79.4)" fill="#f4f1f7"/><path d="M245.21,202c-1.69,2.64-3.23,2.78-4.54-.55Z" transform="translate(-0.01 -79.4)" fill="#4b1a8c"/><path d="M709.61,218.24c-2.08-.07-2.6-1.72-2.27-4.25A5.11,5.11,0,0,1,709.61,218.24Z" transform="translate(-0.01 -79.4)" fill="#603798"/><path d="M496.61,205.8c-.66,1.58-1.49,2.9-2.86,3.33C493.67,206.33,494.75,205.42,496.61,205.8Z" transform="translate(-0.01 -79.4)" fill="#f4f1f7"/><path d="M680,201.27a1.57,1.57,0,0,1-.32,1l-3,1.27C677.07,200.81,678.34,200.57,680,201.27Z" transform="translate(-0.01 -79.4)" fill="#f4f1f7"/><path d="M634.74,203.84c-1.48.09-2.53-.82-3.21-2.59C633.28,200.51,634.48,201.05,634.74,203.84Z" transform="translate(-0.01 -79.4)" fill="#f4f1f7"/><path d="M178.06,205.75c-.57,1.64-1.36,2.92-2.78,3.1C175.32,206.3,176.32,205.4,178.06,205.75Z" transform="translate(-0.01 -79.4)" fill="#f0edf5"/><path d="M738.63,202c-1.71,2.56-3.3,2.94-4.67-.5Z" transform="translate(-0.01 -79.4)" fill="#4b1a8c"/><path d="M393.33,81.51a1.8,1.8,0,0,1-2.18,1.32l-.17,0C391.28,80.65,391.74,79.08,393.33,81.51Z" transform="translate(-0.01 -79.4)" fill="#f4f1f7"/><path d="M453.68,201.26c-.71,1.74-1.79,2.55-3.22,2.44C450.77,201,452,200.51,453.68,201.26Z" transform="translate(-0.01 -79.4)" fill="#f4f1f7"/><path d="M661.61,248.91c.16-1.33.31-2.66.47-4a4.68,4.68,0,0,1,1.27,4.28Z" transform="translate(-0.01 -79.4)" fill="#cec0df"/><path d="M249.89,203.57c-1.42.15-2.4-.83-3.17-2.36C248.35,200.57,249.56,200.91,249.89,203.57Z" transform="translate(-0.01 -79.4)" fill="#f0edf5"/><path d="M434,202.31l-1-1.74c.42-1.08,1.09-1.47,1.66-.48a1.5,1.5,0,0,1-.43,2.09A1.71,1.71,0,0,1,434,202.31Z" transform="translate(-0.01 -79.4)" fill="#cec0df"/><path d="M594.07,244a3.58,3.58,0,0,1,.83,3.31C593.21,246.91,592.21,246.17,594.07,244Z" transform="translate(-0.01 -79.4)" fill="#f4f1f7"/><path d="M489.21,253.77c1.69.26,2.15,1.72,2,3.82A5,5,0,0,1,489.21,253.77Z" transform="translate(-0.01 -79.4)" fill="#603798"/><path d="M216.09,258.63a5,5,0,0,1,2-4.18C218.44,256.77,218,258.36,216.09,258.63Z" transform="translate(-0.01 -79.4)" fill="#f0edf5"/><path d="M665.33,256a5.79,5.79,0,0,1,2.33,4.06C665.61,260.11,665,258.57,665.33,256Z" transform="translate(-0.01 -79.4)" fill="#f4f1f7"/><path d="M627.76,200.08c-1,.47-1.72.08-2.39-.9C626.71,196.76,627.35,197.82,627.76,200.08Z" transform="translate(-0.01 -79.4)" fill="#f4f1f7"/><path d="M668.66,261.48a4.55,4.55,0,0,1,2.6,3.36C669.49,265.06,668.59,264,668.66,261.48Z" transform="translate(-0.01 -79.4)" fill="#f4f1f7"/><path d="M595.42,251.07a5.09,5.09,0,0,1,1.92,4.32C595.38,255.07,595,253.39,595.42,251.07Z" transform="translate(-0.01 -79.4)" fill="#f4f1f7"/><path d="M519.3,200c-.94.51-1.73.16-2.4-.82C518.21,196.75,518.85,197.79,519.3,200Z" transform="translate(-0.01 -79.4)" fill="#f4f1f7"/><path d="M279,270.13a1.89,1.89,0,0,1,2.35,1.27v0C279.75,273.9,279.3,272.29,279,270.13Z" transform="translate(-0.01 -79.4)" fill="#f0edf5"/><path d="M263.31,104.05c-1.62-.49-1.79-2.1-1.61-4C262.55,101.15,263.46,102.2,263.31,104.05Z" transform="translate(-0.01 -79.4)" fill="#5d3496"/><path d="M694.21,271.49c.55-1.21,1.35-1.59,2.34-1.31C696.27,272.29,695.83,273.89,694.21,271.49Z" transform="translate(-0.01 -79.4)" fill="#f4f1f7"/><path d="M507.71,199.4a1.74,1.74,0,0,1-2.23,1l-.21-.09C505.65,197.87,506.29,196.71,507.71,199.4Z" transform="translate(-0.01 -79.4)" fill="#f4f1f7"/><path d="M199.71,273c.6-1.27,1.47-1.17,2.38-.93C201.67,274.27,201.05,275.44,199.71,273Z" transform="translate(-0.01 -79.4)" fill="#f0edf5"/><path d="M207.21,269.51c.65-1.65,1.58-2.72,3-2.81C210.05,269.31,208.91,270,207.21,269.51Z" transform="translate(-0.01 -79.4)" fill="#f0edf5"/><path d="M574.21,218.13c1.36.34,2.21,1.42,2.51,3.31C575,221.57,574.12,220.5,574.21,218.13Z" transform="translate(-0.01 -79.4)" fill="#f4f1f7"/><path d="M214.7,100.05c.2,1.84.08,3.46-1.51,4A5.3,5.3,0,0,1,214.7,100.05Z" transform="translate(-0.01 -79.4)" fill="#603798"/><path d="M612.56,272.05a1.73,1.73,0,0,1,2.33.78l.06.12C613.6,275.43,613,274.29,612.56,272.05Z" transform="translate(-0.01 -79.4)" fill="#f4f1f7"/><path d="M626.57,273.08c.59-1.28,1.47-1.15,2.37-.9C628.51,274.32,627.88,275.41,626.57,273.08Z" transform="translate(-0.01 -79.4)" fill="#f4f1f7"/><path d="M655.71,272.06l2.37-.13c-.1,1-.26,2.1-1.14,2.15S655.84,273.07,655.71,272.06Z" transform="translate(-0.01 -79.4)" fill="#f4f1f7"/><path d="M590.47,271.71l-1.21-.19c0-1.73-.21-3.59,1-4.84Z" transform="translate(-0.01 -79.4)" fill="#5d3496"/><path d="M543.21,268.41c1.35.29,1.7,1.62,1.75,3.25C543.21,271.78,542.86,270.45,543.21,268.41Z" transform="translate(-0.01 -79.4)" fill="#4b1a8c"/><path d="M225.11,201.49l-.43,1.36c-.22-.42-.45-.84-.68-1.26Z" transform="translate(-0.01 -79.4)" fill="#4b1a8c"/><path d="M650,218.63a1.1,1.1,0,0,1,1.07.3l-.81,1A2.53,2.53,0,0,1,650,218.63Z" transform="translate(-0.01 -79.4)" fill="#603798"/><path d="M717.55,271.39l-1.23.3c0-.61.08-1.21.13-1.82C716.81,270.38,717.21,270.89,717.55,271.39Z" transform="translate(-0.01 -79.4)" fill="#5d3496"/><path d="M650.21,269.87c.29.46.59.92.89,1.38C650.21,271.44,650,271,650.21,269.87Z" transform="translate(-0.01 -79.4)" fill="#603798"/><path d="M73.9,208.57c-.09-25.42-.14-50.84-.3-76.25,0-5.82,1.78-5.36,4.64-3.34,14,9.92,28,19.73,42,29.59.09,3.73.07,7.47.3,11.19.33,5.63-1.55,8.25-5.27,10.71-12.35,8.17-24.43,17.11-36.55,25.92C77.12,207.5,75.79,209,73.9,208.57Z" transform="translate(-0.01 -79.4)" fill="#029bd6"/><path d="M765.21,236.44c-.07-13.3,7.63-24.19,17.17-24.3,9.18-.11,17.56,11.33,17.67,24.12s-8.11,23.64-17.79,23.6C772.78,259.82,765.26,249.49,765.21,236.44Z" transform="translate(-0.01 -79.4)" fill="#f7f6fa"/><path d="M496,235.74c.1-12.87,7.78-23.46,17.07-23.55s17.61,11.32,17.61,24c0,12.9-8,23.68-17.67,23.67S495.9,249.38,496,235.74Z" transform="translate(-0.01 -79.4)" fill="#f7f6fa"/><path d="M399.7,141.87c-9.94.11-17.31-9.73-17.49-23.38C382,105.07,389.43,94.3,399.06,94s18,10.74,18,24S409.36,141.76,399.7,141.87Z" transform="translate(-0.01 -79.4)" fill="#f7f6fa"/><path d="M325.73,259.2c-.07-13.12-.07-26.25-.25-39.37-.07-4.51,1.17-6.3,4.45-6,4.25.36,8.61-.35,12.76.69,8.25,2.06,12.63,9.41,13,20.42.52,11.63-3.28,19.07-11.48,22.79a30.57,30.57,0,0,0-3.16,2Z" transform="translate(-0.01 -79.4)" fill="#f7f6fa"/><path d="M325.73,259.2l15.34.48C335.9,262.91,330.77,263.81,325.73,259.2Z" transform="translate(-0.01 -79.4)" fill="#4b1a8c"/><path d="M221.43,117.48c-.08-13.58,7.37-23.88,17.24-23.84,9.29,0,17.14,10.57,17.31,23.25.18,13-7.69,24.16-17.18,24.31C229.15,141.36,221.51,130.93,221.43,117.48Z" transform="translate(-0.01 -79.4)" fill="#f7f6fa"/><path d="M300.21,220.69H275.85C282.21,210,293.84,209.88,300.21,220.69Z" transform="translate(-0.01 -79.4)" fill="#dfd5e9"/><path d="M176.08,113.63c5.75-.75,11.54-1.75,17.15.9,5.14,2.43,8.7,7,8.71,15,0,6.47-4.62,13-10.14,14.36-5.15,1.28-10.38.7-15.59.41Q176.15,129,176.08,113.63Z" transform="translate(-0.01 -79.4)" fill="#f7f6fa"/><path d="M182.65,103.67c-2.24-.27-7.05,2.74-6.66-7.24.24-6.11,1.5-8.12,5.73-7.42,2.87.47,5.85-.08,8.66.7s5.1,3.06,4.73,7.75c-.32,4.19-2.63,5.73-5.28,6.15C187.92,103.92,186,103.67,182.65,103.67Z" transform="translate(-0.01 -79.4)" fill="#f0edf5"/><path d="M176.08,113.63q.06,15.36.13,30.71c-1-.38-2-.89-2-2.42q-.12-12.85,0-25.7A2.72,2.72,0,0,1,176.08,113.63Z" transform="translate(-0.01 -79.4)" fill="#4b1a8c"/><path d="M222.91,233.41a16.1,16.1,0,0,0,0,6.91l-3.29,2.75c-4.53-1.52-8.12-1.78-10.8,5.67-3.61,9.93-12.23,13.83-20.09,10.69-7.19-2.83-12.48-13-12.38-23.65.11-11,6-20.49,14.38-23.17,7.08-2.27,15.08,2.54,18.43,12.43,2.39,7,5.33,9.1,10.32,5.84Z" transform="translate(-0.01 -79.4)" fill="#f0edf5"/><path d="M219.61,243.07l3.29-2.75v6c-1-1.2-2.12-1.62-3.26-.21C219.64,245.08,219.62,244.07,219.61,243.07Z" transform="translate(-0.01 -79.4)" fill="#603798"/><path d="M222.91,233.41l-3.43-2.53.21-3.38c1.08,1.33,2.15,1.08,3.22,0Z" transform="translate(-0.01 -79.4)" fill="#603798"/><path d="M716,239.21c-1.18.07-2.43-.12-3.14,1.65-5-.88-8.81-.47-11.6,7.6-3.61,10.42-13.23,13.3-20.81,8.32-7.09-4.67-10.63-15.53-8.49-26.07l39.66-.36a1.15,1.15,0,0,0,.91.57l3.47.39Z" transform="translate(-0.01 -79.4)" fill="#f7f6fa"/><path d="M699.89,220.66H675.5C682.63,209.76,694.15,209.9,699.89,220.66Z" transform="translate(-0.01 -79.4)" fill="#dfd5e9"/><path d="M711.65,230.35l-39.66.36c.52-2.67,2-2.75,3.63-2.75h32.84C709.85,228,711.21,228,711.65,230.35Z" transform="translate(-0.01 -79.4)" fill="#4b1a8c"/><path d="M661.69,239.3h-2.48a16.91,16.91,0,0,1,0-8c.81,1.08,1.61,2.16,2.42,3.23A4.78,4.78,0,0,1,661.69,239.3Z" transform="translate(-0.01 -79.4)" fill="#cec0df"/><path d="M237.74,213.88c6-.48,10.3,1.94,12.38,9.08,1.57,5.41.85,10.63-2.28,14.65-4.21,5.41-9.49,5.25-14.74,4.36-1.69-.28-1.69-2.65-1.71-4.49-.07-4.53.24-9.1-.11-13.57C230.69,216.21,232.08,211.77,237.74,213.88Z" transform="translate(-0.01 -79.4)" fill="#f0edf5"/><path d="M445.05,246.81c.1,6.77.26,13.54.27,20.31,0,1.79.66,4.65-2,4C444.35,263.08,441.64,254.57,445.05,246.81Z" transform="translate(-0.01 -79.4)" fill="#4b1a8c"/><path d="M440.49,270.57l-1.54.52C439.12,269,439.73,269.3,440.49,270.57Z" transform="translate(-0.01 -79.4)" fill="#4b1a8c"/><path d="M725,214.73c3.19-1.75,6.55-1.1,9.77-.74,4.8.53,8.52,3.78,9.45,10.84,1.1,8.35-1,13.44-6.87,16.15-4.06,1.88-8.25,2.61-12.34-.21Q725,227.75,725,214.73Z" transform="translate(-0.01 -79.4)" fill="#f4f1f7"/><path d="M725,214.73v26A43,43,0,0,1,725,214.73Z" transform="translate(-0.01 -79.4)" fill="#4b1a8c"/><path d="M659.46,220a8.49,8.49,0,0,1,.36,1c0,.11-.17.31-.26.46A1.34,1.34,0,0,1,659.46,220Z" transform="translate(-0.01 -79.4)" fill="#fcfcfd"/></svg>