<svg id="Capa_1" data-name="Capa 1" xmlns="http://www.w3.org/2000/svg" viewBox="0 0 619.32 220.4"><path d="M141.55,281.88c-1.84.69-2.65-1-3.72-1.79Q70.18,229.57,2.55,179c-3.36-2.51-3.51-3.64,0-6.23q69.11-51.46,138-103.17c1-.76,1.86-2,4.29-1.52C138,75.57,131.59,83,125.67,90.69v1.08c-6.18,4.11-8.94,10.64-12,17h0c-1.45.47-1.81,1.85-2.41,3-6,11.25-11.63,22.66-14.63,35.16a1.06,1.06,0,0,0,0,.5c-.88,4.22-2,8.41-2.58,12.68-1.43,10.85-2.28,21.73.62,32.52l.12,1.29c.17,1.64.22,3.31.54,4.92,3.63,18.4,11.5,35,21.66,50.62,1.93,3,3.19,6.56,6.66,8.32h0c-.06.72.17,1.17,1,1h0c2,6.51,7,10.78,11.54,15.39a14.36,14.36,0,0,0,5.13,6Z" transform="translate(0.03 -67.94)" fill="#054a7f"/><path d="M329.68,240.37c-.27,10.61-4.59,18.88-14,23.83S297,269,288.24,263c-2.74-1.86-4.33-2-7.23,0-11.1,7.65-25.88,5.5-34.85-4.6a27.07,27.07,0,0,1-.24-35.28,26.44,26.44,0,0,1,34.78-5.06c2.72,1.8,4.43,2.14,7.35.17,8.75-5.91,18.2-6.12,27.45-1.31C325,221.74,329.28,230,329.68,240.37Zm-62.76,18.2c.67,0,1.34-.09,2-.18,3.33-.56,6.68-1.33,9-4s-.78-4.91-1-7.42c-.05-.66-.26-1.31-.31-2-.14-2.23.56-4,2.95-4.53,2.19-.5,4,0,5,2.22.67,1.52,1.16,3.12,1.79,4.65A18,18,0,0,0,309,257.57a18.25,18.25,0,0,0,11.05-22.36,17.68,17.68,0,0,0-21.63-12.13c-6.73,1.76-7.75,3.35-6.29,10,.58,2.64-.13,4.68-2.71,5.69-2.77,1.09-4.42-.41-5.5-2.8-.62-1.37-1.07-2.82-1.79-4.12a18,18,0,0,0-33.51,12.09C250,252.27,257.8,258.65,266.92,258.57Z" transform="translate(0.03 -67.94)" fill="#536aa0"/><path d="M214.61,96.82l41.17-5.41v1.4c-14.69,4.27-29.1,9.28-42.61,16.61-28.84,15.64-50.35,37.68-60.68,69.46-7,21.68-8.17,43.89-6.06,66.42.6,6.43,1.72,12.85,1.33,19.35-1.54-1.28-1.66-3.17-2-4.91-4.11-18.43-6.31-37-5.1-56a132.56,132.56,0,0,1,7.12-35.35c2.34-6.71,6.37-12.72,7.9-19.74h0a25.3,25.3,0,0,0,9-13h0c5.76-3.6,9.24-9.58,14.39-13.83a3.66,3.66,0,0,0,1.59-3.44l.83-.72c2.9.18,4.8-.94,5.2-4h0c2.44.28,4-.9,5-3h0c5.69-3.15,11.77-5.71,16-11h0C210.4,99.83,212.55,98.57,214.61,96.82Z" transform="translate(0.03 -67.94)" fill="#acb8c2"/><path d="M96.6,147.35a1.06,1.06,0,0,1,0-.5c2.28.13,2.63-1.51,3.06-3.19,2.71-10.37,7.29-20,12.18-29.43.89-1.72,2.4-3.3,1.8-5.52h0c5.6-4.52,8.55-10.93,12-16.95V90.68c2,.51,3.46-.63,5-1.62,8.08-5.16,16.17-10.32,24.31-15.41,1.3-.82,2.41-2.39,4.15-1.79q-9.73,10.38-19.58,20.84l-3.44,4a.92.92,0,0,0-.48.49c-2.81,3.48-5.8,6.84-8.42,10.47-16.86,23.33-26.65,49-24.44,78.2,1.36,18.08,6.72,35.18,14.81,51.37,4.29,8.57,8.35,17.33,14.58,24.79.57,3.64,4.79,5.59,4.49,9.64-2-.72-2.8-2.59-4.11-4-2.75-2.92-4.3-6.89-7.94-9h0c0-.67-.28-1.07-1-1h0c.29-1.68-.82-2.84-1.64-4-12.2-17.7-21.46-36.68-25.32-58-.2-1.12-.65-1.86-1.9-1.82l-.12-1.29c.17-1.77,1.19-3.31.86-5.27-1.91-11.43-.7-22.72,1.69-34C97.61,151.32,98.73,149.14,96.6,147.35Z" transform="translate(0.03 -67.94)" fill="#1f5d8c"/><path d="M217.8,79.86c-8.64,4.55-17.4,8.89-25.26,14.78a9.27,9.27,0,0,0-5.93,4.09h0c-1.23.14-2,.69-2,2h0a1.79,1.79,0,0,0-2,1h0c-4.11,2.15-8.15,4.38-10,9h0l-1,1h0a2.54,2.54,0,0,0-2.31,1,1.11,1.11,0,0,0-.7.59l-2.48,2.4-3.52,3.61c-2,2-4.21,3.76-5.45,6.38a1.11,1.11,0,0,0-.54.66c-1,.94-2.06,1.8-2,3.34h0a1.69,1.69,0,0,0-1,2h0c-1.37,0-1.93.78-2,2h0c-1.76.86-2.5,2.55-3.46,4.1a112.19,112.19,0,0,0-16.3,43.84,151.47,151.47,0,0,0,.91,49,206.52,206.52,0,0,0,7,26.92c.48,1.44,2.4,3.55-1,4.1h0a8.57,8.57,0,0,0-.76-4.35c-3.62-7.49-6.06-15.38-8.38-23.35-8.62-29.53-8.94-58.7,3.22-87.47,1.66-3.92,4.76-7.27,4.89-11.82h0c1.7.06,2-1.39,2.77-2.44,2.48-3.49,5.06-6.9,7.51-10.41,6-8.55,14-15.33,20.74-23.16h0c3.42-2,7.46-3.41,8.35-8.06h.25c1.69,2.63,3.58.45,5.08,0,11.85-4,23.64-8.27,35.44-12.44Z" transform="translate(0.03 -67.94)" fill="#7393ab"/><path d="M156.66,126.38a1.11,1.11,0,0,1,.54-.66c3.67-.55,5.46-2.7,5.45-6.38l3.53-3.61c1.73.14,2.57-.65,2.47-2.4a1.11,1.11,0,0,1,.7-.59c.94,0,1.82-.06,2.31-1h0l1-1h0c3.89-2.39,8.26-4.26,10-9h0a1.83,1.83,0,0,0,2-1h0a1.85,1.85,0,0,0,2-1.69,1.61,1.61,0,0,0,0-.31h0a7,7,0,0,0,6-2.83c12.49-2.38,24.46-6.77,36.84-9.57,2.38-.54,4.66-1.68,8-1.31L214.55,95.66c-2.59.87-5.25,1.6-6.91,4h0c-5.86,2.9-12.15,5.16-16,11h0c-2.46-.31-3.88,1.12-5,3h0c-2.48.37-3.7,2.37-5.2,4l-.83.73c-6.47,4.7-12.21,10.06-16,17.26h0a29.1,29.1,0,0,0-9,13h0a9.28,9.28,0,0,0-1.73,1.7c-15.09,26-17.16,54.26-14.65,83.28.7,8,2.28,16,3.45,24-6-14.13-8.92-29-9.88-44.22a162.5,162.5,0,0,1,.77-31.8c2.44-14,6.8-27.29,14.22-39.52,1.59-2.62,4.15-4.92,3.85-8.45h0a1.87,1.87,0,0,0,2-1.73,1.22,1.22,0,0,0,0-.27h0a1.94,1.94,0,0,0,1-2h0C156.84,129.57,156.7,127.94,156.66,126.38Z" transform="translate(0.03 -67.94)" fill="#8fa5b4"/><path d="M135.65,97.22a.92.92,0,0,1,.48-.49c2.59.59,3.57-.68,3.54-3.09,2.75.67,4.64-1.21,6.7-2.38,8-4.55,16-9.22,24-13.85l1.43,1.47L158.55,90.7l-3.3,3-3.61,3.5c-.71.68-1.37,1.38-1,2.49h0c-.7,0-1,.32-1,1h0c-3.41,1.12-5.67,3.22-6,7h0c-1.43-.37-2.19.67-2.86,1.55-15.27,20-25.31,42.07-27,67.41-1.49,22,3.07,42.9,11,63.28,2,5.22,5.06,10.07,6,15.72-1.07-.3-1.52-1.19-2-2a186.94,186.94,0,0,1-19.67-44.08c-5-17.48-6.23-35.2-2.39-53.11,4-18.89,12.83-35.48,24.37-50.81C133,103.14,136.27,101.16,135.65,97.22Z" transform="translate(0.03 -67.94)" fill="#396e94"/><path d="M151.64,97.23l3.61-3.5c1.37,0,3,.44,3.35-1.63l33.66-14.81,1.47,1.54L177.22,90.67H177c-3.26,2.19-7.1,3.78-8.35,8.06h0c-4.72.72-7,4.7-9.91,7.69-8.16,8.51-16.42,17.15-21.09,28.3h0c-1.56.64-2,2.18-2.66,3.47-13.82,25.7-16.22,52.92-11,81.22,1.85,10,5.38,19.45,7.65,29.29-1.5-.41-1.91-1.75-2.45-2.94a148.14,148.14,0,0,1-13.39-51.64c-1.68-24.37,3.46-47.38,16.17-68.6,3.65-6.09,8.6-11.29,11.6-17.78h0c2.57-1.84,5.19-3.64,6-7h0l1-1h0C151.73,99.2,151.77,98.25,151.64,97.23Z" transform="translate(0.03 -67.94)" fill="#5882a0"/><path d="M329.7,269.21c0-4.82-.12-9.65.05-14.46a4.15,4.15,0,0,1,4-4.37,4,4,0,0,1,4.44,3.22c1.31,4.9,5.4,5,9.11,4.93,7.13-.21,13.57-5.64,15.77-12.6a18,18,0,0,0-25.52-21.36,29.52,29.52,0,0,0-2.55,1.56c-2.37,1.43-4.54,1.07-6.2-1-1.84-2.34-.88-4.55,1.15-6.09,8-6,16.82-7,25.93-3.42,13,5.09,19.49,18.65,15.89,32.24-3.45,13-15.53,20.95-29.35,18.94-3.29-.47-4.14.45-4,3.49.18,4,.15,8,.13,12,0,3-1,5.37-4.5,5.36s-4.35-2.41-4.34-5.42v-13Z" transform="translate(0.03 -67.94)" fill="#536aa0"/><path d="M409.82,261h-9.5c-8.49-.13-14.15-4.47-17.17-12.16a33.69,33.69,0,0,1,.56-26.74c3-6.8,8.41-10.81,15.83-11.34,6.8-.5,13.64-.29,20.47-.54,4.68-.16,3.07,3.24,3.28,5.56s.46,4.74-3.29,4.57c-5.32-.26-10.65-.11-16-.3-4.91-.17-7.78,2.29-9.36,6.68a27.25,27.25,0,0,0-1.21,13.78c1.39,8.66,4.48,11.32,13.3,11.36,4.5,0,9,.14,13.49-.1,4-.21,3.14,2.51,3.12,4.68s1,4.94-3,4.68c-3.49-.22-7,0-10.49,0Z" transform="translate(0.03 -67.94)" fill="#0b0b0b"/><path d="M449.71,247c-3.83,0-7.66.08-11.49,0s-3.3,1.82-2,4.05,3.58,2.9,6,2.92c5.66.06,11.32.1,17,0,2.76,0,4.26.48,4.26,3.82s-1.53,3.81-4.28,3.74c-6.33-.14-12.66,0-19-.15-9.09-.21-15.87-6.91-16.87-16.5-1-9.36,5.13-19.17,13.45-20.88a37.82,37.82,0,0,1,16.87,0c7,1.8,12.85,13.74,11.3,21-.46,2.19-1.76,2-3.26,2Zm-3.49-15.41a59.91,59.91,0,0,0-6.7.05c-3,.39-4.16,2.7-4.2,5.34,0,3.42,2.81,2,4.43,2,3.8.21,7.63-.07,11.44.11,3.49.18,3.42-1.58,2.6-4C452.24,230.48,448.32,231.68,446.22,231.57Z" transform="translate(0.03 -67.94)" fill="#101010"/><path d="M586.15,261.06c-4.16,0-8.32.14-12.47,0-5.91-.26-9.94-4.69-10.14-10.82s3.51-10.79,9.51-11.29c4.46-.38,9,0,13.45-.26,1.57-.08,4.18,1.26,4.48-1.49a4.56,4.56,0,0,0-3.93-5,30.14,30.14,0,0,0-6-.28c-3.32,0-6.65,0-10,.17-3,.12-5.28.14-5.23-4.26,0-4.14,1.75-4.59,5.09-4.44,5.64.25,11.31,0,16.94.3,9.17.53,13.29,4.74,13.61,13.82.23,6.64-.06,13.3.2,19.94.13,3.29-1.28,3.89-4.13,3.75C593.8,260.92,590,261.07,586.15,261.06Zm-2.39-7.5v-.12c1.83,0,3.66.07,5.49,0,2.61-.13,2-2.18,2-3.73s.61-3.68-2-3.69c-4,0-8,0-11.94.34a3.14,3.14,0,0,0-3,3.27s0,.08,0,.12a3.2,3.2,0,0,0,3,3.38c2.13.3,4.3.3,6.45.44Z" transform="translate(0.03 -67.94)" fill="#0b0b0b"/><path d="M221.47,213.68c7.5-.1,12.15,1.62,16.5,4.16,2.6,1.52,4.67,3.68,2.75,6.93s-4.48,2.43-7.28.87c-10-5.52-20.61-3-25.56,5.89a18.33,18.33,0,0,0,2.78,21.69,17.7,17.7,0,0,0,21.57,3c.87-.48,1.68-1.08,2.56-1.56,2.21-1.23,4.23-.89,5.75,1.1s1,4.07-.65,5.86a15.14,15.14,0,0,1-5.36,3.57,27.37,27.37,0,0,1-29.67-5.26c-8.24-8-10.5-19.49-6-30.3C203.05,219.79,212.64,213.65,221.47,213.68Z" transform="translate(0.03 -67.94)" fill="#536aa0"/><path d="M468.66,241.87c0-5,.1-10-.05-15-.07-2.54.68-3.54,3.38-3.46,6.64.21,13.31,0,19.95.24,7.23.26,11.44,4.53,11.6,11.66.17,7.48,0,15,.13,22.45.1,5.19-3.74,2.83-6,3.21-2.44.41-4.59.29-4.42-3.36.29-6.31.26-12.64.24-19,0-2.5-.09-5.28-3.13-6.15a19.3,19.3,0,0,0-10.81,0c-1.4.41-.77,2.36-.78,3.62,0,7-.35,14,.09,21,.29,4.68-2.4,3.94-5.22,4.07-3.18.16-5.44.08-5.07-4.28C469,251.87,468.67,246.86,468.66,241.87Z" transform="translate(0.03 -67.94)" fill="#0b0b0b"/><path d="M513.55,242.68c0-2.16-.14-4.33,0-6.48.23-3,0-5.22-4-4.82-3.11.3-2.15-2.35-2.15-3.92s-1-4.27,2.13-3.91c4.18.48,4.22-2,4-4.85a17,17,0,0,1,0-3.49c.22-1.55-1-3.9.91-4.48a16.19,16.19,0,0,1,8.35,0c1,.24.74,1.36.76,2.14a33.42,33.42,0,0,1,0,5.48c-.59,4.18,1,5.86,5.18,5.12,3.75-.67,4.85.83,4.69,4.61s-2.21,3.69-4.6,3.32c-4.53-.71-5.9,1.17-5.44,5.49a96.23,96.23,0,0,1,.18,10.47c0,3.82,1.82,6.22,5.65,6,4.11-.19,3.42,2.32,3.57,4.82.2,3.24-1.87,2.88-3.89,2.84-1.67,0-3.33.05-5,0-6.27-.3-9.76-3.57-10.29-9.89-.23-2.81,0-5.65,0-8.47Z" transform="translate(0.03 -67.94)" fill="#0b0b0b"/><path d="M196.83,187.21c0-4,.09-8,0-12-.07-2.39.4-3.73,3.23-3.63,5.65.21,11.31.06,17,.22,3.55.1,6.48,1.53,7.94,5s1.18,6.64-1.64,9.13c-1.78,1.57-1,2.17.32,3.31a7,7,0,0,1,2,8.16,7.87,7.87,0,0,1-6.89,5.68c-6.46.77-12.95.36-19.43.39-2.46,0-2.51-1.56-2.5-3.34C196.85,195.85,196.83,191.57,196.83,187.21Zm13-1.9h3c2.34,0,4.47-.61,4.59-3.4s-1.78-4.08-4.45-4.16c-2.15-.07-4.31,0-6.46,0-1.58,0-2.29.56-2.54,2.25-.73,4.63,0,5.37,5.85,5.31Zm.46,5.43v-.17h-2c-2.74-.2-4.61,0-4.61,3.81,0,4,2.29,3.64,4.81,3.58,1.82,0,3.65-.07,5.46-.15,2-.08,3.64-.83,3.8-3.08s-1.2-3.71-3.5-4a35.05,35.05,0,0,0-4,0Z" transform="translate(0.03 -67.94)" fill="#101010"/><path d="M469.55,186.63c6.63-10.12,17.06-9.6,25.9,2.54-1.16-7.55.64-11.26,7.87-8.46.53.21,1.44-.76,2.23-.93,1.45-.33,3.18-.85,3.23,1.6,0,1.72.59,4.13-2.43,3.67-4.61-.69-4.71,2-4.57,5.35s-.11,6.65,0,10c.1,2.42-.88,3.15-3.21,3.18s-3.38-.84-3.19-3.19c.07-.83-.11-1.67,0-2.49.31-2.79-.27-3.92-3.63-3.44-4.07.57-8.29.08-12.45.17-1.13,0-3-.75-3,1.39a2.66,2.66,0,0,0,2.67,2.53c3.64.2,7.3.22,10.95.25,1.73,0,3.44-.13,3.35,2.42s-1.85,2.3-3.54,2.29h-8.48c-7.47-.07-9.94-1.82-12.54-8.89ZM481.8,190c1.5-1.73,5.17,1.64,5.5-1.89.35-3.8-3.31-3.13-5.88-3.26s-5.7.13-5.3,3.4C476.49,191.24,479.74,188.81,481.8,190Z" transform="translate(0.03 -67.94)" fill="#141414"/><path d="M619.16,235.73c0,7.3-.19,14.61.06,21.9.18,5.16-3.45,3.18-5.8,3.42s-4.83.65-4.76-3.48q.36-21.9,0-43.8c-.07-4.76,3-3.33,5.33-3.34s5.49-1.32,5.29,3.4c-.3,7.29-.08,14.6-.08,21.9Z" transform="translate(0.03 -67.94)" fill="#141414"/><path d="M577.13,196c2-5,3.84-8.93,5-13,1.28-4.38,4.52-3.06,7.3-3,1.5,0,1.09,1.27.66,2.24-2.79,6.42-5.62,12.81-8.33,19.26-1.19,2.85-3.58,1.72-5.57,2-2.36.31-3.69-.76-4.54-2.94-2.39-6.1-4.9-12.16-7.37-18.24l-1.61.21V199c0,2.29.6,4.66-3.26,4.63s-3.09-2.67-3.13-4.81c-.08-5.16,0-10.32,0-15.49,0-1.22-.53-3.15,1.31-3.26a110.69,110.69,0,0,1,12.62,0c1.48.09,1.61,2,2.08,3.17C573.82,187.09,575.25,191,577.13,196Z" transform="translate(0.03 -67.94)" fill="#141414"/><path d="M538.55,242.26c0-4.82-.09-9.65,0-14.47,0-1.46-1-4,1.35-4.11,2.85-.14,6.56-2,8.46,1.4,1,1.82,1.16,1.26,2.21.44a11.22,11.22,0,0,1,3.36-2c1.7-.56,3.9-1.51,5.18.06,1.52,1.87.84,4.52.47,6.74-.4,2.41-2.69,1.34-4.15,1.38-6.87.21-6.87.16-6.87,6.9,0,6.15-.28,12.32.08,18.46.24,4.05-1.75,4.3-4.77,4-2.61-.22-5.85,1.08-5.45-3.86S538.55,247.25,538.55,242.26Z" transform="translate(0.03 -67.94)" fill="#0b0b0b"/><path d="M372.08,203.51c-13.67,0-19.36-6-17.72-18.71,1.11-8.54,5.47-12.62,14.14-13.07,3-.15,6,.09,9-.1,2.63-.17,3.47.78,3.43,3.41s-1.23,3-3.42,2.85-4.65-.14-7-.1c-6.32.09-8.58,2.75-8.58,10,0,7,2.44,9.78,8.76,9.87,2.33,0,4.66.07,7-.09s3.31.41,3.28,3-1.18,3.12-3.37,3C375.74,203.43,373.91,203.51,372.08,203.51Z" transform="translate(0.03 -67.94)" fill="#101010"/><path d="M467.42,194.57c-2.63,7.17-4.91,9.05-12.46,8.85-3.83-.1-5.15,1.12-4.61,4.78.38,2.59-.41,3.89-3.46,3.9-3.34,0-3.24-1.81-3.21-4.14.08-8.14.18-16.28.05-24.41-.05-2.77.74-4,3.63-3.77,3.3.2,6.65-.11,9.94.17,5.08.42,8.84,2.73,10,8.09Q467.38,191.25,467.42,194.57Zm-14.23-9.78c-2.07-.48-2.91.71-2.83,3a51.1,51.1,0,0,1,0,7c-.34,3.22,1.05,4.08,4,3.75,4.46-.5,6.87-2.85,6.83-7s-2.94-6.77-8-6.8Z" transform="translate(0.03 -67.94)" fill="#141414"/><path d="M524.72,203.33c-2.32,0-4.65.17-7,0-4.23-.37-6.92-2.65-6.76-7s2.63-6.71,7-6.89c2.15-.09,4.31.19,6.46.13,1.31,0,3.35.77,3.39-1.61,0-1.81-1.56-2.49-3.1-2.57-2.81-.16-5.63-.08-8.45-.13-1.76,0-3.73.49-3.79-2.48s1.85-2.88,3.94-2.94c17.41-.49,18.16.44,18.52,17.65.1,5.09-1.25,7-6.26,6.09a24.28,24.28,0,0,0-4,0Zm-1.17-9.51c-2.16.36-5.7-.79-5.55,2.48.16,3.55,3.84,2.13,6.08,2.26,1.73.1,4.44,1,4.32-2.31C528.28,192.62,525.36,194.25,523.55,193.82Z" transform="translate(0.03 -67.94)" fill="#141414"/><path d="M242.67,203.63c-2.82-.17-5.66-.16-8.44-.56-3.65-.52-5.59-2.93-5.52-6.55s1.73-6.48,5.75-6.92c2.63-.3,5.3-.15,7.95-.31,1.14-.08,2.93,1,3.18-1.16.23-1.9-1.32-2.67-2.85-2.78-2.81-.2-5.64-.1-8.45-.14-1.93,0-4.11.56-4.1-2.72s2.2-2.75,4.12-2.72c3.65,0,7.31.07,10.95.38,3,.25,5.53,1.53,6.45,4.65,1.64,5.53.72,11.22.84,16.84,0,1.87-1.53,1.85-2.9,1.85h-7Zm-1.24-4.87c1.17-1.13,4.37,1.56,4.58-2.33.18-3.35-2.38-2.59-4.17-2.49-2.28.12-5.91-1.18-6.16,2.21S239,198.27,241.43,198.76Z" transform="translate(0.03 -67.94)" fill="#141414"/><path d="M320.18,204c-8.37,0-13.31-4.4-13.38-12.06-.06-7.27,5.2-12,13.51-12.16s13.56,4.45,13.58,11.87C333.9,199.47,328.9,204,320.18,204Zm.14-19.23a6.86,6.86,0,0,0-6.5,7.2,1.34,1.34,0,0,0,0,.2c.18,4.09,3.23,7.19,6.92,7,3.87-.17,6.31-3.25,6.06-7.64-.26-4.1-2.89-6.87-6.49-6.76Z" transform="translate(0.03 -67.94)" fill="#141414"/><path d="M396.73,204c-8.22,0-13.24-4.68-13.24-12.31,0-7.2,5.82-12.06,14.33-12,7.86.1,12.94,4.87,12.91,12.12C410.71,199.47,405.42,204.05,396.73,204Zm.59-4.82c3.85-.06,6.53-3.15,6.23-7.45-.27-3.86-1.93-6.79-6.27-7-3.78-.16-6.65,3.11-6.6,7.21S393.55,199.29,397.32,199.22Z" transform="translate(0.03 -67.94)" fill="#141414"/><path d="M426.64,204c-8.44.06-13.26-4.29-13.38-12.07-.11-7.41,5.33-12.14,14-12.18,7.83,0,13.11,4.73,13.21,11.91C440.55,199.2,435.24,204,426.64,204Zm6.64-11.87c0-4.28-2.77-7.57-6.46-7.3-4.09.31-6.31,2.66-6.44,6.81s2.56,7.46,6.25,7.61,6.64-2.86,6.65-7.12Z" transform="translate(0.03 -67.94)" fill="#141414"/><path d="M603.84,204c-8.26-.15-13-4.85-12.79-12.63.2-7.12,5.76-11.67,14.08-11.55,8.14.12,13.41,5.12,13.14,12.45S612.55,204.17,603.84,204Zm7.3-12c-.07-4.22-2.89-7.31-6.54-7.18A6.88,6.88,0,0,0,598,192v.07c.12,4,3.11,7.24,6.69,7.23,3.77,0,6.51-3.11,6.44-7.29Z" transform="translate(0.03 -67.94)" fill="#101010"/><path d="M278.85,194.32c0,2-.11,4,0,6,.15,2.32-.68,3.23-3.11,3.25s-3.6-.77-3.46-3.43c.18-3.48,0-7,.06-10.46.08-4-2.42-4.35-5.58-4.55-3.6-.22-3.57,1.83-3.53,4.35.07,3.49-.14,7,0,10.46.08,2.39-.39,3.71-3.23,3.64-2.45-.06-3.18-1-3.15-3.28.06-5.81.07-11.63-.05-17.44-.05-2.49,1.08-3.14,3.33-3,3.32.14,6.65,0,10,.13,6.61.34,8.38,2.22,8.67,8.92.08,1.82,0,3.65,0,5.48Z" transform="translate(0.03 -67.94)" fill="#141414"/><path d="M297.14,203.57c-10.18-.06-15.21-4.3-14.81-12.49.29-6.1,4-10.27,10.13-11,2.79-.34,5.64-.14,8.46-.28,2-.1,3.06.33,3.09,2.68s-1,3.19-3.27,3a28.65,28.65,0,0,0-6,.09c-3.73.48-5.53,2.92-5.46,6.54.06,3.41,1.91,5.64,5.39,6.09,1.8.23,3.66,0,5.48.12,1.63.09,3.75-.86,3.84,2.3s-1.8,3-3.87,2.94Z" transform="translate(0.03 -67.94)" fill="#141414"/><path d="M142.69,257.67c-1.17-8-2.75-16-3.45-24-2.51-29-.44-57.32,14.65-83.28a9.28,9.28,0,0,1,1.73-1.7c-1.53,7-5.56,13-7.9,19.74a132.56,132.56,0,0,0-7.12,35.35c-1.21,18.94,1,37.53,5.1,56,.39,1.74.51,3.63,2,4.91h-.06c.22,1.49-.86,3.56,1.78,4,1.41,6.27,2.82,12.53,4.36,19.33-2.09-.82-2-3.64-4.27-3.23h.08l-1-1h0l-1.51-1-2.33-2.22a2.42,2.42,0,0,1-.2-.79c1-2.44,2.8,1.1,4.4-.88-4.07-4.92-1.71-11.86-5.18-17.24-.27-1.38.33-3-1.1-4.05Z" transform="translate(0.03 -67.94)" fill="#c2ccd4"/><path d="M540.72,191.57c-.8-2.25,2.12-6.1-3.12-7.19-1.36-.29-1.75-3.9.35-4.26,3.37-.58,2.93-2.56,2.78-4.64-.18-2.56.3-3.92,3.42-3.93,3.46,0,3.31,2,3.11,4.21-.25,2.73.19,4.6,3.62,4.06,1.63-.26,2.39.65,2.42,2.33s-.51,3-2.53,2.73c-3.48-.49-3.88,1.59-3.55,4.2.49,3.82-2.08,9.16,4.93,9.86,1,.1.68,1.69.66,2.64,0,1.51-1,1.76-2.32,1.93-6.17.83-9.43-1.84-9.76-8.16C540.67,194.23,540.72,193.07,540.72,191.57Z" transform="translate(0.03 -67.94)" fill="#141414"/><path d="M559.36,171.7c2-.22,3.5,0,3.49,2.69,0,2.4-.92,3.11-3.19,3.06-2,0-3.44-.15-3.41-2.81C556.28,172.3,557,171.26,559.36,171.7Z" transform="translate(0.03 -67.94)" fill="#141414"/><path d="M144.75,280.57l2.39,2.07,1.51,1h0c0,.72.26,1.11,1,1h-.08c-.71,1.21,1.5,2.62.06,3.49-1.23.74-2.37-.63-3.41-1.32s-2.44-1-2.55-2.62l-1.12-1.52.07.1a1,1,0,0,0-1-1h-.11v.16l-.21-1.82c.17-.18.34-.35.52-.51C142.88,279.63,143.18,281.9,144.75,280.57Z" transform="translate(0.03 -67.94)" fill="#799db8"/><path d="M217.8,79.86l-.06-1.68c2.32-2.13,5.39-2,8.2-2.85A12.15,12.15,0,0,1,217.8,79.86Z" transform="translate(0.03 -67.94)" fill="#c2ccd4"/><path d="M171.77,78.88l-1.43-1.47c1.74-2.12,4.15-2.91,7.61-4.49C176.29,76.71,174,77.71,171.77,78.88Z" transform="translate(0.03 -67.94)" fill="#799db8"/><path d="M193.73,78.83l-1.47-1.54c2.31-1.71,4.69-3.23,8.14-3.49C198.74,76.79,196.29,77.88,193.73,78.83Z" transform="translate(0.03 -67.94)" fill="#8fa5b4"/><path d="M255.77,92.81v-1.4c2.33-.55,4.67-1.1,7-1.6.26-.06.59.18,1.47.47C261.61,92.67,258.71,92.79,255.77,92.81Z" transform="translate(0.03 -67.94)" fill="#ececec"/><path d="M207.62,99.71c1.66-2.45,4.32-3.18,6.91-4,0,.38.05.77.08,1.16C212.55,98.57,210.4,99.83,207.62,99.71Z" transform="translate(0.03 -67.94)" fill="#c2ccd4"/><path d="M192.62,95.9a7,7,0,0,1-6,2.83,9.27,9.27,0,0,1,5.93-4.09A7.61,7.61,0,0,0,192.62,95.9Z" transform="translate(0.03 -67.94)" fill="#c2ccd4"/><path d="M467.42,194.57q0-3.27-.08-6.53l2.22-1.36c-.29,2.64-.57,5.29-.85,7.93Z" transform="translate(0.03 -67.94)" fill="#8fa5b4"/><path d="M139.67,93.64c0,2.41-1,3.68-3.54,3.09l3.44-4A1.87,1.87,0,0,1,139.67,93.64Z" transform="translate(0.03 -67.94)" fill="#799db8"/><path d="M158.6,92.1c-.38,2.07-2,1.59-3.35,1.63l3.3-3A12.73,12.73,0,0,0,158.6,92.1Z" transform="translate(0.03 -67.94)" fill="#8fa5b4"/><path d="M149.47,268.57c-2.64-.42-1.56-2.49-1.78-4C149.1,265.57,149.35,267.05,149.47,268.57Z" transform="translate(0.03 -67.94)" fill="#acb8c2"/><path d="M141.55,281.72a1,1,0,0,1,1.1.89v.11C141.66,283.05,141.11,282.89,141.55,281.72Z" transform="translate(0.03 -67.94)" fill="#054a7f"/><path d="M142.55,282.67l1.1,1.57C143,283.93,142.21,283.7,142.55,282.67Z" transform="translate(0.03 -67.94)" fill="#054a7f"/><path d="M94.76,193.84c1.25,0,1.7.7,1.9,1.82,3.86,21.33,13.12,40.31,25.32,58,.82,1.19,1.93,2.35,1.64,4-3.47-1.76-4.73-5.36-6.66-8.32-10.16-15.6-18-32.22-21.66-50.62C95,197.15,94.93,195.48,94.76,193.84Z" transform="translate(0.03 -67.94)" fill="#7393ab"/><path d="M96.6,147.35c2.13,1.79,1,4,.59,6-2.39,11.24-3.6,22.53-1.69,34,.33,2-.69,3.5-.86,5.27-2.9-10.79-2-21.67-.62-32.52C94.55,155.76,95.72,151.57,96.6,147.35Z" transform="translate(0.03 -67.94)" fill="#799db8"/><path d="M113.64,108.71c.6,2.22-.91,3.8-1.8,5.52-4.89,9.47-9.47,19.06-12.18,29.43-.43,1.68-.78,3.32-3.06,3.19,3-12.5,8.62-23.91,14.63-35.16C111.83,110.57,112.19,109.18,113.64,108.71Z" transform="translate(0.03 -67.94)" fill="#7393ab"/><path d="M125.65,91.76c-3.47,6-6.42,12.43-12,17C116.71,102.4,119.47,95.87,125.65,91.76Z" transform="translate(0.03 -67.94)" fill="#7393ab"/><path d="M124.62,258.7c3.64,2.12,5.19,6.09,7.94,9,1.31,1.39,2.14,3.26,4.11,4h0l.07,1a4.26,4.26,0,0,0,.07.94l-.62.51C131.61,269.48,126.63,265.21,124.62,258.7Z" transform="translate(0.03 -67.94)" fill="#799db8"/><path d="M141.29,280.06a14.36,14.36,0,0,1-5.13-6l.62-.51,3.92,3.08h0l1,1h0l.13,1.92A5.24,5.24,0,0,0,141.29,280.06Z" transform="translate(0.03 -67.94)" fill="#799db8"/><path d="M123.63,257.7c.73-.06,1,.34,1,1C123.8,258.87,123.55,258.42,123.63,257.7Z" transform="translate(0.03 -67.94)" fill="#799db8"/><path d="M164.62,135.69c3.77-7.2,9.51-12.56,16-17.26a3.69,3.69,0,0,1-1.59,3.43C173.86,126.11,170.38,132.09,164.62,135.69Z" transform="translate(0.03 -67.94)" fill="#c2ccd4"/><path d="M191.62,110.7c3.84-5.84,10.13-8.1,16-11C203.39,105,197.31,107.57,191.62,110.7Z" transform="translate(0.03 -67.94)" fill="#c2ccd4"/><path d="M155.62,148.69a29.1,29.1,0,0,1,9-13A25.3,25.3,0,0,1,155.62,148.69Z" transform="translate(0.03 -67.94)" fill="#c2ccd4"/><path d="M181.43,117.7c1.5-1.64,2.72-3.64,5.2-4C186.23,116.76,184.33,117.88,181.43,117.7Z" transform="translate(0.03 -67.94)" fill="#c2ccd4"/><path d="M186.61,113.71c1.13-1.89,2.55-3.32,5-3C190.61,112.81,189.05,114,186.61,113.71Z" transform="translate(0.03 -67.94)" fill="#c2ccd4"/><path d="M135.65,97.22c.62,3.94-2.68,5.92-4.56,8.43-11.54,15.33-20.32,31.92-24.37,50.78-3.84,17.91-2.62,35.63,2.39,53.11a187.27,187.27,0,0,0,19.53,44.08c.52.86,1,1.75,2,2h0a1.78,1.78,0,0,0,1,2h0l1,1h0l.2,2.87-.69.53c-6.22-7.46-10.28-16.22-14.57-24.79-8-16.16-13.43-33.26-14.79-51.34-2.21-29.22,7.58-54.87,24.44-78.2C129.85,104.06,132.84,100.7,135.65,97.22Z" transform="translate(0.03 -67.94)" fill="#799db8"/><path d="M136.67,271.69c.3-4.05-3.92-6-4.49-9.64l.68-.53c.63.23,1.2,1.43,1.93.13l1.85,1,.39,1.29.38-.25-.73-1.08,0-2,2,1.05h0c.06,3.27,1.86,6,3,8.88.68,1.77,1.14,3.12-.88,4.16l-3-3.11-1.09.08Z" transform="translate(0.03 -67.94)" fill="#799db8"/><path d="M140.76,274.69c2-1,1.56-2.39.88-4.16-1.12-2.91-2.92-5.61-3-8.88,3.45-.55,1.53-2.66,1-4.1a205.39,205.39,0,0,1-6.84-27,151.74,151.74,0,0,1-.92-49h1.7a162.5,162.5,0,0,0-.77,31.8c1,15.18,3.88,30.09,9.88,44.22h0c.12,1.42-.5,3,1.1,4.05C147.26,267,144.9,274,149,278.88c-1.6,2-3.35-1.56-4.4.88-1.06-.59-1.23-2.36-2.87-2.18h0c0-.7-.25-1.12-1-1h0Zm.51-11.36c-.11,0-.27,0-.32.08a1.77,1.77,0,0,0-.08.4l.55-.1Z" transform="translate(0.03 -67.94)" fill="#acb8c2"/><path d="M138.68,261.68l-2-1.05h0a3.24,3.24,0,0,0-.89-3.08l-1.13-.92v.05c.1-.9.06-1.74-1-2h0c.3-2.33-.1-4.43-2-6h0c-2.27-9.84-5.8-19.33-7.65-29.29-5.27-28.3-2.87-55.52,10.95-81.22.69-1.29,1.1-2.83,2.66-3.47-.13,4.55-3.23,7.9-4.89,11.82-12.16,28.77-11.84,57.94-3.22,87.47,2.32,8,4.76,15.86,8.38,23.35A8.52,8.52,0,0,1,138.68,261.68Z" transform="translate(0.03 -67.94)" fill="#acb8c2"/><path d="M133.55,181.65h-1.7a112.36,112.36,0,0,1,16.31-43.84c1-1.55,1.7-3.24,3.46-4.1.3,3.53-2.26,5.83-3.85,8.45C140.38,154.36,136,167.65,133.55,181.65Z" transform="translate(0.03 -67.94)" fill="#c2ccd4"/><path d="M137.62,134.72c4.67-11.15,12.93-19.79,21.11-28.32,2.88-3,5.19-7,9.91-7.69-6.79,7.86-14.75,14.61-20.74,23.16-2.45,3.51-5,6.92-7.51,10.41C139.65,133.33,139.32,134.78,137.62,134.72Z" transform="translate(0.03 -67.94)" fill="#acb8c2"/><path d="M182.64,101.7c-1.76,4.76-6.13,6.63-10,9C174.49,106.08,178.55,103.85,182.64,101.7Z" transform="translate(0.03 -67.94)" fill="#c2ccd4"/><path d="M168.62,98.72c1.25-4.28,5.09-5.87,8.35-8.06C176.08,95.31,172,96.68,168.62,98.72Z" transform="translate(0.03 -67.94)" fill="#acb8c2"/><path d="M162.65,119.34c0,3.68-1.78,5.83-5.45,6.38C158.44,123.1,160.64,121.3,162.65,119.34Z" transform="translate(0.03 -67.94)" fill="#c2ccd4"/><path d="M156.66,126.38c0,1.56.18,3.17-2,3.34C154.6,128.18,155.69,127.32,156.66,126.38Z" transform="translate(0.03 -67.94)" fill="#c2ccd4"/><path d="M186.65,98.69a1.85,1.85,0,0,1-1.69,2,1.61,1.61,0,0,1-.31,0C184.62,99.38,185.42,98.83,186.65,98.69Z" transform="translate(0.03 -67.94)" fill="#c2ccd4"/><path d="M153.65,131.69a1.87,1.87,0,0,1-1.73,2h-.27C151.72,132.47,152.28,131.67,153.65,131.69Z" transform="translate(0.03 -67.94)" fill="#c2ccd4"/><path d="M168.65,113.33c.1,1.75-.74,2.54-2.47,2.4Z" transform="translate(0.03 -67.94)" fill="#c2ccd4"/><path d="M184.65,100.7a1.83,1.83,0,0,1-2,1A1.79,1.79,0,0,1,184.65,100.7Z" transform="translate(0.03 -67.94)" fill="#c2ccd4"/><path d="M171.66,111.7c-.49,1-1.37,1.07-2.31,1A2.54,2.54,0,0,1,171.66,111.7Z" transform="translate(0.03 -67.94)" fill="#c2ccd4"/><path d="M154.65,129.69a1.94,1.94,0,0,1-1,2A1.69,1.69,0,0,1,154.65,129.69Z" transform="translate(0.03 -67.94)" fill="#c2ccd4"/><path d="M172.65,110.71l-1,1Z" transform="translate(0.03 -67.94)" fill="#c2ccd4"/><path d="M136.73,260.63l0,2h0l-1.85-1-2.13-3h0l-1-1h0c.11-.9,0-1.71-1-2h0c-.92-5.65-4-10.5-6-15.72-7.9-20.38-12.46-41.33-11-63.28,1.72-25.34,11.76-47.45,27-67.41.67-.88,1.43-1.92,2.86-1.55-3,6.49-7.95,11.69-11.6,17.78-12.71,21.22-17.85,44.23-16.17,68.6a148.14,148.14,0,0,0,13.39,51.64c.54,1.19.95,2.53,2.45,2.94h0c-.23,2.31.15,4.41,2,6h0a2,2,0,0,0,1,2v-.05a2.36,2.36,0,0,0,1,2.16,1.77,1.77,0,0,0,1,1.84Z" transform="translate(0.03 -67.94)" fill="#8fa5b4"/><path d="M149.63,100.71c-.81,3.35-3.43,5.15-6,7C144,103.93,146.22,101.83,149.63,100.71Z" transform="translate(0.03 -67.94)" fill="#8fa5b4"/><path d="M151.64,97.23c.13,1,.09,2-1,2.49C150.27,98.57,150.93,97.91,151.64,97.23Z" transform="translate(0.03 -67.94)" fill="#8fa5b4"/><path d="M150.63,99.71l-1,1C149.62,100,149.93,99.68,150.63,99.71Z" transform="translate(0.03 -67.94)" fill="#8fa5b4"/><path d="M209.82,185.31c-5.85.06-6.58-.68-5.88-5.37.25-1.69,1-2.28,2.54-2.25h6.46c2.67.08,4.57,1.25,4.45,4.16s-2.25,3.35-4.59,3.4C211.81,185.32,210.82,185.31,209.82,185.31Z" transform="translate(0.03 -67.94)" fill="#ececec"/><path d="M210.28,190.74a33.36,33.36,0,0,1,4,0c2.3.25,3.66,1.57,3.5,4s-1.78,3-3.8,3.08c-1.81.08-3.64.1-5.46.15-2.52.06-4.81.46-4.81-3.58,0-3.8,1.87-4,4.61-3.81.66,0,1.33,0,2,0Z" transform="translate(0.03 -67.94)" fill="#ececec"/><path d="M481.8,190c-2.06-1.19-5.31,1.24-5.68-1.75-.4-3.27,2.65-3.53,5.3-3.4s6.23-.54,5.88,3.26C487,191.64,483.3,188.27,481.8,190Z" transform="translate(0.03 -67.94)" fill="#ececec"/><path d="M453.19,184.74c5.06,0,7.94,2.61,8,6.77s-2.37,6.48-6.83,7c-3,.33-4.35-.53-4-3.75a51.1,51.1,0,0,0,0-7C450.28,185.45,451.12,184.26,453.19,184.74Z" transform="translate(0.03 -67.94)" fill="#ececec"/><path d="M523.55,193.82c1.8.43,4.72-1.2,4.85,2.43.12,3.36-2.59,2.41-4.32,2.31-2.24-.13-5.92,1.29-6.08-2.26C517.86,193,521.4,194.18,523.55,193.82Z" transform="translate(0.03 -67.94)" fill="#c2ccd4"/><path d="M241.43,198.76c-2.45-.49-6,.71-5.75-2.61s3.88-2.09,6.16-2.21c1.79-.1,4.35-.86,4.17,2.49C245.8,200.32,242.6,197.63,241.43,198.76Z" transform="translate(0.03 -67.94)" fill="#c2ccd4"/><path d="M320.32,184.8c3.6-.11,6.25,2.66,6.49,6.79.25,4.39-2.19,7.47-6.06,7.64-3.69.16-6.74-2.94-6.92-7a6.85,6.85,0,0,1,6.26-7.41Z" transform="translate(0.03 -67.94)" fill="#ececec"/><path d="M397.32,199.22c-3.75.07-6.59-3-6.64-7.21s2.82-7.37,6.6-7.21c4.34.18,6,3.11,6.27,7C403.85,196.07,401.17,199.16,397.32,199.22Z" transform="translate(0.03 -67.94)" fill="#ececec"/><path d="M433.28,192.16c0,4.26-2.82,7.27-6.65,7.12s-6.38-3.38-6.25-7.61,2.35-6.5,6.44-6.81C430.55,184.57,433.29,187.88,433.28,192.16Z" transform="translate(0.03 -67.94)" fill="#ececec"/><path d="M611.14,192c.07,4.18-2.67,7.28-6.44,7.28-3.58,0-6.57-3.22-6.69-7.23a6.89,6.89,0,0,1,6.52-7.23h.07C608.25,184.69,611.07,187.78,611.14,192Z" transform="translate(0.03 -67.94)" fill="#ececec"/><path d="M141.68,277.63c1.64-.18,1.81,1.59,2.87,2.18a2.42,2.42,0,0,0,.2.79c-1.57,1.3-1.87-1-2.94-1.05C141.77,278.91,141.72,278.27,141.68,277.63Z" transform="translate(0.03 -67.94)" fill="#396e94"/><path d="M143.77,261.69c-1.6-1-1-2.63-1.1-4.05C144.1,258.7,143.55,260.31,143.77,261.69Z" transform="translate(0.03 -67.94)" fill="#8fa5b4"/><path d="M148.65,283.71l-1.51-1Z" transform="translate(0.03 -67.94)" fill="#fdfdfd"/><path d="M149.64,284.72c-.77.07-1.06-.32-1-1Z" transform="translate(0.03 -67.94)" fill="#fdfdfd"/><path d="M140.76,274.69l-.06,2-3.92-3.12c0-.31-.06-.63-.07-.94l1-1.06Z" transform="translate(0.03 -67.94)" fill="#396e94"/><path d="M137.73,271.57l-1,1.06a4.91,4.91,0,0,0-.07-1Z" transform="translate(0.03 -67.94)" fill="#1f5d8c"/><path d="M140.67,276.63c.78-.09,1,.33,1,1Z" transform="translate(0.03 -67.94)" fill="#396e94"/><path d="M132.66,258.65l2.13,3c-.73,1.3-1.3.1-1.93-.13C132.79,260.57,132.72,259.57,132.66,258.65Z" transform="translate(0.03 -67.94)" fill="#396e94"/><path d="M130.67,255.66c1,.32,1.12,1.13,1,2A1.78,1.78,0,0,1,130.67,255.66Z" transform="translate(0.03 -67.94)" fill="#396e94"/><path d="M131.65,257.65l1,1Z" transform="translate(0.03 -67.94)" fill="#396e94"/><path d="M136.68,262.66l.73,1.08L137,264l-.39-1.29Z" transform="translate(0.03 -67.94)" fill="#8fa5b4"/><path d="M141.27,263.33l.15.38-.55.1a1.77,1.77,0,0,1,.08-.4C141,263.34,141.16,263.35,141.27,263.33Z" transform="translate(0.03 -67.94)" fill="#7393ab"/><path d="M133.69,254.68c-1.86-1.61-2.24-3.71-2-6A6.25,6.25,0,0,1,133.69,254.68Z" transform="translate(0.03 -67.94)" fill="#5882a0"/><path d="M136.69,260.64a1.77,1.77,0,0,1-1-1.85c0-.41.1-.82.14-1.23A3.22,3.22,0,0,1,136.69,260.64Z" transform="translate(0.03 -67.94)" fill="#799db8"/><path d="M135.8,257.57a10.29,10.29,0,0,1-.14,1.23,2.35,2.35,0,0,1-1-2.15Z" transform="translate(0.03 -67.94)" fill="#5882a0"/><path d="M134.69,256.69a2,2,0,0,1-1-2C134.75,255,134.79,255.79,134.69,256.69Z" transform="translate(0.03 -67.94)" fill="#5882a0"/></svg>