<svg id="Capa_1" data-name="Capa 1" xmlns="http://www.w3.org/2000/svg" viewBox="0 0 533.69 228.7"><path d="M135,2.44c-.89,3.54-2.18,4.33-6,3.89q-8.76-1-17.53-1.89c-1.6-.15-2.78-.45-2.92-2Z" transform="translate(-12.31 -2.44)" fill="#f1f9f4"/><path d="M104.71,2.44c.2,2.21-1.63,1.95-3.29,2s-3.11-.1-2.92-2Z" transform="translate(-12.31 -2.44)" fill="#f1f9f4"/><path d="M26.89,83.49c.32-1.1.65-2.2,1-3.3a11.39,11.39,0,0,0,1.74-4.6c.13-.4.25-.8.37-1.2,1.29-.64,1.2-1.7,1.17-2.74A1.79,1.79,0,0,0,31.86,70l.53-1a.41.41,0,0,0,.2-.56,4.58,4.58,0,0,0,1.64-3.33h0a11.07,11.07,0,0,0,2.47-4.62,7.85,7.85,0,0,0,2.07-3.26c.58-.33.87-.71.24-1.21l1.37-1.42L53,38.8l.54-.49,1-.86a1.87,1.87,0,0,0,1.31-1.35l10.87-8.58h0l.84-.65a9.73,9.73,0,0,0,3.77-2.16c1.41-.55,3-1,3.63-2.33a2.22,2.22,0,0,0,1.79-.61c1.71-.51,3.47-.95,4.71-2.19l.86-.4c2.83-.93,6-1.29,8.27-3.19a4.51,4.51,0,0,0,3.27-.41,2.67,2.67,0,0,0,2.88-1.06,5,5,0,0,0,3.32-.22,1.48,1.48,0,0,0,1.66-.46l5.34-.83c7.47.28,15-.44,22.4.81a21.33,21.33,0,0,0,7.06,1.2c.77.91,1.9.93,3.05.89l3.11.54a1.6,1.6,0,0,0,1.61.68,3,3,0,0,0,2.33.56,4,4,0,0,0,3.13,1.14l1.42.33.92.32,1,.21a1.32,1.32,0,0,0,1.33.74,4.42,4.42,0,0,0,2.65,1.22l1.15.46,1,.26c1.65,2,4.47,2.55,6.73,3.79l0,0a34.49,34.49,0,0,0,6.67,4.2h.05a18.25,18.25,0,0,0,5.61,4.43l0,0a4.26,4.26,0,0,0,2.25,2.06l6,5.9a3.24,3.24,0,0,0,1.78,2.14,4.27,4.27,0,0,0,2,2.46,3.17,3.17,0,0,0,1.59,2,1.38,1.38,0,0,0,1.11,1.27l0,0c0,.44.28.69.81.71l0-.05a.92.92,0,0,0,.74,1c-.51,1.29.78,2,1.31,3l7.83,15.14a10,10,0,0,0,1.82,5.11c-.41,1.53.79,2.67,1.36,4,0,.21.09.42.14.63a16.07,16.07,0,0,0,1.84,6.61l.42,2a25.7,25.7,0,0,0,1.64,8.58c0,.42,0,.85,0,1.27a1.37,1.37,0,0,0,.34,1.91l.05,2a3.31,3.31,0,0,0,.54,3.35l.3,15.88c0,5-1.75,10-1.26,15.08,0,.55,0,1.09,0,1.64-1.93,2.62-1.36,5.7-2.11,8.54a156.26,156.26,0,0,1-7.26,20.83.42.42,0,0,0-.24.53,10.54,10.54,0,0,0-2.92,4.44c-.52,1.38-1.35,1.75-2.68.64l-.11-1v-1.32a4.39,4.39,0,0,0,.11-4.22,1.86,1.86,0,0,0,.3-2.26,2.1,2.1,0,0,0-.09-2.2c.05-.08.16-.2.13-.26a3.18,3.18,0,0,0-.37-.47.31.31,0,0,0-.09-.48.66.66,0,0,0-.5-.88l.07-.05-2.19-4.94c0-.49-.09-1-.13-1.48l.93-3.85c.16-.43.32-.85.47-1.27,1.29-1.84,3.65-3.34,2.55-5.91a29.51,29.51,0,0,0,0-8,.39.39,0,0,0,0-.57c.49-8.81.34-17.61.16-26.41v-.64l0-8.57c.13-1.29.64-2.63-.83-4.11l-1.67,4c-.53.18-.85.46-.68,1-4.88,7.62-9.3,15.43-13.49,23.34a2.46,2.46,0,0,0-1.13,2.27c-8,5.63-11.84,13.39-14.71,21.52-2.59,7.35-2.41,15.48-8.84,21.7-.24.23-.28.61-.44.91-5.5,10.62-9.1,21.78-13.15,32.82-.22.09-.28.23-.17.42l-.45.87c-.12.32-.23.65-.35,1a8.68,8.68,0,0,0-1.9,3.67l-.4,1.15a1.6,1.6,0,0,0-.9,1.42l-.43,1.16a24.75,24.75,0,0,0-4.1,6v0l-2.21.79-2.33.09a6.31,6.31,0,0,0-4.68,1.15h-1.53c-1.16-1.13-.71-2.43-.52-3.7a11.47,11.47,0,0,0,2.44-5.3l.62-1.82c1.88-2.3,2.63-5,3.49-7.62a2.64,2.64,0,0,0,.54-2.15c2-2.5,2.63-5.5,3.91-8.26l.4-1.43a1.16,1.16,0,0,0,.68-1.33c.13-.4.25-.81.37-1.21,2.22-3.54,5-6.83,6.56-10.65l1.05-2.24a6.86,6.86,0,0,0,1.89-4.45.35.35,0,0,0,.09-.49c1-.8,1-2,1.56-2.95,1.77-3.08.27-6.58,1.88-9.64,3-5.81,6.07-11.62,9.17-17.4,4.56-8.49,7.33-17.49,10.66-26.34,2.56-6.79,5.92-13.37,9.07-20,1.54-3.26-1.75-4.45-3.63-5.8-2.13-1.52-3,1-3.9,2-6.66,7.81-13.14,15.75-19.79,23.57a45.24,45.24,0,0,1-9.33,8.72c-4.54,3-7.71,7.11-8.81,12-1.28,5.76-5.38,10.17-9.53,14.47-3.34,3.45-3.68,3.31-6.8-.2Q89.11,119,63.6,90.18c-.7-.8-1-2.14-2.78-2-3.11.35-5.73,4.22-4.67,6.84,4.76,11.73,12.66,22.39,15.54,34.8,1.44,6.21,6.93,11.19,10,17,6.53,12.49,10.55,25.8,17.56,38.17,4.8,8.47,8.68,17.32,13.74,25.71l.26.6c1,2.13,2,4.25,3,6.4.38.86.42,2.13-1.11,1.75-2.6-.67-5.47.38-7.87-1.09l.05.09a1.26,1.26,0,0,0-.93-1.3l0,0c-.17-1.3-1.29-2-2.31-2.84-.84-1-1.68-2-2.53-3l-.61-.69c-.2-.65-.19-1.46-1.37-1.44l-.07-.06c.39-.77-.11-1.34-.58-1.92a11.24,11.24,0,0,0-2.6-4.67,1.59,1.59,0,0,0-.75-1.83,2.26,2.26,0,0,0-.8-2l0,0a2.29,2.29,0,0,0-1.31-2.44c.16-.05.2-.15.12-.28a3.18,3.18,0,0,0-1.24-2.57c-.25-.64-.51-1.27-.76-1.91a16.65,16.65,0,0,0-3-6.65l-.39-1.27-.49-.89c.08-.2,0-.35-.23-.43L87,181.4c.15-.15.13-.27-.06-.38a15.07,15.07,0,0,0-3-5.64l.08-.16-.15-.13a1.24,1.24,0,0,0-.82-1.33c-.11-.22-.23-.43-.35-.64,0-.69-.46-1.07-1.07-1.39a1.81,1.81,0,0,0-.87-1.94l-.72-1,.07-.19-.19-.12a.88.88,0,0,0-.79-.86l-.73-.14h0l.34-.07,0-.3A4.51,4.51,0,0,0,77,164.47a3.26,3.26,0,0,0-1.47-2.05l-.75-.82-.3-1.29c.62-1.46-.61-2.53-1.12-3.75-.1-.4-.19-.81-.29-1.21a2,2,0,0,0-.92-2.19l-.45-.75c.86-2.24-1.08-3.86-1.78-5.75l0,0c-1.44-3.51-3-7-5.82-9.88-.09-.19-.19-.38-.28-.58l-.38-.61a33.69,33.69,0,0,0-7.74-7.9L37,99.86c-.38-.56-.66-1.34-1.59-1.16-1.28.25-.82,1.21-.75,1.9.18,2.06.43,4.12.7,6.18.46,3.45-.45,7,.83,10.38.66,5.54,0,11.17,1.49,16.66-1.07,1.27-.63,2.51.09,3.75l.48,7.93c-.22.7-.47,1.41.29,2l0,.1a2.63,2.63,0,0,0,1.66,2.61l1.14,2.49c.14.28.27.56.41.83l.51,1.19c0,.09-.16.2-.13.25a3.74,3.74,0,0,0,.36.45l0,0c-.41,1.94-.83,3.87-1.24,5.81a.52.52,0,0,0-.16.6l-.36.66-.39.73c-1.16.95-.9,2.12-.7,3.28l.12,1.36a.47.47,0,0,0,0,.61v1.38a4.12,4.12,0,0,0,.43,3.31l.06,1.27c-.47.68-.92,1.39-2.09,1.16l0,0a18.3,18.3,0,0,0-3.82-7.49l0-.18-.16-.11a3.42,3.42,0,0,0-1.52-3v-.23a1.26,1.26,0,0,0-.79-1.46h0a16.07,16.07,0,0,0-3.07-6.55c-.12-.41-.23-.82-.35-1.24a5.37,5.37,0,0,0-1.3-3.32L27,150.68a1.12,1.12,0,0,0-.58-1.38l-.27-.62-.44-1c0-.33,0-.66,0-1a2.56,2.56,0,0,0-.8-2.63c-.5-2.17,0-4.51-1.49-6.53-.16-1.9.25-3.85-.66-5.68a3.76,3.76,0,0,0-.47-3,.79.79,0,0,0-.41-1q-.14-4.74-.29-9.49c0-1.08,0-2.16,0-3.25,0-.45,0-.9,0-1.35l0-.64c.35-3.5.71-7,1.06-10.5a1,1,0,0,0,.3-1.38c.14-1.67.27-3.35.41-5a1.33,1.33,0,0,0,.57-1.52,1.25,1.25,0,0,0,.25-1.6l.29-1c.19-.78.37-1.57.55-2.36C26.21,87.8,26.31,85.59,26.89,83.49Zm52-15.66c-.07,6.13,2.06,12,2.9,18A5.92,5.92,0,0,0,84,89.29C91.16,95,98.33,100.64,105.81,106c5.21,3.74,10.73,4.1,15.22,1,3.87-2.65,8.22-4.49,12.47-6.49,2.23-1,4.48-2.2,5.47-4,3.49-6.36,9.78-11.51,11.2-18.77.88-4.51,2.86-9,1.93-13.6-.64-3.24-1.22-6.48-1.61-9.75-1.15-9.83-7.46-17-16.57-22.67a19.45,19.45,0,0,0-7.62-3,49.33,49.33,0,0,1-12.08-3.3,11.71,11.71,0,0,0-12.49,2.69c-3.44,3.6-7.2,7-12.08,9.08a11.54,11.54,0,0,0-6.56,6.46,23.15,23.15,0,0,0-1.56,9.73c0,1.31.31,2.67-.47,3.89C78.92,60.59,78.71,64.17,78.9,67.83Z" transform="translate(-12.31 -2.44)" fill="#059adc"/><path d="M122.06,216.17c-.19,1.27-.64,2.57.52,3.7-1.89,2.5-3.91,3.83-7.09,1.12-1.56-1.32-3.89-.36-5.44,0-3.64.85-3.2-.71-2.84-2.58,2.4,1.46,5.27.41,7.87,1.08,1.53.38,1.49-.89,1.11-1.75-.94-2.15-2-4.27-3-6.4.65-.43.27-.54-.26-.6C107.89,202.35,104,193.5,99.21,185c-7-12.37-11-25.68-17.56-38.17-3-5.8-8.52-10.78-10-17-2.88-12.41-10.78-23.07-15.54-34.8-1.06-2.62,1.56-6.49,4.67-6.84,1.75-.19,2.08,1.15,2.78,2q25.56,28.75,51.05,57.55c3.12,3.51,3.46,3.65,6.8.2,4.15-4.3,8.25-8.71,9.53-14.47,1.1-4.92,4.27-9,8.81-12a45.24,45.24,0,0,0,9.33-8.72c6.65-7.82,13.13-15.76,19.79-23.57.9-1.06,1.77-3.56,3.9-2,1.88,1.35,5.17,2.54,3.63,5.8-3.15,6.62-6.51,13.2-9.07,20-3.33,8.85-6.1,17.85-10.66,26.34-3.1,5.78-6.13,11.59-9.17,17.4-1.61,3.06-.11,6.56-1.88,9.64-.55,1-.54,2.15-1.56,2.95-2.13-.07-3.64-.23-2-2.63,1.8-2.65.08-5.48-.11-8.24-.08-1.22-.82-1.74-2.11-1.89a2.06,2.06,0,0,1,.9-1.89c.78-.06,1.92.42,2.21-.46s-.88-.71-1.49-.91c5.12-8.9,8.54-18.39,13.17-27.47,1.27-2.5,2.61-5.1,2.37-8.39-2.14,1.27-3,3-4.45,4.09-1.84,1.42-2.57,3.78-5.18,4.49-5.49,1.5-7.74,5.42-9.11,9.54-3.21,9.61-10,17-18.45,23.69-1.73,1.36-2.66,1.3-4.26-.3-11.41-11.34-22-23.26-32.45-35.21-2.84-3.24-4.94-7-9.08-9.84,1.22,3.08,3.12,5.76,3,8.73-.21,4.49,2.22,8.29,5,11.52,4.61,5.35,7.38,11.24,9.73,17.41A176.08,176.08,0,0,0,100,170.94c5.85,11.1,11.56,22.25,17.33,33.38l-1,2.39h0c-1.41.11-2.46,1.28-1.93,1.89,1.92,2.19,1.95,6,6.59,6h0c0,.5.08,1,.7,1.23C121.83,216,121.94,216.07,122.06,216.17Zm-2.47.12c-.9,1.54-1.92,2.44-1.3,3.81.09.19.64.22,1,.33C119.55,219.28,120.44,218.19,119.59,216.29Z" transform="translate(-12.31 -2.44)" fill="#f1f9f4"/><path d="M67.48,202c-2-2.22-4.28-3.92-7.87-3.59-.29-.94-1.19-1.11-2.13-1.24-.92-1.9-2.91-3.07-4.54-4.4-3.76-3.09-5.62-6.69-5.43-11.09V181a33.12,33.12,0,0,0-.37-8.55c0-.44,0-.88,0-1.32l-.18-6.46a3.14,3.14,0,0,0,1.26-2.1c1.16-1.12,1.13-2.48,1.06-3.85a1.66,1.66,0,0,0,0-2.2,9.49,9.49,0,0,0-1.8-6.45,1.11,1.11,0,0,0-.76-1.11,27.08,27.08,0,0,1-2.45-9.46,5.52,5.52,0,0,0-.38-4.08L43.38,125c2.09-1.08,1.87,1.18,3,1.5,1.34,2.24,2,4.8,4.49,6.49.06,1,.75,1.35,1.83,1.31H53l1.18.93,4.45,5.66a2,2,0,0,0,1.54,1.75,9.4,9.4,0,0,0,2.36,4.77,1.22,1.22,0,0,0,.48,1.38l3.69,11.12a.93.93,0,0,0,.6,1.08c-.38,1.31.41,2.4.93,3.53a1,1,0,0,0,.75,1.4,1.72,1.72,0,0,0,1.27,1.33,3.84,3.84,0,0,0,1.84,2.6c.42.43.83.87,1.25,1.31a1.18,1.18,0,0,0,.86,1.36c1.3,2.91,2.41,5.9,4.67,8.43a1.6,1.6,0,0,0,.88,1.7c.43,2.05,1.92,3.7,2.9,5.54a1.76,1.76,0,0,0,.92,1.81l-.06.24a1.38,1.38,0,0,0,.72,1.4c.29,2.14,1.68,3.91,2.64,5.83a1.52,1.52,0,0,0,.64,1.63,3.28,3.28,0,0,0,.91,2.32c.46,2.09.67,4.27,2.79,5.79-.37,1,.27,1.55,1,2.11l.72,1.07a1.35,1.35,0,0,0,.8,1.56.82.82,0,0,0,.74.84H94.4c.09,1.41,2.31,2.45,1,4.11H93.72a2,2,0,0,0-2.19-1.13c-1.9-.41-3.46-1.65-5.55-1.57-.54-1.07-1.66-1.24-2.84-1.33a2.59,2.59,0,0,0-2.08-1,3.23,3.23,0,0,0-2.69-1.47l-.23,0a2.21,2.21,0,0,0-2-1.39,6.91,6.91,0,0,0-3.86-3l-.85-.84a4.91,4.91,0,0,0-2.34-1.78l-.82-.7,0,0Z" transform="translate(-12.31 -2.44)" fill="#62b829"/><path d="M187.48,123.68l.31-.61c1.67.09,1.49,1.12,1.51,2.09,0,1.26.1,2.53.15,3.8a26.16,26.16,0,0,0,0,8.56,5.25,5.25,0,0,0,0,3.3c-.08.86-.15,1.71-.22,2.57a7.25,7.25,0,0,0-1.45,3.36l-.14.13.1.15c-1.68,2.62-2.52,5.35-1.54,8.32a3.66,3.66,0,0,0,.42,2.6c.1,2.8,1.73,5.26,2.48,7.91A107.42,107.42,0,0,0,188.9,183q-1,2.64-1.94,5.27h0a11,11,0,0,0-4.35,5.15,9.57,9.57,0,0,0-4.22,3.3c-2.8,1.24-6.37,1.28-8.3,3.87a2.85,2.85,0,0,0-2.59,1.36,11.59,11.59,0,0,0-5.17,4.16,2.15,2.15,0,0,0-1.11,1.58,1.88,1.88,0,0,0-1.71,1.66l-1.21.59a1.27,1.27,0,0,0-1.27.66l-2,1.13a2.79,2.79,0,0,0-2.43,1.4V213c-1.9.24-3.88.33-5.05,1.94l-1.71.26c-1.82-.68-1.14-2-1.14-3.17l-.05-.2A1.6,1.6,0,0,0,146,210a1.54,1.54,0,0,0,.78-1.63l.5-1a3.33,3.33,0,0,0,1.31-2.61c.82-2.18,1.71-4.34,2.45-6.54,3.81-11.27,7.68-22.51,15.89-32.21a6.25,6.25,0,0,0,1.33-3.38c1.57-11.88,5.6-22.89,15.72-31.72a1.84,1.84,0,0,0,1.1-2.11,1.56,1.56,0,0,0,1-1.86,1.29,1.29,0,0,0,.43-1.47C187.37,125.09,187.81,124.54,187.48,123.68Z" transform="translate(-12.31 -2.44)" fill="#62b829"/><path d="M252.1,59.14a22.61,22.61,0,0,1,.86,9.41c-.2,2.68-1,5.17-3.59,7-1.78,1.24-2.09,2.6.3,3.52a6.27,6.27,0,0,1,3.46,3.36c3.3,6.65,2.85,13.22-.95,19.59-2.14,3.59-6,4.93-10.52,5.09-1.92.06-3.83.17-5.75.27a4,4,0,0,0-3.11.06c-1.71-.57-3-1.15-3-3.17.14-16.86.13-33.72.16-50.57l1.4-1a92.81,92.81,0,0,0,9.28.17c5-.36,8.49,1.19,10.78,4.89A1.2,1.2,0,0,0,252.1,59.14ZM236.68,90.67h.07c0,1.87-.09,3.73,0,5.59.08,1.35-1,3.22.85,3.91a9.15,9.15,0,0,0,6.74-.29,6,6,0,0,0,2.86-3,15.07,15.07,0,0,0,1-10.34c-.89-4.06-3.77-5.87-8.66-6-2,0-2.87.59-2.85,2.25C236.7,85.41,236.68,88,236.68,90.67Zm0-22.51h-.05c0,2.18,0,4.37,0,6.56,0,1.66.79,2.29,2.92,2,4-.6,5.68-2.14,6.72-6.93.89-4-.59-8.71-3.25-9.86a7.54,7.54,0,0,0-5.25-.16c-1.89.62-1.05,2.25-1.08,3.49C236.68,64.88,236.71,66.52,236.71,68.16Z" transform="translate(-12.31 -2.44)" fill="#171518"/><path d="M423.12,160.06c0-5.38,0-10.76,0-16.14,0-1.25-.47-2.93,1.56-3.32,1.53-.29,3.35-.51,4.36,1.21.85,1.46,1.84,1,3,.08,4.65-3.78,7.85-3.37,10.7,1.55,1.08,1.86,1.54,1.94,3,.3,1.82-2,3.36-5,7.12-4.23s5.1,3.74,5.89,6.71a13.76,13.76,0,0,1,.6,3.57c0,9,0,18,0,27,0,1.83-.14,3.17-3.08,3.09-2.76-.07-3.06-1.11-3-3.1q.15-12.67-.07-25.36c0-2.54.26-5.63-4-6.14-2.21-.27-4.8,3.21-4.81,6.33,0,8.35.05,16.69.1,25,0,1.71.22,3.25-2.86,3.23-2.53,0-3.43-.56-3.39-2.78.15-7.69.08-15.37.11-23.06a20.43,20.43,0,0,0-.83-6.2,3.74,3.74,0,0,0-2.8-2.51c-1.75-.45-2.62.74-3.46,1.64-1.93,2.08-2.32,4.56-2.31,7.14.05,7.57,0,15.15.07,22.72,0,1.61.12,3.12-2.68,3.1-2.6,0-3.28-1-3.23-3.08C423.2,171.26,423.12,165.66,423.12,160.06Z" transform="translate(-12.31 -2.44)" fill="#171518"/><path d="M417.8,110.49c1.59,1.65,1.8,3.5,3.34,4.79,3.28,2.75,8.35,2.26,10.38-1.22a18.4,18.4,0,0,0,2.41-10.2c0-.73.12-1.65-1-1.9-.91-.21-1.31.54-1.87,1-4.83,3.71-8.38,3.3-11.17-1.66-5.62-10-5.16-20.12-.28-30.24a10.27,10.27,0,0,1,2.7-3.18c2.79-2.4,5.2-2.53,8-.15,1.57,1.33,2.54,1.87,4.85.83,3.33-1.49,5.22-.19,5.2,3.09-.08,11.41-.11,22.83-.32,34.23-.09,4.74-.77,9.41-4.45,13.34-5.05,5.38-13,4.63-16.44-1.59C417,113.77,416.93,113.45,417.8,110.49Zm16.06-25.4c-.25-2.41.6-5.86-.53-9.19-.63-1.85-1.9-3.61-4.32-3.81a4.37,4.37,0,0,0-4.35,2.82c-2.89,7.26-3.23,14.66.08,21.84,1.77,3.87,4.71,3.86,7.75.56a5.14,5.14,0,0,0,1.36-3.67C433.9,91.11,433.86,88.59,433.86,85.09Z" transform="translate(-12.31 -2.44)" fill="#171518"/><path d="M465.08,152.09c0-7.9.05-15.79,0-23.68,0-2,.46-3,3.17-3s3.28,1,3.23,3c-.09,3.84,0,7.67,0,11.51,0,1.58.26,2.72,2.62,1.36,6-3.44,10.11-2.6,12.41,3.16,4.27,10.68,4.57,21.52-.66,32.08-2.66,5.36-7.07,6-11.91,2.21-1-.81-1.88-1.26-2.73,0-1.24,1.86-3.28,1.18-4.84.85-1.74-.37-1.17-2-1.18-3.13-.06-8.12,0-16.23,0-24.34Zm6.42,8.24h0v7.9a7.61,7.61,0,0,0,1,4.46,5.1,5.1,0,0,0,4.53,2.66,4.31,4.31,0,0,0,3.86-2.9,32.69,32.69,0,0,0,.39-23.89c-.66-1.82-1.87-3.56-4.49-3.55s-3.54,1.9-4.55,3.56a5.81,5.81,0,0,0-.69,3.2C471.51,154.62,471.5,157.47,471.5,160.33Z" transform="translate(-12.31 -2.44)" fill="#171518"/><path d="M270.18,153q0,12,0,24c0,1,.39,2.19-.93,2.63-1.58.52-3.74.71-4.71-.42-1.7-2-2.63-1.29-4.1.06a6.24,6.24,0,0,1-9.21-.26c-3.59-3.61-4.52-8.14-5-12.57-.87-7.22-.41-14.44,2.63-21.38a9.73,9.73,0,0,1,4.4-5.23c2.77-1.42,5.31-1.45,7.41,1.07.58.71,1.13,2,2.56,1.49,1.06-.41.66-1.54.66-2.4,0-3.73,0-7.45-.09-11.18-.07-2.23.54-3.48,3.63-3.46s2.8,1.62,2.8,3.3Q270.18,140.85,270.18,153Zm-6.38,7.58h0c0-3.07.07-6.14,0-9.21S261.3,145,258.89,145c-3.83,0-4.67,2.82-5.4,5.19-1.73,5.58-1.6,11.28-.81,17a14.24,14.24,0,0,0,2.19,5.91c2,3,5.29,3,7.58.1a6.13,6.13,0,0,0,1.36-4C263.78,166.3,263.8,163.45,263.8,160.59Z" transform="translate(-12.31 -2.44)" fill="#171518"/><path d="M410.65,107c-2,.31-3.27-.35-3.44-2.35a8.68,8.68,0,0,0-.54-1.58c-.77-2.62-.22-6.34-2.91-7.51-3.54-1.55-8.09-.47-12.2-.54-1.83,0-2.16,1.33-2.49,2.52-.61,2.24-1.26,4.48-1.77,6.74-.46,2.06-1.76,3.28-4.26,2.76-2.66-.56-1.23-2.33-.88-3.51q7-23.91,14.22-47.78c.3-1,0-2.57,1.76-2.52s1.39,1.63,1.68,2.62c4.74,16.25,9.4,32.52,14.23,48.76C415,107.65,412.7,106.94,410.65,107ZM397,88.14c5.24,0,5.25,0,4-4.41-.94-3.29-1.92-6.58-2.87-9.87-.18-.61,0-1.52-1-1.58-1.25-.06-1.13,1-1.33,1.67-.91,3.3-1.78,6.61-2.73,9.9C391.88,88.17,391.85,88.17,397,88.14Z" transform="translate(-12.31 -2.44)" fill="#171518"/><path d="M347.54,137.69c-1.82-.53-1.67-2-2.2-3-2.77-5.32-9.46-6.3-14-2a16.08,16.08,0,0,0-4.67,8.53c-2.14,10.17-2.76,20.27,3.51,29.7,3.76,5.66,10.5,5.59,14.6.08.85-1.15.82-2.78,2.52-3.52,1.37,3-1.57,9.57-5.2,11.79a12.59,12.59,0,0,1-15.84-1.87c-4.42-4.41-6.24-9.75-7.06-15.37-1.52-10.37-1.1-20.54,4.15-30.26a15.54,15.54,0,0,1,6.39-6.41c6.61-3.55,13.93-1.07,16.94,5.73C347.57,133.17,349.12,135.3,347.54,137.69Z" transform="translate(-12.31 -2.44)" fill="#171518"/><path d="M184,131c-10.12,8.83-14.15,19.84-15.72,31.72a6.25,6.25,0,0,1-1.33,3.38c-8.21,9.7-12.08,20.94-15.89,32.21-.74,2.2-1.63,4.36-2.45,6.54-1.73.15-2.12-1.18-2.59-2-1.06-1.91-2.36-1.54-3.93-.68,4.05-11,7.65-22.2,13.15-32.82.16-.3.2-.68.44-.91,6.43-6.22,6.25-14.35,8.84-21.7,2.87-8.13,6.67-15.89,14.71-21.52,2.16-.16,4.15-.36,2.21,2.4S179.69,130.66,184,131Z" transform="translate(-12.31 -2.44)" fill="#f1f9f4"/><path d="M298.71,168.26a11,11,0,0,1-12.06,12.8,9.57,9.57,0,0,1-7.66-5.5c-5.26-10.65-6-21.45.59-32a9,9,0,0,1,8.54-4.69,9.61,9.61,0,0,1,8.42,4.88c3,4.56,3.77,9.48,3.91,14.58.06,1.92-.9,2.44-3,2.38-4.26-.1-8.53.07-12.78-.11-2.38-.1-3.44.47-3.1,2.54.53,3.25.89,6.57,3.16,9.38a7,7,0,0,0,11.7-.76C297,170.85,297.64,169.91,298.71,168.26Zm-16.59-14.88c.19,3.66,3.76,1.2,5.6,2.16,1.82-1.12,5.7,1.76,5.81-2.29.14-4.86-2.21-8.26-5.41-8.31" transform="translate(-12.31 -2.44)" fill="#171518"/><path d="M418,160.41c-.48,7.17-1.08,12.64-5.22,17.21-4.92,5.43-12.49,4.68-16.07-1.54-4.26-7.4-4.45-15.19-3.11-23.13.75-4.43,2.28-8.54,6.24-11.73s8.53-2.93,12,.66C417.71,147.81,418,154.92,418,160.41Zm-18.35-.55c-.25,4.81-.25,9.31,2.39,13.41,1.7,2.66,4.64,2.74,6.63.22a7.9,7.9,0,0,0,1.39-2.68,37.18,37.18,0,0,0,0-21.44c-.59-2-1.75-4.22-4.66-4.2s-3.88,2.26-4.56,4.27A23.45,23.45,0,0,0,399.69,159.86Z" transform="translate(-12.31 -2.44)" fill="#171518"/><path d="M364.41,87.24c-.15,5.59-.46,11.14-3.79,16.21-2,3-4.81,5.37-9.07,5.27a9.79,9.79,0,0,1-8.78-6.15c-4.74-10.42-4.74-21,.86-31.22a9.54,9.54,0,0,1,8.48-5,10.87,10.87,0,0,1,9.39,6.48A29.2,29.2,0,0,1,364.41,87.24Zm-6.33-.62a26.12,26.12,0,0,0-2-11.39,4.31,4.31,0,0,0-3.93-2.77,3.94,3.94,0,0,0-4,2.61,36.26,36.26,0,0,0,0,24.8,4,4,0,0,0,3.8,2.87c2.2,0,3.34-1.38,4.09-3C357.89,95.78,358.16,91.65,358.08,86.62Z" transform="translate(-12.31 -2.44)" fill="#171518"/><path d="M261.15,76.53a10.37,10.37,0,0,1,8-10.28c3.63-.88,6.11,1.08,8.21,3.24,3.14,3.25,3.59,7.25,3.69,11.2.2,7.89.09,15.8.11,23.7,0,1.12.11,2.42-1.61,2.56-1.49.12-3.42.84-4.15-1.27-.4-1.14-1.17-1.57-2.56-.62-6.63,4.51-11.15,3.38-13.14-3.52a18.7,18.7,0,0,1,1.46-14.8c2.44-4.38,6.25-5.8,11.71-4.13,1.63.5,2.3.33,2.15-1a21.4,21.4,0,0,0-1.32-6.76c-1.54-3.51-8.18-4.4-10.1-.54A3.44,3.44,0,0,1,261.15,76.53ZM275,94.6h.11c0-1,0-2,0-3-.05-1.62.2-3.39-2.53-3.78s-4.95.24-6,2.5a11.36,11.36,0,0,0-.25,9,3.9,3.9,0,0,0,4.66,2.65c2.33-.4,3.93-1.62,4-3.82C275,97,275,95.8,275,94.6Z" transform="translate(-12.31 -2.44)" fill="#171518"/><path d="M351.71,160.31c.12-6.18.51-12.3,5.24-17.47s10.11-5.21,14.88.06c6.39,7,6.48,26.59.2,34.07-2.28,2.72-4.84,4.73-9.29,4.13-4.15-.55-6.15-3.06-7.73-5.8C352.48,170.9,351.77,166.83,351.71,160.31Zm18.55.08c-.41-4-.16-8-1.75-11.78-.74-1.73-1.56-3.66-4.32-3.62-2.5,0-3.25,1.8-4.14,3.4-1.29,2.34-1.51,4.87-1.75,7.36-.54,5.68-.5,11.36,2,16.78a4.15,4.15,0,0,0,3.92,2.73c2.19,0,3.1-1.28,3.88-2.73C370.21,168.61,369.86,164.4,370.26,160.39Z" transform="translate(-12.31 -2.44)" fill="#171518"/><path d="M520.52,87.6c.5-5.82,1-10.5,3.53-14.82,2-3.51,5-6.71,9.83-6.39,5.09.35,8,4,9.51,7.8a34.38,34.38,0,0,1,.09,26.08,14.55,14.55,0,0,1-3.12,4.88c-6.3,6.43-12,3.79-15.66-1.53S520.79,92.41,520.52,87.6Zm18.68.22c.11-4.09-.08-7.91-1.5-11.61-.71-1.86-1.73-3.67-4.28-3.73-2.81-.07-4,1.9-4.58,3.84a37.88,37.88,0,0,0-.05,22.41c.56,1.93,1.8,4,4.52,3.91s3.76-2.09,4.49-4A25.86,25.86,0,0,0,539.2,87.82Z" transform="translate(-12.31 -2.44)" fill="#171518"/><path d="M520.88,148.21a9,9,0,0,0-3.37-3.49,3.3,3.3,0,0,0-5,.06c-1.83,1-2.3,2.87-3.6,4.2l-1.37-.69a14.92,14.92,0,0,1,3.44-6.87,9,9,0,0,1,12.42-.07,13.29,13.29,0,0,1,4,8.71c.62,8.76.57,17.52.35,26.29,0,1.46.85,3.36-2.45,3.55-2.9.16-4.1-.63-3.41-3.07-2.09,0-2.4,1.32-3.26,2-3.55,3-6.66,2.83-9.71-.5-4.7-5.13-4.4-16.59.81-21.25,2.12-1.9,4.8-3.64,8.23-2.27s4.11.16,3.69-2.46c-.17-1.09-.23-2.18-.34-3.27C521.64,148.66,521.4,148.38,520.88,148.21Zm.86,19c0-1-.07-1.79,0-2.55.21-2,.26-3.82-2.73-4.32a5,5,0,0,0-5.82,2.83,10.36,10.36,0,0,0-.2,9c1.31,3.17,4.3,3.59,7.26,1.31C522.75,171.58,521.28,169.15,521.74,167.22Z" transform="translate(-12.31 -2.44)" fill="#171518"/><path d="M287.09,87.44c0-5.38,0-10.76,0-16.14,0-1.14-.71-2.69,1.29-3,1.5-.23,3.44-.78,4.46,1,.79,1.36,1.88,1.55,2.94.36,2-2.24,4.61-3.55,7.71-2.35,3.27,1.27,4.49,4.12,5.1,7a22,22,0,0,1,.21,4.6c0,8.34,0,16.69,0,25,0,1.74.1,3.24-3,3.17s-2.8-1.6-2.8-3.3c0-8.23,0-16.47-.16-24.7-.06-2.52.13-5.64-4.18-6.1-2.85-.3-5.77,2.75-5.84,6.34-.16,8.12,0,16.25-.06,24.37,0,1.35.52,3.06-2,3.35s-3.91-.33-3.85-2.8c.13-5.6,0-11.2,0-16.8Z" transform="translate(-12.31 -2.44)" fill="#171518"/><path d="M485.29,91c0,4.28,0,8.55,0,12.82,0,1.06.51,2.46-.88,3a4.25,4.25,0,0,1-4.63-.65c-1.16-1.19-2.13-.71-3.32-.08-6,3.2-9.55,2.4-11.7-3.25s-2.17-11.46,1.36-16.9c2.44-3.76,6.34-5,11.1-3.29,2,.72,2.35.15,2.37-1.18a12.74,12.74,0,0,0-1.65-7c-1.92-3.11-6.55-3.51-9.29-.85a21.84,21.84,0,0,1-1.81,1.66c-.35.27-.13,1.29-1.17.72-.57-.32-1.12-.86-.69-1.35,1.81-2.07,2.1-4.83,4.8-6.57,4.64-3,9.39-2.5,12.46,1.77a14.85,14.85,0,0,1,3,9c-.07,4.05,0,8.11,0,12.16Zm-5.65,1.71c.09-2.26.35-4.56-3.41-4.91-3.16-.29-5.36,1.22-6.05,4.36a13.78,13.78,0,0,0,.17,6.54c.52,1.93,1.66,3.6,4.46,3.33,2.55-.26,4.34-1.48,4.7-3.73a24.77,24.77,0,0,0,0-4" transform="translate(-12.31 -2.44)" fill="#171518"/><path d="M336,99.69a38,38,0,0,1-2.07,4.93c-2.63,4.48-7.11,5.37-11.82,2.39-3.81-2.42-5.59-5.91-6.66-9.69-2.2-7.76-1.42-15.43,1.34-23a14.31,14.31,0,0,1,4.86-6.22c3.28-2.58,7.32-2.62,10.36,0,3.25,2.82,4.37,6.42,4.72,10.54-2.1-.75-2.13-2.2-2.8-3.31-1-1.73-1.84-3.65-4.82-3.68s-4.91,1.34-5.88,3.52a29.65,29.65,0,0,0-.55,23.49c.79,2.07,2.09,4,5.14,4.42,3.3.42,4.94-1.32,6.39-3.37Z" transform="translate(-12.31 -2.44)" fill="#171518"/><path d="M381.81,152.66c0-8.12,0-16.24,0-24.36,0-1.75.05-2.84,2.75-2.91s3.34.84,3.34,2.86q0,24.36,0,48.72c0,2.07-.81,2.89-3.38,2.94-2.8.07-2.78-1.19-2.77-2.89.05-8.12,0-16.24,0-24.36Z" transform="translate(-12.31 -2.44)" fill="#171518"/><path d="M446.42,87.44q0-8.07,0-16.14c0-1.17-.47-2.67,1.48-3,1.53-.21,3.48-.76,4.45,1s1.86.79,2.73-.07,1.67-2,3.23-2.21c2.1-.28,3.71,0,3.26,2.32a6.08,6.08,0,0,0-.13,2.28c.48,2.32.35,3.26-3,2.16a4.63,4.63,0,0,0-6.07,4.61c-.05,8.45,0,16.91,0,25.36,0,1.88.17,3.48-3.07,3.43-3,0-2.89-1.58-2.88-3.3C446.43,98.43,446.42,92.93,446.42,87.44Z" transform="translate(-12.31 -2.44)" fill="#171518"/><path d="M491.7,87.3c0-5.48,0-11,0-16.44,0-1-.6-2.55,1.3-2.57,1.43,0,3.41-1,4.4,1s1.92,1.14,3,0a7.92,7.92,0,0,1,2.26-1.78c2.4-1.24,4.17-.38,4.23,2,0,.76,0,1.53,0,2.3.13,2.07.18,3.33-3.27,2.16s-6.18,1.37-6.19,4.88c0,8.43,0,16.87,0,25.31,0,1.28.33,2.78-1.95,3s-4,0-3.88-2.66c.17-5.69,0-11.39,0-17.08Z" transform="translate(-12.31 -2.44)" fill="#171518"/><path d="M494.52,159.94c0-5.69.08-11.38-.06-17.07,0-1.93.77-2.45,2.92-2.43s2.92.62,2.9,2.5c-.09,11.38-.08,22.75,0,34.13,0,1.75-.19,2.9-2.87,2.84s-2.9-1.11-2.87-2.91C494.57,171.32,494.52,165.63,494.52,159.94Z" transform="translate(-12.31 -2.44)" fill="#171518"/><path d="M515.52,87.78c0,5.37,0,10.75,0,16.12,0,1.87-.21,3.15-3.1,3.11-2.69-.05-2.79-1.21-2.79-3,0-11,.07-21.93-.05-32.9,0-2,.3-3,3.06-3,3,0,2.92,1.33,2.88,3.17C515.45,76.81,515.52,82.29,515.52,87.78Z" transform="translate(-12.31 -2.44)" fill="#171518"/><path d="M46.38,126.51c-1.13-.32-.91-2.58-3-1.5-2.83-.82-.91-2.05,0-2.44,1.82-.75,1.53-1.69,1.13-2.94-.93-2.87-.86-6-2.65-8.66-.33-.51,0-1.51-1-1.44a1.28,1.28,0,0,0-1.26,1.71c1.41,3.07-.69,4.59-3.36,5.92-1.28-3.4-.37-6.93-.83-10.38-.27-2.06-.52-4.12-.7-6.18-.07-.69-.53-1.65.75-1.9.93-.18,1.21.6,1.59,1.16L55.7,127.67c-3.73,2.44-4.48,2.16-5.44-1.67-.35-1.4-.56-3-2.22-4.09C46.56,123.3,46.54,124.93,46.38,126.51Z" transform="translate(-12.31 -2.44)" fill="#f1f9f4"/><path d="M201.5,167.86A156.26,156.26,0,0,0,208.76,147c.75-2.84.18-5.92,2.11-8.54,1.08,1.74,1.73,3.61,2.93,5.36,1.35,2,.73,4.86-1.72,6.91-.51.43-1.44,1.66-.28,2.3s1.88-.2,2.26-1.13c.31-.74,0-2.08,1.65-1.6,1.23.36.86,1.5.64,2.31a26.78,26.78,0,0,1-2.95,7.87c-1.18-1.33-.61-2.41-.31-3.53s-.59-1.77-1.61-2c-1.49-.27-.87,1-1.23,1.54-1.95,3.1-4.12,6.08-5.17,9.57C204.84,166.91,202.74,167.29,201.5,167.86Z" transform="translate(-12.31 -2.44)" fill="#f1f9f4"/><path d="M203.69,70.44,195.86,55.3A2.1,2.1,0,0,0,198,53.37c.29-1.14.74-2.75,2.39-2.6,1.49.14,3.47.9,4.09,1.9s1.73,2.59.14,3.87c-1.84,1.47-1.78,2.24,1,2.63s1,2,.48,2.69c-1.37,1.64-2.19,3-.73,5C206.26,68.16,205.32,69.58,203.69,70.44Z" transform="translate(-12.31 -2.44)" fill="#f1f9f4"/><path d="M66.72,27.52,55.85,36.1c-.94-1.54-1.23-3.33-2.64-4.7-.63-.61-.87-1.76-.12-2.07,2.68-1.1,2.06-2.54.4-4.32,2.34,0,3.36,1.3,4.84,1.74.93.28,1.87,1.21,2.61.12s-.34-1.55-1.28-2c-.72-.38-1.84-.45-2-1.38-.07-.63.81-1.25,1.14-1.06,2.12,1.23,4.19,2.25,7,1.9.64-.08.64.83-.14,1.11s-2.13.1-1.86,1.19C64.13,28,65.7,27.29,66.72,27.52Z" transform="translate(-12.31 -2.44)" fill="#f1f9f4"/><path d="M129.45,13.82c-7.42-1.25-14.93-.53-22.4-.81.09-1.32-.46-2-2.19-2-.85,0-2.46.35-2-1.13.32-.94,1.62-1.9,2.71-1.27,5.68,3.31,12,1.14,18,1.74,1,.1,2.36.16,3-.31a3.64,3.64,0,0,1,5.54.74C133.8,13,130,12.55,129.45,13.82Z" transform="translate(-12.31 -2.44)" fill="#f1f9f4"/><path d="M180.31,122.88c4.19-7.91,8.61-15.72,13.49-23.34a6.76,6.76,0,0,0,.37,1.26c1.78,3.65.28,6.83-2.4,9.52a14.43,14.43,0,0,0-4.05,6.83C187.08,119.73,182.69,122.91,180.31,122.88Z" transform="translate(-12.31 -2.44)" fill="#f1f9f4"/><path d="M195.66,173.47c1.33,1.11,2.16.74,2.68-.64a10.54,10.54,0,0,1,2.92-4.44c1.67.13,2.22.78,1.64,2.2-.38.91-.34,1.93-.65,2.86s-1.12,2.44-.06,3.06c1.55.89,1.49-.87,2.15-1.49s1.42-.22,1.72.43c.75,1.62-1.26,3.64-3.22,3.82a67.9,67.9,0,0,0-7.71,1.44c-.5.11-1,.35-1.37-.05a.92.92,0,0,1-.06-.83C198.12,178.54,195.49,175.69,195.66,173.47Z" transform="translate(-12.31 -2.44)" fill="#f1f9f4"/><path d="M14.36,102.1c-.2-4-1.21-8,.31-12a34.35,34.35,0,0,0,2.38-8.91c.31-3.24,2.39-6.1,3.41-9.2.09-.28.76-.59,1.18-.6.65,0,.7.54.74,1a1.8,1.8,0,0,1,0,1C17.55,82.46,17.54,92.52,14.36,102.1Z" transform="translate(-12.31 -2.44)" fill="#f1f9f4"/><path d="M494.17,130.06a5.69,5.69,0,0,1,0-.72c.31-2.1.33-4.54,3.28-5.2,1.59-.36,3.91,3.7,3.37,6-.45,1.86-.84,4.59-3.49,4.46S494.38,131.73,494.17,130.06Z" transform="translate(-12.31 -2.44)" fill="#171518"/><path d="M516.2,56.78c-.7,2.17-1.05,5.38-3.57,5.3-2.7-.08-3.67-3.09-3.44-5.5.19-2,.7-4.85,3.39-4.84C515.75,51.75,515.3,54.92,516.2,56.78Z" transform="translate(-12.31 -2.44)" fill="#171518"/><path d="M53,38.8,40.34,54.63c-.07-4.16,1-7.93,4.91-10.81a4.5,4.5,0,0,0,1.15-2C47.88,38.25,48.81,37.82,53,38.8Z" transform="translate(-12.31 -2.44)" fill="#f1f9f4"/><path d="M166,26.16c-2.26-1.24-5.08-1.78-6.73-3.79.73,0,1.8.36,2.11.07.59-.53-.1-1.45-.65-1.59-2.78-.77-2.66-3.73-5.3-4.69,3-.29,5.28-2.41,8.4-1.84.8.14,1.66.31,1.79,1,.16.94-.85.92-1.59.94-1.25,0-1.87.53-1.87,1.62a1.63,1.63,0,0,0,1.35,1.73c1,.32,2.48.44,2.29,1.79-.15,1.14-1.86.47-2.55,1.47C163.83,24.08,166.69,24.17,166,26.16Z" transform="translate(-12.31 -2.44)" fill="#f1f9f4"/><path d="M63,148.81a1.22,1.22,0,0,1-.48-1.38c3.32-1.58,3.69-2.76,1.69-5.14A25.55,25.55,0,0,1,61.76,139c-.64-1.1-1.21-2.36,1-2.76h0l1.31.55c2.83,2.92,4.38,6.37,5.82,9.88-2.46.7-1.54,3.15-3.33,4.5C65.82,149.9,65.36,148.14,63,148.81Z" transform="translate(-12.31 -2.44)" fill="#f1f9f4"/><path d="M216.5,86.79c2.1.22,2.21,2,2.4,3,1.15,6.26,1.94,12.57,1.28,18.92l-1,.08-2.65-22Z" transform="translate(-12.31 -2.44)" fill="#f1f9f4"/><path d="M210.92,136.85c-.49-5.08,1.22-10,1.26-15.08,3.48.56,4,2.06,1.88,4.35a2.63,2.63,0,0,0-.34,2.78c.51,1.88,1.2,3.82-.59,5.53-1.17,1.12.62,1.67.68,2.57C212.78,137.7,211.89,136.66,210.92,136.85Z" transform="translate(-12.31 -2.44)" fill="#f1f9f4"/><path d="M90.58,16c-2.31,1.9-5.44,2.26-8.27,3.19.14-1.55-.94-2.28-2.43-2.95-1.7-.78-3.23-1.81-3.09-3.78.08-1.16.88-1.45,2.06-1.42s1.39.31,1.41,1.38c.07,3,2.3,4,5.49,2.49C87.92,13.86,88.87,16,90.58,16Z" transform="translate(-12.31 -2.44)" fill="#f1f9f4"/><path d="M140.75,5.66c2.13.16,3.81-.15,3.95,1.34.14,1.33-1.38,1.24-2.51,1.39-2.81.36-3.2,1.48-1.39,3.29.52.51,1.65,1.12.35,1.79a2.2,2.2,0,0,1-2.74-.24c-1.75-1.61-1.68-3.76-1.44-5.46C137.17,6.34,139.5,5.5,140.75,5.66Z" transform="translate(-12.31 -2.44)" fill="#f1f9f4"/><path d="M34.3,168.14a18.3,18.3,0,0,1,3.82,7.49,4.91,4.91,0,0,1-.73.19c-1.56.23-.53,3-2.39,2.23-1.69-.7-1.42-2.85-1.44-4.34,0-1.17.83-2.19-1.15-2.82a1.74,1.74,0,0,1-1.23-2.17c.73-1.6,1.54.63,2.36.1A5.43,5.43,0,0,0,34.3,168.14Z" transform="translate(-12.31 -2.44)" fill="#f1f9f4"/><path d="M208.85,86.75A16.07,16.07,0,0,1,207,80.14c1.75.53,1.13,4.06,4.48,2.55.13.52.25,1,.38,1.54.28,1.17.53,2.36,2.3,2.55h0a7.21,7.21,0,0,1-1.4,5.13c-1.61-1.16-.63-2.77-1.34-4S210.58,85.81,208.85,86.75Z" transform="translate(-12.31 -2.44)" fill="#f1f9f4"/><path d="M211.88,105.89a3.29,3.29,0,0,1-.53-3.35c1.82-.71,1.45-1.38-.06-2a1.37,1.37,0,0,1-.34-1.91c2.28.19,3.53,1.12,3.22,3.2-.17,1.16.64,2,1.15,3,.79,1.5,2,3.18-.34,4.84a4.48,4.48,0,0,1-1.54-3.12C213.3,105.48,212.65,105.65,211.88,105.89Z" transform="translate(-12.31 -2.44)" fill="#f1f9f4"/><path d="M178.38,34.82a18.25,18.25,0,0,1-5.61-4.43c2.59-1.09,5.92-.82,7.8-3.24a1.54,1.54,0,0,1,2.08.07c.85.87-.11,1.27-.77,1.81C179.94,30.61,176.94,31.76,178.38,34.82Z" transform="translate(-12.31 -2.44)" fill="#f1f9f4"/><path d="M41.18,161.23c.41-1.94.83-3.87,1.24-5.81,2.67-.38,3.16,1.38,2.35,2.57-2.32,3.41-1,7-1.39,10.5-.08.73.24,1.53-.49,2.15a7.51,7.51,0,0,1-.69-6.76C42.86,162,42.84,162,41.18,161.23Z" transform="translate(-12.31 -2.44)" fill="#f1f9f4"/><path d="M12.4,123.2c.19-5.41-.77-10.83,1-16.24V123.2Z" transform="translate(-12.31 -2.44)" fill="#f1f9f4"/><path d="M214.17,86.78c-.16-3.42.72-7-1.89-10.09-.67-.8.19-1.44,1.16-1.63s2.11.29,2,1.08c-.68,3.64,1.68,7,1.09,10.65h-2.33Z" transform="translate(-12.31 -2.44)" fill="#f1f9f4"/><path d="M218.85,140.38c-2.86-4.8,2-9.43.34-14.25C221.25,130.89,219.76,135.61,218.85,140.38Z" transform="translate(-12.31 -2.44)" fill="#f1f9f4"/><path d="M182.35,201.21a5.2,5.2,0,0,1-4.21,6.75c-1,.09-1.82-.11-1.94-1.09s-.06-2.54,1.49-2.58C180,204.22,181.08,203.14,182.35,201.21Z" transform="translate(-12.31 -2.44)" fill="#f1f9f4"/><path d="M189.45,129c0-1.27-.13-2.54-.15-3.8,0-1,.16-2-1.51-2.09,0-2,2-3.26,2.44-5.07a1,1,0,0,1,1.11-.73c.76.06,1.32.73,1,1.14-2.39,3.17-.81,6.82-1.88,10.13C190.39,128.74,189.8,128.82,189.45,129Z" transform="translate(-12.31 -2.44)" fill="#f1f9f4"/><path d="M24.3,156c.78,2.31.75,4.05-1.27,5.41-.71.47-1.71.62-2.05,0-1-1.77-2.14-3.61-1-6.49C21,157.92,22.38,158.65,24.3,156Z" transform="translate(-12.31 -2.44)" fill="#f1f9f4"/><path d="M81.45,19.58c-1.24,1.24-3,1.68-4.71,2.19.15-.82,1.71-2.28-1.12-1.75-1.89.36-3.27-.49-3.09-1.93s2.16-1,3.49-1.14C78.56,16.76,79.11,19.49,81.45,19.58Z" transform="translate(-12.31 -2.44)" fill="#f1f9f4"/><path d="M88.62,184.9a16.65,16.65,0,0,1,3,6.65c-2.17.13-4.23-.15-4.61-2.32C86.71,187.68,85.24,185.55,88.62,184.9Z" transform="translate(-12.31 -2.44)" fill="#f1f9f4"/><path d="M133.34,217.82a24.52,24.52,0,0,1,4.11-6l1.42.21h0c.88,2.12-1,3.88-1.33,5.83C137.19,219.6,134.82,217.79,133.34,217.82Z" transform="translate(-12.31 -2.44)" fill="#f1f9f4"/><path d="M190.36,47.36a4.27,4.27,0,0,1-2-2.46,10.89,10.89,0,0,1,3.25-3.52,1.73,1.73,0,0,1,2.65.95C192.37,43.69,193,46.5,190.36,47.36Z" transform="translate(-12.31 -2.44)" fill="#f1f9f4"/><path d="M83.88,175.38a15.07,15.07,0,0,1,3,5.64c-3.51-.35-1.63,2.58-3.12,3.74-1.49-1.71-3.1-3-.87-5.33C83.82,178.5,83.59,176.76,83.88,175.38Z" transform="translate(-12.31 -2.44)" fill="#f1f9f4"/><path d="M26.31,169c-.13.81.28,2-1.29,2a2.17,2.17,0,0,1-2.3-1.85,3,3,0,0,1,.43-1.57c.58-1.33-2.22-3.5.34-3.79,1.66-.2,1.78,2.78,2.71,4.28C26.37,168.3,26.28,168.67,26.31,169Z" transform="translate(-12.31 -2.44)" fill="#f1f9f4"/><path d="M69.78,217.26c.38-.06.76-.1,1.13-.19,5-1.13,6-.56,6.29,4a16.82,16.82,0,0,1-7.42-3.77Z" transform="translate(-12.31 -2.44)" fill="#f1f9f4"/><path d="M206.87,79.51c-.57-1.29-1.77-2.43-1.36-4,1.67.75,1.76-3.3,4-.94C210.92,76.16,209.38,79,206.87,79.51Z" transform="translate(-12.31 -2.44)" fill="#f1f9f4"/><path d="M26.89,83.49c-.58,2.1-.68,4.31-1.92,6.26-.45-.79-1.35-.89-2.22-1.11-1.35-.34-1.05-1.35-1.08-2.19s.32-1.67,1.46-1.56C24.78,85.05,25.53,83.73,26.89,83.49Z" transform="translate(-12.31 -2.44)" fill="#f1f9f4"/><path d="M186.63,42.76l-6-5.9c2.4-.59,4.62-1,5.08,2a2.63,2.63,0,0,0,1.58,1.75C189.4,41.78,187.72,42.24,186.63,42.76Z" transform="translate(-12.31 -2.44)" fill="#f1f9f4"/><path d="M192.93,155.37l2.19,4.94c-2.1-1.15-4.45-2.08-6.2-3.54-.9-.76-.67-2.44.22-3.89,1.39.68.91,2,1.57,2.82C191.89,157.19,192.27,155.82,192.93,155.37Z" transform="translate(-12.31 -2.44)" fill="#f1f9f4"/><path d="M180.6,36.86a4.28,4.28,0,0,1-2.24-2.06c1.68-.68,2-2.32,3.16-3.36.83-.72,1.5-1.86,2.71-.85,1,.81.41,1.86-.62,2.56A7.08,7.08,0,0,0,180.6,36.86Z" transform="translate(-12.31 -2.44)" fill="#f1f9f4"/><path d="M148.18,9.81c3-1.65,6.21-1.09,7.44,1a1.11,1.11,0,0,1-.19,1.51,1.11,1.11,0,0,1-1.86-.12C152.42,10.6,150.32,10.6,148.18,9.81Z" transform="translate(-12.31 -2.44)" fill="#f1f9f4"/><path d="M117,231.14c-1.46-.2-3.48-.31-3.17-1.42.47-1.7,3-1.09,4.61-1.7,1-.38,1.82.09,1.74,1.09C120,230.91,118.17,230.79,117,231.14Z" transform="translate(-12.31 -2.44)" fill="#f1f9f4"/><path d="M74.75,161.6l.75.82c-.66.36-1.18.82-.78,1.51s1.44.52,2.25.54a4.51,4.51,0,0,1,1.69,2.64c-2.52.5-4.88-.25-6-1.9C72,164.36,72.4,162.12,74.75,161.6Z" transform="translate(-12.31 -2.44)" fill="#f1f9f4"/><path d="M95.4,216.92c1.31-1.66-.91-2.7-1-4.11,1.83-.47,3.08-.35,4.17,1.41s-.49,2.91-1.24,3.74C96.15,219.28,95.51,218.07,95.4,216.92Z" transform="translate(-12.31 -2.44)" fill="#f1f9f4"/><path d="M129.28,229.12a6.4,6.4,0,0,1-1.16,0c-1-.21-2.79.59-2.72-.93.06-1.19,1.75-1,2.89-1a5.61,5.61,0,0,1,1.16,0c1.27.24,3-.7,3.71.9C133.51,228.86,132.63,229.11,129.28,229.12Z" transform="translate(-12.31 -2.44)" fill="#f1f9f4"/><path d="M172.72,30.38a34.49,34.49,0,0,1-6.67-4.2C171,25,173.23,26.45,172.72,30.38Z" transform="translate(-12.31 -2.44)" fill="#f1f9f4"/><path d="M149.74,18.83a4,4,0,0,1-3.13-1.14c-.13-.74-.29-1.49-.36-2.23-.15-1.48,1.2-1.08,2.1-1.13,1.35-.09,2.29.34,2.07,1.66C150.26,16.94,150,17.88,149.74,18.83Z" transform="translate(-12.31 -2.44)" fill="#f1f9f4"/><path d="M144.71,212.07c0,1.15-.68,2.49,1.14,3.17-.2,1.43-1.23,1.7-2.35.86-1.37-1-3.49-1.88-2.89-3.87.42-1.4,1.69-.22,2.57-.27A11.36,11.36,0,0,1,144.71,212.07Z" transform="translate(-12.31 -2.44)" fill="#f1f9f4"/><path d="M73.33,156.56c.51,1.22,1.74,2.29,1.12,3.75-1.38.44-2.91-.25-4.86,1.22,1.17-2.59.93-4.41,1-6.21h0C71.4,155.86,72,156.84,73.33,156.56Z" transform="translate(-12.31 -2.44)" fill="#f1f9f4"/><path d="M13.59,128.58c2.86,3.19,1.46,5.88,1.21,8.5C14.1,134.55,12.62,132.11,13.59,128.58Z" transform="translate(-12.31 -2.44)" fill="#f1f9f4"/><path d="M103.05,229.09c-.77,0-1.55,0-2.31,0s-2-.26-1.81-1.26,1.24-.77,1.87-.53c1.32.5,2.5,0,3.75-.09.83-.08,2-.27,2.2.76.21,1.38-1.21,1.07-2.15,1.16-.51,0-1,0-1.55,0Z" transform="translate(-12.31 -2.44)" fill="#f1f9f4"/><path d="M96.29,202.55a11.24,11.24,0,0,1,2.6,4.67c-2.7,1.59-3.56-1.24-5.42-1.72-.66-.18-.12-1.21.79-1.34C95.42,204,96.16,203.59,96.29,202.55Z" transform="translate(-12.31 -2.44)" fill="#f1f9f4"/><path d="M67.08,16.32c.86,0,1.88.33,1.51.75-1.1,1.25-2,2.83-4.13,3.09-.83.1-1.7-.21-1.48-1.06C63.47,17.21,65.39,16.75,67.08,16.32Z" transform="translate(-12.31 -2.44)" fill="#f1f9f4"/><path d="M196.75,142.86c1.1,2.57-1.26,4.07-2.55,5.91-1.1-.09-2.6.12-2.87-1-.32-1.36,1.36-.9,2.15-1.15C195.59,145.94,195.16,143.77,196.75,142.86Z" transform="translate(-12.31 -2.44)" fill="#f1f9f4"/><path d="M169.25,19.61c2.51.74,4.8,1.05,4.19,3.61a2.36,2.36,0,0,1-1.6,1.26c-1.14.26-1.18-.66-1.1-1.26C170.89,22,169.66,21.29,169.25,19.61Z" transform="translate(-12.31 -2.44)" fill="#f1f9f4"/><path d="M187.93,32.84c1.63.2,1.34,1.3,1.37,2.24s-.53,1.7-1.83,1.52-1.21-1.2-1.22-2.05S186.48,32.82,187.93,32.84Z" transform="translate(-12.31 -2.44)" fill="#f1f9f4"/><path d="M40.18,150.23a2.63,2.63,0,0,1-1.66-2.61c1.31-.87,1.16-2.35,2-3.43C42.68,146.29,42.19,148.29,40.18,150.23Z" transform="translate(-12.31 -2.44)" fill="#f1f9f4"/><path d="M189,165.86c-.75-2.65-2.38-5.11-2.48-7.91C189.43,160.33,190.51,163.76,189,165.86Z" transform="translate(-12.31 -2.44)" fill="#f1f9f4"/><path d="M38.09,175.59c1.17.23,1.62-.48,2.09-1.16,3.12.55.67,2.17.84,3.28.08.54-.3,1.24-1.06,1A2.4,2.4,0,0,1,38.09,175.59Z" transform="translate(-12.31 -2.44)" fill="#f1f9f4"/><path d="M28.84,156.56a16.07,16.07,0,0,1,3.07,6.55C29,161.59,27.71,158.9,28.84,156.56Z" transform="translate(-12.31 -2.44)" fill="#f1f9f4"/><path d="M170.1,200.55c1.93-2.59,5.5-2.63,8.3-3.87C177.15,200.31,173,199.48,170.1,200.55Z" transform="translate(-12.31 -2.44)" fill="#f1f9f4"/><path d="M65.46,204.71c1.12.14,2.5-.25,2.56,1.06.06,1.06-.82,1.72-2,1.23-1-.41-3.06.26-2.93-1.42C63.17,204.37,64.73,205,65.46,204.71Z" transform="translate(-12.31 -2.44)" fill="#f1f9f4"/><path d="M36.66,60.52a11.07,11.07,0,0,1-2.47,4.62,6.31,6.31,0,0,0-.49-1.85c-.63-1-1.73-1.74-.25-3S35.57,60.87,36.66,60.52Z" transform="translate(-12.31 -2.44)" fill="#f1f9f4"/><path d="M22.69,131.87c.91,1.83.5,3.78.66,5.68a8.71,8.71,0,0,0-1-.87C19.42,134.9,18.76,133.26,22.69,131.87Z" transform="translate(-12.31 -2.44)" fill="#f1f9f4"/><path d="M27.19,152a5.37,5.37,0,0,1,1.3,3.32c-4.43.24-2.68-3.22-4.54-4.87C25.89,150.32,25.58,152.4,27.19,152Z" transform="translate(-12.31 -2.44)" fill="#f1f9f4"/><path d="M15.47,143c2.55,2.09,2.66,3.6,1.84,5.21a1.29,1.29,0,0,1-1,0C14.73,146.88,15.68,145.36,15.47,143Z" transform="translate(-12.31 -2.44)" fill="#f1f9f4"/><path d="M152.38,217.54c.91-.85,1.49-2.15,3-2.6.55-.17,1.42.66,1.07,1-.9.83-.2,2.71-2.38,2.64C153.31,218.54,152.44,218.64,152.38,217.54Z" transform="translate(-12.31 -2.44)" fill="#f1f9f4"/><path d="M24.84,144.08a2.56,2.56,0,0,1,.8,2.63c-1,.58-2.22,2.32-3.32.67S23.59,145,24.84,144.08Z" transform="translate(-12.31 -2.44)" fill="#f1f9f4"/><path d="M186.11,155.35c-1-3-.14-5.7,1.54-8.32A13.64,13.64,0,0,1,186.11,155.35Z" transform="translate(-12.31 -2.44)" fill="#f1f9f4"/><path d="M124.11,219.87a6.31,6.31,0,0,1,4.68-1.15c.56,3.33.32,3.62-1.36,2.54C126.35,220.58,124.84,220.92,124.11,219.87Z" transform="translate(-12.31 -2.44)" fill="#f1f9f4"/><path d="M336,99.69l-1.79,0a1.94,1.94,0,0,1-.07-.62c.22-1,.32-2.15,1.52-2.77.21-.11.87,0,.92.16C337.08,97.64,337.25,98.77,336,99.69Z" transform="translate(-12.31 -2.44)" fill="#62b829"/><path d="M22.18,77.82c1,1.76,3.36,1.83,2.73,3.68-.22.64-1.29.81-2,.44C21.2,81.09,21.59,79.86,22.18,77.82Z" transform="translate(-12.31 -2.44)" fill="#f1f9f4"/><path d="M162.34,206.07a11.59,11.59,0,0,1,5.17-4.16C166.31,203.77,166.52,206.89,162.34,206.07Z" transform="translate(-12.31 -2.44)" fill="#f1f9f4"/><path d="M210.91,97.34a25.7,25.7,0,0,1-1.64-8.58C210.83,91.48,211.73,94.29,210.91,97.34Z" transform="translate(-12.31 -2.44)" fill="#f1f9f4"/><path d="M187,188.24q1-2.62,1.94-5.27c1.11,0,2.51.39,1.71,1.42C189.56,185.74,189.46,187.87,187,188.24Z" transform="translate(-12.31 -2.44)" fill="#f1f9f4"/><path d="M33.77,183.57c-.79-.12-1.26-.47-1.1-1.09a2.62,2.62,0,0,1,2.55-2c.7,0,1.18.43,1,1.05A2.79,2.79,0,0,1,33.77,183.57Z" transform="translate(-12.31 -2.44)" fill="#f1f9f4"/><path d="M160.7,212.72c1.2.07,1.47.73,1.36,1.59a1.37,1.37,0,0,1-1.37,1.35c-1.15.05-1.5-.71-1.57-1.52S159.53,212.69,160.7,212.72Z" transform="translate(-12.31 -2.44)" fill="#f1f9f4"/><path d="M182.62,193.38a11,11,0,0,1,4.35-5.15C186.69,190.66,186.28,193,182.62,193.38Z" transform="translate(-12.31 -2.44)" fill="#f1f9f4"/><path d="M56.58,208c-1.86.07-3.25-.51-3.72-2.14-.18-.62.36-1.13,1.06-1,2,.3,2.28,1.79,2.66,3.16Z" transform="translate(-12.31 -2.44)" fill="#f1f9f4"/><path d="M194.7,188.8c.83,3,.67,3.19-3.19,4.53Z" transform="translate(-12.31 -2.44)" fill="#f1f9f4"/><path d="M56.58,208H57c1.3.1,3-.29,3.18,1.42.07.69-.73,1.14-1.55,1.11-1.91-.09-2-1.3-2-2.53Z" transform="translate(-12.31 -2.44)" fill="#f1f9f4"/><path d="M512.52,144.78a3.3,3.3,0,0,1,5-.06Z" transform="translate(-12.31 -2.44)" fill="#62b829"/><path d="M18.46,154.39A1.76,1.76,0,0,1,17,152.31c0-.66.1-1.42,1.09-1.42,1.26,0,1.18.92,1.19,1.66S19.5,154.07,18.46,154.39Z" transform="translate(-12.31 -2.44)" fill="#f1f9f4"/><path d="M220.37,114.26c.94,1.47,1.07,2.93,0,5A4.59,4.59,0,0,1,220.37,114.26Z" transform="translate(-12.31 -2.44)" fill="#f1f9f4"/><path d="M94.74,198.72a2.26,2.26,0,0,1,.8,2c-1,.38-2,1.07-3.17.33-.68-.44-1.72-.94-1.2-1.77s1.25-.35,1.88.14C94.29,200.41,94.44,199.42,94.74,198.72Z" transform="translate(-12.31 -2.44)" fill="#f1f9f4"/><path d="M92.35,193.46A3.18,3.18,0,0,1,93.59,196a6,6,0,0,1-1.9,0c-1-.32-2.09-1-2-1.81C89.94,193.09,91.42,193.64,92.35,193.46Z" transform="translate(-12.31 -2.44)" fill="#f1f9f4"/><path d="M159.89,219.26c-1.67.64-2.76,1.71-4.31.81-.37-.22-.28-1-.41-1.5C156.58,218.72,158.12,218.25,159.89,219.26Z" transform="translate(-12.31 -2.44)" fill="#f1f9f4"/><path d="M195.56,171.13v1.32c-2.06.25-2.8-1.43-4.67-1.79C193.19,168.84,194.05,171.25,195.56,171.13Z" transform="translate(-12.31 -2.44)" fill="#f1f9f4"/><path d="M194.48,98.55l1.67-4c1.47,1.48,1,2.82.83,4.11Z" transform="translate(-12.31 -2.44)" fill="#f1f9f4"/><path d="M31.14,71.65c0,1,.12,2.1-1.17,2.74-1.22-.13-2-.29-1.62-1.75C28.82,70.92,30,71.6,31.14,71.65Z" transform="translate(-12.31 -2.44)" fill="#f1f9f4"/><path d="M104.05,214.38c1,.8,2.14,1.54,2.31,2.84-1.66-1-2.21.85-3.5,1.12C102.41,216.74,104.14,215.75,104.05,214.38Z" transform="translate(-12.31 -2.44)" fill="#f1f9f4"/><path d="M32.57,53c-1.34.06-1.55-.55-1.56-1.24s-.24-1.43.82-1.53,1.24.59,1.38,1.26A1.29,1.29,0,0,1,32.57,53Z" transform="translate(-12.31 -2.44)" fill="#f1f9f4"/><path d="M28.6,58.71c-.75-1.15-1.25-2.27,0-3.27a1.26,1.26,0,0,1,1,.06C30.15,56.7,29.31,57.69,28.6,58.71Z" transform="translate(-12.31 -2.44)" fill="#f1f9f4"/><path d="M91.2,207.23c-2.12-1.52-2.33-3.7-2.79-5.79C91.52,202.61,91,205.07,91.2,207.23Z" transform="translate(-12.31 -2.44)" fill="#f1f9f4"/><path d="M138.4,227.71c-.8-.12-1.59-.39-1.47-1.18s1.13-.66,1.84-.68,1.41.15,1.31.82S139.26,227.71,138.4,227.71Z" transform="translate(-12.31 -2.44)" fill="#f1f9f4"/><path d="M218.83,143.53c-.08.82.06,1.67-1,1.58a1.25,1.25,0,0,1-1.17-1.44,1.23,1.23,0,0,1,1.06-1.2C218.9,142.27,218.6,143.19,218.83,143.53Z" transform="translate(-12.31 -2.44)" fill="#f1f9f4"/><path d="M43.8,135.42a5.52,5.52,0,0,1,.38,4.08C41.65,138.3,42.05,136.91,43.8,135.42Z" transform="translate(-12.31 -2.44)" fill="#f1f9f4"/><path d="M69.89,146.66c.7,1.89,2.64,3.51,1.78,5.75A5.71,5.71,0,0,1,69.89,146.66Z" transform="translate(-12.31 -2.44)" fill="#f1f9f4"/><path d="M39.19,122.28c-1.29-1.07-1.63-2.21-.49-3.82C39.92,119.85,39.33,121.09,39.19,122.28Z" transform="translate(-12.31 -2.44)" fill="#f1f9f4"/><path d="M193.73,150l-.93,3.85a6.09,6.09,0,0,0-.78-1.74C190,149.89,192,150.08,193.73,150Z" transform="translate(-12.31 -2.44)" fill="#f1f9f4"/><path d="M507.55,148.29l1.37.69a.93.93,0,0,1-1.51.76C507,149.49,506.26,148.69,507.55,148.29Z" transform="translate(-12.31 -2.44)" fill="#62b829"/><path d="M75,22.38c-.68,1.37-2.22,1.78-3.63,2.33C71,22.2,72.68,22,75,22.38Z" transform="translate(-12.31 -2.44)" fill="#f1f9f4"/><path d="M70.55,155.32c-1.27-.12-2.26-.52-2.15-1.8a.84.84,0,0,1,1.08-.68c1.6.39.89,1.59,1.08,2.47Z" transform="translate(-12.31 -2.44)" fill="#f1f9f4"/><path d="M147.56,215c1.17-1.61,3.15-1.7,5.05-1.94C152,215.64,149.52,214.86,147.56,215Z" transform="translate(-12.31 -2.44)" fill="#f1f9f4"/><path d="M63.77,212.14c.81-.08,1.19.32,1.26.91s.12,1.16-.74,1.26a1.19,1.19,0,0,1-1.31-.95C62.81,212.81,63,212.3,63.77,212.14Z" transform="translate(-12.31 -2.44)" fill="#f1f9f4"/><path d="M114.64,225.87a1.08,1.08,0,0,1-1.2,1.2c-.64,0-1.36,0-1.36-.73s.56-.92,1.22-1A1.21,1.21,0,0,1,114.64,225.87Z" transform="translate(-12.31 -2.44)" fill="#f1f9f4"/><path d="M192.48,135.53c-1-1.23-1.07-2.07-.06-3.11C193.43,133.38,193.42,134.23,192.48,135.53Z" transform="translate(-12.31 -2.44)" fill="#f1f9f4"/><path d="M58.77,201.71c.81.13.88.66.84,1.2s-.18.9-.82.87a1.06,1.06,0,0,1-1.17-1C57.61,202.16,58.1,201.85,58.77,201.71Z" transform="translate(-12.31 -2.44)" fill="#f1f9f4"/><path d="M78.34,167.49c0,.44,0,.88,0,1.32,0,.66-.07,1.38-1.08,1.49a1.22,1.22,0,0,1-.93-.4c-.44-.77.17-1.19.86-1.57a12.14,12.14,0,0,0,1.18-.85Z" transform="translate(-12.31 -2.44)" fill="#f1f9f4"/><path d="M72.08,169.87a3.84,3.84,0,0,1-1.84-2.6C73.72,166.67,73.38,168,72.08,169.87Z" transform="translate(-12.31 -2.44)" fill="#f1f9f4"/><path d="M37.69,188.25a1.12,1.12,0,0,1-1.23,1c-.86-.07-.79-.72-.77-1.23a.76.76,0,0,1,.88-.82A1.14,1.14,0,0,1,37.69,188.25Z" transform="translate(-12.31 -2.44)" fill="#f1f9f4"/><path d="M189.36,140.82a5.25,5.25,0,0,1,0-3.3C191.75,138.65,191.78,139.75,189.36,140.82Z" transform="translate(-12.31 -2.44)" fill="#f1f9f4"/><path d="M69.78,217.26c-1.27-.12-2.29-.5-2.15-1.79a1,1,0,0,1,.74-.55c1.54.28,1.35,1.37,1.41,2.34Z" transform="translate(-12.31 -2.44)" fill="#f1f9f4"/><path d="M29.6,75.59a11.39,11.39,0,0,1-1.74,4.6C28.12,78.57,26.54,76.45,29.6,75.59Z" transform="translate(-12.31 -2.44)" fill="#f1f9f4"/><path d="M23.7,68.38a1.08,1.08,0,0,1-1.21,1c-.87-.06-.79-.72-.78-1.23a.77.77,0,0,1,.88-.82A1.1,1.1,0,0,1,23.7,68.38Z" transform="translate(-12.31 -2.44)" fill="#f1f9f4"/><path d="M187.69,146.75a7.25,7.25,0,0,1,1.45-3.36C191,145.23,189.73,146.11,187.69,146.75Z" transform="translate(-12.31 -2.44)" fill="#f1f9f4"/><path d="M139.17,208a8.68,8.68,0,0,1,1.9-3.67C140.82,205.74,142.45,207.8,139.17,208Z" transform="translate(-12.31 -2.44)" fill="#f1f9f4"/><path d="M189.46,192.49a1.35,1.35,0,0,1,1.27,1c.13.44.05.94-.58,1-.82.07-.93-.62-1.19-1.08S188.77,192.61,189.46,192.49Z" transform="translate(-12.31 -2.44)" fill="#f1f9f4"/><path d="M34.23,65.13a4.58,4.58,0,0,1-1.64,3.33C32.88,67.26,31.4,65.43,34.23,65.13Z" transform="translate(-12.31 -2.44)" fill="#f1f9f4"/><path d="M232.8,107.44a4,4,0,0,1,3.11-.06C234.92,109.16,233.89,109.14,232.8,107.44Z" transform="translate(-12.31 -2.44)" fill="#f1f9f4"/><path d="M172.75,205.71a3,3,0,0,1-.92.69c-.53.16-1-.1-1-.64a.82.82,0,0,1,.83-.89C172.2,204.84,172.69,204.92,172.75,205.71Z" transform="translate(-12.31 -2.44)" fill="#f1f9f4"/><path d="M43.83,187.72a1,1,0,0,1-1.26.35c-.5-.21-.75-.59-.54-1a.77.77,0,0,1,1.18-.35C43.63,186.91,44,187.21,43.83,187.72Z" transform="translate(-12.31 -2.44)" fill="#f1f9f4"/><path d="M145.39,205.75c.36,1.05-.21,1.58-1,2-.08,0-.67-.34-.69-.55C143.58,206.13,144.53,206.05,145.39,205.75Z" transform="translate(-12.31 -2.44)" fill="#f1f9f4"/><path d="M37.8,137.57c-.72-1.24-1.16-2.48-.09-3.75C37.66,135.07,39.72,136.28,37.8,137.57Z" transform="translate(-12.31 -2.44)" fill="#f1f9f4"/><path d="M94.73,225.87c.46.11,1.17.12.93.71-.11.25-.77.45-1.2.48s-1.13-.08-1-.69S94.21,225.85,94.73,225.87Z" transform="translate(-12.31 -2.44)" fill="#f1f9f4"/><path d="M40.12,173.16a4.12,4.12,0,0,1-.43-3.31C40.41,170.9,42,171.87,40.12,173.16Z" transform="translate(-12.31 -2.44)" fill="#f1f9f4"/><path d="M21.66,93.29c-.19.59-.2,1.19-.89,1-.3-.08-.53-.64-.56-1s.1-1,.79-.79C21.33,92.57,21.5,93.08,21.66,93.29Z" transform="translate(-12.31 -2.44)" fill="#f1f9f4"/><path d="M85,216.84c.22.23.68.52.77.87s-.34.76-.9.74a.89.89,0,0,1-1-.8C83.87,217.18,84.17,216.87,85,216.84Z" transform="translate(-12.31 -2.44)" fill="#f1f9f4"/><path d="M48.17,162.57a3.14,3.14,0,0,1-1.26,2.1c-.71-.28-1.28-.7-.95-1.42C46.36,162.37,47.36,162.63,48.17,162.57Z" transform="translate(-12.31 -2.44)" fill="#f1f9f4"/><path d="M98.37,7.06c-.43.24-.68.49-1,.52-.51,0-1-.17-.83-.69.06-.18.57-.36.86-.35S98,6.82,98.37,7.06Z" transform="translate(-12.31 -2.44)" fill="#f1f9f4"/><path d="M158.28,12.55c-.24.31-.39.69-.62.74-.65.14-.83-.32-.77-.73a.88.88,0,0,1,.63-.55C157.75,12,158,12.33,158.28,12.55Z" transform="translate(-12.31 -2.44)" fill="#f1f9f4"/><path d="M96.73,14.52a2.67,2.67,0,0,1-2.88,1.06C94.17,14,95.49,14.32,96.73,14.52Z" transform="translate(-12.31 -2.44)" fill="#f1f9f4"/><path d="M139.56,15.91c-1.15,0-2.28,0-3.05-.89C138.12,13.86,138.84,14.88,139.56,15.91Z" transform="translate(-12.31 -2.44)" fill="#f1f9f4"/><path d="M32.66,164.8a3.42,3.42,0,0,1,1.52,3C32.46,167.27,32.42,166.09,32.66,164.8Z" transform="translate(-12.31 -2.44)" fill="#f1f9f4"/><path d="M215,97.19c-.3-.3-.64-.49-.67-.71s.13-.69.34-.76a.61.61,0,0,1,.88.62C215.57,96.58,215.29,96.81,215,97.19Z" transform="translate(-12.31 -2.44)" fill="#f1f9f4"/><path d="M24.74,75.43c-.31.18-.61.49-.81.45a.87.87,0,0,1-.57-.61.61.61,0,0,1,.85-.66C24.43,74.67,24.53,75.08,24.74,75.43Z" transform="translate(-12.31 -2.44)" fill="#f1f9f4"/><path d="M83.14,212.89c1.18.09,2.3.26,2.84,1.33C84.44,214.7,83.07,214.91,83.14,212.89Z" transform="translate(-12.31 -2.44)" fill="#f1f9f4"/><path d="M113.45,223.11a2.9,2.9,0,0,1-.93.39c-.66,0-.77-.43-.62-.83.07-.21.46-.33.71-.49Z" transform="translate(-12.31 -2.44)" fill="#f1f9f4"/><path d="M27.09,77.13c-.25.3-.39.68-.63.74-.65.13-.83-.32-.76-.73a.86.86,0,0,1,.62-.55C26.55,76.58,26.79,76.91,27.09,77.13Z" transform="translate(-12.31 -2.44)" fill="#f1f9f4"/><path d="M49.19,156.52a1.66,1.66,0,0,1,0,2.2C47.76,158,47.75,157.27,49.19,156.52Z" transform="translate(-12.31 -2.44)" fill="#f1f9f4"/><path d="M137.87,210.61a1.6,1.6,0,0,1,.9-1.42c.38.92,1.57,1.82.1,2.8h0A1.34,1.34,0,0,0,137.87,210.61Z" transform="translate(-12.31 -2.44)" fill="#f1f9f4"/><path d="M78.37,210.4a3.23,3.23,0,0,1,2.69,1.47C79.68,212,78.34,212.1,78.37,210.4Z" transform="translate(-12.31 -2.44)" fill="#f1f9f4"/><path d="M34.74,57.13c-.17-.5-.4-.82-.3-1s.54-.31.82-.47c.09.2.31.42.25.57A4.42,4.42,0,0,1,34.74,57.13Z" transform="translate(-12.31 -2.44)" fill="#f1f9f4"/><path d="M131.12,218.63l2.21-.79C133.21,219.33,132.48,219.61,131.12,218.63Z" transform="translate(-12.31 -2.44)" fill="#f1f9f4"/><path d="M21.5,115.14c0,1.09,0,2.17,0,3.25A2.19,2.19,0,0,1,21.5,115.14Z" transform="translate(-12.31 -2.44)" fill="#f1f9f4"/><path d="M152.62,213.09a2.79,2.79,0,0,1,2.43-1.4C155.17,213.31,154.06,213.41,152.62,213.09Z" transform="translate(-12.31 -2.44)" fill="#f1f9f4"/><path d="M39.57,166.5c-.2-1.16-.46-2.33.7-3.28C40.14,164.33,40.75,165.55,39.57,166.5Z" transform="translate(-12.31 -2.44)" fill="#f1f9f4"/><path d="M81.57,171.73c.61.32,1.12.7,1.07,1.39a4.36,4.36,0,0,1-1.61-.47C80.67,172.34,81.13,171.94,81.57,171.73Z" transform="translate(-12.31 -2.44)" fill="#f1f9f4"/><path d="M93.47,196.31a2.29,2.29,0,0,1,1.31,2.44C93.33,198.33,92.88,197.52,93.47,196.31Z" transform="translate(-12.31 -2.44)" fill="#f1f9f4"/><path d="M77.39,171V174C76.5,173.15,76.7,172.49,77.39,171Z" transform="translate(-12.31 -2.44)" fill="#f1f9f4"/><path d="M101.71,13.84a1.48,1.48,0,0,1-1.66.46C100.27,13.27,100.64,12.63,101.71,13.84Z" transform="translate(-12.31 -2.44)" fill="#f1f9f4"/><path d="M71,15.44c-.09.18-.14.46-.3.51s-.41-.13-.62-.2c.1-.18.14-.46.3-.52S70.82,15.36,71,15.44Z" transform="translate(-12.31 -2.44)" fill="#f1f9f4"/><path d="M144.28,17.13a1.6,1.6,0,0,1-1.61-.68C144.1,15.15,144.12,16.24,144.28,17.13Z" transform="translate(-12.31 -2.44)" fill="#f1f9f4"/><path d="M187.48,123.68c.33.86-.11,1.41-.95,1.83C186.19,124.66,186.24,124,187.48,123.68Z" transform="translate(-12.31 -2.44)" fill="#f1f9f4"/><path d="M193.2,49.22c.08-.42.08-.91.74-1,.13,0,.45.25.43.37-.08.55-.65.56-1.15.62Z" transform="translate(-12.31 -2.44)" fill="#f1f9f4"/><path d="M85,224c-.22.07-.49.24-.64.18s-.18-.34-.26-.52c.21-.07.48-.24.63-.19S84.92,223.84,85,224Z" transform="translate(-12.31 -2.44)" fill="#f1f9f4"/><path d="M231.35,52.73l-1.4,1c-.11-.5-.34-1.06.27-1.42S231.06,52.4,231.35,52.73Z" transform="translate(-12.31 -2.44)" fill="#f1f9f4"/><path d="M37.48,53.35c.09-.18.14-.46.29-.51s.41.13.62.21c-.09.18-.13.46-.29.51S37.69,53.43,37.48,53.35Z" transform="translate(-12.31 -2.44)" fill="#f1f9f4"/><path d="M24.46,63.9c-.22.07-.49.24-.64.19s-.18-.34-.27-.53c.22-.07.49-.24.64-.18S24.37,63.72,24.46,63.9Z" transform="translate(-12.31 -2.44)" fill="#f1f9f4"/><path d="M74.19,172.54a1.18,1.18,0,0,1-.86-1.36c.56,0,1.22-.1,1.5.47S74.57,172.32,74.19,172.54Z" transform="translate(-12.31 -2.44)" fill="#f1f9f4"/><path d="M84.22,191.66a1.38,1.38,0,0,1-.72-1.4c.56,0,1.21,0,1.44.55S84.6,191.46,84.22,191.66Z" transform="translate(-12.31 -2.44)" fill="#f1f9f4"/><path d="M520.88,148.21c.52.17.76.45.43.91C520.57,149,520.52,148.68,520.88,148.21Z" transform="translate(-12.31 -2.44)" fill="#62b829"/><path d="M47.09,171.13c0,.44,0,.88,0,1.32-.5,0-1.07-.12-1.09-.64S46.59,171.19,47.09,171.13Z" transform="translate(-12.31 -2.44)" fill="#f1f9f4"/><path d="M186.1,127a1.56,1.56,0,0,1-1,1.86C184.6,127.89,184.76,127.2,186.1,127Z" transform="translate(-12.31 -2.44)" fill="#f1f9f4"/><path d="M252.1,59.14a1.2,1.2,0,0,1-.69-1.35C252.46,57.94,253.41,58.12,252.1,59.14Z" transform="translate(-12.31 -2.44)" fill="#f1f9f4"/><path d="M205.16,170.65c.09-.18.14-.46.29-.51s.41.12.63.2c-.1.18-.14.46-.3.52S205.37,170.73,205.16,170.65Z" transform="translate(-12.31 -2.44)" fill="#f1f9f4"/><path d="M54.56,200.3c.09-.18.14-.46.29-.51s.41.13.62.21c-.09.18-.14.46-.29.51S54.77,200.38,54.56,200.3Z" transform="translate(-12.31 -2.44)" fill="#f1f9f4"/><path d="M57.48,197.18c.94.13,1.84.3,2.13,1.24C58.16,198.93,57.45,198.51,57.48,197.18Z" transform="translate(-12.31 -2.44)" fill="#f1f9f4"/><path d="M18.33,124l.64.23c-.09.18-.14.46-.29.51s-.41-.12-.62-.2Z" transform="translate(-12.31 -2.44)" fill="#f1f9f4"/><path d="M39.7,132c-.22-.08-.55-.12-.61-.25s.15-.35.24-.53c.22.08.55.12.61.25S39.79,131.83,39.7,132Z" transform="translate(-12.31 -2.44)" fill="#f1f9f4"/><path d="M193,112.11l.64.23c-.09.18-.14.46-.29.51s-.41-.13-.62-.2Z" transform="translate(-12.31 -2.44)" fill="#f1f9f4"/><path d="M22.9,101.27a1,1,0,0,1-.3,1.38C21.37,102,21.73,101.56,22.9,101.27Z" transform="translate(-12.31 -2.44)" fill="#f1f9f4"/><path d="M159.52,209.31a1.88,1.88,0,0,1,1.71-1.66C161.41,208.76,160.88,209.34,159.52,209.31Z" transform="translate(-12.31 -2.44)" fill="#f1f9f4"/><path d="M76.12,209a2.21,2.21,0,0,1,2,1.39C76.75,210.73,76,210.31,76.12,209Z" transform="translate(-12.31 -2.44)" fill="#f1f9f4"/><path d="M99.54,209.2c-.29.41-.22,1.05-1,1.11-.12,0-.41-.23-.39-.34.07-.66.83-.6,1.31-.83Z" transform="translate(-12.31 -2.44)" fill="#f1f9f4"/><path d="M146,210a1.6,1.6,0,0,1-1.31,1.86C144.21,210.81,144.55,210.14,146,210Z" transform="translate(-12.31 -2.44)" fill="#f1f9f4"/><path d="M31.27,177.24c.09-.18.14-.46.29-.51s.41.12.62.2c-.09.18-.14.46-.29.51S31.48,177.32,31.27,177.24Z" transform="translate(-12.31 -2.44)" fill="#f1f9f4"/><path d="M91.53,215.79a2,2,0,0,1,2.19,1.13C92.41,217.36,91.66,217,91.53,215.79Z" transform="translate(-12.31 -2.44)" fill="#f1f9f4"/><path d="M72.12,153.16a2,2,0,0,1,.92,2.19C71.94,154.86,72.12,154,72.12,153.16Z" transform="translate(-12.31 -2.44)" fill="#f1f9f4"/><path d="M38.57,147.52c-.76-.61-.51-1.32-.29-2A1.9,1.9,0,0,1,38.57,147.52Z" transform="translate(-12.31 -2.44)" fill="#f1f9f4"/><path d="M196,164.65a1.86,1.86,0,0,1-.3,2.26C195.59,166.14,195.32,165.35,196,164.65Z" transform="translate(-12.31 -2.44)" fill="#f1f9f4"/><path d="M152.08,19.48l-.92-.32.46-.46Z" transform="translate(-12.31 -2.44)" fill="#f1f9f4"/><path d="M83.56,190a1.76,1.76,0,0,1-.92-1.81A1.35,1.35,0,0,1,83.56,190Z" transform="translate(-12.31 -2.44)" fill="#f1f9f4"/><path d="M193.06,50.67A1.38,1.38,0,0,1,192,49.4l1.25-.18h0C193.17,49.71,193.11,50.19,193.06,50.67Z" transform="translate(-12.31 -2.44)" fill="#f1f9f4"/><path d="M69,165.94a1,1,0,0,1-.75-1.4A1.28,1.28,0,0,1,69,165.94Z" transform="translate(-12.31 -2.44)" fill="#f1f9f4"/><path d="M26.37,149.3a1.12,1.12,0,0,1,.58,1.38A1.23,1.23,0,0,1,26.37,149.3Z" transform="translate(-12.31 -2.44)" fill="#f1f9f4"/><path d="M100.91,210.64l.61.69-1-.24Z" transform="translate(-12.31 -2.44)" fill="#f1f9f4"/><path d="M87.5,199.12a1.52,1.52,0,0,1-.64-1.63A1.32,1.32,0,0,1,87.5,199.12Z" transform="translate(-12.31 -2.44)" fill="#f1f9f4"/><path d="M36.61,58.05c0,.08-.07.22-.1.22a.47.47,0,0,1-.31-.09s0-.15.09-.23Z" transform="translate(-12.31 -2.44)" fill="#f1f9f4"/><path d="M23.88,94.72a1.33,1.33,0,0,1-.57,1.52A1.26,1.26,0,0,1,23.88,94.72Z" transform="translate(-12.31 -2.44)" fill="#f1f9f4"/><path d="M31.87,163.11a1.26,1.26,0,0,1,.79,1.46A1.14,1.14,0,0,1,31.87,163.11Z" transform="translate(-12.31 -2.44)" fill="#f1f9f4"/><path d="M106.33,217.19a1.26,1.26,0,0,1,.93,1.3C106.41,218.34,106.28,217.81,106.33,217.19Z" transform="translate(-12.31 -2.44)" fill="#f1f9f4"/><path d="M79.74,182.67a1.6,1.6,0,0,1-.88-1.7A1.34,1.34,0,0,1,79.74,182.67Z" transform="translate(-12.31 -2.44)" fill="#f1f9f4"/><path d="M83,173.76a1.24,1.24,0,0,1,.82,1.33A1.23,1.23,0,0,1,83,173.76Z" transform="translate(-12.31 -2.44)" fill="#f1f9f4"/><path d="M194.55,52.33a.92.92,0,0,1-.74-1A.88.88,0,0,1,194.55,52.33Z" transform="translate(-12.31 -2.44)" fill="#f1f9f4"/><path d="M32.39,69l-.53,1Z" transform="translate(-12.31 -2.44)" fill="#f1f9f4"/><path d="M25.66,147.7l.44,1Z" transform="translate(-12.31 -2.44)" fill="#f1f9f4"/><path d="M46.63,149a1.11,1.11,0,0,1,.76,1.11A1.11,1.11,0,0,1,46.63,149Z" transform="translate(-12.31 -2.44)" fill="#f1f9f4"/><path d="M147.25,207.41l-.5,1Z" transform="translate(-12.31 -2.44)" fill="#f1f9f4"/><path d="M41.73,153.55c-.14-.27-.27-.55-.41-.83C41.46,153,41.59,153.28,41.73,153.55Z" transform="translate(-12.31 -2.44)" fill="#f1f9f4"/><path d="M42.47,155.44a3.74,3.74,0,0,1-.36-.45c0-.05.09-.16.13-.25C42.32,155,42.39,155.21,42.47,155.44Z" transform="translate(-12.31 -2.44)" fill="#f1f9f4"/><path d="M47.51,181v.69Q46.43,181.35,47.51,181Z" transform="translate(-12.31 -2.44)" fill="#f1f9f4"/><path d="M39,56.05c.63.5.34.88-.24,1.21Z" transform="translate(-12.31 -2.44)" fill="#f1f9f4"/><path d="M87,181.4l.56.91Z" transform="translate(-12.31 -2.44)" fill="#f1f9f4"/><path d="M87.74,182.74l.49.89Z" transform="translate(-12.31 -2.44)" fill="#f1f9f4"/><path d="M21.81,127.88a.79.79,0,0,1,.41,1C22.09,128.57,22,128.23,21.81,127.88Z" transform="translate(-12.31 -2.44)" fill="#f1f9f4"/><path d="M157,210.56a1.27,1.27,0,0,1,1.27-.66Z" transform="translate(-12.31 -2.44)" fill="#f1f9f4"/><path d="M21.54,113.15l0,.64a2.88,2.88,0,0,1-.24-.46S21.45,113.21,21.54,113.15Z" transform="translate(-12.31 -2.44)" fill="#f1f9f4"/><path d="M80,168.8l.72,1Z" transform="translate(-12.31 -2.44)" fill="#f1f9f4"/><path d="M94.48,212.81a.82.82,0,0,1-.74-.84Z" transform="translate(-12.31 -2.44)" fill="#f1f9f4"/><path d="M195.64,161.72a3.18,3.18,0,0,1,.37.47c0,.06-.08.18-.13.26Z" transform="translate(-12.31 -2.44)" fill="#f1f9f4"/><path d="M79.07,167.63a.88.88,0,0,1,.79.86Z" transform="translate(-12.31 -2.44)" fill="#f1f9f4"/><path d="M71.41,205.18l.85.84Z" transform="translate(-12.31 -2.44)" fill="#f1f9f4"/><path d="M39.69,168.47a.47.47,0,0,1,0-.61,2.3,2.3,0,0,1,.23.44S39.77,168.41,39.69,168.47Z" transform="translate(-12.31 -2.44)" fill="#f1f9f4"/><path d="M40.66,162.49l.36-.66Z" transform="translate(-12.31 -2.44)" fill="#f1f9f4"/><path d="M195.05,160.36a.66.66,0,0,1,.5.88Z" transform="translate(-12.31 -2.44)" fill="#f1f9f4"/><path d="M67.48,202l.81.73Z" transform="translate(-12.31 -2.44)" fill="#f1f9f4"/><path d="M154.45,20.43a1.32,1.32,0,0,1-1.33-.74A1.43,1.43,0,0,1,154.45,20.43Z" transform="translate(-12.31 -2.44)" fill="#f1f9f4"/><path d="M68.25,202.7l.82.7Z" transform="translate(-12.31 -2.44)" fill="#f1f9f4"/><path d="M24.42,92.11l-.29,1Z" transform="translate(-12.31 -2.44)" fill="#f1f9f4"/><path d="M67.29,161a.93.93,0,0,1-.6-1.08Z" transform="translate(-12.31 -2.44)" fill="#f1f9f4"/><path d="M197,107.22v.64a2.2,2.2,0,0,1-.23-.46S196.86,107.28,197,107.22Z" transform="translate(-12.31 -2.44)" fill="#f1f9f4"/><path d="M141.42,203.39l.45-.87Z" transform="translate(-12.31 -2.44)" fill="#f1f9f4"/><path d="M196.78,134.27a.39.39,0,0,1,0,.57,1.59,1.59,0,0,1-.16-.41S196.72,134.32,196.78,134.27Z" transform="translate(-12.31 -2.44)" fill="#f1f9f4"/><path d="M158.25,22.11l-1.15-.46Z" transform="translate(-12.31 -2.44)" fill="#f1f9f4"/><path d="M67.55,26.87l-.84.65Z" transform="translate(-12.31 -2.44)" fill="#f1f9f4"/><path d="M193.85,51.34c-.53,0-.79-.27-.81-.71C193.53,50.69,193.81,50.92,193.85,51.34Z" transform="translate(-12.31 -2.44)" fill="#f1f9f4"/><path d="M54.54,37.45l-1,.86A1,1,0,0,1,54.54,37.45Z" transform="translate(-12.31 -2.44)" fill="#f1f9f4"/><path d="M92.94,210.41l-.72-1.07Z" transform="translate(-12.31 -2.44)" fill="#f1f9f4"/><path d="M78.9,67.83c-.19-3.66,0-7.24,2.16-10.56.78-1.22.49-2.58.47-3.89a23.15,23.15,0,0,1,1.56-9.73,11.54,11.54,0,0,1,6.56-6.46c4.88-2.08,8.64-5.48,12.08-9.08a11.71,11.71,0,0,1,12.49-2.69,49.33,49.33,0,0,0,12.08,3.3,19.45,19.45,0,0,1,7.62,3c9.11,5.63,15.42,12.84,16.57,22.67.39,3.27,1,6.51,1.61,9.75.93,4.65-1,9.09-1.93,13.6C148.75,85,142.46,90.19,139,96.55c-1,1.8-3.24,3-5.47,4-4.25,2-8.6,3.84-12.47,6.49-4.49,3.08-10,2.72-15.22-1C98.33,100.64,91.16,95,84,89.29a5.92,5.92,0,0,1-2.16-3.41C81,79.84,78.83,74,78.9,67.83Zm65.53-.33c-.6-3.94-1.14-7.53-1.72-11.11-1.53-9.64-10.16-17.58-21.22-19.73A48.22,48.22,0,0,1,115,34.6a9.28,9.28,0,0,0-10,1.95A38.68,38.68,0,0,1,94.36,44.1,7.18,7.18,0,0,0,90,49c-1.13,5.58-2.18,11.18-3.09,16.8-.74,4.62,1.22,9.07,1.67,13.63A7.82,7.82,0,0,0,92,85.05c5.15,3.8,9.86,8,14.91,11.9,3.72,2.86,9.47,3.33,13.31,1a73,73,0,0,1,9.21-4.79,13,13,0,0,0,6.48-5.89,31.8,31.8,0,0,1,3.55-5.47C143.29,77.43,143,72.12,144.43,67.5Z" transform="translate(-12.31 -2.44)" fill="#f1f9f4"/><path d="M121,214.62c-4.64,0-4.67-3.83-6.59-6-.53-.61.52-1.78,1.93-1.89.07.42.07.91.73,1,.13,0,.44-.26.43-.37-.09-.56-.67-.55-1.16-.62.33-.79.66-1.59,1-2.39l1.24.24c.3.33.62.77,1.16.4s.3-1,.07-1.44a9.24,9.24,0,0,1,2-5.37l1-.35-.53-.41c.61-2.54,2-4.82,3.27-7.15,2-.23,1.73-1.32,1.31-2.48l-.18-.09v-.17l.66-.3-.55-.25a1.5,1.5,0,0,1,.71-1.48c2.38.36,5.13-.42,7,1.58-.12.4-.24.81-.37,1.21-1,.15-1.87.36-.68,1.33-.14.48-.27,1-.4,1.43-.84.32-3.31-1.68-2.35,1.18.72,2.11-.28,2.08-2.05,1.25-.44-.21-.74-1.09-1.46-.39-.41.4-.79,1.09-.27,1.48,1.7,1.29.67,3.45,2.22,4.74a2.64,2.64,0,0,1-.54,2.15c-3-.66-3.82,1.09-4.26,3-1.63-.6-.31-2.33-2-2.69-1.8,3.23-.88,5.62,2.73,7.26-.21.6-.41,1.21-.62,1.82-1-.2-1.2-1.63-2.48-1.12-1.1.43-1,1.41-1,2.28S121,213.76,121,214.62Z" transform="translate(-12.31 -2.44)" fill="#fbfbfb"/><path d="M62.79,136.21c-2.24.4-1.67,1.66-1,2.76a25.55,25.55,0,0,0,2.45,3.32c2,2.38,1.63,3.56-1.69,5.14a9.4,9.4,0,0,1-2.36-4.77c.38-1.15-.06-1.78-1.54-1.75l-4.45-5.66a1.18,1.18,0,0,0-1.18-.93H52.7c-.05-1-.66-1.43-1.83-1.31-2.44-1.69-3.15-4.25-4.49-6.49.16-1.58.18-3.21,1.66-4.6,1.66,1.1,1.87,2.69,2.22,4.09,1,3.83,1.71,4.11,5.44,1.67a33.69,33.69,0,0,1,7.74,7.9Zm-4.47-2.81c-.23-.52-.56-1.05-1.3-.84a1.27,1.27,0,0,0-.84.91c0,.73.75.71,1.36.71S58.46,134,58.32,133.4Zm.89,2.32c.22.08.48.26.63.21s.2-.33.29-.51c-.21-.08-.47-.26-.62-.21S59.31,135.54,59.21,135.72Z" transform="translate(-12.31 -2.44)" fill="#fbfbfb"/><path d="M139.87,156.46c1.29.15,2,.67,2.11,1.89.19,2.76,1.91,5.59.11,8.24-1.63,2.4-.12,2.56,2,2.63a.35.35,0,0,1-.09.49c-2.81.81-1.92,2.76-1.89,4.45l-1.05,2.24h-2.2c-.07-.42-.07-.91-.73-1-.13,0-.45.25-.43.36.09.56.66.56,1.16.62-.69,2.78-5.75,5.91-10.42,6.46.89-1.92,1.49-4,3.58-5.33,1.16,0,1.37-.62,1.34-1.41.59-2.8,3-4.93,3.88-7.61a1,1,0,0,0,.63-1.14c-.16-1.48.54-2.8,1.05-4.16l.5-1.1C139.15,160.2,138.91,158.3,139.87,156.46Z" transform="translate(-12.31 -2.44)" fill="#fbfbfb"/><path d="M138.87,176.4h2.2c-1.58,3.82-4.34,7.11-6.56,10.65-1.87-2-4.62-1.22-7-1.58.7-.77-1.31-2.24.94-2.61,4.67-.55,9.73-3.68,10.42-6.46Z" transform="translate(-12.31 -2.44)" fill="#f1f9f4"/><path d="M125.12,209.05c-3.61-1.64-4.53-4-2.73-7.26,1.65.36.33,2.09,2,2.69.44-2,1.29-3.71,4.26-3C127.75,204.07,127,206.75,125.12,209.05Z" transform="translate(-12.31 -2.44)" fill="#f1f9f4"/><path d="M129.15,199.28c-1.55-1.29-.52-3.45-2.22-4.74-.52-.39-.14-1.08.27-1.48.72-.7,1,.18,1.46.39,1.77.83,2.77.86,2.05-1.25-1-2.86,1.51-.86,2.35-1.18C131.78,193.78,131.19,196.78,129.15,199.28Z" transform="translate(-12.31 -2.44)" fill="#f1f9f4"/><path d="M121,214.62c0-.86,0-1.73,0-2.59s-.1-1.85,1-2.28c1.28-.51,1.53.92,2.48,1.12a11.47,11.47,0,0,1-2.44,5.3c-.12-.1-.23-.21-.34-.32a1.11,1.11,0,0,0-.7-1.23Z" transform="translate(-12.31 -2.44)" fill="#f1f9f4"/><path d="M142.12,174.16c0-1.69-.92-3.64,1.89-4.45A6.86,6.86,0,0,1,142.12,174.16Z" transform="translate(-12.31 -2.44)" fill="#f1f9f4"/><path d="M77,164.47c-.81,0-1.77.28-2.25-.54s.12-1.15.78-1.51A3.26,3.26,0,0,1,77,164.47Z" transform="translate(-12.31 -2.44)" fill="#fbfbfb"/><path d="M133.46,189.59c-1.19-1-.34-1.18.68-1.33A1.16,1.16,0,0,1,133.46,189.59Z" transform="translate(-12.31 -2.44)" fill="#f1f9f4"/><path d="M211.29,100.52c1.51.64,1.88,1.31.06,2Z" transform="translate(-12.31 -2.44)" fill="#fbfbfb"/><path d="M137.87,210.61a1.34,1.34,0,0,1,1,1.37l-1.42-.21Z" transform="translate(-12.31 -2.44)" fill="#fbfbfb"/><path d="M113,210.74c.53.06.91.17.26.6Z" transform="translate(-12.31 -2.44)" fill="#fbfbfb"/><path d="M62.79,136.21l.65-.64.37.61-1,0Z" transform="translate(-12.31 -2.44)" fill="#f1f9f4"/><path d="M62.79,136.21l1,0c.1.2.2.39.29.58Z" transform="translate(-12.31 -2.44)" fill="#fbfbfb"/><path d="M128.45,182.86c-2.25.37-.24,1.84-.94,2.61a1.5,1.5,0,0,0-.71,1.48.45.45,0,0,0-.11.55v.17l.19.1a2.5,2.5,0,0,0-1.32,2.47c-1.24,2.33-2.66,4.61-3.27,7.15-.43.14-.59.38-.45.76a9.17,9.17,0,0,0-2,5.38l-1.24,1-1.24-.24C111.59,193.19,105.88,182,100,170.94a176.08,176.08,0,0,1-8.27-19.48c-2.35-6.17-5.12-12.06-9.73-17.41-2.78-3.23-5.21-7-5-11.52.14-3-1.76-5.65-3-8.73,4.14,2.85,6.24,6.6,9.08,9.84,10.5,12,21,23.87,32.45,35.21,1.6,1.6,2.53,1.66,4.26.3,8.42-6.64,15.24-14.08,18.45-23.69,1.37-4.12,3.62-8,9.11-9.54,2.61-.71,3.34-3.07,5.18-4.49,1.47-1.13,2.31-2.82,4.45-4.09.24,3.29-1.1,5.89-2.37,8.39-4.63,9.08-8,18.57-13.17,27.47l-.72,1.37a2.06,2.06,0,0,0-.9,1.89c-1,1.84-.72,3.74-.43,5.65a.83.83,0,0,0-.51,1.1c-.51,1.36-1.21,2.68-1,4.16a.9.9,0,0,0-.64,1.14c-.91,2.68-3.29,4.81-3.88,7.61-.86.19-1.32.65-1.34,1.41C129.94,178.87,129.34,180.94,128.45,182.86Z" transform="translate(-12.31 -2.44)" fill="#62b829"/><path d="M119.59,216.29c.85,1.9,0,3-.33,4.14-.33-.11-.88-.14-1-.33C117.67,218.73,118.69,217.83,119.59,216.29Z" transform="translate(-12.31 -2.44)" fill="#fbfbfb"/><path d="M140.77,154.57l.72-1.37c.61.2,1.77.07,1.49.91S141.55,154.51,140.77,154.57Z" transform="translate(-12.31 -2.44)" fill="#fbfbfb"/><path d="M121,214.62a1.11,1.11,0,0,1,.7,1.23C121.1,215.6,121,215.12,121,214.62Z" transform="translate(-12.31 -2.44)" fill="#fbfbfb"/><path d="M58.62,140.91c1.48,0,1.92.6,1.54,1.75A2,2,0,0,1,58.62,140.91Z" transform="translate(-12.31 -2.44)" fill="#f1f9f4"/><path d="M50.87,133c1.17-.12,1.78.31,1.83,1.31C51.62,134.35,50.93,134,50.87,133Z" transform="translate(-12.31 -2.44)" fill="#f1f9f4"/><path d="M53,134.32a1.18,1.18,0,0,1,1.18.93Z" transform="translate(-12.31 -2.44)" fill="#f1f9f4"/><path d="M395.87,74c.2-.7.08-1.73,1.33-1.67,1,.06.79,1,1,1.58.95,3.29,1.93,6.58,2.87,9.87,1.24,4.38,1.23,4.38-4,4.41s-5.15,0-3.89-4.29" transform="translate(-12.31 -2.44)" fill="#f1f9f4"/><path d="M275,94.6c0,1.2,0,2.41,0,3.61-.09,2.2-1.69,3.42-4,3.82a3.9,3.9,0,0,1-4.66-2.65,11.36,11.36,0,0,1,.25-9c1.06-2.26,3.27-2.9,6-2.5S275,90,275.05,91.64c0,1,0,2,0,3Z" transform="translate(-12.31 -2.44)" fill="#f1f9f4"/><path d="M144.43,67.5c-1.45,4.62-1.14,9.93-5,14.33a31.8,31.8,0,0,0-3.55,5.47,13,13,0,0,1-6.48,5.89A73,73,0,0,0,120.21,98c-3.84,2.3-9.59,1.83-13.31-1-5.05-3.89-9.76-8.1-14.91-11.9a7.82,7.82,0,0,1-3.37-5.66c-.45-4.56-2.41-9-1.67-13.63.91-5.62,2-11.22,3.09-16.8a7.18,7.18,0,0,1,4.32-4.86A38.68,38.68,0,0,0,105,36.55a9.28,9.28,0,0,1,10-1.95,48.22,48.22,0,0,0,6.51,2.06c11.06,2.15,19.69,10.09,21.22,19.73C143.29,60,143.83,63.56,144.43,67.5Z" transform="translate(-12.31 -2.44)" fill="#fdcc06"/><path d="M125.55,190.24a2.5,2.5,0,0,1,1.32-2.47C127.28,188.92,127.54,190,125.55,190.24Z" transform="translate(-12.31 -2.44)" fill="#f1f9f4"/><path d="M118.6,204.56l1.24-1c.22.48.5,1-.08,1.43S118.9,204.89,118.6,204.56Z" transform="translate(-12.31 -2.44)" fill="#f1f9f4"/><path d="M116.36,206.71c.49.07,1.07.06,1.16.62,0,.11-.3.38-.43.37-.66-.08-.66-.57-.73-1Z" transform="translate(-12.31 -2.44)" fill="#f1f9f4"/><path d="M121.83,198.15c-.14-.38,0-.62.45-.76l.53.41Z" transform="translate(-12.31 -2.44)" fill="#f1f9f4"/><path d="M126.69,187.5a.45.45,0,0,1,.11-.55l.55.25Z" transform="translate(-12.31 -2.44)" fill="#f1f9f4"/><path d="M58.32,133.4c.14.55-.2.79-.78.78s-1.39,0-1.36-.71a1.27,1.27,0,0,1,.84-.91C57.76,132.35,58.09,132.88,58.32,133.4Z" transform="translate(-12.31 -2.44)" fill="#f1f9f4"/><path d="M59.21,135.72c.1-.18.14-.46.3-.51s.41.13.62.21c-.09.18-.14.46-.29.51S59.43,135.8,59.21,135.72Z" transform="translate(-12.31 -2.44)" fill="#f1f9f4"/><path d="M138.87,176.4c-.5-.06-1.07-.06-1.16-.62,0-.11.3-.38.43-.36.66.07.66.56.73,1Z" transform="translate(-12.31 -2.44)" fill="#f1f9f4"/><path d="M132,177.53c0-.76.48-1.22,1.34-1.41C133.4,176.91,133.19,177.55,132,177.53Z" transform="translate(-12.31 -2.44)" fill="#f1f9f4"/><path d="M138.93,163.21a.83.83,0,0,1,.51-1.1Z" transform="translate(-12.31 -2.44)" fill="#f1f9f4"/><path d="M137.25,168.51a.9.9,0,0,1,.64-1.14A1,1,0,0,1,137.25,168.51Z" transform="translate(-12.31 -2.44)" fill="#f1f9f4"/></svg>