<svg id="Capa_1" data-name="Capa 1" xmlns="http://www.w3.org/2000/svg" viewBox="0 0 248.8 227.8"><path d="M29.32,197.53V36c.77-.6.6-1.48.74-2.24C33.36,16.35,50.91,3,70.45,3q83.18,0,166.36,0A41.91,41.91,0,0,1,259.34,9c12,7.48,18.75,17.73,18.76,31.14q0,77.34,0,154.68a26.67,26.67,0,0,1-.38,4.54c-2.82,16.7-19.31,30.51-38,31.12-13.85.45-27.72.18-41.59.19H72.07C51.32,230.68,34.94,219,30.3,201,30,199.83,30.18,198.56,29.32,197.53Zm210.51-12.84c.77,2.49,1.51,4.61,2,6.78.27,1,.81,1.26,1.88,1.25,4-.05,8-.08,12,0,1.44,0,1.84-.31,1.83-1.64q-.08-26.76,0-53.53c0-1.53-.55-1.81-2.09-1.79-4.92.09-9.85.11-14.77,0-1.81-.05-2.39.3-2.37,2.06.11,10.41.06,20.82,0,31.24,0,4.61-3.28,8.79-8,10.38-6.25,2.07-12.22-.3-14.38-5.76a21.34,21.34,0,0,1-1.26-7.95c0-9.48,0-19,0-28.43,0-1.23-.36-1.57-1.72-1.56-5.12.08-10.24.1-15.35,0-1.63,0-1.9.5-1.9,1.81.05,10.58,0,21.17.05,31.76a32.51,32.51,0,0,0,1,8.88c1.85,6.46,5.32,11.83,12.61,14.34a29.57,29.57,0,0,0,15.67.93A23.56,23.56,0,0,0,239.83,184.69Zm-105.54-34a42.5,42.5,0,0,1,21.08-4.41,16.08,16.08,0,0,1,7.69,2.14,7,7,0,0,1,3.56,5c.15,1-.19,1.34-1.33,1.31a76.38,76.38,0,0,0-11.61.71c-7.11.93-14,2.55-19.76,6.64-6.2,4.38-8.73,10.27-7.56,17.21,1.19,7.14,6,11.79,13.61,13.88a30.18,30.18,0,0,0,19-1.06,22.77,22.77,0,0,0,8.08-5.33c.66,1.8,1.29,3.32,1.76,4.87.26.84.72,1.1,1.64,1.1q6.62-.06,13.21,0c1,0,1.32-.32,1.31-1.21-.06-11.88.15-23.76-.21-35.63-.34-11.18-7.65-18.65-19.81-20.95a58,58,0,0,0-18.54-.08,49.23,49.23,0,0,0-14.38,4c-.59.28-1.46.41-1.16,1.34Zm-15.64,28.69c-.57.09-.94.16-1.32.21-7.06.88-10.19-1.19-10.73-7.59-.61-7.35-.1-14.73-.24-22.1,0-1,.51-1.13,1.42-1.12,3.1,0,6.21,0,9.32,0,1,0,1.32-.28,1.31-1.2,0-3.51-.06-7,0-10.53,0-1-.32-1.31-1.43-1.29-3,.06-6,0-8.93.05-1.41.05-1.72-.4-1.71-1.6.07-5.32,0-10.64.06-16,0-1.12-.29-1.51-1.6-1.5-5.18.07-10.36.08-15.54,0-1.42,0-1.69.42-1.68,1.59.07,5.26,0,10.53.06,15.79,0,1.26-.24,1.79-1.78,1.68-1.86-.13-3.75,0-5.62-.05-1.23,0-1.55.35-1.52,1.41.07,2.57,0,5.14,0,7.72,0,3.87,0,3.87,4.35,3.87,4.52,0,4.46,0,4.54,4.06.15,8.36-.56,16.74.42,25.08.64,5.46,2.65,10.43,8.28,13.39,6.76,3.56,13.9,3.55,21.19,1.56.62-.18,1.16-.39,1.15-1.18C118.63,187.59,118.65,183.51,118.65,179.35ZM69.41,154.67c0-12.11,0-24.22,0-36.32,0-1.17-.24-1.62-1.67-1.6-5.37.08-10.74.07-16.12,0-1.29,0-1.63.34-1.63,1.48q0,36.49,0,73c0,1.31.55,1.52,1.82,1.51,5.24,0,10.48-.08,15.73,0,1.57,0,1.9-.41,1.89-1.75C69.38,178.88,69.41,166.77,69.41,154.67Zm150.21-22.51c4.51,0,8.62,0,12.74,0a2.38,2.38,0,0,0,1.75-1q6-5.59,12-11.2c1.06-1,2.1-2,3.44-3.26H232.71c-.26,0-.52,0-.78,0-.84-.06-1,.59-1.39,1q-3.71,4.83-7.37,9.67C222.05,129,220.94,130.43,219.62,132.16Z" transform="translate(-29.32 -2.96)" fill="#1a5492"/><path d="M239.83,184.69a23.56,23.56,0,0,1-14.63,8.77,29.57,29.57,0,0,1-15.67-.93c-7.29-2.51-10.76-7.88-12.61-14.34a32.51,32.51,0,0,1-1-8.88c0-10.59,0-21.18-.05-31.76,0-1.31.27-1.84,1.9-1.81,5.11.11,10.23.09,15.35,0,1.36,0,1.73.33,1.72,1.56,0,9.48,0,18.95,0,28.43a21.34,21.34,0,0,0,1.26,7.95c2.16,5.46,8.13,7.83,14.38,5.76,4.77-1.59,8-5.77,8-10.38,0-10.42.06-20.83,0-31.24,0-1.76.56-2.11,2.37-2.06,4.92.11,9.85.09,14.77,0,1.54,0,2.1.26,2.09,1.79q-.09,26.77,0,53.53c0,1.33-.39,1.67-1.83,1.64-4-.09-8-.06-12,0-1.07,0-1.61-.21-1.88-1.25C241.34,189.3,240.6,187.18,239.83,184.69Z" transform="translate(-29.32 -2.96)" fill="#fdf013"/><path d="M134.29,150.66l-3.44-10.44c-.3-.93.57-1.06,1.16-1.34a49.23,49.23,0,0,1,14.38-4,58,58,0,0,1,18.54.08c12.16,2.3,19.47,9.77,19.81,20.95.36,11.87.15,23.75.21,35.63,0,.89-.27,1.22-1.31,1.21q-6.6-.06-13.21,0c-.92,0-1.38-.26-1.64-1.1-.47-1.55-1.1-3.07-1.76-4.87a22.77,22.77,0,0,1-8.08,5.33,30.18,30.18,0,0,1-19,1.06c-7.57-2.09-12.42-6.74-13.61-13.88-1.17-6.94,1.36-12.83,7.56-17.21,5.79-4.09,12.65-5.71,19.76-6.64a76.38,76.38,0,0,1,11.61-.71c1.14,0,1.48-.3,1.33-1.31a7,7,0,0,0-3.56-5,16.08,16.08,0,0,0-7.69-2.14A42.5,42.5,0,0,0,134.29,150.66Zm33,19.17c0-1.05,0-2.11,0-3.16,0-.64-.2-1-1-1-5.45.09-10.89.25-15.9,2.53a8.17,8.17,0,0,0-4.84,5c-1.69,5.72,2.92,10.15,9.82,9.45C163.07,181.87,167.27,177.34,167.27,169.83Z" transform="translate(-29.32 -2.96)" fill="#fdf013"/><path d="M118.65,179.35c0,4.16,0,8.24,0,12.32,0,.79-.53,1-1.15,1.18-7.29,2-14.43,2-21.19-1.56-5.63-3-7.64-7.93-8.28-13.39-1-8.34-.27-16.72-.42-25.08-.08-4.06,0-4.06-4.54-4.06-4.35,0-4.35,0-4.35-3.87,0-2.58.05-5.15,0-7.72,0-1.06.29-1.46,1.52-1.41,1.87.08,3.76-.08,5.62.05,1.54.11,1.8-.42,1.78-1.68-.07-5.26,0-10.53-.06-15.79,0-1.17.26-1.61,1.68-1.59,5.18.08,10.36.07,15.54,0,1.31,0,1.61.38,1.6,1.5-.06,5.32,0,10.64-.06,16,0,1.2.3,1.65,1.71,1.6,3-.09,6,0,8.93-.05,1.11,0,1.45.3,1.43,1.29-.06,3.51,0,7,0,10.53,0,.92-.28,1.22-1.31,1.2-3.11-.06-6.22,0-9.32,0-.91,0-1.44.11-1.42,1.12.14,7.37-.37,14.75.24,22.1.54,6.4,3.67,8.47,10.73,7.59C117.71,179.51,118.08,179.44,118.65,179.35Z" transform="translate(-29.32 -2.96)" fill="#fdf013"/><path d="M69.41,154.67c0,12.1,0,24.21,0,36.32,0,1.34-.32,1.78-1.89,1.75-5.25-.09-10.49-.06-15.73,0-1.27,0-1.82-.2-1.82-1.51q.07-36.5,0-73c0-1.14.34-1.49,1.63-1.48,5.38.07,10.75.08,16.12,0,1.43,0,1.68.43,1.67,1.6C69.39,130.45,69.41,142.56,69.41,154.67Z" transform="translate(-29.32 -2.96)" fill="#fdf013"/><path d="M219.62,132.16c1.32-1.73,2.43-3.2,3.55-4.68q3.68-4.83,7.37-9.67c.35-.45.55-1.1,1.39-1,.26,0,.52,0,.78,0h16.86c-1.34,1.27-2.38,2.27-3.44,3.26q-6,5.61-12,11.2a2.38,2.38,0,0,1-1.75,1C228.24,132.15,224.13,132.16,219.62,132.16Z" transform="translate(-29.32 -2.96)" fill="#fdf013"/><path d="M167.27,169.83c0,7.51-4.2,12-11.89,12.83-6.9.7-11.51-3.73-9.82-9.45a8.17,8.17,0,0,1,4.84-5c5-2.28,10.45-2.44,15.9-2.53.78,0,1,.34,1,1C167.25,167.72,167.27,168.78,167.27,169.83Z" transform="translate(-29.32 -2.96)" fill="#1a5492"/></svg>