<svg id="Capa_1" data-name="Capa 1" xmlns="http://www.w3.org/2000/svg" viewBox="0 0 1261.55 222.01"><path d="M125.2,182.31c16.44,12.56,34.23,18.58,54.15,17.18,29.51-2.06,52-16.77,69.61-39.63a94.64,94.64,0,0,0,14.5-27.59c1-2.88.66-3.78-2.55-3.75-14.48.11-29,.15-43.45,0-2.94,0-3.94,1.41-5.19,3.55-9.5,16.33-23.17,26.43-42.66,26.49-18.49.06-30.13-9.91-33.57-28-.39-2-1.33-1.93-2.63-1.93-12.65,0-25.31,0-38-.05-2.56,0-2.84,1.42-3.23,3.39-5.92,29.54-12,59.05-17.8,88.61-.85,4.3-2,6.27-7.09,6.12-19.39-.56-30.28-13.42-26.1-32.26Q58.71,115.63,76.62,37C80.53,19.76,95.7,7,113.25,5c4-.45,4.52.67,3.74,4.21C110.85,37,104.84,64.81,98.77,92.63c-1.28,5.87-1.32,5.86,4.87,5.87,11.33,0,22.65-.12,34,.07,3.19.05,5-1,6.83-3.62C154,81.3,166.39,72.18,183.92,73c14.63.67,25.09,8.12,30.87,21.5,1.36,3.17,2.83,4.14,6.15,4.09q20.73-.27,41.46,0c3.52.05,4.15-1.11,3.68-4.31-4.72-31.81-33.63-59.73-66-64-15.17-2-29.76-.05-44.73,5,2-9.73,4-18.89,5.72-28.1.65-3.47,3.13-2.37,5-2.38q34-.09,67.93,0,27.72,0,55.45,0c6.42,0,12.66.94,18,4.84,9.51,7,11.66,16.63,9.24,27.45q-17.6,78.48-35.49,156.9c-4.46,19.5-21.09,32.48-41.14,32.5-39.8.05-79.59,0-119.38.11-4,0-4.57-.84-3.7-4.67C120,209,122.42,196,125.2,182.31Z" transform="translate(-40.34 -4.65)" fill="#0e863e"/><path d="M367.88,107c5.58-2.09,10.4-3.81,15.62-4.2,24.48-1.81,40.36,17.25,34.14,41-5.51,21-33.7,45.92-63.1,32.86-.77-.34-1.58-1.43-2.6-.32-4.76,5.18-10.87,2.42-16.38,2.5-3.81.06-3-3.14-2.51-5.59q4.56-21.86,9.2-43.7C345.83,112.68,349.56,95.88,353,79c.86-4.21,2.91-6,7.13-5.79,3,.16,6,.07,9,0,4.3-.06,5.53,1.92,4.56,6-1.87,7.89-3.5,15.83-5.21,23.75C368.23,104.12,368.13,105.25,367.88,107Zm7.15,53c11.11.1,21.71-9.27,22.93-20.25,1.12-10.05-5.2-17-15.35-16.91-11.23.11-21.76,10.06-22.51,21.25C359.47,153.38,365.56,159.87,375,159.94Z" transform="translate(-40.34 -4.65)" fill="#0f873f"/><path d="M810.05,174.74c-2.13,9.73-4.36,19.21-6.23,28.75-.76,3.84-2.65,5.38-6.46,5.17-3.15-.17-6.33-.18-9.48,0-4.24.19-5.58-1.32-4.63-5.67,5.74-26.16,11.27-52.37,16.87-78.57,1.17-5.5,2.44-11,3.5-16.49.67-3.5,2.43-5.21,6.14-5,3,.19,6,0,9,.08,1,0,2.6-.15,2.86.33,2.84,5.26,6.27,1.49,9.31.6,10.27-3,20.33-3.36,29.93,2.08,11.3,6.42,16.71,18.78,14.59,32.81-3.54,23.43-29.37,42.83-53,39.9C818.11,178.18,814.25,176.31,810.05,174.74Zm22-15.8c10.3.06,20.53-8.26,22.51-18.29,2.46-12.42-6.59-21.15-19-18.36a24.09,24.09,0,0,0-18.14,18.93C815.54,151.4,821.73,158.89,832,158.94Z" transform="translate(-40.34 -4.65)" fill="#0f873f"/><path d="M987.88,103.69c2.73.93,7-1.92,9.12,3,.42,1,2.38-.44,3.54-.91,8.06-3.29,16.39-4.43,24.9-2.49,15.76,3.6,24.71,17.14,23.1,34.49-2.38,25.58-32.19,47-56.81,40.75a14.52,14.52,0,0,0-1.45-.34c-2.53-.38-5-3.5-7.09-1.88-1.51,1.19-1.29,4.58-1.83,7-1.58,7.1-3.27,14.18-4.69,21.32-.67,3.38-2.41,4.83-5.81,4.69-2.66-.12-5.33,0-8,0-7.08,0-7.68-.63-6.25-7.32,4.06-19.09,8.2-38.16,12.3-57.24,2.26-10.5,4.48-21,6.73-31.53C977.7,103.66,977.7,103.66,987.88,103.69Zm25,18.93c-10.17,0-20.15,8-22.29,17.91-2.61,12,5.58,20.82,17.63,19a24.22,24.22,0,0,0,19.42-18.85C1029.61,130.17,1023.44,122.62,1012.86,122.62Z" transform="translate(-40.34 -4.65)" fill="#0f873f"/><path d="M1224.62,179.24c-3.43-.55-7.26,1.15-9.24-3.34-.59-1.33-2.37.29-3.51.73-7.24,2.78-14.59,4.32-22.42,3.17-15.73-2.31-25.81-13.34-26.53-29.28-1.26-27.69,29.77-53.12,56.81-46.55a26.09,26.09,0,0,1,4.26,1.36c2.92,1.28,4.82,2.64,8.58-.28s9.9-1.46,14.94-.42c1.56.32,1.73,2.16,1.38,3.8q-7,33-14,66C1233.51,180.83,1228.3,178.51,1224.62,179.24Zm-3-41.9c-.06-7.2-4-12.15-11-13.87-13.59-3.31-28.69,10.36-26.77,24.23,1,6.83,5.47,11.28,12.38,12.17C1209,161.52,1221.71,150.3,1221.6,137.34Z" transform="translate(-40.34 -4.65)" fill="#0f873f"/><path d="M474.24,102.51a35.94,35.94,0,0,1,16.88,3.89c.86.43,2.16,2.11,2.85.65,2.28-4.8,6.52-3.13,10-3.22,9.79-.27,9.81-.13,7.76,9.55-4.26,20-8.63,40.06-12.74,60.13-.82,4-2.69,5.83-6.7,5.63-3.48-.17-8.38,1.08-10.16-.73-4.24-4.33-7.39-1.15-10.92-.09-18.25,5.47-35.37-.95-41.83-16.13-4.34-10.18-3.55-20.57,1.43-30.24C439.88,114.4,454,103.76,474.24,102.51Zm-26.52,42.8c-.05,8.6,5.46,14.31,14.13,14.63,12,.45,23.38-10.05,23.86-22a14.15,14.15,0,0,0-13.33-15.09C459.61,121.78,447.8,132.54,447.72,145.31Z" transform="translate(-40.34 -4.65)" fill="#0f873f"/><path d="M702.22,179.73c-21.66.19-35.09-15.55-31.65-37.1,3.57-22.37,26-41,48.62-40.49,21.48.53,34.46,18.41,29.39,40.48C744,162.67,722.9,179.55,702.22,179.73Zm26.44-42.39c.07-8.22-5.51-14.11-13.77-14.54-11.23-.59-21.69,8-23.49,19.35-1.51,9.52,4.84,17,14.49,17.2C717.27,159.52,728.57,148.59,728.66,137.34Z" transform="translate(-40.34 -4.65)" fill="#0f873f"/><path d="M928,101.84c20.81,0,34.63,16.45,30.93,36.94-3.94,21.85-24,39.35-46.25,40.31-22.91,1-37.62-18-31.65-40.9C886.38,117.81,907,101.89,928,101.84Zm-12.13,56.77c10.75,0,21.42-9.58,22.5-20.24.86-8.49-4.16-14.85-12.68-16.08-10.77-1.55-22.46,7.46-24.45,18.85C899.56,151,905.92,158.6,915.91,158.61Z" transform="translate(-40.34 -4.65)" fill="#0f873f"/><path d="M1106.62,178.38c-2.63-.7-6.16,1.26-8.93-1.86-1-1.12-2.43.39-3.61.81a36.63,36.63,0,0,1-23,.65c-11.4-3.31-17.1-11.82-16-24.2,1.23-13.38,5-26.31,7.78-39.41,2.49-11.87.19-11.15,14-11.18,1.17,0,2.33.08,3.5.06,3.79-.08,5,1.6,4.16,5.31-2.51,11.3-4.86,22.64-7.21,34-2,9.51.16,14.61,6.64,16.11a15.63,15.63,0,0,0,18.43-11.37c2.88-12.06,5.35-24.23,7.92-36.36,1.6-7.52,1.68-7.65,9.41-7.74,13-.14,13-.16,10.15,12.78q-5.83,26.67-11.46,53.37C1116.5,178.39,1116.56,178.4,1106.62,178.38Z" transform="translate(-40.34 -4.65)" fill="#0f873f"/><path d="M563.36,179.68c-10.44.09-10.47.08-8.36-10q3-14.58,6.17-29.13C563.24,131,561,125.5,554.3,124c-7.44-1.68-16.53,3.91-18.35,11.81-2.88,12.58-5.5,25.22-8,37.89-.84,4.3-2.58,6.54-7.27,6-2.79-.28-5.65,0-8.48,0-5.2-.11-6-1-4.95-5.89,3-14.24,6.08-28.47,9.12-42.7,1.52-7.12,3.13-14.22,4.47-21.38.7-3.72,2.58-5.77,6.4-5.32,4.41.53,9.23-1.72,13.22,2,1,.89,2.18-.37,3.19-.77a37.6,37.6,0,0,1,21.58-1.56c12.85,2.64,20.42,13,18.2,26.5-2.47,15-6,29.84-9,44.75-.63,3-2.35,4.59-5.6,4.35C567,179.56,565.19,179.68,563.36,179.68Z" transform="translate(-40.34 -4.65)" fill="#0f873f"/><path d="M638.05,101.9c10.59,0,19.44,3.6,26,12.19,2.34,3,2,5.38-1.22,7.4-1.26.79-2.55,1.56-3.74,2.46-5.26,4-9.82,6.72-16.34.79-5.26-4.79-15.55-2.63-22.18,2.7-7.18,5.78-10.47,14.79-8,22,2.62,7.72,11,11.41,19.65,8.68a25.08,25.08,0,0,0,9.72-5.89c2.25-2.13,4.45-2.48,7.14-.76,2.51,1.6,5.2,2.92,7.81,4.39,2.77,1.55,3.33,3.68,1.17,6.06-11.35,12.52-25,19.88-42.41,17.11-18.38-3-28.29-18.79-24.63-38.19C595,119.87,616.58,102,638.05,101.9Z" transform="translate(-40.34 -4.65)" fill="#0f873f"/><path d="M1136.84,179.37c-10.45.15-10.58.06-8.43-10.15,6.3-29.79,12.72-59.56,19-89.36.87-4.12,2.84-6.06,7.14-5.76a74.9,74.9,0,0,0,9,0c4.55-.23,5.41,2.06,4.58,5.94q-6.7,31.07-13.32,62.14c-2.11,9.87-4.25,19.74-6.33,29.61C1146.87,179.22,1146.89,179.23,1136.84,179.37Z" transform="translate(-40.34 -4.65)" fill="#0f873f"/><path d="M1252.49,179.37c-10.28-.07-10.35-.08-8.22-10.24q6-28.87,12.24-57.72c1.49-7,1.79-7.43,8.79-7.14,3.86.16,8.33-2,11.55,2.25.63.82,1.83-.34,2.66-.75,5.89-2.9,12.19-3,18.53-2.71,3.25.13,4.52,1.68,3.52,4.89-.25.78-.26,1.64-.44,2.44-3.3,14.42-.94,13.29-14.86,13.45-7.48.09-13.15,5.67-14.85,13.69-2.28,10.66-4.41,21.36-6.71,32C1262.56,179.45,1262.5,179.44,1252.49,179.37Z" transform="translate(-40.34 -4.65)" fill="#0f873f"/><path d="M835.52,122.29c12.44-2.79,21.49,5.94,19,18.36-2,10-12.21,18.35-22.51,18.29" transform="translate(-40.34 -4.65)" fill="#fdfefd"/><path d="M472.38,122.83a14.15,14.15,0,0,1,13.33,15.09c-.48,12-11.85,22.47-23.86,22-8.67-.32-14.18-6-14.13-14.63" transform="translate(-40.34 -4.65)" fill="#fdfefd"/><path d="M714.89,122.8c8.26.43,13.84,6.32,13.77,14.54-.09,11.25-11.39,22.18-22.77,22-9.65-.15-16-7.68-14.49-17.2" transform="translate(-40.34 -4.65)" fill="#fdfefd"/></svg>