<svg id="Capa_1" data-name="Capa 1" xmlns="http://www.w3.org/2000/svg" viewBox="0 0 822.46 205.66"><path d="M130.13,217.61c-3.3-1.75-4.95-3.8-4.89-7.71q.51-34.17.05-68.33c-.06-4.9,1.44-6.87,7.23-7,11.55-.35,23.06-1.3,34.62-.05a44.76,44.76,0,0,1,12.55,3.37c14.25,6,18.29,24.83-1.62,34.1,8.82,3.58,15.61,8.6,16.58,17.58,1.28,11.92-6.39,21.1-20.09,25-4.29,1.23-9.2.32-13,3.05ZM153.81,203A25.42,25.42,0,0,0,164,201.6c6.6-2.3,9.25-6.64,7.85-12.7s-11.2-10.09-21.27-8.84c-7.22.9-2.85,6-3.75,9.12-.65,2.28.18,4.85-.19,7.23C145.8,201.81,147.91,204.25,153.81,203Zm-7.06-45.1c1,3.14-3.62,9.61,6.73,8.89S169.9,163,170,156.93s-5-8.61-15.58-9.36C144.38,146.85,146.82,152.53,146.75,157.89Z" transform="translate(-32.68 -11.95)" fill="#068847"/><path d="M504.19,217.61c-22.06-9.7-28.85-20.22-24.94-38.63,3.28-15.5,19.08-25.18,38.69-23.73,18,1.34,30.21,13,31,28.58.92,17.42-8.78,28-26.59,33.78Zm-3.56-31.28c0,10.9,5.43,18,13.59,17.71,7.59-.3,13-7.77,12.84-17.85-.12-10.39-5.49-17.31-13.38-17.23S500.68,175.66,500.63,186.33Z" transform="translate(-32.68 -11.95)" fill="#068847"/><path d="M426.4,217.61c-4.24-2.06-8.83-3.71-12.66-6.25-12.79-8.47-16.58-26.85-8.69-40.34,7.5-12.81,25.49-18.78,43.52-14.45A30,30,0,0,1,471.89,188c-1,15.83-11.09,24.81-27.29,29.63Zm23.37-31c.07-10.37-4.95-17.38-12.65-17.65-8.22-.28-13.93,6.79-14,17.35-.08,10.32,5.75,17.92,13.67,17.83C444.39,204.05,449.7,196.89,449.77,186.6Z" transform="translate(-32.68 -11.95)" fill="#068847"/><path d="M807.08,217.61c-.35-1.73-2.26-2-3.53-2.74-14.19-8.83-13.1-26.19,2.18-33.47,6.91-3.29,14.45-4.47,22.22-4.82,1.68-.08,4.29.78,4.51-1.81.14-1.71-.86-3.17-2.66-4.23-6.85-4-13.75-1.81-20.66-.26-3.14.7-6.92,4.41-8.34-1.75-1-4.27-4.52-9.07,4-10.49,5.39-.9,10.72-2.37,16.15-2.72,21.83-1.42,32.61,6.82,33.72,26,.61,10.38.17,20.82.47,31.22.09,2.94-1.11,4.22-4.16,3.58-5.61-1.17-13.52,3.73-16.6-5.13-3.36,3.56-8.2,4.6-12.41,6.63Zm8-20.37c-.07,4.1,2.87,6.8,7.56,7,6.15.21,11-4.83,11.19-11.18.11-3.31-.73-4.78-5-4.57C820.76,188.85,815.21,192.16,815.13,197.24Z" transform="translate(-32.68 -11.95)" fill="#068847"/><path d="M214.54,217.61c-13.48-8.21-17.68-16.46-12.81-26.36,4.58-9.31,14.26-12.21,24.55-14,2.15-.37,4.44-.14,6.56-.6s5.71,1.27,6.18-1.75-2.5-4.58-5.5-5.58c-7-2.34-13.51-.14-20.09,1.64-2,.54-5,3.17-5.42-1-.4-3.53-6.35-8,.16-10.55,12.4-4.84,25.48-6.32,38.51-1.57,9.89,3.61,13.55,11.19,14.05,19.82.68,11.86.52,23.75.77,35.62,0,.92.68,2.3-.68,2.42-5.93.53-14.37,2.72-17.21-.65-4-4.73-5.52-1.74-7.91-.35-2,1.17-5,.61-6.26,2.88ZM236,188.52c-8.28-.14-15,4-14.8,9.08.18,4.57,3.84,6.24,8.22,6.54,5.82.4,10.58-4.57,10.74-10.66C240.27,190.73,240.63,187.81,236,188.52Z" transform="translate(-32.68 -11.95)" fill="#068847"/><path d="M691.22,217.61c-5.62-2.8-12.13-4.16-16.89-8.37-10.36-9.19-12.13-27.62-3.71-40,7.91-11.59,23.36-16.67,38.68-12.72,14.11,3.64,24.55,21.37,20.05,33.62-1.15,3.14-3.66,2.41-5.93,2.43-10.46.07-20.93,0-31.39.1-1.91,0-4.86-1.27-5.56,1.43-.51,2,1.31,3.65,3,4.91,7.52,5.72,16.49,4.21,25.23,3.74,2.85-.15,6.37-3,8.3-.32a15.52,15.52,0,0,1,2.52,9.7c-.27,3.7-5.11,2.7-7.89,3.84-1.14.46-2.8,0-3.21,1.6Zm6.4-37.87c2.49,0,5-.16,7.45,0,4.65.37,5.2-1.57,3.67-4.75-2.26-4.69-6-7.69-12.13-6.79-5.84.85-10.2,4.58-9.92,9.24s6.12,1.3,9.29,2.25A6,6,0,0,0,697.62,179.74Z" transform="translate(-32.68 -11.95)" fill="#068847"/><path d="M368.47,217.61c-4.35-3.29-10.39-3.87-14.64-7.5-10.68-9.13-12.42-20.23-9.18-32.17,3.18-11.72,12.46-18.49,25.44-21.4,7.29-1.64,14.64-1.42,22.13-.31,5.26.78,6.59,2.58,4.64,6.69-1.58,3.33,1.12,9.42-7.74,7.79-12.32-2.26-20.74,2-23.43,10.82-3.62,11.9,6.15,22,20.11,21.38,3.37-.15,8.49-5.18,10.54,1.92,1.67,5.85,2.49,11.1-6.36,12.78Z" transform="translate(-32.68 -11.95)" fill="#068847"/><path d="M574.56,163.31c17.07-11.22,27.38-10.76,39.62,1.07,7.05-6.76,15.48-10.71,26.22-8.69,9.86,1.86,16.72,8.63,17.41,18.88.84,12.58.39,25.21.64,37.82.06,2.76-1,3.6-4.19,3.86-16.93,1.38-16.9,1.48-16.92-13.13,0-7.52.19-15-.2-22.55-.25-4.77-1.76-9.56-8.67-9.66-7.2-.1-10.36,4-10.54,9.82-.3,9.7-.54,19.41-.15,29.1.2,5.06-1.45,6.58-7.29,6.47-13.62-.27-13.63,0-13.63-12.27,0-7.52.24-15.05-.09-22.56-.24-5.31-1.69-10.4-9.48-10.61-5.88-.16-10.09,4.33-10.21,11-.18,9.94-.2,19.89,0,29.83.09,3.5-1.17,4.4-5.11,4.53-15.76.5-15.69.64-15.78-13.43-.07-13.09.07-26.2-.64-39.26-.34-6,2.08-7.57,8.3-7C568.69,157.08,574.94,154.79,574.56,163.31Z" transform="translate(-32.68 -11.95)" fill="#068847"/><path d="M290.83,164.33c6.91-6.75,14.33-9.54,23-8.93,11.6.82,19.85,7.63,21.41,18,2,13,.74,26.11,1.05,39.17.07,2.95-1.45,3.88-4.48,3.61a4.6,4.6,0,0,0-.83,0c-16.4.77-16.38.77-16.4-13.44,0-7.27.11-14.54-.26-21.79-.29-5.54-2.65-10.28-10.17-10s-10.63,4.68-10.82,10.66c-.29,9.43-.42,18.89,0,28.32.25,5.13-1.59,6.5-7.34,6.4-14.46-.24-14.45,0-14.48-12.35,0-14.28.09-28.57-.32-42.84-.11-3.81,1.45-5.06,5.07-4.35C281.67,157.8,290.69,152.58,290.83,164.33Z" transform="translate(-32.68 -11.95)" fill="#068847"/><path d="M40,194.23c5-17,13.29-32.42,22.56-47.46A376.23,376.23,0,0,1,137.07,59.3c5.2-4.5,7.93-5,12.61.77a502.88,502.88,0,0,1,37.8,52.78c2.39,3.9,4.11,8.11,6,12-3.79-.08-4.83-2.88-6.45-5-10-13-20.78-25.61-31.64-38.12-3.73-4.3-6.08-5.1-11.17-1C103.76,113.32,69.08,150,42.08,192.18A13.11,13.11,0,0,1,40,194.23Z" transform="translate(-32.68 -11.95)" fill="#c0182f"/><path d="M32.68,149.12A370.17,370.17,0,0,1,115.92,30c5.77-5.53,12-10.67,18-16,2.4-2.15,4.26-3.21,7,0,17.72,21.07,33.6,43.12,46.7,66.68.4.73.16,1.74.36,4.55-7.52-9.32-13.71-17.22-20.18-25s-13.47-15.34-19.94-23.17c-2.78-3.36-4.66-3.39-8.21-.6Q80.08,83.42,39.19,143.78C37.8,145.83,37.54,149.13,32.68,149.12Z" transform="translate(-32.68 -11.95)" fill="#068847"/><path d="M763.18,196.29c3.5-11.38,7.14-21.79,9.81-32.38,1.47-5.87,4.38-7.65,11.18-7.4,14,.53,14,.15,9.26,11.4-6,14.05-12.18,28-17.77,42.2-1.82,4.6-4,6.37-9.85,6.21-14.24-.39-14.24-.08-19.14-11.94-5.81-14.1-11.44-28.27-17.61-42.25-2.17-4.9-.67-5.55,4.62-5.55,16.28,0,16.29-.21,21,13.92C757.43,178.82,760.16,187.15,763.18,196.29Z" transform="translate(-32.68 -11.95)" fill="#068847"/><path d="M153.81,203c-5.9,1.26-8-1.18-7.18-6.58.37-2.38-.46-4.95.19-7.23.9-3.12-3.47-8.22,3.75-9.12,10.07-1.25,19.88,2.87,21.27,8.84s-1.25,10.4-7.85,12.7A25.42,25.42,0,0,1,153.81,203Z" transform="translate(-32.68 -11.95)" fill="#fdfdfd"/><path d="M146.75,157.89c.07-5.36-2.37-11,7.71-10.32,10.54.75,15.72,3.18,15.58,9.36s-6.29,9.13-16.56,9.85S147.79,161,146.75,157.89Z" transform="translate(-32.68 -11.95)" fill="#fdfdfd"/><path d="M500.63,186.33c.05-10.67,5-17.28,13-17.37s13.26,6.84,13.38,17.23c.12,10.08-5.25,17.55-12.84,17.85C506.06,204.36,500.59,197.23,500.63,186.33Z" transform="translate(-32.68 -11.95)" fill="#fdfdfd"/><path d="M449.77,186.6c-.07,10.29-5.38,17.45-13,17.53-7.92.09-13.75-7.51-13.67-17.83.08-10.56,5.79-17.63,14-17.35C444.82,169.22,449.84,176.23,449.77,186.6Z" transform="translate(-32.68 -11.95)" fill="#fdfdfd"/><path d="M815.13,197.24c.08-5.08,5.63-8.39,13.8-8.79,4.22-.21,5.06,1.26,5,4.57-.21,6.35-5,11.39-11.19,11.18C818,204,815.06,201.34,815.13,197.24Z" transform="translate(-32.68 -11.95)" fill="#fdfdfd"/><path d="M236,188.52c4.6-.71,4.24,2.21,4.16,5-.16,6.09-4.92,11.06-10.74,10.66-4.38-.3-8-2-8.22-6.54C221,192.53,227.75,188.38,236,188.52Z" transform="translate(-32.68 -11.95)" fill="#fdfdfd"/><path d="M697.62,179.74a6,6,0,0,1-1.64,0c-3.17-.95-9,2.31-9.29-2.25s4.08-8.39,9.92-9.24c6.15-.9,9.87,2.1,12.13,6.79,1.53,3.18,1,5.12-3.67,4.75C702.61,179.58,700.11,179.74,697.62,179.74Z" transform="translate(-32.68 -11.95)" fill="#fdfdfd"/></svg>