<svg id="Capa_1" data-name="Capa 1" xmlns="http://www.w3.org/2000/svg" viewBox="0 0 1070.72 201.67"><path d="M386.58,110.73a35.7,35.7,0,0,1,6.86,4.25,14.44,14.44,0,0,1,3,3.15,15.28,15.28,0,0,1,2.09,12.37c-.82,3.18-1.64,6.5-4.1,9.08a19.91,19.91,0,0,1-8.76,5.81c-7.94,2.33-16.11,2.44-24.28,2.36-3.71,0-7.43-.06-11.14-.41-2.65-.25-3.26-.83-3.26-3.41V83.83c0-2.35.59-3.21,2.78-3.31,9.4-.45,18.85-1.09,28.18.45a23,23,0,0,1,15.09,9.34c3.34,4.47,2.48,13.16-2.54,17.51C389.31,108.86,388,109.68,386.58,110.73ZM361.81,126.9c0,2.9,0,5.81,0,8.71,0,.57-.2,1.26.79,1.33,5.37.39,10.8,1,16-.88,5.43-1.94,9.14-7.42,6-13.35-1.92-3.56-5.32-5.11-9.14-5.83-4.18-.77-8.38-.11-12.58,0-1,0-1,.61-1,1.35C361.82,121.1,361.81,124,361.81,126.9Zm0-28.94c0,2.54,0,5.07,0,7.61,0,.5-.22,1.17.67,1.26,5.51.56,11.17,1.24,15.86-2.46,4.32-3.42,4.87-9.33-.24-12.88-4.55-3.17-9.76-3.12-15-2.66-1,.08-1.35.5-1.32,1.53C361.86,92.89,361.81,95.43,361.81,98Z" transform="translate(-60.01 -13.2)" fill="#0291cf"/><path d="M882.3,148.87a50.2,50.2,0,0,1-19-3.72c-1.34-.52-2.18-1.11-1.33-2.87,1-2.18,1.27-4.68,2.55-6.84,1-1.65,2.1-1.92,3.69-1.27a40.45,40.45,0,0,0,6.9,2.61c5.54,1.14,11.07,1.29,16.44-.74,4.57-1.72,7.71-6,6.42-10.2-1-3.14-3.74-4.41-6.33-5.77-4.7-2.46-9.92-3.68-14.73-5.93a40.92,40.92,0,0,1-10.55-6.61c-4.24-3.89-4-12.07-2.09-15.38,5.65-9.58,14.63-12.55,24.94-12.89a42.93,42.93,0,0,1,17.38,3.26,6.83,6.83,0,0,1,1.32.67,1.91,1.91,0,0,1,.79,2.79,39.06,39.06,0,0,1-3.25,5.51c-.86,1.2-1.88,1-3,.51-4.5-1.91-9.1-3.13-14.06-2.64-3.43.34-6.64,1-9.28,3.56a4.86,4.86,0,0,0-.13,7c3.45,3.55,8.12,4.55,12.48,6.09,5.42,1.92,10.82,3.88,15.22,7.65,3.86,3.3,6.27,7.48,6,12.83a21.63,21.63,0,0,1-5.48,13.68c-3.38,3.76-7.88,5.78-12.68,7.09A46,46,0,0,1,882.3,148.87Z" transform="translate(-60.01 -13.2)" fill="#0291cf"/><path d="M657,113.47a20.44,20.44,0,0,0,1,7.39,23.11,23.11,0,0,0,12.69,13.74,25.25,25.25,0,0,0,18,1.6,40.08,40.08,0,0,0,6-2.72c1.9-.93,2.63-.68,3.09,1.32s1.58,4,1.93,6.09c.39,2.35.12,3.16-2.08,4a45,45,0,0,1-33,.54,41.73,41.73,0,0,1-16.27-11,18.78,18.78,0,0,1-2.75-3.65,42.07,42.07,0,0,1-4.14-9.37,27,27,0,0,1-.91-12.54,35.26,35.26,0,0,1,5.95-14.36c11.84-16.35,34.19-19.68,50.23-13.4,3.14,1.23,3.55,1.91,2.69,5.13-.5,1.88-1.16,3.72-1.72,5.58s-1.4,2.18-3.05,1.4c-2.27-1.08-4.43-2.43-6.93-3-8.78-1.88-16.66-.09-23.45,5.86C658.9,101,656.89,106.44,657,113.47Z" transform="translate(-60.01 -13.2)" fill="#0291cf"/><path d="M970.88,123.55c.37,4-1.18,8.33-3.68,12.15a27.13,27.13,0,0,1-20,12.35,28.31,28.31,0,0,1-21.12-5.49,23.61,23.61,0,0,1-6.28-6.86c-3.14-5.19-4.76-10.66-3.62-16.64a25.13,25.13,0,0,1,8.37-14.79,28,28,0,0,1,19.73-7,27.29,27.29,0,0,1,19.26,8.12A23.91,23.91,0,0,1,970.88,123.55Zm-14.74-.68c0-4.17-.8-8-3.39-11.16-2.37-2.92-5.28-4.93-9.24-4.93-6.34,0-10.59,4.86-12.21,10.64-1.7,6.09-.84,12,3.48,17.07,5.08,6,13.06,5.55,17.92-.57A16.81,16.81,0,0,0,956.14,122.87Z" transform="translate(-60.01 -13.2)" fill="#0291cf"/><path d="M614.85,125c-.08,5.52-3.2,11.84-9.21,16.68-10.07,8.1-21,8.74-32.33,3.06A24.63,24.63,0,0,1,561.6,131.8a23.13,23.13,0,0,1-1.05-15.14,24.49,24.49,0,0,1,8.61-13,27.81,27.81,0,0,1,18.46-6.38c8.1.13,15.12,3,20.66,9.09C612.51,111,614.88,116.38,614.85,125Zm-40.31-2.88c0,5,.68,7.78,3.26,11.41,2.24,3.16,5.31,5.29,9.42,5.24,6.14-.08,9.93-3.87,11.86-9.57,2.29-6.75,1.48-13.35-3.73-18.82s-13-4.53-17.49,1.57A15.76,15.76,0,0,0,574.54,122.09Z" transform="translate(-60.01 -13.2)" fill="#0291cf"/><path d="M449.9,128.56c0,4.45,0,8.91,0,13.36a2,2,0,0,1-1.43,2.22c-9.85,3.55-19.9,4.89-30.26,2.82-5.71-1.14-10.51-3.9-12.68-9.49a14.48,14.48,0,0,1,.38-12.13c3.22-6.38,9.12-8.23,15.36-9.53a31.26,31.26,0,0,1,14.55.24c1.36.36,1.7,0,1.46-1.4-.68-3.81-4-6.87-8.85-7.68-4.54-.75-8.85.22-13,1.89-3,1.19-3.29,1.13-4.95-1.57A38.22,38.22,0,0,0,408,103c-.69-.85-.45-1.75.63-2.46A27.68,27.68,0,0,1,423,96.5a35.55,35.55,0,0,1,20.57,5.6,11.79,11.79,0,0,1,3.19,3.26A18,18,0,0,1,449.92,116C449.86,120.15,449.9,124.36,449.9,128.56Zm-12.44,3.38c0-1.36-.08-2.72,0-4.07a1.93,1.93,0,0,0-1.38-2.12,20.47,20.47,0,0,0-13-1.06c-3.85.93-6.19,3.6-6.2,6.75s1.64,4.92,4.15,6.17c4.35,2.18,8.93,1.8,13.38.59,3.56-1,3-.21,3.05-4C437.46,133.42,437.46,132.68,437.46,131.94Z" transform="translate(-60.01 -13.2)" fill="#0291cf"/><path d="M820.16,116.34c-.09-5.26-4.44-8.91-9.75-9.49A23.8,23.8,0,0,0,798,109c-2.44,1.09-3,1.11-4.4-1.12-.93-1.42-1.72-2.94-2.62-4.39-1-1.62-.62-2.52,1-3.39,8.37-4.36,17-4.56,25.91-1.86a29.65,29.65,0,0,1,8.48,4,12.86,12.86,0,0,1,3.37,3.55,15.83,15.83,0,0,1,2.84,8.79q0,13.81,0,27.63c0,.88-.14,1.45-1.13,1.81-10.56,3.88-21.36,5.44-32.37,2.45-10.17-2.75-14-11.08-10.72-20.8,1.28-3.77,4.6-6.07,8.27-7.63a35.57,35.57,0,0,1,22.69-1.85Zm.1,15.48c0-1.42,0-2.85,0-4.27a1.39,1.39,0,0,0-.87-1.46,19.62,19.62,0,0,0-13.53-1.41,8.35,8.35,0,0,0-5.52,3.69c-1.93,3.3-.15,7.7,3.52,9.35,4.57,2,9.14,1.44,13.79.39,2.15-.49,3-1.55,2.62-3.7A16,16,0,0,1,820.26,131.82Z" transform="translate(-60.01 -13.2)" fill="#0291cf"/><path d="M1096.11,128.29c0,4.57,0,9.15,0,13.72a2,2,0,0,1-1.47,2.22c-9.8,3.35-19.78,4.86-30.07,2.74-5.83-1.2-10.72-4-12.91-9.73a14.39,14.39,0,0,1,.35-11.63c2.92-6.16,8.49-8.2,14.47-9.59a31.68,31.68,0,0,1,15.45,0c1.59.42,1.75-.2,1.52-1.54-.7-4-4.62-7.15-9.68-7.66a24.68,24.68,0,0,0-12.78,2.36c-2,.91-2.3.67-3.61-1s-1.84-3.54-3.2-5.06a1.45,1.45,0,0,1,.43-2.34,25.05,25.05,0,0,1,11.41-4A34.43,34.43,0,0,1,1089.6,102c4.51,2.92,6.42,7.6,6.48,12.94.05,4.45,0,8.91,0,13.36ZM1083.75,132c0-1.36-.07-2.72,0-4.08a1.9,1.9,0,0,0-1.24-2,19.63,19.63,0,0,0-13.55-1,8.25,8.25,0,0,0-5.24,3.76c-1.69,3.09-.21,7,3,8.77,4.38,2.37,8.94,2,13.53,1,3.5-.79,3.48-.89,3.48-4.51Z" transform="translate(-60.01 -13.2)" fill="#0291cf"/><path d="M748.48,128.52c0,4.45-.06,8.91,0,13.36a2.11,2.11,0,0,1-1.53,2.37c-10.87,3.65-21.9,5.35-33.11,1.81-4.44-1.4-7.93-4.12-9.67-8.86a15.81,15.81,0,0,1-.8-8.64,13.58,13.58,0,0,1,7.79-9.85A34.32,34.32,0,0,1,734.48,116c1.37.32,1.58-.06,1.4-1.29-.5-3.47-3.25-6.33-7.11-7.37-5.44-1.47-10.56-.29-15.5,1.93-1.69.76-2.65.42-3.44-1.15-.94-1.85-2.2-3.51-3.2-5.34-.43-.78-.42-1,.12-1.62,1.73-2,4.19-2.57,6.5-3.27,8.4-2.54,16.59-1.61,24.61,1.78a17.54,17.54,0,0,1,8.62,7.08,17,17,0,0,1,2,8.58C748.52,119.74,748.48,124.13,748.48,128.52Zm-12,3.42a23.62,23.62,0,0,1,0-3.15,2.72,2.72,0,0,0-2-3.13,19.12,19.12,0,0,0-13.4-.75c-3.79,1.23-6.39,4.27-5.59,7.54a8,8,0,0,0,5.94,5.9c4.18,1.27,8.3.76,12.43-.35,1.78-.48,2.89-1.22,2.59-3.28A19.82,19.82,0,0,1,736.47,131.94Z" transform="translate(-60.01 -13.2)" fill="#0291cf"/><path d="M470,103.23c1.77-.49,2.85-1.75,4.21-2.51,6-3.35,12.35-4.68,19.06-2.67a15.49,15.49,0,0,1,9.59,8.27,20.24,20.24,0,0,1,1.88,9.61v26.89c0,3.14-.6,3.72-3.82,3.73-2.17,0-4.34,0-6.5,0s-3.09-.82-3.1-3.17q0-11.2,0-22.43c0-1.73-.09-3.47,0-5.19.28-4.75-3.39-7.79-7.41-8.21a11.76,11.76,0,0,0-9.73,3.5c-1.35,1.27-2.27,2.87-3.64,4.09-.66.59-.51,1.47-.51,2.27V143c0,2.83-.68,3.53-3.46,3.55-2.42,0-4.83,0-7.25,0-1.91-.05-2.69-.83-2.69-2.75q0-21,0-41.91a3.91,3.91,0,0,1,2.64-4,11.49,11.49,0,0,1,7.8-.11C469.55,98.54,470.34,100.57,470,103.23Z" transform="translate(-60.01 -13.2)" fill="#0291cf"/><path d="M542.43,148.32a34,34,0,0,1-21.93-8,25.59,25.59,0,0,1-6.5-8.54,20.91,20.91,0,0,1-1.3-14.38c1.27-5.23,4.43-9.34,8.65-12.75,6.74-5.42,14.49-7.45,22.94-7.39a38,38,0,0,1,12,2.27c1.58.54,2.28,1.55,1.71,3.29a33.2,33.2,0,0,0-1.23,4.65c-.37,2.31-1.73,2.81-3.86,1.59a15.88,15.88,0,0,0-4.83-1.82,18.32,18.32,0,0,0-17.43,5.27c-3.75,3.71-5.08,11.87-2.62,16.62a18.08,18.08,0,0,0,24.57,7.58c2.66-1.4,3.76-1.13,4.25,1.73a38.22,38.22,0,0,0,1.19,4.47c.5,1.66-.2,2.64-1.71,3.14A42,42,0,0,1,542.43,148.32Z" transform="translate(-60.01 -13.2)" fill="#0291cf"/><path d="M974.49,123.94c-.13-9.4,3.69-15.51,10.19-20.09,10.62-7.49,22.08-8.39,34.17-4.14,1.59.56,1.84,1.44,1.56,3-.39,2.14-1.41,4-2.06,6.06-.5,1.57-1.69,1.07-2.72.5a18.34,18.34,0,0,0-10.68-2.42c-5.14.45-9.47,2.42-12.67,6.63-2.41,3.18-4,6.65-3.4,10.68a16.7,16.7,0,0,0,12.92,14.09,18.89,18.89,0,0,0,13.81-1.89c1.95-1.05,2.23-.84,3,1.24a43.23,43.23,0,0,1,1.82,5.54,2,2,0,0,1-1.32,2.64c-10.26,3.81-20.39,3.52-30.19-1.32a27.39,27.39,0,0,1-11.63-10.63A21.28,21.28,0,0,1,974.49,123.94Z" transform="translate(-60.01 -13.2)" fill="#0291cf"/><path d="M1103.33,110.36c0-8.53.14-17.07-.06-25.6a5.31,5.31,0,0,1,5.54-5.71,10.93,10.93,0,0,1,4.92.63,4,4,0,0,1,2.52,3.92c0,3,0,6.07,0,9.1q0,18.92,0,37.85a6.62,6.62,0,0,0,.62,3.58,4.66,4.66,0,0,0,4.09,2.42c1.85.06,3.71.08,5.57.14,2.53.09,4.47,1.51,4.15,4.26a15.51,15.51,0,0,0,0,3c.14,2.08-.81,3.66-3.37,3.79-4.92.25-9.9.61-14.8-.45a11.52,11.52,0,0,1-9.21-11.29C1103.4,127.43,1103.34,118.9,1103.33,110.36Z" transform="translate(-60.01 -13.2)" fill="#0291cf"/><path d="M778.24,126.85c0,7.73,0,15.46,0,23.19a12.48,12.48,0,0,1-2.27,7.78,14.67,14.67,0,0,1-10,5.68,26.07,26.07,0,0,1-14.68-1.94,11.41,11.41,0,0,1-2.61-1.71,1.15,1.15,0,0,1-.09-1.8c1.53-1.66,3.09-3.29,4.59-5,1.23-1.37,2.55-.94,3.83-.23a6,6,0,0,0,3.37.75c3.89-.25,4.88-1.26,4.88-5.08,0-12.68,0-25.36,0-38,0-1.51-.33-2.2-1.91-1.92a5.76,5.76,0,0,1-.93,0c-4.35,0-6.1-2.34-4.88-6.51.56-1.87,2.09-2.36,3.77-2.38q7-.08,13.94,0c2.27,0,2.93.75,2.94,3.07q0,12.06,0,24.12Z" transform="translate(-60.01 -13.2)" fill="#0291cf"/><path d="M271.42,125.81c-7-.15-12.78-1.23-18.1-4.41-4.59-2.73-6.23-8.13-3.21-11.88a16.73,16.73,0,0,1,7.94-5.14,38.78,38.78,0,0,1,25.09,0,17.41,17.41,0,0,1,8.06,5.27,7.31,7.31,0,0,1-.48,9.27C285.11,124.67,277.87,125.35,271.42,125.81Z" transform="translate(-60.01 -13.2)" fill="#e02334"/><path d="M192.43,192.26a19.77,19.77,0,0,1-1.27,8.32c-2.18,5.09-5.18,9.5-11.35,10.2-4.41.5-7.79-1.56-10.33-4.86a21.85,21.85,0,0,1-4.17-18.39c1.1-5.23,3.25-10.05,8.36-12.9,4.65-2.6,9.76-1.26,13.17,2.17C191.09,181.07,192.56,186.36,192.43,192.26Z" transform="translate(-60.01 -13.2)" fill="#e02334"/><path d="M192.43,35.94a21.24,21.24,0,0,1-1.21,8.41c-1.75,4.42-4.29,8.24-9.09,9.9-4,1.39-7.51.36-10.64-2.3-2.89-2.46-4.44-5.65-5.57-9.25a21,21,0,0,1-.66-10.87c1.18-5.44,3.25-10.46,8.58-13.34a10.89,10.89,0,0,1,13,2.26C191,25,192.53,30.19,192.43,35.94Z" transform="translate(-60.01 -13.2)" fill="#e02334"/><path d="M87.59,125.79c-6.39-.07-12-1-17.11-4-3.06-1.78-5.69-4.12-5.65-7.93,0-3.56,2.48-6,5.4-7.52C81,100.83,92.06,100.85,103,106c3.07,1.44,5.79,3.76,6.12,7.68.25,3.11-1.51,5.22-3.75,6.92C99.94,124.67,93.57,125.6,87.59,125.79Z" transform="translate(-60.01 -13.2)" fill="#e02334"/><path d="M1044.84,123.21q0,10.11,0,20.21c0,2.34-.84,3.18-3.21,3.21s-4.46,0-6.69,0c-2.38,0-3.42-1.1-3.42-3.53,0-10.88,0-21.75,0-32.63,0-1.52-.36-2.16-1.93-1.93a9.94,9.94,0,0,1-2,0c-2.6-.2-3.89-1.74-3.88-4.57s1.25-4.21,3.91-4.27c4.76-.11,9.53-.1,14.3,0,1.95,0,2.92,1.17,2.92,3.18Q1044.86,113,1044.84,123.21Z" transform="translate(-60.01 -13.2)" fill="#0291cf"/><path d="M244,48.5a11.71,11.71,0,0,1,9.67,4,9.35,9.35,0,0,1,1.72,10c-2.95,7.47-8.59,11-16.15,12.1a12.91,12.91,0,0,1-11.42-3.49,10.82,10.82,0,0,1-2.14-10.48C228,53.07,237.58,48.12,244,48.5Z" transform="translate(-60.01 -13.2)" fill="#e02334"/><path d="M243.51,179.55a20,20,0,0,1-14.89-6.9,14.64,14.64,0,0,1-3.48-7.28c-1-5.91,3.48-11.08,9.65-11.81a19,19,0,0,1,17.93,7.28c2.05,2.52,3.57,5.29,3.39,8.6-.28,5.36-4.57,9.49-10.56,10.1A19.83,19.83,0,0,1,243.51,179.55Z" transform="translate(-60.01 -13.2)" fill="#e02334"/><path d="M114.08,48.54a19.79,19.79,0,0,1,15.68,7.89,12.52,12.52,0,0,1,2.45,5.62c1.27,6.93-2.78,11.39-9.16,12.43-6.64,1.08-12.36-1.09-17.07-5.9a14.25,14.25,0,0,1-4.31-8.24c-.85-6.54,4.21-11.22,10.56-11.79C112.84,48.49,113.46,48.54,114.08,48.54Z" transform="translate(-60.01 -13.2)" fill="#e02334"/><path d="M114,179.6c-5,.07-9.08-1.78-11.47-6.11a9.89,9.89,0,0,1,0-9.15,17.36,17.36,0,0,1,6.79-7.69c5.89-3.45,12-4.83,18.35-1.28,4,2.25,5.77,6.81,4.23,12-1.68,5.68-6,8.9-11.2,11A15.38,15.38,0,0,1,114,179.6Z" transform="translate(-60.01 -13.2)" fill="#e02334"/><path d="M143.66,60.16c0-6.7,5.66-10.27,12.13-7.37a13,13,0,0,1,7.83,10.6c.81,6.36-4.47,11.16-11.14,8.9A12.92,12.92,0,0,1,143.66,60.16Z" transform="translate(-60.01 -13.2)" fill="#0291cf"/><path d="M143.66,167.9c-.2-7.57,7.76-14,14.17-12.4,4.91,1.2,7.25,7.68,5.08,11.84-1,2-1.83,4.13-3.64,5.65-3.09,2.58-6.46,4.16-10.54,2.79C145.17,174.59,143.6,171.76,143.66,167.9Z" transform="translate(-60.01 -13.2)" fill="#0291cf"/><path d="M115.36,144a13.42,13.42,0,0,1-6.58-1.57c-4.41-2.39-3.52-7.77-1.22-10,4.87-4.78,10.71-6.52,17.46-4.74a6.82,6.82,0,0,1,5.34,5.47,6.6,6.6,0,0,1-2,5.34A17.54,17.54,0,0,1,115.36,144Z" transform="translate(-60.01 -13.2)" fill="#0291cf"/><path d="M242.06,144c-5.85-.34-10.86-2.27-14.19-7.46-1.47-2.28-.1-6.72,2.65-8,5.71-2.72,11.15-1.68,16.42,1.32a10.9,10.9,0,0,1,4.4,4.53c2,4-.44,8.11-5.4,9.24A14.34,14.34,0,0,1,242.06,144Z" transform="translate(-60.01 -13.2)" fill="#0291cf"/><path d="M242.25,84.12c3,.16,5.72.66,8.16,2.81,1.93,1.71,2,5.83.53,7.63-4.6,5.6-10.62,7.57-17.64,6.1-4.63-1-7.18-4.7-5.68-8.37a11.47,11.47,0,0,1,5.25-5.68A18.37,18.37,0,0,1,242.25,84.12Z" transform="translate(-60.01 -13.2)" fill="#0291cf"/><path d="M120.39,101.19c-5-.23-9.42-1.83-12.9-5.49A6.47,6.47,0,0,1,110.15,85c6.35-2,12.11-.68,17.25,3.69,1.73,1.47,2.24,3.43,3.07,5.29.42,1-1.28,4.13-2.39,4.93A13.17,13.17,0,0,1,120.39,101.19Z" transform="translate(-60.01 -13.2)" fill="#0291cf"/><path d="M214,167.2c.29,6.37-4.73,10.75-11.18,8.52a13.14,13.14,0,0,1-8.77-13.45c.51-5.25,5.67-8.08,10.41-6.63a12.88,12.88,0,0,1,8.22,7.1A10.26,10.26,0,0,1,214,167.2Z" transform="translate(-60.01 -13.2)" fill="#0291cf"/><path d="M214.05,60.33c-.08,6-5.6,12.12-11.59,12.49A8,8,0,0,1,194.08,66c-.81-6.58,4.41-12.94,10.4-14A7.91,7.91,0,0,1,214.05,60.33Z" transform="translate(-60.01 -13.2)" fill="#0291cf"/><path d="M288.56,159.13c-5.46-.33-10.15-2.12-13.16-7-1.3-2.13.14-5.9,2.74-7.12,4.82-2.28,9.48-1.49,14,.88a9.19,9.19,0,0,1,4.64,4.49c1.58,3.92.16,6.41-3.5,8A10.9,10.9,0,0,1,288.56,159.13Z" transform="translate(-60.01 -13.2)" fill="#0291cf"/><path d="M287.75,68.13c2.93.17,5.44.43,7.52,2.37a5.54,5.54,0,0,1,.75,7.31c-4.43,5.54-12.56,7.08-17.64,4.79-3.59-1.61-5.11-5.25-2.38-8.77C279.12,69.81,283.33,68.53,287.75,68.13Z" transform="translate(-60.01 -13.2)" fill="#0291cf"/><path d="M132.13,13.57a11.12,11.12,0,0,1,9.34,6.16,14.11,14.11,0,0,1,1.66,5.18,7.32,7.32,0,0,1-8.83,7.56A11.32,11.32,0,0,1,126,25.85a11.53,11.53,0,0,1-1.33-5C124.75,17.16,127.85,13.26,132.13,13.57Z" transform="translate(-60.01 -13.2)" fill="#0291cf"/><path d="M68.5,69c5.15.15,9.2,1.69,12.39,5.1a5.93,5.93,0,0,1-2.74,9.67C72.22,85.52,67,84,62.38,80a7.54,7.54,0,0,1-2.32-4.46c-.41-2.46,1.91-5.14,4.94-6A11.63,11.63,0,0,1,68.5,69Z" transform="translate(-60.01 -13.2)" fill="#0291cf"/><path d="M144,203.55c0,5.08-4.53,10.42-9.71,11.21-3.81.59-7.66-1.39-8.31-5.87a11.77,11.77,0,0,1,10-13A7.21,7.21,0,0,1,144,203.55Z" transform="translate(-60.01 -13.2)" fill="#0291cf"/><path d="M231.8,20.94c.18,4.92-4.56,10.49-9.61,11.25a7.13,7.13,0,0,1-8.42-6.43,12,12,0,0,1,9-12.34C227.68,12.27,232.13,15.71,231.8,20.94Z" transform="translate(-60.01 -13.2)" fill="#0291cf"/><path d="M232.61,207c.23,6.71-6.06,9-11,6.56a11.82,11.82,0,0,1-7-9.81c-.66-6.55,5.45-10.35,11.43-7.25C230.22,198.7,232.66,202.16,232.61,207Z" transform="translate(-60.01 -13.2)" fill="#0291cf"/><path d="M69.43,159.93a13,13,0,0,1-5.56-1.21c-4.47-2-3.72-7.39-1.26-9.65,4.22-3.88,9.25-5.48,15-4.1,2.4.58,4.49,1.67,5,4.31A6.71,6.71,0,0,1,80.08,156,16.83,16.83,0,0,1,69.43,159.93Z" transform="translate(-60.01 -13.2)" fill="#0291cf"/><path d="M770.3,79a10.8,10.8,0,0,1,5.08.78,6.31,6.31,0,0,1,3.86,6.12,6,6,0,0,1-4.35,5.78c-3.49,1-7,1.25-10.44-.49-2.41-1.23-4-4.27-3.35-6.71a7.05,7.05,0,0,1,5-5.13A12.56,12.56,0,0,1,770.3,79Z" transform="translate(-60.01 -13.2)" fill="#0291cf"/><path d="M1036.5,79c2.82-.08,5.2.27,7.33,2.23a6.45,6.45,0,0,1-1.29,9.94c-3.1,2-10,1.53-12.79-.82a6.36,6.36,0,0,1,2-10.76A12,12,0,0,1,1036.5,79Z" transform="translate(-60.01 -13.2)" fill="#0291cf"/><path d="M156.69,90.14c0,2.76-2,4.77-5.19,5.13a9,9,0,0,1-8.93-5.46,5.23,5.23,0,0,1,2.31-5.69,7.82,7.82,0,0,1,8.25.41C155.12,85.76,156.77,87.47,156.69,90.14Z" transform="translate(-60.01 -13.2)" fill="#e02334"/><path d="M156.69,138c.19,2.82-2.78,5.9-6,6.59-4.4,1-6.22-.29-8.06-3.09-.93-1.43.41-5.26,2.33-6.67,2.38-1.74,5.05-2.67,8-1.67C155.34,134,156.89,135.66,156.69,138Z" transform="translate(-60.01 -13.2)" fill="#e02334"/><path d="M138.26,119.6c-3.88-.06-6.4-1.17-8.11-3.86-1-1.57.34-4.93,2.5-6a10,10,0,0,1,10.38.41c2.51,1.56,2.64,6,.17,7.68A9.33,9.33,0,0,1,138.26,119.6Z" transform="translate(-60.01 -13.2)" fill="#e02334"/><path d="M206.32,132.81c3.65,0,7.06,1.94,8.11,4.45,1.58,3.8-.18,6.93-4.27,7.52a8.3,8.3,0,0,1-7.62-2.78,5.55,5.55,0,0,1-1-6.37C202.56,133.46,204.6,133,206.32,132.81Z" transform="translate(-60.01 -13.2)" fill="#e02334"/><path d="M207.42,95.29c-3.31,0-5.43-1.26-6.13-3.37a6,6,0,0,1,2.39-6.77c2.72-2.08,5.66-2.71,8.76-1.06a5.25,5.25,0,0,1,1.14,8.21A8.94,8.94,0,0,1,207.42,95.29Z" transform="translate(-60.01 -13.2)" fill="#e02334"/><path d="M172.23,79c-.28-3.13,3-6.61,6.55-6.56a6.52,6.52,0,0,1,.09,13C175.24,85.58,172,82.07,172.23,79Z" transform="translate(-60.01 -13.2)" fill="#e02334"/><path d="M220.84,119.56c-3.64.07-6-1.08-7.87-3.22-1.48-1.71-.17-5.37,2.32-6.6a9.86,9.86,0,0,1,10,.28,4.69,4.69,0,0,1,0,8A10,10,0,0,1,220.84,119.56Z" transform="translate(-60.01 -13.2)" fill="#e02334"/><path d="M172.23,149.22c-.31-3.08,3-6.64,6.51-6.6a6.52,6.52,0,0,1,.17,13C175.32,155.78,172,152.34,172.23,149.22Z" transform="translate(-60.01 -13.2)" fill="#e02334"/><path d="M361.81,126.9c0-2.9,0-5.8,0-8.7,0-.74,0-1.33,1-1.35,4.2-.08,8.4-.74,12.58,0,3.82.72,7.22,2.27,9.14,5.83,3.18,5.93-.53,11.41-6,13.35-5.18,1.85-10.61,1.27-16,.88-1-.07-.79-.76-.79-1.33C361.8,132.71,361.81,129.8,361.81,126.9Z" transform="translate(-60.01 -13.2)" fill="#fefefe"/><path d="M361.81,98c0-2.53.05-5.07,0-7.6,0-1,.35-1.45,1.32-1.53,5.24-.46,10.45-.51,15,2.66,5.11,3.55,4.56,9.46.24,12.88-4.69,3.7-10.35,3-15.86,2.46-.89-.09-.67-.76-.67-1.26C361.8,103,361.81,100.5,361.81,98Z" transform="translate(-60.01 -13.2)" fill="#fefefe"/><path d="M956.14,122.87a16.81,16.81,0,0,1-3.44,11c-4.86,6.12-12.84,6.57-17.92.57-4.32-5.11-5.18-11-3.48-17.07,1.62-5.78,5.87-10.65,12.21-10.64,4,0,6.87,2,9.24,4.93C955.34,114.91,956.18,118.7,956.14,122.87Z" transform="translate(-60.01 -13.2)" fill="#fefefe"/><path d="M574.54,122.09a15.76,15.76,0,0,1,3.32-10.17c4.46-6.1,12.24-7.08,17.49-1.57s6,12.07,3.73,18.82c-1.93,5.7-5.72,9.49-11.86,9.57-4.11,0-7.18-2.08-9.42-5.24C575.22,129.87,574.54,127.09,574.54,122.09Z" transform="translate(-60.01 -13.2)" fill="#fefefe"/><path d="M437.46,131.94c0,.74,0,1.48,0,2.22,0,3.83.51,3.07-3.05,4-4.45,1.21-9,1.59-13.38-.59-2.51-1.25-4.16-3.16-4.15-6.17s2.35-5.82,6.2-6.75a20.47,20.47,0,0,1,13,1.06,1.93,1.93,0,0,1,1.38,2.12C437.38,129.22,437.46,130.58,437.46,131.94Z" transform="translate(-60.01 -13.2)" fill="#fefefe"/><path d="M820.26,131.82a16,16,0,0,0,0,2.59c.36,2.15-.47,3.21-2.62,3.7-4.65,1-9.22,1.65-13.79-.39-3.67-1.65-5.45-6.05-3.52-9.35a8.35,8.35,0,0,1,5.52-3.69,19.62,19.62,0,0,1,13.53,1.41,1.39,1.39,0,0,1,.87,1.46C820.23,129,820.26,130.4,820.26,131.82Z" transform="translate(-60.01 -13.2)" fill="#fefefe"/><path d="M1083.75,132v1.85c0,3.62,0,3.72-3.48,4.51-4.59,1-9.15,1.37-13.53-1-3.21-1.73-4.69-5.68-3-8.77a8.25,8.25,0,0,1,5.24-3.76,19.63,19.63,0,0,1,13.55,1,1.9,1.9,0,0,1,1.24,2C1083.68,129.25,1083.75,130.61,1083.75,132Z" transform="translate(-60.01 -13.2)" fill="#fefefe"/><path d="M736.47,131.94a19.82,19.82,0,0,0,0,2.78c.3,2.06-.81,2.8-2.59,3.28-4.13,1.11-8.25,1.62-12.43.35a8,8,0,0,1-5.94-5.9c-.8-3.27,1.8-6.31,5.59-7.54a19.12,19.12,0,0,1,13.4.75,2.72,2.72,0,0,1,2,3.13A23.62,23.62,0,0,0,736.47,131.94Z" transform="translate(-60.01 -13.2)" fill="#fefefe"/></svg>