<svg id="Capa_1" data-name="Capa 1" xmlns="http://www.w3.org/2000/svg" viewBox="0 0 1695.95 396.66"><path d="M1423,189.36c-.92-13,8.2-17.68,17.92-21.21,33-12,66.46-22.9,100.85-30.5,61.42-13.57,123.15-24.78,186.45-23.8,18.73.29,21.15,2,27.49,19.2q3.88,10.56,8.16,21c6.86,16.81,5.77,19.16-11.78,22.41-22.63,4.19-45.42,7.62-68,12.23-73.44,15-146.43,31.77-216.95,57.7a124.54,124.54,0,0,1-14.42,4.33c-7.59,1.8-13.6-.91-16.22-8.2C1430.28,225.23,1426.46,207.31,1423,189.36Z" transform="translate(-76.92 -48.22)" fill="#fec905"/><path d="M1583.79,330c-8.35.47-14.08-3.38-16.84-10.75-8.18-21.83-16.35-43.68-23.73-65.79-3.69-11,1.27-17.74,15-21.21q57.78-14.64,115.75-28.59c18.71-4.47,37.61-8.2,56.52-11.78s23-1.08,29.21,16.39c4.19,11.77,7.86,23.73,11.91,35.55,3.29,9.6.45,16.26-9.15,19.92q-83.81,31.95-167.64,63.84C1591.31,328.87,1587.46,329.19,1583.79,330Z" transform="translate(-76.92 -48.22)" fill="#e92720"/><path d="M1002.59,318.46c12.89-16.43,25.56-26.51,44-26.87,16-.32,28.87,4.67,36.36,19.53,3.49,6.92,6.63,7.7,11.35,1,9.72-13.82,24.21-18.61,40.22-19.94,21.64-1.79,38.19,10.23,41.28,31.44,5.38,36.92,3,74.12,2.54,111.24,0,.42.12.94-.08,1.23-8.27,12-20.36,3.56-30.53,5.48-7.11,1.35-8-3.41-7.61-9.28,1.79-28.34,1.77-56.72.76-85.08-.32-9.16-.37-19.63-11.82-22.39-11.86-2.85-21.16,2.36-27.69,12.56-7,10.89-10,22.82-10,35.63,0,19.61-.23,39.23.13,58.84.13,6.82-1.64,9.35-9,9.55-28.2.74-28.2,1-28.19-26.69,0-22.53.34-45.07,0-67.59-.15-9.11-.35-19.71-11.56-22.65-12-3.17-21,3.21-27.59,13-6.76,10-9.06,21.49-9.23,33.31-.3,20.44-.52,40.89-.14,61.33.13,6.81-1.36,9.4-8.73,9.74-29.26,1.33-29.25,1.59-29.25-27.14,0-32.55.61-65.11-.32-97.64-.33-11.61,3.49-16.95,14.55-18.18a52.45,52.45,0,0,0,7.34-1.73c10.31-2.63,16.33-.6,13.32,11.79C1002.19,310.79,1002.59,312.9,1002.59,318.46Z" transform="translate(-76.92 -48.22)" fill="#273480"/><path d="M173.71,340.66c24.61,10.18,33.32,27.85,29.73,51.77-3.81,25.4-19.77,39.37-44.05,45.3-25.21,6.16-50.82,3.41-76.3,3.67-5.33.05-6.14-2.54-6.14-6.94q.12-87.54,0-175.1c0-5.12,1.34-7.54,7-7.59,23.43-.23,46.89-2.64,70.25,1,20.87,3.3,39.58,10.2,45.06,33.51S195.19,326.93,173.71,340.66ZM111.47,385c2.18,7.49-5.4,20.68,3.31,25.2,10.3,5.35,23.79,2.5,35.36-2.38a25.77,25.77,0,0,0,5.39-3.15c10.53-7.95,13.27-24.63,5.52-34.74-7.28-9.5-18.25-11.33-29.11-12.53-19-2.1-20.47-.58-20.47,18.49Zm.56-78c3.37,6.58-6.73,18,4.9,22.76,8.85,3.59,18.91.77,28.16-2.14a21.78,21.78,0,0,0,3.46-1.44c9.95-5,14.86-13.1,13.89-24.21s-8.18-16.65-18.26-19.41C119.33,275.72,112.35,280.77,112,307Z" transform="translate(-76.92 -48.22)" fill="#26337f"/><path d="M1234.6,317c9.53-11.31,22.21-16.92,37.05-17.58,23.19-1,41.2,13.22,47.81,37.91a105.76,105.76,0,0,1,2,44.64c-5.89,36.09-25.23,54.69-61.67,60.58-17.22,2.78-34.15,1.58-51.16-1.46-8.69-1.56-12.24-5.13-12.15-14.88q.87-85,0-170c-.07-8.89,2.92-12.8,11.12-14.66,33.55-7.62,25.84-7.38,26.83,19.16C1235.16,279.37,1234.6,298.07,1234.6,317Zm-1.94,75.52c0,5-.11,10,0,14.95.11,3.59,1.51,5.81,5.59,7,17.44,5,36.06-2.9,42.72-19.47,7-17.31,6.38-35.13-.26-52.37-5-13-17.83-16.62-29.86-9.36A30,30,0,0,0,1236.77,353C1233.79,366,1233,379.26,1232.66,392.54Z" transform="translate(-76.92 -48.22)" fill="#26337f"/><path d="M1660,48.22c11.81.56,24.77,1.24,37.73,1.77,10.81.45,17.44,5.91,22,15.6,15.23,32,15.44,32-19.26,33.93-65.86,3.66-130.75,13-194.23,31.33-20.22,5.84-23.16,3.89-29.94-16.35-.93-2.77-1.83-5.55-2.72-8.33-8.67-27.21-8.46-28,20-35.6C1547.74,56.19,1603,50.07,1660,48.22Z" transform="translate(-76.92 -48.22)" fill="#26337f"/><path d="M811.81,377.61c.23-58.89,34.87-90.39,86.64-83.7,24.62,3.19,41.54,16.41,49.7,40.1,12.87,37.42,0,81.42-29.95,99.05-25.28,14.88-51.87,15.95-77.79,1.82C815.66,421.38,812.86,397,811.81,377.61Zm38.37-9.52c.36,6.8.93,15.11,3.74,23.05,3.88,11,10.73,19.06,23,20.32,12.77,1.31,23.18-3.52,29.56-14.81,10.07-17.82,11.12-36.5,2.78-55.19-6-13.54-17.33-18.66-31.83-15.63C859.51,329.58,850.12,343.62,850.18,368.09Z" transform="translate(-76.92 -48.22)" fill="#26337f"/><path d="M744.28,362.18c-.15,51.11-30.82,83.52-77.61,82-34.23-1.12-57.26-22.1-61.6-56A111.61,111.61,0,0,1,607,349.58c10.33-46.55,57.65-70.27,101.49-50.79C736,311,744.31,334.37,744.28,362.18Zm-38,1.69a68.71,68.71,0,0,0-.8-9.1c-3.37-18.57-14.87-30.29-29.59-30.45s-26.74,11.48-31,29.3c-3.07,12.95-1.86,25.7,2,38.11,3.43,11,10.58,18.83,22.84,20.32,12.52,1.52,22-3.7,28.6-14C704.36,388.71,706.54,378.21,706.25,363.87Z" transform="translate(-76.92 -48.22)" fill="#26337f"/><path d="M298.63,422c-13.1,14.53-27.45,23-45.82,22-16-.87-29.72-6.71-36.76-22s-4.1-30.31,6.34-43.39c14.68-18.37,35.44-23.76,57.64-26.55,5-.63,14.32,4.83,14.94-5.55.59-9.88-1.94-19.29-13.55-22.66-14.9-4.33-29-.78-43,4s-14.34,4.92-15-9.07c-1.06-20.77-5.56-17.36,17.5-23,18.53-4.5,37.19-6,56-1.91,20.63,4.47,32.36,16.56,34.37,37.63,3.24,34.09,1.35,68.36,2.46,102.54.19,5.61-2.25,7.35-7.47,7.11-5.43-.25-11-.62-16.33.07-9.56,1.24-13.21-2.27-11.32-11.7C299,427.75,298.63,425.76,298.63,422Zm-11.79-45c-9.65,1.29-20.82,1.67-30,8.42-6.86,5-11.08,11.71-7.48,20.56,3.54,8.68,11.12,9.28,19,8.21,14.82-2,26.79-16.67,26.91-31.77C295.34,376.41,291.87,376.9,286.84,377.05Z" transform="translate(-76.92 -48.22)" fill="#273480"/><path d="M1474.49,424.47c-9.8,10.72-22.34,16.89-36.66,18.88-16.27,2.26-31.2-1-41.3-15.09-9.74-13.63-8.28-28.4-1.49-42.74,7.52-15.9,21.57-24,37.8-28.45,8-2.17,16.67-1.86,24.71-3.93,5.2-1.35,14.43,3.62,15-6.31s-1.66-19.39-13.22-22.87c-8.17-2.45-16.54-3.2-24.82-1.21a227.81,227.81,0,0,0-25.21,7.47c-5.38,2-8,1.25-8-4.73a10.37,10.37,0,0,0-.12-1.25c-3.18-23.4-3.13-23.17,20.59-28.45,19.9-4.43,39.57-6.12,59.42.34,16,5.23,26.44,16.15,27.33,32.37,1.93,35.33,1.94,70.75,2.76,106.14.08,3.69-.53,6.67-5.22,6.65-8.38,0-16.87.88-25.1-.23C1470.31,439.62,1479.68,429.64,1474.49,424.47Zm-9-48c-11.58.64-20.81,2.75-29.31,7.55-8,4.5-13.61,10.73-9.66,20.18,4.07,9.75,12.51,12.73,22.69,10.35,11.54-2.69,20.56-14.31,23.2-28.12C1473.91,378.55,1471.63,375.4,1465.48,376.51Z" transform="translate(-76.92 -48.22)" fill="#273480"/><path d="M389.14,318.33c11.3-17.34,26-23.9,43.42-26,22.09-2.65,39.46,8.66,43.13,30.32,6.3,37.22,3.23,74.81,3,112.28,0,3.89-1.32,6.31-5.8,6.24-8.38-.12-16.75-.16-25.13,0-7.52.16-6.15-5.2-6.15-9.55,0-23.75.07-47.5.08-71.26,0-5.41.16-10.85-.34-16.23-.78-8.49-2.26-17.38-12.12-19.83-9.59-2.38-18.34.73-24.89,8.32-8.58,9.92-11.13,22.16-12.54,34.69-2.34,20.8-1.12,41.65-.21,62.45.36,8.18-1.16,11.71-10.6,11.64-27.48-.18-27.48.26-27.48-27.26,0-32.5.43-65-.25-97.51-.22-10.73,1.66-16.58,13.72-18.61C385.92,294.85,385.77,294,389.14,318.33Z" transform="translate(-76.92 -48.22)" fill="#273480"/><path d="M564.34,293.81c2.09,0,4.19-.07,6.28,0,25.78,1.05,29.11,6,21.73,30.81-1.37,4.62-3.55,4.88-7.25,3.85-4-1.13-8.06-2.3-12.15-3.18-15.47-3.31-29.52,3.55-36.21,17.85-6.46,13.82-6.93,28.33-3.2,42.79,5.61,21.76,20.52,29.47,46.17,22.66,10.76-2.86,13.68-1,14.17,10,.85,19.15,1.57,19.17-17,22.87-8.61,1.72-17.22,3.32-26.12,3.06-27.58-.8-48-16-55.57-42.33a102.1,102.1,0,0,1,.34-58C505.42,310.61,529.07,293.37,564.34,293.81Z" transform="translate(-76.92 -48.22)" fill="#273480"/><path d="M796.75,339.72c0,30-.26,60.09.17,90.13.12,8.29-1.58,11.65-10.87,11.58-26.47-.21-26.48.23-26.48-25.93q0-80.13-.05-160.25c0-5.2-.22-9.82,6.32-11.77,9.2-2.75,18.31-7.25,27.95-4.3,3.53,1.08,1.81,6.81,1.83,10.41.13,30,.07,60.09.07,90.13Z" transform="translate(-76.92 -48.22)" fill="#273480"/><path d="M1377.31,368c0,20.8-.45,41.62.2,62.4.29,9-2.87,11.06-11.41,11-28.65-.17-28.65.15-28.65-28.55,0-35.78.2-71.56-.17-107.34-.07-7.29,1.71-10.11,9.42-10.82,30.63-2.83,30.61-3.1,30.61,27.12Z" transform="translate(-76.92 -48.22)" fill="#273480"/><path d="M1381.09,253.5c.18,13.16-9.23,22.82-22.6,23.2-12.81.36-23-9.62-23.2-22.66-.18-12.71,9.85-22.24,23.44-22.28C1371.71,231.73,1380.92,240.68,1381.09,253.5Z" transform="translate(-76.92 -48.22)" fill="#273480"/></svg>