<svg id="Capa_1" data-name="Capa 1" xmlns="http://www.w3.org/2000/svg" viewBox="0 0 1055.91 208.15"><path d="M189.55,134.37c-1.22,1.49-2.51,3.28-4,4.85-23,24-46.1,47.8-68.89,72-5,5.26-7.87,5.35-13-.1q-34.08-36.36-69.08-71.76c-4.89-5-3.77-7.54.36-11.76C58.17,103.85,81.33,80.09,104.13,56c4.9-5.19,7.84-4.86,12.28.07,8.24,9.16,16.7,18.15,25.53,26.68,4.8,4.63,4.54,7.94-.39,11.75a18.29,18.29,0,0,0-3.85,4c-6.32,9.23-12.24,8.82-18.53-.22-5.49-7.89-10.81-9.42-17.91-.63-8.45,10.44-18.13,19.86-27.79,29.15-5.45,5.24-5,8.61.27,13.66Q89,155.18,103.16,171.14c5.16,5.83,8.55,6,13.93.16,14.89-16.23,30.79-31.48,45.4-48,7.2-8.12,12.41-9.06,18.79,0C183.81,126.91,188.22,129,189.55,134.37Z" transform="translate(-31.37 -7)" fill="#178dcb"/><path d="M91.72,115.65c5.21,2.49,8.82,7,12.32,11.19,4.57,5.52,7.75,4.89,12.26-.1,9.51-10.53,19.45-20.65,29.38-30.76,4.67-4.75,6-9,.72-14.42q-15.68-16-30.86-32.45c-4.53-4.93-7.63-3.47-11.66.81C88,66.79,71.59,83.06,56,100.21c-6.54,7.2-11,6.65-16.82-.3-9.71-11.62-9.94-11.52.63-22.54C61,55.3,82.45,33.45,103.42,11.15c5-5.26,8-5.72,13.11-.23Q149.88,46.44,184,81.14c5.64,5.72,5.11,9.11-.25,14.55Q150,130,117.06,165.11c-5.23,5.57-8.64,6.29-13.91.13a253.09,253.09,0,0,0-23.34-24.1c-6.58-5.9-6-10.26.33-15.31C84.13,122.67,86.44,117.38,91.72,115.65Z" transform="translate(-31.37 -7)" fill="#178dcb"/><path d="M230.56,106.58c0-9.87.2-19.74-.09-29.59-.17-5.45,1.8-7.45,7-7.25,9.83.37,19.73-.28,29.5.62,15.09,1.4,22.55,14,16.72,28.42-2,4.87-.84,7.5.85,12,7.28,19.54.45,31.87-18.14,32.88-9.82.54-19.69,0-29.53.27-4.7.12-6.46-1.73-6.35-6.64C230.73,127.07,230.56,116.82,230.56,106.58Zm25,26.79c8.71,0,17.29.89,17.38-11,.09-12.18-8.89-10.12-16.36-11-8.37-.93-11.18,1.82-11.08,11C245.56,131.34,247.7,135.28,255.53,133.37Zm0-32.83c7.75.44,14.88.39,15-10.19.15-11.61-8.41-8.86-14.85-9.74-7.23-1-10.2,1.29-10.21,9.7S247.63,102.47,255.53,100.54Z" transform="translate(-31.37 -7)" fill="#27324a"/><path d="M715.89,107.91c-.34,32.37-27.3,48.45-54.8,32.72a21.41,21.41,0,0,1-10.38-14,99.85,99.85,0,0,1-2.45-15.69c-2.61-32.62,15.62-48.56,46.16-40.53C709.06,74.23,716.11,86.56,715.89,107.91Zm-52.43,2.31a90.51,90.51,0,0,0,1.1,11.4c1.46,7.62,6.4,11.66,13.77,12.29s15.81,1,19.15-7.19a49.84,49.84,0,0,0-.24-38.65c-2-4.81-6.4-7-11.3-8C670.28,77,663.34,85.25,663.46,110.22Z" transform="translate(-31.37 -7)" fill="#178dcb"/><path d="M883.85,106.51c0,8.72-.64,17.51.18,26.16.86,9.11-2.74,12.28-10.88,12-3.26-.12-6.55.62-9.81.53-24.05-.62-35.24-18.37-26.66-41.94C840.58,92.5,849,89.57,858.59,90c7.44.35,11-1.52,10.08-9.81-.69-6.15-.28-11,8.17-10.76s7,5.75,7,10.89C883.89,89.06,883.85,97.79,883.85,106.51Zm-15.23,11.8c0-2.65.14-5.32,0-8-.31-4.93,1.83-11.65-6.36-11.68-7.43,0-11.49,4.2-11.6,12-.07,5.29-.4,10.72.53,15.86,1.27,7,6.45,10,13,9.37,7-.71,3.76-6.84,4.42-10.78A41.78,41.78,0,0,0,868.62,118.31Z" transform="translate(-31.37 -7)" fill="#178dcb"/><path d="M568.3,106c0,8-.88,16.06.2,23.86,1.7,12.34-3.68,15-14.26,15.47-25.32,1.07-35.76-8.05-34.31-31.61,1-16.55,7.32-23.6,23.26-23.45,8,.08,11.6-1.68,10.46-10.49-.71-5.51-.73-10.15,7.33-10.22,8.29-.06,7.38,4.88,7.34,10.27C568.24,88.5,568.3,97.22,568.3,106Zm-14.65,12.17h0c0-3,.1-6,0-9.06-.17-4.25,1.6-9.84-5.15-10.31-6-.42-10.8,1.61-12.06,8.62a48.38,48.38,0,0,0,.35,20.23c1.61,6.57,6.82,8.68,12.67,8.21,6.35-.51,3.7-6.13,4.19-9.77A59.72,59.72,0,0,0,553.65,118.12Z" transform="translate(-31.37 -7)" fill="#27324a"/><path d="M338.49,122.08a3.63,3.63,0,0,1,0,1.14c-2.1,6.67,4.92,16.3-3.86,20.23-13.38,6-37.27.44-42.36-9.29-3.29-6.29-4.39-13.43,3.35-18.75,6.41-4.41,13.41-5.59,20.67-6.54,2.62-.35,6.71.69,6.29-4-.35-3.92-3.38-5.7-7.12-5.32-4.36.44-8.69,1.18-13,1.83-2.82.42-5,.19-5.43-3.57-.4-3.27.68-5.21,3.68-5.8,9.37-1.85,18.83-3.37,28.08.13,6.57,2.47,9.4,8.12,9.67,15.13C338.63,112.2,338.48,117.14,338.49,122.08Zm-15.14,5.15c0-4.6,1-9.51-6.24-8.77-5.2.54-9.79,1.74-10.07,7.94-.3,6.68,4.21,8.93,9.94,9.52C323.87,136.64,323.56,131.9,323.35,127.23Z" transform="translate(-31.37 -7)" fill="#27324a"/><path d="M574,117.68c0-19.56,7.53-27.77,25.34-27.52,16.81.24,24.8,8.52,24.68,24.79,0,4.89-1.22,7-6,6.77-6.56-.23-13.14-.22-19.7,0-3.3.12-8.14-1.41-8.27,4.45a9.11,9.11,0,0,0,6.94,9.17c5.43,1.59,10.84.11,16.22-1,3.64-.76,7.66-1.76,8.18,4.1.46,5.11-3.27,5-6.58,5.31-5.44.51-10.91,1.69-16.32,1.46C580.67,144.45,574.07,136.77,574,117.68Zm25-4.47c3.06-1.8,9.7,3.17,9.41-5.07-.2-5.63-3.84-9.09-9.3-9s-9,3.74-9.19,9.26C589.68,115.6,595.57,112,599,113.21Z" transform="translate(-31.37 -7)" fill="#27324a"/><path d="M345.33,118.48a18.45,18.45,0,0,1,0-3.41c1.46-7.06-4.27-17.2,3.31-20.88,11.61-5.65,24.8-6.84,37.15-.71,5.21,2.59,7.51,7.9,8.55,13.85,1.66,9.45.46,19,1.15,28.44.5,6.85-2.36,8.15-8.25,8.24-6.17.09-7.23-2.67-7.13-8.21.17-8.72-.11-17.48-.64-26.19-.44-7.23-4.45-10.89-11.58-10.67-8,.25-7.87,6-7.74,12,.18,8.74-.3,17.51.15,26.23.37,7.26-4,6.38-8.46,6.76-5.47.47-7-1.9-6.65-7.19C345.58,130.67,345.31,124.57,345.33,118.48Z" transform="translate(-31.37 -7)" fill="#27324a"/><path d="M917,145.29c-9.94-.84-20.06-1.14-24.34-12.25-4.53-11.79-4.63-23.9,2.31-34.91,4.88-7.73,20.17-10.54,31.32-6.51,8.84,3.19,14.16,12.69,14,23.45-.09,5.08-2,6.67-6.5,6.56-6.19-.16-12.4-.15-18.59,0-3.4.1-8.18-1.3-8.55,4.32-.38,5.84,3.2,9.49,8.6,9.66,5,.15,10.11-1,15.16-1.68,3.53-.46,6.79-.49,7.12,4.45.28,4.21-2.52,4.86-5.65,5.18C926.79,144.12,921.72,144.75,917,145.29Zm-.85-31.87c2.34-2,8.61,2.68,8.34-4.79-.19-5.35-3.23-9.48-8.82-9.72s-9.12,3.18-9.5,8.79C905.65,115.57,911.9,112.24,916.16,113.42Z" transform="translate(-31.37 -7)" fill="#178dcb"/><path d="M1036.91,117.57c.11-18.41,7.45-27,23.51-27.52,16.49-.53,25.17,6.7,26.69,21.75.69,6.9-.53,10.94-8.47,10.12-5.78-.6-11.66-.19-17.5-.06-3.14.07-7.14-.7-7.4,4.35-.25,4.73,2.08,8.2,6.54,9.22,5.82,1.35,11.61-.2,17.35-1.29,3.66-.69,6.71-.41,7.06,4.43.32,4.37-2.74,4.7-5.76,5-5.44.58-10.88,1.74-16.31,1.66C1044.65,145,1036.79,136.29,1036.91,117.57Zm25.27-4.27c3.19-1.44,9.19,2.69,9.38-4.15.17-5.79-3.26-10.25-9.47-10.16-5.56.08-8.85,3.81-8.92,9.45C1053.09,115.56,1058.85,112.11,1062.18,113.3Z" transform="translate(-31.37 -7)" fill="#178dcb"/><path d="M496.05,117.5c0,19.57-8,27.89-26.56,27.67C450.7,145,443.17,137,443,117.26c-.16-18.85,8.22-27.23,27.09-27.12C487.8,90.24,496.07,99,496.05,117.5ZM481,116.71c-.17-6.38,0-15.68-11.17-17.61-4.17-.72-8.49,1.33-9.51,5.82-2.1,9.21-3.19,18.78,1.45,27.52,2.16,4.05,6.87,4.4,10.81,3.24C480.57,133.31,480.84,126.2,481,116.71Z" transform="translate(-31.37 -7)" fill="#27324a"/><path d="M946.56,118.93v-4.56c0-21.72,2.84-24.56,24.33-24.54,17.6,0,24.66,7.6,24.84,26.73,0,6.08-.17,12.17.07,18.24.22,5.54-.17,9.26-7.32,9.2-6.79-.06-7.8-3.11-7.62-9,.26-8.34.15-16.71-.31-25-.4-7.09-4.08-11-11.36-10.9-8,.16-8.14,5.55-8,11.75.24,8.72-.13,17.47.14,26.2.17,5.81-2.7,6.86-7.46,6.84s-7.78-.67-7.43-6.7S946.56,125,946.56,118.93Z" transform="translate(-31.37 -7)" fill="#178dcb"/><path d="M1024.06,145.19c-12.17-.24-16.11-4.15-16.65-16-.28-6.07-.07-12.17-.08-18.25,0-4.88,1-10.26-6.14-11-2.15-.21-3.39-3.59-2.57-4.14,6.34-4.26,7.2-13.37,13.17-16.94,3.49-2.09,10.9-2.86,10.7,6.08-.12,5.39,3,6.15,7.08,6.15,2.43,0,4.2,1.19,4.32,4,.09,2.5-.67,5.13-3.28,5-9.49-.56-8.19,6.18-8.13,12.25,0,4.95,0,9.89.06,14.83,0,3.16.33,6.39,3.78,7.39,3.62,1,9.41-.07,7.9,6.34C1032.82,146.88,1026.62,143.38,1024.06,145.19Z" transform="translate(-31.37 -7)" fill="#178dcb"/><path d="M736.53,117.81c.31,16.6,2.27,18.56,18.78,17.34,3.69-.27,6.72-.44,7.44,4.07,1,5.93-3.92,4-6.57,4.85a20,20,0,0,1-5.38.93c-10.35.48-21.66,1.23-26.7-10.41-5.24-12.12-5.32-25.33,1.54-37.18,4.24-7.33,28-10.53,34.83-5.58a4.5,4.5,0,0,1,1.81,4.9c-.36,2-1.19,3.68-3.33,3.86a23.49,23.49,0,0,1-4.32-.37C739.15,98.46,736.22,101.3,736.53,117.81Z" transform="translate(-31.37 -7)" fill="#178dcb"/><path d="M791.3,90c3,.3,6.59.66,10.22,1,3.35.34,5.61,1.71,4.94,5.77-.69,4.24-3.56,4.21-6.64,3.63-6-1.15-13-4.16-16.87,3-4.53,8.3-3.87,17.8-.85,26.49,2.78,8,9.95,6,16.06,5.5,3.47-.3,7.72-2.47,8.59,3.46,1,6.61-4.45,4.68-7.44,5.25-10.64,2-22,3.25-29.34-6.69-7.66-10.42-6.14-23.3-2.74-35S780.8,90.08,791.3,90Z" transform="translate(-31.37 -7)" fill="#178dcb"/><path d="M426.54,90.12c5.16,2,15.19-3.08,14.91,5.74-.33,10.4-9,2.45-13.79,2.81-5.38.41-9.36,2.06-10.62,7.71a47.86,47.86,0,0,0,.12,22.48c2.25,8.73,8.94,7.14,15.13,6.95,3.46-.1,8.45-4.09,9.77,2.76,1.42,7.36-4.76,5.18-8,5.71-32.82,5.42-36.6-14.4-32.22-39.13C403.94,93.5,411.34,89.85,426.54,90.12Z" transform="translate(-31.37 -7)" fill="#27324a"/><path d="M828.46,117.86c0,5.67-.2,11.35.06,17s-.13,9.23-7.23,9.22c-6.82,0-7.73-3.16-7.61-9q.39-18.13,0-36.3c-.12-5.57,1.3-8.22,7.31-8.11,5.59.1,7.9,1.86,7.55,7.85C828.17,105,828.46,111.43,828.46,117.86Z" transform="translate(-31.37 -7)" fill="#178dcb"/><path d="M820.65,83.34c-4.18.46-6.92-.69-7-5.91,0-6,3.47-6.36,7.88-6.29,4.1.06,6.89.71,7,6.06C828.62,83.49,825,83.62,820.65,83.34Z" transform="translate(-31.37 -7)" fill="#178dcb"/><path d="M255.53,133.37c-7.83,1.91-10-2-10.06-11-.1-9.16,2.71-11.91,11.08-11,7.47.84,16.45-1.22,16.36,11C272.82,134.26,264.24,133.35,255.53,133.37Z" transform="translate(-31.37 -7)" fill="#fcfdfd"/><path d="M255.53,100.54c-7.9,1.93-10-1.7-10-10.23s3-10.68,10.21-9.7c6.44.88,15-1.87,14.85,9.74C270.41,100.93,263.28,101,255.53,100.54Z" transform="translate(-31.37 -7)" fill="#fcfdfd"/><path d="M663.46,110.22c-.12-25,6.82-33.23,22.48-30.13,4.9,1,9.31,3.17,11.3,8a49.84,49.84,0,0,1,.24,38.65c-3.34,8.19-11.71,7.83-19.15,7.19s-12.31-4.67-13.77-12.29A90.51,90.51,0,0,1,663.46,110.22Z" transform="translate(-31.37 -7)" fill="#fcfdfd"/><path d="M868.62,118.31a41.78,41.78,0,0,1-.06,6.81c-.66,3.94,2.58,10.07-4.42,10.78-6.53.67-11.71-2.34-13-9.37-.93-5.14-.6-10.57-.53-15.86.11-7.8,4.17-12,11.6-12,8.19,0,6,6.75,6.36,11.68C868.76,113,868.62,115.66,868.62,118.31Z" transform="translate(-31.37 -7)" fill="#fcfdfd"/><path d="M553.65,118.12a59.72,59.72,0,0,1-.07,7.92c-.49,3.64,2.16,9.26-4.19,9.77-5.85.47-11.06-1.64-12.67-8.21a48.38,48.38,0,0,1-.35-20.23c1.26-7,6.06-9,12.06-8.62,6.75.47,5,6.06,5.15,10.31.12,3,0,6,0,9.06Z" transform="translate(-31.37 -7)" fill="#fcfdfd"/><path d="M323.35,127.23c.21,4.67.52,9.41-6.37,8.69-5.73-.59-10.24-2.84-9.94-9.52.28-6.2,4.87-7.4,10.07-7.94C324.35,117.72,323.4,122.63,323.35,127.23Z" transform="translate(-31.37 -7)" fill="#fcfdfd"/><path d="M599,113.21c-3.43-1.26-9.32,2.39-9.08-4.79.19-5.52,3.76-9.16,9.19-9.26s9.1,3.35,9.3,9C608.7,116.38,602.06,111.41,599,113.21Z" transform="translate(-31.37 -7)" fill="#fcfdfd"/><path d="M916.16,113.42c-4.26-1.18-10.51,2.15-10-5.72.38-5.61,4-9,9.5-8.79s8.63,4.37,8.82,9.72C924.77,116.1,918.5,111.45,916.16,113.42Z" transform="translate(-31.37 -7)" fill="#fcfdfd"/><path d="M1062.18,113.3c-3.33-1.19-9.09,2.26-9-4.86.07-5.64,3.36-9.37,8.92-9.45,6.21-.09,9.64,4.37,9.47,10.16C1071.37,116,1065.37,111.86,1062.18,113.3Z" transform="translate(-31.37 -7)" fill="#fcfdfd"/><path d="M481,116.71c-.13,9.49-.4,16.6-8.42,19-3.94,1.16-8.65.81-10.81-3.24-4.64-8.74-3.55-18.31-1.45-27.52,1-4.49,5.34-6.54,9.51-5.82C481,101,480.8,110.33,481,116.71Z" transform="translate(-31.37 -7)" fill="#fcfdfd"/></svg>