<svg id="Capa_1" data-name="Capa 1" xmlns="http://www.w3.org/2000/svg" viewBox="0 0 898.12 249.8"><path d="M459.56,267.05c5.71,2.64,10.88,5.07,15.53,8.6a51.39,51.39,0,0,1,16.81,22.48c5.12,12.7,4.59,25.63,2,38.49A50.58,50.58,0,0,1,486,355.55a59.36,59.36,0,0,1-26.79,21c-16,6.58-32.84,8.08-49.91,8.1q-53,0-106,0c-.51,0-1,0-1.53,0-5.27-.07-6.46-1.23-6.47-6.47q0-18.92,0-37.85V174.89c0-.81,0-1.63,0-2.44.11-4.73,1.32-6,6-6,39,0,78-.15,117,.06,14.95.08,29.21,3.62,41.93,11.82a57.56,57.56,0,0,1,13.43,12.2c5.83,7.16,8.68,15.35,10.36,24.24A41.82,41.82,0,0,1,485.1,223a57.66,57.66,0,0,1-5.75,24.28c-3.63,7.67-9.57,13.41-16.75,17.87Zm-77,19.66H340.88c-4.85,0-6.17,1.29-6.17,6.11q0,27,0,54c0,4.95,1.14,6,6.16,6q34.78,0,69.58,0c8,0,16.07-.54,23.86-2.69,9.05-2.49,16.8-6.92,20-16.35a44.57,44.57,0,0,0,.24-27.3C452.75,300.31,448.44,296,443,293c-7-3.87-14.88-5.18-22.83-5.75C407,286.29,393.77,286.9,382.6,286.71ZM377.06,255c9.87,0,19.74-.08,29.61,0a64.34,64.34,0,0,0,18.71-2c9.82-2.83,17.17-8.45,19.72-18.89a33.94,33.94,0,0,0,.78-9.39c-.35-8.83-4.17-15.87-11.56-20.54-7.14-4.5-15.34-5.87-23.65-5.92-23.4-.15-46.8-.11-70.2-.12-4.3,0-5.66,1.35-5.66,5.61q0,22.89,0,45.77c0,4.35,1.16,5.48,5.62,5.49Z" transform="translate(-58.04 -134.87)" fill="#024581"/><path d="M222,267c5.61,2.63,10.71,5,15.28,8.41a51.88,51.88,0,0,1,16.88,22.07c5.47,13.07,4.91,26.42,2.09,39.69a49.74,49.74,0,0,1-8.18,19.08,60.84,60.84,0,0,1-27.64,20.86c-14.86,5.78-30.33,7.46-46,7.51-36.55.11-73.09,0-109.64,0-5.73,0-6.69-1-6.69-6.72V172.49c0-4.91,1.13-6.08,6.13-6.08,38.78,0,77.57-.13,116.35,0,14.85.07,29,3.62,41.74,11.44a50.64,50.64,0,0,1,9.07,7.1,51.53,51.53,0,0,1,15,28.22,59.11,59.11,0,0,1,1.2,9.79,54.75,54.75,0,0,1-5.95,24.81C237.49,256.24,230.68,262.22,222,267Zm-77.05,19.71H103.5c-5,0-6.34,1.3-6.34,6.28q0,26.7,0,53.4c0,5.43,1.09,6.5,6.65,6.5,23,0,46,.05,69,0,8,0,16.08-.49,23.86-2.68,9.91-2.78,18.14-7.65,20.85-18.55a49.51,49.51,0,0,0,0-23.83c-1.65-6.88-6.12-11.67-12.06-14.89-7-3.84-14.91-5.1-22.87-5.68C169.33,286.27,156.1,286.93,144.94,286.71ZM139.55,255c10.07,0,20.15-.07,30.22,0a63.54,63.54,0,0,0,17.81-2c9.76-2.72,17.11-8.13,19.9-18.37a34.77,34.77,0,0,0,.77-11.51,23.54,23.54,0,0,0-11.68-19.18c-6.95-4.29-15-5.68-23.08-5.73-23.61-.15-47.22-.11-70.83-.12-4,0-5.41,1.48-5.42,5.59q0,22.89,0,45.78c0,4.32,1.22,5.5,5.67,5.5Z" transform="translate(-58.04 -134.87)" fill="#024581"/><path d="M934.32,353.09c-5.74,0-11.48-.07-17.21,0-2.75.05-4.38-1.11-5.77-3.5-5.86-10.08-11.39-20.36-17.14-30.5-2.78-4.89-5.28-9.93-8.15-14.77-5.94-10-11.46-20.31-17.19-30.47-2.76-4.9-5.28-9.95-8.16-14.79-6-10-11.42-20.33-17.19-30.45q-3.79-6.67-7.4-13.47a5.3,5.3,0,0,0-4.59-2.91c-2-.16-3.17,1.23-4.18,2.94-5.93,10.05-11.4,20.36-17.16,30.5-2.84,5-5.35,10.15-8.3,15.06-6,9.91-11.33,20.15-17,30.23s-11.21,20-16.81,30c-5.44,9.73-11.14,19.32-16.28,29.22a5.41,5.41,0,0,1-5.23,2.88q-17.82.09-35.64,0c-1.61,0-3.3-.29-4.06-2s.22-3.38,1.34-4.67a10.85,10.85,0,0,0,1.25-1.63c4.77-8.65,9.34-17.43,14.34-25.94,5.81-9.89,11.3-20,17.12-29.83,2.51-4.24,4.72-8.65,7.25-12.87,6.25-10.44,12-21.15,18.12-31.68,2.41-4.17,4.63-8.45,7.09-12.59,6.22-10.47,12.06-21.15,18.12-31.7,2.76-4.79,5.25-9.73,8.12-14.45,6-10,11.43-20.34,17.41-30.34,3.54-5.92,6.39-12.24,10.41-17.9,2.36-3.33,6.52-3.51,8.52.06,4.43,7.92,8.65,16,13.22,23.79,6.08,10.42,12,20.95,17.94,31.42,2.23,3.91,4.4,7.88,6.67,11.77,6.34,10.86,12.49,21.83,18.68,32.77,2.61,4.62,5,9.37,7.82,13.92,5.9,9.7,11.27,19.71,17,29.52,2.58,4.43,4.88,9,7.52,13.39,6.19,10.26,11.84,20.82,17.85,31.17,2.72,4.7,5.07,9.6,8,14.17,1.62,2.53,3.24,5,4.62,7.72,1.94,3.76.72,5.91-3.42,5.94C946,353.11,940.16,353.08,934.32,353.09Z" transform="translate(-58.04 -134.87)" fill="#024581"/><path d="M519.92,166.39c5.81,0,11.61.07,17.42,0,2.52,0,4,1,5.44,3.11,3.38,5.06,5.83,10.62,8.91,15.82,5.76,9.71,11.17,19.63,16.75,29.44,5.68,10,11.28,20,17,30,5.8,10.14,11.49,20.36,17.31,30.48,2.87,5,5.24,10.28,8.44,15,3,4.46,5.27,9.28,7.83,13.95a5.47,5.47,0,0,0,4.86,3c1.9.08,2.94-1.32,4-2.83,3.51-5,5.82-10.62,8.92-15.82,5.69-9.53,11-19.27,16.46-28.93q8.54-15.15,17.13-30.26c5.67-10,11.28-20,17-30s11.47-19.69,16.77-29.78a5.76,5.76,0,0,1,5.45-3.17c12,0,24-.08,36,0,4.23,0,5.53,2.37,3.3,6-5.87,9.53-11.11,19.42-16.86,29-2.81,4.67-5.2,9.56-8.05,14.2-6.08,9.88-11.58,20.09-17.45,30.08-2.81,4.79-5.31,9.75-8.21,14.48-6,9.88-11.58,20.07-17.39,30.1-5.66,9.77-11.25,19.58-16.9,29.35-5.76,10-11.47,19.94-17.21,29.9-5.47,9.51-11.19,18.88-16.4,28.55a33,33,0,0,1-3.4,4.93c-2,2.46-6,2-7.76-.84-.8-1.29-1.46-2.67-2.16-4-3.88-7.55-8.4-14.75-12.56-22.14-5.6-9.92-11.35-19.75-17-29.63s-11.39-19.74-17-29.63c-5.51-9.62-11-19.24-16.68-28.77-2.89-4.87-5.41-9.93-8.36-14.75-6-9.8-11.52-19.88-17.24-29.84-5.63-9.78-11.1-19.67-17-29.31-4.29-7.05-7.84-14.51-12.41-21.41-2.7-4.06-1.19-6.27,3.65-6.28C508.32,166.38,514.12,166.39,519.92,166.39Z" transform="translate(-58.04 -134.87)" fill="#024581"/><path d="M382.6,286.71c11.17.19,24.4-.42,37.61.54,8,.57,15.8,1.88,22.83,5.75,5.4,3,9.71,7.31,11.52,13.51a44.57,44.57,0,0,1-.24,27.3c-3.21,9.43-11,13.86-20,16.35-7.79,2.15-15.82,2.67-23.86,2.69q-34.79.07-69.58,0c-5,0-6.15-1.09-6.16-6q0-27,0-54c0-4.82,1.32-6.1,6.17-6.11Z" transform="translate(-58.04 -134.87)" fill="#fcfdfd"/><path d="M377.06,255H340.43c-4.46,0-5.62-1.14-5.62-5.49q0-22.89,0-45.77c0-4.26,1.36-5.62,5.66-5.61,23.4,0,46.8,0,70.2.12,8.31,0,16.51,1.42,23.65,5.92,7.39,4.67,11.21,11.71,11.56,20.54a33.94,33.94,0,0,1-.78,9.39c-2.55,10.44-9.9,16.06-19.72,18.89a64.34,64.34,0,0,1-18.71,2C396.8,254.88,386.93,255,377.06,255Z" transform="translate(-58.04 -134.87)" fill="#fefefe"/><path d="M144.94,286.71c11.16.22,24.39-.44,37.6.53,8,.58,15.82,1.84,22.87,5.68,5.94,3.22,10.41,8,12.06,14.89a49.51,49.51,0,0,1,0,23.83c-2.71,10.9-10.94,15.77-20.85,18.55-7.78,2.19-15.82,2.65-23.86,2.68-23,.07-46,0-69,0-5.56,0-6.65-1.07-6.65-6.5q0-26.7,0-53.4c0-5,1.33-6.28,6.34-6.28Z" transform="translate(-58.04 -134.87)" fill="#fcfdfd"/><path d="M139.55,255H102.92c-4.45,0-5.67-1.18-5.67-5.5q0-22.89,0-45.78c0-4.11,1.42-5.59,5.42-5.59,23.61,0,47.22,0,70.83.12,8.1,0,16.13,1.44,23.08,5.73a23.54,23.54,0,0,1,11.68,19.18,34.77,34.77,0,0,1-.77,11.51c-2.79,10.24-10.14,15.65-19.9,18.37a63.54,63.54,0,0,1-17.81,2C159.7,254.89,149.62,255,139.55,255Z" transform="translate(-58.04 -134.87)" fill="#fcfdfd"/></svg>