<svg id="Capa_1" data-name="Capa 1" xmlns="http://www.w3.org/2000/svg" viewBox="0 0 2537.68 490.13"><path d="M2352.63,517.61c44.44-13.43,84.43-32.7,108.29-75.33a261.67,261.67,0,0,1-40.78,24.7,229.45,229.45,0,0,1-80,21.56c-48.6,4.09-94.28-5.47-136.1-30.44-59.24-35.37-96.2-87.29-109.49-155-12.73-64.89.88-124.39,40.89-177.26,27.3-36.09,63-61.41,104.88-78.06a265.76,265.76,0,0,1,80.94-18.28c4.65-.32,9.3-.69,13.95-.87,1.36-.06,3.51-2.61,3.92.2.31,2.1-.19,5.18-3.7,5.49s-7.32.48-10.91,1.1c-69.21,12.09-120.74,48.83-153,111.35-15.19,29.46-18.18,61.19-13.49,93.84,11.2,78,72.61,141.24,153.78,156.55,52.12,9.83,100.92.27,145.87-28.24,3.77-2.39,4.3-4.29,2.05-8.22-11.45-20-27-36.34-44.59-50.82-40.84-33.7-86.2-59.46-136.71-75.8a344,344,0,0,0-33.82-8.64,79,79,0,0,1-8-2.69c9.35-2.62,17.76-4.51,25.83-7.33,36.86-12.88,74.88-22.6,109.88-40.57,23-11.82,45.51-24.4,64-42.9a81.93,81.93,0,0,0,11.21-14c12.64-19.89,9.44-40.12-8.74-55.13-16.26-13.43-35.55-19.93-55.77-24.18a163.42,163.42,0,0,0-38.22-3.42c-1.48,0-4.3,1.2-4.16-1.7.12-2.47.82-5,4.74-5a303.24,303.24,0,0,1,32.88,2.23c30.93,3.84,60.77,11.58,88.53,26.16,15.61,8.19,29.82,18.29,40.95,32.21,19.51,24.42,20.82,50.54,7,77.94a124.52,124.52,0,0,1-7.16,12c-1.79,2.73-2,3.89,1.84,4.87a376.39,376.39,0,0,1,61.58,21.7c2.11.94,4.19,1.94,7.53,3.5a253.71,253.71,0,0,0-31.88,4.43c-18.6,4.06-36.05,10.76-50.85,23.12-18.29,15.27-27.7,35.4-31.43,58.5a154.53,154.53,0,0,0-.28,47.23c.39-8.75.37-17.53,1.2-26.26,2.43-25.72,10-49.2,29.38-67.52a90,90,0,0,1,25-16.34c2.05-.93,3.57-1.07,5.37.6,22.6,20.93,42.1,44.19,53.05,73.43,15.28,40.76,8.71,78.89-15.46,114.32-20.7,30.36-49.06,51.89-81.57,68.12-38.42,19.19-79.1,29.35-122.22,28.89C2356.79,517.59,2354.71,517.61,2352.63,517.61ZM2464.7,351l.33.47v-5.15h-.33Z" transform="translate(-48.66 -27.5)" fill="#f6cf3a"/><path d="M175.79,258.38c2.56,1.14,4,1.77,5.51,2.45,14.81,6.85,22.69,18.74,24.17,34.68,3,32.11-15.32,55.07-47.26,59.95-12.57,1.92-25.21,2-37.88,2-14.66,0-29.32-.18-44,.09-4.42.09-5.8-.91-5.78-5.62.19-51.13.07-102.27.21-153.4,0-4.24-.84-6.38-5.47-6.56-4.3-.17-8.57-1.16-12.86-1.64-2.4-.27-3.53-1.21-3.39-3.81.26-5.13-1.57-11.63.93-15s9.3-1,14.2-1c24-.07,48-.06,72,.17a117.25,117.25,0,0,1,30.13,3.86c20.29,5.6,32.28,20.58,33.15,41.65C200.21,234.5,194.84,249.67,175.79,258.38ZM109.65,304c0,9,0,18,0,26.94,0,2.18,0,3.82,3,3.76,8.64-.17,17.32.21,25.86-1.41,13.33-2.53,23.65-8.63,26.61-23.15,3.17-15.55-4-34-22.69-36.23-10.11-1.18-20.27-.57-30.4-.7-3,0-2.35,2.17-2.36,3.86C109.63,286,109.65,295,109.65,304ZM108.89,195v65.35a25.85,25.85,0,0,0,2.12-3c2.77-6.08,7-9.57,14.14-9.39,4.27.11,8.59-.85,12.84-1.61,8.7-1.55,17.2-3.73,20.55-13.36a35,35,0,0,0,1.16-20.13c-2.26-9.25-7.59-15.12-17.49-16.6C131.14,194.61,120,195.86,108.89,195Z" transform="translate(-48.66 -27.5)" fill="#286597"/><path d="M1273.79,258.37c26.11,10.65,31.16,29.44,29.67,50.78-1.44,20.67-16.35,37.83-38.36,44.23-10.81,3.15-21.95,3.88-33.12,4-19.66.15-39.32,0-59,.2-4,0-4.53-1.3-4.52-4.82.1-51.3,0-102.6.19-153.9,0-4.53-.92-6.71-5.67-6.89-3.31-.13-6.58-1.26-9.88-1.31-4.75-.06-7.06-1.56-6.3-6.77.62-4.24-1.71-9.8.89-12.55s8.19-.88,12.45-.89q36.49,0,73,.15a130.25,130.25,0,0,1,27.75,3c25.45,5.74,39.34,26.15,36.21,52.14C1295.3,240.68,1288.35,251.61,1273.79,258.37Zm-66.27,45.5c0,9,.07,18,0,27,0,2.59.36,3.94,3.46,3.84,8.14-.25,16.29,0,24.4-1.24,16-2.4,24.67-9.82,27.71-23.83,4.34-20-7.28-35.33-27.6-36.15-8-.33-16,0-24-.37-3.52-.15-4.07,1.29-4,4.33C1207.63,286.23,1207.52,295.05,1207.52,303.87Zm-1-43.11a25.08,25.08,0,0,0,2.07-2.95c2.86-6.83,7.87-10,15.36-10a67.29,67.29,0,0,0,11.86-1.44c8.15-1.45,16.35-3.31,20-12a33.31,33.31,0,0,0,.82-24.81c-2.72-7.51-7.91-12-16-13.24-10.26-1.66-20.58-.64-30.85-1.23-3-.17-3.37.69-3.35,3.32.12,14.63.06,29.26.06,43.89Z" transform="translate(-48.66 -27.5)" fill="#286597"/><path d="M1598.08,306.29c-.46,19.11.85,42.77-.61,66.39-1.07,17.24-9.59,29.41-25.66,36-18.88,7.78-38.61,8-58.49,6.17-10.45-1-20.66-3.47-30.94-5.53-3.17-.63-4.94-1.65-4.61-5.45a101.27,101.27,0,0,0,0-14.47c-.21-3.47,1-3.71,4-3.08,16.68,3.54,33.54,5.33,50.61,4.11a58,58,0,0,0,9.36-1.41c11.16-2.71,16.71-9.1,17.78-20.57.46-5,.41-10,.7-15,.16-2.8-.54-3.59-3.36-2.29-4.22,1.94-8.58,3.61-13,5.19-34.93,12.64-65.34-4.27-72.57-40.68-4.6-23.18-2.49-45.51,11.31-65.54,16.34-23.7,48.36-32.55,74.64-21,1.67.73,4,3.1,4.12-1.44.06-2,2.06-1.24,3.2-1.24,9.83-.07,19.67.13,29.49-.14,3.62-.09,4,1.42,4,4.39C1598,254.45,1598.08,278.1,1598.08,306.29Zm-36.77-16.13c0-12.32-.23-24.64.12-37,.13-4.56-1.59-5.87-5.66-5.78-3.82.09-7.66-.25-11.48-.1-15.39.59-26.83,9-31.78,23.68a65.25,65.25,0,0,0-1.12,37.37c3.37,13.48,11.9,21.66,25.78,23.64,6.76,1,13.61.6,20.43,0,2.86-.26,3.83-1.37,3.79-4.38C1561.2,315.13,1561.31,302.64,1561.31,290.16Z" transform="translate(-48.66 -27.5)" fill="#286597"/><path d="M918.65,227.54c0-13.94,0-27.38,0-40.81,0-2.21-1.23-2.34-2.88-2.32-4.17,0-8.33-.08-12.49,0-2.15.07-3.14-.66-2.88-2.84a4.17,4.17,0,0,0,0-.5c-.67-13.22-.65-13.08,12.4-14.65,11.56-1.38,23.08-3.13,34.62-4.7,6.94-.94,7-.85,7,5.93Q954,248.36,953.34,329c0,4.59,1.14,5.85,5.69,5.7,10.52-.34,10.38-.09,10.6,10.57.08,4.07-.5,6-5.38,6.45C950.67,353,937.16,355,923.67,357c-3.21.48-4.36-.23-4-3.43.13-1-.06-2,0-3,.31-3.22-.77-3.62-3.66-2.34a98,98,0,0,1-30.22,8.11c-31,3.14-53.72-19-60-44.78A86.88,86.88,0,0,1,831,255c10.66-24.28,34.78-36.59,62.85-33A121.42,121.42,0,0,1,918.65,227.54Zm-1,63.54h.91c0-9.82,0-19.64,0-29.45.06-11.84.09-11.84-11.54-14.85-17.63-4.56-31.59.68-39,16.35-9,19.17-7.86,38.81,1.31,57.72,3.62,7.48,10.68,11.15,18.79,12.59,8.56,1.52,16.86-.21,25.22-1.77,3.27-.6,4.39-1.81,4.34-5.15C917.53,314.71,917.65,302.9,917.65,291.08Z" transform="translate(-48.66 -27.5)" fill="#286597"/><path d="M310.56,231.63c-.7-5.3,2.4-5.25,6-5.18,8.82.17,17.66.25,26.48,0,3.73-.12,4.71.89,4.69,4.66-.16,31.63,0,63.27-.22,94.9,0,4.79,1.48,5.7,5.81,5.56,9.41-.3,9.42-.09,9.42,9.14v1.49c0,11.23,0,11.14-11,12.19-12.09,1.16-24.18,2.33-36.23,3.85-4.49.57-6.57-.3-5.79-5.19a45.45,45.45,0,0,0,0-6.16c-4.47,2.31-8.29,4.19-12,6.24-34.5,19-68.34-.39-75.46-36.35-3.84-19.39-3.18-38.43,5.2-56.65,14.23-30.92,47.22-43.62,78.59-30.42C307.38,230.24,308.73,230.84,310.56,231.63Zm.22,58.91c0-12.82-.11-25.65.08-38.46.05-3.32-1.15-4.55-4.22-4.56-4.83,0-9.68-.45-14.48-.07-15,1.18-25.55,8.65-30.82,23-4,10.74-4.36,21.84-2.46,33,2.9,17.08,12.57,27.33,27.93,29.69,6.59,1,13.29.48,19.95.07,3-.19,4.16-1.4,4.11-4.66C310.66,315.85,310.78,303.19,310.78,290.54Z" transform="translate(-48.66 -27.5)" fill="#286597"/><path d="M1939.53,231.56c-.66-4.81,1.84-5.26,5.56-5.14,8.65.27,17.33.42,26,0,4.86-.26,5.58,1.54,5.55,5.83-.16,31.29,0,62.59-.2,93.88,0,4.37,1,5.63,5.43,5.46,9.78-.36,9.79-.1,9.79,9.74,0,12.22,0,12.09-12.15,13.14-11.77,1-23.52,2.21-35.25,3.64-4,.49-6.58.29-5.63-4.73.18-1,0-2,0-3,.29-3.26-1-3.14-3.4-1.88-5,2.63-10.07,5.12-15.16,7.57a47.34,47.34,0,0,1-63.85-24.4c-10.64-25.06-10.48-50.37,1.79-74.77,14.26-28.36,46.2-39.66,75.62-27.69Zm.16,59c0-12.82-.1-25.64.07-38.46,0-3.27-1.13-4.55-4.24-4.55-4.82,0-9.68-.44-14.47-.06-15,1.19-25.53,8.67-30.82,23-3.91,10.58-4.24,21.52-2.53,32.49,2.69,17.25,12.52,27.81,28,30.17,6.59,1,13.29.49,20,.06,3-.19,4.15-1.43,4.09-4.67C1939.57,315.83,1939.69,303.18,1939.69,290.52Z" transform="translate(-48.66 -27.5)" fill="#286597"/><path d="M386.57,303.46c0-16.82-.14-33.64.1-50.45.06-4-1.19-5.14-5-4.85-4.14.32-8.33,0-12.48.11-2.41.08-3.27-.86-3.21-3.2.11-5-1.48-10.79.55-14.76,2.24-4.39,8.85-2.67,13.53-3.41,12.49-2,25.05-3.45,37.57-5.28,3.38-.49,5-.1,5.29,4,.38,6.3.71,6.23,6.77,4,11.23-4.19,22.54-8.14,34.74-8.29,24.19-.28,39.28,13.31,39.78,37.48.66,32.12.23,64.27.38,96.4,0,2.67-.82,3.39-3.4,3.36-10-.13-20-.23-30,0-3.72.1-4.72-.87-4.7-4.65.17-28.14.09-56.28.07-84.42a60.39,60.39,0,0,0-.62-9.95c-.82-4.91-3.47-7.83-8.35-8.57-11.17-1.71-21.82.75-32.34,4.16-2.88.94-1.76,3.28-1.76,5-.07,31-.14,61.94.06,92.91,0,4.32-.9,5.7-5.42,5.51-9.14-.41-18.32-.26-27.47,0-3.25.07-4.21-.82-4.18-4.13C386.66,337.43,386.57,320.45,386.57,303.46Z" transform="translate(-48.66 -27.5)" fill="#286597"/><path d="M1398.25,221.27c20,.4,41.56,10.55,53,36.85,5.82,13.41,7,27.65,5.79,42.11a79.81,79.81,0,0,1-4,19.5c-8.42,24.33-28.8,39.93-54.53,41.65-9.84.66-19.67.45-29.26-2.19-21.86-6-36-20.11-42.42-41.71a91,91,0,0,1-.92-48.37C1333.54,238.4,1357.27,221.09,1398.25,221.27Zm20.24,71.24c-.1-10.21-.69-19.66-3.87-28.75-4.37-12.5-12.13-17.93-25.18-17.64-12.88.29-20.37,5.72-23.88,18.52a98.67,98.67,0,0,0-.29,51.81c3.83,14.6,12.55,20.95,27.46,21.31,9.24.23,17-5.45,21.08-15.54C1417.77,312.46,1418.24,302.16,1418.49,292.51Z" transform="translate(-48.66 -27.5)" fill="#286597"/><path d="M1682.75,221.24c30,.1,51.5,13.58,61.21,38.55,5.17,13.3,6.29,27.15,5,41.25a80.47,80.47,0,0,1-3.84,18.53c-8.24,24.36-29.09,40.24-54.92,41.83-9.85.61-19.66.38-29.24-2.3-21.66-6.05-35.69-20.05-42.06-41.45a90.11,90.11,0,0,1-.87-48.83C1626,238.13,1649.29,221.13,1682.75,221.24Zm-28.37,69.65c-.13,10,.54,19.46,3.8,28.52,4.59,12.73,14.76,19.3,28.19,18.21,10.43-.85,16.88-7,19.83-16.43a94.85,94.85,0,0,0,.18-58c-3.86-12.26-12.11-17.41-25-17.1-12.65.31-19.94,5.79-23.77,18.12A83.27,83.27,0,0,0,1654.38,290.89Z" transform="translate(-48.66 -27.5)" fill="#286597"/><path d="M777.11,291.16c-.18,9.49-1.16,18.57-4,27.36-8.18,25.31-29.48,41.57-56.15,42.93-9.7.49-19.31.17-28.73-2.46-25.48-7.1-42.29-28.2-44.68-55.88-1.09-12.54-.74-24.92,2.87-37.09,7.58-25.54,27.84-42.21,54.39-44.43,10.49-.87,21-.63,31.21,2.36,25,7.3,38.54,24.71,43.5,49.62C776.68,279.49,776.68,285.49,777.11,291.16Zm-38.92.53c-.41-9.71-.61-19.71-4.34-29.2-4.58-11.64-12.05-16.61-24.59-16.38s-20.13,5.29-23.66,17.44a95.69,95.69,0,0,0,.16,55.61c3.94,12.86,14.51,19.39,28,18.49,9.84-.66,16.92-6.68,20.62-17.6C737.47,310.94,737.79,301.44,738.19,291.69Z" transform="translate(-48.66 -27.5)" fill="#286597"/><path d="M1059.72,291.46c-12.49,0-25,.09-37.47-.07-3,0-4.09.65-3.94,3.84a81,81,0,0,0,2.2,16.78c4.18,16,17.78,25.05,34.27,23,12-1.48,23.35-5.23,34.52-9.54,3.62-1.4,5.31-1.07,6.27,2.92a107.16,107.16,0,0,0,4,12.3c.78,2.07.64,3.39-1.47,4.44-22.83,11.24-46.68,18.39-72.26,13.73-22-4-36.53-18.11-44-38.69-7.74-21.31-6.84-43,2.41-63.74,9.8-21.93,27.91-32.57,51.38-34.94,9.25-.93,18.32-1.63,27.46,1.39,21.9,7.25,33.76,22.53,37.38,44.88,1.13,6.95.83,13.94,1.09,20.92.11,3.12-.85,3.92-3.91,3.88-12.66-.17-25.31-.07-38-.07Zm-16.35-18.31c7.33,0,14.66,0,22,0,1.52,0,3.38.63,3.72-2,1.47-11.33-8.25-24.71-19.55-26.71-17.27-3.05-28.95,7.54-31,25.51-.33,2.85.95,3.34,3.4,3.3C1029,273.08,1036.2,273.15,1043.37,273.15Z" transform="translate(-48.66 -27.5)" fill="#286597"/><path d="M1765.57,262.46c0-21.66.09-43.31-.09-65,0-3.65,1-4.84,4.66-5.07,8.64-.54,17.24-1.58,25.85-2.53,6.46-.71,6.45-.79,6.46,5.5,0,8.83.1,17.66-.06,26.49-.06,2.8.7,3.71,3.59,3.66,9.83-.17,19.67.06,29.5-.14,3.13-.06,4,.91,3.88,4-.24,5-.24,10,0,15,.15,3.1-.92,4-4,4-9.66-.17-19.33,0-29-.12-2.91-.05-4,.56-4,3.79.15,25.49.06,51,.12,76.47,0,6.32,2.43,8.76,9.1,8.15,7.77-.71,15.5-2.09,23.18-3.53,2.68-.5,3.55.15,4,2.65a53.06,53.06,0,0,0,1.8,6.22c3,10.19,3,10.26-7.35,13.65-14.19,4.63-28.6,8.1-43.62,4.88-13.22-2.82-21.92-12.59-23.13-26.07-2-21.78-.44-43.62-.86-65.43C1765.53,266.8,1765.57,264.63,1765.57,262.46Z" transform="translate(-48.66 -27.5)" fill="#286597"/><path d="M522.79,291.74c.48-12.29,1.69-21.14,4.61-29.74,9-26.58,31-42.21,59.08-41.92a107.9,107.9,0,0,1,39.77,8.4c3.46,1.41,5.31,3.14,5,7.3a150.78,150.78,0,0,0-.07,16.47c.08,2.95-.74,3.3-3.43,2.26-9.1-3.54-18-7.72-28.06-8.23-22.83-1.14-33.45,6.72-37.6,29.15-2.3,12.39-2.16,24.87,1.5,37.07,4.39,14.63,14.22,21.76,29.46,22.13,12.47.3,24.46-2.39,36.35-5.56,3.43-.91,4.48.18,5,3.06.13.65.35,1.28.5,1.93,1,4.16,4.59,9.05,2.71,12.13s-7.43,3.73-11.42,5.36a117.78,117.78,0,0,1-38.63,9c-33.26,1.74-56.6-19.7-62.89-50.78A92.92,92.92,0,0,1,522.79,291.74Z" transform="translate(-48.66 -27.5)" fill="#286597"/><path d="M1895.36,206.56c-1.64.39-2.52-.37-2.86-1.92-.07-.33-.16-.65-.25-1-1.3-4.45-4.56-9.53-3.38-13.18,1.24-3.85,7.73-4.18,12-5.94,14.39-6,28.87-11.84,43.31-17.72,6.31-2.56,6.3-2.54,8.36,4.18,2,6.34,3.93,12.68,5.87,19,.49,1.61,1.11,3-1.61,3.56-20.16,4.19-40.28,8.55-60.41,12.86A8.1,8.1,0,0,1,1895.36,206.56Z" transform="translate(-48.66 -27.5)" fill="#286597"/><path d="M2464.7,351v-4.68h.33v5.15Z" transform="translate(-48.66 -27.5)" fill="#fefefe"/><path d="M1043.37,273.15c-7.17,0-14.33-.07-21.49,0-2.45,0-3.73-.45-3.4-3.3,2.09-18,13.77-28.56,31-25.51,11.3,2,21,15.38,19.55,26.71-.34,2.67-2.2,2-3.72,2C1058,273.18,1050.7,273.15,1043.37,273.15Z" transform="translate(-48.66 -27.5)" fill="#fefefe"/></svg>