<svg id="Capa_1" data-name="Capa 1" xmlns="http://www.w3.org/2000/svg" viewBox="0 0 566.66 425.16"><path d="M32.74,310.09c.49-12.25-1.21-29-1.21-45.76,0-23.06,1.73-46.09,6.76-68.62C44.61,167.37,51,139,60.68,111.54c8-22.75,19.37-43.66,37.29-60.16,20.33-18.73,44.1-30.79,71.89-34.19,17.73-2.18,35.32-.75,52.95,1.27,13.7,1.56,27.1,4,39.75,9.7,21.83,9.78,39,25.12,52.7,44.49,12,17,22,35.15,31.78,53.48,14.28,26.75,22.64,55.73,32.74,84.07,2.18,6.14,4.18,12.35,6.66,18.37,4.15,10.05,8.73,11.25,17.2,4.28,9.28-7.64,18.95-14.68,30.05-19.33,23.52-9.87,47.89-17.1,73.61-15.29,45.24,3.17,75.51,25.53,89.07,70.67,5.47,18.22-1.9,33.42-14.81,46.21C569.54,327,555,332.55,538,332.8c-23.34.34-46.58-.12-69.69-3.78-10-1.59-19.61-4.93-29.57-6.63-20.66-3.53-38.17,9.88-40.63,30.75a69.3,69.3,0,0,0,.78,18.64c3.55,23.56-8,45.92-30.2,59.21-14.88,8.9-31.13,11-48,10.09-11.47-.59-22.84-1.32-32.87-8.05a40,40,0,0,1-11.19-11.2c-11.8-17.77-17.26-37.34-15.62-58.65,1.14-14.88-3.85-26.87-16.42-34.89-19.36-12.36-39.34-13.52-59.54-1.68-7.27,4.26-10.58,10.54-10,19,1,14,.82,27.92-1.49,41.77-4.47,26.74-27.79,45.84-53.56,48.84-12.95,1.51-25.78,1.41-38.31-2.76-21.92-7.31-35-22.63-41-44.67C33.9,364.44,32.34,339.65,32.74,310.09ZM72.32,297.8c0,10.25-.13,20.5,0,30.75.24,15.06,1.25,30.07,5.18,44.69,3.18,11.81,9.62,20.91,22.42,23.39,7.41,1.43,14.85.3,22.07-1.95a12.81,12.81,0,0,0,9-9.77,59.32,59.32,0,0,0,1.46-12.67c.31-10.64-.8-21.29.14-31.93,1.65-18.72,8.71-34.56,25-45a153,153,0,0,1,28.66-14.72c16.72-6.31,33.53-6.92,50.22-.07,5.64,2.31,10.79,5.89,16.52,7.88,5.22,1.82,9.71,4.72,14.11,7.69,10.18,6.87,17.18,16.89,23.55,27,8.67,13.79,11.44,29.28,10.62,45.55-1,19.31,7.77,29.9,26,32.11,11.73,1.41,25.19-5.62,28.74-17.34A39.47,39.47,0,0,0,357.91,368a118.57,118.57,0,0,1,.28-27.09c4.68-35.85,30.54-58.64,66.61-58.74,19-.06,37.58,3.69,56.26,6.48,16.86,2.52,33.72,4.92,50.85,4.27,12.33-.46,20.6-5.33,23.76-14.18s-.43-19.45-9-27.21a47.69,47.69,0,0,0-12.78-7.95c-15.44-7-31.31-11.8-48.33-7.15-12.73,3.48-24.69,9-36.35,15.23-16.9,9-33.63,18.27-51.26,25.79a94.53,94.53,0,0,1-13.84,5.09c-10.77,2.68-17.62,0-23.36-9.57s-9.54-20.09-12.85-30.65c-3.85-12.29-4.6-25.38-8.74-37.66a399.9,399.9,0,0,0-53-104.87,105.18,105.18,0,0,0-24.74-25.24c-8.92-6.32-18.3-12.1-29.21-14.22-22.68-4.4-45.32-5.31-68.14,0-19,4.43-35,12.86-46.6,28.95-10.7,14.81-17.74,31.25-23.33,48.51-7.78,24-12.51,48.6-15.51,73.65C75.21,240.19,71.18,268.8,72.32,297.8Z" transform="translate(-31.53 -16.1)" fill="#7c7c7c"/><path d="M205,246.51c-12.35,0-24.69,0-37,0a8.08,8.08,0,0,1-7.12-3.45,6.82,6.82,0,0,1-1-4c0-14.58,0-29.15,0-43.73a7.31,7.31,0,0,1,7.06-7.49h.35c.86-.07,2,.45,2.5-.22s.17-1.95.17-3c0-4.37,0-8.74,0-13.11a27.39,27.39,0,0,1,2-10.3,33.78,33.78,0,0,1,7.42-11.32,36.33,36.33,0,0,1,11.46-8.13,33,33,0,0,1,11.51-2.73,36.54,36.54,0,0,1,15.36,2.14,33.69,33.69,0,0,1,9.58,5.64,37.49,37.49,0,0,1,6.82,7.27A31.23,31.23,0,0,1,240,172.22c.1,4.77.06,9.54,0,14.31,0,1.15.28,1.41,1.21,1.36a9.06,9.06,0,0,1,4.38.57,7.36,7.36,0,0,1,4.43,7c-.07,14.44-.11,28.88,0,43.32a7.45,7.45,0,0,1-5.71,7.56,9,9,0,0,1-1.93.18Q223.73,246.53,205,246.51Zm0-58.65c6.38,0,12.76,0,19.14,0,.76,0,1.06-.14,1-1.13-.26-5.5.36-11-.41-16.54a17.68,17.68,0,0,0-3.73-8.82,20.39,20.39,0,0,0-21.93-7,20,20,0,0,0-10,6.72,21,21,0,0,0-3.45,6.24,15.51,15.51,0,0,0-.7,5.34c0,4.59,0,9.19,0,13.77,0,1.06.08,1.41,1.07,1.41,6.34,0,12.68,0,19,0Zm0,48.85c2.56,0,5.12,0,7.68,0,1.72,0,2.66-1.48,2.12-3.38-.33-1.14-.72-2.26-1-3.38-1.05-3.71-2.37-7.29-3.39-11a5.18,5.18,0,0,0-.54-1.82c-.42-.57-.48-.88.26-1.31a9.38,9.38,0,0,0,4.46-5.39c1.36-4.56-.86-9.85-4.72-11.64a10.38,10.38,0,0,0-9.9.15,8.92,8.92,0,0,0-4.53,5.32c-1.57,5.37.48,9.09,4.33,11.52.89.56.59,1.05.38,1.45a29.43,29.43,0,0,0-1.71,5.29c-1.12,3.47-2.23,6.95-3.25,10.47-.67,2.33.2,3.73,2.28,3.74Z" transform="translate(-31.53 -16.1)" fill="#7c7c7c"/></svg>