<?xml version="1.0" encoding="utf-8"?>
<!-- Generator: Adobe Illustrator 25.2.1, SVG Export Plug-In . SVG Version: 6.00 Build 0)  -->
<svg version="1.1" id="Capa_1" xmlns="http://www.w3.org/2000/svg" xmlns:xlink="http://www.w3.org/1999/xlink" x="0px" y="0px"
	 viewBox="0 0 391 397" style="enable-background:new 0 0 391 397;" xml:space="preserve">
<g>
	<path d="M145,198.9c-8.6-0.1-17.3-0.1-26,0c-7.1,0.1-14.8,6.2-14.1,14.4c0.2,2.8,0,5.7,0,8.5c0.1,9.7,5.6,15.2,15.3,15.2
		c3.8,0,7.7,0,11.5,0c4.5,0,9,0,13.5,0c2.7,0,5-0.6,7.4-2c6.8-3.7,8.7-14,6.8-22.3C157.3,203.6,152.6,199.1,145,198.9z M151.7,224.1
		c0.2,4.1-3.1,5.5-6.8,5.6c-4.3,0.1-8.7,0-13,0c-4.2,0-8.3,0.1-12.5,0c-4.9-0.1-7-2.2-7.1-7.1c-0.1-16.3-1-16.1,15-15.8
		c5.8,0.1,11.7,0,17.5,0c1.2,0,2.6-0.2,3.4,0.3C154.7,211.6,151.5,218.3,151.7,224.1z"/>
	<path d="M394.2,393.8L289.4,287.4c2.3-2.3,4.2-5.1,5-7.8c1.2-4.4,0.6-8.9,0.8-13.3c0.1-2.9-0.5-5.7,3.8-6.8
		c1.7-0.4,3.8-2.5,5.5-4.5c5.3-6.3,6.8-13.9,8.6-21.5c0.6-2.4-0.9-3.9-2.9-4.4c-2.2-0.6-3.7,0.2-4.1,2.9c-0.7,4.3-1.5,8.7-3,12.8
		c-2.3,6.4-6.5,10.4-14.2,10.3c-10.5-0.1-21-0.1-31.4-0.1l-18.3-18.6c1.5,0.4,3.2,0.6,5.1,0.6c3.8,0,7.6,0,11.5,0
		c4.7,0,9.3,0.2,14,0c5.7-0.3,10-2.7,12.6-8.3c2.2-4.8,1.7-9.6,1.7-14.5c-0.1-8.3-7-15.1-15.4-15.2c-8.3-0.1-16.6-0.1-24.9,0
		c-8.7,0.1-14.6,6.1-14.7,14.9c0,2.7,0,5.3,0,8c0,1.7,0.2,3.3,0.6,4.8l-22.4-22.8c2.1,0,4.1,0,6.2,0c3.2,0,7.6,0.7,7.7-3.8
		c-0.1-4.8-4.9-4-8-4c-4.5-0.1-9.1-0.1-13.6-0.1l-15-15.2c15.6,0,31.1,0,46.7,0c8.9,0.2,17.7,0.3,26.5,0.2
		c9.8-0.1,17.6-7.5,12.4-18.7c-4.3-9.1-7.5-18.6-10.9-28.1c-4.5-12.3-14.5-21.3-28.4-20.4c-8.8,0.6-17.7,0.2-26.5,0.1
		c-2.8,0-6,0.1-6,3.4c-0.1,3.8,3.4,3.7,6.3,3.7c9.7,0,19.3,0.3,29-0.1c9.1-0.4,14.6,4.5,17.9,12c4.6,10.5,8.5,21.4,12.6,32.1
		c2.5,6.6,0.9,8.7-6.2,8.7c-21,0-42,0-63,0c-5.8,0-11.6,0-17.4,0l-38.5-39.1c0.3-0.7,0.7-1.4,1-2.1c3.2-6.6,8.2-10.3,15.3-11.6
		c2.5-0.4,4.3-1.7,3.8-4.2c-0.5-2.3-2.7-3.6-5.1-2.8c-6.9,2.3-13.8,5.3-17.7,11.6c-0.8,1.3-1.6,2.7-2.4,4l-15.1-15.3
		c8.2-11.5,19.9-17.9,35-18c22.8-0.1,45.6,0,68.5-0.1c8.8,0,17.5,0.2,26.1,2.2c14.8,3.4,26.4,11.3,32,26c7.3,19.6,14,39.4,21.3,59
		c1.5,3.9,2.8,7.9,4.4,11.9c0.8,2.1,2.3,4.1,4.5,3.2c2.1-0.8,3.3-2.9,2.1-5.6c-1.2-2.6-1.7-5.6-3.1-8.1c-1.7-3.1-0.6-3.5,2.3-3.6
		c5.5-0.2,9.8-2.5,12.9-7.4c5.5-9.6,3.8-19.1,0.6-29.1c-2.2-6.9-11.8-10.6-18.1-9.5c-3.2,0.5-6.5,1.1-9.4,2.5
		c-4.9,2.4-6.4,0.2-7.7-4c-3-9.6-6.3-19.1-13.6-26.6c-12.3-12.5-27.8-17.5-44.7-17.8c-27.3-0.5-54.6-0.6-81.9,0.1
		c-13.7,0.4-24.8,7.6-34,17.9c-0.7,0.7-1.3,1.5-1.9,2.2L3.2-3.2l-6.4,6.3L108.9,117c-3.8,6.3-6.6,13.1-9.5,19.8
		c-1.1,2.5-2.5,2.6-4,2.1c-3.7-1.4-7.6-1.6-11.4-2.5c-5.1-1.2-16.9,2.6-19.8,9c-2.9,6.3-3.6,12.7-2.9,19.2c0.9,9,9.4,16.6,18.3,16.4
		c4.6-0.1,4.1,2.4,3,4.9c-4.4,9.9-4.8,20.3-4.5,30.9c0.2,7,0.1,14,0,21c-0.2,8.5,3.6,16.2,10.3,19.4c7.9,3.7,8.2,8.8,7.7,15.4
		c0,0.7-0.1,1.3,0,2c1,11,6.8,19.9,19.8,19.4c4.7-0.2,9.4-0.4,14,0.1c5.4,0.6,8.5-2.1,11.4-6.1c3.5-5,5.2-10.3,5-16.5
		c-0.3-9.5-0.1-9.5,9.6-9.5c10.8,0,21.7,0,32.5,0c17.5,0,35,0.1,52.5-0.1c3.6,0,4.6,1,4.3,4.5c-0.3,3.5-0.4,7,0,10.5
		c1.3,9.9,4.2,13.9,13,15c7.2,0.9,14.6,0.4,22,0.1c0.3,0,0.6-0.1,1-0.1l106.6,108.3L394.2,393.8z M251,206.8c1.7,0,3.3,0,5,0
		c4.6,0,9.3,0,13.9,0c3.8,0,5.9,2,6,5.8c0.1,3,0,6,0,9c0,6.4-1.6,8.1-7.8,8.1c-8,0.1-15.9,0.1-23.9,0c-5.6,0-7.8-2.2-7.9-7.8
		C236,206.3,235.8,206.5,251,206.8z M298.7,144.7c0.3-0.1,0.6-0.2,1-0.3c14.2-4.7,21.4-2.7,20.5,15.2c-0.2,3,0.8,6.8-1.8,10.3
		c-2,2.7-4.3,4.3-7.5,3.8c-3.3-0.4-6.3-1.5-7.5-5.4c-2-6.4-4.3-12.8-6.9-19C295.4,146.5,296,145.3,298.7,144.7z M269.9,262.3
		c0-0.1,0-0.2,0-0.3c4.1,0,8.3,0.3,12.4-0.1c3.7-0.3,4.6,1.1,4.3,4.5c-0.3,3.3-0.2,6.6,0,9.9c0.2,2.7-0.8,4.6-2.4,5.9l-19.6-19.9
		C266.4,262.3,268.2,262.3,269.9,262.3z M164.8,173.7c-11,0-22,0-33,0c-7.5,0-8.9-1.9-6.7-8.9c2.4-7.6,5.9-14.7,9.5-21.8
		L164.8,173.7z M76.7,173.7c-4.2-0.7-7.5-5.4-7.5-10.9c0-1.3,0-2.7,0-4c-1.5-15,7.3-16,17.4-14.6c0.7,0.1,1.3,0.3,1.9,0.4
		c6.6,1.3,6.6,1.4,4.4,7.3c-1.7,4.6-3.3,9.3-4.9,14C86.4,170.6,81.1,174.4,76.7,173.7z M135,283.9c-1.3,1.7-2.6,2.8-4.8,2.7
		c-5.3-0.1-10.6,0.1-15.9-0.1c-6.3-0.2-9.7-3.6-10.2-9.8c-1.3-14.4-1.3-14.4,13.1-14.4c1.3,0,2.7,0,4,0v0.1c4.6,0,9.3,0,13.9,0
		c1.4,0,3.4-0.3,3.4,1.9C138.5,271,139.7,277.9,135,283.9z M196.5,255c-31.1,0-62.3,0-93.4,0c-4.9,0-9.3-0.9-12.9-4.8
		c-3.1-3.3-4.8-6.8-4.6-11.4c0.6-19.6-1.6-39.3,5.8-58.6c7.4-19.4,12.6-39.7,22.6-58.1l15.4,15.7c-4.6,9.1-8.4,18.6-12,28.2
		c-0.7,2-0.6,4,0.4,6.2c2.7,5.8,6.6,8.6,13.4,8.6c13.5,0,27,0,40.6,0l15,15.2c-3.9,0-7.8,0-11.6,0c-2,0-3.9,0.4-5.8,0.9
		c-1.5,0.4-2.3,1.2-2.4,2.7c-0.1,1.7,0.5,2.7,2.1,3.5c1.6,0.8,3.1,0.8,4.8,0.8c6.7,0,13.3,0,20,0c0.2,0,0.5,0,0.7,0l50.3,51.1
		C228.7,255,212.6,255,196.5,255z M258,284.1c-3.2-0.3-4.4-2.2-4.9-4.6c-1.1-4.9-0.6-9.9-0.6-14.9c0-0.7,0.1-1.1,0.3-1.5l21,21.3
		C268.6,284.7,263.3,284.5,258,284.1z"/>
</g>
</svg>
