<?xml version="1.0" encoding="utf-8"?>
<!-- Generator: Adobe Illustrator 25.2.1, SVG Export Plug-In . SVG Version: 6.00 Build 0)  -->
<svg version="1.1" id="ujgbui_xA0_Imagen_1_" xmlns="http://www.w3.org/2000/svg" xmlns:xlink="http://www.w3.org/1999/xlink"
	 x="0px" y="0px" viewBox="0 0 920 920" style="enable-background:new 0 0 920 920;" xml:space="preserve">
<style type="text/css">
	.st0{fill:#353535;}
</style>
<path class="st0" d="M849.4,480.9c-0.5-11-3.3-20.5-8.3-29.6c-5.2-9.5-10.3-19.6-21.8-23.5c-0.9-0.3-1.3-1.5-2-2.2
	c-7.1-5.1-14.8-8.4-23.6-9.1c-7.8-0.6-15.1-2-19.2-9.8c-5.6-7.3-10.4-15.2-16.1-22.5c-5.9-7.5-10.4-16-16.8-23
	c-1.5-1.6-2.6-3.4-3.2-5.5c-0.8-2-2.4-3.5-3.6-5.3c-4.9-4.7-8.3-10.5-11.6-16.3c-4.2-5-6.4-11.4-11.2-15.9
	c-3.4-2.9-6.1-6.3-7.6-10.6c-0.5-1.3-1.4-2.4-2.2-3.5c-5.7-5-8.9-11.8-13-17.9c-1.7-2-3-4.2-4.4-6.4c-3.2-5.1-6.1-10.7-11.9-13.8
	c-2.1-1.2-4.5-0.8-6.8-0.8c-84.2,0-168.5,0-252.7,0c-97.1,0-194.1,0.1-291.2,0.1c-1.9,0.9-3.2,2.8-5.5,2.8c-6.4,0.1-11,4.1-16,7.2
	c-3.8,2.4-6.2,6.3-9.5,9.2c-3.1,5-8.7,8.2-11,13.8c-1.8,4.5-6.8,7.7-5.6,13.4c-0.1,5-3.2,9-3.2,14.3c0.3,100.4,0.2,200.8,0.2,301.2
	c0,1.3,0.1,2.7,0,4c-0.2,3.9,1.7,5.4,5.5,5.2c1.5-0.1,3,0,4.5,0c17.2,0,34.3,0,51.5,0c6.5,0,9.5,3.2,9.6,9.6
	c0.1,6.5,1.7,12.9,1,19.4c-0.1,1.2,0.2,2.3,1,3.3c2.5,2.8,2.9,6.2,3,9.8c1.8,3.4,2.8,7.2,4.2,10.7c2.2,5.4,6,10.4,9.1,15.6
	c4.7,7.7,11.5,13.7,17.8,20c5.6,5.6,11.8,11,20.1,12.7c2.1,2.3,4.9,3.2,7.9,3.8c1.3,0.2,2.8,0,3.8,0.8c5.2,4.6,12.8,2.4,18.2,6.3
	c14.6-0.9,29.3,2.4,43.7-2.5c2.9-0.7,6.2,0.4,8.8-1c7.1-3.8,14.6-6.8,21.8-10.3c2.8-1.3,4.2-4.3,6.8-5.9c0.7-1.6,2-2.5,3.4-3.5
	c2.5-1.9,5.8-2.8,7.6-5.4c5.9-8.3,13.8-15.2,16.9-25.4c0.3-0.9,1.4-1.3,2.1-2c0.3-0.4,0.5-0.9,0.7-1.3c0.5-2.8,3.7-4.4,3.8-7.4
	c0.1-6.3,5.4-11.2,4.6-17.8c-0.1-0.4,0.4-0.9,0.8-1.3c1.9-2,2.1-4.4,2.1-6.9c-0.1-3.7,0.1-7.3-0.1-11c-0.1-2.7,0.7-4.9,2.7-6.6
	c1.8-2.1,4.1-2.5,6.7-2.5c65.8,0,131.6,0,197.5,0c2.6,0,5,0.4,7,2.1c0.4,0.4,0.8,0.8,1.3,1.2c2,2.3,1.8,5.1,1.9,7.9
	c0.1,5.6-1,11.5,2.2,16.7c1.6,3.2-0.5,7.1,1.5,10.1c3.5,5.3,5.3,11.2,7.6,17c1,1.1,2.9,1.7,3,3.2c0.4,5,4.3,7.5,7,10.9
	c10.3,13.5,21.9,25.2,37.6,32.5c6.7,3.1,12.8,7.2,20.6,6.6c3.3-0.5,5.2,3,8.6,2.9c16.4-0.3,32.9,1.4,48.8-4c0.6-0.1,1.1-0.2,1.6-0.4
	c1.7-2.7,4.4-2.8,7.2-2.7c3.2,0.5,4.9-1.7,6.8-3.5c6.1-1.9,10.5-6.5,16.1-9.2c10.4-10.3,21-20.4,27.6-33.8c5.4-8.4,7-18.3,11.5-27.1
	c-1.2-8.9,1.4-17.4,3.1-26c0.6-3.3,2.5-4.9,5.9-4.9c4.7,0,9.3,0,14,0c15.8-0.2,31.6,0.4,47.4-0.3c0.9-0.4,1.4-1.2,1.8-2
	c2-2.5,2-5.5,1.9-8.6C849.5,577.7,851.7,529.3,849.4,480.9z M145.6,414.3c-6,0-6.9-1-6.9-6.9c0-27.5-0.1-55-0.2-82.5
	c0-4.9,1.5-6.7,6.5-6.7c43.3,0,86.6,0,130,0.1c7.9,0,9.1,1.6,9.1,9.5c-0.1,26.2,0,52.3,0,78.5c0,7.1-0.7,8-8,8
	c-21.8,0-43.7,0-65.5,0c0,0,0,0,0,0C189,414.3,167.3,414.3,145.6,414.3z M243.4,716.9c-40,0-72.4-32.4-72.4-72.4
	s32.4-72.4,72.4-72.4c40,0,72.4,32.4,72.4,72.4S283.4,716.9,243.4,716.9z M498,408c0,7.4-2.5,9.9-9.9,9.9c-42.5,0-85,0.1-127.5,0
	c-8.3,0-10.6-2.6-10.6-10.8c0-27.2,0-54.3,0-81.5c0-8.8,1.7-10.5,10.5-10.6c21.2,0,42.3,0,63.5,0c21.3,0,42.7,0,64,0
	c8.3,0,10,1.8,10,10C498,352.7,498,380.4,498,408z M574.6,414.3c-8.8,0-9.7-1.1-9.7-9.8c0-26,0-52,0-77.9c0-6,1.8-8.3,7.9-8.3
	c25.8-0.1,51.6-0.1,77.4,0c6.2,0,15.6,8.2,17,14.1c0.2,1,0.2,2.3,0.9,2.8c8,6.5,11.5,16.5,18.5,23.8c8,8.2,12,19.4,21.3,26.4
	c1.7,9.8,12.1,13.8,15.1,22.7c0.6,1.6,1.4,3,0.6,4.7c-0.8,1.8-2.5,1.9-4.3,1.9c-24.6,0-49.3,0-73.9,0c0-0.1,0-0.2,0-0.3
	C621.9,414.3,598.3,414.3,574.6,414.3z M674.4,718.1c-40,0-72.4-32.4-72.4-72.4s32.4-72.4,72.4-72.4c40,0,72.4,32.4,72.4,72.4
	S714.4,718.1,674.4,718.1z"/>
</svg>
