<svg id="Capa_1" data-name="Capa 1" xmlns="http://www.w3.org/2000/svg" viewBox="0 0 123.98 289.22"><g id="chica.psd"><path d="M59.7,69c.3-1.3,1.4-2.3,2-3.4a39.74,39.74,0,0,1,2.8-3,7,7,0,0,0,1.6-1.9,47.4,47.4,0,0,1,3.8-7c.5-.4,1.2-.4,1.8-.7,1.9-1,3.8-2.1,5.6-3.2a4.94,4.94,0,0,1,1.8-.8c0,1.3-.4,2.5-.4,3.8s.6,1.6,2,1.1a12.8,12.8,0,0,0,3.9-2.4,28.48,28.48,0,0,0,2.6-2.3c1-1.1,1.6-2.3,2.6-3.4.4-.5.9-.5,1.6-.3a25.71,25.71,0,0,0,5.5,1.2,17,17,0,0,1,2.2.4c.4.1.2-.3.4-.3.1.2-.1.5.2.7a6.2,6.2,0,0,1-.6,4,17.49,17.49,0,0,0-.8,5.9c0,1.6,0,3.3.1,4.9a25,25,0,0,0,1.3,6.5c.2.5.9.7.9,1.3a46.81,46.81,0,0,1-5.4,11,19.82,19.82,0,0,0-1.9,3.1c-1,2.5-2,5-3.1,7.5a2.23,2.23,0,0,0,.2,2.1c2.7,4.7,5.8,9.3,8.8,13.9,2.4,3.7,4.8,7.3,7.2,11a7.46,7.46,0,0,0,.7,1.2c3.2,5.1,6.4,10.2,8.5,15.7a51.49,51.49,0,0,1,2.3,5.4,7.74,7.74,0,0,0,.7,1.6,13.24,13.24,0,0,1,2.1,8.4,3.39,3.39,0,0,1-.7,1.8c-.8,1.1-1.9,1.9-2.7,2.9-1,.6-2.1,1.3-3.1,1.8a25.77,25.77,0,0,1-7.8,2.7l-1.1.3a37.43,37.43,0,0,1-5.8,0h-.7c-1.4-.5-3-.5-4.5-1a3.81,3.81,0,0,0-.1-1.5,62.82,62.82,0,0,0-2.5-7.3c-.9-2.4-2.3-4.6-3.2-7.1-1.2-3.3-2.4-6.7-3.6-10A37.06,37.06,0,0,0,83,129a1.46,1.46,0,0,0-1.4-.9c-.7,0-1,.5-1.3,1a11.22,11.22,0,0,0-.8,2.6c-.5,2.1-.8,4.2-1.1,6.3a54,54,0,0,0-.8,5.8c-.1,1.2-.3,2.5-.4,3.7-.3,2.5-.6,5-.9,7.6a30.45,30.45,0,0,0-9.5,1c1.2-3,2.4-6.1,3.5-9.2q2.25-6.45,3.9-13.2c1-3.9,2-7.8,2.8-11.8.6-3.1,1.2-6.2,2-9.2,2-7.4,3.9-14.9,4.3-22.6a5.89,5.89,0,0,1,1-3.4,14.53,14.53,0,0,0,1.8-3.2,13.91,13.91,0,0,0,1.5-6.9,1.91,1.91,0,0,0-1.2-1.9,13.3,13.3,0,0,0-4.8-1,24,24,0,0,1-5.9-1.3,12.47,12.47,0,0,0-6.9-1.1,9.86,9.86,0,0,1-3.8-.2C63.1,70.4,61.4,69.7,59.7,69Z" transform="translate(-18.92 -6.85)" fill="#59bda6"/><path d="M59.7,69A41.35,41.35,0,0,0,65,70.9a12.31,12.31,0,0,0,3.8.2,12.47,12.47,0,0,1,6.9,1.1,24,24,0,0,0,5.9,1.3c1.6.3,3.3.2,4.8,1a2.16,2.16,0,0,1,1.2,1.9,15.08,15.08,0,0,1-1.5,6.9,20.16,20.16,0,0,1-1.8,3.2,5.89,5.89,0,0,0-1,3.4C83,97.6,81,105,79,112.5c-.8,3-1.4,6.1-2,9.2-.7,4-1.8,7.9-2.8,11.8q-1.65,6.6-3.9,13.2c-1.1,3.1-2.3,6.1-3.5,9.2a8.56,8.56,0,0,0-2.3.5,25.79,25.79,0,0,1-6.2.9H56.1c-4.1-.2-7.5-2-10.7-4.3a56.81,56.81,0,0,1-6.8-6.1c-.2-.2-.3-.4-.7-.4-1.2-.1-1.3-.3-1.2-1.3a35.28,35.28,0,0,1,1.4-5.6,118,118,0,0,1,7.2-16.8c2.5-5.1,5.2-10.1,7.9-15.2.1-.2.2-.5.3-.7a4.35,4.35,0,0,0,.4-.7c2.2-4,4.4-7.9,6.8-11.8a1.88,1.88,0,0,0,.5-1.1,29.54,29.54,0,0,1,.2-4.2c.3-2.8-.7-5.6-.3-8.4a7.73,7.73,0,0,0-.8-4.5c-.4-1.2-.9-2.4-1.2-3.6A5,5,0,0,1,59.7,69Z" transform="translate(-18.92 -6.85)" fill="#3d8e7d"/><path d="M56.1,157.3h2.2a33.12,33.12,0,0,0,6.2-.9,9.48,9.48,0,0,1,2.3-.5,30.45,30.45,0,0,1,9.5-1,2.48,2.48,0,0,1,.9.1c1.9.5,3.9.7,5.9,1.3,2.2.6,4.5,1.3,6.7,1.9,1.5.4,2.8,1.3,4.4,1.2,1.5.5,3,.5,4.5,1,.2.1.4,0,.7,0a37.43,37.43,0,0,0,5.8,0c.6,3.3,1.2,6.7,1.9,10a.64.64,0,0,0,0,.6v.4a4.59,4.59,0,0,0-.7,1.6,119.85,119.85,0,0,1-7.9,18.9,5.18,5.18,0,0,1-1.4,2.2,85,85,0,0,1-3.6-8.2c-2.8-6.4-5.8-12.7-8.8-19-1.4-2.9-2.7-5.8-4.1-8.7a1.16,1.16,0,0,0-.6-.8,28.86,28.86,0,0,0-.4,2.9c-.5,4.2-1.1,8.4-1.5,12.7-.4,4-.7,8-.9,11.9-.2,4.4-.1,8.7-.4,13.1a21.34,21.34,0,0,0,2.8,11.5,46,46,0,0,0,3.9,6.8c2,2.8,2,5.9,1.8,9-.2,2.5-.4,5-.5,7.5-.3,3.8-.5,7.6-.8,11.4a38.46,38.46,0,0,0,.1,4.8c.3,3.1.4,6.3,1,9.4-1.7.9-3.4,2-5.2,2.8a15.18,15.18,0,0,1-6,1.5c-.1-3.8-.3-7.6-.7-11.4-.3-3.1-.6-6.3-1.1-9.4-.5-3.5-1.1-7.1-1.7-10.6v-.7a2.62,2.62,0,0,0-.6-3v-.1c0-.1-.1-.2-.1-.3a136.19,136.19,0,0,0-3.3-15.4C65,206.6,64,201.4,63,196.1c-.5-2.3-.7-4.5-1.4-6.8-1.7-5.9-1.9-12-3.2-17.9C57.5,166.7,56.8,162,56.1,157.3Z" transform="translate(-18.92 -6.85)" fill="#f2806d"/><path d="M99.5,46.6c-.2,0-.1.4-.4.3-.7-.1-1.5-.3-2.2-.4.8.1.8-.4.7-.9-.4-2.4-.8-4.8-1.3-7.3-.2-1-.5-2-.8-3.1a1,1,0,0,0-.8-.7.89.89,0,0,0-.8.5c-.2.5-.5,1-.7,1.5-1.2,2.9-2.2,5.8-3.6,8.6a42.48,42.48,0,0,1-1.2-6,12.56,12.56,0,0,0,1.2-6.6,4.89,4.89,0,0,0-.8-2.3c-.2-.3-.5-.6-.9-.2a3.8,3.8,0,0,0-1.6,3c.1.8-.3,1.2-1.1,1.5a10.61,10.61,0,0,1-4.7.2c-4.6-.6-8.1-3-11.2-6a24.26,24.26,0,0,1-2.4-3,17.77,17.77,0,0,0-1,3.6c-.4,2.7-1.3,5.4.8,7.9a22.6,22.6,0,0,1-2.6-.1c-3.2-.4-5.2-3.4-5.5-6.2-.4-4.2.8-8,2.6-11.8A26.21,26.21,0,0,1,67.3,11a11.64,11.64,0,0,1,3.3-1.8c3.7-1.4,7.5-2.6,11.6-2.3A34.27,34.27,0,0,1,94.5,9.5a5.1,5.1,0,0,1,2.2,1.9,24.65,24.65,0,0,1,4.2,8.8,46,46,0,0,1,.6,11.1c-.2,3.2-.6,6.4-1.1,9.6C100.2,43,99.8,44.8,99.5,46.6Z" transform="translate(-18.92 -6.85)" fill="#883813"/><path d="M100.6,69.9c.1-.6-.7-.8-.9-1.3a28.82,28.82,0,0,1-1.3-6.5c-.1-1.6-.1-3.3-.1-4.9a16.84,16.84,0,0,1,.8-5.9,6.1,6.1,0,0,0,.6-4,43.21,43.21,0,0,1,8.8.3,4.18,4.18,0,0,1,2.4,1.4,15.4,15.4,0,0,1,2.3,3.9,4.48,4.48,0,0,1,.1,2.8,3.72,3.72,0,0,0-.2,1.8c.3,4.8.3,9.7.4,14.5.1,4.4.1,8.8.4,13.2.3,4.1.4,8.3.5,12.4a76.19,76.19,0,0,0,1.6,12.6,47.75,47.75,0,0,1,.8,7.5c.3,5.5.1,10.9.2,16.4,0,1.7.9,3.2,1.5,4.8a62.45,62.45,0,0,0,3.5,6.8,12.82,12.82,0,0,1,1.3,5.1c.1,1.7.2,3.5.2,5.2a9.85,9.85,0,0,1-.2,1.7c-.1.9-.9,1.1-1.6,1.4a1.44,1.44,0,0,1-1.5-.5c-1-1-2-2.1-3-3.2a37.06,37.06,0,0,0,2.7-2.9,4.49,4.49,0,0,0,.7-1.8,12.65,12.65,0,0,0-2.1-8.4,7.74,7.74,0,0,1-.7-1.6,51.49,51.49,0,0,0-2.3-5.4c-2.1-5.5-5.4-10.6-8.5-15.7a7.46,7.46,0,0,0-.7-1.2c0-.1.1-.2,0-.3-.8-3.2-1.6-6.3-2.4-9.5a11,11,0,0,1-.6-2.6,40.28,40.28,0,0,0,.3-4.9,16.09,16.09,0,0,1,0-3.8,33,33,0,0,0-.3-8.3c-.3-3.4-.7-6.8-1.1-10.2-.3-2.7-.5-5.4-.8-8a12.29,12.29,0,0,0-.5-2.5C100.6,68.9,100.8,69.4,100.6,69.9Z" transform="translate(-18.92 -6.85)" fill="#f5ca7f"/><path d="M97.1,194a6.36,6.36,0,0,0,1.4-2.2,119.85,119.85,0,0,0,7.9-18.9,5.58,5.58,0,0,1,.7-1.6,9.85,9.85,0,0,1,.8,2.8c1.2,5.2,2.5,10.3,3.9,15.5.8,2.9,2.8,5.2,4.4,7.6,2.2,3.3,5,6.3,7.4,9.5,1.9,2.7,4.1,5.2,5.2,8.3a27.47,27.47,0,0,1,1.5,6.9,57.82,57.82,0,0,0,1.2,5.7c1,4.7,1.9,9.4,2.6,14.1a5,5,0,0,1,.2,1.7c-1.4-.1-1.2.9-1.3,1.6a9.93,9.93,0,0,1-5.2,7.1,3.18,3.18,0,0,1-3.4.3,31.6,31.6,0,0,0-1.1-6,143.12,143.12,0,0,0-5.2-16.5,96,96,0,0,0-7-15.3c-2.8-4.9-6.4-9.3-9.9-13.8-2.3-1.5-2.6-3.9-3.8-6A1.6,1.6,0,0,0,97.1,194Z" transform="translate(-18.92 -6.85)" fill="#f5ca7f"/><path d="M73.8,262.5a15.62,15.62,0,0,0,6-1.5,52.06,52.06,0,0,0,5.2-2.8c.2-.1.3-.2.5-.3.9-.4,1.5-.1,1.5.7.2,2.7.4,5.5.5,8.2.2,3.7.4,7.4.3,11.1,0,2-.2,4-.2,6s-.7,2-2.6,2.1c-3.3.1-5.4,1.4-6.6,4-.8,1.8-2.2,3.2-3.3,4.9a2.56,2.56,0,0,1-1.9.8,50.68,50.68,0,0,1-10.3.2,37.47,37.47,0,0,1-6.7-1.1l-.9-.3c-1.1-.5-1.3-1.4-.4-2.1a37.76,37.76,0,0,0,7.5-8,57.76,57.76,0,0,0,6.3-10.7c.7-1.7,1.1-3.5,1.9-5.1a12.7,12.7,0,0,0,1.7-4c.1-.4.3-.7.2-1.1C72.5,262.7,73,262.5,73.8,262.5Z" transform="translate(-18.92 -6.85)" fill="#010101"/><path d="M124.5,252.4c1.2.7,2.3.3,3.4-.3a9.43,9.43,0,0,0,5.2-7.1c.1-.7-.1-1.7,1.3-1.6.7.5.7,1.2.8,1.9a16.38,16.38,0,0,0,3.7,7c1,1.2,2,2.4,3.1,3.6a4,4,0,0,1,.5,4.3,29.19,29.19,0,0,0-2.4,10.4,72.1,72.1,0,0,1-1,11.4c-.6,3-1.8,4.1-5.3,4.6-4,.6-8.1.9-12.1,1.1a4.87,4.87,0,0,1-1.2-.1c-1-.2-1.6-.8-1.4-1.8a3.91,3.91,0,0,1,1-1.9,28.12,28.12,0,0,0,5.2-12.2,31.59,31.59,0,0,0-.1-9.7c-.4-2.9-1-5.8-1.3-8.7C123.9,253,123.8,252.6,124.5,252.4Z" transform="translate(-18.92 -6.85)" fill="#010101"/><path d="M60.3,76.2a7.87,7.87,0,0,1,.8,4.5c-.4,2.8.6,5.6.3,8.4-.1,1.4-.2,2.8-.2,4.2a2.22,2.22,0,0,1-.5,1.1c-2.4,3.9-4.6,7.8-6.8,11.8a4.35,4.35,0,0,0-.4.7,6.69,6.69,0,0,1-3.4-2.3c-3.8-4.6-7.2-9.5-10.6-14.4-5.5-7.9-10.7-16-16.2-23.9a9.62,9.62,0,0,1-1.9-6.1,48.74,48.74,0,0,0-.2-5.4c0-.4-.1-.8.4-1,1.4,1.9,2.5,3.9,3.7,5.8L33.7,74c1,1.8,1,1.8,3,.9.5-.2.5-.4.3-.8A30.71,30.71,0,0,0,35.3,71c-2-3.4-3.6-7-5.7-10.3a5,5,0,0,1-.8-1.4c.3-.4.6-.5,1-.1,1.7,1.5,3.9,2.1,6,2.7a4.36,4.36,0,0,1,2.9,2.7A17.24,17.24,0,0,1,39.9,73a5.34,5.34,0,0,0,1,2.9,21,21,0,0,0,5,6.2c2.5,2.3,5.2,4.5,7.8,6.8a10.23,10.23,0,0,0,2.2,1.4c1.1.6,1.7.4,2-.7s.4-2.5.7-3.7C59.2,82.6,59.8,79.4,60.3,76.2Z" transform="translate(-18.92 -6.85)" fill="#f5ca7f"/><path d="M64.2,37.4a22.6,22.6,0,0,1,2.6.1,1.69,1.69,0,0,1,.7,1.2,31.09,31.09,0,0,1,.8,4.4,1.11,1.11,0,0,0,1.6.9c.2-.1.4-.1.6-.2.6-.4,1-.3,1.5.3.9,1.1,1.9,2.2,2.9,3.2a2,2,0,0,0,2.3.6c.7-.2,1.3-.5,2-.7.5.7-.1,1.2-.2,1.8a5.83,5.83,0,0,0-1.8.8c-1.8,1.1-3.7,2.2-5.6,3.2-.6.3-1.3.3-1.8.7a19.3,19.3,0,0,0-3.4,1.1,4,4,0,0,0-3.1,2.6c-.1.3,0,.6-.4.7a26.64,26.64,0,0,1-.3-6.3A77.44,77.44,0,0,1,64.2,37.4Z" transform="translate(-18.92 -6.85)" fill="#200101"/><path d="M28.8,59.2a3.92,3.92,0,0,0,.8,1.4c2.1,3.4,3.7,6.9,5.7,10.3A30.71,30.71,0,0,1,37,74c.2.4.2.6-.3.8-2,.9-2,.9-3-.9L25.3,59.5c-1.2-2-2.3-3.9-3.7-5.8a17.24,17.24,0,0,0-2.2-3.3c-.4-.5-.8-1-.1-1.7,1.2-1.1,1.7-1.1,2.7.2,2.4,3.1,4.1,6.7,6.4,9.9C28.5,59,28.5,59.2,28.8,59.2Z" transform="translate(-18.92 -6.85)" fill="#060302"/><path d="M63.1,58.1c.3-.2.3-.5.4-.7a3.66,3.66,0,0,1,3.1-2.6c1.2-.3,2.2-1,3.4-1.1a39.64,39.64,0,0,0-3.8,7,5.81,5.81,0,0,1-1.6,1.9,39.74,39.74,0,0,0-2.8,3,25.67,25.67,0,0,1,.8-4.7A23.25,23.25,0,0,0,63.1,58.1Z" transform="translate(-18.92 -6.85)" fill="#f5ca7f"/><path d="M69.8,227.4a2.62,2.62,0,0,1,.6,3A10.66,10.66,0,0,1,69.8,227.4Z" transform="translate(-18.92 -6.85)" fill="#f86843"/><path d="M107.1,170.9a.64.64,0,0,1,0-.6A.64.64,0,0,1,107.1,170.9Z" transform="translate(-18.92 -6.85)" fill="#fea48f"/><path d="M94.2,159.3c-1.6.1-2.9-.8-4.4-1.2-2.3-.6-4.5-1.3-6.7-1.9-1.9-.5-3.9-.7-5.9-1.3-.3-.1-.6,0-.9-.1.3-2.5.6-5,.9-7.6.1-1.2.3-2.5.4-3.7.2-1.9.5-3.9.8-5.8.3-2.1.6-4.2,1.1-6.3a11.22,11.22,0,0,1,.8-2.6,1.31,1.31,0,0,1,1.3-1,1.57,1.57,0,0,1,1.4.9,26.23,26.23,0,0,1,1.9,4.6c1.2,3.3,2.4,6.7,3.6,10,.8,2.4,2.3,4.7,3.2,7.1a62.82,62.82,0,0,1,2.5,7.3A8.55,8.55,0,0,1,94.2,159.3Z" transform="translate(-18.92 -6.85)" fill="#3d8e7d"/><path d="M79.1,48.9c.1-.6.6-1.2.2-1.8.1,0,.3-.1.4-.1,2.3-1.9,4.8-3.6,6.9-5.7l1.8-1.8a42.48,42.48,0,0,0,1.2,6c0,.1,0,.3.2.3-.9,1.1-1.6,2.3-2.6,3.4a18.63,18.63,0,0,1-2.6,2.3,12.8,12.8,0,0,1-3.9,2.4c-1.5.5-2,.3-2-1.1S79.1,50.2,79.1,48.9Z" transform="translate(-18.92 -6.85)" fill="#f2806d"/><path d="M89.8,45.7c-.2,0-.1-.2-.2-.3,1.4-2.8,2.4-5.8,3.6-8.6.2-.5.5-1,.7-1.5a.79.79,0,0,1,.8-.5.85.85,0,0,1,.8.7,28.06,28.06,0,0,1,.8,3.1c.5,2.4.9,4.8,1.3,7.3.1.5.1,1-.7.9a25.71,25.71,0,0,1-5.5-1.2A1.12,1.12,0,0,0,89.8,45.7Z" transform="translate(-18.92 -6.85)" fill="#200101"/><path d="M88.5,39.4l-1.8,1.8c-2.1,2.1-4.6,3.8-6.9,5.7a.6.6,0,0,1-.4.1,15.87,15.87,0,0,1-2,.7,2,2,0,0,1-2.3-.6c-1-1-2-2.1-2.9-3.2a1,1,0,0,0-1.5-.3,1.42,1.42,0,0,1-.6.2c-.9.2-1.5-.1-1.6-.9-.2-1.5-.5-2.9-.8-4.4a1.52,1.52,0,0,0-.7-1.2c-2.1-2.5-1.2-5.2-.8-7.9a17.77,17.77,0,0,1,1-3.6,24.26,24.26,0,0,0,2.4,3c3,3,6.5,5.4,11.2,6a10.61,10.61,0,0,0,4.7-.2,1.27,1.27,0,0,0,1.1-1.5c-.1-1.2.7-2.1,1.6-3,.4-.4.7-.1.9.2a4.89,4.89,0,0,1,.8,2.3A16.87,16.87,0,0,1,88.5,39.4Z" transform="translate(-18.92 -6.85)" fill="#f5ca7f"/></g></svg>