<?xml version="1.0" encoding="utf-8"?>
<!-- Generator: Adobe Illustrator 25.2.1, SVG Export Plug-In . SVG Version: 6.00 Build 0)  -->
<svg version="1.1" xmlns="http://www.w3.org/2000/svg" xmlns:xlink="http://www.w3.org/1999/xlink" x="0px" y="0px"
	 viewBox="0 0 249.2 283.6" style="enable-background:new 0 0 249.2 283.6;" xml:space="preserve">
<style type="text/css">
	.st0{fill:url(#SVGID_1_);}
	.st1{fill:#F42106;}
	.st2{fill:url(#SVGID_2_);}
	.st3{fill:url(#SVGID_3_);}
	.st4{fill:url(#SVGID_4_);}
	.st5{fill:url(#SVGID_5_);}
	.st6{fill:url(#SVGID_6_);}
	.st7{fill:url(#SVGID_7_);}
	.st8{fill:url(#SVGID_8_);}
	.st9{fill:url(#SVGID_9_);}
</style>
<g id="Capa_13">
	<linearGradient id="SVGID_1_" gradientUnits="userSpaceOnUse" x1="158.9373" y1="260.6724" x2="158.9373" y2="178.9231">
		<stop  offset="0" style="stop-color:#1F1E5E"/>
		<stop  offset="1" style="stop-color:#1C1C5A"/>
	</linearGradient>
	<path class="st0" d="M155.1,197.8v56.7c0,0-22.4-0.7-21.6,3.2c0.8,4,46.3,2.8,46.3,2.8c0.4,0,1.5-0.2,2.4-1.1
		c0.4-0.3,0.9-0.8,0.9-1.3c0-1.5-4.7-3.4-8.1-3.6c-4.9-0.3-13.8,0-13.8,0l-0.4-56.7h26.5c0,0,4.2-1.2,3.8-9.1
		c-0.4-7.9-3.8-9.5-7.5-9.7c-3.8-0.2-50.1,0-50.1,0s-6.5,1-6.7,7.1s1,11.5,6.7,11.9S155.1,197.8,155.1,197.8z"/>
</g>
<g id="Capa_12">
	<path class="st1" d="M76.5,250.8c0,0,3.4,4.5,0.7,7c-2.8,2.5-31.9,5.3-37.2,3.6s8.3-6.9,8.3-6.9s15.3,0.7,20.9-1.7
		S76.5,250.8,76.5,250.8z"/>
</g>
<g id="Capa_4">
	<linearGradient id="SVGID_2_" gradientUnits="userSpaceOnUse" x1="129.6593" y1="58.8018" x2="149.5385" y2="58.8018">
		<stop  offset="0" style="stop-color:#EFBEA3"/>
		<stop  offset="0.2354" style="stop-color:#E7BFAE"/>
		<stop  offset="0.5447" style="stop-color:#E0BFB8"/>
		<stop  offset="0.6739" style="stop-color:#EBB4A5"/>
		<stop  offset="0.8749" style="stop-color:#FAA68E"/>
		<stop  offset="1" style="stop-color:#FFA185"/>
	</linearGradient>
	<path class="st2" d="M132.7,60.1l2.9,10.1c0,0,10.5,3.2,13.9-2.4l-9.9-21.4l-6.9,1.4l-3.1,7.7L132.7,60.1z"/>
</g>
<g id="Capa_6">
	<radialGradient id="SVGID_3_" cx="113.9181" cy="201.6183" r="39.8713" gradientUnits="userSpaceOnUse">
		<stop  offset="0" style="stop-color:#EAA98C"/>
		<stop  offset="0.2626" style="stop-color:#EF9880"/>
		<stop  offset="0.7171" style="stop-color:#F6816E"/>
		<stop  offset="1" style="stop-color:#F87868"/>
	</radialGradient>
	<path class="st3" d="M133.5,176c0,0-5.3,4.2-18.4,3.4c0,0,9.5,5.9,6.9,35.6c0,0-1.6,12.5,4.7,16c0,0-0.6,28.9-14.4,22.5
		c0,0,7.1-12.5,3.8-21.8c-3.4-9.3-14.6-28.1-16.2-39c-1.6-10.9-5.3-28.3-5.3-28.3s-1.6-2.8,3.6-5.9c5.1-3.2,29.7-9.9,29.7-9.9
		L133.5,176z"/>
</g>
<g id="Capa_5">
	<radialGradient id="SVGID_4_" cx="101.6485" cy="203.7591" r="52.9041" gradientUnits="userSpaceOnUse">
		<stop  offset="0" style="stop-color:#EAA98C"/>
		<stop  offset="0.2626" style="stop-color:#EF9880"/>
		<stop  offset="0.7171" style="stop-color:#F6816E"/>
		<stop  offset="1" style="stop-color:#F87868"/>
	</radialGradient>
	<path class="st4" d="M127.9,178.7c0,0-16.6-1.3-17.1-1.7c-0.5-0.4,2.7,15.4-10.1,30.8c0,0-24.4,35.1-24.8,35.5l0.5,7.5
		c0,0-15.2,6.5-25.2,5.1s7.6-7.4,7.6-7.4s10.2-7,10.9-11.6c0.8-4.6,18.5-62,29-73.7s56.2-11.9,56.2-11.9L127.9,178.7z"/>
</g>
<g id="Capa_7">
	<radialGradient id="SVGID_5_" cx="148.2815" cy="125.786" r="53.3497" gradientUnits="userSpaceOnUse">
		<stop  offset="0" style="stop-color:#15FFEE"/>
		<stop  offset="0.1941" style="stop-color:#10D4D7"/>
		<stop  offset="0.4638" style="stop-color:#099FBA"/>
		<stop  offset="0.6978" style="stop-color:#0478A5"/>
		<stop  offset="0.8843" style="stop-color:#016199"/>
		<stop  offset="1" style="stop-color:#005894"/>
	</radialGradient>
	<path class="st5" d="M100,154.5l30.9,26.9c0,0,69.1,11.3,65.7-16.6s-20-29.8-26.1-50.4l12.4,16.4l13.8-5.3c0,0-14-38.1-44.2-55.8
		l-2.8-1.9c0,0-4.4,4.9-14.5,2.1l0.7-1.4c0,0-3.4,0.4-3.9,3.6s-20.8,34.2-5.5,42.1s25.3,15.3,24.3,26.3L100,154.5z"/>
</g>
<g id="Capa_8">
	<linearGradient id="SVGID_6_" gradientUnits="userSpaceOnUse" x1="119.684" y1="126.0402" x2="196.2253" y2="138.1931">
		<stop  offset="0" style="stop-color:#FF836F"/>
		<stop  offset="0.2205" style="stop-color:#F0A193"/>
		<stop  offset="0.4247" style="stop-color:#E4B7AE"/>
		<stop  offset="0.5447" style="stop-color:#E0BFB8"/>
		<stop  offset="0.5719" style="stop-color:#E3BAB2"/>
		<stop  offset="0.7582" style="stop-color:#F29A8B"/>
		<stop  offset="0.9074" style="stop-color:#FB8674"/>
		<stop  offset="1" style="stop-color:#FF7F6B"/>
	</linearGradient>
	<path class="st6" d="M196.6,125.5c0,0-32.6,12.9-50.8,8.8c-18.2-4.2-16.1-6.7-16.1-6.7l-7.8,7.5l-1.2,2.1l3.6,2.2
		c0,0,65.7,11.5,72.4,1.2c0,0,3.8-1.8,2.6-8.5C198,125.4,196.6,125.5,196.6,125.5z"/>
</g>
<g id="Capa_3">
	<linearGradient id="SVGID_7_" gradientUnits="userSpaceOnUse" x1="111.7582" y1="47.2747" x2="141.3462" y2="47.2747">
		<stop  offset="0" style="stop-color:#F2BAB1"/>
		<stop  offset="1" style="stop-color:#FF806A"/>
	</linearGradient>
	<path class="st7" d="M111.8,39.9c0,0,1.6,22.2,15.8,25.7c0,0,8.7-0.2,12.1-13.4c3.4-13.2,0.7-22.1,0.7-22.1L123.7,29l-12,3.4V39.9z
		"/>
</g>
<g id="Capa_9">
	<path class="st1" d="M127.1,230.1c0,0-2.1,24.8-11.9,24.3c0,0-3.3-2.3-6.7,0s-5.7,3.8-2.1,4.3s15.6,0.9,17.4-0.8
		c1.8-1.7,9-17,9.7-23.6C134.2,227.7,127.1,230.1,127.1,230.1z"/>
</g>
<g id="Capa_2">
	<linearGradient id="SVGID_8_" gradientUnits="userSpaceOnUse" x1="104.1787" y1="59.5546" x2="200.5708" y2="59.5546">
		<stop  offset="0" style="stop-color:#F2C548"/>
		<stop  offset="1" style="stop-color:#B2A508"/>
	</linearGradient>
	<path class="st8" d="M139.1,41.9c0,0,1.6,2.8,1.4,7.1l9.1,18.8c0,0,19.2,11.5,33.6,32.4c0,0,17.2-3.8,5.9-17.6c0,0,15-2,10.7-16.2
		S179,57,179,57s6.5-11.3-1-15s-12.3-1.4-12.3-1.4S151.5,16.6,134.5,19c-17,2.4-20,1.8-20,1.8s-21.8,13.1-2.2,23.3
		c0,0,6.5-15,19-1.6c0.7,0.3,1.2,0.2,1.4,0.1c1.8-1-1-7.1,1.2-8.6c0.7-0.5,1.7-0.2,1.9-0.2c2,0.5,2.9,3.5,3,5.5
		C139.1,41.9,139.1,41.9,139.1,41.9z"/>
</g>
<g id="Capa_11">
	<linearGradient id="SVGID_9_" gradientUnits="userSpaceOnUse" x1="33.6408" y1="114.4704" x2="162.4198" y2="114.4704">
		<stop  offset="0" style="stop-color:#1F1E5E"/>
		<stop  offset="1" style="stop-color:#4646B2"/>
	</linearGradient>
	<path class="st9" d="M122.4,137.7H160c0,0,5.4,3.8,0,5.3s-102.3,0-102.3,0s-2.8,1.2-5.5-5.3c-2.8-6.5-18.4-47.5-18.4-47.5
		s-1.6-4.7,4.5-4.9S92,86,92,86s6.3-0.6,9.7,7.7C105,102.1,122.4,137.7,122.4,137.7z"/>
</g>
</svg>
