<?xml version="1.0" encoding="utf-8"?>
<!-- Generator: Adobe Illustrator 25.2.1, SVG Export Plug-In . SVG Version: 6.00 Build 0)  -->
<svg version="1.1" id="Capa_2" xmlns="http://www.w3.org/2000/svg" xmlns:xlink="http://www.w3.org/1999/xlink" x="0px" y="0px"
	 viewBox="0 0 94.9 93.9" style="enable-background:new 0 0 94.9 93.9;" xml:space="preserve">
<style type="text/css">
	.st0{fill:#636363;}
</style>
<g>
	<polygon class="st0" points="70.9,27.3 70.9,32.3 83,32.3 83,89.3 70.9,89.3 70.9,94.3 88,94.3 88,27.3 	"/>
	<path class="st0" d="M61.2,6.3h-5v9.5l-2.7-1V6.3h-5v6.6L21.6,2.6L22.2,55h-4.5v-8h-5v8H7v40.4h60.2V20l-5.9-2.3V6.3z M12,90.4V60
		h23.5l0.2,30.4H12z M62.2,90.4H40.7L40.5,55H27.2L26.7,9.9l35.5,13.5V90.4z"/>
</g>
</svg>
