<?xml version="1.0" encoding="UTF-8" standalone="no"?>
<!-- Generator: Adobe Illustrator 25.2.1, SVG Export Plug-In . SVG Version: 6.00 Build 0)  -->

<svg
   xmlns:dc="http://purl.org/dc/elements/1.1/"
   xmlns:cc="http://creativecommons.org/ns#"
   xmlns:rdf="http://www.w3.org/1999/02/22-rdf-syntax-ns#"
   xmlns:svg="http://www.w3.org/2000/svg"
   xmlns="http://www.w3.org/2000/svg"
   xmlns:sodipodi="http://sodipodi.sourceforge.net/DTD/sodipodi-0.dtd"
   xmlns:inkscape="http://www.inkscape.org/namespaces/inkscape"
   version="1.1"
   id="ujgbui_xA0_Imagen_1_"
   x="0px"
   y="0px"
   viewBox="0 0 920 920"
   style="enable-background:new 0 0 920 920;"
   xml:space="preserve"
   sodipodi:docname="color.svg"
   inkscape:version="0.92.5 (2060ec1f9f, 2020-04-08)"><metadata
   id="metadata17"><rdf:RDF><cc:Work
       rdf:about=""><dc:format>image/svg+xml</dc:format><dc:type
         rdf:resource="http://purl.org/dc/dcmitype/StillImage" /><dc:title></dc:title></cc:Work></rdf:RDF></metadata><defs
   id="defs15" /><sodipodi:namedview
   pagecolor="#ffffff"
   bordercolor="#666666"
   borderopacity="1"
   objecttolerance="10"
   gridtolerance="10"
   guidetolerance="10"
   inkscape:pageopacity="0"
   inkscape:pageshadow="2"
   inkscape:window-width="1360"
   inkscape:window-height="705"
   id="namedview13"
   showgrid="false"
   inkscape:zoom="0.25351563"
   inkscape:cx="241.30053"
   inkscape:cy="670.65148"
   inkscape:window-x="0"
   inkscape:window-y="0"
   inkscape:window-maximized="1"
   inkscape:current-layer="ujgbui_xA0_Imagen_1_" />
<style
   type="text/css"
   id="style2">
	.st0{fill:#018DC2;}
</style>
<g
   id="g10">
	<path
   class="st0"
   d="M760.2,402.3c0.3-19.2-6.2-35.5-20-48.9c-3-3-3-4.2,1-6.1c14.3-6.8,21.6-21.7,18.1-36.3   c-3.6-15.2-16.2-25.3-32.2-25.5c-5.7-0.1-11.3-0.2-17,0.1c-3.4,0.2-5.1-1.1-6.1-4.3c-2.9-9.4-6-18.7-9.2-28   c-8.5-25.1-25.6-41.2-51.3-47.9c-12.2-3.2-24.8-2.4-37.3-2.4c-55-0.1-110,0.1-164.9,0c-8.9,0-17.6,0.7-26,3.3   c-20.4,6.4-36.6,18.2-45.2,38.2c-4.9,11.4-8.3,23.4-12.1,35.2c-1.4,4.5-2.8,7.6-8.6,7c-5.9-0.7-12,0.2-18-0.2   c-15.9-1.1-30.3,16.9-30.7,30.8c-0.2,7-0.1,6.9,6.7,4.9c1.4-0.4,2.9-0.5,4.4-0.6c14-0.9,28-0.4,42-0.4c3.5,0,6.3-1,7.5-4.5   c6.2-18.7,12.4-37.4,18.5-56.1c2.5-7.6,5.2-15.1,10.3-21.2c11.5-13.9,26.4-20.2,44.5-20.1c63.8,0.2,127.6,0.1,191.4,0.1   c6.3,0,12.4,0.6,18.7,2.5c18.4,5.4,29.1,17.9,35.1,35.3c4.5,13,8.8,26,13.1,39.1c3.6,10.7,7.3,21.3,10.7,32c2,6.4,1.6,6.7-5.2,6.7   c-20.7,0-41.3,0-62,0c-1.7,0-3.6-0.6-5.5,0.8c3,3.6,7.6,4.7,10.8,7.7c12.7,11.9,21.9,26,28,42.2c1.8,4.7,3.4,5.1,7.2,2.4   c1.8-1.3,3.9-1.9,5.9-2.6c13.1-4.5,25.3-2.5,35.2,6.8c9.1,8.6,12.6,20,9.3,32.3c-1.3,4.9,0.1,6.3,3.9,8.2   c16.3,8,25.3,20.9,24.9,39.5c0,0.8-0.5,2,0.8,2.4c2.9-3.1,3.1-6.8,3.1-10.7C760.2,443.3,760,422.8,760.2,402.3z"
   id="path4" />
	<path
   class="st0"
   d="M299.3,276.3c-15,14.1-17.7,32.1-16.4,51.4c0.1,1.1-0.1,2.3,1.6,2.5c4.1,0.5,8.6-3.4,8.6-7.7c0-4,0.2-8-0.1-12   c-1.2-15.4,15.5-32.4,31.4-31.3c5.3,0.4,10.7-0.3,16,0.1c4.8,0.4,7.5-1.5,8.8-6c0.9-3.2,2-6.3,3.4-9.3c1.2-2.6,0.3-3.2-2.2-3.2   c-5.5,0.1-11-0.2-16.5,0.1c-4.3,0.2-5.9-1.2-4.3-5.4c0.3-0.9,0.5-1.9,0.8-2.9c5.8-17.4,11.7-34.8,17.5-52.2   c2.6-7.9,5.5-15.7,11.1-21.9c8.9-9.8,20.5-13.5,33.5-13.4c26.8,0.1,53.6,0,80.4,0c27.3,0,54.6-0.1,81.9,0   c18.9,0.1,33.1,8.5,40.4,25.9c2.7,6.5,6,7,11.5,6.9c3.4-0.1,3.8-1.1,2.9-4.2c-7.9-25-30.1-41.7-56.2-41.7   c-53.8-0.1-107.6,0-161.4,0c-22.4,0-44.1,14.4-52.5,35.3c-3.8,9.6-7,19.4-10.2,29.2c-0.9,2.7-2.2,3.7-5,3.6c-4.5-0.2-9-0.1-13.5,0   c-13.9,0.3-24.3,8.4-27.4,21.1c-2.8,11.8,2.8,23.5,14.8,29.8C301.2,272.5,302.1,273.7,299.3,276.3z"
   id="path6" />
	<path
   class="st0"
   d="M746.3,579.9c-0.1-21.9-9.1-40.1-23.4-56c-6.3-7-6.6-6.6,1.1-11.4c4.9-3,8.1-7.9,12.3-11.6   c6.5-5.9,8.5-13.4,9.2-21.8c1.6-21.4-10.1-31-10.1-31l0,0c-8-8.6-17.7-13.7-30.1-13.6c-8.2,0.1-16.3,0-24.5,0c-3.1,0-5.6-1-6.6-4.1   c-4.1-12.5-8.4-25-12.3-37.7c-6.7-21.7-20-38.2-38.9-50.4c-13.2-8.5-27.9-13.6-43.4-13.7c-86-0.3-171.9-0.2-257.9-0.1   c-10.8,0-21.3,2.4-30.9,6.6c-24.7,10.8-42,28.9-50.7,54.8c-4.3,12.8-8.8,25.5-12.8,38.3c-1.3,4.1-3.1,5.9-7.7,5.6   c-7.5-0.4-15-0.1-22.5-0.1c-20.3,0-37.3,14.1-41.6,34.3c-3.9,18.3,6.8,38.2,24.8,46.1c5,2.2,4.9,2.1,1,6.1   c-17.3,17.2-26.5,37.9-26.4,62.6c0.1,25.7,0.6,51.3-0.2,77c-0.5,15.3,5.8,25.9,18,33.8c2.6,1.6,3.5,3.6,3.4,6.6   c-0.1,12-0.1,24-0.1,36c0,0,0.1,0,0.1,0c0,11.8,0,23.7,0,35.5c0,11.7,9.1,20.9,20.9,20.9c20.8,0,41.6,0,62.5,0   c12.5,0,21.5-8.9,21.6-21.3c0.1-13.8,0-27.7,0-41.5c0-7.4-0.1-7.4,7.5-6.5c29.5,3.4,59.1,5.1,88.7,5.4   c79.4,0.8,158.9,2.6,238.1-5.7c3.8-0.4,4.9,0.7,4.9,4.5c-0.2,14.3-0.1,28.7-0.1,43c0,13.2,9.2,22.4,22.3,22.4c20.3,0,40.6,0.1,61,0   c12.6,0,21.7-9.2,21.8-21.7c0-22.5,0.2-45-0.1-67.5c-0.1-5.2,1.3-8.4,5.7-11.5c9-6.3,15.7-14.4,15.7-26.3   C746.2,637.2,746.4,608.6,746.3,579.9z M281.4,602.8C280.5,627,263.3,645,239,645c-24.1,0-42-18.3-42.3-42.3   c-0.3-22.9,18.9-43.2,42.4-42C262.1,559.3,282.1,580.3,281.4,602.8z M545,645c-31.7,0-63.3,0-95,0c-31.2,0-62.3,0-93.5,0   c-8.1,0-11.7-3.6-11.5-11c0.2-7,3.4-10.4,10.6-10.4c63.1,0,126.3-0.1,189.4,0c7.3,0,11.8,4.6,11.6,11.4   C556.4,641.7,552.8,645,545,645z M568.9,602.7c-1.6,0.2-3.3,0.1-5,0.2c-37.8,0-75.6,0-113.4,0c-37.5,0-74.9,0-112.4,0   c-1.3,0-2.7,0-4,0c-8-0.3-10.6-2.7-10.8-9.9c-0.2-6.8,3.9-11.3,10.8-11.7c1.8-0.1,3.7,0,5.5,0c75.1,0,150.2,0,225.3,0   c7.9,0,11.7,2.4,13.1,8.1C579.5,595.9,575.6,601.8,568.9,602.7z M450.5,497c-72.8,0-145.6-0.1-218.4,0.1c-5,0-5.9-1.5-4.6-5.7   c3.2-9.9,6.3-19.8,9.5-29.7c5-15,9.8-30.1,15.1-45.1c4.6-12.8,7-26.4,15.5-37.8c9.6-12.9,21.3-22.4,36.9-27.1   c7.2-2.2,14.3-2.7,21.6-2.7c82.8,0,165.6,0.2,248.4-0.1c22.4-0.1,40.7,7.7,55.3,24.4c7.3,8.4,10.9,18.7,14.3,29.1   c6.9,21.1,13.9,42.1,21,63.1c2.9,8.8,6.1,17.5,9.1,26.2c1.4,4.1,0.1,5.3-4.3,5.3C596.7,496.9,523.6,497,450.5,497z M659.7,646.1   c-20.2,0.3-40.5-18.7-40.6-43.8c-0.1-23.1,17.7-42.9,42.9-41.6c25.5-0.9,43.2,17.9,42.8,42.2C704.2,631.3,686,645.7,659.7,646.1z"
   id="path8" />
</g>
<path
   style="fill:#241c1c;fill-opacity:0.63019738;stroke-width:1.97226501;paint-order:markers fill stroke"
   d="m 755.79005,461.38059 c -3.2126,-12.12129 -9.98104,-21.29865 -19.93163,-27.0255 -7.50516,-4.31942 -7.55393,-4.42803 -7.3061,-16.27318 0.2957,-14.13285 -4.7614,-24.01782 -15.76733,-30.81985 -8.47743,-5.23935 -24.88604,-5.67399 -34.11101,-0.90357 l -6.20786,3.21021 -4.1247,-9.45615 c -6.01421,-13.788 -20.45931,-33.34797 -28.82641,-39.03355 l -7.2658,-4.93724 h 35.8422 c 19.71321,0 36.31376,-0.76299 36.8901,-1.69552 1.18018,-1.90959 -24.08144,-78.73518 -29.03784,-88.30978 -4.87569,-9.4187 -19.87211,-21.54957 -30.43232,-24.61727 -7.47155,-2.17046 -30.92877,-2.7272 -114.90426,-2.7272 -58.0339,0 -108.7168,0.68192 -112.62867,1.51538 -9.7849,2.08476 -23.89545,11.822 -29.97929,20.68774 -2.78568,4.05947 -10.00431,22.46868 -16.04139,40.90936 -6.03709,18.44068 -11.63967,34.54894 -12.45018,35.79614 -0.95961,1.47661 -11.27782,2.50858 -29.57973,2.95839 l -28.10608,0.69077 10e-4,-4.51617 c 0.002,-7.08061 7.17112,-19.35565 14.25557,-24.40865 5.22221,-3.72475 9.54647,-4.73587 22.64957,-5.29601 9.08427,-0.38835 16.94588,-1.6873 17.90507,-2.9584 0.9405,-1.24634 4.18074,-10.01603 7.20053,-19.48821 9.9163,-31.10445 23.37246,-47.10493 46.97989,-55.86293 9.77815,-3.62754 16.26029,-3.83327 120.77954,-3.83327 110.08968,0 110.48242,0.0144 121.4508,4.45338 22.32971,9.03698 33.20113,22.66791 45.15094,56.61169 l 6.96977,19.7978 17.16634,1.03073 c 18.12689,1.0884 23.86955,3.62262 31.56466,13.92937 9.37211,12.55292 5.17655,33.54356 -8.51575,42.60468 -4.22678,2.79716 -7.68506,6.13303 -7.68506,7.41306 0,1.28002 2.59814,4.8165 5.77366,7.85884 3.17553,3.04234 7.82167,10.08666 10.32479,15.65405 4.06346,9.03786 4.62232,13.71519 5.2156,43.65103 0.36546,18.44067 0.37877,37.9661 0.0296,43.38983 l -0.63487,9.86132 -2.61365,-9.86132 z"
   id="path19"
   inkscape:connector-curvature="0" /><path
   style="fill:#501616;fill-opacity:0.63019738;stroke-width:1.97226501;paint-order:markers fill stroke"
   d="m 755.4453,457.84838 c 0,-4.45488 -11.24086,-18.72404 -18.4977,-23.481 -6.14693,-4.02942 -6.74416,-5.33155 -7.65613,-16.6929 -0.55748,-6.94513 -2.64412,-15.15628 -4.7816,-18.81616 -8.08122,-13.83697 -24.39353,-19.52589 -41.29004,-14.39991 -5.29295,1.60575 -9.79701,2.92915 -10.00905,2.94089 -0.21203,0.0118 -3.75203,-6.38512 -7.86665,-14.21525 -4.1146,-7.83012 -12.50207,-19.36787 -18.63879,-25.63944 l -11.1577,-11.40285 h 34.19298 c 19.18245,0 34.69536,-0.81285 35.33735,-1.85161 0.62939,-1.01838 -5.26169,-21.20945 -13.09128,-44.86903 -13.14361,-39.71745 -14.90151,-43.72974 -22.91536,-52.30292 -4.77382,-5.10702 -12.80879,-11.31965 -17.85548,-13.80585 l -9.17579,-4.52036 H 529.62096 417.20185 l -10.79838,6.12482 c -16.59045,9.41008 -20.6034,15.90705 -34.52957,55.90347 -6.87559,19.7469 -12.95722,36.3596 -13.51474,36.91712 -0.55752,0.55751 -13.50592,1.50819 -28.77424,2.11262 -31.02158,1.22806 -30.42121,1.53548 -24.03291,-12.30611 6.34186,-13.74095 11.5772,-16.97265 31.16069,-19.23504 9.55717,-1.10409 18.38545,-2.99676 19.61841,-4.20592 1.23295,-1.20917 5.10459,-10.18615 8.60363,-19.94887 10.49287,-29.27627 19.91662,-41.6105 39.44739,-51.63053 l 10.84745,-5.56515 h 115.37751 115.3775 l 10.28292,4.64972 c 18.82097,8.51045 32.66017,28.01027 43.73724,61.62693 l 4.29205,13.02549 15.79042,1.21767 c 8.68473,0.66972 18.84788,2.66853 22.58477,4.44179 9.23509,4.38234 14.74558,13.84562 14.74558,25.32291 0,11.41746 -3.58933,18.62135 -13.06593,26.22374 -8.13594,6.52688 -8.12007,6.67958 2.17825,20.95229 3.78618,5.24737 7.71189,12.79129 8.72382,16.76426 2.96747,11.65081 4.9323,76.51412 2.36582,78.10032 -1.19583,0.73904 -2.17423,0.0933 -2.17423,-1.43514 z"
   id="path21"
   inkscape:connector-curvature="0" /><path
   style="fill:#501616;fill-opacity:0.63019738;stroke-width:0.34865049;paint-order:markers fill stroke"
   d="m 421.38536,206.56484 c 7.31639,-1.083 18.01706,-1.19809 111.39383,-1.19809 93.83746,0 101.50032,0.0841 108.95328,1.19588 1.05467,0.15733 -48.52343,0.28605 -110.17355,0.28605 -61.65013,0 -111.22823,-0.12773 -110.17356,-0.28384 z"
   id="path23"
   inkscape:connector-curvature="0" /><path
   style="fill:#501616;fill-opacity:0.63019738;stroke-width:0.34865049;paint-order:markers fill stroke"
   d="m 358.63887,278.59889 c -0.0376,-1.18315 7.49129,-23.81907 10.07181,-30.28109 4.75857,-11.91619 10.36377,-20.03773 18.6112,-26.96635 10.71228,-8.99933 25.25095,-15.34446 39.99054,-17.45312 4.10467,-0.58722 10.13699,-0.62348 103.72352,-0.62348 79.25501,0 100.03574,0.0911 102.67757,0.45029 10.96472,1.49068 21.47976,5.04662 30.09045,10.17587 12.3755,7.37189 21.46404,17.70445 27.70015,31.49164 1.78148,3.93862 10.55969,29.40075 10.53114,30.5467 -0.008,0.30366 -1.25941,-2.95661 -2.78188,-7.24503 -4.08187,-11.49762 -6.72662,-17.93584 -10.33148,-25.15034 -8.4763,-16.96381 -17.56061,-26.05576 -32.9402,-32.9679 -7.7735,-3.49369 -12.06182,-4.40534 -23.83711,-5.06747 -9.77416,-0.54961 -150.55275,-0.82581 -179.03203,-0.35125 -29.59554,0.49316 -35.70436,0.98052 -41.83806,3.33783 -18.65078,7.16791 -30.06169,17.42017 -39.04746,35.08267 -3.32179,6.52932 -4.95396,10.64602 -9.2573,23.34903 -3.47274,10.25114 -4.30472,12.49337 -4.33086,11.672 z"
   id="path25"
   inkscape:connector-curvature="0" /><path
   style="fill:#808000;fill-opacity:0.63019738;stroke-width:0.34865049;paint-order:markers fill stroke"
   d="m 283.55939,329.66781 c -0.44438,-0.2811 -0.5216,-1.76045 -0.51385,-9.84404 0.0106,-11.01379 0.55435,-15.14495 2.92803,-22.24441 2.55106,-7.62999 5.93666,-13.25878 11.68832,-19.43258 3.21055,-3.44619 3.77214,-4.45962 3.0632,-5.52777 -0.14088,-0.21226 -1.70171,-1.27726 -3.4685,-2.36667 -7.26537,-4.47983 -11.20399,-9.25837 -13.40293,-16.26113 -1.14839,-3.65716 -1.15192,-9.75214 -0.008,-13.73968 3.13418,-10.92501 11.85746,-18.24777 23.47273,-19.7042 1.59194,-0.19962 6.47565,-0.36294 10.85269,-0.36294 8.80127,0 9.53316,-0.14776 10.55916,-2.13183 0.30548,-0.59074 2.26747,-6.15125 4.35995,-12.35668 6.12287,-18.15777 8.22292,-23.04346 12.53124,-29.15347 7.61741,-10.80292 19.41207,-19.01753 32.24047,-22.45448 l 3.14526,-0.84267 92.30522,-8.8e-4 92.30522,-8.8e-4 v 6.41332 6.41331 l -1.30744,-0.34105 c -2.55407,-0.66624 -32.2586,-0.83959 -106.07691,-0.61904 -74.15108,0.22154 -74.81067,0.22958 -77.74906,0.94785 -5.67996,1.38842 -10.46506,3.41652 -14.46837,6.13221 -3.02134,2.04956 -7.85628,6.83976 -9.92695,9.8351 -3.78965,5.48192 -5.35209,9.50503 -15.97061,41.12272 -5.53842,16.49117 -10.36212,31.12149 -10.71934,32.51182 -0.74379,2.89484 -0.5136,4.16056 0.88539,4.8684 0.63731,0.32246 3.63821,0.43944 11.36982,0.44322 12.14279,0.006 11.88493,-0.0595 10.80609,2.74226 -0.3433,0.89156 -1.45752,3.95433 -2.47604,6.80615 -1.01852,2.85182 -2.15195,5.59744 -2.51872,6.10138 -0.36678,0.50394 -1.35772,1.26926 -2.20209,1.70071 -1.50341,0.76821 -1.78186,0.78447 -13.43403,0.78447 -10.78562,0 -12.1568,0.0657 -14.65661,0.70284 -10.83789,2.7621 -20.46326,12.18714 -23.49437,23.00539 -0.65936,2.3533 -0.73068,3.49817 -0.71295,11.44467 0.0218,9.77168 -0.13314,10.79043 -1.96698,12.93286 -1.95298,2.28161 -5.74887,3.54488 -7.43908,2.47572 z"
   id="path27"
   inkscape:connector-curvature="0" /><path
   style="fill:#00ffff;fill-opacity:0.63019738;stroke-width:1.97226501;paint-order:markers fill stroke"
   d="m 600.78184,196.4326 c -1.38494,-0.5568 -4.21709,-4.34272 -6.29367,-8.41316 -4.46272,-8.74765 -15.88711,-19.28832 -22.78068,-21.01849 -3.83163,-0.96168 -4.89449,-2.49573 -4.89449,-7.06433 0,-5.13133 0.53575,-5.6753 4.43759,-4.5057 13.09944,3.92663 26.37054,15.69602 33.71601,29.90085 5.37967,10.40331 3.89253,14.34821 -4.18476,11.10083 z"
   id="path29"
   inkscape:connector-curvature="0" /><path
   style="fill:#008000;fill-opacity:0.63019738;stroke-width:1.97226501;paint-order:markers fill stroke"
   d="m 600.00084,193.33171 c -2.5245,-2.69981 -7.53561,-8.59078 -11.13579,-13.09103 -3.60019,-4.50026 -10.0347,-9.96219 -14.29892,-12.13763 -8.27106,-4.21958 -10.96123,-11.76425 -4.19473,-11.76425 9.49937,0 26.91691,15.64458 34.83577,31.28979 4.51161,8.91355 1.1939,12.54783 -5.20633,5.70312 z"
   id="path33"
   inkscape:connector-curvature="0" /><path
   style="fill:#008000;fill-opacity:0.63019738;stroke-width:1.97226501;paint-order:markers fill stroke"
   d="m 431.21978,164.72299 c 23.59322,-0.31463 62.2003,-0.31463 85.79353,0 23.59322,0.31463 4.28967,0.57205 -42.89677,0.57205 -47.18644,0 -66.48998,-0.25742 -42.89676,-0.57205 z"
   id="path35"
   inkscape:connector-curvature="0" /><path
   style="fill:#008000;fill-opacity:0.63019738;stroke-width:1.97226501;paint-order:markers fill stroke"
   d="m 284.21209,325.9706 c -0.56489,-2.16013 -0.31114,-9.70035 0.56388,-16.75604 1.45099,-11.6999 4.88317,-19.62396 14.31181,-33.04243 2.06751,-2.9424 1.36793,-4.29418 -4.89332,-9.45523 -12.87268,-10.61075 -13.54409,-26.87665 -1.58242,-38.33666 4.77979,-4.57933 8.02459,-5.78188 17.2698,-6.40036 17.59891,-1.17731 19.68826,-1.95692 21.18071,-7.90335 6.99665,-27.87686 20.24315,-47.42892 37.68884,-55.62936 8.39673,-3.94693 11.75145,-4.08063 102.38526,-4.08063 h 93.70408 v 4.93066 4.93066 h -90.37285 c -101.70412,0 -103.17951,0.17496 -115.38257,13.68228 -5.38795,5.96382 -9.1551,14.71418 -18.82609,43.72939 -6.64966,19.95051 -12.09029,36.93868 -12.09029,37.75148 0,0.81281 4.82898,1.47784 10.73106,1.47784 5.90208,0 11.22131,0.79323 11.8205,1.76274 0.59919,0.96951 -0.20936,4.87118 -1.79676,8.67038 l -2.8862,6.90764 -16.6802,0.69788 c -18.43618,0.77134 -24.09535,3.48583 -32.25157,15.46981 -3.33823,4.90487 -4.4376,9.34467 -4.4376,17.92123 0,7.7349 -0.99661,12.39766 -3.09927,14.50032 -3.93111,3.9311 -4.11984,3.90192 -5.3568,-0.82825 z"
   id="path37"
   inkscape:connector-curvature="0" /><path
   style="fill:#008000;fill-opacity:0.63019738;stroke-width:1.97226501;paint-order:markers fill stroke"
   d="m 590.46781,182.44355 c -7.05765,-7.30676 -15.39661,-15.33005 -18.53101,-17.82952 -6.79242,-5.41649 -4.75869,-9.53849 3.21113,-6.50837 10.72042,4.0759 31.11037,27.08472 31.11037,35.10618 0,4.60527 -2.7573,2.72494 -15.79049,-10.76829 z"
   id="path39"
   inkscape:connector-curvature="0" /><path
   style="fill:#008000;fill-opacity:0.63019738;stroke-width:1.97226501;paint-order:markers fill stroke"
   d="m 587.02118,178.29152 c -10.02976,-9.64579 -18.23592,-18.0874 -18.23592,-18.75913 0,-3.10087 7.86363,-0.66855 15.14102,4.6833 8.58916,6.31654 23.23889,25.8894 22.04908,29.45882 -0.39505,1.18515 -8.92443,-5.73719 -18.95418,-15.38299 z"
   id="path41"
   inkscape:connector-curvature="0" /><path
   style="fill:#008000;fill-opacity:0.63019738;stroke-width:1.97226501;paint-order:markers fill stroke"
   d="m 586.04258,177.1882 c -9.49152,-9.04503 -17.25732,-16.99262 -17.25732,-17.66132 0,-0.6687 1.79487,-1.21581 3.9886,-1.21581 6.44957,0 33.48444,27.30936 33.48444,33.82442 0,3.56164 -3.53894,0.94499 -20.21572,-14.94729 z"
   id="path43"
   inkscape:connector-curvature="0" /><path
   style="fill:#008000;fill-opacity:0.63019738;stroke-width:1.97226501;paint-order:markers fill stroke"
   d="m 586.04258,177.1882 c -9.49152,-9.04503 -17.25732,-16.99262 -17.25732,-17.66132 0,-3.75411 8.57209,-0.12575 16.78752,7.10576 13.17754,11.59934 24.38109,27.40172 19.20632,27.09013 -0.81356,-0.049 -9.24499,-7.48954 -18.73652,-16.53457 z"
   id="path45"
   inkscape:connector-curvature="0" /><path
   style="fill:#008000;fill-opacity:0.63019738;stroke-width:0.34865049;paint-order:markers fill stroke"
   d="m 569.50416,166.09287 c -1.36046,-0.71831 -2.35972,-2.19902 -2.35972,-3.49664 0,-0.65549 0.15019,-0.57225 1.06963,0.59282 0.5883,0.74546 1.70863,1.86529 2.48962,2.4885 1.64536,1.31295 0.95396,1.55234 -1.19953,0.41532 z"
   id="path47"
   inkscape:connector-curvature="0" /><path
   style="fill:#008000;fill-opacity:0.63019738;stroke-width:0.34865049;paint-order:markers fill stroke"
   d="m 576.34543,168.63449 c -1.17158,-1.09898 -3.4729,-3.25329 -5.11404,-4.78736 -2.45973,-2.29924 -3.02835,-3.02954 -3.23697,-4.15738 -0.21978,-1.18821 -0.14328,-1.45718 0.58159,-2.04482 1.88187,-1.5256 7.78013,0.35597 12.80983,4.08638 2.64063,1.9585 2.64338,2.47398 0.004,0.78771 -6.55921,-4.19091 -12.50233,-5.71883 -12.50233,-3.21421 0,0.6209 1.36693,2.25552 5.09667,6.09474 5.09488,5.24443 6.37916,7.00404 2.36106,3.23494 z"
   id="path49"
   inkscape:connector-curvature="0" /><path
   style="fill:#008000;fill-opacity:0.63019738;stroke-width:0.34865049;paint-order:markers fill stroke"
   d="m 567.14444,156.68914 c 0,-0.85329 0.768,-1.73259 1.51329,-1.73259 0.43529,0 1.88103,0.37413 3.21275,0.83141 l 2.4213,0.83142 -2.81417,-0.17967 c -1.81062,-0.1156 -3.085,-0.0347 -3.57366,0.2268 -0.53905,0.28849 -0.75951,0.29506 -0.75951,0.0226 z"
   id="path51"
   inkscape:connector-curvature="0" /><path
   style="fill:#008000;fill-opacity:0.63019738;stroke-width:0.34865049;paint-order:markers fill stroke"
   d="m 566.51511,159.31468 c 0.007,-0.57528 0.0852,-0.76841 0.17364,-0.42918 0.0884,0.33922 0.0826,0.8099 -0.0129,1.04595 -0.0955,0.23605 -0.16783,-0.0415 -0.16073,-0.61677 z"
   id="path53"
   inkscape:connector-curvature="0" /><path
   style="fill:#008000;fill-opacity:0.63019738;stroke-width:0.34865049;paint-order:markers fill stroke"
   d="m 604.79847,188.17127 c -4.44083,-8.41749 -15.38113,-20.68048 -24.05666,-26.96514 -4.69416,-3.40052 -10.12128,-5.01853 -12.12519,-3.61494 -1.81573,1.27179 -0.76932,3.29977 3.93502,7.62628 1.83739,1.68981 3.26434,3.14874 3.171,3.24207 -0.31625,0.31626 -4.3992,-2.39609 -6.06921,-4.03183 -3.37198,-3.3028 -3.93685,-6.40403 -1.3818,-7.58638 l 1.13904,-0.52709 -1.14162,0.18577 c -1.03503,0.16842 -1.10866,0.12414 -0.78846,-0.47414 0.5093,-0.95164 0.97641,-1.01213 3.29863,-0.42716 1.50693,0.3796 1.89367,0.58651 1.41203,0.75546 -0.49885,0.17499 -0.32067,0.28805 0.7186,0.45599 6.2662,1.01253 18.35281,10.8211 25.96085,21.06786 2.90344,3.91045 7.12373,10.97126 6.92103,11.57934 -0.067,0.20109 -0.514,-0.37765 -0.99326,-1.28609 z"
   id="path55"
   inkscape:connector-curvature="0" /><path
   style="fill:#008000;fill-opacity:0.63019738;stroke-width:0.34865049;paint-order:markers fill stroke"
   d="m 566.79579,161.95013 c 0,-0.84184 0.19389,-0.92677 0.47045,-0.20607 0.10802,0.2815 0.0464,0.60455 -0.13702,0.71788 -0.18339,0.11334 -0.33343,-0.11698 -0.33343,-0.51181 z"
   id="path57"
   inkscape:connector-curvature="0" /><path
   style="fill:#008000;fill-opacity:0.63019738;stroke-width:0.34865049;paint-order:markers fill stroke"
   d="m 604.9705,197.58083 c 3.15187,-0.24271 3.88168,-1.93239 2.62361,-6.07431 -1.46269,-4.81559 -5.39098,-11.70254 -9.80437,-17.1887 -2.73487,-3.39963 -8.96551,-9.30919 -12.44077,-11.79965 -5.17298,-3.70709 -13.54692,-7.56162 -16.42755,-7.56162 -1.66622,0 -2.30161,1.2822 -2.25332,4.54717 0.0699,4.72518 1.00344,6.19547 4.74705,7.47637 2.37823,0.81372 5.29642,2.23378 5.06531,2.46489 -0.0798,0.0798 -1.46783,-0.39209 -3.08447,-1.04867 -1.61665,-0.65658 -3.99839,-1.45791 -5.29276,-1.78075 l -2.35339,-0.58697 v -6.27213 -6.27212 l 1.28636,0.24132 c 0.7075,0.13273 2.93769,0.78226 4.95598,1.4434 11.7273,3.84158 22.16842,11.73471 29.54871,22.33782 3.76389,5.40751 8.13891,15.20985 8.13891,18.23545 0,1.18136 -0.12469,1.37618 -1.09797,1.71547 -0.60389,0.21052 -2.05515,0.35448 -3.22502,0.31991 -2.10519,-0.0622 -2.10916,-0.0642 -0.38631,-0.19688 z"
   id="path59"
   inkscape:connector-curvature="0" /><path
   style="fill:#008000;fill-opacity:0.63019738;stroke-width:0.34865049;paint-order:markers fill stroke"
   d="m 569.93365,167.14029 c -1.62994,-0.5484 -3.23809,-1.0038 -3.57367,-1.01201 -0.5579,-0.0136 -0.61014,-0.55146 -0.61014,-6.28191 v -6.26699 l 1.11732,0.22346 c 0.61452,0.1229 1.75199,0.42227 2.52771,0.66526 1.36451,0.42742 1.37637,0.4439 0.36445,0.50643 -0.57527,0.0356 -1.235,0.0408 -1.46607,0.0116 -0.57861,-0.073 -1.49771,1.4133 -1.50792,2.43847 -0.005,0.46424 -0.0323,1.23632 -0.0615,1.71571 -0.1148,1.88431 0.40332,4.69296 1.02366,5.54906 0.61747,0.85214 2.83369,2.16195 5.1497,3.04354 2.15286,0.81948 -0.11351,0.36624 -2.96353,-0.59266 z"
   id="path61"
   inkscape:connector-curvature="0" /><path
   style="fill:#008000;fill-opacity:0.63019738;stroke-width:0.08716262;paint-order:markers fill stroke"
   d="m 604.20436,197.42228 c -1.36508,-0.22045 -3.38534,-0.90255 -3.95482,-1.33526 -1.49072,-1.1327 -3.64272,-4.13762 -5.63073,-7.86243 -0.4204,-0.78767 -0.91872,-1.68431 -1.10738,-1.99254 -0.18865,-0.30823 -0.32836,-0.57507 -0.31046,-0.59297 0.0179,-0.0179 0.63551,0.68012 1.37246,1.55117 3.1175,3.68481 5.54861,6.37694 6.71677,7.43792 2.74883,2.49661 4.93285,2.98276 5.73288,1.27612 0.21697,-0.46284 0.23147,-0.57093 0.22424,-1.67153 -0.007,-1.01612 -0.0438,-1.31349 -0.27197,-2.17907 -0.73626,-2.79307 -2.75387,-6.72753 -5.70718,-11.12933 -2.89189,-4.31026 -5.96757,-8.0285 -9.87025,-11.93231 -2.34613,-2.3468 -3.7533,-3.62576 -5.82994,-5.29873 l -1.20385,-0.96985 0.53656,-0.0262 c 0.5323,-0.026 0.54187,-0.0222 1.20386,0.47359 2.09613,1.56987 4.12584,3.36851 7.01866,6.21966 2.3413,2.30755 3.42217,3.4886 4.96558,5.42582 4.47884,5.62161 8.38013,12.63129 9.65667,17.35068 0.34621,1.27995 0.43591,2.81448 0.21019,3.59588 -0.3707,1.28331 -1.89758,1.95871 -3.75129,1.65934 z"
   id="path63"
   inkscape:connector-curvature="0" /><path
   style="fill:#008000;fill-opacity:0.63019738;stroke-width:0.08716262;paint-order:markers fill stroke"
   d="m 602.48598,197.67127 c -2.86157,-0.44558 -4.80247,-1.91816 -6.37014,-4.83311 -0.21915,-0.40749 -0.695,-1.41931 -1.05746,-2.24849 -0.86826,-1.9863 -2.04211,-4.29695 -2.96976,-5.84581 -0.41243,-0.68862 -0.73349,-1.26842 -0.71347,-1.28844 0.0775,-0.0775 1.27489,1.45197 1.81836,2.32256 0.31423,0.50337 0.90455,1.54278 1.31182,2.30981 2.02597,3.81561 4.26042,6.9379 5.74495,8.02764 0.62898,0.46171 3.09165,1.28382 4.06878,1.35828 0.44915,0.0342 0.31758,0.15749 -0.18007,0.1687 -0.39115,0.009 -0.41963,0.02 -0.19612,0.0768 0.46504,0.11834 -0.61778,0.0827 -1.45689,-0.048 z"
   id="path65"
   inkscape:connector-curvature="0" /><path
   style="fill:#008000;fill-opacity:0.63019738;stroke-width:0.08716262;paint-order:markers fill stroke"
   d="m 583.67756,162.23696 c -3.24921,-2.46553 -7.11028,-4.55668 -9.98012,-5.40522 l -0.87163,-0.25772 0.72273,0.0434 c 0.45664,0.0274 0.70344,0.0122 0.67036,-0.0413 -0.0288,-0.0466 -0.032,-0.0847 -0.007,-0.0847 0.13636,0 2.33774,1.0124 3.89682,1.79212 2.63167,1.31613 4.73548,2.55917 6.82552,4.03285 l 0.51563,0.36358 -0.60279,-0.007 c -0.58356,-0.006 -0.62089,-0.0202 -1.16936,-0.43642 z"
   id="path67"
   inkscape:connector-curvature="0" /><path
   style="fill:#008000;fill-opacity:0.63019738;stroke-width:0.08716262;paint-order:markers fill stroke"
   d="m 575.44069,169.13941 c -1.11725,-0.38842 -3.09688,-1.16904 -3.05948,-1.20644 0.0189,-0.0189 0.32135,0.0251 0.6722,0.0977 0.35085,0.0726 0.65042,0.11951 0.66573,0.10421 0.0153,-0.0153 -0.5108,-0.25597 -1.16913,-0.53481 -0.65832,-0.27883 -1.1537,-0.52139 -1.10084,-0.53901 0.25455,-0.0849 4.27371,1.70812 4.81957,2.15003 0.19929,0.16134 0.20301,0.17617 0.0436,0.17356 -0.0959,-0.002 -0.48811,-0.11194 -0.87163,-0.24527 z"
   id="path69"
   inkscape:connector-curvature="0" /><path
   style="fill:#008000;fill-opacity:0.63019738;stroke-width:0.08716262;paint-order:markers fill stroke"
   d="m 578.40422,170.94881 c -0.47939,-0.28926 -1.57689,-0.87568 -2.43889,-1.30315 -0.862,-0.42748 -1.53697,-0.77723 -1.49994,-0.77723 0.037,0 0.46174,0.13729 0.94378,0.30507 0.98989,0.34456 1.13968,0.36785 1.06188,0.16512 -0.0618,-0.16095 0.31065,0.0569 1.39033,0.81323 0.71291,0.49941 1.64993,1.3255 1.50163,1.32385 -0.0479,-5.3e-4 -0.47939,-0.23763 -0.95879,-0.52689 z"
   id="path71"
   inkscape:connector-curvature="0" /><path
   style="fill:#008000;fill-opacity:0.63019738;stroke-width:0.08716262;paint-order:markers fill stroke"
   d="m 604.50335,195.28902 c -1.50349,-0.58832 -3.80953,-2.59223 -9.2825,-8.0663 -3.04255,-3.04316 -4.11345,-4.17253 -4.75036,-5.00972 -2.14711,-2.82224 -2.70132,-3.42644 -6.13921,-6.69304 -1.89487,-1.80046 -3.01069,-2.76735 -4.9247,-4.26742 -0.74306,-0.58235 -1.99604,-1.66099 -2.78441,-2.39697 -4.44894,-4.15331 -5.54673,-5.0836 -2.88115,-2.44156 1.22304,1.21223 1.91801,1.96135 1.84651,1.99038 -0.18406,0.0747 -1.12731,-0.43516 -2.51587,-1.36005 -2.27107,-1.5127 -3.76119,-2.83199 -4.90418,-4.34194 -0.44352,-0.58593 -1.3123,-2.19291 -1.3123,-2.42737 0,-0.0676 -0.0448,-0.12286 -0.0996,-0.12286 -0.10591,0 -0.0754,0.49668 0.10703,1.74325 0.27168,1.85632 0.59051,2.59709 1.47822,3.43452 0.50503,0.47641 0.82863,0.68415 1.79379,1.15152 0.64769,0.31363 1.27955,0.58872 1.40414,0.61132 0.91708,0.1663 5.16702,2.16747 4.83684,2.27753 -0.14546,0.0485 -1.28891,-0.34009 -2.80816,-0.9543 -1.85668,-0.75062 -5.02954,-1.76228 -7.27884,-2.32085 -0.45452,-0.11287 -0.46466,-0.25587 -0.47238,-6.66208 -0.006,-5.21526 0.007,-5.8181 0.12892,-5.8181 0.4848,0 4.08621,0.97087 4.36932,1.17789 0.12771,0.0934 0.0859,0.11711 -0.30042,0.17023 -0.24685,0.034 -0.49234,0.0348 -0.54555,0.002 -0.0532,-0.0329 -0.41783,-0.0319 -0.81027,0.002 -0.69538,0.0603 -0.72272,0.0714 -1.07464,0.43618 -0.21362,0.22141 -0.4391,0.58233 -0.55207,0.88367 -0.20884,0.55709 -0.34408,1.52471 -0.26047,1.86371 0.0506,0.20522 0.061,0.19899 0.23771,-0.14228 0.2622,-0.50643 0.72531,-0.87893 1.6308,-1.31174 0.4328,-0.20687 0.73944,-0.37692 0.68144,-0.3779 -0.058,-9.8e-4 -0.50185,0.061 -0.98633,0.13773 -0.48448,0.0767 -0.90261,0.11779 -0.92917,0.0912 -0.15607,-0.15607 0.32486,-0.98925 0.67256,-1.16519 0.11841,-0.0599 0.42629,-0.10951 0.68419,-0.11022 0.86097,-0.002 3.4786,0.67811 3.5595,0.92531 0.0177,0.0542 -0.0675,0.12359 -0.18945,0.1542 -0.22488,0.0564 -0.2879,0.17544 -0.14099,0.26624 0.0444,0.0274 0.48517,0.13238 0.9795,0.2332 2.25718,0.46035 4.52995,1.52412 7.69963,3.60379 6.40256,4.20082 13.70305,11.25937 18.52812,17.91407 2.66759,3.67912 6.54141,10.17654 6.52838,10.94981 -0.005,0.28901 -0.37821,-0.23026 -1.13784,-1.5826 -0.3896,-0.6936 -0.72475,-1.26109 -0.74479,-1.26109 -0.02,0 0.18312,0.40204 0.45146,0.89342 0.9647,1.76653 1.60656,3.16262 1.7928,3.89947 0.16227,0.64202 0.1805,0.89551 0.13788,1.91757 -0.0558,1.33749 -0.161,1.7535 -0.51995,2.05553 -0.30024,0.25263 -0.64464,0.2663 -1.20316,0.0478 z m -22.6562,-33.25218 c 0,-0.0181 -0.0686,-0.0867 -0.15254,-0.15253 -0.13824,-0.10842 -0.14133,-0.10534 -0.0329,0.0329 0.11387,0.14519 0.18545,0.19136 0.18545,0.11962 z m -0.34865,-0.26149 c 0,-0.0181 -0.0686,-0.0867 -0.15254,-0.15253 -0.13824,-0.10842 -0.14133,-0.10534 -0.0329,0.0329 0.11387,0.14519 0.18545,0.19136 0.18545,0.11962 z m -0.34865,-0.26622 c 0,-0.0207 -0.12748,-0.12201 -0.28328,-0.22511 l -0.28328,-0.18747 0.26149,0.22468 c 0.26815,0.23041 0.30507,0.25314 0.30507,0.1879 z m -0.61014,-0.44372 c 0,-0.0514 -1.48052,-1.02404 -2.1137,-1.38868 -0.74532,-0.42921 -0.4337,-0.16801 0.39224,0.32877 0.44343,0.26673 1.00237,0.62241 1.24206,0.7904 0.47645,0.33394 0.4794,0.33559 0.4794,0.26951 z m -12.63326,-1.95919 c -0.049,-0.67344 -0.0601,-0.70855 -0.12187,-0.38567 -0.0417,0.21777 -0.0279,0.51418 0.0355,0.76602 0.0569,0.22593 0.11173,0.39948 0.12187,0.38566 0.0101,-0.0138 -0.006,-0.35852 -0.0355,-0.76601 z m 9.66973,0.13381 c 0,-0.0223 -0.0883,-0.0833 -0.19612,-0.13555 -0.18832,-0.0913 -0.18939,-0.0897 -0.0269,0.0405 0.17783,0.14248 0.22304,0.16174 0.22304,0.095 z"
   id="path73"
   inkscape:connector-curvature="0" /><path
   style="fill:#008000;fill-opacity:0.63019738;stroke-width:0.08716262;paint-order:markers fill stroke"
   d="m 572.19125,167.13612 c -0.56898,-0.18314 -0.69915,-0.25486 -0.61509,-0.33893 0.0841,-0.0841 0.0656,-0.16209 -0.0871,-0.36871 -0.10657,-0.14415 -0.17785,-0.26209 -0.1584,-0.26209 0.0195,0 0.44011,0.27457 0.9348,0.61014 0.49468,0.33558 0.84276,0.60603 0.77349,0.60101 -0.0693,-0.005 -0.45071,-0.11366 -0.84766,-0.24142 z"
   id="path75"
   inkscape:connector-curvature="0" /><path
   style="fill:#008000;fill-opacity:0.63019738;stroke-width:0.08716262;paint-order:markers fill stroke"
   d="m 572.34428,166.7709 c -0.49925,-0.33867 -1.18349,-0.83827 -1.52054,-1.11022 -0.78073,-0.62995 -1.96382,-1.757 -1.96382,-1.87081 0,-0.0479 0.30829,0.20738 0.68509,0.56738 0.83122,0.79414 1.74119,1.52366 2.86963,2.30057 0.9702,0.66796 1.04747,0.72885 0.92498,0.72885 -0.0482,0 -0.49609,-0.2771 -0.99534,-0.61577 z"
   id="path77"
   inkscape:connector-curvature="0" /><path
   style="fill:#008000;fill-opacity:0.63019738;stroke-width:0.08716262;paint-order:markers fill stroke"
   d="m 572.1721,167.10031 c -0.46692,-0.15909 -0.56209,-0.22369 -0.54114,-0.36736 0.0195,-0.13377 0.006,-0.14599 -0.0566,-0.0525 -0.11603,0.17217 -0.59922,0.0775 -1.30695,-0.25605 -0.31867,-0.15018 -0.64632,-0.28669 -0.72811,-0.30335 -0.49517,-0.10085 -1.5833,-1.25653 -2.00167,-2.12595 -0.28557,-0.59341 -0.43976,-1.58801 -0.26312,-1.69718 0.0509,-0.0315 0.3349,0.22792 0.63107,0.57642 0.71955,0.8467 1.79414,1.95081 2.55552,2.62574 0.54848,0.4862 1.81968,1.37857 1.89941,1.33337 0.0163,-0.009 0.14234,0.0919 0.2802,0.22468 0.29967,0.28865 0.2641,0.29185 -0.46856,0.0422 z"
   id="path79"
   inkscape:connector-curvature="0" /><path
   style="fill:#008000;fill-opacity:0.63019738;stroke-width:0.08716262;paint-order:markers fill stroke"
   d="m 572.0957,167.06378 c -0.22779,-0.0805 -0.39886,-0.20136 -0.42467,-0.30002 -0.0343,-0.13118 -0.0685,-0.14422 -0.16607,-0.0633 -0.14751,0.12242 -0.57186,0.0122 -1.40624,-0.36534 -0.30141,-0.13638 -0.60105,-0.22761 -0.66586,-0.20274 -0.19722,0.0757 -1.46247,-1.32312 -1.8079,-1.99875 -0.2438,-0.47684 -0.41881,-1.14489 -0.4201,-1.60357 l -0.001,-0.3677 0.99007,1.065 c 1.52546,1.6409 2.57756,2.60602 3.53769,3.24521 1.14141,0.75987 1.22485,0.89534 0.36411,0.59117 z"
   id="path81"
   inkscape:connector-curvature="0" /><path
   style="fill:#008000;fill-opacity:0.63019738;stroke-width:0.08716262;paint-order:markers fill stroke"
   d="m 568.02892,162.75373 c -0.45246,-0.61458 -0.68615,-1.0263 -0.62004,-1.09241 0.024,-0.024 0.10125,0.0679 0.17174,0.20421 0.0705,0.13629 0.31145,0.49676 0.53546,0.80104 0.22401,0.30428 0.38769,0.57285 0.36372,0.59682 -0.024,0.024 -0.22687,-0.20538 -0.45088,-0.50966 z"
   id="path83"
   inkscape:connector-curvature="0" /><path
   style="fill:#008000;fill-opacity:0.63019738;stroke-width:0.08716262;paint-order:markers fill stroke"
   d="m 567.29232,161.91722 c 9.7e-4,-0.17445 0.0225,-0.20626 0.0791,-0.11686 0.0428,0.0676 0.0576,0.17542 0.0329,0.2397 -0.0707,0.18431 -0.11347,0.13744 -0.11202,-0.12284 z"
   id="path85"
   inkscape:connector-curvature="0" /><path
   style="fill:#008000;fill-opacity:0.63019738;stroke-width:0.08716262;paint-order:markers fill stroke"
   d=""
   id="path87"
   inkscape:connector-curvature="0" /><path
   style="fill:#008000;fill-opacity:0.63019738;stroke-width:0.08716262;paint-order:markers fill stroke"
   d="m 566.77489,161.23444 c 0.004,-0.10154 0.0248,-0.12219 0.0527,-0.0527 0.0252,0.0629 0.0221,0.1381 -0.007,0.16706 -0.029,0.029 -0.0496,-0.0225 -0.0458,-0.1144 z"
   id="path89"
   inkscape:connector-curvature="0" /><path
   style="fill:#008000;fill-opacity:0.63019738;stroke-width:0.08716262;paint-order:markers fill stroke"
   d="m 566.78177,161.37245 c 0,-0.11985 0.0198,-0.16888 0.044,-0.10895 0.0242,0.0599 0.0242,0.15798 0,0.2179 -0.0242,0.0599 -0.044,0.0109 -0.044,-0.10895 z"
   id="path91"
   inkscape:connector-curvature="0" /><path
   style="fill:#008000;fill-opacity:0.63019738;stroke-width:0.08716262;paint-order:markers fill stroke"
   d="m 604.77092,195.37135 c -1.41454,-0.43297 -3.61702,-2.28674 -8.72439,-7.34306 -3.34027,-3.30688 -4.88132,-4.93016 -5.7388,-6.04498 -1.95468,-2.54133 -2.58945,-3.22565 -5.98052,-6.44733 -2.16004,-2.05215 -3.11192,-2.88497 -4.86303,-4.25477 -0.71139,-0.55648 -2.45682,-2.08592 -3.87873,-3.39876 -2.99873,-2.76868 -3.23029,-2.97413 -3.28754,-2.91688 -0.0235,0.0235 0.28797,0.34281 0.69206,0.70967 0.88165,0.80043 2.6258,2.65494 2.5594,2.72134 -0.14723,0.14723 -2.90155,-1.56433 -4.29248,-2.66739 -2.18195,-1.73036 -3.60916,-3.44271 -4.23711,-5.08366 -0.26287,-0.68693 -0.37706,-0.63516 -0.30562,0.13857 0.22945,2.48506 0.63145,3.60698 1.62998,4.54894 0.34071,0.32141 0.6345,0.56935 0.65287,0.55098 0.0184,-0.0184 -0.15893,-0.23826 -0.39401,-0.48865 -0.85342,-0.90901 -1.25174,-1.69265 -1.36946,-2.69422 l -0.0587,-0.49926 1.8231,1.84066 c 1.4733,1.48749 2.00358,1.96191 2.76372,2.47256 0.51733,0.34754 0.92697,0.64554 0.9103,0.6622 -0.0753,0.0753 -0.71528,-0.17252 -0.88448,-0.34258 -0.13176,-0.13242 -0.27128,-0.18081 -0.46641,-0.16177 -0.17124,0.0167 -0.57037,-0.0918 -1.03689,-0.28205 -0.41717,-0.17008 -0.77731,-0.29042 -0.8003,-0.26743 -0.0541,0.0541 1.95248,1.0017 2.12103,1.0017 0.39677,0 4.41616,1.83167 4.65268,2.12027 0.0658,0.0803 0.10022,0.14596 0.0765,0.14596 -0.1283,0 -1.52057,-0.49406 -2.89817,-1.02844 -2.18217,-0.84648 -4.2285,-1.50513 -6.88584,-2.21635 -0.73663,-0.19716 -0.69351,0.19512 -0.72457,-6.59138 l -0.0273,-5.95744 0.37591,0.0612 c 1.01619,0.16531 4.01687,1.01209 4.20671,1.18712 0.0488,0.045 -0.0407,0.0785 -0.2179,0.0817 -1.8515,0.0329 -2.07253,0.0519 -2.29536,0.19794 -0.5993,0.39268 -1.08754,1.51507 -1.11002,2.55179 -0.007,0.30996 0.008,0.58349 0.0321,0.60785 0.0244,0.0244 0.14974,-0.13563 0.27862,-0.35554 0.2817,-0.48069 0.74127,-0.83388 1.61727,-1.24291 0.35955,-0.16788 0.61096,-0.32096 0.55869,-0.34017 -0.0523,-0.0192 -0.45971,0.024 -0.90544,0.0961 -1.0872,0.17584 -1.1586,0.11568 -0.69442,-0.5851 0.32924,-0.49706 0.67277,-0.63065 1.42381,-0.55368 0.66504,0.0682 2.11458,0.41578 2.79445,0.67016 0.46473,0.17387 0.4988,0.20337 0.35574,0.30798 -0.087,0.0636 -0.20168,0.13181 -0.2548,0.15151 -0.23088,0.0856 0.14016,0.23545 1.12368,0.4537 2.33634,0.51844 4.40778,1.5044 7.67031,3.65088 3.65015,2.4015 7.26428,5.44053 11.1661,9.3893 4.79459,4.85227 7.88934,8.89354 11.67077,15.24025 0.91813,1.54099 2.13523,3.8548 2.13523,4.05927 0,0.38247 -0.36698,-0.13149 -1.3892,-1.94558 -0.24988,-0.44344 -0.47277,-0.80626 -0.49531,-0.80626 -0.0226,0 0.19811,0.44127 0.49034,0.98058 1.31798,2.43237 1.81318,3.69266 1.88676,4.80182 0.0587,0.88474 -0.0853,2.30614 -0.26975,2.66282 -0.22544,0.43595 -0.67273,0.60662 -1.18163,0.45085 z m -22.92377,-33.33451 c 0,-0.0181 -0.0686,-0.0867 -0.15254,-0.15253 -0.13824,-0.10842 -0.14133,-0.10534 -0.0329,0.0329 0.11387,0.14519 0.18545,0.19136 0.18545,0.11962 z m -0.34865,-0.26149 c 0,-0.0181 -0.0686,-0.0867 -0.15254,-0.15253 -0.13824,-0.10842 -0.14133,-0.10534 -0.0329,0.0329 0.11387,0.14519 0.18545,0.19136 0.18545,0.11962 z m -0.34865,-0.26622 c 0,-0.0207 -0.12748,-0.12201 -0.28328,-0.22511 l -0.28328,-0.18747 0.26149,0.22468 c 0.26815,0.23041 0.30507,0.25314 0.30507,0.1879 z m -0.61014,-0.4395 c 0,-0.0642 -1.46447,-1.03274 -2.04832,-1.35469 -0.73842,-0.40718 -0.49753,-0.20695 0.47939,0.39849 0.45542,0.28224 0.98494,0.62091 1.1767,0.75259 0.37471,0.25733 0.39223,0.26642 0.39223,0.20361 z m -12.62866,-1.91983 c -0.0515,-0.59153 -0.0711,-0.65433 -0.12938,-0.41402 -0.0622,0.25662 -0.0343,0.56847 0.0903,1.00894 0.0859,0.30362 0.0994,0.0987 0.039,-0.59492 z m 9.62155,0.0436 c -0.0296,-0.0479 -0.10059,-0.0866 -0.15768,-0.0858 -0.0624,8e-4 -0.0516,0.035 0.0269,0.0858 0.16745,0.10822 0.19763,0.10822 0.13075,0 z"
   id="path93"
   inkscape:connector-curvature="0" /><path
   style="fill:#008000;fill-opacity:0.63019738;stroke-width:0.08716262;paint-order:markers fill stroke"
   d="m 603.83922,197.33205 c -0.2967,-0.0675 -0.82233,-0.2027 -1.16807,-0.30054 -0.34573,-0.0978 -0.6619,-0.15731 -0.7026,-0.13216 -0.0407,0.0252 -0.074,0.008 -0.074,-0.0371 0,-0.075 -0.34973,-0.21555 -0.56656,-0.22764 -0.0479,-0.003 -0.14125,-0.0561 -0.20735,-0.11883 -0.0661,-0.0627 -0.17397,-0.0933 -0.2397,-0.0681 -0.0657,0.0252 -0.1195,0.001 -0.1195,-0.0531 0,-0.0544 -0.0215,-0.0774 -0.0478,-0.0512 -0.0683,0.0683 -0.40715,-0.21763 -1.26204,-1.06467 -1.46383,-1.45039 -2.80197,-3.43904 -5.09258,-7.56822 -0.51402,-0.92662 -0.91879,-1.70055 -0.89949,-1.71985 0.0193,-0.0193 0.25827,0.23282 0.53103,0.56027 0.27276,0.32745 0.58204,0.66993 0.68728,0.76106 0.10524,0.0911 -0.3264,-0.44924 -0.95919,-1.20081 -0.63278,-0.75157 -1.15052,-1.38356 -1.15052,-1.40442 0,-0.0208 1.28456,1.24273 2.85457,2.80796 5.96906,5.95086 8.41049,7.93833 9.75152,7.93833 0.33088,0 0.44004,-0.0446 0.64443,-0.26341 0.33366,-0.35718 0.43422,-0.89926 0.43298,-2.33396 -10e-4,-1.30485 -0.0749,-1.69435 -0.51482,-2.71955 -0.42217,-0.98376 -0.4089,-0.93584 -0.21116,-0.76267 0.36412,0.31887 0.3919,0.0675 0.0692,-0.62588 -0.12119,-0.26034 -0.1997,-0.52713 -0.17448,-0.59287 0.0252,-0.0657 0.013,-0.0992 -0.0272,-0.0744 -0.0402,0.0248 -0.29971,-0.37516 -0.5767,-0.88889 -1.4655,-2.71808 -4.35771,-7.22792 -6.20169,-9.67032 -3.44825,-4.56733 -7.95754,-9.26957 -12.58379,-13.12228 -2.21481,-1.84448 -4.95518,-3.83267 -6.689,-4.85301 -0.34716,-0.20429 -0.61082,-0.40443 -0.58591,-0.44474 0.0249,-0.0403 -0.039,-0.11839 -0.14199,-0.17352 -0.12977,-0.0694 -0.16909,-0.0708 -0.12804,-0.004 0.0745,0.12052 -8.2e-4,0.122 -0.2207,0.004 -0.0941,-0.0503 -0.14427,-0.13485 -0.11155,-0.18779 0.0345,-0.0559 0.0198,-0.0717 -0.0352,-0.0378 -0.12789,0.079 -0.72317,-0.21215 -0.65598,-0.32088 0.0293,-0.0474 0.0116,-0.0605 -0.0394,-0.0289 -0.13153,0.0813 -0.38032,-0.0303 -0.31244,-0.14016 0.0316,-0.0512 0.0151,-0.0659 -0.0376,-0.0333 -0.11879,0.0734 -0.55325,-0.11841 -0.49213,-0.21729 0.0249,-0.0404 -0.0155,-0.0501 -0.0899,-0.0215 -0.0746,0.0286 -0.13527,0.006 -0.13527,-0.0497 0,-0.0559 -0.0392,-0.0774 -0.0872,-0.0478 -0.0479,0.0296 -0.0872,0.01 -0.0872,-0.0436 0,-0.0536 -0.0392,-0.0732 -0.0872,-0.0436 -0.0479,0.0296 -0.0872,0.0136 -0.0872,-0.0357 0,-0.0493 -0.0653,-0.0645 -0.14504,-0.0339 -0.106,0.0407 -0.12561,0.0242 -0.0729,-0.0611 0.0527,-0.0854 0.0331,-0.10181 -0.0729,-0.0611 -0.0798,0.0306 -0.14504,0.0189 -0.14504,-0.026 0,-0.0449 -0.0653,-0.0566 -0.14505,-0.026 -0.10419,0.04 -0.12532,0.0238 -0.075,-0.0576 0.0469,-0.0759 0.0303,-0.10006 -0.0503,-0.0732 -0.0662,0.0221 -0.17382,-0.0134 -0.23922,-0.0788 -0.0689,-0.0689 -0.19303,-0.0954 -0.29498,-0.063 -0.12504,0.0397 -0.1571,0.0252 -0.11064,-0.05 0.0475,-0.0769 0.0117,-0.0888 -0.13074,-0.0436 -0.12495,0.0397 -0.17623,0.03 -0.14127,-0.0266 0.0318,-0.0514 -0.17473,-0.1616 -0.49027,-0.26162 l -0.54516,-0.17282 0.36477,-0.009 c 0.20062,-0.005 0.46538,-0.0475 0.58835,-0.0942 0.12296,-0.0468 0.22358,-0.053 0.22358,-0.014 0,0.0966 0.43084,0.28668 0.52206,0.23031 0.0403,-0.0249 0.0863,-0.0138 0.10242,0.0247 0.0161,0.0384 1.02943,0.56124 2.25188,1.16177 1.22246,0.60054 2.83061,1.43659 3.57367,1.8579 1.50402,0.85276 4.401,2.7376 4.3248,2.8138 -0.027,0.027 0.0976,0.12156 0.27678,0.21022 0.77546,0.38367 3.65519,2.82463 6.25017,5.29785 3.65247,3.48111 5.78736,5.90331 8.28045,9.3948 3.8601,5.40596 7.09094,11.78379 7.7626,15.32376 0.17784,0.93733 0.20085,2.37551 0.0467,2.91995 -0.14693,0.51895 -0.85978,1.22237 -1.45233,1.43312 -0.57845,0.20573 -1.92842,0.25573 -2.62548,0.0972 z m 1.86869,-0.45968 c -0.13183,-0.02 -0.34756,-0.02 -0.47939,0 -0.13183,0.02 -0.024,0.0363 0.2397,0.0363 0.26366,0 0.37153,-0.0163 0.23969,-0.0363 z m -0.78627,-0.0774 c -0.029,-0.029 -0.10415,-0.0321 -0.16707,-0.007 -0.0695,0.0278 -0.0489,0.0485 0.0527,0.0527 0.0919,0.004 0.14337,-0.0168 0.11441,-0.0458 z m -0.6737,-0.20883 c -0.0719,-0.0465 -0.16997,-0.0845 -0.21791,-0.0845 -0.0479,0 -0.0283,0.038 0.0436,0.0845 0.0719,0.0465 0.16996,0.0845 0.2179,0.0845 0.0479,0 0.0283,-0.038 -0.0436,-0.0845 z m 2.45167,-0.15254 c 0.10842,-0.13824 0.10534,-0.14132 -0.0329,-0.0329 -0.14519,0.11386 -0.19136,0.18544 -0.11962,0.18544 0.0181,0 0.0867,-0.0686 0.15253,-0.15254 z m -3.14897,-0.14946 c 0,-0.0223 -0.0883,-0.0833 -0.19612,-0.13556 -0.18832,-0.0913 -0.18939,-0.0897 -0.0269,0.0405 0.17784,0.14247 0.22304,0.16173 0.22304,0.095 z m 3.6595,-0.86743 c 0.002,-0.223 -0.0481,-0.15343 -0.1198,0.16706 -0.0427,0.19096 -0.0346,0.22623 0.03,0.13074 0.0487,-0.0719 0.0891,-0.20592 0.0898,-0.2978 z m -4.61829,0.26489 c 0,-0.0181 -0.0686,-0.0867 -0.15253,-0.15253 -0.13825,-0.10842 -0.14133,-0.10534 -0.0329,0.0329 0.11386,0.14519 0.18544,0.19136 0.18544,0.11962 z m -0.34865,-0.25865 c 0,-0.0165 -0.0883,-0.10479 -0.19612,-0.19611 l -0.19611,-0.16605 0.16604,0.19612 c 0.15604,0.1843 0.22619,0.23579 0.22619,0.16604 z m -0.43581,-0.34585 c 0,-0.015 -0.12748,-0.14248 -0.28328,-0.28328 l -0.28328,-0.256 0.256,0.28328 c 0.23864,0.26405 0.31056,0.32334 0.31056,0.256 z m 5.46181,-0.86614 c -0.0242,-0.0599 -0.044,-0.0109 -0.044,0.10895 0,0.11985 0.0198,0.16888 0.044,0.10895 0.0242,-0.0599 0.0242,-0.15798 0,-0.2179 z m -7.72804,-1.4164 c -0.21172,-0.21572 -0.40456,-0.39223 -0.42853,-0.39223 -0.024,0 0.12965,0.17651 0.34137,0.39223 0.21172,0.21573 0.40455,0.39224 0.42852,0.39224 0.024,0 -0.12964,-0.17651 -0.34136,-0.39224 z m 7.62673,-0.0436 c -0.0335,-0.19821 -0.0779,-0.34338 -0.0987,-0.32258 -0.0208,0.0208 -0.0117,0.20127 0.0203,0.40103 0.032,0.19976 0.0764,0.34492 0.0987,0.32258 0.0223,-0.0223 0.0132,-0.20281 -0.0203,-0.40103 z m -0.15837,-0.62648 c -0.0278,-0.0695 -0.0485,-0.0489 -0.0527,0.0527 -0.004,0.0919 0.0168,0.14337 0.0458,0.1144 0.029,-0.029 0.0321,-0.10414 0.007,-0.16706 z m -8.64758,-0.63737 c -0.36994,-0.40749 -0.69537,-0.74089 -0.72318,-0.74089 -0.0278,0 0.1042,0.1667 0.29335,0.37044 0.87278,0.94013 1.03743,1.11133 1.06883,1.11133 0.0185,0 -0.26905,-0.3334 -0.639,-0.74088 z m 8.53823,0.18055 c -0.0321,-0.12774 -0.0751,-0.21544 -0.0956,-0.1949 -0.0205,0.0205 -0.0111,0.14187 0.0209,0.26961 0.0321,0.12773 0.0751,0.21544 0.0956,0.19489 0.0205,-0.0205 0.0111,-0.14187 -0.0209,-0.2696 z m -10.63239,-2.57753 c -0.74583,-0.86291 -1.37555,-1.56892 -1.39939,-1.56892 -0.0479,0 1.9051,2.29246 2.39475,2.81099 0.63366,0.67104 0.32171,0.28176 -0.99536,-1.24207 z m 10.16987,1.24861 c -0.10275,-0.1767 -0.12757,-0.12014 -0.0435,0.099 0.0299,0.0779 0.0727,0.12327 0.0951,0.10083 0.0225,-0.0224 -7.8e-4,-0.11238 -0.0517,-0.19987 z m -1.35717,-3.07009 c -0.17146,-0.34049 -0.33055,-0.61907 -0.35353,-0.61907 -0.023,0 0.10311,0.29279 0.28018,0.65065 0.17707,0.35786 0.33616,0.63644 0.35353,0.61907 0.0174,-0.0174 -0.10871,-0.31016 -0.28018,-0.65065 z m -0.74446,-1.38174 c -0.19959,-0.37153 -0.40557,-0.71474 -0.45773,-0.76268 -0.0522,-0.0479 0.005,0.0893 0.12635,0.30507 0.12166,0.21573 0.30541,0.55893 0.40834,0.76268 0.10294,0.20374 0.20938,0.37044 0.23654,0.37044 0.0272,0 -0.11392,-0.30398 -0.3135,-0.67551 z m -0.69822,-1.24207 c -0.0513,-0.0959 -0.11291,-0.17433 -0.13688,-0.17433 -0.024,0 -0.002,0.0785 0.0497,0.17433 0.0513,0.0959 0.11291,0.17432 0.13688,0.17432 0.024,0 0.002,-0.0784 -0.0497,-0.17432 z m -0.26149,-0.43581 c -0.0513,-0.0959 -0.1129,-0.17433 -0.13687,-0.17433 -0.024,0 -0.002,0.0785 0.0497,0.17433 0.0513,0.0959 0.11291,0.17432 0.13688,0.17432 0.024,0 0.002,-0.0784 -0.0497,-0.17432 z m -0.26148,-0.43582 c -0.0513,-0.0959 -0.11291,-0.17432 -0.13688,-0.17432 -0.024,0 -0.002,0.0784 0.0497,0.17432 0.0513,0.0959 0.11291,0.17433 0.13688,0.17433 0.024,0 0.002,-0.0785 -0.0497,-0.17433 z m -0.6973,-1.13311 c -0.0513,-0.0959 -0.11291,-0.17433 -0.13688,-0.17433 -0.024,0 -0.002,0.0785 0.0497,0.17433 0.0513,0.0959 0.11291,0.17432 0.13688,0.17432 0.024,0 0.002,-0.0784 -0.0497,-0.17432 z m -1.01924,-1.57563 c -0.0866,-0.1475 -0.21316,-0.3142 -0.28123,-0.37044 -0.0681,-0.0562 -0.0138,0.0644 0.12053,0.26819 0.28215,0.42781 0.39342,0.49861 0.1607,0.10225 z m -1.07267,-1.56223 c -0.1024,-0.14381 -0.20581,-0.26148 -0.22977,-0.26148 -0.024,0 0.0402,0.11767 0.14261,0.26148 0.10241,0.14382 0.20581,0.26149 0.22978,0.26149 0.024,0 -0.0402,-0.11767 -0.14262,-0.26149 z m -0.26149,-0.38155 c 0,-0.0181 -0.0686,-0.0867 -0.15253,-0.15254 -0.13825,-0.10842 -0.14133,-0.10534 -0.0329,0.0329 0.11387,0.14519 0.18544,0.19136 0.18544,0.11963 z m -0.43581,-0.61014 c 0,-0.0181 -0.0686,-0.0867 -0.15253,-0.15254 -0.13825,-0.10842 -0.14133,-0.10533 -0.0329,0.0329 0.11386,0.14519 0.18544,0.19136 0.18544,0.11963 z m -0.53516,-0.71191 c -0.15648,-0.2179 -0.34306,-0.44343 -0.41463,-0.50119 -0.0716,-0.0578 0.0391,0.12052 0.24598,0.39617 0.4451,0.59312 0.57911,0.67657 0.16865,0.10502 z m -0.51079,-0.6827 c 0,-0.0181 -0.0686,-0.0867 -0.15253,-0.15253 -0.13825,-0.10842 -0.14133,-0.10534 -0.0329,0.0329 0.11386,0.14519 0.18544,0.19136 0.18544,0.11962 z m -0.52298,-0.66439 c -0.15187,-0.19175 -0.29574,-0.34865 -0.31971,-0.34865 -0.024,0 0.0807,0.1569 0.23255,0.34865 0.15188,0.19176 0.29575,0.34865 0.31972,0.34865 0.024,0 -0.0807,-0.15689 -0.23256,-0.34865 z m -0.87162,-1.08953 c -0.2938,-0.35955 -0.55379,-0.65372 -0.57776,-0.65372 -0.024,0 0.1968,0.29417 0.4906,0.65372 0.29379,0.35955 0.55378,0.65372 0.57775,0.65372 0.024,0 -0.1968,-0.29417 -0.49059,-0.65372 z m -1.04595,-1.26386 c -0.24919,-0.28763 -0.47268,-0.52297 -0.49665,-0.52297 -0.024,0 0.1603,0.23534 0.40948,0.52297 0.24919,0.28764 0.47268,0.52298 0.49665,0.52298 0.024,0 -0.1603,-0.23534 -0.40948,-0.52298 z m -0.52298,-0.63741 c 0,-0.015 -0.12747,-0.14248 -0.28328,-0.28328 l -0.28328,-0.256 0.25601,0.28328 c 0.23863,0.26405 0.31055,0.32334 0.31055,0.256 z m -0.6973,-0.78558 c 0,-0.0156 -0.10786,-0.12347 -0.2397,-0.2397 l -0.23969,-0.2113 0.2113,0.23969 c 0.19751,0.22404 0.26809,0.27967 0.26809,0.21131 z m -0.78446,-0.87331 c 0,-0.0165 -0.0883,-0.10479 -0.19612,-0.19611 l -0.19612,-0.16605 0.16605,0.19612 c 0.15604,0.1843 0.22619,0.23579 0.22619,0.16604 z m -5.57635,-5.56282 c -0.72093,-0.68291 -2.18113,-1.93789 -2.18113,-1.87458 0,0.0222 0.51971,0.49131 1.15491,1.04249 0.6352,0.55118 1.24999,1.10442 1.36621,1.22943 0.11622,0.12501 0.23389,0.22564 0.26149,0.22362 0.0276,-0.002 -0.24307,-0.28144 -0.60148,-0.62096 z m -2.26829,-1.94239 c 0,-0.0216 -0.40158,-0.36451 -0.8924,-0.76199 -0.87835,-0.71131 -0.8883,-0.7235 -0.63193,-0.774 0.2408,-0.0474 0.22899,-0.0565 -0.15632,-0.11995 -0.31472,-0.0518 -0.61357,-0.21163 -1.22028,-0.65252 -1.19157,-0.86589 -3.46038,-2.36057 -3.28762,-2.16585 0.024,0.027 0.71403,0.49775 1.53346,1.04609 1.44638,0.96787 3.01871,2.12997 4.08853,3.02181 0.54691,0.45592 0.56656,0.47002 0.56656,0.40641 z m -6.27571,-4.53367 c 0,-0.0223 -0.0883,-0.0833 -0.19611,-0.13556 -0.18833,-0.0913 -0.1894,-0.0897 -0.0269,0.0405 0.17784,0.14247 0.22304,0.16174 0.22304,0.095 z m -0.61014,-0.34865 c 0,-0.0223 -0.0883,-0.0833 -0.19611,-0.13556 -0.18833,-0.0913 -0.1894,-0.0896 -0.0269,0.0405 0.17784,0.14247 0.22304,0.16174 0.22304,0.095 z"
   id="path95"
   inkscape:connector-curvature="0" /><path
   style="fill:#008000;fill-opacity:0.63019738;stroke-width:0.08716262;paint-order:markers fill stroke"
   d="m 603.07125,197.71462 c -2.45936,-0.24001 -4.4355,-1.31136 -5.81935,-3.15491 -0.69598,-0.92717 -1.18957,-1.82219 -2.055,-3.72629 -1.00497,-2.21114 -2.09948,-4.3878 -2.9327,-5.83229 -0.36711,-0.63643 -0.64822,-1.1764 -0.62468,-1.19994 0.0578,-0.0578 0.74546,0.81628 1.3153,1.67172 0.25548,0.38352 0.80787,1.32488 1.22755,2.09191 1.22724,2.24298 2.52563,4.37511 3.42859,5.63019 0.87803,1.22043 2.63142,3.10422 2.79515,3.00303 0.0516,-0.0319 0.0938,-0.0237 0.0938,0.0182 0,0.10155 0.57127,0.36994 0.78742,0.36994 0.0942,0 0.17137,0.0434 0.17137,0.0965 0,0.0531 0.0588,0.0739 0.13074,0.0463 0.0719,-0.0276 0.13074,-0.0122 0.13074,0.0343 0,0.0464 0.0706,0.0844 0.1569,0.0844 0.0863,0 0.19415,0.0329 0.23969,0.0732 0.10266,0.0908 1.26735,0.42305 1.7389,0.4961 0.19176,0.0297 0.45455,0.0942 0.58398,0.14335 0.28479,0.10811 1.49434,-0.0342 2.12927,-0.25057 0.60797,-0.20716 1.28321,-0.90437 1.46335,-1.51098 0.69323,-2.33437 -1.19963,-7.6281 -4.98561,-13.94308 -2.05594,-3.42932 -4.6573,-7.01012 -6.77537,-9.32641 -1.64053,-1.79405 -3.19079,-3.37257 -4.57262,-4.65594 -4.20796,-3.90815 -6.50732,-5.67646 -10.20021,-7.8444 -1.69274,-0.99374 -5.7456,-3.03599 -5.90417,-2.97514 -0.0605,0.0232 -0.11006,0.002 -0.11006,-0.0473 0,-0.0493 -0.0392,-0.0653 -0.0872,-0.0357 -0.0479,0.0296 -0.0872,0.0123 -0.0872,-0.0384 0,-0.0508 -0.0294,-0.0859 -0.0654,-0.078 -0.036,0.008 -0.33766,-0.11156 -0.67046,-0.26535 -0.88849,-0.41059 -2.66498,-1.04025 -3.69142,-1.3084 -0.82232,-0.21483 -1.05037,-0.35387 -0.59186,-0.36087 0.18092,-0.003 0.18095,-0.003 0.007,-0.13922 -0.16492,-0.12909 -0.15787,-0.13304 0.13074,-0.0732 0.46918,0.0973 3.46737,1.13268 4.67379,1.61399 10.18184,4.06209 18.97461,10.98611 25.7783,20.29955 3.31647,4.53985 7.20911,12.47829 8.48649,17.3069 0.18067,0.68291 0.23172,1.08238 0.23581,1.84505 0.005,0.9128 -0.008,0.9874 -0.20526,1.1976 -0.50197,0.53463 -1.79894,0.77246 -3.99524,0.73262 -0.82701,-0.015 -1.50361,0.002 -1.50355,0.0381 6e-5,0.036 -0.0293,0.06 -0.0653,0.0535 -0.036,-0.007 -0.37916,-0.0425 -0.76267,-0.0799 z"
   id="path97"
   inkscape:connector-curvature="0" /><path
   style="fill:#00ffff;fill-opacity:0.63019738;stroke-width:0.9861325;paint-order:markers fill stroke"
   d="m 190.03489,790.99588 c -5.17034,-1.64652 -11.29169,-8.28776 -12.66464,-13.74025 -0.77992,-3.09732 -1.15134,-16.98745 -1.15134,-43.05682 v -38.48444 l -5.45174,-4.02743 c -2.99845,-2.21509 -6.99235,-6.11199 -8.87533,-8.65978 -6.51464,-8.81469 -6.53764,-9.06252 -6.12427,-65.97368 0.4098,-56.41948 0.27848,-55.13051 7.13,-69.9865 3.87108,-8.39359 7.63989,-14.03023 15.44292,-23.09641 3.17212,-3.68561 5.76643,-7.05808 5.76514,-7.49436 -0.001,-0.43628 -2.53591,-2.11716 -5.63248,-3.73529 -7.70184,-4.02463 -15.17172,-11.77563 -19.1641,-19.88531 -3.1154,-6.32828 -3.30586,-7.31286 -3.30586,-17.09027 0,-9.56335 0.23899,-10.87664 3.05443,-16.78499 4.47591,-9.39289 10.90615,-16.00148 19.89479,-20.44659 l 7.50955,-3.71365 18.99892,-0.49307 c 16.93228,-0.43943 19.14211,-0.6893 20.31539,-2.29707 0.72406,-0.99219 4.34589,-10.97679 8.04851,-22.18798 8.24884,-24.97667 11.05158,-31.74529 16.86847,-40.73727 11.221,-17.3459 29.75527,-31.00557 50.94692,-37.54765 l 7.21356,-2.2269 136.08629,-0.3099 c 95.41664,-0.21729 138.36288,0.0149 143.7041,0.77682 28.29916,4.03702 55.3731,24.20348 67.88342,50.56408 1.60226,3.37614 6.23264,16.3974 10.28973,28.93614 4.05709,12.53873 8.11484,23.41084 9.01722,24.16024 1.22313,1.01577 6.55924,1.48804 20.96633,1.85562 18.89799,0.48216 19.45657,0.55703 25.24244,3.38357 8.33522,4.07197 17.28303,13.2447 20.26722,20.77668 3.12482,7.88693 3.39095,23.10591 0.53361,30.5145 -2.18689,5.67025 -11.11653,15.79871 -19.50831,22.12735 -3.15156,2.37675 -5.73012,4.76735 -5.73012,5.31246 0,0.5451 2.51405,3.9256 5.58677,7.51223 10.644,12.42418 17.12056,24.24536 20.72355,37.82519 1.39385,5.25348 1.69459,13.58146 2.02653,56.11722 0.25543,32.73226 0.0361,51.26185 -0.63646,53.75939 -1.57757,5.85866 -6.30646,12.56163 -12.08405,17.12855 -8.80601,6.96075 -8.15939,3.32875 -8.71341,48.94252 l -0.49307,40.59533 -2.9584,4.18587 c -1.62712,2.30222 -4.73343,5.11291 -6.90292,6.24596 -3.76102,1.96424 -5.63823,2.07319 -40.34952,2.3418 l -36.40497,0.28172 -5.28893,-2.58762 c -4.19979,-2.05477 -5.89009,-3.63581 -8.20826,-7.67772 l -2.91934,-5.09008 -0.009,-25.6975 c -0.007,-18.98956 -0.33104,-26.13756 -1.24197,-27.38333 -1.15381,-1.57795 -2.27401,-1.59007 -17.50385,-0.18937 -52.20867,4.80168 -112.13753,6.18058 -200.18485,4.60603 -65.42095,-1.16992 -76.01571,-1.63322 -104.44804,-4.56742 -10.43091,-1.07646 -14.56701,-1.17662 -15.53159,-0.37609 -1.03136,0.85596 -1.31585,6.43081 -1.32017,25.87018 -0.003,14.42544 -0.44267,26.35343 -1.05175,28.5469 -1.48273,5.33962 -7.00051,11.05333 -12.476,12.91901 -3.84498,1.31012 -10.04569,1.5407 -39.15397,1.45597 -22.36745,-0.0651 -35.80123,-0.48782 -38.02684,-1.19659 z M 677.6616,643.50764 c 11.68933,-4.1781 20.17697,-12.19061 24.38341,-23.01847 2.89938,-7.46336 3.55447,-23.0915 1.29591,-30.91591 -2.07459,-7.187 -4.55162,-11.48064 -9.80073,-16.98842 -8.66732,-9.0944 -18.21246,-12.42409 -34.06085,-11.88163 -9.85538,0.33732 -11.04628,0.60583 -18.05866,4.07153 -8.93759,4.4172 -14.4887,10.16999 -18.76276,19.44444 -3.85383,8.36261 -4.80371,21.18011 -2.23328,30.13585 4.00639,13.95886 14.28229,25.22798 27.4899,30.14691 6.82724,2.54268 21.19502,2.06243 29.74706,-0.9943 z m -428.58195,0.80657 c 23.47117,-5.41107 37.94859,-31.02104 30.70781,-54.32089 -3.66802,-11.80319 -11.61131,-20.75084 -23.26765,-26.20962 -5.37677,-2.51799 -6.80313,-2.73863 -17.70488,-2.73863 -11.37347,0 -12.12112,0.13009 -18.33422,3.19004 -27.25869,13.42492 -32.40472,50.18284 -9.87504,70.53705 9.67674,8.74235 25.22072,12.59746 38.47398,9.54205 z m 302.94708,-0.48125 c 6.69846,-3.4639 6.46476,-15.29898 -0.37189,-18.83436 -2.47976,-1.28234 -15.83627,-1.47577 -101.6262,-1.47179 -54.32416,0.003 -99.5642,0.31019 -100.53342,0.68369 -2.58891,0.99771 -4.64765,5.66039 -4.64765,10.52611 0,4.67174 1.99787,8.31936 5.28271,9.64496 1.16231,0.46904 46.40035,0.88094 100.52897,0.91532 86.98657,0.0552 98.75849,-0.11476 101.36748,-1.46393 z m 23.1814,-44.23011 c 3.66429,-3.66429 4.40221,-8.0571 2.17472,-12.94589 -2.58251,-5.66802 3.78669,-5.39618 -126.43067,-5.39618 -90.79508,0 -120.44397,0.28537 -122.40335,1.17813 -5.67457,2.5855 -7.48379,13.58816 -2.97566,18.09628 l 2.4205,2.42051 h 121.93081 121.93079 z m 99.09004,-103.74174 c 1.09706,-1.32188 1.03411,-2.32355 -0.38737,-6.16333 -0.93353,-2.5217 -8.83604,-25.88538 -17.56114,-51.91928 -8.72509,-26.03389 -17.45741,-50.44067 -19.40517,-54.23728 -2.44229,-4.76058 -6.00711,-9.35584 -11.48633,-14.80654 -8.7849,-8.73919 -16.86945,-13.56513 -29.1468,-17.39871 l -7.39599,-2.30939 H 449.87068 310.826 l -7.87959,2.78447 c -4.33378,1.53147 -10.46284,4.35372 -13.62014,6.27167 -12.01607,7.29938 -24.01606,20.89074 -28.73976,32.55108 -2.94991,7.28176 -34.07484,101.55206 -34.07484,103.20489 0,0.67876 0.53251,1.76662 1.18336,2.41747 0.91338,0.91339 51.84374,1.18336 223.23827,1.18336 202.38233,0 222.17096,-0.13983 223.36487,-1.57841 z"
   id="path99"
   inkscape:connector-curvature="0" /></svg>