<svg id="Capa_1" data-name="Capa 1" xmlns="http://www.w3.org/2000/svg" viewBox="0 0 1612.04 252.45"><path d="M348.24,161.46c-11.61,9-20.89.53-30.5.15-65.66-2.56-129.1,6.52-187.82,37.83a109.83,109.83,0,0,0-26.26,19.87c-25.87,26.38-24,56.39,5.64,78.54,30.27,22.65,65.9,30.15,103,31.81,13,.58,26.08.09,39.45,2.85-44.39,22.07-92,34.44-140.32,27.24C59.71,352,30.3,273.79,58,227.39c23.2-38.88,60.9-58.87,102.51-70.72,54-15.38,109.29-16.71,164.56-6.41C332.7,151.69,342,151.57,348.24,161.46Z" transform="translate(-47.35 -143.62)" fill="#e12f2c"/><path d="M161.21,381.89c43.55-4.33,87.85-1.68,131.42-11.42,37.76-8.44,74.82-18.42,105.59-42.91C434.47,298.7,431.79,260,392,236.17c-33.79-20.23-71.31-26.33-110.3-25.56-5.22.1-13.36,4.39-15.16-3.89-2.07-9.5,6.76-10.41,13.28-11.45,35.95-5.74,71.82-12.23,108-16.41,28.81-3.34,72.69,47.71,74.28,80.59,2.2,45.74-20.19,76.58-57,98.12C328,402.62,245.88,404.49,161.21,381.89Z" transform="translate(-47.35 -143.62)" fill="#e12f2c"/><path d="M644,280.27c.51-65,76-110.06,134.08-79.88,22.31,11.6,33.56,30.48,34.06,55.29,1.19,59.15-62.75,107-119.72,89.85C659.38,335.6,643.69,314.45,644,280.27Zm88.33-53.09c-26,.79-48.3,24.58-47.1,50.34.92,19.93,16.87,35,36.6,34.47,24.62-.61,50.38-26.11,49.93-49.43C771.34,243.16,752.84,226.56,732.28,227.18Z" transform="translate(-47.35 -143.62)" fill="#060606"/><path d="M1391.81,285.22c13.39,21.48,25.72,41.28,37.45,60.09-52.21,22.22-61.15-19.63-79.16-57-3.91,20.51-7.38,34.07-8.81,47.84-.93,9.07-2.87,12.61-13.14,13.21-31.35,1.81-31.41,2-26.12-29.17,6.37-37.48,12.48-75,17.56-112.68,1.69-12.57,5.93-17.9,19.11-17,14.37,1,28.87.16,43.31.25,22.24.12,43.42,3.56,50.58,28.65,6.92,24.26-5.48,48.48-29.31,61.37C1400.34,282.42,1397,283.26,1391.81,285.22Zm-24-63.45c-16.18,3.55-9.21,19.23-12.35,29.87-2.14,7.24.35,11.33,8.73,10.17,13.65-1.9,25.5-7.38,26.18-22.46C1390.92,227.25,1381.4,222.37,1367.81,221.77Z" transform="translate(-47.35 -143.62)" fill="#060606"/><path d="M1190.05,348.71c-20.45-2.95-45.19,12.54-50.65-22-1.28-8.13-57.15-7.13-60.75,2.08-10.94,27.9-33.47,19.05-57.52,20.07,28.85-52.09,55.45-102.55,84.67-151.44,9.06-15.16,28.33-5.05,42.83-6.13,12.17-.91,7.91,11.22,9.37,17.3C1169.05,254.53,1179.18,300.66,1190.05,348.71Zm-65.87-105.29c-10.35,8.39-12.54,19.66-17.66,29-2.6,4.74-8.91,10.31-5.26,15.88,4.2,6.41,12.33,1.86,18.65,2.87,11,1.78,12.9-3.71,10.76-13.18C1128.18,267,1126.46,255.75,1124.18,243.42Z" transform="translate(-47.35 -143.62)" fill="#060606"/><path d="M1489.79,351.63c30.44-54.67,57.27-103.43,84.69-151.85,10-17.7,27.55-6.73,41.51-8.55,13.14-1.7,10.16,10.7,11.92,18.19,9.32,39.51,18.71,79,27.44,118.66,1.48,6.73,9.92,18.86-3.15,19.89-12.38,1-29.67,9.58-38-8.06-4.25-9-4-20.94-18.73-17.49-17.42,4.08-40.23-11.69-51.88,13.67C1532.83,359.53,1512.21,344.42,1489.79,351.63Zm103.82-111c-9.8,19.4-20.1,32.49-22.5,49.6C1604,292,1604,292,1593.61,240.66Z" transform="translate(-47.35 -143.62)" fill="#060606"/><path d="M921.28,347c7.57-46.64,15.46-93.19,22.45-139.88,1.78-11.89,5.12-17.84,18.77-16.64,16.06,1.41,32.38-.24,48.53.48,21.09.93,41.6,4.36,48.17,29,6.73,25.22-4.92,54.52-25.94,66.67-13.62,7.88-28.82,10.8-44.23,9.95-13.44-.74-19.64,3.08-21.71,17.36C961.88,351.61,961.21,351.51,921.28,347Zm67.29-83.89c15.3.47,27.3-4.5,28.75-21.38,1.27-14.85-10-18-21.7-18.71-20.85-1.22-13.91,16.79-17.62,26.92C975,258.23,977,265.25,988.57,263.09Z" transform="translate(-47.35 -143.62)" fill="#060606"/><path d="M627.85,299.76c-2.11,43.48-6.55,48.57-42,49.24-35,.66-66.65-25.27-69.85-57.32-5.52-55.33,49.91-108.15,105.22-100.5,17.7,2.45,28.86,8.35,20.36,29.14-2.46,6-2.31,13.13-3.41,20-28.39-16.85-51.18-15.67-67.94,4.4-13.49,16.16-20,35.23-5.65,53.33C583.46,321.91,606.18,310.4,627.85,299.76Z" transform="translate(-47.35 -143.62)" fill="#060606"/><path d="M323.1,271.5c-.85,31-39.27,56.55-70.45,48-12.14-3.33-24.87-4.4-36.22-10.51-15.51-8.36-28.68-18.67-29-38.2-.3-19.9,11.54-33.79,26.77-43.44,31.48-20,82.88-.72,101.42,20.54C321.45,254.55,323.54,262.7,323.1,271.5Z" transform="translate(-47.35 -143.62)" fill="#e12f2c"/><path d="M1195.59,226.36c-4.39-31,8.47-39.28,35.31-36.05,20.17,2.43,40.91-.19,61.32.94,5.19.29,19.07-7.16,15.44,7.27-2.31,9.24,5.41,29.28-13.78,26.5-25.94-3.74-27.17,11.62-29.57,29-2.77,20.16-6.11,40.25-9.36,60.34-5.82,36-5.86,36-45.85,33.28,4.5-30.54,6.77-61.5,14.14-91.2C1229.7,230.49,1224.37,220.06,1195.59,226.36Z" transform="translate(-47.35 -143.62)" fill="#060606"/><path d="M883.5,192.8c-5.45,34-9.79,68.27-16.82,101.95-3.54,17,1.2,21.08,17,19.45,10-1,20.11-.19,29.15-.19,4.87,32.82-11.91,36.34-37.89,35.57-60.45-1.8-60.29-.54-48.73-59.28,4.24-21.54,7-43.37,10.92-65C843.84,188,844,188.06,883.5,192.8Z" transform="translate(-47.35 -143.62)" fill="#060606"/><path d="M1462.83,348.18c-18.48,4.34-23.57-1.66-20.38-19.13q11.38-62.28,20-125c3.57-26.19,22.31-10.85,33.53-12.47,15.68-2.27,8,11.36,7.07,17.63-5.76,40.09-13.35,79.94-18.38,120.12C1482.66,345.06,1479.25,354.07,1462.83,348.18Z" transform="translate(-47.35 -143.62)" fill="#060606"/><path d="M1367.81,221.77c13.59.6,23.11,5.48,22.56,17.58-.68,15.08-12.53,20.56-26.18,22.46-8.38,1.16-10.87-2.93-8.73-10.17C1358.6,241,1351.63,225.32,1367.81,221.77Z" transform="translate(-47.35 -143.62)" fill="#fdfdfd"/><path d="M988.57,263.09C977,265.25,975,258.23,978,249.92c3.71-10.13-3.23-28.14,17.62-26.92" transform="translate(-47.35 -143.62)" fill="#fdfdfd"/></svg>