<?xml version="1.0" encoding="utf-8"?>
<!-- Generator: Adobe Illustrator 25.2.1, SVG Export Plug-In . SVG Version: 6.00 Build 0)  -->
<svg version="1.1" id="Capa_2" xmlns="http://www.w3.org/2000/svg" xmlns:xlink="http://www.w3.org/1999/xlink" x="0px" y="0px"
	 viewBox="0 0 94.9 93.9" style="enable-background:new 0 0 94.9 93.9;" xml:space="preserve">
<style type="text/css">
	.st0{fill:#636363;}
</style>
<g>
	<path class="st0" d="M47.4,10.6c12.1,0,24.3,0.1,36.4,0c4,0,7.3,2.8,8.7,6c0.8,1.9,1.1,3.8,1.1,5.8c0,16.3,0,32.6,0,48.9
		c0,2.9-0.7,5.6-2.5,7.9c-0.9,1.2-2.1,2.1-3.5,2.8c-1.3,0.6-2.5,0.7-3.9,0.7c-24.2,0-48.3,0-72.5,0c-4.2,0-7.4-2.8-8.8-6
		c-0.8-1.8-1-3.7-1-5.6c0-16.4,0-32.7,0-49.1c0-2.8,0.7-5.4,2.3-7.7c0.9-1.3,2.1-2.3,3.6-3c1.3-0.6,2.6-0.7,4-0.7
		C23.3,10.6,35.3,10.6,47.4,10.6z M13,17.9c2.1,2.5,4,4.8,5.9,7c1.4,1.6,2.8,3.3,4.1,4.9c1.8,2.1,3.5,4.2,5.2,6.3
		c1.4,1.6,2.8,3.3,4.1,4.9c1.7,2.1,3.5,4.2,5.2,6.2c1.4,1.7,2.8,3.3,4.2,5c1.6,1.9,3.1,3.8,4.6,5.6c0.5,0.6,1.5,0.6,2,0
		c0.9-1.1,1.8-2.2,2.8-3.3c2-2.4,4-4.9,6-7.3c1.7-2,3.4-4,5.1-6.1c2-2.4,4-4.9,6-7.3c1.7-2,3.4-4,5.1-6.1c2.2-2.6,4.3-5.1,6.5-7.7
		c0.6-0.7,1.2-1.5,1.9-2.3C58.8,17.9,36,17.9,13,17.9z M14.6,75.3c21.9,0,43.7,0,65.6,0c-6.4-7.6-12.6-15.1-19.1-22.7
		c-0.2,0.3-0.3,0.5-0.5,0.7c-0.8,1-1.6,1.9-2.4,2.9c-1.4,1.7-2.7,3.4-4.2,5.1c-1.1,1.2-2.2,2.7-3.6,3.4c-2.7,1.5-5.7,0.8-7.8-1.3
		c-0.9-0.9-1.7-1.9-2.5-2.9c-1.4-1.7-2.8-3.4-4.2-5.1c-0.8-0.9-1.5-1.8-2.4-2.7C27.2,60.2,21,67.7,14.6,75.3z M7.5,21.5
		c-0.1,0.3-0.1,0.3-0.1,0.4c0,16.7,0,33.5,0,50.2c0,0.3,0.1,0.6,0.3,1.2c1.1-1.2,2-2.3,2.9-3.3c1.7-2,3.3-4,4.9-6
		c1.4-1.7,2.8-3.3,4.2-5c1.8-2.1,3.5-4.2,5.2-6.3c1.3-1.6,2.7-3.2,4-4.8c0.1-0.2,0.1-0.7,0-0.8c-1.8-2.2-3.7-4.4-5.5-6.6
		c-1.4-1.6-2.8-3.3-4.1-4.9c-1.7-2.1-3.5-4.2-5.2-6.2c-1.4-1.7-2.8-3.4-4.3-5.1C9.1,23.4,8.4,22.5,7.5,21.5z M87.4,21.7
		c-0.1,0-0.1-0.1-0.2-0.1c-0.2,0.2-0.4,0.4-0.6,0.6c-2,2.4-4,4.8-6.1,7.2c-1.7,2-3.3,4-5,5.9c-2,2.4-4.1,4.9-6.1,7.3
		c-1.2,1.4-2.4,2.9-3.6,4.4c-0.2,0.2-0.1,0.8,0,1c0.8,1.1,1.8,2.2,2.7,3.2c2.8,3.4,5.6,6.7,8.4,10c2.8,3.4,5.7,6.7,8.5,10.1
		c0.5,0.6,1,1.1,1.5,1.7c0.1,0,0.3-0.1,0.4-0.1C87.4,55.9,87.4,38.8,87.4,21.7z"/>
</g>
</svg>
