<svg id="Capa_1" data-name="Capa 1" xmlns="http://www.w3.org/2000/svg" viewBox="0 0 1806.45 230.76"><path d="M1215.38,263.06c19.6,0,37.82,0,56,0a58.14,58.14,0,0,1,7.1.49c3.56.44,5,3.65,5.09,7.51s-1,7.05-4.5,8.12a44.59,44.59,0,0,1-13.33,1.54c-17-.1-34,0-51.67,0,8.12,15.8,19.87,21.85,32.43,25.87,28,9,56,11.16,84.16.75a17.05,17.05,0,0,1,10.17-.3c4.32,1.21,7.31,6.34,8,10.93.77,5.4-4,8.17-7.59,9.25-9.73,2.89-19.54,6.27-29.45,7.09-31.48,2.61-62.58.35-92-16.34-15-8.53-28-20.72-31.15-41.56-1.68-11,2.61-23.16,8.4-33.15,12.87-22.18,32.27-27.73,52-31.5,22.83-4.37,45.79-2.68,68.63,1,2.32.37,4.56,1.55,6.89,2,3.51.72,5.09,3.69,5.08,7.57s-1.05,7.39-4.59,9.37c-6.24,3.47-12.42,1.72-18.64.8-19.68-2.91-39.3-4.78-59,.66C1233.58,237,1222.79,245.56,1215.38,263.06Z" transform="translate(-67.84 -139.71)" fill="#ec1e26"/><path d="M1550.11,285.13c0-9.26.31-18.54-.08-27.77-.4-9.73,4.7-11.71,10.44-11.94s10.85,1.25,10.66,11.42c-.29,14.86.64,29.75.47,44.62-.09,8.68,3,13,9.49,13.24,23.45.73,47,1,69.17-10.38,11.56-5.92,20.3-18.75,17.42-33-2.32-11.48-9.64-18.14-17.17-23.89-22.77-17.38-48-17.82-73.39-15.39-8.09.77-16.06,3.36-24.12,4.88a37,37,0,0,1-8.67.5c-5.06-.23-9.17-2.39-9.84-9.67-.69-7.52,3.59-11.4,8.12-12.17,41.29-7,82.37-9.31,121.52,13.69,11.43,6.72,21.29,16.11,26.3,31.17,7,20.92-1.45,42.24-17.65,54.61-19.35,14.77-41,17.95-62.83,19.45-16,1.11-32.08.88-47.67-5.77-10.38-4.43-12.16-6.68-12.17-19.81Z" transform="translate(-67.84 -139.71)" fill="#ec1e26"/><path d="M422.9,285.31c0-9.26.24-18.53-.07-27.77-.32-9.48,4.65-11.86,10.4-12.07s10.81.8,10.68,11.21c-.2,15.5,1.18,31,1.11,46.54,0,7.73,2.72,11.14,8.06,11.39,24,1.12,48,.55,70.83-10.31,7.87-3.73,12.85-12,16.23-21.14s-1.08-21.64-9.51-29.5c-14.24-13.28-30.45-20.54-47.93-22-18.69-1.54-37.4-.69-55.8,4.91-4.77,1.45-9.74,2.22-14.69-.64-3.26-1.89-5.2-4.09-5.07-8.75.12-4.19.92-7.32,4.41-9.44,8.86-5.38,18.56-5.13,27.79-5.85,27.64-2.14,55.29-1.91,82,9.42,15.72,6.66,30.12,15.64,40,33.3,4.58,8.14,6.08,30.39-.73,42.47-13.63,24.17-33.92,30.4-54.91,34.41-21.61,4.13-43.47,6.36-65.09-.94a48.45,48.45,0,0,1-9-3.53c-5.33-3.08-9.63-6.91-8.94-16C423.41,302.57,422.89,293.91,422.9,285.31Z" transform="translate(-67.84 -139.71)" fill="#ec1e26"/><path d="M1517.41,260.91c0,10.91-.12,21.83,0,32.73.23,16.74-4.5,30.63-17.11,37.12-12.34,6.36-24.42,4.55-35.11-7.42-11.41-12.78-20.88-27.62-30.78-42.06-9.55-13.92-17.41-29.65-28.74-41.69-4.28-4.56-9-6-13.83-3.19s-4.66,8.8-4.63,14.6c.11,21.82.07,43.64,0,65.46,0,8.18-5.16,14.38-11.77,14.42-8,.05-10.54-3.25-10.72-13.87-.4-23.09-.09-46.17-.46-69.27-.45-28.59,24.67-45.65,47-33.47,13.54,7.39,21.32,22.17,30.06,35.57,11.2,17.19,21.54,35.27,32.56,52.66,2,3.16,5.23,5.44,8.24,7.16,7,4,13.25-1.2,13.75-11.82a640,640,0,0,0-.77-71.3c-.41-6.28.77-10.56,5.69-13.49,8.73-5.2,16.47.19,16.54,12.16S1517.41,249,1517.41,260.91Z" transform="translate(-67.84 -139.71)" fill="#ec1e26"/><path d="M1046.13,334.1c-14.82.19-25.46-9.11-35.2-19.48C989,291.28,969.8,264.87,955.74,233c-3.2-7.27-7.29-13,.28-19.36,6.85-5.78,14.17-4.34,18.91,4.41,9.5,17.54,18,35.92,29,52.21,9.17,13.65,18.63,26.93,30.9,36.43,8.57,6.63,19.16,3.53,29.22-7.58a255.71,255.71,0,0,0,40.26-59.82c3.73-7.61,7.82-15,11.86-22.31,3-5.56,11.94-7.61,16.39-3.4,4.79,4.55,6.91,8.55,3,17.5-9.65,21.9-20.75,42.46-34,60.85-14,19.47-30.35,35.74-51.65,41.65A24.85,24.85,0,0,1,1046.13,334.1Z" transform="translate(-67.84 -139.71)" fill="#ec1e26"/><path d="M658.59,209.29c12,.85,22.95,11.21,33.34,22.05,17.32,18.07,31.89,39.45,45.06,62.28a165.86,165.86,0,0,1,9.22,19.05c2.72,6.52,3.84,13.45-2.18,18.34-5.72,4.64-15.92,2-18.93-5-9-21.17-20.79-39.92-32.83-58.34a139.12,139.12,0,0,0-25.46-29.46c-8.52-7.34-16.3-5.52-24,1-12.55,10.58-22.66,24.45-31.94,39.17S593,308.19,586.08,324.89c-3.06,7.39-13.64,10-18.91,5s-4.67-11.67-1.71-18.52a375.92,375.92,0,0,1,24.11-46c11.82-19.56,26.19-35.69,43.57-47.38C640.34,213.19,647.75,209.26,658.59,209.29Z" transform="translate(-67.84 -139.71)" fill="#ec1e26"/><path d="M814.25,334.33c-16.16-.76-27-9.47-36.85-19.79-16.29-17-30.51-36.66-43.24-57.84-6-10-10.76-21.15-15.74-32-1.92-4.2,3.42-12.34,8.64-13.88,7.51-2.22,13,2.28,18.4,13.59,13.18,27.51,28,53.39,47.41,74.82,12.75,14.1,24.41,14.29,37,.71,19.4-20.85,35-45.53,47.6-73.25,7.45-16.35,13.72-17.55,21.48-13.33,6,3.29,7.6,10.91,4.12,17.76-10.89,21.43-21.58,43.12-35.41,61.79C852.41,313.49,834.86,330,814.25,334.33Z" transform="translate(-67.84 -139.71)" fill="#ec1e26"/><path d="M1782.18,209.33c11.57.1,20.86,7.59,30.28,14.68,16.77,12.62,29.09,30.53,40.34,50.31,6.22,10.94,12,22.25,18.1,33.25,5,8.9,4.33,19.31-.94,22.74-7.44,4.86-15.17.65-19.66-8.71-9.91-20.64-20.27-40.87-34-58.17-7.91-9.94-15.43-20-25.39-26.92-8.08-5.59-15.36-3.31-22,2.8-13.21,12.2-24.24,27.08-33.75,43.9-7.86,13.89-16.19,27.3-22.63,42.4-3,7.07-13.7,10-18.91,6.1-4.93-3.71-5.18-15.45-.16-24.1,9.18-15.84,17.37-32.64,28.37-46.78,13.75-17.68,26.84-36.36,45.22-47.07C1771.83,211,1776.79,209,1782.18,209.33Z" transform="translate(-67.84 -139.71)" fill="#ec1e26"/><path d="M262.3,368.14c-18.91-5.06-39.21,2.79-59.74,2.3a352,352,0,0,1-43.34-3.63c-11.29-1.67-22.61,1.5-34-.23-18.84-2.87-35.79-10.48-49-28.41-6.89-9.37-6.7-36.34.72-45.32,10.94-13.23,19.65-28,23.11-46.89,1-5.73.14-9-5.22-8.63-4.22.27-8.46-.13-12.68,0-7,.28-11.92-5.63-13.77-11.9-2.51-8.51,3.5-15.15,8.5-19.81,29.36-27.39,62.9-44.07,97.42-58,8.43-3.4,16.66-8.38,25.82-7.92,16.48.82,31.11,10.24,46.49,16.14,2.48,1,4.91,2.16,7.33,3.37,9.07,4.54,9.31,4.58,9.88-6.91.21-4.21,1.62-4.77,4.29-5,6-.39,12.1-1.24,18.15-1.48,13.52-.53,15.69-.06,13.94,16.39-2.27,21.33,7,30.39,19.11,39,2.87,2,5.92,4.05,8.24,6.91a21.5,21.5,0,0,1,4.48,18.93c-1.62,7-6.38,9.36-11.47,10a57.59,57.59,0,0,1-14.25.11c-6.14-.75-6.62,2.51-6.12,9.18,1.33,18.08,10,30.81,19.31,42.86,8.82,11.38,13.47,30.73,8,41.47-5.71,11.18-13.17,20.42-23,26.31C291.66,364.77,278,367.51,262.3,368.14Zm-23.21-14.76c4,1.81-3,10.64,4.42,10.59,4.37,0,8.17-.86,11-5.34.14,2.4,1.24,3.37,3.09,3.48,20.26,1.23,39.49-3,56-18.66,14.56-13.82,13.86-36.87,4.57-48.32-10.68-13.16-20.34-27.82-22.24-47-1.16-11.79-6.35-10.67-12.69-10.65-38.56.14-77.11.07-115.66.07-19,0-38,0-57,.06-2.58,0-6.35-1.66-6.2,4.5.52,20.58-9.54,34-19.49,48.24-8.26,11.86-14.33,23.43-5.31,41.41,7.27,14.5,18.48,20.91,30.66,25.3,12.54,4.52,25.32,8.16,38.44,3q10.56,11.61,14.35-4.46c.7-3,1.92-5.36,4.74-5.52-3.8,9.85-3.13,11.84,4.75,12.84a239.3,239.3,0,0,0,58.53-.11C235.8,362.22,239.18,360.28,239.09,353.38ZM200.73,231.91q55.08,0,110.17,0c3.16,0,6.41.17,9.48-.6,8.24-2.07,9.87-8.62,4.46-16.75-5.63-8.49-13.18-13.92-20.53-19.42-27.65-20.7-57.63-34.69-88.21-46.86-10.26-4.09-20.27-5.45-30.74.14-10.12,5.41-20.82,9.13-31.19,13.82-24.46,11.05-48,24.52-69.4,43.2-5,4.36-12.84,8.49-10.34,18.68,2.37,9.62,10,7.74,16.13,7.76C127.29,232,164,231.91,200.73,231.91Zm93.85-50.79c0-3.24,0-4.88,0-6.51-.17-25.12-.18-25.13-20.06-22.85-2.2.25-5.37-.85-5.16,3.81.19,4.27-2.06,9.71,2.43,12.45C279.05,172.44,286.46,176.48,294.58,181.12Z" transform="translate(-67.84 -139.71)" fill="#1b100b"/><path d="M1152.26,270.55c0-15.86.16-31.73-.06-47.58-.14-9.52,4.22-12.92,10.76-13.46,6.78-.57,12.43,5.57,12.45,13.61q.15,47.1,0,94.18c0,9.1-4.89,13.81-13.06,13.59-7.23-.19-10.29-4.72-10.16-13.75C1152.43,301.62,1152.26,286.08,1152.26,270.55Z" transform="translate(-67.84 -139.71)" fill="#ec1e26"/><path d="M917.75,270c0-15.21-.07-30.41,0-45.61.07-10.39,3.47-14.76,11.27-14.95,6.63-.17,12.54,6.66,12.56,15q.12,46.09,0,92.21c0,8.34-5.79,14.37-13,14.2-7.53-.18-10.74-4.26-10.81-14.27C917.68,301.09,917.75,285.56,917.75,270Z" transform="translate(-67.84 -139.71)" fill="#ec1e26"/><path d="M200.73,231.91c-36.72,0-73.44.06-110.17,0-6.1,0-13.76,1.86-16.13-7.76-2.5-10.19,5.35-14.32,10.34-18.68,21.38-18.68,44.94-32.15,69.4-43.2,10.37-4.69,21.07-8.41,31.19-13.82,10.47-5.59,20.48-4.23,30.74-.14,30.58,12.17,60.56,26.16,88.21,46.86,7.35,5.5,14.9,10.93,20.53,19.42,5.41,8.13,3.78,14.68-4.46,16.75-3.07.77-6.32.59-9.48.6Q255.82,231.94,200.73,231.91Z" transform="translate(-67.84 -139.71)" fill="#f38120"/><path d="M148.63,360c-13.12,5.19-25.9,1.55-38.44-3-12.18-4.39-23.39-10.8-30.66-25.3-9-18-3-29.55,5.31-41.41,10-14.28,20-27.66,19.49-48.24-.15-6.16,3.62-4.49,6.2-4.5,19-.1,38-.06,57-.06,38.55,0,77.1.07,115.66-.07,6.34,0,11.53-1.14,12.69,10.65,1.9,19.18,11.56,33.84,22.24,47,9.29,11.45,10,34.5-4.57,48.32-16.5,15.65-35.73,19.89-56,18.66-1.85-.11-3-1.08-3.08-3.48,2.67-1.79,3.15-6.53,6.45-7.48,3-6.09,3.6-11.1-2.42-15.53-4.42-3.26-7.84-8.63-12.15-12.2-3.57-2.95-4.37-6.18-4-11.3,1.06-15.43-1.41-29.31-9.22-42.37-11.88-19.88-39.37-26.45-55.14-6.46l-.08.72-.58.13c-1.83.85-4.59.67-3.4,4.84l0,0c-4.4,2.19-7.44,5.78-7.92,12l.05-.08c-8,11.08-8.81,24-6.21,37.8v-.2c-1.27,3.52-4.14,4.43-6.38,6.45-3.92,3.56-9.38,5-11.14,11.74l0-.08c-3.53,3.35-1.84,7.28-.8,11.14C142.24,353.38,146.61,355.66,148.63,360ZM108.76,270.7c-2.07-.22-3.2,1.09-3.63,3.52-1.2,9.66-1.88,19.31.5,28.87.43,3.39,3,3.05,4.68,4.12a95.6,95.6,0,0,0,40.31.11c1.77-1,4.25-.74,4.76-4.08,2-9.62,1.58-19.28.31-29-.4-2.48-1.58-3.71-3.63-3.54a3.13,3.13,0,0,0-3.16-2,111.17,111.17,0,0,0-36.94,0A3.2,3.2,0,0,0,108.76,270.7ZM247.81,272c-3.15,11.15-3.87,22.25.41,33.25.88,1.75,2.09,3.1,3.76,3.16,13.32.48,26.65,2,39.92-.91,2.85-2,6.27-3.2,6.12-8.73-.19-6.82-.06-13.66,0-20.5,0-2.81-.36-5.25-3.14-5.57l-1.5-2.13c-14.62-5.55-29.28-4.38-44-.5Z" transform="translate(-67.84 -139.71)" fill="#ec1e26"/><path d="M177.36,264.14l.58-.13.08-.72c5.54,2.34,8.77-3.81,13.15-5.7,22.18-9.61,47.76,12,48.14,42.53.25,20.31,7,30.71,18.36,40.2,3.53,2.94,3.88,6.42,3.3,10.83-3.3,1-3.78,5.69-6.45,7.48-2.84,4.48-6.64,5.3-11,5.34-7.44,0-.4-8.78-4.42-10.58-1.2-3.69-4.32-3.69-6.58-5.34q-3-8.25-6-16.52c1.57-3.81,3.76-7.34,3.46-12,1.92-5.9.92-12,.9-18.07-.87-5.71-2.81-10.92-4.43-16.32-7-23.32-27.57-33.71-44.32-13.66-9.62,11.06-12.11,25.17-11.6,40.86.38,11.94,4.8,23.64,1.44,35.8l-4.2,1.92c-2.82.16-4,2.55-4.74,5.52q-3.76,16.05-14.35,4.46c-2-4.38-6.39-6.66-7-12.28q.4-5.56.8-11.15l0,.08c7.69-1.23,12.68-9,19.3-12.86,2.58-1.52.55-4.35-1.78-5.33v.2c-1.68-13.56,4.65-25.06,6.21-37.8l-.05.08c5.47-1.08,5.93-7.34,7.92-12l0,0C176.87,269.32,178.91,268.71,177.36,264.14Z" transform="translate(-67.84 -139.71)" fill="#028bcb"/><path d="M167.72,350.06l4.2-1.92c4.11,1,6.72-3.89,11-3.78,16.59.43,33.3-2.51,49.62,3.69,2.26,1.65,5.38,1.65,6.58,5.34.09,6.89-3.29,8.83-8.09,9.4a239.3,239.3,0,0,1-58.53.11C164.59,361.9,163.92,359.91,167.72,350.06Z" transform="translate(-67.84 -139.71)" fill="#f38120"/><path d="M294.58,181.12c-8.12-4.64-15.53-8.68-22.79-13.1-4.49-2.74-2.24-8.18-2.43-12.45-.21-4.66,3-3.56,5.16-3.81,19.88-2.28,19.89-2.27,20.06,22.85C294.59,176.24,294.58,177.88,294.58,181.12Z" transform="translate(-67.84 -139.71)" fill="#ec1e26"/><path d="M261,351.15c.58-4.41.23-7.89-3.3-10.83-11.35-9.49-18.11-19.89-18.36-40.2-.38-30.51-26-52.14-48.14-42.53-4.38,1.89-7.61,8-13.15,5.7,15.77-20,43.26-13.42,55.14,6.46,7.81,13.06,10.28,26.94,9.22,42.37-.35,5.12.45,8.35,4,11.3,4.31,3.57,7.73,8.94,12.15,12.2C264.57,340.05,264,345.06,261,351.15Z" transform="translate(-67.84 -139.71)" fill="#1b100b"/><path d="M249.36,270.08c14.69-3.88,29.35-5.05,44,.5-.28.38-.55.75-.82,1.14-14-2.42-28.08-1.63-42.14-.37A14.07,14.07,0,0,0,249.36,270.08Z" transform="translate(-67.84 -139.71)" fill="#1b100b"/><path d="M294.83,272.71c2.78.32,3.14,2.76,3.14,5.57,0,6.84-.14,13.68,0,20.5.15,5.53-3.27,6.73-6.12,8.73l-.83-1.23c6.78-10,2.84-21.56,2.85-32.54Z" transform="translate(-67.84 -139.71)" fill="#1b100b"/><path d="M159.91,318.5c2.33,1,4.36,3.81,1.78,5.33-6.62,3.9-11.61,11.63-19.3,12.86,1.76-6.78,7.22-8.18,11.14-11.74C155.77,322.93,158.64,322,159.91,318.5Z" transform="translate(-67.84 -139.71)" fill="#1b100b"/><path d="M166.12,280.9c-1.56,12.74-7.89,24.24-6.21,37.8C157.31,304.9,158.15,292,166.12,280.9Z" transform="translate(-67.84 -139.71)" fill="#1b100b"/><path d="M248.22,305.26c-4.28-11-3.56-22.1-.41-33.25a16.22,16.22,0,0,0,1,1.3c-1,10.26-1.59,20.52.36,30.72Z" transform="translate(-67.84 -139.71)" fill="#1b100b"/><path d="M291.9,307.51c-13.27,2.94-26.6,1.39-39.92.91-1.67-.06-2.88-1.41-3.76-3.16l1-1.23c13.8,5.35,27.91,1.81,41.88,2.25Z" transform="translate(-67.84 -139.71)" fill="#1b100b"/><path d="M150.62,307.32a95.6,95.6,0,0,1-40.31-.11c.27-.4.54-.79.8-1.19a223.48,223.48,0,0,0,38.63,0Z" transform="translate(-67.84 -139.71)" fill="#1b100b"/><path d="M112,268.7a111.17,111.17,0,0,1,36.94,0c-.29.47-.58.95-.86,1.43l-35.16.05Z" transform="translate(-67.84 -139.71)" fill="#1b100b"/><path d="M174,269c-2,4.68-2.45,10.94-7.92,12C166.55,274.74,169.59,271.15,174,269Z" transform="translate(-67.84 -139.71)" fill="#1b100b"/><path d="M105.63,303.09c-2.38-9.56-1.7-19.21-.5-28.87l1.08,1.22q.2,13.21.38,26.41Z" transform="translate(-67.84 -139.71)" fill="#1b100b"/><path d="M155.7,274.28c1.26,9.68,1.7,19.34-.32,29-.34-.4-.67-.81-1-1.22q.16-13.29.31-26.6Q155.17,274.83,155.7,274.28Z" transform="translate(-67.84 -139.71)" fill="#1b100b"/><path d="M142.42,336.61q-.39,5.58-.8,11.15C140.58,343.89,138.89,340,142.42,336.61Z" transform="translate(-67.84 -139.71)" fill="#1b100b"/><path d="M110.31,307.21c-1.73-1.07-4.25-.73-4.68-4.12l1-1.24c2.46-.23,3,2.73,4.52,4.17C110.85,306.42,110.58,306.81,110.31,307.21Z" transform="translate(-67.84 -139.71)" fill="#1b100b"/><path d="M155.38,303.24c-.51,3.34-3,3.06-4.76,4.08l-.88-1.32c1.48-1.44,2.19-4.29,4.63-4C154.71,302.43,155,302.84,155.38,303.24Z" transform="translate(-67.84 -139.71)" fill="#1b100b"/><path d="M177.36,264.14c1.55,4.57-.49,5.18-3.4,4.84C172.77,264.81,175.53,265,177.36,264.14Z" transform="translate(-67.84 -139.71)" fill="#1b100b"/><path d="M152.06,270.74c2.05-.17,3.23,1.06,3.63,3.54-.34.37-.68.75-1,1.14-1.94.13-2.79-1.6-3.62-3.36Z" transform="translate(-67.84 -139.71)" fill="#1b100b"/><path d="M105.13,274.22c.43-2.43,1.56-3.74,3.63-3.52l1.16,1.49c-.93,1.63-1.74,3.47-3.71,3.25Z" transform="translate(-67.84 -139.71)" fill="#1b100b"/><path d="M148.9,268.7a3.13,3.13,0,0,1,3.16,2l-1,1.32-3-1.93C148.32,269.65,148.61,269.17,148.9,268.7Z" transform="translate(-67.84 -139.71)" fill="#1b100b"/><path d="M108.76,270.7a3.2,3.2,0,0,1,3.2-2l.92,1.48-3,2Z" transform="translate(-67.84 -139.71)" fill="#1b100b"/><path d="M293.33,270.58l1.5,2.13-.91,1c-.47-.67-.94-1.35-1.42-2Z" transform="translate(-67.84 -139.71)" fill="#1b100b"/><path d="M247.81,272c.52-.64,1-1.28,1.55-1.93a14.07,14.07,0,0,1,1,1.27c-.51.65-1,1.3-1.54,2A16.22,16.22,0,0,1,247.81,272Z" transform="translate(-67.84 -139.71)" fill="#1b100b"/><path d="M182.08,271.48c16.75-20.05,37.35-9.66,44.32,13.66,1.62,5.4,3.56,10.61,4.42,16.28-.47,8.39-.51,8.53-4.94,6.34-2.6-1.28-5-2.05-7.11.86a5.1,5.1,0,0,0-.3,5.48c2.1,3.56,4.78,3.28,7.54,1.19,4.77-3.6,3.7,1.26,3.92,4.24.3,4.66-1.89,8.19-3.46,12-2.52,2.74-.36,5.95-.35,9.17-16.48.15-32.75-.74-50.12,1.47,4.73-8.43-.43-13.93-2-20.37C169.6,303.29,174.86,287.12,182.08,271.48Z" transform="translate(-67.84 -139.71)" fill="#f9ee01"/><path d="M182.08,271.48c-7.22,15.64-12.48,31.81-8.05,50.33,1.54,6.44,6.7,11.94,2,20.37,17.37-2.21,33.64-1.32,50.12-1.47,0-3.22-2.17-6.43.35-9.17q3,8.25,6,16.51c-16.32-6.2-33-3.26-49.62-3.69-4.25-.11-6.86,4.82-11,3.78,3.36-12.16-1.06-23.86-1.44-35.8C170,296.65,172.46,282.54,182.08,271.48Z" transform="translate(-67.84 -139.71)" fill="#1b100b"/><path d="M229.93,319.53c-.22-3,.85-7.84-3.92-4.24-2.76,2.09-5.44,2.37-7.54-1.19a5.1,5.1,0,0,1,.3-5.48c2.08-2.91,4.51-2.14,7.11-.86,4.43,2.19,4.47,2.05,4.94-6.34C230.85,307.51,231.85,313.63,229.93,319.53Z" transform="translate(-67.84 -139.71)" fill="#1b100b"/><path d="M248.83,273.31c.51-.66,1-1.31,1.54-2,14.06-1.26,28.1-2.05,42.14.37l1.41,2c0,11,3.93,22.49-2.85,32.54-14-.44-28.08,3.1-41.88-2.25C247.24,293.83,247.83,283.57,248.83,273.31Zm6.2,1.79c-8.14,4.19-4.8,13-4.09,19.57.58,5.46,4.43,9.29,9.82,9.07,6.86-.29,13.73,0,20.6-.09,4.24,0,9.9.32,10.73-5.59,1-7.09,4-15.59-2.2-22l-.42-.05c-11.41-5.53-22.94-4-34.49-.89Z" transform="translate(-67.84 -139.71)" fill="#028bcb"/><path d="M109.92,272.19l3-2,35.16-.05,3,1.93c.83,1.76,1.68,3.49,3.62,3.36q-.15,13.31-.31,26.6c-2.44-.31-3.15,2.54-4.63,4a223.48,223.48,0,0,1-38.63,0c-1.48-1.44-2.06-4.4-4.52-4.17q-.18-13.2-.38-26.41C108.18,275.66,109,273.82,109.92,272.19Zm2.71,3.23-.1.13c-3.75,4.66-1.8,10.58-2.19,15.95-.67,9,3.08,12.46,10,12.21s13.71.1,20.56-.11c3.55-.11,8.54.94,9.18-5,.81-7.44,4.19-15.9-2.28-22.4l0,0C136.13,270.46,124.4,271.87,112.63,275.42Z" transform="translate(-67.84 -139.71)" fill="#028bcb"/><path d="M289.89,276.1c6.21,6.37,3.2,14.87,2.2,22-.83,5.91-6.49,5.55-10.73,5.59-6.87.06-13.74-.2-20.6.09-5.39.22-9.24-3.61-9.82-9.07-.71-6.61-4.05-15.38,4.09-19.57-.52,5-3.77,12.08,0,14.32,4,2.39,7.69-3.5,10.12-8.51.72-1.51,2.8-2,2-4.92-3.86-2-8.07,0-12.11-.83,11.55-3.1,23.08-4.64,34.49.89-3.13-.28-6.25-.57-9.38-.82-2-.17-2.74.9-2.34,3.51.64,4.18,8.3,12.9,10.69,11.33,4.28-2.82,2-7.75,1.57-12C289.94,277.42,289.93,276.76,289.89,276.1Z" transform="translate(-67.84 -139.71)" fill="#1b100b"/><path d="M289.89,276.1c0,.66.05,1.32.12,2,.47,4.24,2.71,9.17-1.57,12-2.39,1.57-10.05-7.15-10.69-11.33-.4-2.61.29-3.68,2.34-3.51,3.13.25,6.25.54,9.38.82Z" transform="translate(-67.84 -139.71)" fill="#f38120"/><path d="M147.75,276.22c6.47,6.5,3.09,15,2.28,22.4-.64,5.92-5.63,4.87-9.18,5-6.85.21-13.72-.14-20.56.11s-10.62-3.17-10-12.21c.39-5.37-1.56-11.29,2.18-15.94-.09,3.59-.16,7.19-.29,10.78-.1,2.74.65,4.86,3,3.85,4.87-2,9.82-6.72,9.92-12.2.1-5.67-5.61-1.62-8.67-2.43a16.89,16.89,0,0,0-3.9-.14c11.77-3.55,23.5-5,35.14.78-2.05-.33-4.11-1-6.14-.9-1.84.12-4.43-1.72-5.43,1.65-.83,2.82,1.92,3.38,2.83,5.17,2.1,4.15,4.84,10.07,8.67,7.43C150.65,287.51,149.22,280.81,147.75,276.22Z" transform="translate(-67.84 -139.71)" fill="#1b100b"/><path d="M112.63,275.42a16.89,16.89,0,0,1,3.9.14c3.06.81,8.77-3.24,8.67,2.43-.1,5.48-5,10.16-9.92,12.2-2.4,1-3.15-1.11-3-3.85.13-3.59.2-7.19.29-10.78Z" transform="translate(-67.84 -139.71)" fill="#f38120"/><path d="M147.75,276.22c1.47,4.59,2.9,11.29-.05,13.33-3.83,2.64-6.57-3.28-8.67-7.43-.91-1.79-3.66-2.35-2.83-5.17,1-3.37,3.59-1.53,5.43-1.65,2-.13,4.09.57,6.14.9Z" transform="translate(-67.84 -139.71)" fill="#f38120"/><path d="M255,275.16c4,.85,8.25-1.17,12.11.83.82,2.91-1.26,3.41-2,4.92-2.43,5-6.14,10.9-10.12,8.51-3.73-2.24-.48-9.36,0-14.32Z" transform="translate(-67.84 -139.71)" fill="#f38120"/></svg>