<?xml version="1.0" encoding="utf-8"?>
<!-- Generator: Adobe Illustrator 25.2.1, SVG Export Plug-In . SVG Version: 6.00 Build 0)  -->
<svg version="1.1" id="Capa_2" xmlns="http://www.w3.org/2000/svg" xmlns:xlink="http://www.w3.org/1999/xlink" x="0px" y="0px"
	 viewBox="0 0 94.9 93.9" style="enable-background:new 0 0 94.9 93.9;" xml:space="preserve">
<style type="text/css">
	.st0{fill:#636363;}
</style>
<g>
	<path class="st0" d="M74.6,8.9c0,2,0,4.1,0,6.1c0,4.5-3,7.7-6.9,7.7c-3.9,0-6.7-3.2-6.8-7.6c0-2.1,0-4.2,0-6.3
		c-6.8,0-13.4,0-20.3,0c0,2.6,0.1,5,0,7.4c-0.2,3-1.8,5.1-4.5,6.1c-4.5,1.7-8.9-1.6-9.1-6.9c-0.1-2.2,0-4.3,0-6.8c-2,0-3.8,0-5.6,0
		c-7.1,0.1-11.1,4.3-11.2,11.7c0,6,0,12,0,17.9c0,0.6,0.1,1.3,0.1,1.9c2.3,0,4.3,0,6.6,0c0-3.5,0-6.9,0-10.3c22.7,0,45.2,0,67.8,0
		c0,0.6,0.1,1,0.1,1.4c0,15.7,0,31.4,0,47.1c0,3.1-1.3,4.4-4.3,4.4c-19.7,0-39.4,0-59.1,0c-3.4,0-4.5-1.2-4.5-4.8c0-1.9,0-3.7,0-5.6
		c-2.4,0-4.4,0-6.6,0c0,2.2,0,4.2,0,6.2c0.1,6.9,4.2,11.1,10.9,11.1c19.8,0,39.6,0,59.5,0c1,0,2.1,0,3.1-0.3
		c4.4-1.1,6.7-4.4,7.8-8.7c0-20.9,0-41.9,0-62.8C89.2,8.5,82.5,7.8,74.6,8.9z"/>
	<path class="st0" d="M21.6,65c0.7,0,1.4,0.1,2.2,0.1c0,2.5-0.2,4.8,0.1,7.1c0.1,1,0.8,2.2,1.6,2.6c0.6,0.3,2-0.3,2.6-0.9
		c4.6-4.2,9.1-8.5,13.6-12.8c1.7-1.6,3.4-3.3,5.2-5c-1.4-1.3-2.6-2.4-3.8-3.6C38.2,47.8,33.2,43,28,38.3c-0.7-0.6-2-1.1-2.7-0.8
		c-0.7,0.3-1.2,1.6-1.5,2.5c-0.3,0.8-0.1,1.7-0.1,2.6c0,1.5,0,3.1,0,4.9c-0.9,0-1.6,0-2.3,0c-4.5,0-9,0.1-13.5,0
		C5.9,47.4,4.3,48,3.4,50c0,4.1,0,8.2,0,12.2C4.3,64.4,5.9,65,8.1,65C12.6,64.9,17.1,65,21.6,65z"/>
	<path class="st0" d="M64.4,14.9c0,2.6,1.2,4.1,3.3,4.1c2,0,3.3-1.5,3.4-4.1c0-2.8-0.1-5.6,0-8.3c0.1-2.2-0.5-3.9-2.4-5.1
		c-0.7,0-1.3,0-2,0c-1.8,1.1-2.5,2.7-2.4,4.9C64.5,9.2,64.4,12,64.4,14.9z"/>
	<path class="st0" d="M33.9,19c1.9,0,3.2-1.4,3.2-3.8c0-3-0.1-6,0-9c0.1-2.2-0.5-3.8-2.5-4.8c-0.5,0-1,0-1.6,0
		c-1.6,0.8-2.6,2-2.6,3.9c0,3.3-0.1,6.7,0,10C30.6,17.6,32,19,33.9,19z"/>
</g>
</svg>
