<?xml version="1.0" encoding="utf-8"?>
<!-- Generator: Adobe Illustrator 25.2.1, SVG Export Plug-In . SVG Version: 6.00 Build 0)  -->
<svg version="1.1" id="Capa_2" xmlns="http://www.w3.org/2000/svg" xmlns:xlink="http://www.w3.org/1999/xlink" x="0px" y="0px"
	 viewBox="0 0 94.9 93.9" style="enable-background:new 0 0 94.9 93.9;" xml:space="preserve">
<style type="text/css">
	.st0{fill:#4D4D4D;}
</style>
<g>
	<path class="st0" d="M47,1.2C21.5,1.2,0.8,21.9,0.8,47.5S21.5,93.7,47,93.7S93.3,73,93.3,47.5S72.5,1.2,47,1.2z M47,90.7
		c-23.9,0-43.3-19.4-43.3-43.3S23.2,4.2,47,4.2s43.3,19.4,43.3,43.3S70.9,90.7,47,90.7z"/>
	<path class="st0" d="M49.9,39.4c8.3,0,15-6.6,15-14.8c0-8.2-6.7-14.8-15-14.8c-8.3,0-15,6.6-15,14.8C35,32.7,41.7,39.4,49.9,39.4z
		 M49.9,12.4c6.8,0,12.3,5.5,12.3,12.2c0,6.7-5.5,12.2-12.3,12.2s-12.3-5.5-12.3-12.2C37.6,17.9,43.1,12.4,49.9,12.4z"/>
	<path class="st0" d="M47.5,61.7c-0.2-0.3-0.6-0.5-1-0.5l-14-0.6c-0.5,0-0.9,0.2-1.2,0.6c-0.3,0.4-0.3,0.9,0,1.3l1.1,1.8
		c-2.9,0.8-9.5,1.9-14.5-3.4c-0.5-0.5-1.3-0.6-1.9-0.1c-0.5,0.5-0.6,1.3-0.1,1.9c7.7,8.1,18.8,3.5,18.9,3.5c0.3-0.1,0.6-0.4,0.7-0.8
		c0.1-0.4,0.1-0.7-0.1-1.1l-0.6-1.1l10,0.5l-2.5,10.9l-1.5-1.2c-0.3-0.2-0.7-0.3-1.1-0.2c-9.6,2-16.6,0.8-20.8-3.5
		c-7.3-7.5-3.8-22.5-3.7-22.6c0.2-0.7-0.3-1.4-1-1.6c-0.7-0.2-1.4,0.3-1.6,1c-0.2,0.7-4,16.5,4.4,25c4.7,4.9,12.4,6.3,22.6,4.4
		l2.7,2.1c0.2,0.2,0.5,0.3,0.8,0.3c0.2,0,0.3,0,0.4-0.1c0.4-0.2,0.7-0.5,0.8-0.9l3.3-14.4C47.9,62.4,47.8,62,47.5,61.7z"/>
	<path class="st0" d="M63.2,39.8c-0.5-0.3-1.1-0.2-1.5,0.1c-12.2,9.3-23.2,0.4-23.7,0c-0.4-0.4-1-0.4-1.5-0.1
		C22,48,22.8,62.6,22.8,63.2c0,0.7,0.7,1.3,1.4,1.2c0.7,0,1.3-0.7,1.2-1.4c0-0.5-0.7-13.1,11.6-20.6c2.9,2,13.8,8.3,25.5,0
		c3.3,2.2,16.2,12,9.7,26.9c-1.1,0.8-7.8,5-25.8,4.6c0,0,0,0,0,0c-0.7,0-1.3,0.6-1.3,1.3c0,0.7,0.6,1.3,1.3,1.3c1,0,1.9,0,2.8,0
		c19,0,24.8-5.2,25.1-5.5c0.1-0.1,0.2-0.3,0.3-0.4C83.1,51.8,63.4,39.9,63.2,39.8z"/>
</g>
</svg>
