<?xml version="1.0" encoding="utf-8"?>
<!-- Generator: Adobe Illustrator 25.2.1, SVG Export Plug-In . SVG Version: 6.00 Build 0)  -->
<svg version="1.1" id="Capa_1" xmlns="http://www.w3.org/2000/svg" xmlns:xlink="http://www.w3.org/1999/xlink" x="0px" y="0px"
	 viewBox="0 0 526.9 538.8" style="enable-background:new 0 0 526.9 538.8;" xml:space="preserve">
<style type="text/css">
	.st0{fill:#FEB536;}
</style>
<path class="st0" d="M519.9,207.7c-1-3.8-4-6.1-8.3-6.2c-1.1-0.2-2.3-0.4-3.5-0.6l-0.8-0.2c-0.5-0.1-1-0.2-1.6-0.3
	c-0.8-0.1-1.6-0.3-2.4-0.4l-24.9-3.6c-13.6-2-23.3-3.5-32.5-5c-5.6-0.9-11.2-1.7-16.6-2.5l-1.1-0.2c-7.4-1-16.2-2.2-24.7-3.8
	c-6.1-1-12.9-2-21.4-3.1l-3.7-0.5c-6.4-0.8-13-1.8-19.2-2.8c-2.4-0.4-4.7-0.7-7.1-1.1c-2.3-0.3-4.6-0.7-6.8-1
	c-2.3-5.1-4.8-10.3-7.1-15.3c-1.3-2.7-2.5-5.3-3.8-8l-1.8-3.8c-2.6-5.5-5.3-11.1-7.9-16.6l-0.2-0.4c-2.7-5.6-5.4-11.3-8.1-17
	l-4.7-10c-4.7-10-9.6-20.2-14.4-30.4l-5.1-10.8c-0.7-1.6-1.5-3.3-2.2-4.8c-0.5-1-1-2.1-1.5-3.2c-0.7-1.5-1.5-3.1-2.2-4.6
	c-0.7-1.6-1.5-3.1-2.2-4.7c-0.8-1.6-1.5-3.2-2.3-4.9c-0.8-1.6-1.5-3.2-2.3-4.9c-2.4-5.1-5-10.4-7.4-15.6c-1.8-3.8-4.9-5.8-8.9-5.8
	l-0.1,0c-4,0.1-7.1,2.2-8.8,5.9c-1.7,3.7-3.4,7.3-5.1,10.9c-0.6,1.2-1.1,2.3-1.6,3.4c-0.5,1.1-1,2.2-1.6,3.4
	c-1.5,3.1-2.9,6.2-4.4,9.4c-1.5,3.1-2.9,6.2-4.4,9.3c-2.4,5.1-4.8,10.2-7.2,15.3c-2.4,5.1-4.8,10.1-7.2,15.2c-2.3,5-4.7,10-7.1,15
	c-2.4,5-4.8,10-7.1,15c-4,8.4-8,16.9-12,25.4c-0.8,1.6-1.5,3.2-2.2,4.7c-0.7,1.6-1.4,3.1-2.2,4.7c-0.7,1.4-1.3,2.7-1.9,4.1
	c-0.6,1.3-1.2,2.7-1.9,4c-0.6,1.2-1.1,2.3-1.7,3.5c-0.5,1.2-1.1,2.3-1.6,3.5c-0.8,1.6-1.5,3.2-2.2,4.7c-0.5,1.1-1,2.1-1.5,3.2
	c-2.6,0.2-5.3,0.6-8,1.2c-4,1-8.1,1.5-12.5,2.1l-8.2,1.1c-1.7,0.2-3.5,0.5-5.3,0.7c-1.8,0.3-3.6,0.5-5.3,0.7l-2.4,0.3
	c-4.4,0.6-9,1.2-13.4,2c-8.3,1.3-15.5,2.4-23.6,3.6l-1.9,0.3c-14,2-25.1,3.6-35.5,5.3c-5.1,0.9-10.6,1.7-16.2,2.4
	c-3.4,0.4-6.9,0.9-10.3,1.4c-4.2,0.6-8.4,1.3-12.6,1.9c-3.3,0.5-6.5,1-9.7,1.5l-1.4,0.2c-2.6,0.3-4.8,1.7-6.2,3.7
	c-0.9,1.4-1.9,3.7-1.2,7.1c0.4,1.8,1.4,3.5,2.8,5c0.3,0.4,0.7,0.7,1,1.1c0.3,0.3,0.5,0.5,0.8,0.8l0.1,0.1c1.1,1.2,2.4,2.5,3.4,3.5
	c1.1,1.2,2.3,2.3,3.4,3.4c0.6,0.5,1.1,1.1,1.7,1.7l6.1,6.1c1.8,1.9,3.6,3.7,5.5,5.6c1.8,1.8,3.6,3.7,5.4,5.5
	c6.7,6.9,13.6,13.9,20.5,20.8c4.6,4.6,9.3,9.4,13.3,13.5l1.3,1.4l10.1,10.1c1.2,1.2,2.5,2.5,3.7,3.8c1.3,1.3,2.5,2.6,3.8,3.8
	c1.5,1.5,3,3,4.4,4.5c1.5,1.5,3,3,4.4,4.5c5.5,5.6,11.8,12,17.9,18c1.5,1.5,3,3,4.4,4.5c2.4,2.5,5,5.2,7.9,7.8
	c0.1,0.1,0.2,0.3,0.4,0.5c0.1,0.1,0.2,0.2,0.3,0.3c-2.7,15.8-4.8,28.3-6.5,39.1c-1.2,7-2.4,13.9-3.4,20.3c-1.1,6.6-2.2,13.3-3.3,20
	c-0.7,4.6-1.5,9.2-2.3,13.7c-0.8,4.6-1.6,9.2-2.3,13.8l-3.5,21c-0.9,5.5-1.8,11-2.7,16.4c-0.9,5.5-1.9,11-2.8,16.5
	c-0.3,1.4-0.5,2.8-0.7,4.3c-0.2,1.4-0.4,2.8-0.7,4.2l-0.6,3.8l0,1.1c0,1.2,0,4.9,3.1,7.4c1.5,1.2,4.1,2.4,7.9,1.1
	c1-0.3,1.8-0.8,2.4-1.1c2.1-1.3,4.3-2.5,6.7-3.8c0.9-0.5,1.8-0.9,2.6-1.4c1.9-1,3.9-2.1,6-3.2c4.3-2.4,8.6-4.8,12.9-7.1
	c2.5-1.4,5.1-2.8,7.6-4.2c1.2-0.7,2.5-1.4,3.8-2.1c1.3-0.7,2.6-1.4,3.8-2.1l3.7-2c7.3-4,14.8-8.1,22-12.1l0.4-0.2
	c4.5-2.5,9.1-5,13.7-7.5c4.6-2.5,9.2-5,13.7-7.5l6.5-3.5c4.1-2.2,8.4-4.6,12.5-6.9c2.9-1.6,5.8-3.2,8.7-4.8
	c3.4-1.9,6.8-3.8,10.3-5.7c1.6-0.9,3.2-1.7,4.8-2.6c2.9-1.6,5.7-3.1,8.5-4.7c2.4,1.4,5.1,2.9,8,4.4c1.8,1,3.8,2,5.6,3
	c2,1.1,4,2.2,6.1,3.3c4,2.2,8,4.4,11.9,6.6l9.9,5.4c3,1.7,6,3.4,9,5c2.5,1.4,5.1,2.8,7.7,4.2c3.2,1.8,6.6,3.6,9.8,5.5
	c8.4,4.7,17.3,9.6,26.3,14.5l1.7,0.9c3.6,1.9,7.2,3.9,10.8,5.9c2.2,1.2,4.4,2.4,6.6,3.6l8.7,4.8c1.7,1,3.4,1.9,5.2,2.8
	c1.7,0.9,3.4,1.8,5.1,2.8l1.2,0.7c5.1,2.8,10.4,5.7,15.4,8.5c1.6,0.9,3.2,1.4,4.9,1.4c1.7,0,3.1-0.5,4.3-1.1l0.4-0.2
	c2.2-1.4,4.3-4.4,3.4-8.7l0-0.3c-0.3-1.7-0.6-3.5-0.9-5.3c-0.3-1.8-0.6-3.6-0.9-5.3c-0.3-2-0.7-4.1-1-6.1c-0.4-2.2-0.7-4.4-1.1-6.6
	c-0.5-3-1-6-1.5-8.9c-0.5-3-1-5.9-1.5-8.9c-0.6-3.7-1.3-7.5-1.9-11.2c-0.6-3.8-1.3-7.5-1.9-11.3c-0.7-4.4-1.5-8.9-2.2-13.3
	c-0.7-4.5-1.5-8.9-2.2-13.4c-0.6-3.5-1.2-7-1.7-10.4c-0.6-3.5-1.2-7-1.8-10.5l-2.2-13.2c-2.8-17.5-5.9-35.3-8.2-48.8l0,0
	c4.2-4.1,8.3-8.3,12.3-12.4l3-3.1c3.2-3.4,6.6-6.7,9.8-9.9c1.1-1.1,2.2-2.2,3.2-3.2c2.1-2,4.2-4.1,6.2-6.1l0.1-0.1
	c2.9-2.8,5.7-5.6,8.6-8.6c1.2-1.3,2.5-2.6,3.8-3.9c1.3-1.3,2.6-2.6,3.8-3.9c2.2-2.2,4.5-4.5,6.7-6.8c3.4-3.4,6.8-6.9,10.3-10.3
	c0.9-0.9,1.8-1.8,2.7-2.7c0.9-0.9,1.7-1.8,2.7-2.7c1.4-1.4,2.9-2.9,4.3-4.3c0.8-0.7,1.5-1.5,2.2-2.2c3.5-3.3,6.9-6.8,10.2-10.2
	l2.3-2.4c1.1-1.1,2.2-2.2,3.3-3.4c1.1-1.1,2.2-2.2,3.3-3.3l7.3-7.3c3.4-3.4,7-7,10.5-10.6c0.1-0.1,0.3-0.3,0.4-0.4
	c0.4-0.4,0.9-0.8,1.3-1.3c0.9-1,1.9-2,2.9-2.9l0,0C519.6,214,520.7,211,519.9,207.7z M273.5,57.5c0.7,1.6,1.5,3.1,2.2,4.6
	c0.6,1.3,1.2,2.6,1.9,4c0.6,1.3,1.2,2.6,1.8,3.9l5.1,10.9c3.2,6.7,6.4,13.5,9.5,20.2c3.2,6.7,6.4,13.5,9.6,20.2
	c2.7,5.6,5.4,11.3,8.1,17c2.7,5.6,5.4,11.3,8.1,17l1.8,3.8c1.1,2.3,2.1,4.5,3.2,6.8c2.6,5.4,5.2,11,7.7,16.5c2,4.4,5.4,7,10.3,7.7
	c3.4,0.4,6.9,1,10.2,1.5c1.3,0.2,2.5,0.4,3.8,0.6c7,1.1,13.6,2.1,19.5,2.9l3.8,0.5c5.3,0.7,13.1,1.7,20.8,3.1
	c8.6,1.5,17.2,2.7,25.2,3.8c5.9,0.8,11.9,1.7,17.4,2.6c10.8,1.8,22.1,3.5,32.8,5l10.5,1.5c4.2,0.6,8.4,1.2,12.7,1.9
	c-2.6,2.6-5.2,5.3-7.8,7.8l-7.4,7.4c-1.1,1.1-2.2,2.3-3.3,3.4c-1.1,1.1-2.2,2.3-3.3,3.4c-3.9,4-8,8.2-12.1,12.2
	c-2.3,2.2-4.6,4.5-6.8,6.7l-0.1,0.1c-1.7,1.8-3.3,3.5-5.1,5.2c-4.4,4.3-8.8,8.8-13,13.1c-1.4,1.4-2.7,2.8-4.1,4.2
	c-1.2,1.3-2.5,2.6-3.8,3.9c-1.3,1.3-2.6,2.6-3.8,3.9c-2.8,2.9-5.6,5.7-8.4,8.5c-1.3,1.4-2.6,2.7-4,4c-0.7,0.7-1.4,1.4-2.1,2.1
	c-2.1,2.2-4.3,4.4-6.5,6.6c-2.2,2.2-4.5,4.5-6.7,6.7l-3,3.1c-4.7,4.9-8.5,8.7-12,12.1c-3.7,3.4-5,7.5-4.1,12.4
	c3.2,18.7,5.9,34.6,8.2,48.7l2.2,13.2c0.6,3.5,1.2,7,1.7,10.4c0.6,3.5,1.2,7,1.7,10.4c1.4,8.9,2.9,17.9,4.4,26.7
	c0.6,3.7,1.3,7.5,1.9,11.2c0.6,3.8,1.3,7.5,1.9,11.3c0.5,3,1,6,1.5,8.9c0.5,3,1,5.9,1.5,8.9c0.3,2,0.7,4.1,1,6.1
	c0.3,2.1,0.7,4.1,1,6.1c-2.3-1.3-4.6-2.5-7-3.8c-1.7-1-3.4-1.9-5.1-2.8c-1.7-0.9-3.4-1.8-5.1-2.8l-8.7-4.8
	c-3.8-2.1-7.7-4.3-11.6-6.4c-1.9-1.1-3.9-2.1-5.8-3.2l-7.7-4.2c-6.6-3.6-13.4-7.3-20.1-11.1c-3.8-2.2-7.8-4.3-11.6-6.4
	c-2-1.1-4-2.2-6.1-3.3c-2.9-1.6-6-3.2-9-4.9l-9.9-5.4c-6.1-3.3-12.4-6.8-17.8-9.9c-1.5-0.9-3-1.6-4.4-2.4l-3.1-1.6
	c-2.7-1.4-5.3-2.8-7.6-4.3c-1-0.7-2.7-1.6-5-1.6c-1.5,0-3,0.3-4.4,1l-0.2,0.1c-1,0.5-1.9,1.1-2.8,1.6c-2.7,1.5-5.2,2.9-7.8,4.3
	c-5,2.7-10.2,5.6-15.2,8.4c-4.4,2.5-8.9,4.9-13.4,7.4c-2.6,1.4-5.2,2.8-7.7,4.2l-6.5,3.5c-6.7,3.8-13.5,7.5-20.2,11.1
	c-2.4,1.3-4.8,2.6-7.2,4c-7.4,4.1-15,8.3-22.4,12.3l-3.7,2c-1.3,0.7-2.5,1.4-3.8,2.1c-1.3,0.7-2.5,1.4-3.7,2.1
	c-6.7,3.6-13.8,7.6-20.6,11.3c-1.9,1.1-3.8,2.1-5.6,3c-0.1,0.1-0.3,0.1-0.4,0.2c0.1-0.3,0.1-0.7,0.2-1c0.9-5.5,1.8-11,2.8-16.5
	c0.9-5.5,1.8-11,2.7-16.5l3.5-21c0.7-4.1,1.4-8.3,2.1-12.4c0.8-5,1.7-10.1,2.5-15.1c1.1-6.6,2.2-13.3,3.3-20
	c1.2-7,2.4-13.9,3.4-20.3c1.9-11.6,4.1-24.7,6.7-40l0-0.2c0.2-1.6,0.9-6.4-3.1-10.1c-0.2-0.2-0.4-0.4-0.6-0.6
	c-0.1-0.1-0.2-0.2-0.3-0.3c-0.3-0.4-0.7-0.9-1.3-1.3c-2.5-2.2-4.8-4.6-7.3-7.2c-1.5-1.6-3.1-3.3-4.7-4.8c-6.1-6-12.3-12.3-17.7-17.8
	l-0.2-0.3c-3-3.1-5.8-5.9-8.7-8.9l-7.6-7.6c-3.2-3.3-6.6-6.7-9.9-10l-1.3-1.4c-4.4-4.5-9-9.1-13.5-13.6
	c-5.2-5.1-10.5-10.5-15.5-15.6c-1.7-1.7-3.3-3.4-4.9-5c-1.8-1.9-3.6-3.7-5.5-5.6c-1.8-1.8-3.6-3.7-5.5-5.6c-0.7-0.7-1.4-1.4-2.1-2.1
	c-1.4-1.4-2.8-2.8-4.1-4.1l-4.1-4.1l14-2.1c1.7-0.2,3.4-0.5,5-0.7c1.7-0.2,3.4-0.5,5-0.7c5.9-0.8,11.5-1.6,16.6-2.4
	c11.6-1.9,23.3-3.7,37.1-5.6c7.2-1.1,14.4-2.1,23.7-3.7c5.9-0.9,11-1.7,15.4-2.3c1.8-0.3,3.6-0.5,5.4-0.8c1.8-0.3,3.5-0.5,5.4-0.8
	c2-0.3,4.2-0.6,6.3-0.9l0.2,0c0.9-0.1,1.8-0.3,2.7-0.4c4.2-0.6,8.4-1.2,12.6-2.2c2.7-0.6,5.6-0.9,7.7-1c4.1-0.3,7.4-2.6,9.1-6.5
	c1.4-3.1,2.9-6.2,4.4-9.3c1.1-2.3,2.2-4.6,3.3-7c0.7-1.4,1.3-2.7,1.9-4.1c0.6-1.3,1.2-2.7,1.9-4c0.5-1.1,1-2.2,1.5-3.3
	c0.9-2,1.9-4,2.8-6.1c4-8.4,8-16.9,12-25.4c2.3-5,4.7-10,7.1-15c2.4-5,4.8-10,7.1-15c2.4-5.1,4.8-10.1,7.2-15.2
	c2.4-5.1,4.8-10.2,7.2-15.3c1.5-3.1,2.9-6.2,4.4-9.4c1.5-3.1,2.9-6.2,4.4-9.3c0.6-1.2,1.1-2.3,1.6-3.4c0.5-1.1,1-2.2,1.6-3.4l0-0.1
	c0.4-1,0.9-2,1.4-3c1.2,2.6,2.4,5.2,3.6,7.7l0.1,0.1c0.8,1.6,1.5,3.2,2.3,4.9c0.8,1.6,1.5,3.2,2.3,4.9C272,54.4,272.8,56,273.5,57.5
	z"/>
</svg>
