<?xml version="1.0" encoding="utf-8"?>
<!-- Generator: Adobe Illustrator 25.2.1, SVG Export Plug-In . SVG Version: 6.00 Build 0)  -->
<svg version="1.1" id="Capa_1" xmlns="http://www.w3.org/2000/svg" xmlns:xlink="http://www.w3.org/1999/xlink" x="0px" y="0px"
	 viewBox="0 0 526.9 538.8" style="enable-background:new 0 0 526.9 538.8;" xml:space="preserve">
<style type="text/css">
	.st0{fill:#FEB536;}
</style>
<g>
	<path class="st0" d="M108.7,516.8c0.6-4,1.3-8.1,2-12.2c2.3-13.5,4.5-27.1,6.8-40.6c2.3-13.6,4.6-27.3,6.9-40.9
		c2.2-13.4,4.4-26.9,6.7-40.3c2.2-13.3,4.5-26.7,6.7-40c0.3-1.6,0.3-2.8-1-4c-0.7-0.6-1.2-1.5-2-2.1c-4.3-3.8-8.1-8.1-12.2-12.2
		c-9-8.9-17.8-18-26.7-27c-5.8-5.9-11.7-11.7-17.5-17.6c-4.9-5-9.8-10-14.8-15c-10.5-10.5-20.9-21.2-31.4-31.8
		c-3.7-3.7-7.5-7.4-11.2-11.1c-1.8-1.8-3.5-3.7-5.3-5.5c-0.5-0.5-0.9-1-1.1-1.7c-0.3-1.3,0.1-2,1.5-2.2c7.9-1.2,15.8-2.5,23.7-3.6
		c8.9-1.3,17.8-2.4,26.6-3.8c12.4-2,24.8-3.8,37.2-5.6c7.9-1.1,15.8-2.4,23.6-3.6c8.7-1.4,17.5-2.5,26.3-3.9
		c7.1-1.1,14.3-1.7,21.3-3.3c2.8-0.7,5.8-1,8.7-1.2c1.7-0.1,2.6-1,3.3-2.4c2.6-5.5,5.2-10.9,7.7-16.4c2.7-5.8,5.4-11.7,8.2-17.5
		c8.7-18.5,17.5-37,26.2-55.5c7.7-16.4,15.4-32.8,23.2-49.2c2.8-5.9,5.6-11.8,8.4-17.7c0.5-1.1,1.1-1.9,2.6-1.9
		c1.4,0,2.1,0.6,2.6,1.8c4,8.5,8,16.9,12,25.4c2.7,5.7,5.4,11.5,8.1,17.2c8.1,17.1,16.1,34.2,24.2,51.3
		c5.4,11.4,10.8,22.7,16.2,34.1c4.3,9.1,8.6,18.1,12.7,27.3c1.1,2.3,2.5,3.3,5,3.7c11.2,1.6,22.3,3.5,33.5,5
		c8.3,1.1,16.6,2.1,24.9,3.6c14.1,2.5,28.3,4.1,42.4,6.4c10.9,1.7,21.7,3.4,32.6,5c8.3,1.2,16.6,2.4,24.9,3.6
		c2.9,0.4,5.7,1.1,8.6,1.5c0.7,0.1,1.9-0.2,2.2,1c0.2,0.9-0.7,1.3-1.2,1.9c-1.6,1.6-3.1,3.2-4.7,4.8c-5.9,6-11.8,11.9-17.7,17.8
		c-6.3,6.4-12.4,12.9-18.9,19.1c-4.1,3.9-7.9,8-12,12c-8.3,8.2-16.4,16.6-24.6,25c-2.8,2.8-5.6,5.7-8.4,8.5
		c-6.5,6.5-13,12.9-19.4,19.4c-5,5.2-10,10.4-15.2,15.4c-1.8,1.7-2.5,3.4-2,6.1c3.6,20.6,7,41.3,10.4,61.9
		c2.6,15.8,5.2,31.7,7.9,47.5c2.2,13.4,4.5,26.9,6.8,40.3c1.3,7.8,2.6,15.6,3.9,23.3c0.1,0.7,0.5,1.4-0.2,1.9
		c-0.7,0.5-1.5,0.2-2.2-0.2c-8.9-5-17.9-9.8-26.9-14.8c-8.7-4.8-17.4-9.6-26.1-14.4c-9.3-5.1-18.7-10.1-27.9-15.3
		c-8.8-5-17.7-9.8-26.6-14.7c-9.3-5.1-18.6-10.1-27.9-15.3c-5.2-2.9-10.6-5.4-15.6-8.6c-0.8-0.5-1.6-0.5-2.5,0
		c-8.6,4.8-17.3,9.4-25.8,14.2c-9.2,5.1-18.4,10.1-27.6,15.2c-9.1,5-18.3,10-27.4,15c-8.7,4.8-17.4,9.6-26.1,14.3
		c-9.4,5.2-18.8,10.3-28.1,15.5c-5.2,2.9-10.6,5.4-15.6,8.6c-0.2,0.2-0.5,0.3-0.8,0.4C109,519,108.6,518.6,108.7,516.8z"/>
</g>
</svg>
