<?xml version="1.0" encoding="utf-8"?>
<!-- Generator: Adobe Illustrator 25.2.1, SVG Export Plug-In . SVG Version: 6.00 Build 0)  -->
<svg version="1.1" id="Capa_2" xmlns="http://www.w3.org/2000/svg" xmlns:xlink="http://www.w3.org/1999/xlink" x="0px" y="0px"
	 viewBox="0 0 348.9 497" style="enable-background:new 0 0 348.9 497;" xml:space="preserve">
<style type="text/css">
	.st0{fill:#FFFFFF;}
</style>
<path class="st0" d="M330.6,22.4c-0.4-0.5-6.9-6.8-16.2-10.4c-20-7.8-40.5,2-41.6,2.5c-1.9,0.9-6.4,4-15.5,10.1
	c0,0-8.8,5.9-16.8,11.7c-11.7,8.3-101.2,81.4-223.1,183c0,0-24.5,26.9,0,53s254.8,208.9,254.8,208.9s33,19.8,58-6.3
	c25.1-26.1,1.7-60.1,1.7-60.1L125,246.2L331.1,79.7c0,0,22.9-24.1,3.6-52.6C333.3,25.5,332,24,330.6,22.4z"/>
</svg>
