<?xml version="1.0" encoding="utf-8"?>
<!-- Generator: Adobe Illustrator 25.2.1, SVG Export Plug-In . SVG Version: 6.00 Build 0)  -->
<svg version="1.1" id="Capa_1" xmlns="http://www.w3.org/2000/svg" xmlns:xlink="http://www.w3.org/1999/xlink" x="0px" y="0px"
	 viewBox="0 0 227.9 197" style="enable-background:new 0 0 227.9 197;" xml:space="preserve">
<style type="text/css">
	.st0{fill:#636363;}
</style>
<g>
	<path class="st0" d="M204.1,73.7c0-12.8-8.9-21.6-21.7-21.8c-5.7-0.1-11.3,0-17,0c-12,0-12,0-15.1-11.5
		c-2.8-10.5-10.5-16.5-21.4-16.6c-8-0.1-16,0.3-24-0.1C86.8,22.7,76.8,26.4,73.1,48c-0.5,3-2.1,4-5.1,3.9
		c-7.8-0.2-15.7-0.1-23.5-0.1c-14.7,0.1-23.2,8.6-23.2,23.3c0,26.5,0,53,0,79.5c0,15,8.6,23.7,23.5,23.7c22.5,0,45,0,67.5,0
		c23.2,0,46.3,0,69.5,0c13.4,0,22.4-8.9,22.4-22.1C204.2,128.7,204.2,101.2,204.1,73.7z M180.3,164.4c-22.7,0-45.3,0-68,0
		c-22.3,0-44.7,0-67,0c-7.8,0-10.1-2.3-10.2-10.1c0-26.3,0-52.7,0-79c0-7.2,2.5-9.7,9.5-9.7c10.5,0,21-0.2,31.5,0.1
		c5.1,0.1,7.7-2.2,8.7-7c1-4.9,2.2-9.7,3.3-14.6c1-4.4,3.7-6.5,8.1-6.5c10.7,0,21.3,0,32,0c4.7,0,7.5,2.3,8.6,6.8
		c1.2,4.8,2.4,9.7,3.5,14.5c1.1,4.7,3.7,7,8.8,6.9c10.5-0.2,21-0.1,31.5-0.1c6.8,0,9.4,2.6,9.4,9.4c0,26.7,0,53.3,0,80
		C190.1,162,187.6,164.4,180.3,164.4z"/>
	<path class="st0" d="M113.6,80.1c-19.7-0.4-35.5,14.6-36,34.2c-0.4,19.5,15,35.4,34.6,35.8c19.2,0.3,35-14.9,35.5-34.3
		C148.1,96.4,133,80.5,113.6,80.1z M112.4,136.3c-11.3-0.2-20.9-9.9-21-21.2c-0.1-11.3,10-21.5,21.3-21.4
		c11.4,0.1,21.4,10.1,21.3,21.4C133.8,126.6,123.7,136.5,112.4,136.3z"/>
	<path class="st0" d="M168.6,80.1c-2.5-0.1-5-0.2-7.5,0.1c-3.8,0.4-6,2.7-6,6.7c0,3.9,2,6.2,5.9,6.8c1.5,0.2,3,0,4.5,0
		c0,0,0,0,0,0.1c1,0,2,0,3,0c4.4,0.1,6.9-2.3,7.3-6.5C176.2,83.3,173.1,80.3,168.6,80.1z"/>
</g>
</svg>
