<?xml version="1.0" encoding="UTF-8" standalone="no"?>
<!-- Generator: Adobe Illustrator 25.2.1, SVG Export Plug-In . SVG Version: 6.00 Build 0)  -->

<svg
   xmlns:dc="http://purl.org/dc/elements/1.1/"
   xmlns:cc="http://creativecommons.org/ns#"
   xmlns:rdf="http://www.w3.org/1999/02/22-rdf-syntax-ns#"
   xmlns:svg="http://www.w3.org/2000/svg"
   xmlns="http://www.w3.org/2000/svg"
   xmlns:sodipodi="http://sodipodi.sourceforge.net/DTD/sodipodi-0.dtd"
   xmlns:inkscape="http://www.inkscape.org/namespaces/inkscape"
   version="1.1"
   id="Capa_1"
   x="0px"
   y="0px"
   viewBox="0 0 264 265"
   style="enable-background:new 0 0 264 265;"
   xml:space="preserve"
   sodipodi:docname="usuario general .svg"
   inkscape:version="0.92.5 (2060ec1f9f, 2020-04-08)"><metadata
   id="metadata15"><rdf:RDF><cc:Work
       rdf:about=""><dc:format>image/svg+xml</dc:format><dc:type
         rdf:resource="http://purl.org/dc/dcmitype/StillImage" /></cc:Work></rdf:RDF></metadata><defs
   id="defs13" /><sodipodi:namedview
   pagecolor="#ffffff"
   bordercolor="#666666"
   borderopacity="1"
   objecttolerance="10"
   gridtolerance="10"
   guidetolerance="10"
   inkscape:pageopacity="0"
   inkscape:pageshadow="2"
   inkscape:window-width="1360"
   inkscape:window-height="705"
   id="namedview11"
   showgrid="false"
   inkscape:zoom="0.89056604"
   inkscape:cx="132"
   inkscape:cy="132.5"
   inkscape:window-x="0"
   inkscape:window-y="0"
   inkscape:window-maximized="1"
   inkscape:current-layer="Capa_1" />
<style
   type="text/css"
   id="style2">
	.st0{fill:#FCFCFC;}
	.st1{fill:#FF0000;}
</style>

<circle
   class="st1"
   cx="132.5"
   cy="77.8"
   r="49.2"
   id="circle6" />
<path
   class="st1"
   d="M237.9,204.7c0,0-18.9-49.7-76-58.4c0,0,0,0,0,0s-0.4-0.1-1.1-0.3c-0.4,0-0.7,0-1.1,0c-0.7,0-1.4-0.2-2.1-0.4  c0,0,0,0-0.1,0c-0.6,0-1.1-0.1-1.7-0.2c-1.1-0.2-2.3-0.4-3.4-0.6c-2.2-0.2-4.4-0.7-6.6-1c-0.1,0-0.3,0-0.4,0c-0.2,0-0.4,0-0.5,0  c0.3-0.1-0.2-0.2-1.7-0.1c-1.2-0.1-2.5-0.2-3.7-0.2c-2.9-0.1-5.7-0.6-8.6-0.6c-0.2,0-0.5-0.1-0.6-0.1c-8.8,0.1-19.1,1.1-30.7,3.7  c0,0,0,0-0.1,0c-57.1,8.7-76,58.4-76,58.4c0-0.1-0.1-0.1-0.1-0.1c0,0,2.8,4.8,5.5,8.5c2.4,3.3,4.9,5.8,9.8,10.7  c4.2,4.2,6.3,6.3,8.9,8.6c7.2,6.3,13.6,10.2,16.6,12c20.6,12.5,40.7,16.1,46.1,16.9c6.9,1.1,12.9,1.5,17.6,1.5c0.9,0.1,2,0.1,3.3,0  c4.8,0,11.7-0.3,19.8-1.6c5.4-0.9,25.4-4.4,46.1-16.9c3-1.8,9.4-5.7,16.6-12c2.6-2.3,4.7-4.4,8.9-8.6c4.9-4.9,7.5-7.4,9.8-10.7  c2.8-3.8,5.6-8.5,5.5-8.5C238,204.6,238,204.6,237.9,204.7z"
   id="path8" />
</svg>