<?xml version="1.0" encoding="utf-8"?>
<!-- Generator: Adobe Illustrator 25.2.1, SVG Export Plug-In . SVG Version: 6.00 Build 0)  -->
<svg version="1.1" id="Capa_1" xmlns="http://www.w3.org/2000/svg" xmlns:xlink="http://www.w3.org/1999/xlink" x="0px" y="0px"
	 viewBox="0 0 42.6 53.3" style="enable-background:new 0 0 42.6 53.3;" xml:space="preserve">
<style type="text/css">
	.st0{fill:#606060;}
</style>
<g id="Capa_2_1_">
	<path class="st0" d="M41,0.9H28.2c-1.1,0-2,0.9-2,2s0.9,2,2,2h6l-6.4,6.3c-2.4-1.8-5.5-2.8-8.7-2.8C11,8.4,4.4,14.9,4.4,22.8
		C4.4,30,9.9,36,17.1,37v5.3h-5.2c-1.1,0-2,0.9-2,2s0.9,2,2,2h5.2v4.4c0,1.1,0.9,2,2,2s2-0.9,2-2v-4.4h5.3c1.1,0,2-0.9,2-2
		s-0.9-2-2-2h-5.3V37c7.2-1,12.7-6.9,12.7-14.2c0-3.3-1.2-6.3-3.1-8.7l6.6-6.5l0.3,6.3c0,1.1,0.9,1.9,2,1.9h0.1c1.1-0.1,2-1,1.9-2.1
		L41,0.9z M19.1,33.1c-5.9,0-10.7-4.6-10.7-10.3s4.8-10.3,10.7-10.3s10.7,4.6,10.7,10.3S25,33.1,19.1,33.1z"/>
</g>
</svg>
