<svg id="Capa_2" data-name="Capa 2" xmlns="http://www.w3.org/2000/svg" viewBox="0 0 996 622"><path d="M501.14,624.39q-246.75,0-493.4.1c-3.7,0-4.6-.8-4.6-4.6q.15-306.45,0-612.8c0-3.8.9-4.6,4.6-4.6q493.35.15,986.8,0c3.7,0,4.6.8,4.6,4.6q-.15,306.45,0,612.8c0,3.7-.8,4.6-4.6,4.6Q747.94,624.34,501.14,624.39Zm-456.9-157c.1.1.1.3.2.4s.2,0,.3,0c-.1-.1-.3-.2-.5-.4-.1-.4,0-.9-.7-.4A2.51,2.51,0,0,0,44.24,467.39Zm5,4,1,1c-2.8,2.2-6.7.8-9.6,2.9-2.3,1.7-4.2,3.9-3.1,6.6,1.2,3,3.9,1.3,6,.6-1.8,18.7,7,34.4,13.7,50.8a37.27,37.27,0,0,0-3,2.6c-1.9,2.3-3.3,5.5-.9,7.5,3.1,2.6,4.1-1.4,5.7-3.2,2.1.1,2.4,2,3.1,3.4,2.9,5.6,5.7,11.2,8.7,16.8.5,1,.9,1.7.2,2.7-4.6.8-9.5-1.2-14,1.2-1.1,7.4-1,7.5,4.8,7.5h896.6c7.6,0,7.6,0,6.6-7.7-.5-2.4-2.6-2-4-1.7-5.5.9-6.1-1.8-6.1-6.5.2-36.8,0-73.6.2-110.4,0-4.6-1-6.4-6-6.2-10.1.4-20.3-.1-30.5.2-4.7.2-5.8-1.4-5.8-5.9.2-26.8,0-53.6.2-80.4,0-3.7-1-4.9-4.8-4.8-9.8.2-19.7.1-29.5.1-6.1,0-6.7.6-6.8,6.9-.1,8.7,0,17.3,0,26,0,8,.6,7.1-6.8,7.1a10.49,10.49,0,0,0-5.3,1c-.7-7-2.2-13.6-7.2-19,1.9-1.8.4-3.4-.5-4.9a136.38,136.38,0,0,0-14.3-21c.3-.8.9-1.5.9-2.3.1-14.9.1-29.8.1-44.8,0-1.7-.8-2.9-2.7-2.9-4.9-.1-9.8-.1-14.8-.2-1.7,0-3.4,0-3.6,2.3-3.4-1.2-6.6-4.2-10.5-1.2-4.7-.9-9.5-.2-14.3,0-3.1.1-6.5-2.7-9-.2s.2,6.1-.4,9c-1.9,10,.2,20-.5,30.1-.8,12.3,2.1,24.7-.1,37.1-.5,2.7,1.1,6.4-.3,8.1s-5.1,1.3-7.8,1.8c-3.4-1.8-6.1-4.5-8.9-7.1a25.72,25.72,0,0,0,1-7.8c-.1-8.6,0-17.2,0-25.8,4.2-.4,6-2.7,5.9-6.9-.1-11.8,0-23.6-.1-35.4,0-5.5-2.3-7.7-8-7.8s-11.3-.1-17-.1v-25c0-7.9.5-7.2-6.9-7-4,.1-5.3-1.5-5.1-5.3.2-5.3,0-10.7.1-16,.1-2.8-.9-3.8-3.7-3.8q-18.75.15-37.5,0c-3.2,0-4,1.3-3.9,4.2.2,4.7,0,9.3,0,14,0,7.5.5,7.1-6.6,6.8-3.5-.1-4.6,1.1-4.5,4.6.2,9.2.1,18.3.1,27.5-4.1.1-8.4-.3-10.9,4.1-9.8-.2-8-.4-8.1,7.8-.1,11.7-.1,23.3,0,35,.1,3.9-1.3,5.3-5.2,5.3s-4.8-1.5-4.9-5.1c-.3-17.1-.3-34.2-.6-51.3-.5-25.9-1.5-51.9-1.2-77.8,0-4.2-1.6-4.9-5.3-4.9-16,.2-32,.3-48-.1-5-.1-6,1.5-6,6.2.2,20.8,0,41.6.2,62.5,0,4.1-1.3,5.8-5.5,5.5a47.75,47.75,0,0,0-10,0c-4.8.6-5.7-1.5-5.7-5.9.2-34.6.1-69.3.1-103.9,0-3.6-.4-5.9-4.8-5.3-2.8.4-3.3-1.3-3.3-3.7.1-5.5-.1-11,.1-16.5.1-2.7-.9-3.8-3.7-3.8-18.2.1-36.3.1-54.5,0-3.2,0-4,1.2-3.9,4.2.2,5.3,0,10.7.1,16,.1,2.6-.6,4.2-3.6,3.9-2.6-.3-3.6.9-3.5,3.5.2,9.7.2,19.3.3,29a18.48,18.48,0,0,1-1.4,1.4c-16.6,14.5-20.1,31.6-10.3,51.1,3.9,7.8,7.7,15.7,11.5,23.6,0,14-.2,28-.1,41.9,0,4.2-1.4,5.9-5.5,5.4h-1c-7.5,0-7.5,0-7.5-7.3,0-12-.2-24,.1-35.9.1-4.5-1.1-6.5-5.8-5.8-4.2.6-5.6-1.4-5.4-5.5.3-3.8.1-7.7.1-11.5,0-7,0-7-6.9-7-2.7,0-5.8.7-7.8-.5-3-1.7.6-4.8-.2-7.3a10.05,10.05,0,0,1,0-3v-46.4c0-11.8,0-11.8-11.9-11.8-.1-29.2-.1-58.4-.2-87.7,0-2.1.5-4.3-.7-6.3-2.5-15.1-14.2-24.9-30.2-24.9H194.74c-20.3,0-32.1,12-32.1,32.4V210q0,78-.1,155.9c-4.8-5.1-9.5-10.2-16.8-11.8-4.6-1-6.6.2-7.3,4.9-.9,6.4.4,12.6,1.6,18.8,1.6,8.5,4.2,16.8,4.6,25.5.1,1.8.6,4-1.4,4.9s-3.5-.8-4.8-2c-2.7-2.5-5.4-5-7.8-7.7-12.6-14.2-23.5-29.7-35.5-44.4-3.2-3.9-6.6-7.5-11.1-9.9-5.7-3-9.8-1.1-11,5.2a24.79,24.79,0,0,0,.2,9.4,68.76,68.76,0,0,0,8.6,22.7c6.6,11,15,20.8,23.1,30.6,3.4,4.1,6.6,8.3,9.7,12.6.9,1.3,2.1,2.8.9,4.5s-3.1.7-4.5.2c-2.5-.9-4.9-2-7.4-3-.8-4.9-4.6-4-7.9-4.1-3-1.7-6-3.3-9-5-.9-2.3,1.4-3.5,2-5.2.7-2,2.1-4.3-.1-5.8-2.4-1.7-4.5.1-6.4,1.9-1.5,1.4-1.1,4.3-3.7,4.9-2.3-1-4.5-2-6.8-3a10.6,10.6,0,0,1-1.1-2.1c-.7-3.5-1.8-4.8-4.4-1.2-.3.4-1.1.5-1.7.8-3.8-1.1-7.8-2-10.2,2.1-2.4,3.9-.1,7.3,2.3,10.4a38,38,0,0,0,3.3,3.7c6.2,5.8,13.3,10.4,20.4,14.8a26.5,26.5,0,0,0-2.6,2.1c-2.2,1.9-4.6,4.4-2.6,7.1,1.9,2.5,4.9.7,7.1-.8,2-1.4,3.8-3.2,6.4-3.5l7.8,4.5c.6.6,1.3,1.1,1.9,1.7h0c.5,1.6,1,3.1,1.8,5.7-5.7-3.3-10.7-.7-15.7-.5-2.4-.5-4.9-.2-7.4-.6s-6.7-.7-8.2,3,.9,6.2,3.7,8.3c.1.1.3.2.4.3a55.56,55.56,0,0,0,18.5,6.7v4.1c-1.3-.2-2.6-.5-3.9-.7-5.7-1-7.5.6-7,6.5a3.94,3.94,0,0,1-1.9,2.3c-7.8-2.4-16-3.8-23.1-8.2-1.8-1.7-3.3-3.7-6-4,.7-.8.3-1.1-.3-1.2-.1-1.2-.9-1.7-2-1.9-.1-.1-.1-.3-.2-.4s-.2,0-.3,0c.2.1.4.3.6.4C47.24,470.69,48,471.29,49.24,471.39Zm627.6-348.7a2.23,2.23,0,0,0-1.3-2.8,2.05,2.05,0,0,0-2.7.7c-1.3,1.9-2.7,3.8-3.8,5.8-1,1.7-1.9,2.1-4,1.5-4.6-1.4-4.2-3.5-1.7-6.6,1.3-1.7,3.7-4.1.9-5.9s-3.4,1.6-4.5,3.1c-2,2.9-3.4,6.8-8.2,4.1a1.62,1.62,0,0,0-2.4.9c-.3,1.1.3,1.8,1.3,2.4s3.2.3,2.7,2.8A5.48,5.48,0,0,1,646,133c-1.1-.3-2.3-.8-3,.6a1.87,1.87,0,0,0,1.2,2.8c3.6,1,2.9,2.7,1.2,5a25,25,0,0,0-2.3,3.9c-.6,1.2-1,2.6.7,3.4,1.5.7,2.5.1,3.3-1.2.9-1.6,2.1-3,2.9-4.7,1.9-4,4.5-2.3,7-1,3.5,1.8-.1,3.1-.4,4.7-.5,2.3-4.9,4.4-1.7,6.6,3.8,2.5,4.3-2.4,5.6-4.3,2-2.7,3.3-5.4,7.2-2.7a1.83,1.83,0,0,0,2.9-.9c.5-1.4-.4-2.2-1.7-2.5-3.7-.9-2.6-2.9-1.4-5.2,1.4-2.5,3-3.9,5.9-2.2,1,.6,2.3.8,3.1-.4a1.35,1.35,0,0,0-.6-2.1c-5.4-2.2-2.1-5-.6-7.7C675.94,124,676.54,123.19,676.84,122.69ZM810.94,161c-2.6.1-4.3.7-2.3,3.2,3.5,4.2,4,8.4,1,13.1-1.3,2.1-.2,4.1,2.3,2.9,5.6-2.6,9.3-.4,13,3.5,2,2.1,3.1.6,3-1.5-.3-5.5,1.9-9.1,6.9-11.2,2.2-.9,3-2.8.1-3.5-5.6-1.4-8.3-4.6-8.7-10.4-.2-2.7-2-2.8-3.5-.6C819.74,160.79,816.14,163.49,810.94,161Zm-327.2-48a2.13,2.13,0,0,0-1.3-2.2c-3.4-1.1-5.2-3-5.7-7-.5-3.6-4.2-1.4-4.7-.1-1.2,3.3-3.5,3.1-6,2.9-2.9-.2-4.4.5-2.5,3.5,1.6,2.6,2.2,4.8.2,7.7-1.4,2.1-.5,3.8,2.6,3s5.9-.3,8.1,2.3c1.5,1.8,3.4,1.5,3.4-.8-.1-3.9,1.9-6.1,4.8-8A10.9,10.9,0,0,0,483.74,113Zm420.9,125.1c-.1-.2-.2-1.2-.6-1.3a106,106,0,0,0-11.1-2.8c-2.7-.4-3.5,2.4-4.4,4.1-2.2,4-4.6,4.4-8.7,2.5-7.2-3.4-7.3-3.1-11.2,4-.1.1-.2.3-.3.4-1.2,1.8-2.2,3.5.4,5s3.4-.6,4-2.2c1.3-3.5,3.2-3.5,6.1-1.9a53.19,53.19,0,0,0,5,2.1c2.1,1,3.8,1,5-1.4,2.6-5.3,6.1-8.5,12.5-5.5C903.44,242.09,904.14,240.29,904.64,238.09ZM544.14,83.19c-.7,1.4-1.3,2.7-2,4.1-3.9,8.1-3.8,8.1,4.2,12.5.1.1.3.2.4.3,1.9,1.7,2.8.2,3.9-1.1,1.7-2.1-.3-2.8-1.4-3.2-4.4-1.6-4.1-4.3-2-7.6,1-1.5,1.4-3.4,2.4-4.9,1.1-1.7.6-2.7-.9-3.7-5.2-3.3-9.2-7-5.2-13.8a1.39,1.39,0,0,0-1.1-2.2c-1.1-.2-2.7-1.2-3.2,0a59.53,59.53,0,0,0-3.3,10.9c-.5,2.4,2.3,2.9,3.6,4.3C541,80.29,543.34,81.09,544.14,83.19Zm166.4,114a6.33,6.33,0,0,0,1.2,6.7c2.6,3.4,8.1,4.6,12.7,2.8,4.4-1.7,8.2-7.2,8.1-11.6a10.21,10.21,0,0,0-7.5-10c-4-1.2-6.7.7-8.7,3.9-2.2,3.5-.6,6.4,1.7,9a3.16,3.16,0,0,0,3.6.9A2,2,0,0,0,723,197c-.1-1.5-1-1.9-2.4-1.8-1.7,0-1.6-1.4-1.7-2.5-.1-2.2.4-4,3-4.4,3.4-.5,5.9.9,7.1,4.1,1.6,4.2-1.2,9.7-5.5,11.6-4.6,2-8.6.3-11-4.6C712.14,198.69,712.34,197.39,710.54,197.19ZM39.24,459.29h-.1a20.48,20.48,0,0,0,.1-3.5c-.1-1.3.1-2.9-1.8-2.9a2.34,2.34,0,0,0-2.4,2.6c1.4,4.8-.2,7.7-5,9.1-1,.3-1.6,2.1-.9,3.5a1.52,1.52,0,0,0,2.2.5c2.6-1.4,5.4-2.7,7.5-4.7C39.74,463.19,39.14,460.89,39.24,459.29Zm2.8,59.4c-1,.4-2,1.5-1.6,2.6,1.3,3.7.9,6.4-2.9,8.4a2.41,2.41,0,0,0-.3,3.6c1.4,1.4,2.5,0,3.3-.9,1.5-1.5,2.7-3.4,5-4,1-.3,1.4-.9.7-1.7-1.5-1.6-1.2-3.8-1.7-5.6C44.14,520,43.74,518.79,42,518.69Z" transform="translate(-3.14 -2.49)" fill="#fdfdfd"/><path d="M163.14,365.79q0-78,.1-155.9V90c0-20.4,11.8-32.4,32.1-32.4h213.9c16,0,27.7,9.8,30.2,24.9-.1,1.3-.2,2.7-.2,4v249.9c-4,.3-8.1.5-12.1.8q0-116.4-.1-232.9c0-2,.5-4-.6-5.9-1.2-1.2-2.8-.9-4.3-.9q-120.9,0-241.9.1c-.9,0-2.5-1.2-2.8.9,0,9.3,0,18.7.1,28v4.1c-.1,1-.2,2-.2,3q0,192.6-.1,385.1c0,4,1.1,5,5,5q52.2-.15,104.4-.1c4.1,0,8.3-.2,12.4-.3.3,0,.6.1,1,.1.7,2.5,1.6,4.9,1.2,7.5a2.32,2.32,0,0,1-1.8,1.5c-7.1,1.8-10.3,5.5-10.3,11.9,0,5.5,3.6,9.8,9.7,11.6,5.2,1.5,10.1-.9,13.5-6.5,6.6,4.8,13,9.9,21,12.4-2.7,1.4-5.5.8-8.3.8q-70.05.15-140.1.1c-11.9-2.6-21.6-14.2-21.8-26.3-.2-13.6-.2-27.3-.3-40.9C163,452.19,163,409,163.14,365.79Zm138.6-281.2h49.5c2,0,3.9.3,3.9-2.9s-2.1-2.8-4-2.8h-98.4c-1.9,0-4.1-.7-4.2,2.6-.1,3.5,2.2,3,4.3,3C269,84.59,285.44,84.59,301.74,84.59Z" transform="translate(-3.14 -2.49)" fill="#1f48dd"/><path d="M163.14,365.79q0,64.8-.1,129.6c-10.6-9-20.1-19.2-31.8-27-.2-6.3-4.9-5.8-9.1-6-4.5-4.4-11.3-4.9-15.9-9.1.4-3.1,2.8-4.3,5.1-5.5,1.8-.9,3.5-1.8,4.6-3.6,2.2-3.4,1-6.2-2.9-6.8-5.5-.9-10,2.5-10.8,8.3-.3,2.2-.4,4-3.2,3.8h0c.3-1.8-.1-3.3-1.9-4.1h0l-1-1h0a2,2,0,0,0-1-2h0c-.7-7.4,4.4-11.6,9-16,2.5,1,4.9,2.1,7.4,3,1.5.5,3.2,1.6,4.5-.2s0-3.3-.9-4.5c-3.1-4.3-6.3-8.5-9.7-12.6-8.1-9.9-16.5-19.6-23.1-30.6a66.63,66.63,0,0,1-8.6-22.7,24.79,24.79,0,0,1-.2-9.4c1.3-6.3,5.3-8.2,11-5.2,4.5,2.4,7.9,6,11.1,9.9,12,14.7,22.9,30.2,35.5,44.4,2.4,2.7,5.1,5.2,7.8,7.7,1.3,1.2,2.9,2.8,4.8,2s1.5-3.2,1.4-4.9c-.4-8.7-3.1-17-4.6-25.5-1.1-6.2-2.5-12.4-1.6-18.8.7-4.6,2.7-5.9,7.3-4.9C153.54,355.59,158.34,360.69,163.14,365.79Z" transform="translate(-3.14 -2.49)" fill="#3d8e7d"/><path d="M863.14,563.29q48,0,95.9.1c1.7,0,3.7-1,5.1.9.9,5.2-1.4,6.2-6.4,6.2q-445.35-.15-890.6,0c-4.9,0-9.4.3-10-6.1,4.5-2.4,9.4-.4,14-1.2h74.2l40,.3c1.8,1.4,3.9.8,5.8.8,28.5,0,57,.1,85.4,0,23.4-.1,46.7.9,70.1-1,5.2-.4,10.2,1.1,15.4,1,17.2-.1,34.3,0,51.5-.1,2,0,4,.5,5.8-.8a13.55,13.55,0,0,1,2-.2h309.4c21.2-.1,42.3-.1,63.5-.2h31.1c7.6,0,15.2,0,22.8-.1C853,563.19,858,563.29,863.14,563.29Z" transform="translate(-3.14 -2.49)" fill="#193658"/><path d="M129.14,563.19h-58c.7-1,.3-1.7-.2-2.7l-8.7-16.8c-.7-1.4-1-3.3-3.1-3.4,1.5-4.3,4.8-6.5,9.7-7.4-3.3-1.7-3.9-4.2-3.7-7.2.2-2.6.1-5.3.1-8,0-1.5.1-3.1-2.1-3.3a3.59,3.59,0,0,0-3.9,2.3,9.23,9.23,0,0,0,.7,9.5c2.9,4.1.8,5.7-2.6,7.2-6.7-16.4-15.5-32.2-13.7-50.8,3.5-2.1,6.5-5.6,11.3-4.4.9.2,1.2-.9,1.4-1.7,7.1,4.4,15.3,5.8,23.1,8.2a17,17,0,0,0-1.2,7c.1,1.5.5,3.4-1.9,3.7l-1-1c0-.1-.1-.3-.1-.4s-.2-.1-.3-.1c.1.2.3.3.4.5l1,1c1.2,1.9,2.5,3.8,5,4a.76.76,0,0,0,.2.4.37.37,0,0,0,.3.1c-.1-.2-.3-.3-.4-.5-.9-5.1,1.9-7.9,6-10,3.4,3.9,7.7,6.7,12.1,9.5-1.1-2.7-1.1-5.6-3.2-7.7-1.3-4.9-2.6-9.8-3.9-14.6v-4.1c0-3.7,0-7.3.1-11h0l1.1-1.1c6.6-4.5,8.1-4.2,12.2,2.3a9.12,9.12,0,0,0,1.7,1.7h0a2,2,0,0,0,1,2h0a2,2,0,0,0,1,2h0a9.27,9.27,0,0,0,.4,2.4,420.5,420.5,0,0,1,32.6,92.3h-5a426.35,426.35,0,0,0-42.3-50.6,3.73,3.73,0,0,0-2.6-1.2c-.1-.4-.3-.9-.4-1.3-.1.1-.3.2-.4.3.3.4.5.7.8,1.1.5,2.9,3,4.3,4.8,6.2,4.1,4.3,8.4,8.4,11.3,13.7l-.2.2a5.54,5.54,0,0,0-5.1,2.3c-3.5,4.2-.1,8,1,11.9-2,.2-3.2-1.9-5.4-.7,2.3,2.2,5.2,3,7.7,4.4C114.24,553.49,122.64,556.69,129.14,563.19Zm-47.9-25.8c-.5-.7-1.1-1.1-1.9-.8-.1,0-.2.2-.2.4a15.52,15.52,0,0,0,2.1.4c.4,1.1,2.2.9,2.3,2.6-4.2,1.5-8.4,3.2-8.3,8.8,0,1.3-.3,2.8,1.5,3.3a3.23,3.23,0,0,0,3.5-1.4,16.83,16.83,0,0,0,2-3.4c1.5-3.7,4.1-6,8.6-6.2-2.4-1.9-4.4-3.8-4.4-6.6,0-2.4.6-4.9.8-7.4s0-5.3-3-5.3c-2.4,0-3.8,2.4-4,5a14.21,14.21,0,0,0,1.9,8.6C82.84,536.89,82.54,537.29,81.24,537.39Zm-17.7-54.9c-1-.2-2.1-.5-3.1-.7,5.4,4.9,3.6,5.8-.1,5.9-1.1,0-2.2.8-3.2,1.3-3,1.5-5.1,4.3-3.4,7.2s4.8.8,6.9-.6c3.7-2.6,7.3-5.1,13.5-3.1C69.84,488.49,66.64,485.49,63.54,482.49Zm12.7,53.7c.1-.1.3-.1.4-.2a1.38,1.38,0,0,0-.4-.3.76.76,0,0,0-.4.2A1.38,1.38,0,0,0,76.24,536.19Zm19.7,7.6c0,.1,0,.3.1.3a.6.6,0,0,0,.4.1c0-.2-.1-.4-.1-.6C96.14,543.69,96,543.69,95.94,543.79Z" transform="translate(-3.14 -2.49)" fill="#94d7c9"/><path d="M492.44,195c3.9-1.3,7.3-3.7,11.4-4.8,16.5-4.2,30.3.6,40.5,13.6s11.6,27.6,3.6,42.5q-16.35,30.45-32.7,61c-.6,1.1-.8,2.9-2.4,2.8-1.3-.1-1.3-1.7-1.9-2.7-6.2-12.1-12.4-24.1-18.7-36.2-3.8-7.9-7.6-15.8-11.5-23.6-9.8-19.6-6.4-36.7,10.3-51.1C491.54,196,491.94,195.49,492.44,195Zm21.8,15.6a18,18,0,1,0,17.7,17.9A17.91,17.91,0,0,0,514.24,210.59Z" transform="translate(-3.14 -2.49)" fill="#1f48dd"/><path d="M767.14,340.79c-1.2-.1-2.3-.2-3.5-.2-7.8-.1-7.8-.1-7.2,7.7.1.8.5,1.7-.6,2a1.87,1.87,0,0,1-2.5-1.1c-3.3-8.7-10.4-8.9-18.2-8.8-19.4.4-38.9.1-58.4.1-6.5,0-7.5-1-7.5-7.5v-38.4c2.5-4.4,6.8-4,10.9-4.1H748c5.7,0,11.3.1,17,.1s8,2.2,8,7.8c.1,11.8-.1,23.6.1,35.4C773.14,338.09,771.34,340.29,767.14,340.79Zm-24.6-14.3h-15.9c-1,0-2.7-.6-2.9,1s1.3,1.7,2.5,1.7H759c1.2,0,2.6-.2,2.4-1.8-.2-1.3-1.5-1-2.5-1C753.44,326.49,748,326.49,742.54,326.49Zm-42.4,2.9H716c1.1,0,2.7.1,2.7-1.5s-1.6-1.4-2.7-1.4h-31.9c-1.1,0-2.7-.2-2.7,1.4s1.6,1.4,2.7,1.4C689.44,329.39,694.84,329.39,700.14,329.39Zm15.6-24.5v1h44.8v-1Zm30.7,13.5h11.9c1.1,0,2.6.2,2.5-1.6-.1-1.3-1.3-1.3-2.3-1.3h-23.8c-1,0-2.2.1-2.3,1.4,0,1.7,1.4,1.5,2.5,1.5Zm-30.9-2.9h0c-2.8.1-5.6,0-8.5.1a1.44,1.44,0,0,0-1.6,1.5,1.18,1.18,0,0,0,1.3,1.2c5.8,0,11.6,0,17.4-.1a1.27,1.27,0,0,0,1.3-1.7c-.2-1-1.2-1-2-1Zm-25.1,2.9h7c1,0,2.2,0,2.3-1.3s-1-1.6-2-1.6h-14.5c-.9,0-1.8.3-1.8,1.3-.1,1.4,1.1,1.5,2,1.5C685.84,318.39,688.14,318.39,690.44,318.39Zm-8.7-13.4v1.1h26.8V305Z" transform="translate(-3.14 -2.49)" fill="#4884c1"/><path d="M748,290.49h-67.9c0-9.2.1-18.3-.1-27.5-.1-3.4,1-4.7,4.5-4.6,7.1.3,6.5.7,6.6-6.8,0-4.7.1-9.3,0-14-.1-2.9.7-4.2,3.9-4.2q18.75.15,37.5,0c2.8,0,3.8,1,3.7,3.8-.1,5.3.1,10.7-.1,16-.2,3.8,1.1,5.4,5.1,5.3,7.4-.2,6.9-1,6.9,7C748.14,273.89,748,282.19,748,290.49Z" transform="translate(-3.14 -2.49)" fill="#6d6d6d"/><path d="M775,381.49c2.7-.5,6.5-.2,7.8-1.8s-.2-5.4.3-8.1c2.2-12.4-.7-24.8.1-37.1.7-10-1.5-20,.5-30.1.6-2.9-2.2-6.5.4-9s5.9.3,9,.2c4.7-.2,9.5-.9,14.3,0-.5,2.9-1.2,5.7,0,8.6A26.67,26.67,0,0,0,804,318c.1,4.9-.9,10.2,5.2,12.8,1.2.5.8,2,.6,3.2l-.9,5.4-4,.3c-3.9-.3-7.7.5-10,3.6-7.3,9.6-9,20.7-7.6,32.4a9.92,9.92,0,0,1-1.6,4C781.54,388,781.64,388,775,381.49Z" transform="translate(-3.14 -2.49)" fill="#e6eaf5"/><path d="M57.14,564.39c.7,6.4,5.1,6.1,10,6.1q445.35-.15,890.6,0c4.9,0,7.2-1.1,6.4-6.2a1.18,1.18,0,0,0,1-.1c1,7.7,1,7.7-6.6,7.7H61.94C56.14,571.89,56,571.79,57.14,564.39Z" transform="translate(-3.14 -2.49)" fill="#1b1b1c"/><path d="M818,296.79c.2-2.3,1.9-2.3,3.6-2.3,4.9.1,9.8.1,14.8.2,1.9,0,2.7,1.3,2.7,2.9,0,14.9,0,29.8-.1,44.8,0,.8-.6,1.5-.9,2.3-1.9-.8-3.3-2.7-5.7-2.6-2.8-1.9-6.1-1.4-9.1-2.2-.4-3.7-2.5-7.1-1.3-11,.6-2.8,2.7-4.4,4.7-6.3,7.2-7,5.3-18.1-3.8-22.3A11.25,11.25,0,0,1,818,296.79Z" transform="translate(-3.14 -2.49)" fill="#e6eaf5"/><path d="M81.14,438.49c-7.2-4.4-14.3-9-20.4-14.8a29.07,29.07,0,0,1-3.3-3.7c-2.4-3.1-4.7-6.5-2.3-10.4,2.5-4.1,6.5-3.1,10.2-2.1,2.1,1.6,2.6,4,3.4,6.4a41.07,41.07,0,0,0-4.2,1.5c-1.7.8-2.7,2.3-1.8,4,1,2,2.8.7,3.8-.1,2.5-2.1,7.3-2.9,5.2-8.1-.1-.2.6-.7.9-1.1,2.3,1,4.5,2,6.8,3a3.5,3.5,0,0,1,1,3.2c-1.2,4.4,1.1,7.4,4,10.2h0a3.57,3.57,0,0,0,2,2v-.1l1,1v-.1c0,1.5,0,2.9,2,3h0a2,2,0,0,0,1,2.1h0l1,1h0c.7,3.3.1,4.8-3.8,3.4C85.54,438.09,83.24,438.59,81.14,438.49Z" transform="translate(-3.14 -2.49)" fill="#3d8e7d"/><path d="M676.84,122.69a18.31,18.31,0,0,0-1.3,2.2c-1.5,2.7-4.8,5.5.6,7.7a1.47,1.47,0,0,1,.6,2.1c-.8,1.3-2.1,1-3.1.4-2.9-1.6-4.6-.3-5.9,2.2-1.2,2.3-2.3,4.3,1.4,5.2,1.3.3,2.1,1.1,1.7,2.5a1.83,1.83,0,0,1-2.9.9c-3.9-2.7-5.2-.1-7.2,2.7-1.4,1.9-1.9,6.8-5.6,4.3-3.3-2.2,1.2-4.3,1.7-6.6.3-1.5,3.9-2.9.4-4.7-2.5-1.2-5.1-3-7,1-.8,1.6-1.9,3.1-2.9,4.7-.8,1.3-1.8,1.9-3.3,1.2-1.7-.8-1.3-2.2-.7-3.4a17.35,17.35,0,0,1,2.3-3.9c1.8-2.2,2.4-4-1.2-5a1.82,1.82,0,0,1-1.2-2.8c.7-1.4,1.9-.9,3-.6a5.5,5.5,0,0,0,7.1-4.3c.5-2.4-1.6-2-2.7-2.8-.9-.6-1.6-1.3-1.3-2.4a1.55,1.55,0,0,1,2.4-.9c4.9,2.7,6.2-1.1,8.2-4.1,1.1-1.6,1.6-5.1,4.5-3.1s.4,4.2-.9,5.9c-2.5,3.1-2.8,5.2,1.7,6.6,2.1.6,3,.3,4-1.5,1.1-2,2.5-3.9,3.8-5.8a2.13,2.13,0,0,1,2.7-.7A2.76,2.76,0,0,1,676.84,122.69Zm-17.3,6.7c-2.7,1.5-4.6,4.1-4.6,6.5s3.6,3,5.5,2.9c2.9-.2,4.1-3.7,4.3-5.9C665,130.19,661.34,130.79,659.54,129.39Z" transform="translate(-3.14 -2.49)" fill="#59bda6"/><path d="M810.94,161c5.3,2.5,8.8-.2,11.8-4.6,1.6-2.2,3.4-2.1,3.5.6.4,5.8,3,9,8.7,10.4,2.9.7,2.2,2.6-.1,3.5-5,2.1-7.3,5.8-6.9,11.2.1,2.1-1,3.5-3,1.5-3.7-3.9-7.5-6.1-13-3.5-2.5,1.2-3.6-.8-2.3-2.9,2.9-4.7,2.5-8.9-1-13.1C806.64,161.69,808.34,161.09,810.94,161Z" transform="translate(-3.14 -2.49)" fill="#f2755b"/><path d="M107.24,464.49a9.12,9.12,0,0,1-1.7-1.7c-4-6.5-5.6-6.8-12.2-2.3l-1.1,1.1h0c-.4.2-.9.4-1.3.6-1.9.9-4,2.4-5.9.5s-.8-4.1.7-5.7c1.4-1.4-.4-1.4-.6-2.1,5-.2,9.9-2.8,15.7.5-.8-2.5-1.3-4.1-1.8-5.7,2.8.2,2.9-1.6,3.2-3.8.8-5.8,5.3-9.1,10.8-8.3,3.9.6,5.1,3.4,2.9,6.8-1.1,1.8-2.9,2.6-4.6,3.6-2.4,1.2-4.8,2.4-5.1,5.5-2.4,1.1-2.1,2.8-1.2,4.8S107.54,462,107.24,464.49Z" transform="translate(-3.14 -2.49)" fill="#59bda6"/><path d="M483.74,113a10.9,10.9,0,0,1-1.1,1.3c-2.9,1.9-4.9,4.1-4.8,8,0,2.3-1.9,2.6-3.4.8a7.22,7.22,0,0,0-8.1-2.3c-3.1.8-4.1-.9-2.6-3,2-2.9,1.4-5.1-.2-7.7-1.9-3-.4-3.7,2.5-3.5,2.5.2,4.7.5,6-2.9.5-1.3,4.2-3.5,4.7.1.6,4,2.3,5.9,5.7,7A2.13,2.13,0,0,1,483.74,113Z" transform="translate(-3.14 -2.49)" fill="#f5ca7f"/><path d="M85.24,454.79c.2.7,2,.7.6,2.1-1.6,1.6-2.6,3.7-.7,5.7s3.9.4,5.9-.5c.4-.2.9-.4,1.3-.6,0,3.7,0,7.3-.1,11a53.45,53.45,0,0,1-18.5-6.7c-.1-.1-.3-.2-.4-.3-2.8-2.1-5.2-4.5-3.7-8.3s5.6-3.4,8.2-3C80.24,454.49,82.74,454.29,85.24,454.79Z" transform="translate(-3.14 -2.49)" fill="#3d8e7d"/><path d="M904.64,238.09c-.4,2.2-1.1,4-3.3,3-6.4-2.9-9.9.2-12.5,5.5-1.1,2.3-2.9,2.4-5,1.4-1.7-.8-3.5-1.2-5-2.1-2.8-1.6-4.8-1.6-6.1,1.9-.6,1.6-1.5,3.6-4,2.2s-1.6-3.2-.4-5c.1-.1.2-.3.3-.4,3.8-7,4-7.3,11.2-4,4.1,1.9,6.5,1.5,8.7-2.5.9-1.7,1.7-4.5,4.4-4.1a85.87,85.87,0,0,1,11.1,2.8C904.34,236.89,904.54,237.89,904.64,238.09Z" transform="translate(-3.14 -2.49)" fill="#59bda6"/><path d="M544.14,83.19c-.9-2.2-3.1-2.9-4.5-4.4s-4.1-1.9-3.6-4.3a59.53,59.53,0,0,1,3.3-10.9c.5-1.2,2.1-.2,3.2,0s1.7,1.2,1.1,2.2c-4,6.8,0,10.5,5.2,13.8,1.5,1,2,2,.9,3.7-1,1.5-1.4,3.4-2.4,4.9-2.1,3.3-2.4,5.9,2,7.6,1.1.4,3.1,1.1,1.4,3.2-1.1,1.4-2,2.8-3.9,1.1-.1-.1-.3-.2-.4-.3-8.1-4.5-8.1-4.5-4.2-12.5C542.84,86,543.54,84.59,544.14,83.19Z" transform="translate(-3.14 -2.49)" fill="#193658"/><path d="M439.24,336.39V86.49c0-1.3.1-2.7.2-4,1.2,2,.7,4.2.7,6.3.1,29.2.1,58.4.2,87.7-.1,16.5-.2,33-.2,49.4v110.4A1.41,1.41,0,0,1,439.24,336.39Z" transform="translate(-3.14 -2.49)" fill="#9c9ba1"/><path d="M81.14,438.49c2.1.1,4.4-.4,6.3.3,3.9,1.4,4.5-.1,3.8-3.4,1.2-4.6,2.3-9.2,5.1-13.1,3.3.1,7.1-.8,7.9,4.1-4.6,4.4-9.7,8.6-9,16-2,.3-4.1-.8-5.9.9-2.6.3-4.4,2.2-6.4,3.5-2.2,1.5-5.2,3.2-7.1.8-2-2.7.4-5.2,2.6-7.1C79.34,439.79,80.24,439.19,81.14,438.49Z" transform="translate(-3.14 -2.49)" fill="#59bda6"/><path d="M710.54,197.19c1.8.2,1.5,1.5,1.9,2.3,2.4,4.9,6.4,6.6,11,4.6,4.4-1.9,7.1-7.4,5.5-11.6-1.2-3.2-3.6-4.6-7.1-4.1-2.6.4-3.1,2.2-3,4.4.1,1.1,0,2.5,1.7,2.5,1.4,0,2.3.4,2.4,1.8.1.9-.6,1.5-1.4,1.9a3.12,3.12,0,0,1-3.6-.9c-2.3-2.6-3.9-5.5-1.7-9,2-3.2,4.7-5.1,8.7-3.9a10.21,10.21,0,0,1,7.5,10c.1,4.5-3.7,9.9-8.1,11.6-4.6,1.8-10.1.6-12.7-2.8C710.24,201.89,709.54,199.69,710.54,197.19Z" transform="translate(-3.14 -2.49)" fill="#f5ca7f"/><path d="M57.24,533.39c3.4-1.5,5.6-3.1,2.6-7.2a9.21,9.21,0,0,1-.7-9.5,3.48,3.48,0,0,1,3.9-2.3c2.1.2,2.1,1.8,2.1,3.3,0,2.7,0,5.3-.1,8-.2,3,.4,5.6,3.7,7.2-4.9.9-8.2,3-9.7,7.4-1.6,1.8-2.6,5.8-5.7,3.2-2.5-2-1-5.2.9-7.5A37.27,37.27,0,0,1,57.24,533.39Z" transform="translate(-3.14 -2.49)" fill="#59bda6"/><path d="M92.24,476.59c1.3,4.9,2.6,9.8,3.9,14.6-2.6-.9-5.2-1.9-7.9-2.8,2.5-4.1,1.6-5.8-3.1-6-1.3-.1-2.6,0-3.9,0-.4-5.9,1.3-7.5,7-6.5C89.64,476.09,90.94,476.39,92.24,476.59Z" transform="translate(-3.14 -2.49)" fill="#3d8e7d"/><path d="M56.24,476.49c-.1.8-.4,1.9-1.4,1.7-4.9-1.2-7.8,2.3-11.3,4.4-2.1.7-4.8,2.4-6-.6-1.1-2.7.8-4.9,3.1-6.6,2.9-2.1,6.8-.7,9.6-2.9l-.1.1C52.94,472.79,54.44,474.79,56.24,476.49Z" transform="translate(-3.14 -2.49)" fill="#59bda6"/><path d="M84.24,426.49c-2.9-2.8-5.2-5.8-4-10.2a3.5,3.5,0,0,0-1-3.2c2.6-.6,2.1-3.4,3.7-4.9,1.9-1.8,3.9-3.5,6.4-1.9,2.2,1.5.8,3.8.1,5.8-.6,1.8-2.9,2.9-2,5.2C83.14,419.29,84.64,423.19,84.24,426.49Z" transform="translate(-3.14 -2.49)" fill="#59bda6"/><path d="M84.24,426.49c.4-3.3-1.1-7.2,3.1-9.1,3,1.7,6,3.3,9,5-2.9,3.9-4,8.5-5.1,13.1h0l-1-1h0a2.18,2.18,0,0,0-1-2.1h0a3.28,3.28,0,0,0-2-3v.1l-1-1v.1a1.83,1.83,0,0,0-2-2.1Z" transform="translate(-3.14 -2.49)" fill="#3d8e7d"/><path d="M81.34,482.39h3.9c4.7.3,5.5,2,3.1,6l-1,1c-4.1,2.1-6.9,4.9-6,10h0c-2.5-.3-3.8-2.1-5-4h0c2.4-.3,2-2.2,1.9-3.7a16.42,16.42,0,0,1,1.2-7A4.35,4.35,0,0,0,81.34,482.39Z" transform="translate(-3.14 -2.49)" fill="#59bda6"/><path d="M39.24,459.29c-.1,1.6.5,4-.4,4.7a47.46,47.46,0,0,1-7.5,4.7,1.6,1.6,0,0,1-2.2-.5c-.7-1.4-.1-3.2.9-3.5,4.8-1.5,6.3-4.3,5-9.1a2.29,2.29,0,0,1,2.4-2.6c1.9,0,1.7,1.7,1.8,2.9s-.1,2.3-.1,3.5A.1.1,0,0,1,39.24,459.29Z" transform="translate(-3.14 -2.49)" fill="#59bda6"/><path d="M42,518.69c1.7.1,2.1,1.2,2.5,2.3.6,1.9.3,4,1.7,5.6.8.8.4,1.5-.7,1.7-2.3.6-3.5,2.4-5,4-.9.9-2,2.3-3.3.9a2.42,2.42,0,0,1,.3-3.6c3.8-2,4.2-4.7,2.9-8.4C40,520.29,41,519.09,42,518.69Z" transform="translate(-3.14 -2.49)" fill="#59bda6"/><path d="M72.44,410.09c-.3.4-1,.9-.9,1.1,2.1,5.1-2.7,6-5.2,8.1-1,.8-2.8,2.1-3.8.1-.9-1.7.1-3.2,1.8-4a41.07,41.07,0,0,1,4.2-1.5c-.8-2.3-1.2-4.7-3.4-6.4.6-.2,1.4-.3,1.7-.8,2.6-3.6,3.7-2.4,4.4,1.2A15.45,15.45,0,0,0,72.44,410.09Z" transform="translate(-3.14 -2.49)" fill="#59bda6"/><path d="M89.34,443.29c1.8-1.6,3.9-.5,5.9-.9h0a2,2,0,0,0,1,2h0l1,1h0v2.4C94.54,446.29,91.94,444.79,89.34,443.29Z" transform="translate(-3.14 -2.49)" fill="#3d8e7d"/><path d="M97.14,447.89v-2.4c1.8.9,2.2,2.3,1.9,4.1A15.37,15.37,0,0,0,97.14,447.89Z" transform="translate(-3.14 -2.49)" fill="#59bda6"/><path d="M49.24,471.39a1.89,1.89,0,0,1-2-2l-.1.1c1.2.2,2.1.7,2.1,1.9Z" transform="translate(-3.14 -2.49)" fill="#59bda6"/><path d="M44.24,467.39c-.2-.1-.5-.3-.7-.4.7-.5.6.1.7.4Z" transform="translate(-3.14 -2.49)" fill="#59bda6"/><path d="M44.24,467.49c.2.1.4.3.6.4h-.3c-.2-.2-.2-.3-.3-.4Z" transform="translate(-3.14 -2.49)" fill="#59bda6"/><path d="M50.24,472.39l-1-1-.1.1c.7,0,1.1.3,1.1.9Z" transform="translate(-3.14 -2.49)" fill="#59bda6"/><path d="M47.24,469.39c-.2-.1-.4-.3-.6-.4h.3c.2.2.2.3.3.4Z" transform="translate(-3.14 -2.49)" fill="#59bda6"/><path d="M439.24,336.39a2.77,2.77,0,0,0,.9-.1c24,.1,47.9.5,71.9.1,13.7-.3,27.2,1.4,40.7,2.4,10.7.8,20.6,5.3,30.5,9.3,20.1,8.2,39.8,17.3,59.4,26.4,20.1,9.4,40.1,19.2,60.2,28.6a393.57,393.57,0,0,0,50.4,19.3,207.89,207.89,0,0,0,35.9,8.3l.3,1.5c-.2,2.9-.4,5.7-.6,8.6a61.89,61.89,0,0,0-12.9-.4c-5.3.2-8.6,3.6-8.8,9.1-.4,12.9,5.8,18.9,19.9,19.1-.1,11.1-2.6,22.3,2.2,33-3.2,1.6-6.7.3-10.1.8-3,.5-4-1.2-4.7-3.5-.4-.9-.7-1.8-1.1-2.8-7.6-20.3-21.7-32.8-43.3-36.4a50.45,50.45,0,0,0-16.9-.1c-4.2-.2-7.5,2.6-11.4,3.6-18.5,4.6-33,26.8-33.9,41.2-4.2-1.4-5-4.3-4.9-8.5.3-9.1,1.7-18.1,2.9-27.1,1.2-9.7,3.1-19.2,5.1-28.8,1.9-9.2,3.6-18.5,6.8-27.3,1.6-4.3.5-6-2.9-7.8-26.4-13.8-52.8-27.5-79.5-40.9a159.92,159.92,0,0,0-67.8-17.3c-40.2-.9-80.5-1.5-120.6,2.7-15.4,1.6-29.7,6-42.6,14.9-16.6,11.5-31.3,25-45.2,39.6-.9.9-2.3,1.8-1.5,3.4,2.1,4.3,1.3,9.1,2.7,13.6a141.68,141.68,0,0,1,4.8,23.3c1.1,8.3,2,9.2,10.3,9.2,14.6,0,28.7,2.1,41.8,9.2,12.1,6.6,20.7,16.2,25.2,29.3,1.3,3.8,1,4.2-2.6,5.1-7.8-21-22.3-34-44.8-37.4a51.71,51.71,0,0,0-14.7,0c-19.5,2.5-33.5,12.9-42.6,30.2-11.4,1.3-22.8.9-34.2.2-5.3-.4-10.5-.8-15.8.2.1-1.8.4-3.6.4-5.4.1-10.4.1-20.8.2-31.3,1,0,2,.2,3,.1,6.1-.3,12.2.9,18.1-1.8,8.3-3.8,11.1-11.5,13.6-19.2,1.1-3.5-1.5-4.5-4.7-4.5-10.1.1-20.2.1-30.3.1.9-2.3-.1-4.6.1-6.8.6-8.9,5.1-15.7,11.8-16.9,9.8-1.7,19-5.3,28-9.3,2.9-1.3,6.4-1.6,8.5-4.5,2.8.3,4.7-1.5,6.9-2.8,7.1-2.4,13.4-6.3,19.7-10.2,11.2-6.7,20.9-15.6,32.3-22,4.3-2.4,9.1-3.8,12.9-7,3.8-1,7.6-1.7,10.9-4.1a17.61,17.61,0,0,0,3.4-.4,145.78,145.78,0,0,1,28.5-5.9c5,.6,9.9-1,14.9-1.1h.5l.5-.1C431.14,336.89,435.24,336.69,439.24,336.39Z" transform="translate(-3.14 -2.49)" fill="#f77908"/><path d="M760,367.69c-.2,1-1,.5-1.5.2-2.2-1.2-4.2-2.6-4.3-5.5a5.72,5.72,0,0,1,.7-.8" transform="translate(-3.14 -2.49)" fill="#1b1b1c"/><path d="M177.54,130.59v-4.1c1.7-1.7-.3-4.4,1.7-6h0c-.5,2.8,1.1,4.5,3.3,5.5,12,5.3,24,10.5,36.1,15.7,4,1.7,5.5.7,5.6-3.7.1-5.8,0-11.7,0-17.5h15c0,9.2.1,18.4.1,27.7-7.1-3.3-13.3-1.3-19,3.4-2.5-1.6-4.9-3.6-7.6-4.6-10-3.6-19.8-7.8-29.4-12.3-3.3-1.5-4.3-.4-4.2,3.1.2,11.3.3,22.6-.1,33.9-.2,4.6,1.3,7.1,5.6,8.9,10.7,4.6,21,9.9,31.8,14.3,7.1,2.9,7.6,2.8,7.9-4.8.1-2.3-1.2-5.1,1.5-6.9,1.2,2.6,2.5,5.2,3.7,7.8-.1,13.6-.2,27.3-.3,40.9,0,3.4,2.3,3.5,4.8,3.5,17.1.3,34.2.9,51.3.9,4.7,0,6.9,1.2,5.9,6.1-4.3-2.1-8.9-2-13.6-2-13.1-.2-26.2.9-39.2-1.7a10.56,10.56,0,0,0-10.5,4c-10.8,13.8-21.8,27.4-32.8,41.2-.8,1-2.1,2-1.5,3.5.8,1.8,2.6,1.2,4,1.1,15.7-1,31.5-.9,47.2-1.8,15.4-.8,30.9-.2,46.4-.2.2,2.4-.5,4.8,1.1,7-2,1.2-4.2,1-6.3,1h-53.5a27.36,27.36,0,0,0-6.4.8c-2.7.5-3.7,2-3.8,4.4-.3,5.8-1.5,11.5-1.1,17.4a158.92,158.92,0,0,1,.4,16.9c-.2,5.3,1.5,7.9,5.8,10.2,10.4,5.6,20.3,12.1,31.1,17.1,2.9,1.3,5.1,2.2,7.7,1,10.6-4.7,21.1-9.8,31.7-14.5,6.3-2.8,12.5-6.1,18.9-8.1,4.6-1.4,8.1-4.7,12.8-5.6,1.9-.4,4.5-1.6,4.6-4.6,2,.2,3.2,1.7,4.7,2.6,2.8,1.8,2.1,3.2-.7,4.4-18.8,8.3-37.7,16.7-56.5,25-21.1,9.3-42.2,18.7-63.4,27.9-3.2,1.4-4,3.4-4.4,6.8-1.1,10.9-.3,21.9-1.7,32.8-1.1,8.9-.8,8.9,7.2,12.3.9.4,1.8.9,2.7,1.3,0,3,.1,6,0,9-.6,18-3.1,35.9-2.9,53.9a3.75,3.75,0,0,0-1,.1c-4.7,0-9.3,0-14-.1-.3-1.8-1.1-3.8-.7-5.3,3.8-12.2.8-24.9,3.1-37.4s.3-25.7,2.3-38.6c1.4-8.9-1.3-18.3,2-27.2.6-1.6,0-3.1-1.5-4.4-8.7-7.3-18.6-13.1-27.7-20-2-1.5-2.6-.5-2.6,1.4v131.3c-1.8-1.8-.9-4.1-.9-6.2q0-181.2-.1-362.3C178.24,134.79,178.84,132.59,177.54,130.59Zm37.7,190.8c0-7-.1-14,.1-21,.1-3.7-1.3-5.1-5-4.9-9.3.4-18.6.8-27.8,1-2.8.1-3.3,1.4-3.3,3.8v58.9c0,1.3.1,2.4,1.5,3.3,9.6,6.7,19.1,13.6,28.6,20.4,1.8,1.3,3.9,2.1,6.1,1.3,11.2-4.2,21.5-10.3,32.7-14.4,3-1.1,3.8-3.2.4-5.2A17.45,17.45,0,0,0,246,363c-9.3-3.8-17.5-9.9-26.6-14.2-3.1-1.5-4.4-3.5-4.3-7C215.34,335,215.24,328.19,215.24,321.39Zm-36-84.1c0,14.3-.1,28.7.1,43,0,2.6-1.7,6.7,1.2,7.7,3.1,1.1,3.9-3.2,5.6-5.3,10.9-13.7,22.1-27.3,32.9-41.1,2.4-3,5.3-6,5.3-10.5q-.15-9.75,0-19.5c0-3-1.3-4.9-4.1-6.2-12.4-5.7-24.8-11.2-37-17.2-3.8-1.9-4-.8-4,2.5Z" transform="translate(-3.14 -2.49)" fill="#fdfdfd"/><path d="M419.14,563.59c-1.8,1.3-3.9.8-5.8.8-17.2,0-34.3,0-51.5.1-5.2,0-10.2-1.5-15.4-1-23.3,1.9-46.7.8-70.1,1-28.5.2-57,0-85.4,0-1.9,0-4,.6-5.8-.8l-.1-.3a13.55,13.55,0,0,0,2,.2q71.1,0,142.2-.1h8.2a6.27,6.27,0,0,0-4-1.6c-8-2.5-14.4-7.7-21-12.4-3.7-6.2-7.4-12.3-11.1-18.5.4-2.6-.5-5.1-1.2-7.5-.1-5.3-.6-10.7.2-16a4.18,4.18,0,0,0,.8-1.2c1.8-15.5,11.2-26,23.9-33.3,13.2-7.6,27.5-8.2,41.8-2.1a47.15,47.15,0,0,1,22.2,18.9,48,48,0,0,1,6.5,34.1c0,4.1-1.6,7.7-3.2,11.4-5.8,13.2-16.1,21.4-29.3,26.6a5.53,5.53,0,0,0-4.1,1.6h59.5C418.54,563.39,418.84,563.49,419.14,563.59Zm-70.9-82.2a33.76,33.76,0,0,0-34,33.3c-.1,18.9,14.9,34.3,33.5,34.4,18.3.1,34-15.3,34.2-33.5C382.24,497.19,366.84,481.49,348.24,481.39Z" transform="translate(-3.14 -2.49)" fill="#1b1b1c"/><path d="M185.24,563.59l-40-.3c-6.5-26.6-14.9-52.7-26.4-77.6-3.1-6.8-1.2-11.3,6-13.1,2.7-.7,5.1-1.5,6.5-4.1,11.6,7.8,21.2,18,31.8,27,.1,13.6.1,27.3.3,40.9.2,12.2,9.9,23.7,21.8,26.3a1.27,1.27,0,0,0,.1.6C185.14,563.19,185.24,563.59,185.24,563.59Z" transform="translate(-3.14 -2.49)" fill="#94d7c9"/><path d="M177.54,130.59c1.4,2,.7,4.2.7,6.3q0,181.2.1,362.3c0,2.1-.8,4.4.9,6.2v.1c0,4.3.1,8.6-.1,12.9-.1,2.9.7,4.2,3.9,4.1,5.4-.2,10.9-.2,16.4,0,3.2.1,4-1.3,3.9-4.1-.2-4.3-.1-8.6-.1-12.9h1c4.7,0,9.3,0,14,.1,0,5.6.3,11.2-2.5,16.3,1.9,1.1,3.8.6,5.5.7,17.6,0,35.2-.1,52.8.1,4,0,6.7.1,5.4-5.4-.6-2.2-1.6-6.2,3.5-5.6,1.1.3,2.3.7,3.4,1,0,3.3.5,6.8-2.9,9.4,5.6,1.4,10.9-.7,15.8,1.3-4.1.1-8.3.3-12.4.3q-52.2,0-104.4.1c-3.9,0-5-1-5-5q.15-192.6.1-385.1A10.73,10.73,0,0,1,177.54,130.59Z" transform="translate(-3.14 -2.49)" fill="#e6eaf5"/><path d="M301.74,84.59h-49c-2.1,0-4.4.5-4.3-3,.1-3.3,2.3-2.6,4.2-2.6H351c2,0,4-.5,4,2.8s-1.9,2.9-3.9,2.9c-16.5-.2-32.9-.2-49.4-.1Z" transform="translate(-3.14 -2.49)" fill="#e6eaf5"/><path d="M301.34,530.89c3.7,6.2,7.4,12.3,11.1,18.5-3.4,5.7-8.3,8-13.5,6.5-6.1-1.8-9.8-6.1-9.7-11.6,0-6.5,3.2-10.1,10.3-11.9A3,3,0,0,0,301.34,530.89Z" transform="translate(-3.14 -2.49)" fill="#171799"/><path d="M177.44,98.49c.3-2.2,2-.9,2.8-.9q121-.15,242-.1c1.5,0,3-.3,4.3.9a2.19,2.19,0,0,1-.5.3,1.1,1.1,0,0,0-.8,0c-1.7-.1-3.3-.2-5-.2H183.14c-1.7,0-3.3.2-5,.3C177.94,98.69,177.64,98.59,177.44,98.49Z" transform="translate(-3.14 -2.49)" fill="#f5ca7f"/><path d="M427.14,337.19l-.5.1h-.5c0-17.5.1-34.9,0-52.4q0-93-.2-186.1c.2-.1.3-.2.5-.3,1.1,1.9.6,3.9.6,5.9Q427.19,220.64,427.14,337.19Z" transform="translate(-3.14 -2.49)" fill="#9c9ba1"/><path d="M299.14,523.19c-4.9-1.9-10.1.1-15.8-1.3,3.4-2.6,2.9-6.1,2.9-9.4,2.5-.6,6.2,2.1,7.3-2.6,1.8-1.3,1.6-3.3,1.7-5.2l.2-.2c1.8.7,4.7-.6,4.9,2.9-.8,5.3-.4,10.7-.2,16C299.74,523.29,299.44,523.29,299.14,523.19Z" transform="translate(-3.14 -2.49)" fill="#c9ecf0"/><path d="M185.14,563.19c0-.2-.1-.4-.1-.6q70.05,0,140.1-.1c2.8,0,5.7.6,8.3-.8a7.13,7.13,0,0,1,4.1,1.6h-8.2q-71.1,0-142.2.1A12.31,12.31,0,0,1,185.14,563.19Z" transform="translate(-3.14 -2.49)" fill="#9c9ba1"/><path d="M177.44,98.49a2.35,2.35,0,0,0,.8.2c0,7.3-.4,14.6,1,21.8-2,1.6-.1,4.3-1.7,6C177.44,117.19,177.44,107.89,177.44,98.49Z" transform="translate(-3.14 -2.49)" fill="#e6eaf5"/><path d="M839.14,377.89c1.4.9,2.5-.7,3.8-.5.7,4.4,6,6.3,6.1,11h-1.5C837.24,389.29,837,386.89,839.14,377.89Z" transform="translate(-3.14 -2.49)" fill="#fdfdfd"/><path d="M131.24,468.39c-1.4,2.6-3.8,3.4-6.5,4.1-7.2,1.8-9.1,6.3-6,13.1,11.5,24.9,19.9,50.9,26.4,77.6H142a408.69,408.69,0,0,0-32.6-92.3,9.27,9.27,0,0,1-.4-2.4c3.8.8,2.7,5.6,5.8,7.5.1-6,1.8-10.8,7.2-13.4C126.44,462.69,131,462.09,131.24,468.39Z" transform="translate(-3.14 -2.49)" fill="#59bda6"/><path d="M122.24,462.49c-5.4,2.7-7.1,7.4-7.2,13.4-3.1-1.9-2-6.7-5.8-7.5h0c0-.9-.1-1.7-1-2h0c0-.9-.1-1.7-1-2h0c.3-2.4-1.2-4.3-2.2-6.3s-1.2-3.7,1.2-4.8C110.84,457.59,117.64,458.09,122.24,462.49Z" transform="translate(-3.14 -2.49)" fill="#94d7c9"/><path d="M96.24,444.49a1.88,1.88,0,0,1-1-2A2,2,0,0,1,96.24,444.49Z" transform="translate(-3.14 -2.49)" fill="#59bda6"/><path d="M97.24,445.49l-1-1A9.43,9.43,0,0,1,97.24,445.49Z" transform="translate(-3.14 -2.49)" fill="#59bda6"/><path d="M419.14,563.59l-.9-.3a.82.82,0,0,0,.1-.7c12.7-4,20.5-13.8,21-26.3,1-2.9,3.4-2.1,5.4-2.1,70,0,140-.1,210,.1,11.4,0,15.7-1.7,14.4-14.5,4.5-1,4,2.6,4.6,5.1,4,18,14.9,30,32,36.4,2,.7,4.3.7,6,2.2H421A6.23,6.23,0,0,0,419.14,563.59Z" transform="translate(-3.14 -2.49)" fill="#6d6d6d"/><path d="M711.84,563.39c-1.7-1.5-4-1.4-6-2.2-17.2-6.4-28.1-18.3-32-36.4-.5-2.5,0-6.1-4.6-5.1v-1.3c2.6.3,4.2-.4,3.9-3.5-.6-6.6,1.7-12.5,3.9-18.5,6.8-18.6,25.6-28.3,42.1-29.8,8.7-.8,17,1.6,24.7,6,15.3,8.8,24.3,21.6,25.3,39.5a6.31,6.31,0,0,0,3.1,5.5c-2.9,0-2.6,2.1-2.9,4.1-3.2,19-13.6,32.2-31.7,39.3-2.3.9-4.9.7-6.8,2.6C724.34,563.39,718.14,563.39,711.84,563.39Zm43.2-48.3a33.78,33.78,0,0,0-33.8-33.6c-18.7,0-34.2,15.4-34,34,.1,9.2,3.7,17.1,10,23.8a34.46,34.46,0,0,0,22.5,10.6C738.34,551.19,755,533.89,755,515.09Z" transform="translate(-3.14 -2.49)" fill="#1b1b1c"/><path d="M730.54,563.49c1.9-1.8,4.6-1.7,6.8-2.6,18.1-7,28.5-20.2,31.7-39.3.3-2,.1-4.1,2.9-4.1a1.4,1.4,0,0,0,.9.3v2.5c-.1,8.9,3.2,12.3,12.2,12.3,5.3,0,10.6-.1,15.9-.1l8.4,18a2.79,2.79,0,0,0,1.8,2c-.1,1.3-.3,2.6-.4,3.8-5.7,2.2-12.2,2.3-16.9,7C772.94,563.29,751.74,563.39,730.54,563.49Z" transform="translate(-3.14 -2.49)" fill="#6d6d6d"/><path d="M854.14,546.29c-.1,4-.1,8.1-.2,12.1-1.9,1.8-5.5,1.3-6,4.8-7.6,0-15.2,0-22.8.1-1.5-1.8-1.2-4.5-3-6.2.2-2.1-.8-3.9-1.3-5.8.1-.6.2-1.3.3-1.9-1.2-5.5-2.4-11-3.7-16.6,8.7.5,16.4-.9,19.5-10.7C842.64,530.19,848.44,538.29,854.14,546.29Z" transform="translate(-3.14 -2.49)" fill="#6d6d6d"/><path d="M134.14,563.19h-1.9c-4.9-5.5-11.3-9-17.8-12.2-5.9-2.8-7.4-5.5-5.8-11.8a14.28,14.28,0,0,0-.4-7.7l.2-.2C118.34,540.89,126.44,551.89,134.14,563.19Z" transform="translate(-3.14 -2.49)" fill="#94d7c9"/><path d="M108.14,531.49a13.37,13.37,0,0,1,.4,7.7c-1.6,6.3-.1,9,5.8,11.8,6.6,3.2,12.9,6.7,17.8,12.2H129c-6.5-6.5-14.9-9.7-22.8-13.8-2.5-1.3-5.4-2.2-7.7-4.4,2.1-1.2,3.3.9,5.4.7-1.1-3.9-4.5-7.6-1-11.9A6.06,6.06,0,0,1,108.14,531.49Z" transform="translate(-3.14 -2.49)" fill="#59bda6"/><path d="M134.14,563.19c-7.8-11.3-15.8-22.4-25.8-31.9-2.9-5.3-7.2-9.4-11.3-13.7-1.8-1.9-4.4-3.2-4.8-6.2h0a3.22,3.22,0,0,1,2.6,1.2,426.35,426.35,0,0,1,42.3,50.6Z" transform="translate(-3.14 -2.49)" fill="#59bda6"/><path d="M81.24,537.39c1.3-.1,1.7-.6.9-1.9a14.21,14.21,0,0,1-1.9-8.6c.2-2.6,1.6-5,4-5,3,0,3.2,2.9,3,5.3s-.8,4.9-.8,7.4c0,2.8,2,4.7,4.4,6.6-4.6.2-7.1,2.5-8.6,6.2a14.48,14.48,0,0,1-2,3.4,3.18,3.18,0,0,1-3.5,1.4c-1.7-.5-1.4-2-1.5-3.3-.1-5.6,4.2-7.3,8.3-8.8-.1-1.7-1.9-1.5-2.3-2.7Z" transform="translate(-3.14 -2.49)" fill="#59bda6"/><path d="M63.54,482.49c3.2,3,6.3,6,10.6,10-6.2-2-9.9.5-13.5,3.1-2.1,1.5-5.1,3.6-6.9.6s.4-5.7,3.4-7.2c1-.5,2.1-1.3,3.2-1.3,3.7-.1,5.5-1,.1-5.9C61.44,482,62.54,482.19,63.54,482.49Z" transform="translate(-3.14 -2.49)" fill="#59bda6"/><path d="M87.24,489.49l1-1c2.6.9,5.2,1.9,7.9,2.8,2.1,2.1,2.2,5,3.2,7.7C94.94,496.19,90.64,493.39,87.24,489.49Z" transform="translate(-3.14 -2.49)" fill="#eafbfb"/><path d="M81.24,537.39A17,17,0,0,1,79,537c.1-.1.1-.3.2-.4a1.9,1.9,0,0,1,2,.8Z" transform="translate(-3.14 -2.49)" fill="#59bda6"/><path d="M107.24,464.39a1.75,1.75,0,0,1,1,2C107.34,466.09,107.24,465.29,107.24,464.39Z" transform="translate(-3.14 -2.49)" fill="#59bda6"/><path d="M92.24,511.49c-.3-.4-.5-.7-.8-1.1.1-.1.3-.2.4-.3.1.4.3.9.4,1.4Z" transform="translate(-3.14 -2.49)" fill="#59bda6"/><path d="M108.24,466.39a1.75,1.75,0,0,1,1,2A2,2,0,0,1,108.24,466.39Z" transform="translate(-3.14 -2.49)" fill="#59bda6"/><path d="M76.24,536.19a1.38,1.38,0,0,0-.4-.3.76.76,0,0,1,.4-.2c.1,0,.2.2.4.3A.52.52,0,0,0,76.24,536.19Z" transform="translate(-3.14 -2.49)" fill="#59bda6"/><path d="M95.94,543.79c.1,0,.3-.1.4-.1,0,.2.1.4.1.6a.4.4,0,0,1-.5-.5Z" transform="translate(-3.14 -2.49)" fill="#59bda6"/><path d="M92.24,461.49l1.1-1.1A11.41,11.41,0,0,1,92.24,461.49Z" transform="translate(-3.14 -2.49)" fill="#3d8e7d"/><path d="M75.24,494.39c-.1-.2-.3-.3-.4-.5a.37.37,0,0,1,.3.1c0,.2.1.3.1.4Z" transform="translate(-3.14 -2.49)" fill="#59bda6"/><path d="M75.24,494.39l1,1h0a9.43,9.43,0,0,1-1-1Z" transform="translate(-3.14 -2.49)" fill="#59bda6"/><path d="M81.24,499.39c.1.2.3.3.4.5a.37.37,0,0,1-.3-.1c0-.1-.1-.2-.1-.4Z" transform="translate(-3.14 -2.49)" fill="#59bda6"/><path d="M514.24,210.59a18,18,0,1,1-18.1,17.5A17.91,17.91,0,0,1,514.24,210.59Z" transform="translate(-3.14 -2.49)" fill="#fdfdfd"/><path d="M742.54,326.49h16.4c.9,0,2.3-.3,2.5,1,.2,1.6-1.2,1.8-2.4,1.8h-32.8c-1.1,0-2.7-.2-2.5-1.7s1.8-1,2.9-1C731.94,326.49,737.24,326.49,742.54,326.49Z" transform="translate(-3.14 -2.49)" fill="#e6eaf5"/><path d="M700.14,329.39h-15.9c-1.1,0-2.7.1-2.7-1.4s1.6-1.4,2.7-1.4h31.9c1.1,0,2.7-.2,2.7,1.4s-1.5,1.5-2.7,1.5C710.74,329.39,705.44,329.39,700.14,329.39Z" transform="translate(-3.14 -2.49)" fill="#e6eaf5"/><path d="M715.74,304.89h44.8v1h-44.8Z" transform="translate(-3.14 -2.49)" fill="#fdfdfd"/><path d="M746.44,318.39H735c-1.1,0-2.6.1-2.5-1.5,0-1.3,1.3-1.4,2.3-1.4h23.8c1,0,2.2,0,2.3,1.3.1,1.7-1.4,1.5-2.5,1.6Z" transform="translate(-3.14 -2.49)" fill="#e6eaf5"/><path d="M715.54,315.49h8c.8,0,1.8,0,2,1a1.35,1.35,0,0,1-1.3,1.7c-5.8.1-11.6.1-17.4.1a1.24,1.24,0,0,1-1.3-1.2,1.44,1.44,0,0,1,1.6-1.5c2.7-.1,5.6-.1,8.4-.1Z" transform="translate(-3.14 -2.49)" fill="#e6eaf5"/><path d="M690.44,318.39h-7c-1,0-2.1-.1-2-1.5.1-1,1-1.3,1.8-1.3,4.8,0,9.6-.1,14.5,0,1,0,2.2.3,2,1.6s-1.3,1.3-2.3,1.3c-2.3-.1-4.6-.1-7-.1Z" transform="translate(-3.14 -2.49)" fill="#e6eaf5"/><path d="M681.74,305h26.8v1.1h-26.8Z" transform="translate(-3.14 -2.49)" fill="#fdfdfd"/><path d="M87.24,429.39a3.13,3.13,0,0,1,2,3C87.24,432.39,87.24,430.89,87.24,429.39Z" transform="translate(-3.14 -2.49)" fill="#59bda6"/><path d="M84.24,426.39a1.75,1.75,0,0,1,2,2A3.07,3.07,0,0,1,84.24,426.39Z" transform="translate(-3.14 -2.49)" fill="#59bda6"/><path d="M89.24,432.39a2.18,2.18,0,0,1,1,2.1C89.34,434.09,89.24,433.29,89.24,432.39Z" transform="translate(-3.14 -2.49)" fill="#59bda6"/><path d="M86.24,428.39l1,1A9.43,9.43,0,0,1,86.24,428.39Z" transform="translate(-3.14 -2.49)" fill="#59bda6"/><path d="M90.24,434.39l1,1A9.43,9.43,0,0,1,90.24,434.39Z" transform="translate(-3.14 -2.49)" fill="#59bda6"/><path d="M659.54,129.39c1.8,1.5,5.5.8,5.2,3.6-.2,2.2-1.4,5.6-4.3,5.9-1.9.2-5.5-.6-5.5-2.9C654.84,133.39,656.74,130.79,659.54,129.39Z" transform="translate(-3.14 -2.49)" fill="#eafbfb"/><path d="M426,98.79q.15,93,.2,186.1v52.4c-5,0-9.8,1.7-14.9,1.1,5.6-3.6,8.1-9.9,12.4-14.7a5.15,5.15,0,0,0,1.5-3.6v-32.4c0-1.6-.3-3.2-2.4-3-5.1.5-9.8-1.9-14.7-2-15.4-.1-30.7-2.2-46-3.1-6.9-.4-6.6-.5-7,6.4-.9,14.7,3.5,29.1,2.1,43.9a3.83,3.83,0,0,0,.7,2.8c6.1,5.7,12.7,10.6,21.3,12-3.3,2.3-7.1,3-10.9,4.1-3-1-5.5-3.1-8.2-4.5-3.2-1.7-6.1-5-10.3-3.1-11,4.9-21.8,10.4-33,14.9-10.3,4.1-20.1,9.5-30.7,13.1-2.1.7-6.3.8-6.3,3.6,0,2.4,3.7,3.1,6,4.3,1,.6,2.1,1,3,1.6,4.8,3.2,10.6,4.7,14.5,9.3-2.1,1.3-4,3.2-6.9,2.8-1.6-.2-3.8.1-4.8-.8-5.7-5.5-13.7-7.3-19.8-12.2a3.43,3.43,0,0,0-4.1-.4c-6.3,2.9-12.4,6.1-19.1,7.9-7.5,2.1-13.3,7.8-20.9,9.8A4,4,0,0,0,225,399c.9,11-2.7,21.7-2.1,32.7.1,2.6,1,3.9,3.4,4.6,4.4,1.3,8.8,2.9,13.2,4.3,1.6.5,3.3.9,3.5,3-8.4-1.5-16-5.4-23.9-8.1-1.5-.5-1.6-1.6-1.5-3.1.6-10.8,1.3-21.5,1.4-32.3,0-4.1,1.5-5.9,5-7.3,10.5-4.4,21-9.2,31.4-13.8,18.5-8.1,37-16.3,55.5-24.4,12.4-5.5,24.9-11,37.3-16.5,2.9-1.3,2.9-2.3.5-4.4-2.6-2.3-6-3.7-7.7-7-.5-13.4.5-26.9-.8-40.3a244.76,244.76,0,0,1-1.1-37.3c.2-4.8-1.9-6.5-6.6-6.4-11.8.2-23.6.1-35.5.1,0-2.5-.1-5,0-7.5s-.8-3.6-3.5-3.6c-7.1,0-14.2-.4-21.4-.8-11.4-.6-22.9,0-34.3-1-3.2-.3-3.9-1.4-3.8-4.3.1-9.3.1-18.6,0-28,0-1.7.8-3.7-1.3-5,1.2-2.4,2.5-4.8,3.7-7.2,2.6,1.5,2.6,4,2.6,6.5v28.4c0,2.3-.2,4.5,3.2,4.3,12.3-.9,24.4,1.6,36.7,1.9,14.9.4,29.8-.2,44.7,1.8,2.9.4,3.4-1.3,3.4-3.6v-25.5c0-2.1-.8-3.7-2.7-4.4-9.5-3.2-18.2-8.4-27.6-11.7-11.4-4-21.8-9.9-33.1-14.1-5.5-2.1-10.6-5.4-16.8-5.5-.5-2.9-1-5.9-1.5-8.8,4.9-1.3,8.4,2.3,12.5,3.9,16.3,6.4,31.9,14.3,48.3,20.3,6.6,2.4,6.9,2.5,6.9-4.4v-54h8v61c0,2.9.3,5.3,3.5,6.2,5.7,1.7,10.9,4.4,16.4,6.5,13.3,5.1,26.1,11.6,39.4,16.8,2.3.9,4.8,2.9,6.8,1.9,2.4-1.2-.2-3.9-.1-5.9,1-19.6-1.5-39.1-1.9-58.7-.2-9.3-.1-18.6-2.1-27.7h8a53.25,53.25,0,0,0,.1,8c2.9,21.2,2,42.6,3.8,63.9.5,5.8.1,11.6.1,17.5,0,4.9,1.4,8.7,6.7,10.5,6.5,2.3,12.7,5.3,19,8,3.5,1.4,4.4.1,4.4-3.5q-.15-52.2-.1-104.4c0-7.3,0-14.6.1-21.8A1.39,1.39,0,0,1,426,98.79Zm-.9,158.9c0-5-.1-10,0-15,.1-3.3-1.1-5.2-4.3-6.3-12.1-4.1-23.8-9.6-35.5-14.7-15.4-6.7-30.9-13.3-46.3-20.1-3.4-1.5-3.8,0-3.9,2.5q-.15,6.75,0,13.5c.1,12.4-1.4,10.7,10.9,10.8,6.8.1,7,.3,7.1,7,.1,9.1-.3,18.2.9,27.3,1.2,8.7,1.8,9.5,10.5,9.7,5.6.1,11.2-.2,16.9.5,13.3,1.5,26.6,2.3,40,3.5,2.9.2,3.8-1.1,3.7-3.8C425,267.69,425.14,262.69,425.14,257.69Z" transform="translate(-3.14 -2.49)" fill="#fdfdfd"/><path d="M399.94,497c3.6-.9,3.9-1.2,2.6-5.1-4.5-13.1-13.1-22.7-25.2-29.3-13-7.1-27.2-9.1-41.8-9.2-8.3,0-9.2-.9-10.3-9.2a152.87,152.87,0,0,0-4.8-23.3c-1.4-4.5-.6-9.3-2.7-13.6-.8-1.6.6-2.4,1.5-3.4,13.9-14.5,28.6-28.1,45.2-39.6,12.9-8.9,27.2-13.3,42.6-14.9,40.1-4.2,80.4-3.6,120.6-2.7a157,157,0,0,1,67.8,17.3q39.9,20.1,79.5,40.9c3.3,1.8,4.5,3.5,2.9,7.8-3.2,8.8-4.9,18.1-6.8,27.3-2,9.6-3.8,19.1-5.1,28.8-1.1,9-2.6,18-2.9,27.1-.1,4.2.7,7.1,4.9,8.5,2.9,4.1,1.1,8.6,1.1,13a22.94,22.94,0,0,0-7.8-1q-123.6,0-247.2.1c-5.1,0-10.9-1.9-13.9,4.6a55.42,55.42,0,0,0-1.5-17.7C397.94,500.79,398,498.79,399.94,497Zm238.5,5.4h13c8.5,0,8.5,0,8.7-8.2,0-1,.1-2,.2-3,1.1-12,2.6-24,4.6-35.9a400.17,400.17,0,0,1,9.4-42.1c.9-3.1.4-4.7-2.1-6.1-11.5-6.2-22.8-12.8-34.6-18.6-7.5-3.7-14.8-7.7-22.3-11.3-18.6-8.9-36.5-19.1-57.2-23.2a242.86,242.86,0,0,0-39.8-4.7c-3.3-.1-4.3,1-4.3,4.3.2,11.8.1,23.7.1,35.5V494c0,2.6-.8,5.5,3.6,5.4,8.3-.2,16.6.2,24.9.8,13.2,1,26.6.4,39.9.8C601.14,501.79,619.74,502.09,638.44,502.39Zm-127.3-78.5c0-23-.1-46,.1-69,0-4.5-1.3-5.5-5.6-5.5-29.4,0-58.9-.1-88.2,2.2-8.9.7-17.8,1.3-26.5,3.5-15.7,4-28.1,13.7-40.2,23.6-9.3,7.5-17.8,16-26.6,24a8.44,8.44,0,0,0-2.7,8.6c2.6,12.3,5.3,24.6,7.9,36.9.4,2,1.5,2.4,3.1,2.3a102.24,102.24,0,0,1,24.7,2c10,1.8,19.5,5.2,27.8,11.2a58.08,58.08,0,0,1,21.5,29.7,3.81,3.81,0,0,0,3.9,3.1c15.4.6,30.8,1.5,46.3,1.8,16.3.3,32.7,0,49,.2,4.5.1,6-1,5.9-5.8C511,469.79,511.14,446.89,511.14,423.89Z" transform="translate(-3.14 -2.49)" fill="#f77908"/><path d="M379.34,344.49c-8.6-1.4-15.2-6.3-21.3-12a3.83,3.83,0,0,1-.7-2.8c1.3-14.7-3-29.1-2.1-43.9.4-6.9.1-6.8,7-6.4,15.3.9,30.6,3.1,46,3.1,4.9,0,9.6,2.5,14.7,2,2.1-.2,2.4,1.4,2.4,3v32.4a5.33,5.33,0,0,1-1.5,3.6c-4.3,4.8-6.8,11.1-12.4,14.7a138.82,138.82,0,0,0-28.5,5.9A15.86,15.86,0,0,1,379.34,344.49Z" transform="translate(-3.14 -2.49)" fill="#7ce0dd"/><path d="M243.24,443.49c-.2-2.1-1.9-2.5-3.5-3-4.4-1.5-8.8-3-13.2-4.3-2.4-.7-3.3-2-3.4-4.6-.6-11,3-21.7,2.1-32.7a3.86,3.86,0,0,1,2.7-3.9c7.6-2,13.4-7.8,20.9-9.8,6.7-1.8,12.8-5.1,19.1-7.9a3.63,3.63,0,0,1,4.1.4c6.1,4.8,14.1,6.6,19.8,12.2,1,.9,3.2.6,4.8.8-2.1,2.9-5.6,3.2-8.5,4.5-9,4-18.2,7.6-28,9.3-6.6,1.1-11.2,7.9-11.8,16.9-.2,2.3.8,4.6-.1,6.8-2,1.4-2.1,3.5-2.1,5.6,0,3.6-.2,7.1-.2,10.7C244.84,444.39,243.74,444.49,243.24,443.49Z" transform="translate(-3.14 -2.49)" fill="#7ce0dd"/><path d="M219.24,505.39c-.2-18,2.3-35.9,2.9-53.9.1-3,0-6,0-9,7.9,2.6,15.8,5.3,23.7,7.9.9,1,1.7,2,2.6,3,0,10.4-.1,20.8-.2,31.3,0,1.8-.3,3.6-.4,5.4-3.4,1.3-3,3.3-.8,5.4,1.7,4.9,6,6.9,10.2,9-1.4,1.3-3.1.8-4.8.8C241.44,505.49,230.34,505.39,219.24,505.39Z" transform="translate(-3.14 -2.49)" fill="#7ce0dd"/><path d="M303.44,387.79c-3.9-4.6-9.7-6.1-14.5-9.3-1-.6-2-1.1-3-1.6-2.2-1.3-6-2-6-4.3,0-2.9,4.2-2.9,6.3-3.6,10.6-3.6,20.3-9,30.7-13.1,11.2-4.5,21.9-10,33-14.9,4.2-1.9,7.1,1.5,10.3,3.1,2.8,1.4,5.2,3.5,8.2,4.5-3.8,3.2-8.6,4.7-12.9,7-11.5,6.4-21.1,15.3-32.3,22C316.84,381.49,310.44,385.39,303.44,387.79Z" transform="translate(-3.14 -2.49)" fill="#59bda6"/><path d="M668.94,517.39c0-4.4,1.8-8.9-1.1-13,1-14.4,15.5-36.6,33.9-41.2,3.8-1,7.2-3.8,11.4-3.6a43.68,43.68,0,0,0,16.9.1c21.6,3.6,35.7,16.2,43.3,36.4.3.9.7,1.8,1.1,2.7a43,43,0,0,0-1.1,17.5,6.47,6.47,0,0,1-.4,1.3,1.61,1.61,0,0,1-.9-.3,6.31,6.31,0,0,1-3.1-5.5c-1-17.8-10-30.7-25.3-39.5-7.6-4.4-16-6.8-24.7-6-16.5,1.5-35.3,11.3-42.1,29.8-2.2,6-4.5,11.9-3.9,18.5.3,3.1-1.3,3.8-3.9,3.5C669.14,518.09,669,517.79,668.94,517.39Z" transform="translate(-3.14 -2.49)" fill="#193658"/><path d="M399.94,497c-1.8,1.8-2,3.9-1.4,6.4a55.42,55.42,0,0,1,1.5,17.7c-1.2,0-2.5-.2-2.7,1.6-.6.3-1.2.7-1.9,1a48.1,48.1,0,0,0-28.7-53c-14.3-6.1-28.5-5.5-41.8,2.1-12.7,7.3-22,17.8-23.9,33.3a4.18,4.18,0,0,1-.8,1.2c-.2-3.4-3.1-2.2-4.9-2.9-.1-.6-.1-1.3-.2-1.9,1.2-4.2,3.5-8.2,2.7-12.8,9.1-17.3,23-27.7,42.6-30.2a25.38,25.38,0,0,0,14.7,0C377.64,462.89,392,476,399.94,497Z" transform="translate(-3.14 -2.49)" fill="#193658"/><path d="M248.44,453.49c-.9-1-1.7-2-2.6-3,0-2-.1-4-.1-5.9.1-3.6.2-7.1.2-10.7,0-2.2.1-4.3,2.1-5.6,10.1,0,20.2,0,30.3-.1,3.1,0,5.8,1.1,4.7,4.5-2.6,7.7-5.3,15.4-13.6,19.2-5.9,2.7-12.1,1.5-18.1,1.8A26.42,26.42,0,0,0,248.44,453.49Z" transform="translate(-3.14 -2.49)" fill="#e15a44"/><path d="M788.84,440.79c-.1,9.3-.8,18.5-1.8,27.8-14.1-.2-20.4-6.2-19.9-19.1.2-5.4,3.5-8.9,8.8-9.1A69.59,69.59,0,0,1,788.84,440.79Z" transform="translate(-3.14 -2.49)" fill="#eafbfb"/><path d="M297.84,489.79c.8,4.6-1.5,8.6-2.7,12.8-12.1-2.2-24.2-4.6-36.3-6.6-3.8-.6-7.8-3.3-11.8-.3-2.2-2.2-2.6-4.1.8-5.4,5.2-1,10.5-.5,15.8-.2C275,490.69,286.44,491.09,297.84,489.79Z" transform="translate(-3.14 -2.49)" fill="#eaaf54"/><path d="M773.34,516.39a43.13,43.13,0,0,1,1.1-17.5c.7,2.3,1.7,4,4.7,3.5,3.3-.6,6.8.8,10.1-.8a75.24,75.24,0,0,1,5.9,15.8C787.84,516.79,780.54,518.59,773.34,516.39Z" transform="translate(-3.14 -2.49)" fill="#eaaf54"/><path d="M730,459.79a40.12,40.12,0,0,1-16.9-.1A50.45,50.45,0,0,1,730,459.79Z" transform="translate(-3.14 -2.49)" fill="#1b1b1c"/><path d="M355,459.59a26.25,26.25,0,0,1-14.7,0A51.71,51.71,0,0,1,355,459.59Z" transform="translate(-3.14 -2.49)" fill="#1b1b1c"/><path d="M334.24,329.39c-.1,3-2.8,4.2-4.6,4.6-4.7.9-8.2,4.2-12.8,5.6-6.5,2-12.7,5.3-18.9,8.1-10.6,4.8-21.1,9.8-31.7,14.5-2.6,1.2-4.9.3-7.7-1-10.8-5-20.7-11.5-31.1-17.1-4.3-2.3-6-4.9-5.8-10.2a158.92,158.92,0,0,0-.4-16.9c-.4-5.9.8-11.6,1.1-17.4a4.18,4.18,0,0,1,3.8-4.4,34,34,0,0,1,6.4-.8H286c2.2,0,4.3.2,6.3-1a8.8,8.8,0,0,1,4.8,2.4c9.9,8.6,20,17.1,29.7,25.9C329.34,324.19,333,325.69,334.24,329.39Z" transform="translate(-3.14 -2.49)" fill="#7ce0dd"/><path d="M321.14,120.59h-142c-1.4-7.2-1-14.5-1-21.8,1.7-.1,3.3-.3,5-.3h237.1c1.7,0,3.3.2,5,.2,0,7.3,0,14.6-.1,21.8h-42Q352.24,120.64,321.14,120.59Z" transform="translate(-3.14 -2.49)" fill="#c9ecf0"/><path d="M291.14,286.49c-15.5,0-31-.7-46.4.2-15.7.9-31.5.7-47.2,1.8-1.4.1-3.2.7-4-1.1-.7-1.5.7-2.5,1.5-3.5,10.9-13.7,21.9-27.4,32.8-41.2a10.56,10.56,0,0,1,10.5-4c13,2.6,26.1,1.5,39.2,1.7,4.7.1,9.3-.1,13.6,2Z" transform="translate(-3.14 -2.49)" fill="#7ce0dd"/><path d="M215.24,321.39c0,6.8.1,13.6-.1,20.5-.1,3.4,1.2,5.4,4.3,7,9.1,4.4,17.2,10.4,26.6,14.2.9.4,1.6,1.1,2.5,1.6,3.4,2,2.7,4.1-.4,5.2-11.2,4.1-21.6,10.2-32.7,14.4-2.2.8-4.3,0-6.1-1.3-9.5-6.8-19-13.7-28.6-20.4a3.38,3.38,0,0,1-1.5-3.3v-58.9c0-2.3.5-3.7,3.3-3.8,9.3-.2,18.6-.5,27.8-1,3.7-.2,5.1,1.2,5,4.9C215,307.39,215.24,314.39,215.24,321.39Z" transform="translate(-3.14 -2.49)" fill="#7ce0dd"/><path d="M204.24,505.39h-25V374c0-2,.6-3,2.6-1.4,9.1,6.8,18.9,12.6,27.7,20,1.5,1.3,2.1,2.8,1.5,4.4-3.3,8.9-.6,18.2-2,27.2-2,12.9,0,26.1-2.3,38.6s.7,25.2-3.1,37.4C203.14,501.69,203.94,503.59,204.24,505.39Z" transform="translate(-3.14 -2.49)" fill="#7ce0dd"/><path d="M239.24,120.59h74v54c0,6.9-.3,6.8-6.9,4.4-16.4-6-32.1-13.9-48.3-20.3-4-1.6-7.5-5.1-12.5-3.9a22.58,22.58,0,0,0-6.2-6.5C239.24,139,239.24,129.79,239.24,120.59Z" transform="translate(-3.14 -2.49)" fill="#7ce0dd"/><path d="M179.24,237.29v-46.5c0-3.3.2-4.4,4-2.5,12.2,6,24.6,11.6,37,17.2,2.8,1.3,4.1,3.1,4.1,6.2q-.15,9.75,0,19.5c.1,4.5-2.9,7.4-5.3,10.5-10.9,13.8-22,27.4-32.9,41.1-1.7,2.1-2.5,6.4-5.6,5.3-2.9-1-1.2-5.1-1.2-7.7C179.14,265.89,179.24,251.59,179.24,237.29Z" transform="translate(-3.14 -2.49)" fill="#7ce0dd"/><path d="M291.14,286.49v-44c.9-4.9-1.2-6.1-5.9-6.1-17.1,0-34.2-.6-51.3-.9-2.5,0-4.8-.1-4.8-3.5.1-13.6.2-27.3.3-40.9,1.2.4,1,4.2,3.4,1.4,2,1.2,1.3,3.3,1.3,5,.1,9.3.1,18.6,0,28,0,2.8.7,4,3.8,4.3,11.4,1,22.9.4,34.3,1,7.1.4,14.2.8,21.4.8,2.6,0,3.6,1,3.5,3.6s0,5,0,7.5c0,14.2.1,28.3-.1,42.5a8.45,8.45,0,0,0,3,7c4.6,3.8,9.1,7.8,13.6,11.6,9.1,7.7,18.3,15.3,27.4,23,1.7,3.2,5.1,4.7,7.7,7,2.4,2.1,2.4,3.2-.5,4.4-12.4,5.5-24.9,11-37.3,16.5q-27.75,12.3-55.5,24.4c-10.5,4.6-20.9,9.3-31.4,13.8-3.5,1.5-5,3.3-5,7.3-.1,10.8-.8,21.5-1.4,32.3-.1,1.6,0,2.6,1.5,3.1,8,2.8,15.6,6.6,23.9,8.1.6,1.1,1.6,1,2.6,1.1,0,2,.1,4,.1,5.9-7.9-2.6-15.8-5.3-23.7-7.9-.9-.4-1.8-.9-2.7-1.3-8-3.4-8.3-3.4-7.2-12.3,1.4-10.9.6-21.9,1.7-32.8.3-3.4,1.1-5.4,4.4-6.8,21.2-9.2,42.3-18.6,63.4-27.9,18.8-8.3,37.6-16.7,56.5-25,2.7-1.2,3.5-2.6.7-4.4-1.5-1-2.8-2.5-4.7-2.6-1.2-3.7-4.8-5.2-7.4-7.6-9.7-8.9-19.8-17.3-29.7-25.9a8.8,8.8,0,0,0-4.8-2.4C290.74,291.39,291.34,288.89,291.14,286.49Z" transform="translate(-3.14 -2.49)" fill="#4884c1"/><path d="M225.74,183.29c-2.7,1.8-1.4,4.6-1.5,6.9-.2,7.6-.7,7.7-7.9,4.8-10.8-4.4-21.1-9.7-31.8-14.3-4.3-1.8-5.7-4.3-5.6-8.9.4-11.3.2-22.6.1-33.9-.1-3.5.9-4.6,4.2-3.1,9.6,4.5,19.4,8.7,29.4,12.3,2.7,1,5.1,3,7.6,4.6-4.2,6.5-4.4,12.9-.5,19.7C222.14,175.09,223.84,179.29,225.74,183.29Z" transform="translate(-3.14 -2.49)" fill="#7ce0dd"/><path d="M219.24,505.39h33.3c1.6,0,3.3.5,4.8-.8,8.5,2.3,17,4.6,25.6,6.9-5.1-.6-4,3.5-3.5,5.6,1.4,5.4-1.4,5.4-5.4,5.4-17.6-.1-35.2,0-52.8-.1-1.8,0-3.6.5-5.5-.7,2.8-5.1,2.5-10.7,2.5-16.3A3.33,3.33,0,0,0,219.24,505.39Z" transform="translate(-3.14 -2.49)" fill="#c9ecf0"/><path d="M225.74,183.29c-2-4-3.7-8.2-5.9-12.1-4-6.7-3.7-13.2.5-19.7,5.7-4.7,11.9-6.6,19-3.4a22.58,22.58,0,0,1,6.2,6.5c.5,2.9,1,5.9,1.5,8.8-2.2,7.9-7.4,14.2-10.4,21.7-1.2,2.4-2.5,4.8-3.7,7.2-2.4,2.8-2.3-.9-3.4-1.4C228.24,188.49,227,185.89,225.74,183.29Zm13.3-21.6c-.1-3.4-3.8-7-7.2-7-3.7,0-7.3,3.8-7.2,7.5a7.8,7.8,0,0,0,7.2,7C235.54,169.29,239.24,165.39,239,161.69Z" transform="translate(-3.14 -2.49)" fill="#1f48dd"/><path d="M179.24,120.59h45c0,5.8.1,11.7,0,17.5-.1,4.4-1.6,5.4-5.6,3.7-12-5.2-24.1-10.4-36.1-15.7C180.24,125.09,178.64,123.39,179.24,120.59Z" transform="translate(-3.14 -2.49)" fill="#59bda6"/><path d="M348.24,481.39a34.25,34.25,0,0,1,33.8,34.3c-.2,18.2-15.9,33.6-34.2,33.5-18.6-.1-33.6-15.5-33.5-34.4A33.7,33.7,0,0,1,348.24,481.39Zm22,34.1a22.73,22.73,0,0,0-22.6-23c-11.6.1-22.1,10.8-22.3,22.6s10.2,22.2,22.3,22.3C360.64,537.59,370.14,528.29,370.24,515.49Z" transform="translate(-3.14 -2.49)" fill="#9c9ba1"/><path d="M395.44,523.79c.6-.3,1.2-.7,1.9-1,1.7.6,1.8,2,2,3.6.5,6,2.8,8,8.8,8.1H435c1.7,0,3.8-.6,4.5,2-.5,12.5-8.4,22.3-21,26.3-16.2,0-32.5,0-48.7-.1-2.3,0-4.7.5-6.8-.9,13.1-5.1,23.5-13.4,29.3-26.6C393.74,531.49,395.34,527.79,395.44,523.79Z" transform="translate(-3.14 -2.49)" fill="#1f48dd"/><path d="M362.94,561.69c2.1,1.4,4.5.9,6.8.9,16.2.1,32.5.1,48.7.1a1.7,1.7,0,0,1-.1.7h-59.5A5.16,5.16,0,0,1,362.94,561.69Z" transform="translate(-3.14 -2.49)" fill="#9c9ba1"/><path d="M282.84,511.49c-8.5-2.3-17-4.6-25.6-6.9-4.2-2.1-8.5-4.1-10.2-9,4-2.9,8-.3,11.8.3,12.1,2,24.2,4.4,36.3,6.6.1.6.1,1.3.2,1.9l-.2.2a6.27,6.27,0,0,0-1.7,5.2c-1,4.7-4.8,2-7.3,2.6C285,512.19,283.94,511.79,282.84,511.49Z" transform="translate(-3.14 -2.49)" fill="#e9973a"/><path d="M179.24,505.49h24c0,4.3-.1,8.6.1,12.9.1,2.9-.7,4.2-3.9,4.1-5.4-.2-10.9-.2-16.4,0-3.2.1-4-1.2-3.9-4.1C179.34,514.09,179.24,509.79,179.24,505.49Z" transform="translate(-3.14 -2.49)" fill="#c9ecf0"/><path d="M293.54,509.89a6.27,6.27,0,0,1,1.7-5.2C295,506.49,295.34,508.49,293.54,509.89Z" transform="translate(-3.14 -2.49)" fill="#eaaf54"/><path d="M773.34,516.39c7.2,2.2,14.5.4,21.8,1a54.15,54.15,0,0,1,6,15c-5.3,0-10.6.1-15.9.1-9,0-12.3-3.4-12.2-12.3v-2.5C773.14,517.29,773.24,516.89,773.34,516.39Z" transform="translate(-3.14 -2.49)" fill="#e9973a"/><path d="M836.94,522.09c-3.1,9.7-10.8,11.1-19.5,10.7-1-3.4-2.8-6.7-2.4-10.4.4-1.8-1.1-5,2.4-4.9,5.2.2,10.4-1,15.7-.1h0c.2.4.5.7.7,1.1l.2.3c.1.2.3.3.4.5C835.24,520.29,836.74,520.59,836.94,522.09Z" transform="translate(-3.14 -2.49)" fill="#e9973a"/><path d="M811,506.29c-4.6-10.7-5.7-21.5-.5-33,3.4,11.1,6.9,22,14,31-3.5-1.3-7.1-.8-10.7-.9C811.94,503.29,810.94,504.19,811,506.29Z" transform="translate(-3.14 -2.49)" fill="#f5ca7f"/><path d="M811,506.29c-.1-2.1.8-3,2.9-2.9,3.6.1,7.2-.4,10.7.9,3.1,4.2,6.7,8.1,8.5,13.1-5.2-.9-10.4.3-15.7.1-3.5-.1-2,3-2.4,4.9C812.64,517.29,811.94,511.79,811,506.29Z" transform="translate(-3.14 -2.49)" fill="#eaaf54"/><path d="M811.34,552.39a2.35,2.35,0,0,1-1.8-2" transform="translate(-3.14 -2.49)" fill="#193658"/><path d="M821,549.39c-.1.6-.2,1.3-.3,1.9" transform="translate(-3.14 -2.49)" fill="#193658"/><path d="M833.84,518.49c-.2-.4-.5-.7-.7-1.1A10.54,10.54,0,0,1,833.84,518.49Z" transform="translate(-3.14 -2.49)" fill="#eaaf54"/><path d="M834.54,519.19a1,1,0,0,1-.4-.5l.4.1Z" transform="translate(-3.14 -2.49)" fill="#eaaf54"/><path d="M439.44,536.39c-.7-2.5-2.8-2-4.5-2H408c-6,0-8.3-2.1-8.8-8.1-.1-1.6-.2-3-2-3.6.1-1.8,1.5-1.6,2.7-1.6,3-6.5,8.9-4.6,13.9-4.6q123.6,0,247.2-.1a22.62,22.62,0,0,1,7.8,1c.1.3.2.7.3,1v1.3c1.3,12.8-2.9,14.5-14.4,14.5q-105-.15-210-.1C442.84,534.19,440.34,533.49,439.44,536.39Z" transform="translate(-3.14 -2.49)" fill="#e9973a"/><path d="M755,515.09c0,18.8-16.7,36.1-35.2,34.8a34.46,34.46,0,0,1-22.5-10.6c-6.4-6.7-9.9-14.6-10-23.8-.3-18.6,15.3-34,34-34A33.76,33.76,0,0,1,755,515.09Zm-56-.1c-1.4,12.6,11.7,23.1,21.9,22.7,12.3-.5,23.2-9.9,22.8-21.6-.5-14.1-9.1-22.8-22.8-23.3C708.84,492.19,699,502.69,699,515Z" transform="translate(-3.14 -2.49)" fill="#9c9ba1"/><path d="M810.34,331.49" transform="translate(-3.14 -2.49)" fill="#f2755b"/><polygon points="806.4 560.6 894.6 560.8 879 494.3 858.5 480.5 844.5 478.9 831.2 485.4 806.4 560.6" fill="#6d6d6d"/><path d="M321.14,120.59h62c1.9,9.2,1.9,18.4,2.1,27.7.4,19.6,2.9,39.1,1.9,58.7-.1,2.1,2.5,4.7.1,5.9-2,1-4.5-1-6.8-1.9-13.3-5.2-26-11.6-39.4-16.8-5.5-2.1-10.7-4.8-16.4-6.5-3.2-1-3.5-3.3-3.5-6.2C321.24,161.19,321.14,140.89,321.14,120.59Z" transform="translate(-3.14 -2.49)" fill="#7ce0dd"/><path d="M236.64,185.19c3-7.4,8.3-13.8,10.4-21.7,6.2.1,11.3,3.4,16.8,5.5,11.2,4.2,21.7,10.1,33.1,14.1,9.4,3.3,18.1,8.5,27.6,11.7,1.9.6,2.7,2.3,2.7,4.4v25.5c0,2.3-.6,4-3.4,3.6-14.8-2-29.8-1.5-44.7-1.8-12.2-.3-24.4-2.9-36.7-1.9-3.3.3-3.2-2-3.2-4.3v-28.4C239.24,189.19,239.24,186.69,236.64,185.19Z" transform="translate(-3.14 -2.49)" fill="#7ce0dd"/><path d="M425.14,257.69c0,5-.1,10,0,15,.1,2.7-.8,4.1-3.7,3.8-13.3-1.1-26.7-2-40-3.5-5.7-.6-11.3-.4-16.9-.5-8.7-.2-9.4-1-10.5-9.7-1.2-9.1-.8-18.2-.9-27.3-.1-6.8-.3-7-7.1-7-12.4-.1-10.9,1.5-10.9-10.8,0-4.5-.1-9,0-13.5.1-2.5.5-4,3.9-2.5,15.4,6.7,30.9,13.3,46.3,20.1,11.7,5.1,23.3,10.6,35.5,14.7,3.2,1.1,4.4,3.1,4.3,6.3C425,247.79,425.14,252.79,425.14,257.69Z" transform="translate(-3.14 -2.49)" fill="#59bda6"/><path d="M391.14,120.59h34q0,52.2.1,104.4c0,3.7-.9,5-4.4,3.5-6.3-2.6-12.5-5.7-19-8-5.3-1.9-6.6-5.7-6.7-10.5,0-5.8.4-11.7-.1-17.5-1.8-21.3-1-42.7-3.8-63.9C390.94,125.89,391.24,123.19,391.14,120.59Z" transform="translate(-3.14 -2.49)" fill="#7ce0dd"/><path d="M341.14,326.49c-9.2-7.6-18.3-15.3-27.4-23-4.6-3.8-9-7.8-13.6-11.6a8.33,8.33,0,0,1-3-7c.1-14.2.1-28.3.1-42.5,11.8,0,23.6.1,35.5-.1,4.6-.1,6.8,1.6,6.6,6.4a257.9,257.9,0,0,0,1.1,37.3C341.74,299.59,340.74,313.09,341.14,326.49Z" transform="translate(-3.14 -2.49)" fill="#7ce0dd"/><path d="M638.44,502.39c-18.6-.3-37.3-.7-55.8-1.3-13.3-.5-26.6.1-39.9-.8-8.3-.6-16.6-.9-24.9-.8-4.4.1-3.6-2.8-3.6-5.4V389.19c0-11.8.1-23.7-.1-35.5,0-3.3,1-4.4,4.3-4.3a222.89,222.89,0,0,1,39.8,4.7c20.6,4.1,38.6,14.3,57.2,23.2,7.5,3.6,14.8,7.6,22.3,11.3,11.7,5.8,23.1,12.3,34.6,18.6,2.5,1.4,3,3,2.1,6.1a400.17,400.17,0,0,0-9.4,42.1c-2,11.9-3.5,23.9-4.6,35.9-.1,1-.2,2-.2,3-.3,8.3-.3,8.3-8.7,8.2H645C642.74,502.39,640.54,502.39,638.44,502.39Zm-86.3-90c2.1.1,4.1.1,6.2.2,14.2,3.1,28.6,1.3,42.9,1.8h7.1c11.4.5,22.8.9,34.2,1.3,1.9.1,4,.4,5.6-1.2,4.3-2.6,3.9-6.1,1.6-9.8-2.2-3.5-5.7-5.6-9.1-7.7-15.4-9.6-31.3-18.4-47.5-26.4-10.9-5.4-22.1-10.4-34.3-12-9.1-1.1-18.2-1.5-27.4-1.9-7.1-.4-10,2.5-10.1,9.8-.1,11.5,0,23,0,34.5,0,4.2,1.3,7.5,5,9.6.8,1.6,2.3,1.7,3.8,1.8Zm-11,11.1h-15c-2,0-3.1.7-3.1,2.9,0,2,.6,3.1,2.8,3.1h29.9c2.3,0,3.2-1.3,3.2-3.5,0-2.4-1.7-2.4-3.5-2.4C550.84,423.49,546,423.49,541.14,423.49Z" transform="translate(-3.14 -2.49)" fill="#f77908"/><path d="M511.14,423.89c0,23-.1,46,.1,69,.1,4.7-1.4,5.8-5.9,5.8-16.3-.3-32.7.1-49-.2-15.4-.3-30.8-1.3-46.3-1.8a3.81,3.81,0,0,1-3.9-3.1,57.77,57.77,0,0,0-21.5-29.7c-8.3-6-17.8-9.4-27.8-11.2a102.64,102.64,0,0,0-24.7-2c-1.6.1-2.7-.3-3.1-2.3-2.5-12.3-5.2-24.6-7.9-36.9a8.56,8.56,0,0,1,2.7-8.6c8.9-8,17.4-16.5,26.6-24,12.2-9.8,24.6-19.6,40.2-23.6,8.7-2.2,17.7-2.8,26.5-3.5,29.4-2.3,58.8-2.2,88.2-2.2,4.3,0,5.7,1,5.6,5.5C511,377.89,511.14,400.89,511.14,423.89Zm-115.5-12.3c15.9,1,31.8.9,47.7.7,17.6.2,35.2.7,52.8.1,5.7-.8,7.7-4.8,8.1-9.7,1-13.8,1-27.6.9-41.4,0-4.7-2.9-7.8-7.1-8-6.5-.4-13-.9-19.5-.8-13.2.1-26.4-.5-39.7,1.5-7.2,1.1-14.8.6-22.1,1.9-30.3,5.4-54.5,21.2-74.8,43.6-5,5.5-3.1,10.3,4.4,11.8Zm-35.2,14.9h13.9c2.2,0,3.9-.2,3.8-3.1-.1-2.6-1.5-2.9-3.6-2.9h-27.9c-2,0-3.5.2-3.6,2.9-.1,2.9,1.6,3.2,3.8,3.1C351.44,426.39,355.94,426.49,360.44,426.49Z" transform="translate(-3.14 -2.49)" fill="#f77908"/><path d="M239,161.69c.1,3.6-3.6,7.5-7.2,7.5s-7-3.5-7.2-7c-.1-3.7,3.5-7.5,7.2-7.5C235.24,154.69,238.94,158.29,239,161.69Z" transform="translate(-3.14 -2.49)" fill="#eafbfb"/><path d="M370.24,515.49c-.1,12.8-9.6,22.1-22.6,22-12.1-.1-22.5-10.5-22.3-22.3s10.7-22.5,22.3-22.6C360,492.39,370.34,502.79,370.24,515.49Z" transform="translate(-3.14 -2.49)" fill="#c9ecf0"/><path d="M699,515c0-12.3,9.8-22.7,21.9-22.3,13.7.5,22.3,9.2,22.8,23.3.4,11.7-10.5,21.1-22.8,21.6C710.74,538.09,697.64,527.59,699,515Z" transform="translate(-3.14 -2.49)" fill="#c9ecf0"/><path d="M526.34,410.59c-3.7-2.1-5.1-5.4-5-9.6.1-11.5,0-23,0-34.5,0-7.2,3-10.1,10.1-9.8,9.1.5,18.3.8,27.4,1.9,12.2,1.5,23.4,6.6,34.3,12a499.63,499.63,0,0,1,47.5,26.4c3.4,2.1,6.9,4.2,9.1,7.7,2.3,3.7,2.7,7.2-1.6,9.8-8-.4-16.1.3-24.1-.7-5.1-.7-10.5-1.2-15.7.6h-7.1c-.1-.2-.2-.5-.3-.7a3.09,3.09,0,0,0,.2-.8.45.45,0,0,0-.3-.3c-7.4,0-14.8,0-22.1-.1a1.34,1.34,0,0,1-2,.1c-5.8-1.9-11.6-1.3-17.4-.3l-.9.3c-2.1-.1-4.1-.1-6.2-.2-.3-.3-.6-.5-.9-.8-1.2-1.7-3-1.1-4.6-1.1-6.3-.1-12.6,0-18.9,0C527.24,410.49,526.74,410.59,526.34,410.59Z" transform="translate(-3.14 -2.49)" fill="#193658"/><path d="M541.14,423.49h14.5c1.7,0,3.4,0,3.5,2.4,0,2.2-.9,3.5-3.2,3.5H526c-2.2,0-2.8-1.1-2.8-3.1,0-2.2,1-2.9,3.1-2.9C531.24,423.49,536.24,423.49,541.14,423.49Z" transform="translate(-3.14 -2.49)" fill="#eaaf54"/><path d="M558.34,412.59a3.18,3.18,0,0,1,.9-.3l17.4.3a1.34,1.34,0,0,0,2-.1c7.3,1.9,14.9.6,22.3,1.2.1.2.2.5.3.7C586.84,413.89,572.44,415.69,558.34,412.59Z" transform="translate(-3.14 -2.49)" fill="#9c9ba1"/><path d="M608.24,414.39c5.2-1.8,10.6-1.3,15.7-.6,8.1,1,16.1.4,24.1.7-1.6,1.6-3.7,1.3-5.6,1.2C631,415.29,619.64,414.79,608.24,414.39Z" transform="translate(-3.14 -2.49)" fill="#1b1b1c"/><path d="M360.44,426.49H347c-2.2,0-3.9-.2-3.8-3.1.1-2.6,1.6-2.9,3.6-2.9h27.9c2,0,3.5.3,3.6,2.9.1,2.9-1.6,3.2-3.8,3.1C369.74,426.39,365,426.49,360.44,426.49Z" transform="translate(-3.14 -2.49)" fill="#eaaf54"/><path d="M551.24,411.59c.3.3.6.5.9.8-7.3,0-14.6-.1-22-.1-1.5,0-3-.2-3.8-1.7.4,0,.9-.1,1.3-.1C535.44,412.19,543.34,411.19,551.24,411.59Z" transform="translate(-3.14 -2.49)" fill="#9c9ba1"/><path d="M443.34,412.39c-15.9.2-31.8.2-47.7-.7h30.3a2.39,2.39,0,0,0-2.2-1.1c-24.6,0-49.2-.1-73.8-.1-1.3,0-2.7-.3-3.8.8-7.6-1.5-9.4-6.3-4.4-11.8,20.3-22.5,44.5-38.3,74.8-43.6,7.3-1.3,14.9-.9,22.1-1.9,13.3-2,26.5-1.3,39.7-1.5,6.5-.1,13,.5,19.5.8,4.2.3,7.1,3.3,7.1,8,.1,13.8.1,27.6-.9,41.4-.4,4.9-2.4,8.9-8.1,9.7-.9-1.1-2.1-.9-3.2-.9h-46.8C445.14,411.59,444,411.49,443.34,412.39Z" transform="translate(-3.14 -2.49)" fill="#193658"/><path d="M346.24,411.29c1.1-1.1,2.5-.8,3.8-.8q36.9,0,73.8.1a2.39,2.39,0,0,1,2.2,1.1h-30.3C379.24,411.49,362.74,411.39,346.24,411.29Z" transform="translate(-3.14 -2.49)" fill="#1b1b1c"/><path d="M961.14,562.49c-5.5.9-6.1-1.8-6.1-6.5.2-36.8,0-73.6.2-110.4,0-4.6-1-6.4-6-6.2-10.1.4-20.3-.1-30.5.2-4.7.2-5.8-1.4-5.8-5.9.2-26.8,0-53.6.2-80.4,0-3.7-1-4.9-4.8-4.8-9.8.2-19.7.1-29.5.1-6.1,0-6.7.6-6.8,6.9-.1,8.7,0,17.3,0,26,0,8,.6,7.1-6.8,7.1H842a5.24,5.24,0,0,1-3-1.2v-8.7c0-.2.1-.4.1-.6a.35.35,0,0,0-.1-.2V302s5.4-8.7-13.1-7.4-41.8,1-41.8,1l-.9,79.2-17.1-.2a25.72,25.72,0,0,0,1-7.8c-.1-8.6,0-17.2,0-25.8-1.2-.1-2.3-.2-3.5-.2-7.8-.1-7.8-.1-7.2,7.7.1.8.5,1.7-.6,2a1.87,1.87,0,0,1-2.5-1.1c-3.3-8.7-10.4-8.9-18.2-8.8-19.4.4-38.9.1-58.4.1-6.5,0-7.5-1-7.5-7.5v-38.4c-9.8-.2-8-.4-8.1,7.8-.1,11.7-.1,23.3,0,35,.1,3.9-1.3,5.3-5.2,5.3s-4.8-1.5-4.9-5.1c-.3-17.1-.3-34.2-.6-51.3-.5-25.9-1.5-51.9-1.2-77.8,0-4.2-1.6-4.9-5.3-4.9-16,.2-32,.3-48-.1-5-.1-6,1.5-6,6.2.2,20.8,0,41.6.2,62.5,0,4.1-1.3,5.8-5.5,5.5a47.75,47.75,0,0,0-10,0c-4.8.6-5.7-1.5-5.7-5.9.2-34.6.1-69.3.1-103.9,0-3.6-.4-5.9-4.8-5.3-2.8.4-3.3-1.3-3.3-3.7.1-5.5-.1-11,.1-16.5.1-2.7-.9-3.8-3.7-3.8-18.2.1-36.3.1-54.5,0-3.2,0-4,1.2-3.9,4.2.2,5.3,0,10.7.1,16,.1,2.6-.6,4.2-3.6,3.9-2.6-.3-3.6.9-3.5,3.5.2,9.7.2,19.3.3,29,3.9-1.3,7.3-3.7,11.4-4.8,16.5-4.2,30.3.6,40.5,13.6s11.6,27.6,3.6,42.5q-16.35,30.45-32.7,61c-.6,1.1-.8,2.9-2.4,2.8-1.3-.1-1.3-1.7-1.9-2.7-6.2-12.1-12.4-24.1-18.7-36.2,0,14-.2,28-.1,41.9,0,4.2-1.4,5.9-5.5,5.4h-1c-7.5,0-7.5,0-7.5-7.3,0-12-.2-24,.1-35.9.1-4.5-1.1-6.5-5.8-5.8-4.2.6-5.6-1.4-5.4-5.5.3-3.8.1-7.7.1-11.5,0-7,0-7-6.9-7-2.7,0-5.8.7-7.8-.5-3-1.7.6-4.8-.2-7.3a10.05,10.05,0,0,1,0-3v-46.4c0-11.8,0-11.8-11.9-11.8-.1,16.5-.2,32.9-.2,49.4v110.4c24,.1,47.9.5,71.9.1,13.7-.3,27.2,1.4,40.7,2.4,10.7.8,20.6,5.3,30.5,9.3,20.1,8.2,39.8,17.3,59.4,26.4,20.1,9.4,40.1,19.2,60.2,28.6a393.57,393.57,0,0,0,50.4,19.3,207.89,207.89,0,0,0,35.9,8.3v-.3a392.77,392.77,0,0,0,43.8,6c1.8,14.6,3.6,29.2,5.2,43.9a34.9,34.9,0,0,0,2.9,10.5q9.45,21.15,18.7,42.5c.7,1.5,1.1,3.1,1.7,4.7.6.4,1.2.9,1.8,1.3,4.8.2,5.8,2.5,4,6.8a47.53,47.53,0,0,0-4,17.1q48,0,95.9.1c1.7,0,3.7-1,5.1.9a1.18,1.18,0,0,0,1-.1C964.64,561.79,962.54,562.19,961.14,562.49Z" transform="translate(-3.14 -2.49)" fill="#6d6d6d"/><path d="M443.34,412.39c.7-.9,1.8-.8,2.8-.8h46.8c1.1,0,2.4-.2,3.2.9C478.54,413.09,460.94,412.49,443.34,412.39Z" transform="translate(-3.14 -2.49)" fill="#1b1b1c"/><path d="M600.84,413.69c-7.4-.6-14.9.7-22.3-1.2,7.4,0,14.8,0,22.1.1a.45.45,0,0,1,.3.3A1.18,1.18,0,0,1,600.84,413.69Z" transform="translate(-3.14 -2.49)" fill="#1b1b1c"/><path d="M551.24,411.59c-7.8-.5-15.7.6-23.5-1.2h18.9C548.24,410.49,550,410,551.24,411.59Z" transform="translate(-3.14 -2.49)" fill="#1b1b1c"/><polygon points="824.5 529.4 777.1 530.4 777.1 560.7 841.9 560.5 824.5 529.4" fill="#6d6d6d"/><path d="M576.54,412.59l-17.4-.3C565,411.19,570.84,410.69,576.54,412.59Z" transform="translate(-3.14 -2.49)" fill="#1b1b1c"/><path d="M779.14,502.49l58.7.9s.9-15.5-3.5-25.2-19.3-36-19.3-36l-6.5-8h-19.1Z" transform="translate(-3.14 -2.49)" fill="#f77908"/><polygon points="772.7 499.9 834.7 500.9 833.7 515.1 774.8 514.6 772.7 499.9" fill="#eaaf54"/><path d="M782.44,517.59h54.4s1.5,4.3-1.6,7.4-14.3.2-14.3.2l-34.8-2.8Z" transform="translate(-3.14 -2.49)" fill="#e9973a"/><path d="M818.44,517.59l-31.4.9s1.2,9.6,2.4,9.6,7.6,3,7.6,3l1.2.8,1.2,1,28.2-1Z" transform="translate(-3.14 -2.49)" fill="#e9973a"/><g id="chica.psd"><path d="M785.64,346c.3-1.3,1.4-2.3,2-3.4a39.74,39.74,0,0,1,2.8-3,7,7,0,0,0,1.6-1.9,47.4,47.4,0,0,1,3.8-7c.5-.4,1.2-.4,1.8-.7,1.9-1,3.8-2.1,5.6-3.2a4.94,4.94,0,0,1,1.8-.8c0,1.3-.4,2.5-.4,3.8s.6,1.6,2,1.1a12.8,12.8,0,0,0,3.9-2.4,28.48,28.48,0,0,0,2.6-2.3c1-1.1,1.6-2.3,2.6-3.4.4-.5.9-.5,1.6-.3a25.71,25.71,0,0,0,5.5,1.2,17,17,0,0,1,2.2.4c.4.1.2-.3.4-.3.1.2-.1.5.2.7a6.2,6.2,0,0,1-.6,4,17.49,17.49,0,0,0-.8,5.9c0,1.6,0,3.3.1,4.9a25,25,0,0,0,1.3,6.5c.2.5.9.7.9,1.3a46.81,46.81,0,0,1-5.4,11,19.82,19.82,0,0,0-1.9,3.1c-1,2.5-2,5-3.1,7.5a2.23,2.23,0,0,0,.2,2.1c2.7,4.7,5.8,9.3,8.8,13.9,2.4,3.7,4.8,7.3,7.2,11a7.46,7.46,0,0,0,.7,1.2c3.2,5.1,6.4,10.2,8.5,15.7a51.49,51.49,0,0,1,2.3,5.4,7.74,7.74,0,0,0,.7,1.6,13.24,13.24,0,0,1,2.1,8.4,3.39,3.39,0,0,1-.7,1.8c-.8,1.1-1.9,1.9-2.7,2.9-1,.6-2.1,1.3-3.1,1.8a25.77,25.77,0,0,1-7.8,2.7l-1.1.3a37.43,37.43,0,0,1-5.8,0h-.7c-1.4-.5-3-.5-4.5-1a3.81,3.81,0,0,0-.1-1.5,62.82,62.82,0,0,0-2.5-7.3c-.9-2.4-2.3-4.6-3.2-7.1-1.2-3.3-2.4-6.7-3.6-10a37.06,37.06,0,0,0-1.9-4.6,1.46,1.46,0,0,0-1.4-.9c-.7,0-1,.5-1.3,1a11.22,11.22,0,0,0-.8,2.6c-.5,2.1-.8,4.2-1.1,6.3a54,54,0,0,0-.8,5.8c-.1,1.2-.3,2.5-.4,3.7-.3,2.5-.6,5-.9,7.6a30.45,30.45,0,0,0-9.5,1c1.2-3,2.4-6.1,3.5-9.2q2.25-6.45,3.9-13.2c1-3.9,2-7.8,2.8-11.8.6-3.1,1.2-6.2,2-9.2,2-7.4,3.9-14.9,4.3-22.6a5.89,5.89,0,0,1,1-3.4,14.53,14.53,0,0,0,1.8-3.2,13.91,13.91,0,0,0,1.5-6.9,1.91,1.91,0,0,0-1.2-1.9,13.3,13.3,0,0,0-4.8-1,24,24,0,0,1-5.9-1.3,12.47,12.47,0,0,0-6.9-1.1,9.86,9.86,0,0,1-3.8-.2C789,347.39,787.34,346.69,785.64,346Z" transform="translate(-3.14 -2.49)" fill="#59bda6"/><path d="M785.64,346a41.35,41.35,0,0,0,5.3,1.9,12.31,12.31,0,0,0,3.8.2,12.47,12.47,0,0,1,6.9,1.1,24,24,0,0,0,5.9,1.3c1.6.3,3.3.2,4.8,1a2.16,2.16,0,0,1,1.2,1.9,15.08,15.08,0,0,1-1.5,6.9,20.16,20.16,0,0,1-1.8,3.2,5.89,5.89,0,0,0-1,3.4c-.3,7.7-2.3,15.1-4.3,22.6-.8,3-1.4,6.1-2,9.2-.7,4-1.8,7.9-2.8,11.8q-1.65,6.6-3.9,13.2c-1.1,3.1-2.3,6.1-3.5,9.2a8.56,8.56,0,0,0-2.3.5,25.79,25.79,0,0,1-6.2.9H782c-4.1-.2-7.5-2-10.7-4.3a56.81,56.81,0,0,1-6.8-6.1c-.2-.2-.3-.4-.7-.4-1.2-.1-1.3-.3-1.2-1.3a35.28,35.28,0,0,1,1.4-5.6,118,118,0,0,1,7.2-16.8c2.5-5.1,5.2-10.1,7.9-15.2.1-.2.2-.5.3-.7a4.35,4.35,0,0,0,.4-.7c2.2-4,4.4-7.9,6.8-11.8a1.88,1.88,0,0,0,.5-1.1,29.54,29.54,0,0,1,.2-4.2c.3-2.8-.7-5.6-.3-8.4a7.73,7.73,0,0,0-.8-4.5c-.4-1.2-.9-2.4-1.2-3.6A5,5,0,0,1,785.64,346Z" transform="translate(-3.14 -2.49)" fill="#3d8e7d"/><path d="M782,434.29h2.2a33.12,33.12,0,0,0,6.2-.9,9.48,9.48,0,0,1,2.3-.5,30.45,30.45,0,0,1,9.5-1,2.48,2.48,0,0,1,.9.1c1.9.5,3.9.7,5.9,1.3,2.2.6,4.5,1.3,6.7,1.9,1.5.4,2.8,1.3,4.4,1.2,1.5.5,3,.5,4.5,1,.2.1.4,0,.7,0a37.43,37.43,0,0,0,5.8,0c.6,3.3,1.2,6.7,1.9,10a.64.64,0,0,0,0,.6v.4a4.59,4.59,0,0,0-.7,1.6,119.85,119.85,0,0,1-7.9,18.9,5.18,5.18,0,0,1-1.4,2.2,85,85,0,0,1-3.6-8.2c-2.8-6.4-5.8-12.7-8.8-19-1.4-2.9-2.7-5.8-4.1-8.7a1.16,1.16,0,0,0-.6-.8,28.86,28.86,0,0,0-.4,2.9c-.5,4.2-1.1,8.4-1.5,12.7-.4,4-.7,8-.9,11.9-.2,4.4-.1,8.7-.4,13.1a21.34,21.34,0,0,0,2.8,11.5,46,46,0,0,0,3.9,6.8c2,2.8,2,5.9,1.8,9-.2,2.5-.4,5-.5,7.5-.3,3.8-.5,7.6-.8,11.4a38.46,38.46,0,0,0,.1,4.8c.3,3.1.4,6.3,1,9.4-1.7.9-3.4,2-5.2,2.8a15.18,15.18,0,0,1-6,1.5c-.1-3.8-.3-7.6-.7-11.4-.3-3.1-.6-6.3-1.1-9.4-.5-3.5-1.1-7.1-1.7-10.6v-.7a2.62,2.62,0,0,0-.6-3v-.1c0-.1-.1-.2-.1-.3a136.19,136.19,0,0,0-3.3-15.4c-1.4-5.2-2.4-10.4-3.4-15.7-.5-2.3-.7-4.5-1.4-6.8-1.7-5.9-1.9-12-3.2-17.9C783.44,443.69,782.74,439,782,434.29Z" transform="translate(-3.14 -2.49)" fill="#f2806d"/><path d="M825.44,323.59c-.2,0-.1.4-.4.3-.7-.1-1.5-.3-2.2-.4.8.1.8-.4.7-.9-.4-2.4-.8-4.8-1.3-7.3-.2-1-.5-2-.8-3.1a1,1,0,0,0-.8-.7.89.89,0,0,0-.8.5c-.2.5-.5,1-.7,1.5-1.2,2.9-2.2,5.8-3.6,8.6a42.48,42.48,0,0,1-1.2-6,12.56,12.56,0,0,0,1.2-6.6,4.89,4.89,0,0,0-.8-2.3c-.2-.3-.5-.6-.9-.2a3.8,3.8,0,0,0-1.6,3c.1.8-.3,1.2-1.1,1.5a10.61,10.61,0,0,1-4.7.2c-4.6-.6-8.1-3-11.2-6a24.26,24.26,0,0,1-2.4-3,17.77,17.77,0,0,0-1,3.6c-.4,2.7-1.3,5.4.8,7.9a22.6,22.6,0,0,1-2.6-.1c-3.2-.4-5.2-3.4-5.5-6.2-.4-4.2.8-8,2.6-11.8a26.21,26.21,0,0,1,6.1-8.1,11.64,11.64,0,0,1,3.3-1.8c3.7-1.4,7.5-2.6,11.6-2.3a34.27,34.27,0,0,1,12.3,2.6,5.1,5.1,0,0,1,2.2,1.9,24.65,24.65,0,0,1,4.2,8.8,46,46,0,0,1,.6,11.1c-.2,3.2-.6,6.4-1.1,9.6C826.14,320,825.74,321.79,825.44,323.59Z" transform="translate(-3.14 -2.49)" fill="#883813"/><path d="M826.54,346.89c.1-.6-.7-.8-.9-1.3a28.82,28.82,0,0,1-1.3-6.5c-.1-1.6-.1-3.3-.1-4.9a16.84,16.84,0,0,1,.8-5.9,6.1,6.1,0,0,0,.6-4,43.21,43.21,0,0,1,8.8.3,4.18,4.18,0,0,1,2.4,1.4,15.4,15.4,0,0,1,2.3,3.9,4.48,4.48,0,0,1,.1,2.8,3.72,3.72,0,0,0-.2,1.8c.3,4.8.3,9.7.4,14.5.1,4.4.1,8.8.4,13.2.3,4.1.4,8.3.5,12.4a76.19,76.19,0,0,0,1.6,12.6,47.75,47.75,0,0,1,.8,7.5c.3,5.5.1,10.9.2,16.4,0,1.7.9,3.2,1.5,4.8a62.45,62.45,0,0,0,3.5,6.8,12.82,12.82,0,0,1,1.3,5.1c.1,1.7.2,3.5.2,5.2a9.85,9.85,0,0,1-.2,1.7c-.1.9-.9,1.1-1.6,1.4a1.44,1.44,0,0,1-1.5-.5c-1-1-2-2.1-3-3.2a37.06,37.06,0,0,0,2.7-2.9,4.49,4.49,0,0,0,.7-1.8,12.65,12.65,0,0,0-2.1-8.4,7.74,7.74,0,0,1-.7-1.6,51.49,51.49,0,0,0-2.3-5.4c-2.1-5.5-5.4-10.6-8.5-15.7a7.46,7.46,0,0,0-.7-1.2c0-.1.1-.2,0-.3-.8-3.2-1.6-6.3-2.4-9.5a11,11,0,0,1-.6-2.6,40.28,40.28,0,0,0,.3-4.9,16.09,16.09,0,0,1,0-3.8,33,33,0,0,0-.3-8.3c-.3-3.4-.7-6.8-1.1-10.2-.3-2.7-.5-5.4-.8-8a12.29,12.29,0,0,0-.5-2.5C826.54,345.89,826.74,346.39,826.54,346.89Z" transform="translate(-3.14 -2.49)" fill="#f5ca7f"/><path d="M823,471a6.36,6.36,0,0,0,1.4-2.2,119.85,119.85,0,0,0,7.9-18.9,5.58,5.58,0,0,1,.7-1.6,9.85,9.85,0,0,1,.8,2.8c1.2,5.2,2.5,10.3,3.9,15.5.8,2.9,2.8,5.2,4.4,7.6,2.2,3.3,5,6.3,7.4,9.5,1.9,2.7,4.1,5.2,5.2,8.3a27.47,27.47,0,0,1,1.5,6.9,57.82,57.82,0,0,0,1.2,5.7c1,4.7,1.9,9.4,2.6,14.1a5,5,0,0,1,.2,1.7c-1.4-.1-1.2.9-1.3,1.6a9.93,9.93,0,0,1-5.2,7.1,3.18,3.18,0,0,1-3.4.3,31.6,31.6,0,0,0-1.1-6,143.12,143.12,0,0,0-5.2-16.5,96,96,0,0,0-7-15.3c-2.8-4.9-6.4-9.3-9.9-13.8-2.3-1.5-2.6-3.9-3.8-6A1.6,1.6,0,0,0,823,471Z" transform="translate(-3.14 -2.49)" fill="#f5ca7f"/><path d="M799.74,539.49a15.62,15.62,0,0,0,6-1.5,52.06,52.06,0,0,0,5.2-2.8c.2-.1.3-.2.5-.3.9-.4,1.5-.1,1.5.7.2,2.7.4,5.5.5,8.2.2,3.7.4,7.4.3,11.1,0,2-.2,4-.2,6s-.7,2-2.6,2.1c-3.3.1-5.4,1.4-6.6,4-.8,1.8-2.2,3.2-3.3,4.9a2.56,2.56,0,0,1-1.9.8,50.68,50.68,0,0,1-10.3.2,37.47,37.47,0,0,1-6.7-1.1l-.9-.3c-1.1-.5-1.3-1.4-.4-2.1a37.76,37.76,0,0,0,7.5-8,57.76,57.76,0,0,0,6.3-10.7c.7-1.7,1.1-3.5,1.9-5.1a12.7,12.7,0,0,0,1.7-4c.1-.4.3-.7.2-1.1C798.44,539.69,798.94,539.49,799.74,539.49Z" transform="translate(-3.14 -2.49)" fill="#010101"/><path d="M850.44,529.39c1.2.7,2.3.3,3.4-.3A9.43,9.43,0,0,0,859,522c.1-.7-.1-1.7,1.3-1.6.7.5.7,1.2.8,1.9a16.38,16.38,0,0,0,3.7,7c1,1.2,2,2.4,3.1,3.6a4,4,0,0,1,.5,4.3,29.19,29.19,0,0,0-2.4,10.4,72.1,72.1,0,0,1-1,11.4c-.6,3-1.8,4.1-5.3,4.6-4,.6-8.1.9-12.1,1.1a4.87,4.87,0,0,1-1.2-.1c-1-.2-1.6-.8-1.4-1.8a3.91,3.91,0,0,1,1-1.9,28.12,28.12,0,0,0,5.2-12.2,31.59,31.59,0,0,0-.1-9.7c-.4-2.9-1-5.8-1.3-8.7C849.84,530,849.74,529.59,850.44,529.39Z" transform="translate(-3.14 -2.49)" fill="#010101"/><path d="M786.24,353.19a7.87,7.87,0,0,1,.8,4.5c-.4,2.8.6,5.6.3,8.4-.1,1.4-.2,2.8-.2,4.2a2.22,2.22,0,0,1-.5,1.1c-2.4,3.9-4.6,7.8-6.8,11.8a4.35,4.35,0,0,0-.4.7,6.69,6.69,0,0,1-3.4-2.3c-3.8-4.6-7.2-9.5-10.6-14.4-5.5-7.9-10.7-16-16.2-23.9a9.62,9.62,0,0,1-1.9-6.1,48.74,48.74,0,0,0-.2-5.4c0-.4-.1-.8.4-1,1.4,1.9,2.5,3.9,3.7,5.8l8.4,14.4c1,1.8,1,1.8,3,.9.5-.2.5-.4.3-.8a30.71,30.71,0,0,0-1.7-3.1c-2-3.4-3.6-7-5.7-10.3a5,5,0,0,1-.8-1.4c.3-.4.6-.5,1-.1,1.7,1.5,3.9,2.1,6,2.7a4.36,4.36,0,0,1,2.9,2.7,17.24,17.24,0,0,1,1.2,8.4,5.34,5.34,0,0,0,1,2.9,21,21,0,0,0,5,6.2c2.5,2.3,5.2,4.5,7.8,6.8a10.23,10.23,0,0,0,2.2,1.4c1.1.6,1.7.4,2-.7s.4-2.5.7-3.7C785.14,359.59,785.74,356.39,786.24,353.19Z" transform="translate(-3.14 -2.49)" fill="#f5ca7f"/><path d="M790.14,314.39a22.6,22.6,0,0,1,2.6.1,1.69,1.69,0,0,1,.7,1.2,31.09,31.09,0,0,1,.8,4.4,1.11,1.11,0,0,0,1.6.9c.2-.1.4-.1.6-.2.6-.4,1-.3,1.5.3.9,1.1,1.9,2.2,2.9,3.2a2,2,0,0,0,2.3.6c.7-.2,1.3-.5,2-.7.5.7-.1,1.2-.2,1.8a5.83,5.83,0,0,0-1.8.8c-1.8,1.1-3.7,2.2-5.6,3.2-.6.3-1.3.3-1.8.7a19.3,19.3,0,0,0-3.4,1.1,4,4,0,0,0-3.1,2.6c-.1.3,0,.6-.4.7a26.64,26.64,0,0,1-.3-6.3A77.44,77.44,0,0,1,790.14,314.39Z" transform="translate(-3.14 -2.49)" fill="#200101"/><path d="M754.74,336.19a3.92,3.92,0,0,0,.8,1.4c2.1,3.4,3.7,6.9,5.7,10.3a30.71,30.71,0,0,1,1.7,3.1c.2.4.2.6-.3.8-2,.9-2,.9-3-.9l-8.4-14.4c-1.2-2-2.3-3.9-3.7-5.8a17.24,17.24,0,0,0-2.2-3.3c-.4-.5-.8-1-.1-1.7,1.2-1.1,1.7-1.1,2.7.2,2.4,3.1,4.1,6.7,6.4,9.9C754.44,336,754.44,336.19,754.74,336.19Z" transform="translate(-3.14 -2.49)" fill="#060302"/><path d="M789,335.09c.3-.2.3-.5.4-.7a3.66,3.66,0,0,1,3.1-2.6c1.2-.3,2.2-1,3.4-1.1a39.64,39.64,0,0,0-3.8,7,5.81,5.81,0,0,1-1.6,1.9,39.74,39.74,0,0,0-2.8,3,25.67,25.67,0,0,1,.8-4.7A23.25,23.25,0,0,0,789,335.09Z" transform="translate(-3.14 -2.49)" fill="#f5ca7f"/><path d="M795.74,504.39a2.62,2.62,0,0,1,.6,3A10.66,10.66,0,0,1,795.74,504.39Z" transform="translate(-3.14 -2.49)" fill="#f86843"/><path d="M833,447.89a.64.64,0,0,1,0-.6A.64.64,0,0,1,833,447.89Z" transform="translate(-3.14 -2.49)" fill="#fea48f"/><path d="M820.14,436.29c-1.6.1-2.9-.8-4.4-1.2-2.3-.6-4.5-1.3-6.7-1.9-1.9-.5-3.9-.7-5.9-1.3-.3-.1-.6,0-.9-.1.3-2.5.6-5,.9-7.6.1-1.2.3-2.5.4-3.7.2-1.9.5-3.9.8-5.8.3-2.1.6-4.2,1.1-6.3a11.22,11.22,0,0,1,.8-2.6,1.31,1.31,0,0,1,1.3-1,1.57,1.57,0,0,1,1.4.9,26.23,26.23,0,0,1,1.9,4.6c1.2,3.3,2.4,6.7,3.6,10,.8,2.4,2.3,4.7,3.2,7.1a62.82,62.82,0,0,1,2.5,7.3A8.55,8.55,0,0,1,820.14,436.29Z" transform="translate(-3.14 -2.49)" fill="#3d8e7d"/><path d="M805,325.89c.1-.6.6-1.2.2-1.8.1,0,.3-.1.4-.1,2.3-1.9,4.8-3.6,6.9-5.7l1.8-1.8a42.48,42.48,0,0,0,1.2,6c0,.1,0,.3.2.3-.9,1.1-1.6,2.3-2.6,3.4a18.63,18.63,0,0,1-2.6,2.3,12.8,12.8,0,0,1-3.9,2.4c-1.5.5-2,.3-2-1.1S805,327.19,805,325.89Z" transform="translate(-3.14 -2.49)" fill="#f2806d"/><path d="M815.74,322.69c-.2,0-.1-.2-.2-.3,1.4-2.8,2.4-5.8,3.6-8.6.2-.5.5-1,.7-1.5a.79.79,0,0,1,.8-.5.85.85,0,0,1,.8.7,28.06,28.06,0,0,1,.8,3.1c.5,2.4.9,4.8,1.3,7.3.1.5.1,1-.7.9a25.71,25.71,0,0,1-5.5-1.2A1.12,1.12,0,0,0,815.74,322.69Z" transform="translate(-3.14 -2.49)" fill="#200101"/><path d="M814.44,316.39l-1.8,1.8c-2.1,2.1-4.6,3.8-6.9,5.7a.6.6,0,0,1-.4.1,15.87,15.87,0,0,1-2,.7,2,2,0,0,1-2.3-.6c-1-1-2-2.1-2.9-3.2a1,1,0,0,0-1.5-.3,1.42,1.42,0,0,1-.6.2c-.9.2-1.5-.1-1.6-.9-.2-1.5-.5-2.9-.8-4.4a1.52,1.52,0,0,0-.7-1.2c-2.1-2.5-1.2-5.2-.8-7.9a17.77,17.77,0,0,1,1-3.6,24.26,24.26,0,0,0,2.4,3c3,3,6.5,5.4,11.2,6a10.61,10.61,0,0,0,4.7-.2,1.27,1.27,0,0,0,1.1-1.5c-.1-1.2.7-2.1,1.6-3,.4-.4.7-.1.9.2a4.89,4.89,0,0,1,.8,2.3A16.87,16.87,0,0,1,814.44,316.39Z" transform="translate(-3.14 -2.49)" fill="#f5ca7f"/></g></svg>