<svg id="Capa_2" data-name="Capa 2" xmlns="http://www.w3.org/2000/svg" viewBox="0 0 479.5 299.5"><path d="M239.33,299.4q-118.2,0-236.3.1c-2.6,0-3.1-.5-3.1-3.1Q.08,149.7-.07,3.1C-.07.5.43,0,3,0q236.7.15,473.3,0c2.6,0,3.1.5,3.1,3.1q-.15,146.7,0,293.3c0,2.6-.5,3.1-3.1,3.1Q357.83,299.35,239.33,299.4Zm184.3-174.7c-2.8-4.9-7.3-8.3-11.4-12-2.2-2-4.5-4.4-7.8-4.8,0-5-.4-10,.1-14.9.5-4.5-1.5-6.1-5.4-7.4-9.4-3.2-18.7-6.6-27.7-10.6-.9-3.2-3.5-5.2-5.2-7.9-7.2-11-14.9-21.6-24.9-30.1A54.89,54.89,0,0,0,328,28.2c-10.3-4.6-21.1-6.9-32.2-8.5a131.62,131.62,0,0,0-34.9-.4,158.11,158.11,0,0,0-47.1,13.1A189.14,189.14,0,0,0,184,49.9c-8.2,5.9-15.2,13.2-22.1,20.5-8.5,9.1-14.7,20-21.2,30.6-3.6.1-1.8,3-2.3,4.6-2.4.3-3.3,2.5-5,3.9-5.5,4.4-10.8,9-17.9,10.7,0-8-.2-16,0-24,.1-3.3-.7-4.5-4.2-4.3-5.1.3-5.1,0-5.1-5.1-.1-7.2,1-7.4-6.8-7.1-2.3.1-3.2-.7-3.1-3.1.1-3.6.1-7.1,0-10.7,0-5.9.6-5.6-5.1-5.5a7.25,7.25,0,0,1-3.3-.7V41.1c0-1.4.6-3.1-.7-4.3-2.4-.4-3.1.6-3.1,3,.1,5.2-.2,10.5.1,15.7.2,3.9-.9,5.8-5,5-3-.5-3.7.9-3.6,3.7.2,3.8-.1,7.7.1,11.5.2,3.2-.8,4.2-4,4.1-5.8-.2-5.2-.6-5.2,5.4v1.5c0,5.3,0,5.5-5.4,5.2-3.8-.2-4.6,1.1-4.6,4.7.2,19.6.1,39.3,0,58.9-1.9-.2-3,1.2-4.2,2.3-9.4,8.9-17.6,18.6-22.8,30.7-3.6,8.4-5.6,17-4.2,25.9a129.5,129.5,0,0,0,10.2,34.9,37,37,0,0,0,11.1,14.3c-.5,1.2-1.7,1.5-2.6,2.1-3.8,2.3-3.8,4.7-.3,7.2s7.4,3.4,11.3,4.4c21.5,5.4,43.5,7,65.5,9.1,11.5,1.1,23,1.9,34.6,2.3,13.3.5,26.7,1.4,40,1.5,31.9.1,63.7.9,95.6-.5,13.1-.6,26.2-.9,39.3-1.5,15.2-.7,30.4-1.8,45.6-3.2,12.4-1.1,24.7-2.6,36.9-4.7,8.5-1.5,17-2.8,24.8-6.9,4.7-2.5,5.1-5.5.3-7.9-4-1.9-4.7-4.4-4.2-8.1,1.1,0,1.4-.9,1.9-1.6a93.13,93.13,0,0,0,12.3-27.7,114.19,114.19,0,0,0-9.9-84c-1.1-2-1.4-4.8-4.3-5.4,0-1.1,0-2.3-.1-3.4-.1-3.2,1-7.2-.5-9.3C431.13,123.2,426.83,125.2,423.63,124.7Z" transform="translate(0.07)" fill="#fefefe"/><path d="M88.13,59.7a5.36,5.36,0,0,0,3.3.7c5.7-.1,5.1-.4,5.1,5.5,0,3.6.1,7.1,0,10.7-.1,2.4.8,3.1,3.1,3.1,7.8-.3,6.8-.2,6.8,7.1,0,5.1,0,5.3,5.1,5.1,3.5-.2,4.3,1,4.2,4.3-.2,8,0,16,0,24-.6,3.4.6,4.9,4.3,4.7a123.45,123.45,0,0,1,14.9,0c3.2.2,3.9-1.1,3.8-4-.2-5.1-.1-10.2-.1-15.3.5-1.6-1.3-4.5,2.3-4.6,8.5,0,17.1-.1,25.6.1,2.6,0,3.6-.7,3.5-3.4-.2-7,.1-14-.1-21-.1-3.6.8-4.9,4.6-4.8,11.1.3,22.2.2,33.3,0,3.6-.1,4.5,1.1,4.4,4.5-.2,14.9,0,29.8-.1,44.8,0,2.9.8,3.8,3.7,3.7a110.28,110.28,0,0,1,11.5,0c3.1.2,4.2-.8,4.1-4-.2-14.7-.1-29.3-.1-44,0-4.5.5-4.9,4.9-3.3,11.7,4.3,23.3,8.7,35,13.1,1.1.4,2.2.8,2.2,2.3a11.5,11.5,0,0,0-4.2,3.7c-.5.9-1.1,2.4-1.7,2.4-3.6-.1-2.5,2.5-2.7,4.3-.5,4.9,3.6,6.8,6.2,9.7.1,1.2-.2,2.4,1.7,2.9,3.9.9,5.4,3.9,6.1,7.5a2.83,2.83,0,0,1-1.4,2.9c-5.5,3.5-10.5,7.5-13.3,13.6-1.3,2.7-2.4,5.5-3.6,8.3-13.3-1.3-26.5.9-39.8,1.6a1.85,1.85,0,0,0-.7.2c-6.4,1.4-12.9,2.8-19.3,4.1a355.72,355.72,0,0,0-38.1,17.7c-8.7,4.7-17.5,9.1-25.9,14.3-5.9-.3-11.5,1.4-17.3,2-6.9.7-13.7,2.6-20.5,4.1-5.9,1.3-11.9,2.5-17.6,4.7-1.7,0-3.5-.5-4.5,1.5h-.1c-1.2.1-2.8-.6-3.2,1.4-.5.1-.9.1-1.4.2-1.3-.1-2.6-.2-3.1,1.4h0c-1.3,0-2.7-.3-3.1,1.5h0c-1.3,0-2.7-.2-3.1,1.6h0c-1.3-.1-2.5.1-2.9,1.6h-.1l-2.7.6c-.1-1.8-.4-3.5-.4-5.3,0-14.1,0-28.1-.1-42.2,0-19.6.1-39.3,0-58.9,0-3.6.8-4.9,4.6-4.7,5.4.3,5.4.1,5.4-5.2V85c0-6-.5-5.6,5.2-5.4,3.2.1,4.3-.9,4-4.1-.3-3.8.1-7.7-.1-11.5-.1-2.8.6-4.2,3.6-3.7,4.1.7,5.2-1.1,5-5-.3-5.2,0-10.5-.1-15.7-.1-2.3.7-3.4,3.1-3,0,6-.1,11.9,0,17.9C87.33,56.3,86.63,58.2,88.13,59.7Zm157,34.9v2.3c0,2.1-.6,4.3,3,4.3s3.1-2,3.1-4.2c0-1.9-.1-3.8,0-5.7.1-2.5-1.5-2.5-3.2-2.5s-3.1.2-2.9,2.4ZM121,143.2v-1.9c-.1-2.1.7-4.3-3-4.4-3.9,0-3.1,2.3-3.2,4.5v5.3c0,2.4,1.7,2.4,3.5,2.5,2,.1,2.8-.7,2.7-2.7C120.93,145.5,121,144.3,121,143.2ZM83.43,70.9v2.7c0,1.9-.5,3.9,2.7,3.8,2.7,0,3.6-1.2,3.5-3.7-.1-2-.1-4.1,0-6.1.1-2.5-1.4-2.5-3.2-2.5s-3.1.2-2.9,2.4C83.53,68.6,83.43,69.7,83.43,70.9ZM85,127c0-1-.1-2,0-3,.2-2.1-.6-3-2.8-3-2.4,0-2.7,1.1-2.7,3.1q.15,3.45,0,6.9c-.1,1.9.9,2.4,2.6,2.4s3-.3,2.8-2.5C84.93,129.5,85,128.2,85,127Zm99.6-19.9v-2.3c0-1.9.4-3.8-2.7-3.8s-2.7,1.9-2.7,3.8.1,4.1,0,6.1c-.1,1.8.7,2.5,2.5,2.5s3.1-.2,2.9-2.4C184.53,109.6,184.63,108.4,184.63,107.1Z" transform="translate(0.07)" fill="#d8d2fd"/><path d="M273.43,88.9c0-1.5-1.2-1.9-2.2-2.3-11.7-4.4-23.3-8.8-35-13.1-4.4-1.6-4.9-1.2-4.9,3.3,0,14.7-.1,29.3.1,44,0,3.3-1,4.2-4.1,4a110.28,110.28,0,0,0-11.5,0c-2.9.2-3.7-.8-3.7-3.7.1-14.9,0-29.8.1-44.8,0-3.4-.8-4.6-4.4-4.5-11.1.2-22.2.3-33.3,0-3.8-.1-4.7,1.2-4.6,4.8.3,7,0,14,.1,21,.1,2.7-.9,3.5-3.5,3.4-8.5-.1-17.1-.1-25.6-.1,6.5-10.6,12.7-21.4,21.2-30.6,6.9-7.3,13.8-14.7,22.1-20.5A177.66,177.66,0,0,1,214,32.3a158.11,158.11,0,0,1,47.1-13.1,131.62,131.62,0,0,1,34.9.4c11.1,1.6,21.9,4,32.2,8.5a56.9,56.9,0,0,1,13.3,8.8c10,8.6,17.7,19.2,24.9,30.1,1.7,2.6,4.3,4.7,5.2,7.9-2.6-.1-4.8-1.6-7.2-2.4-1.6-.6-2.8-.8-2.8,1.4.4,14.6-.9,29.3.6,43.9.5,4.7-1,6.8-5.5,6.8h-31.4c-8.2,0-8.2,0-8.1-8.3.1-7.8.1-15.6-2.3-23.1-1.1-5.9-2.1-11.8-3.2-17.6-1.3-2,.8-3.5.8-5.3,1.5-.6,2.4-2.6,4.4-1.9-1.9-.1-3.4-1.3-4.8-2.5.1-4.2-1.4-5.7-5.7-5.6-2.6-1.3-4,.6-5.2,2.3-1.4,2,.9,3,1.8,4.4-1.1.5-.9,1.1-.4,2.1,1,2,1.9,4,2.8,6-2,.6-1.2,2.1-1.1,3.5.6,7.7.2,15.2-3,22.4h-11.8c-3.3.1-2.5-3.7-4.5-4.8,1.1-5,.1-6.3-5-6.3C277.63,90,275.23,91.3,273.43,88.9ZM249,63.8c5.1-.8,10.2-1.5,15.3-2.5,3.6-.7,6.3-4,5.9-6.8-.4-3.1-2.8-4.6-7.1-4.8-6.2-.2-12.4.5-18.6-.5-2.3-.4-5.6-.1-7.1,1.9-2.3,3.3-5.3,3.4-8.6,3.2-1.6-.1-2.8.4-2.9,2.3a2.78,2.78,0,0,0,2,3.2,17.29,17.29,0,0,0,6.4.7c3.1,0,6.1.2,8.8,1.7A13.7,13.7,0,0,0,249,63.8Zm98.6,3.6h1.6c2.3-.1,5.6.8,5.8-2.6.2-2.8-2.8-3.6-5.2-4.2a19.89,19.89,0,0,1-8.1-4,8.58,8.58,0,0,0-10.8.5,8.07,8.07,0,0,1-5.8,2.8c-2.1.1-4.4,1.7-4.1,4.2s2.8,1.5,4.4,1.7c3.8.5,7.4-.8,11.3-.2S344.23,68.1,347.63,67.4Zm-12.2,37.5h-2.7a6.41,6.41,0,0,0-5.3,3.3c-.8,1.3.1,2.6.9,3.4,1.7,1.7,3.6.7,5.3,0a7.57,7.57,0,0,1,7.3.5,8.32,8.32,0,0,0,6.3,1c2.5-.5,3.3-2.5,3.5-4.8.1-1.2-.5-2-1.8-1.9C344.13,106.6,339.43,105.3,335.43,104.9Zm-40-75c-2.2,0-4.2-.2-6.1.7s-3.8,1.8-3.3,4a3.21,3.21,0,0,0,4.6,2.1c4.5-2.1,8.2-.5,12.2,1.2,2.7,1.2,6.5-1.1,7.2-3.8.3-1.2.4-2.6-1.2-2.6C304.13,31.6,299.83,29.4,295.43,29.9Z" transform="translate(0.07)" fill="#eeecfc"/><path d="M433.53,257.3c-.5,3.7.2,6.2,4.2,8.1,4.8,2.3,4.4,5.4-.3,7.9-7.8,4.1-16.4,5.4-24.8,6.9-12.2,2.2-24.6,3.6-36.9,4.7-15.2,1.4-30.4,2.5-45.6,3.2-13.1.6-26.2,1-39.3,1.5-31.9,1.3-63.8.5-95.6.5-13.3,0-26.7-1-40-1.5-11.5-.4-23.1-1.1-34.6-2.3-21.9-2.2-44-3.7-65.5-9.1-3.9-1-7.9-2-11.3-4.4q-5.4-3.9.3-7.2c1-.6,2.2-.9,2.6-2.1,2.9.2,5.4-1.4,8.1-1.9a2.06,2.06,0,0,0,1.8-2.5c9.5-.1,18.9-.2,28.4-.2.4.6.9,1.2,1.3,1.9,7.6,11.5,18.2,16.7,31.8,15.2,11.4-1.2,19.4-7.6,25.1-17.2,1.5.1,3,.2,4.6.2h119.4c2.3,0,4.6-.1,6.9-.2h.8c.2.2.3.2.6.2,0,2.8,0,5.6.1,8.4,0,.9-.5,2.4,1.1,2.4,3.6-.2,7.3.9,10.8-.8.5-3.3.9-6.7,1.4-10,6.3,0,12.5.1,18.8.1.6,2.7,1.3,5.4,1.7,8.1.3,2.1,1.1,2.9,3.2,2.5.2,2-.8,4.2,1.3,5.8-2,3.1-1.7,6.4.8,6.5,4.4.1,8.9-.1,13.3-.1.8,0,1.7-.2,1.9-.9s-.4-1.4-1-1.9a23.11,23.11,0,0,0-10-4.4c-.8-1.9,1.3-4.8-1.9-5.9,3.7-.3,4.5-2.5,4.1-5.8a24.09,24.09,0,0,1,0-3.8c1.7-.1,3.5-.1,5.2-.2a14.31,14.31,0,0,1,1.1,1.5c7.5,11.7,18.2,17,32,15.5,11.4-1.2,19.3-7.6,25.1-17.2,5.1.1,10.1.4,15.3-1.2,9.1-2.7,18.6-4.3,27.8-6.7,1.5-.4,3.8-.5,4.5-2.6a1.08,1.08,0,0,1,.7.3C434,251.3,433.23,254.4,433.53,257.3Zm-152.7,17.8a11.08,11.08,0,0,1,1.9-.2c1.9.1,2.3-1,2.2-2.6,0-1.8-1.2-1.7-2.6-1.9-3.2-.5-3.9,1.2-3.6,3.9-2.7,1.2-5.4,2.2-8,3.5-1.2.6-3,1.4-2.6,2.9.5,1.9,2.5,1.1,3.9,1.1a84.31,84.31,0,0,1,8.7.3c3.9.5,5-1.1,4.1-4.7-.2-1.4-1.3-.7-2-.8C282,276.3,280.83,276.7,280.83,275.1Z" transform="translate(0.07)" fill="#d7d2fa"/><path d="M314.83,93.4c2.3,7.5,2.4,15.3,2.3,23.1-.1,8.3,0,8.3,8.1,8.3h31.4c4.6,0,6-2.1,5.5-6.8-1.5-14.6-.3-29.3-.6-43.9-.1-2.2,1.1-2.1,2.8-1.4,2.4.9,4.5,2.4,7.2,2.4,9,4,18.3,7.4,27.7,10.6,3.8,1.3,5.8,3,5.4,7.4-.5,4.9-.1,9.9-.1,14.9,0,4.7,0,9.4-.1,14.1-.1,2.2.8,2.9,2.9,2.8,5.4-.1,10.9-.1,16.3-.1,3.2.5,7.5-1.5,9.4,1.1,1.5,2.1.5,6.1.5,9.3,0,1.1,0,2.3.1,3.4,0,20.7,0,41.5-.1,62.2,0,1.6.7,3.4-1,4.6-.9-.9-.3-2.8-2.1-3.1v-1.7a23.21,23.21,0,0,1-.6-4.4c.2-4.2-.8-7.9-3.9-10.9,0-1.1.1-2.3,0-3.4,0-7.5,0-7.5-7.7-7.2-.5,0-1-.1-1.5-.1-.3-1.1-1.2-1.2-2.1-1.2-11.6-.6-23.2-1.5-34.1-6.2-8.8-3.8-17.8-7-26.7-10.1-4.4-1.6-8.6-4.1-13.6-3.9h0c-.1-.9-.7-1.1-1.5-1.4-5.1-1.4-10.1-3.5-15.3-4.2-4.1-.6-8.1-2.9-12.5-1.7a30.61,30.61,0,0,1,0-8C311.93,123,314.93,108.3,314.83,93.4Zm68.1,7.8V98.9c0-2,.5-4.1-2.8-4.1s-3.4,1.9-3.3,4.3a35.3,35.3,0,0,1,0,4.6c-.1,2.2.2,3.6,3,3.6,2.6,0,3.4-1,3.2-3.4A12.21,12.21,0,0,1,382.93,101.2Zm29.9,41.8v2.3c0,2-.4,4.1,2.9,4,2.9-.1,3.3-1.6,3.2-3.9a54.19,54.19,0,0,1,0-5.7c.2-2.3-1.1-2.7-3-2.7s-3.3.2-3.1,2.6C412.93,140.7,412.83,141.9,412.83,143Zm-60.5-4.6v2.3c0,2-.6,4.1,2.8,4.1,3.2,0,3.4-1.8,3.3-4.2a54.19,54.19,0,0,1,0-5.7c.1-2.2-1.2-2.4-2.9-2.4s-3.4,0-3.2,2.5Z" transform="translate(0.07)" fill="#d8d2fd"/><path d="M56.63,259a2.06,2.06,0,0,1-1.8,2.5c-2.8.4-5.2,2.1-8.1,1.9a35.57,35.57,0,0,1-11.1-14.3,129.5,129.5,0,0,1-10.2-34.9c-1.4-8.9.6-17.5,4.2-25.9,5.2-12.1,13.4-21.8,22.8-30.7,1.2-1.1,2.2-2.5,4.2-2.3,0,14.1,0,28.1.1,42.2,0,1.8.3,3.5.4,5.3-.2,1.1-1.2,1.5-1.9,2.3a49.89,49.89,0,0,0-10.8,23,37,37,0,0,0-3.1,15,11.49,11.49,0,0,0,.9,5.1C45,254.7,50.73,257,56.63,259Z" transform="translate(0.07)" fill="#eeecfc"/><path d="M432.43,205.3c1.7-1.2,1-3,1-4.6.1-20.7.1-41.5.1-62.2,2.9.6,3.3,3.4,4.3,5.4a114.64,114.64,0,0,1,13.1,41.8,109.45,109.45,0,0,1-3.2,42.2,93.13,93.13,0,0,1-12.3,27.7c-.5.8-.9,1.6-1.9,1.6-.3-2.9.5-6-.8-8.8,2-1.8,4.2-3.4,3.8-6.5h0c1.6-5-.3-10,0-15C437,219.5,434.73,212.4,432.43,205.3Z" transform="translate(0.07)" fill="#eeecfc"/><path d="M138.63,105.6c0,5.1-.1,10.2.1,15.3.1,2.9-.6,4.1-3.8,4a123.45,123.45,0,0,0-14.9,0c-3.7.2-4.9-1.3-4.3-4.7,7.1-1.7,12.5-6.2,17.9-10.7C135.23,108.2,136.23,106,138.63,105.6Z" transform="translate(0.07)" fill="#eeecfc"/><path d="M423.63,124.7c-5.4,0-10.9,0-16.3.1-2.1,0-2.9-.7-2.9-2.8.1-4.7.1-9.4.1-14.1,3.3.4,5.5,2.7,7.8,4.8C416.33,116.4,420.73,119.8,423.63,124.7Z" transform="translate(0.07)" fill="#eeecfc"/><path d="M88.13,59.7c-1.4-1.5-.7-3.4-.7-5.1-.1-6,0-11.9,0-17.9,1.4,1.2.7,2.9.7,4.3Z" transform="translate(0.07)" fill="#d7d2fa"/><path d="M258.73,150.4c-.2-2.3,2.1-3.8,1.7-6.1,1.2-2.8,2.4-5.6,3.6-8.3,2.8-6.1,7.8-10.1,13.3-13.6.8.4.9,1.2,1,2,2.2,10.1,4.2,20.2,6.6,30.2,1.3,5.4,1.1,11.1,2.9,16.4a38,38,0,0,0,1.3,10.6c.3,1.2,1.2,3.7-1.2,3.6-4.2-.1-8.2,1.2-12.3,1.3-.3,0-.6-.1-.9-.1a.55.55,0,0,0-.5-.3l-.9-.9c.4-.6,1-1.1.6-1.9.4-7.3-.9-14.6-1.3-21.9a52.87,52.87,0,0,0-7.6,22.4c0,.5.1,1,.1,1.5-2,1.2-.4,3.4-1.3,4.9-2.7-.1-5.4-.1-8.1-.2-.1-1.2-.1-2.5-.2-3.7.1-11.1-.3-22.2,1.8-33.1C258.13,152.3,259.13,151.6,258.73,150.4Z" transform="translate(0.07)" fill="#005ea8"/><path d="M287.93,170.9c-1.8-5.3-1.6-11-2.9-16.4-2.4-10-4.4-20.1-6.6-30.2-.2-.7-.2-1.5-1-2a2.83,2.83,0,0,0,1.4-2.9c3.1.5,6.3,1,7.6-3.1,1-.2,2.1-.5,3.1-.7.8,2.4,1.6,4.8,2.3,7.3a378.06,378.06,0,0,1,9.7,40.8c.3,1.7,1.4,3.8-.6,5.3l-3.8.9c.1-1-.1-2.1.4-3,2-4.1,1.2-8-.3-12.2-3.7-10.7-7.1-21.4-10.6-32.2-.2-.6-.1-1.3-.9-1.4a1.64,1.64,0,0,0-1.6.7c-.4.6-1,1.4-.1,1.9,1.7,1.1,1.3,2.9,1.4,4.5q1.5,15.75,2.7,31.5c.2,3,1.1,5.3,4,6.7,1.2.6,2.4,1.6,2,3.3A61.76,61.76,0,0,1,287.93,170.9Z" transform="translate(0.07)" fill="#eeecfc"/><path d="M200.63,150.1c-.4,1.9,2,1.7,2.3,3.6-6.8,3.7-13.7,7.6-20.8,11.3-11.7,6-23.5,11.9-35.3,17.8-1.1.6-2.4.8-3.5,1.5-3.1,1.9-5.2.9-6.8-2.1,8.4-5.2,17.2-9.7,25.9-14.3A358,358,0,0,1,200.63,150.1Z" transform="translate(0.07)" fill="#fafafb"/><path d="M286.43,116.3c-1.3,4.1-4.5,3.5-7.6,3.1-.7-3.6-2.2-6.6-6.1-7.5-1.9-.4-1.5-1.7-1.7-2.9.8-.1,2.4,0,2.2-.7-1-4.3-1.4-8.2,4.2-9.5,1-5.2,4.5-2.9,7.4-2.4,2,1.1,1.3,4.9,4.5,4.8-.5,4.5,1.2,9.5-2.9,13.3C286.23,114.8,286.43,115.7,286.43,116.3Zm-2.6-4.8a2.8,2.8,0,0,0,2.5-2c.2-.7-.1-1.5-.9-1.2-1.2.4-2.7.6-3.1,1.9C281.93,111.1,283.23,111.1,283.83,111.5Z" transform="translate(0.07)" fill="#f4adaf"/><path d="M284.83,96.3c-2.9-.5-6.4-2.9-7.4,2.4-5.6,1.4-5.2,5.2-4.2,9.5.2.7-1.4.6-2.2.7-2.6-2.9-6.7-4.8-6.2-9.7.2-1.8-1-4.4,2.7-4.3.5,0,1.2-1.5,1.7-2.4a11.5,11.5,0,0,1,4.2-3.7c1.8,2.4,4.3,1.1,6.4,1.1C284.93,90,286,91.3,284.83,96.3Z" transform="translate(0.07)" fill="#231a3e"/><path d="M251.23,97c0-1.9-.1-3.8,0-5.7.1-2.5-1.5-2.5-3.2-2.5s-3.1.2-2.9,2.4c.1,1.1,0,2.3,0,3.4v2.3c0,2.1-.6,4.3,3,4.3C251.53,101.2,251.23,99.2,251.23,97Z" transform="translate(0.07)" fill="#fefefe"/><path d="M121,143.2v-1.9c-.1-2.1.7-4.3-3-4.4-3.9,0-3.1,2.3-3.2,4.5v5.3c0,2.4,1.7,2.4,3.5,2.5,2,.1,2.8-.7,2.7-2.7C120.93,145.5,121,144.3,121,143.2Z" transform="translate(0.07)" fill="#fefefe"/><path d="M89.63,67.6c.1-2.5-1.4-2.5-3.2-2.5s-3.1.2-2.9,2.4c.1,1.1,0,2.3,0,3.4v2.7c0,1.9-.5,3.9,2.7,3.8,2.7,0,3.6-1.2,3.5-3.7A41.64,41.64,0,0,1,89.63,67.6Z" transform="translate(0.07)" fill="#fefefe"/><path d="M82.23,120.9c-2.4,0-2.7,1.1-2.7,3.1q.15,3.45,0,6.9c-.1,1.9.9,2.4,2.6,2.4s3-.3,2.8-2.5c-.1-1.3,0-2.5,0-3.8,0-1-.1-2,0-3C85.23,121.8,84.53,120.9,82.23,120.9Z" transform="translate(0.07)" fill="#fefefe"/><path d="M184.63,104.8c0-1.9.4-3.8-2.7-3.8s-2.7,1.9-2.7,3.8.1,4.1,0,6.1c-.1,1.8.7,2.5,2.5,2.5s3.1-.2,2.9-2.4c-.1-1.3,0-2.5,0-3.8Z" transform="translate(0.07)" fill="#fefefe"/><path d="M300.93,169c2-1.5.9-3.6.6-5.3a355.8,355.8,0,0,0-9.7-40.8c-.7-2.4-1.5-4.8-2.3-7.3,5.2-3.7,9.7-8.1,11.6-14.5,3.2-7.1,3.6-14.7,3-22.4-.1-1.4-.8-2.8,1.1-3.5,2.1-.3,4.3-.7,6.3.4,1.1,5.9,2.1,11.8,3.2,17.6.1,14.9-2.9,29.6-4,44.4a30.61,30.61,0,0,0,0,8c.5,2.4-.8,5.3,1.6,7.3v.1a2.13,2.13,0,0,0,.5,2.3c-.1.8-.3,1.6-.4,2.5,1.4,6.4,3.1,12.8,4.2,19.3.4,2.2,1.5,2.8,3.2,3.3-1.2,1.9-4.9.7-4.8,4.1-.4-1.1-.3-2.6-2.3-1.8-1.6.6-3.5.5-5.2.8-3.1.5-4.6-.2-4.5-3.9C303.43,176,303.73,172.1,300.93,169Z" transform="translate(0.07)" fill="#005ea8"/><path d="M249,63.8a11.86,11.86,0,0,1-5.8-1.7c-2.7-1.5-5.8-1.7-8.8-1.7a17.52,17.52,0,0,1-6.4-.7,2.78,2.78,0,0,1-2-3.2c.1-1.8,1.3-2.3,2.9-2.3,3.3.2,6.3.1,8.6-3.2,1.5-2.1,4.8-2.3,7.1-1.9,6.2,1,12.4.3,18.6.5,4.3.2,6.7,1.6,7.1,4.8.4,2.8-2.4,6.1-5.9,6.8C259.23,62.3,254.13,63,249,63.8Z" transform="translate(0.07)" fill="#fefefe"/><path d="M347.63,67.4c-3.4.7-7-1.1-10.8-1.7s-7.5.7-11.3.2c-1.6-.2-4.1.8-4.4-1.7s1.9-4.1,4.1-4.2a8.07,8.07,0,0,0,5.8-2.8,8.58,8.58,0,0,1,10.8-.5,19.89,19.89,0,0,0,8.1,4c2.3.5,5.4,1.3,5.2,4.2-.2,3.3-3.5,2.5-5.8,2.6A7.16,7.16,0,0,0,347.63,67.4Z" transform="translate(0.07)" fill="#fefefe"/><path d="M335.43,104.9c4,.4,8.7,1.7,13.5,1.6a1.58,1.58,0,0,1,1.8,1.9c-.2,2.3-1,4.4-3.5,4.8a8.32,8.32,0,0,1-6.3-1,7.57,7.57,0,0,0-7.3-.5c-1.7.7-3.7,1.7-5.3,0-.8-.9-1.7-2.1-.9-3.4a6.41,6.41,0,0,1,5.3-3.3A17.16,17.16,0,0,1,335.43,104.9Z" transform="translate(0.07)" fill="#fefefe"/><path d="M295.43,29.9c4.5-.5,8.7,1.8,13.3,1.6,1.6-.1,1.5,1.4,1.2,2.6-.7,2.8-4.5,5-7.2,3.8-4-1.8-7.7-3.3-12.2-1.2-1.7.8-4.2.2-4.6-2.1s1.5-3.2,3.3-4C291.23,29.7,293.23,29.8,295.43,29.9Z" transform="translate(0.07)" fill="#fefefe"/><path d="M301.13,101.1c-1.9,6.4-6.4,10.7-11.6,14.5-1,.2-2.1.5-3.1.7,0-.6-.2-1.5.1-1.8,4-3.8,2.4-8.8,2.9-13.3C293.33,101.1,297.23,101.1,301.13,101.1Z" transform="translate(0.07)" fill="#d7d2fa"/><path d="M311.63,75.8c-2-1.1-4.2-.7-6.3-.4-.9-2-1.8-4.1-2.8-6-.5-.9-.7-1.6.4-2.1,2.2.7,2.6,4.4,5.8,3.4,1.2-.6,2.4-1.4,3.7-.1C312.43,72.3,310.33,73.8,311.63,75.8Z" transform="translate(0.07)" fill="#f4adaf"/><path d="M308.83,70.6c-3.2,1-3.7-2.7-5.8-3.4-.9-1.4-3.2-2.4-1.8-4.4,1.1-1.7,2.5-3.6,5.2-2.3-.1.6-.1,1.2-.2,1.8-.9.7-3.1-.4-2.8,1.5.2,1.2,1.7,2.5,2.9,3s1.6-.8,1.4-2c1.3.4,2.7.7,4,1.1-.8.4-.3,1.8-1.8,1.9A1.65,1.65,0,0,0,308.83,70.6Z" transform="translate(0.07)" fill="#231a3e"/><path d="M306.13,62.3c.1-.6.1-1.2.2-1.8,4.3-.2,5.8,1.3,5.7,5.6l-.3-.1c-1.3-.4-2.7-.7-4-1.1C307.23,64,306.73,63.2,306.13,62.3Z" transform="translate(0.07)" fill="#f4adaf"/><path d="M311.73,66l.3.1c1.4,1.2,2.9,2.4,4.8,2.5-2-.8-2.9,1.3-4.4,1.9-1.3-1.3-2.5-.5-3.7.1-1-1.4-.2-2.6,1.1-2.7C311.33,67.8,310.93,66.5,311.73,66Z" transform="translate(0.07)" fill="#6546bb"/><path d="M300.93,169c2.8,3.2,2.5,7.1,2.3,10.8s1.4,4.4,4.5,3.9a43.38,43.38,0,0,0,5.2-.8c2.1-.7,2,.7,2.3,1.8l1.2,12.9c-.1.6-.2,1.3.5,1.6.1,1,.2,2,.4,3,.1,1.8-.6,3.7.5,5.4a95.5,95.5,0,0,0,.6,10.6c.9,8.9,1.2,17.9,1.7,26.9,0,2.1.1,4.1.1,6.2a14.77,14.77,0,0,0,.1,2.1c-.1,1.8-.6,3.6.4,5.3l.1.3a24.1,24.1,0,0,0,0,3.8c.5,3.3-.3,5.5-4.1,5.8-1.5.3-3.1.1-4.4,1-2,.4-2.9-.4-3.2-2.5a77.82,77.82,0,0,0-1.7-8.1,11.12,11.12,0,0,0-1.4-6.2v-1c-.2-1.3.4-2.7-.7-3.7-2.8-15.3-5.5-30.5-9.8-45.6-3.2,14.1-4.5,28.4-5.5,42.8-1.4,2.1-.6,4.5-.6,6.8v.8c-1.5,1.9-.8,4.1-.7,6.1-.5,3.3-.9,6.7-1.4,10-2.3,0-4.6-.3-6.9-.1-3.4.4-4.3-.9-4.2-4.2.1-22.2.1-44.5,0-66.7,0-1.5.5-3.1-.8-4.4a28.06,28.06,0,0,1,.1-7.1c4.1-.1,8.1-1.3,12.3-1.3,2.4,0,1.5-2.4,1.2-3.6a42.15,42.15,0,0,1-1.3-10.6c2.1-.4,4.2-.7,6.3-1.1,1,0,2,1.1,3,0Q299.13,169.45,300.93,169Z" transform="translate(0.07)" fill="#2a2976"/><path d="M384.43,258.7c-5.8,9.5-13.7,15.9-25.1,17.2-13.8,1.5-24.5-3.9-32-15.5a14.31,14.31,0,0,0-1.1-1.5c-1.6-2.9-2.1-6.1-3-9.2V238.3a13.21,13.21,0,0,1,1.5-6.2c1.9-3.2,3.7-6.4,5.6-9.5v-.1a1.08,1.08,0,0,0,1-1l4.1-3.8h0c1.7-.8,3.4-1.5,4.6-3h.1a4,4,0,0,0,3.3-1.5,5,5,0,0,1,1.2-.2c.8-.1,1.7.3,2.3-.6.3,0,.5-.1.8-.1,4.5-.7,9.1-.5,13.7-.6h.1a9.2,9.2,0,0,0,4.6,1.4l.3.2h.4a5.68,5.68,0,0,0,3.7,1.6h.1c1.2,1.5,2.9,2.2,4.6,3h.1a5.09,5.09,0,0,0,2.8,2.4h.1c.2.3.5.5.7.8h0a1.55,1.55,0,0,0,1,1.2h0c1.3,2.2,2.5,4.5,4.4,6.2v.1c1.3,4.8,3.7,9.3,3.3,14.4-.1,2.7-.2,5.5-.4,8.2C386.33,253.5,385.33,256.1,384.43,258.7ZM355,268.2c13.1,1.5,25.5-12.4,25-24.2-.7-15-11.2-24.6-24.4-25-12.9-.4-24.8,11.1-25.1,24.5C330.23,256.2,342.33,269.5,355,268.2Z" transform="translate(0.07)" fill="#231a3e"/><path d="M146.23,250l-3,8.7c-5.7,9.6-13.7,16-25.1,17.2-13.7,1.5-24.3-3.8-31.8-15.2-.4-.6-.9-1.2-1.3-1.9-1-3-2-5.9-3-8.9a58.11,58.11,0,0,1-.1-11.8c2.1-7.5,5.2-14.5,11.5-19.6a27.76,27.76,0,0,1,8.8-5.1c8.2-2.5,16.6-3.2,24.8.4,10,4.4,16.5,11.9,18.9,22.7a8.43,8.43,0,0,0,.6,1.4A81.19,81.19,0,0,1,146.23,250ZM114,268.2c13.9.8,24.9-10.9,25-23.9,0-14.7-10.9-25.1-24.7-25.2s-24.6,11-24.8,24.6C89.23,255.3,99.23,269.2,114,268.2Z" transform="translate(0.07)" fill="#231a3e"/><path d="M318.73,274.5a23.11,23.11,0,0,1,10,4.4c.6.4,1.3,1.1,1,1.9s-1.1.9-1.9.9c-4.4.1-8.9.3-13.3.1-2.4-.1-2.8-3.4-.8-6.5A7.16,7.16,0,0,0,318.73,274.5Z" transform="translate(0.07)" fill="#2a2976"/><path d="M272,281.7c-1.4,0-3.4.8-3.9-1.1-.4-1.5,1.4-2.3,2.6-2.9,2.6-1.2,5.3-2.3,8-3.5l2.1.9c0,1.5,1.2,1.2,2.1,1.3.7.1,1.8-.6,2,.8-.4,3.5-2.7,4-5.8,3.9C276.73,281,274.23,280.4,272,281.7Z" transform="translate(0.07)" fill="#2a2976"/><path d="M275.53,259V202.4c0-2.9.1-5.9.1-8.8,1.2,1.3.8,2.9.8,4.4,0,22.2.1,44.5,0,66.7,0,3.3.8,4.6,4.2,4.2a39.76,39.76,0,0,1,6.9.1c-3.5,1.8-7.2.6-10.8.8-1.6.1-1.1-1.5-1.1-2.4C275.53,264.6,275.53,261.8,275.53,259Z" transform="translate(0.07)" fill="#231a3e"/><path d="M318.73,274.5a7.9,7.9,0,0,1-5,.9c-2.1-1.6-1-3.8-1.3-5.8,1.3-.9,2.9-.7,4.4-1C320.13,269.7,317.93,272.6,318.73,274.5Z" transform="translate(0.07)" fill="#fafafb"/><path d="M280.83,275.1l-2.1-.9c-.3-2.7.4-4.4,3.6-3.9,1.3.2,2.5.1,2.6,1.9,0,1.6-.3,2.7-2.2,2.6C282,274.9,281.43,275,280.83,275.1Z" transform="translate(0.07)" fill="#fefefe"/><path d="M272,281.7c2.3-1.3,4.7-.7,7.1-.6,3.1.2,5.3-.3,5.8-3.9.8,3.5-.3,5.1-4.1,4.7A86.82,86.82,0,0,0,272,281.7Z" transform="translate(0.07)" fill="#231a3e"/><path d="M425.83,185.3c3.1,3,4.1,6.7,3.9,10.9a21.21,21.21,0,0,0,.6,4.4c-4.1.5-8,2-12.3,1.7-2.5-.2-5.4.7-4.4-3.6a1.82,1.82,0,0,0-1.1-1.9c-3.1-1.6-5.9-3.8-9.6-4h0c-.5-1.7-1.9-1.4-3.1-1.5h0c-.4-1.6-1.8-1.5-3-1.6h0a1.56,1.56,0,0,0-1.6-1.5h0v-1.4h0a16.86,16.86,0,0,1,8.8-1.6C411.33,185.4,418.53,185.3,425.83,185.3Z" transform="translate(0.07)" fill="#fafafb"/><path d="M382.93,101.2a24.32,24.32,0,0,0,0,2.7c.3,2.4-.6,3.4-3.2,3.4-2.8,0-3.1-1.4-3-3.6a35.3,35.3,0,0,0,0-4.6c-.1-2.4.1-4.2,3.3-4.3,3.4,0,2.8,2.1,2.8,4.1A18.48,18.48,0,0,1,382.93,101.2Z" transform="translate(0.07)" fill="#fafafb"/><path d="M412.83,143c0-1.1.1-2.3,0-3.4-.2-2.4,1.2-2.6,3.1-2.6s3.2.4,3,2.7a54.19,54.19,0,0,0,0,5.7c.1,2.3-.3,3.8-3.2,3.9-3.3.1-2.9-2-2.9-4Z" transform="translate(0.07)" fill="#fefefe"/><path d="M352.33,138.4c0-1.1.1-2.3,0-3.4-.2-2.5,1.4-2.5,3.2-2.5s3.1.2,2.9,2.4a54.19,54.19,0,0,0,0,5.7c.1,2.4-.1,4.2-3.3,4.2-3.4,0-2.7-2.1-2.8-4.1Z" transform="translate(0.07)" fill="#fafafb"/><path d="M71.93,218.9c-6.4.1-12.9.1-19.3.2-2.8,0-2.4-1.4-1.5-3.1a26,26,0,0,1,11-10.8.62.62,0,0,0,.7-.1,6,6,0,0,0,4.8-1.4c1-.1,1.9-.1,2.9-.2,3.6,0,7.2.1,10.7.1h0c.3,2.2-2.1,2.7-2.6,4.4-2.5,1.1-4.1,3.2-6.1,4.9S71.13,216.8,71.93,218.9Z" transform="translate(0.07)" fill="#fafafb"/><path d="M171.63,174.6c5.4-.8,9.1-4.8,13.8-7,12-5.7,24.1-11.5,37.5-12.7,5.9-.5,11.7-1.9,17.6-1.7,2.7,1.7,6.3-.5,8.9,1.8-3.5.4-7,.8-10.4,1.1-3.2-2-6.5-.2-9.6.2-4.5.7-9.3.3-13.3,3.2l.1-.1a4.05,4.05,0,0,1-.9.5c-10.8,3.2-21.5,6.8-31.6,12-3.5,1.8-7.3,3.1-10.3,5.7C170.23,178.2,170.53,176.6,171.63,174.6Z" transform="translate(0.07)" fill="#2a2976"/><path d="M53.93,237.4c5.8-.1,5.8,0,4.5,5.2a32.4,32.4,0,0,1-2.7,6.7c-1.2,2.3-2.6,1.9-3.3-.2-1.1-3.1-1.9-6.3-2.9-9.4-.4-1.3.2-1.9,1.5-2C52.13,237.6,53.23,237.5,53.93,237.4Z" transform="translate(0.07)" fill="#231a3e"/><path d="M161.63,182.1c0,.1.1.2.1.4,1.5,4.5,3.8,7.9,9.4,5.9.1.3.3.6.4.9s.1.7.2,1.1c-.6.1-1.2.3-1.7.4h-3.1c-1.3,0-2.6-.1-3.9-.1-2.4-1.2-5-.5-7.5-.6a3.4,3.4,0,0,1-1-.1c-1.2-.2-2.4-.3-4.2-.5A51,51,0,0,1,161.63,182.1Z" transform="translate(0.07)" fill="#2a2976"/><path d="M154.63,190a3.4,3.4,0,0,1,1,.1,26.35,26.35,0,0,0-.2,2.8c-1,.8-.6,2-.8,3.1-1.1,1.1-.5,2.6-.7,3.9-.2.8-.4,1.5-.6,2.3,0,1.3-.1,2.5-.1,3.8-1.4,2.3-.8,4.9-.7,7.4.1,5.5-.9,11.1.7,16.5,0,1,.1,2,.1,3a22.77,22.77,0,0,0,1.4,7.7v2.9c-2.5-2.9-2.6-6.6-2.8-10-.6-9.5-1.5-19-.1-28.5C152.43,199.9,153.63,195,154.63,190Z" transform="translate(0.07)" fill="#0d1e9e"/><path d="M258.73,150.4c.4,1.3-.6,1.9-1.3,2.7-2.3.1-4.6.1-6.9.2-1.2-.2-2.4-.3-3.6-.5-1-.9-2.3-.6-3.5-.7v-.3c.1.1.2.2.3.2,3.6-.1,7.3-.4,10.9-.2C256.33,151.8,257.33,150.6,258.73,150.4Z" transform="translate(0.07)" fill="#eeecfc"/><path d="M246.93,152.8c1.2.2,2.4.3,3.6.5.9.4,1.8.9,2.7,1.3-1.2.8-2.6.3-3.9.4-2.6-2.3-6.1-.1-8.9-1.8C242.63,153,244.83,152.9,246.93,152.8Z" transform="translate(0.07)" fill="#231a3e"/><path d="M146.23,250a60.16,60.16,0,0,0,.1-12c1.2,4,.4,8,.4,12a.22.22,0,0,1-.2.2C146.43,250.1,146.33,250,146.23,250Z" transform="translate(0.07)" fill="#f4adaf"/><path d="M81.93,238.1a58.17,58.17,0,0,0,.1,11.8C80.73,246,81,242.1,81.93,238.1Z" transform="translate(0.07)" fill="#f4adaf"/><path d="M253.23,154.6c-.9-.4-1.8-.9-2.7-1.3,2.3-.1,4.6-.1,6.9-.2-2.1,11-1.7,22-1.8,33.1-2.7-.7-5.9,1.6-8.1-1.5,1.5-8.7,3.1-17.5,4.6-26.2,2.1-.7,1.3-2.2,1.1-3.6v-.3Z" transform="translate(0.07)" fill="#2a2976"/><path d="M265.13,183.7a52.87,52.87,0,0,1,7.6-22.4c.5,7.3,1.7,14.6,1.3,21.9C271.13,183.3,268.13,183.5,265.13,183.7Z" transform="translate(0.07)" fill="#eeecfc"/><path d="M263.93,190c-.2.8-.8,1.9-.5,2.5,1.7,3.4-1.3,5.8-2.2,8.4s-3.5,0-5.4-.4a1.43,1.43,0,0,0-1.6-1.6v-2.8c2.7-1.5,1-4.1,1.4-6.2l.1-.1C258.53,189.9,261.23,190,263.93,190Z" transform="translate(0.07)" fill="#f4adaf"/><path d="M274.33,210.3V185.9a.55.55,0,0,1,.5.3c0,8.1-.1,16.1-.1,24.2A.6.6,0,0,1,274.33,210.3Z" transform="translate(0.07)" fill="#f4adaf"/><path d="M265.13,183.7c3-.2,5.9-.3,8.9-.5.4.8-.2,1.3-.6,1.9h-8.2A6.15,6.15,0,0,0,265.13,183.7Z" transform="translate(0.07)" fill="#231a3e"/><path d="M247.53,184.7c2.2,3.1,5.5.8,8.1,1.5.1,1.2.1,2.4.2,3.7l-.1.1-.9-.3c-.4-.4-.8-.7-1.2-1.1-.3-1.8-1.7-1.8-3.1-1.8-1.2,0-2.5.5-3.4-.8A9.29,9.29,0,0,0,247.53,184.7Z" transform="translate(0.07)" fill="#0505a5"/><path d="M297.23,169.9c-1,1-2-.1-3,0,.3-1.7-.8-2.7-2-3.3-2.9-1.4-3.7-3.7-4-6.7-.8-10.5-1.8-21-2.7-31.5-.1-1.6.3-3.4-1.4-4.5-.9-.6-.4-1.3.1-1.9a1.48,1.48,0,0,1,1.6-.7c.8.1.7.8.9,1.4,3.5,10.7,6.9,21.5,10.6,32.2,1.4,4.1,2.2,8,.3,12.2C297.13,167.7,297.33,168.9,297.23,169.9Z" transform="translate(0.07)" fill="#f72e5b"/><path d="M283.83,111.5c-.6-.4-1.9-.4-1.5-1.4.5-1.3,2-1.5,3.1-1.9.8-.2,1.1.5.9,1.2A2.77,2.77,0,0,1,283.83,111.5Z" transform="translate(0.07)" fill="#eeecfc"/><path d="M346.13,176.1c-.5.1-1.2,0-1.5.3-4.4,4.8-10.1,4.4-15.7,4.3.4-1.3,2-.9,2.7-1.8a76.59,76.59,0,0,0-6.1-10.4c-3.1-4.7-5.1-11.5-13-10.5.1-.8.3-1.6.4-2.5a21.05,21.05,0,0,1,2.5-.2c.3,0,.5.1.8.1,3.6,1.7,7.6,2,11.5,2.4.4.3.7.4,1.1,0,1.2,1.7,3.2,1.6,5,2.1l1.5.3c1.1.3,1.8,1.6,3.1,1.2.3.1.5.1.8.2,3.3,1.2,6.3,3.4,10,3.7l.1.2.2-.1c1.6,1.7,5.7,2.2,2.7,6h-.1a4.51,4.51,0,0,0-3.2,2.8l-.1.1c-1.1.2-2.4,0-2.7,1.8Zm1.5-6.6c-.1-2-1.8-2.7-3.1-2.9-4-.7-7.7-2.5-11.6-3.6-.9-.2-1.7-.8-2.4.1-.9,1.1.2,1.9.7,2.6,1.8,2.4,3.6,4.9,5.6,7.3.9,1.1,1.3,3.6,3.6,2.4C343.23,173.8,346.23,172.6,347.63,169.5Z" transform="translate(0.07)" fill="#2a2976"/><path d="M312.63,158c7.9-1,9.8,5.8,13,10.5a88.62,88.62,0,0,1,6.1,10.4c-.8.8-2.3.4-2.7,1.8-2.9-.5-5.9,1-8.8-.1-1.7-.5-2.8-1-3.2-3.3C315.73,170.8,314,164.4,312.63,158Z" transform="translate(0.07)" fill="#fafafb"/><path d="M306.13,62.3c.5.9,1,1.7,1.5,2.6.2,1.2-.4,2.4-1.4,2-1.2-.5-2.7-1.8-2.9-3C303,62,305.33,63,306.13,62.3Z" transform="translate(0.07)" fill="#6546bb"/><path d="M332.43,199a2.45,2.45,0,0,1,0,3.3c-5,0-10.1-.1-15.1-.1-.1-1-.2-2-.4-3C322.13,199.1,327.23,199,332.43,199Z" transform="translate(0.07)" fill="#eeecfc"/><path d="M323.13,238.2a8.61,8.61,0,0,0-1.3,4.1c-.1,1.1.4,2.6-1.6,2.7,0,2.1.1,4.1.1,6.2,1.1-1.2-.2-3.2,1.4-4.7.5,1.2,1,2.1,1.4,3.1Z" transform="translate(0.07)" fill="#0b2fe0"/><path d="M320.83,258.7c.1-1.8.5-3.6-.4-5.3C320.33,255.1,319.83,257,320.83,258.7Z" transform="translate(0.07)" fill="#0b2fe0"/><path d="M355,268.2c-12.7,1.3-24.8-12-24.5-24.7.3-13.4,12.2-24.9,25.1-24.5,13.2.4,23.7,10,24.4,25C380.53,255.8,368.13,269.7,355,268.2Zm-17.4-37.4c-2.1,1.7-2.9,4.1-3.7,6.4-.6,1.8-.5,3,2,3.4,2.9.4,5.6,1.5,8.5,2.1,1.1.2,2.5,1.6,3.2-.4.6-1.6.9-3-.9-4.3-2.5-1.7-4.6-3.9-7-5.9C339.13,231.7,338.43,231.3,337.63,230.8Zm26.2,12.6c4.5-1.1,8.3-1.9,11.9-3.1,2-.6,1.1-2.3.5-3.5-1-2-.8-4.8-3.6-5.7-.2-.1-.5.2-.7.3-3,2.4-5.9,4.8-8.8,7.2-1.4,1.1-.4,2.3-.1,3.5A1.81,1.81,0,0,0,363.83,243.4Zm3.4,3.1h0a7.52,7.52,0,0,1-1.5,0c-1.2.1-2.8-.7-3.3.9-.4,1.3.9,2,1.7,2.7,2.4,2,4.9,4,7.3,6,.7.5,1.4,1.5,2.2.3a18.74,18.74,0,0,0,3.2-7.2c.2-1.3-.5-1.8-1.7-1.9C372.53,247.1,369.83,246.8,367.23,246.5Zm-23.1,0c-1.4.2-2.9.3-4.4.5-6.6,1-7.2,2.4-3.5,8.3,1,1.6,1.8,2.3,3.4.7,1.9-1.8,4.1-3.3,6.1-5.1,1.1-1,3.1-1.7,2.5-3.4C347.63,245.5,345.63,246.9,344.13,246.5Zm13-12.3c-.4,1.3.2,2,1.4,2.6,1.5.7,2-.2,2.6-1.2,1.7-2.9,3.4-5.9,5.3-8.8.9-1.4.5-2-.7-2.6-1.4-.7-2.7-1.3-4.2-1.9s-2.7,0-3,1.8C358.23,227.5,357.63,230.8,357.13,234.2Zm-3.7.1c-.5-3.1-1-6.3-1.4-9.4-.4-2.8-1.7-3.4-4.1-2.2-.9.4-1.9.7-2.8,1.2-1.6.8-2.2,1.7-.9,3.5,1.9,2.7,3.6,5.5,5.3,8.3.6.9,1.1,1.8,2.4,1.1C352.93,236.2,354,235.7,353.43,234.3ZM357,253c.5,3.3,1.1,6.5,1.4,9.8.2,2.3,1.1,3,3.2,2.2,1.3-.5,2.6-1.1,3.9-1.5s1.6-1.1.9-2.3c-1.9-3.2-3.8-6.3-5.7-9.5-.5-.8-1.1-1.4-2.2-.9S356.73,251.8,357,253Zm-3.3.4c0-.9.3-1.8-1.1-2.3a2,2,0,0,0-2.9.9c-1.6,2.6-3.2,5.2-4.7,7.9-.5.9-1.9,2.1-.8,3a9.23,9.23,0,0,0,6,2.2c1.6-.1,1.8-1.5,1.9-2.5A49.28,49.28,0,0,1,353.73,253.4Z" transform="translate(0.07)" fill="#6546bb"/><path d="M114,268.2c-14.8,1-24.8-12.9-24.6-24.5.2-13.6,11.2-24.8,24.8-24.6,13.8.2,24.7,10.5,24.7,25.2C138.93,257.2,127.93,269,114,268.2Zm21.5-30.4a23.72,23.72,0,0,0-2.6-6.1c-.8-1.3-1.8-.7-2.6-.1-2.8,2.3-5.5,4.8-8.4,7.1-1.5,1.2-.6,2.2-.3,3.4.4,1.4,1.3,1.2,2.4.9,3.2-.9,6.3-1.8,9.5-2.5C134.93,240.2,135.83,239.9,135.53,237.8ZM96.63,231c-2.4,1.2-2.7,3.6-3.5,5.6-1,2.4-.6,3.7,2.3,4.2a60.35,60.35,0,0,1,8.1,2.1c1.2.3,2.4,1.1,3.1-.8.4-1.4.9-2.4-.7-3.6a91.91,91.91,0,0,1-7.6-6.4A9.91,9.91,0,0,0,96.63,231Zm10.5,17.3c0-1.7-.9-1.8-2-1.8-2,.1-4.1,0-6.1.3-7.3.9-7.9,2.1-4,8.6.9,1.5,1.5,2.2,3.1.7,2.5-2.3,5.2-4.4,7.8-6.6A4.46,4.46,0,0,0,107.13,248.3Zm17.8-1.8c-1.1.5-2.9-.8-3.6.8-.9,1.9,1.2,2.5,2.2,3.5,2.2,1.9,4.5,3.6,6.7,5.5,1.2,1,1.9,1,2.7-.4.6-1.1,1.3-2.2,1.8-3.3,2-4.8,1.9-5-3.2-5.3C129.43,247,127.23,246.7,124.93,246.5Zm-12.7-12.1c-.4-2.9-.8-5.8-1.3-8.7-.8-4.3-1.1-4.2-5.2-2.7-3.3,1.3-4.1,2.7-1.8,5.7a77.41,77.41,0,0,1,4.2,6.8c.5.8.7,2.1,2.2,1.4C111.43,236.4,112.63,236,112.23,234.4Zm7.5-12.5c-1.3,0-1.7.6-1.9,1.7-.6,3.6-1.2,7.3-1.8,10.9-.2,1.3.5,1.8,1.5,2.3,1.3.7,1.8,0,2.4-.9,1.8-3,3.7-6.1,5.6-9.1.5-.8.8-1.7-.3-2.3C123.43,223.6,121.53,222.8,119.73,221.9Zm-11.3,43.3c1.7.6,2-.5,2.2-1.7.6-3.5,1.3-7,1.9-10.4.2-1,0-1.7-1.1-2s-1.8-.6-2.6.6c-1.6,2.7-3.2,5.5-5,8s-1,3.6,1.4,4.4A30.05,30.05,0,0,0,108.43,265.2Zm7.4-12.6c.7,3.9,1.2,7.3,1.8,10.8.1.7,0,1.8,1,1.8a10.26,10.26,0,0,0,6.3-2.2c1.8-1.4-.2-2.7-.8-3.9-1.4-2.5-3.1-4.9-4.6-7.4a1.77,1.77,0,0,0-2.5-.8C116,251.4,115.63,252,115.83,252.6Z" transform="translate(0.07)" fill="#6546bb"/><path d="M247.53,184.7a9.29,9.29,0,0,1-.4,1.3c-3,.3-6.1-.4-8.9,1h-2.3a3.21,3.21,0,0,0-3.1.8h-2.3c-1.8,0-3.6,0-5.4-.1H222c-.5,0-1-.1-1.5-.1a68.56,68.56,0,0,0-18.1.8c-.6.1-1.5-.3-1.9.6a1.44,1.44,0,0,0,.2-.3,2,2,0,0,1,.7.1c-2.9.2-5.7.4-8.6.5l-6-.3c-5.2-.2-10.3,1-15.4.3-.1-.3-.3-.6-.4-.9,1.6-.7,4.3.9,5-1.6.8-3.4.7-6.9-2.7-9.2,3.1-2.6,6.8-3.9,10.3-5.7,10.1-5.2,20.7-8.8,31.6-12a4.05,4.05,0,0,1,.9-.5l-.1.1c5.9-.9,11.7-1.9,17.6-2.8a1.7,1.7,0,0,0,1.8-.4l3.4-.3c3.5-.4,7-.8,10.4-1.1,1.3-.1,2.7.4,3.9-.4H253l.1.3c-1.3.9-.7,2.4-1.1,3.6C250.63,167.2,249,175.9,247.53,184.7Z" transform="translate(0.07)" fill="#fafafb"/><path d="M246.53,202.2c0,1.4-.1,2.8-.1,4.2a1.42,1.42,0,0,0-.6.2c-6.1,0-12.3.1-18.4.1h-.8c-.5,0-1-.1-1.4-.1h0a6.15,6.15,0,0,1,.1-1.4c.5,0,.9-.1,1.4-.1,5.2,0,10.4.1,15.7.1.9,0,2.9.9,2.1-1.6-.9-.9-2.1-.7-3.2-.7h-16c-.1-.3-.1-.5-.2-.8h0c2-.1,4.1-.1,6.1-.2h9.2l6.1.3Z" transform="translate(0.07)" fill="#0505a5"/><path d="M193,189.2c-3.2,1.6-6.6,1.3-10,1.5-3.8-.1-7.5-.3-11.3-.4-.1-.4-.1-.7-.2-1.1,5.2.7,10.3-.5,15.4-.3C189,189.1,191,189.2,193,189.2Z" transform="translate(0.07)" fill="#231a3e"/><path d="M233.73,156.7c-5.9.9-11.7,1.9-17.6,2.8,4-2.9,8.8-2.5,13.3-3.2,3.1-.5,6.4-2.2,9.6-.2l-3.4.3C234.83,156.2,234.23,156.1,233.73,156.7Z" transform="translate(0.07)" fill="#231a3e"/><path d="M216.23,159.4a4.05,4.05,0,0,1-.9.5C215.63,159.7,215.93,159.6,216.23,159.4Z" transform="translate(0.07)" fill="#231a3e"/><path d="M252.13,158.4c.4-1.2-.2-2.7,1.1-3.6C253.43,156.2,254.23,157.8,252.13,158.4Z" transform="translate(0.07)" fill="#231a3e"/><path d="M274.73,210.5c-.1,0-.3-.1-.4-.1-.1,13.1-.2,26.2-.2,39.2h-11.5c-3.1,0-6.5.8-8.2-3.1,0,.5-.1,1-.1,1.6h0a4.61,4.61,0,0,0,5.2,3.1c4.9-.3,9.8-.1,14.7-.2.8-.4.8-1.2.8-2C274.93,236.2,274.83,223.3,274.73,210.5Z" transform="translate(0.07)" fill="#2187f3"/><path d="M325.43,154.8c-3-.1-6.1-1-9.1.5,3.6,1.7,7.6,2,11.5,2.4A2.84,2.84,0,0,0,325.43,154.8Z" transform="translate(0.07)" fill="#2187f3"/><path d="M347.73,162.3c-1.2-.1-2.8.5-3.1-1.5-1.8.1-3.7-.4-5.4.9,3.3,1.2,6.3,3.4,10,3.7C348.73,164.4,348.23,163.3,347.73,162.3Z" transform="translate(0.07)" fill="#2187f3"/><path d="M351.43,165.4c-.6,0-1.3.1-1.9.1,1.6,1.7,5.7,2.2,2.7,6,1.9-.2,3.2-1.3,2.9-3.2S353.53,165.3,351.43,165.4Z" transform="translate(0.07)" fill="#2187f3"/><path d="M352.23,171.5a4.51,4.51,0,0,0-3.2,2.8c1.3,0,2,2.6,3.8.8S352,172.8,352.23,171.5Z" transform="translate(0.07)" fill="#2187f3"/><path d="M328.93,157.8c1.2,1.7,3.2,1.6,5,2.1C333.63,156.1,330.73,158.3,328.93,157.8Z" transform="translate(0.07)" fill="#2187f3"/><path d="M346.23,176c.8.4,1.9,1.2,2.5,1,1-.5.5-1.7.3-2.6C347.73,174.5,346.43,174.3,346.23,176Z" transform="translate(0.07)" fill="#2187f3"/><polygon points="347.8 162.3 347.8 162.3 347.8 162.3 347.8 162.3" fill="#2187f3"/><path d="M349.23,162.3c.7-.1,1.6.2,1.9-.6a1.3,1.3,0,0,0-.2-1c-.8-.9-1.5-.3-2.3.1a1.86,1.86,0,0,0-.9,1.5Z" transform="translate(0.07)" fill="#2187f3"/><path d="M335.43,160.2c1.1.3,1.8,1.6,3.1,1.2C338.43,158.7,337.23,158.7,335.43,160.2Z" transform="translate(0.07)" fill="#2187f3"/><path d="M376.93,214.8c.7,1,1.2,1.8,1.8,2.6.3-.2.8-.4.8-.6C379.43,215.5,378.73,214.8,376.93,214.8Z" transform="translate(0.07)" fill="#2187f3"/><path d="M393.63,192.9c1.2-.1,2.8.5,3.1-1.5C395.53,191.6,393.93,190.9,393.63,192.9Z" transform="translate(0.07)" fill="#2187f3"/><path d="M346.23,179.2a1.41,1.41,0,0,0,2,1.4,1.87,1.87,0,0,0,.6-.7C348.13,178.7,347,179.3,346.23,179.2Z" transform="translate(0.07)" fill="#2187f3"/><path d="M346.23,179.2Z" transform="translate(0.07)" fill="#2187f3"/><path d="M363.23,163.9c-.4,0-1.1.3-1.2.6-.2.7.5.7.9.8a1.08,1.08,0,0,0,1.3-.6C364.23,164,363.63,163.9,363.23,163.9Z" transform="translate(0.07)" fill="#2187f3"/><path d="M399.83,191.3c-.4-1.6-1.8-1.5-3-1.6-.1-1-.6-1.4-1.6-1.5v-1.4c-.6.1-1.4,0-1.2.9,0,.2.8.3,1.2.5-.1,1.1.5,1.6,1.6,1.5,0,.6-.1,1.1-.1,1.7,1.1,0,2.1,0,3.1-.1,0,.6-.1,1.1-.1,1.6-.6.1-1.2.1-1.2.9,0,.1.2.2.2.2.8.1.8-.6.9-1.2,1.1,0,2.1-.1,3.2-.1C402.53,191.1,401.13,191.4,399.83,191.3Z" transform="translate(0.07)" fill="#2187f3"/><path d="M406.33,248.7c-.2.6.3.8.8.8.3,0,.5-.3.9-.6-.4-.3-.7-.6-.9-.6A.74.74,0,0,0,406.33,248.7Z" transform="translate(0.07)" fill="#2187f3"/><path d="M387.73,223.9c-.1.5.2,1,.8.8a2.31,2.31,0,0,0,.6-.9c-.3-.2-.6-.6-.8-.6S387.73,223.6,387.73,223.9Z" transform="translate(0.07)" fill="#2187f3"/><path d="M349.83,182.5c-.1.2-.3.5-.2.6s.4.2.6.3c.1-.2.3-.5.2-.6A3.33,3.33,0,0,0,349.83,182.5Z" transform="translate(0.07)" fill="#2187f3"/><path d="M374.63,213.2c-.8-.1-.8.6-.9,1.2.6-.1,1.2-.1,1.2-.9A.45.45,0,0,0,374.63,213.2Z" transform="translate(0.07)" fill="#2187f3"/><path d="M373.73,214.4Z" transform="translate(0.07)" fill="#2187f3"/><polygon points="393.7 192.9 393.7 192.9 393.7 192.9 393.7 192.9" fill="#2187f3"/><path d="M392.53,193.9c0,.1.2.2.2.2.8.1.8-.6.9-1.2C393.13,193,392.43,193,392.53,193.9Z" transform="translate(0.07)" fill="#2187f3"/><path d="M415.73,248.4c-.2.1-.2.4-.3.6.2.1.5.3.6.2s.2-.4.3-.6C416.13,248.6,415.93,248.4,415.73,248.4Z" transform="translate(0.07)" fill="#2187f3"/><path d="M318,152.8c.2-.1.2-.4.3-.6l-.6-.3-.3.6A1.14,1.14,0,0,0,318,152.8Z" transform="translate(0.07)" fill="#2187f3"/><polygon points="344.7 160.8 344.7 160.8 344.7 160.8 344.7 160.8" fill="#2187f3"/><path d="M345.83,159.9c0-.1-.2-.2-.2-.2-.8-.1-.8.6-.9,1.2C345.23,160.7,345.83,160.7,345.83,159.9Z" transform="translate(0.07)" fill="#2187f3"/><path d="M351.43,178c-.2.1-.2.4-.3.6.2.1.5.3.6.2s.2-.4.3-.6C351.83,178.1,351.53,177.9,351.43,178Z" transform="translate(0.07)" fill="#2187f3"/><path d="M338.53,209.8h0c.1.6.1,1.2.9,1.2.1,0,.2-.2.2-.2C339.73,209.9,339,209.9,338.53,209.8Z" transform="translate(0.07)" fill="#2187f3"/><path d="M389.63,233.1c-.2.1-.2.4-.3.6.2.1.5.3.6.2s.2-.4.3-.6C390,233.3,389.83,233.1,389.63,233.1Z" transform="translate(0.07)" fill="#2187f3"/><path d="M230.53,187.7c-1.8,0-3.6,0-5.4-.1C227.43,190.7,228.73,190.7,230.53,187.7Z" transform="translate(0.07)" fill="#2187f3"/><path d="M240.53,200.6V202c2,.1,4.1.2,6.1.2C245.23,199,242.53,201.3,240.53,200.6Z" transform="translate(0.07)" fill="#2187f3"/><path d="M153.23,232.8a22.77,22.77,0,0,0,1.4,7.7C154.83,237.8,155.83,235,153.23,232.8Z" transform="translate(0.07)" fill="#2187f3"/><path d="M225.43,205.2a17.7,17.7,0,0,0-.1-2.3c-.1-.3-.1-.5-.2-.8-.8.1-2.3-.2-1.9,1.1s-.4,3.4,2,3.4c0,.6-.1,1.3.8,1.2.2,0,.4-.7.6-1.1-.5,0-.9-.1-1.4-.1C225.33,206.1,225.33,205.7,225.43,205.2Z" transform="translate(0.07)" fill="#2187f3"/><path d="M232.83,187.7c.1,1,.7,1.4,1.7,1.3,1.4-.1,1.3-1.2,1.3-2.1A3.09,3.09,0,0,0,232.83,187.7Z" transform="translate(0.07)" fill="#2187f3"/><path d="M155.43,192.9c-1,.8-.6,2-.8,3.1,2.2-.1,1.5-1.8,1.6-3A2.49,2.49,0,0,0,155.43,192.9Z" transform="translate(0.07)" fill="#2187f3"/><path d="M153.93,199.8c-.2.8-.4,1.5-.6,2.3.7-.1,1.6.2,1.9-.7C155.33,200.5,154.63,200.2,153.93,199.8Z" transform="translate(0.07)" fill="#2187f3"/><path d="M227.33,196.3c-.2.1-.2.4-.3.6.2.1.5.3.6.2s.2-.4.3-.6C227.73,196.5,227.53,196.3,227.33,196.3Z" transform="translate(0.07)" fill="#2187f3"/><path d="M222.73,199.3c-.1.2-.3.5-.2.6s.4.2.6.3l.3-.6A4.88,4.88,0,0,1,222.73,199.3Z" transform="translate(0.07)" fill="#2187f3"/><path d="M169.43,248.5c-.8-.2-.8.6-.9,1.1H170C169.83,249.2,169.73,248.5,169.43,248.5Z" transform="translate(0.07)" fill="#2187f3"/><path d="M238.93,199.8a1.56,1.56,0,0,0,1.5.8C240.33,199.6,240.13,198.7,238.93,199.8Z" transform="translate(0.07)" fill="#2187f3"/><path d="M169.23,191.9c.6,0,.7-.6.8-1.1h-1.5C168.53,191.3,168.63,191.9,169.23,191.9Z" transform="translate(0.07)" fill="#2187f3"/><path d="M166.93,177.7c.1,0,.2.1.4.1-.1-.1-.2-.1-.4-.1Z" transform="translate(0.07)" fill="#2187f3"/><path d="M255.73,189.9l-.9-.3c-.9,2.1-.4,4.3-.5,6.5C257.13,194.6,255.43,192,255.73,189.9Z" transform="translate(0.07)" fill="#2187f3"/><path d="M328.53,220.6h.8l.1-.1,1.4-1.7c.4-1.9,2-3,3.1-4.5l.9-3-.1-.1C331.13,213.4,330.33,217.3,328.53,220.6Z" transform="translate(0.07)" fill="#0d1e9e"/><path d="M343.13,187.6h0c-.6.1-1.7.2-1.2.9A14.21,14.21,0,0,1,344,197C345.43,193.7,344.23,190.7,343.13,187.6Z" transform="translate(0.07)" fill="#0d1e9e"/><path d="M335.43,210.2c-.6.1-.7.6-.8,1.1l.1.1c.5-.1,1-.2,1.1-.8A.78.78,0,0,0,335.43,210.2Z" transform="translate(0.07)" fill="#0d1e9e"/><path d="M340.53,186.4s.2.2.3.2a1,1,0,0,0,.5-.4l-.4-.4A2.09,2.09,0,0,1,340.53,186.4Z" transform="translate(0.07)" fill="#0d1e9e"/><path d="M347.63,169.5c-1.4,3.1-4.4,4.3-7.2,5.8-2.3,1.2-2.7-1.3-3.6-2.4-2-2.3-3.8-4.8-5.6-7.3-.6-.8-1.6-1.5-.7-2.6.7-.9,1.6-.3,2.4-.1,3.9,1.1,7.6,2.9,11.6,3.6C345.83,166.8,347.53,167.5,347.63,169.5Z" transform="translate(0.07)" fill="#eeecfc"/><path d="M335.93,240.6c2.9.4,5.6,1.5,8.5,2.1,1.1.2,2.5,1.6,3.2-.4.6-1.6.9-3-.9-4.3-2.5-1.7-4.6-3.9-7-5.9a17.37,17.37,0,0,0-2-1.3c-2.1,1.7-2.9,4.1-3.7,6.4C333.33,239.1,333.53,240.3,335.93,240.6Z" transform="translate(0.07)" fill="#231a3e"/><path d="M363,242.2a1.5,1.5,0,0,0,.9,1.2c4.5-1.1,8.3-1.9,11.9-3.1,2-.6,1.1-2.3.5-3.5-1-2-.8-4.8-3.6-5.7-.2-.1-.5.2-.7.3-3,2.4-5.9,4.8-8.8,7.2C361.73,239.8,362.73,241,363,242.2Z" transform="translate(0.07)" fill="#231a3e"/><path d="M375.13,247.3c-2.6-.2-5.3-.5-7.9-.8v.1c-.5,0-1-.1-1.5-.1-1.2.1-2.8-.7-3.3.9-.4,1.3.9,2,1.7,2.7,2.4,2,4.9,4,7.3,6,.7.5,1.4,1.5,2.2.3a18.74,18.74,0,0,0,3.2-7.2C377,248,376.33,247.5,375.13,247.3Z" transform="translate(0.07)" fill="#231a3e"/><path d="M348.23,247.5c-.6-2-2.7-.6-4.1-1-1.4.2-2.9.3-4.4.5-6.6,1-7.2,2.4-3.5,8.3,1,1.6,1.8,2.3,3.4.7,1.9-1.8,4.1-3.3,6.1-5.1C346.73,249.9,348.83,249.2,348.23,247.5Z" transform="translate(0.07)" fill="#231a3e"/><path d="M358.63,236.8c1.5.7,2-.2,2.6-1.2,1.7-2.9,3.4-5.9,5.3-8.8.9-1.4.5-2-.7-2.6-1.4-.7-2.7-1.3-4.2-1.9s-2.7,0-3,1.8c-.5,3.4-1,6.8-1.5,10.1C356.73,235.6,357.43,236.2,358.63,236.8Z" transform="translate(0.07)" fill="#231a3e"/><path d="M349.53,235.7c.6.9,1.1,1.8,2.4,1.1,1-.6,2.1-1.1,1.6-2.5-.5-3.1-1-6.3-1.4-9.4-.4-2.8-1.7-3.4-4.1-2.2-.9.4-1.9.7-2.8,1.2-1.6.8-2.2,1.7-.9,3.5C346.13,230.1,347.73,232.9,349.53,235.7Z" transform="translate(0.07)" fill="#231a3e"/><path d="M360.73,251.7c-.5-.8-1.1-1.4-2.2-.9s-1.8,1-1.4,2.2c.5,3.3,1.1,6.5,1.4,9.8.2,2.3,1.1,3,3.2,2.2,1.3-.5,2.6-1.1,3.9-1.5s1.6-1.1.9-2.3C364.53,258,362.73,254.8,360.73,251.7Z" transform="translate(0.07)" fill="#231a3e"/><path d="M352.63,251.1a2,2,0,0,0-2.9.9c-1.6,2.6-3.2,5.2-4.7,7.9-.5.9-1.9,2.1-.8,3a9.23,9.23,0,0,0,6,2.2c1.6-.1,1.8-1.5,1.9-2.5a57.88,57.88,0,0,1,1.6-9.1C353.73,252.5,354,251.6,352.63,251.1Z" transform="translate(0.07)" fill="#231a3e"/><path d="M275.73,186.4c-.3,0-.6-.1-.9-.1,0,8.1-.1,16.1-.1,24.2.1,12.8.2,25.7.3,38.5,0,.8,0,1.5-.8,2-4.9,0-9.8-.1-14.7.2a4.67,4.67,0,0,1-5.2-3.1h0c0-.5.1-1,.1-1.6,1.7,3.8,5.1,3,8.2,3.1h11.5c.1-13.1.1-26.2.2-39.2V186l-.9-.9h-8.2c-2,1.2-.4,3.4-1.3,4.9-.2.8-.8,1.9-.5,2.5,1.7,3.4-1.3,5.8-2.2,8.4s-3.5,0-5.4-.4h0a1.43,1.43,0,0,0-1.6-1.6v-2.8c0-2.2-.4-4.4.5-6.5-.4-.4-.8-.7-1.2-1.1-.3-1.8-1.7-1.8-3.1-1.8-1.2,0-2.5.5-3.4-.8-3,.3-6.1-.4-8.9,1h-2.3c-.1,1,0,2-1.3,2.1-1,.1-1.6-.3-1.7-1.3h-2.3c-1.8,3-3.1,3-5.4-.1H222c-.5,0-1-.1-1.5-.1a72,72,0,0,1-19.1,1.2c-2.8.2-5.7.4-8.6.5-3.2,1.6-6.6,1.3-10,1.5-3.8-.1-7.5-.3-11.3-.4-.6.1-1.2.3-1.7.4-.1.5-.1,1.1-.8,1.1s-.7-.6-.8-1.1h-1.6c-1.3,0-2.6-.1-3.9-.1-2.4-1.2-5-.5-7.5-.6a26.35,26.35,0,0,0-.2,2.8h.8c-.1,1.2.5,2.9-1.6,3-1.1,1.1-.5,2.6-.7,3.9.6.4,1.4.7,1.2,1.6s-1.2.6-1.9.7c0,1.3-.1,2.5-.1,3.8h0c-1.4,2.3-.8,4.9-.7,7.4.1,5.5-.9,11.1.7,16.5,0,1,.1,2,.1,3,2.5,2.2,1.5,5,1.4,7.7v2.9c.2.5-.1,1.3.2,1.6-.3-.4-.1-1.2-.2-1.6-2.5-2.9-2.6-6.6-2.8-10-.6-9.5-1.5-19-.1-28.5.7-5,1.9-9.9,2.9-14.8-1.2-.2-2.4-.3-4.2-.5a48.25,48.25,0,0,1,11.2-7.4c0,.1.1.2.1.4,1.5,4.5,3.8,7.9,9.4,5.9,1.6-.7,4.3.9,5-1.6.8-3.4.7-6.8-2.7-9.2-3.2.6-2.9-1-1.8-3,5.4-.8,9.1-4.8,13.8-7,12-5.7,24.1-11.5,37.5-12.7,5.9-.5,11.7-1.9,17.6-1.7,2.1-.1,4.3-.3,6.4-.4-1-.9-2.3-.6-3.5-.7v-.3c.1.1.2.2.3.2,3.6-.1,7.3-.4,10.9-.2,1.7.1,2.6-1.1,4-1.4-.2-2.3,2.1-3.8,1.7-6.1-13.3-1.3-26.5.9-39.8,1.6a1.85,1.85,0,0,0-.7.2c-6.4,1.4-12.9,2.8-19.3,4.1-.4,1.9,2,1.7,2.3,3.6-6.8,3.7-13.7,7.6-20.8,11.3-11.7,6-23.5,11.9-35.3,17.8-1.1.6-2.4.8-3.5,1.5-3.1,1.9-5.2.9-6.8-2.1-5.9-.3-11.5,1.4-17.3,2-6.9.7-13.7,2.6-20.5,4.1a128.26,128.26,0,0,0-15.1,3.8c-.1.1-.2.1-.3.2a10,10,0,0,0-2.1,1,1.42,1.42,0,0,1-.6.2h0c-.2.2-.5.2-.7.3a15.4,15.4,0,0,1-3.5,1.5c-2,.7-4,1.1-5.9,1.9-2.6,1-5.1,2.2-7.6,3.3v.1h-.3a6.12,6.12,0,0,1-1.2.5,5.39,5.39,0,0,0-1.3.7c-.1.1-.1.3-.2.4h-.1a3.55,3.55,0,0,1-1,.2c-.6.3-1.2.7-1.9,1a12.88,12.88,0,0,1-1.6,1.7,49.89,49.89,0,0,0-10.8,23,37,37,0,0,0-3.1,15,11.49,11.49,0,0,0,.9,5.1c2.8,6.4,8.5,8.7,14.5,10.8,9.5-.1,18.9-.2,28.4-.2-1-3-2-5.9-3-8.9a20.27,20.27,0,0,1-.1-11.7c2.1-7.5,5.2-14.5,11.5-19.6a27.76,27.76,0,0,1,8.8-5.1c8.2-2.5,16.6-3.2,24.8.4,10,4.4,16.5,11.9,18.9,22.7a8.43,8.43,0,0,0,.6,1.4c1.2,4,.4,8,.4,12a.22.22,0,0,1-.2.2c-.1,0-.2-.1-.3-.2l-3,8.7c1.5.1,3.1.2,4.6.2h119.4c2.3,0,4.6-.1,6.9-.2h.8c.2.2.3.2.6.2V202.4c0-2.9.1-5.9.1-8.8C275.53,191.2,275.23,188.8,275.73,186.4Zm-21,14.7a2,2,0,0,0-.4.8A1.23,1.23,0,0,1,254.73,201.1Zm-101.5,7.2v0a5.93,5.93,0,0,1,1.4,3.3A5.93,5.93,0,0,0,153.23,208.3Zm1.2,8.4a10.12,10.12,0,0,0,.4-3.1A10.12,10.12,0,0,1,154.43,216.7Zm-96,25.9a32.4,32.4,0,0,1-2.7,6.7c-1.2,2.3-2.6,1.9-3.3-.2-1.1-3.1-1.9-6.3-2.9-9.4-.4-1.3.2-1.9,1.5-2,1.1-.1,2.3-.2,3-.2C59.73,237.3,59.73,237.4,58.43,242.6Zm20.1-34.5c-2.5,1.1-4.1,3.2-6.1,4.9s-1.3,3.9-.5,5.9h0c-6.4.1-12.9.1-19.3.2-2.8,0-2.4-1.4-1.5-3.1a26,26,0,0,1,11-10.8h0a.62.62,0,0,0,.7-.1,1.63,1.63,0,0,1,.3-.6l-.3.6a6,6,0,0,0,4.8-1.4c1-.1,1.9-.1,2.9-.2,3.6,0,7.2.1,10.7.1C81.43,205.8,79,206.4,78.53,208.1Zm148.8-11.8c.2-.1.4.1.6.2-.1.2-.1.5-.3.6s-.4-.1-.6-.2A3.33,3.33,0,0,1,227.33,196.3Zm-4.6,3,.6.3-.3.6c-.2-.1-.5-.1-.6-.3S222.63,199.6,222.73,199.3ZM157,191.4a.82.82,0,0,0-.5.5,1.18,1.18,0,0,1,.5-.5,1.9,1.9,0,0,0,1.7,1.7A1.81,1.81,0,0,1,157,191.4Zm1.8,55.5c.7.8,1.3,1.8,2,2.7h7.6c.1-.6.1-1.3.9-1.1.3.1.4.7.6,1.1h-9.1A26.93,26.93,0,0,0,158.83,246.9Zm3.5,5h81.1C216.43,252,189.43,251.9,162.33,251.9Zm84.1-45.5a1.42,1.42,0,0,0-.6.2h0c-6.1,0-12.3.1-18.4.1h-.8c-.2.4-.4,1.1-.6,1.1-.9.1-.8-.7-.8-1.2-2.4,0-1.7-2.2-2-3.4s1.1-.9,1.9-1.1h0c2-.1,4.1-.1,6.1-.2h9.2v-1.4h0a1.41,1.41,0,0,1-1.5-.8c1.2-1.2,1.4-.2,1.5.8h0c2,.7,4.8-1.6,6.1,1.6h0c0,1.5,0,2.9-.1,4.3a9.44,9.44,0,0,0,.3.9A4.65,4.65,0,0,1,246.43,206.4Zm.7-4.5c1-.6,1.3-1.1,1-1.7C248.43,200.8,248.13,201.3,247.13,201.9Zm4.6,49.2c1.4,0,2.6-.3,2.6-2C254.23,250.8,253.13,251.1,251.73,251.1Z" transform="translate(0.07)" fill="#2187f3"/><path d="M252.73,196.8h0c-.1-.1-.3-.2-.4-.3C252.43,196.6,252.63,196.7,252.73,196.8Z" transform="translate(0.07)" fill="#2187f3"/><path d="M251,196.4a1.1,1.1,0,0,1,.8,0A1.1,1.1,0,0,0,251,196.4Z" transform="translate(0.07)" fill="#2187f3"/><path d="M167,177.6c.1.1.2.1.3.2-.2,0-.3-.1-.3-.2Z" transform="translate(0.07)" fill="#2187f3"/><path d="M247.63,199.7a1.38,1.38,0,0,0-.4-.3C247.43,199.6,247.53,199.6,247.63,199.7Z" transform="translate(0.07)" fill="#2187f3"/><path d="M225.23,202.1l.6-.6-.6.6Z" transform="translate(0.07)" fill="#2187f3"/><path d="M161.63,252.8a1.7,1.7,0,0,0,.7-.1h0C162.13,252.7,161.93,252.8,161.63,252.8Z" transform="translate(0.07)" fill="#2187f3"/><path d="M289.63,252.7c-1.5,1.9-.8,4.1-.7,6.1,6.3,0,12.5.1,18.8.1a11.12,11.12,0,0,0-1.4-6.2Z" transform="translate(0.07)" fill="#2187f3"/><path d="M321.73,246.5c-1.6,1.5-.2,3.4-1.4,4.7a14.77,14.77,0,0,0,.1,2.1c.9,1.7.5,3.5.4,5.3l.1.3c1.7-.1,3.5-.1,5.2-.2-1.6-2.9-2.1-6.1-3-9.2C322.73,248.6,322.33,247.7,321.73,246.5Z" transform="translate(0.07)" fill="#2187f3"/><path d="M395.23,188.2Z" transform="translate(0.07)" fill="#2187f3"/><path d="M396.83,189.7Z" transform="translate(0.07)" fill="#2187f3"/><path d="M399.83,191.3Z" transform="translate(0.07)" fill="#2187f3"/><path d="M436.53,241.9c1.6-5-.3-10,0-15,.4-7.5-1.8-14.6-4.1-21.6-.9-.9-.3-2.8-2.1-3.1v-1.7c-4.1.5-8,2-12.3,1.7-2.5-.2-5.4.7-4.4-3.6a1.82,1.82,0,0,0-1.1-1.9c-3.1-1.6-5.9-3.8-9.6-4h0c-1.1,0-2.1.1-3.2.1-.1.6-.1,1.2-.9,1.2-.1,0-.2-.2-.2-.2-.1-.8.6-.8,1.2-.9,0-.5.1-1.1.1-1.6-1,0-2.1.1-3.1.1-.3,2.1-1.9,1.4-3.1,1.5.3-2,1.9-1.4,3.1-1.5,0-.6.1-1.1.1-1.7-1.1.1-1.6-.4-1.6-1.5-.4-.2-1.2-.3-1.2-.5-.2-.9.6-.8,1.2-.9h0a16.86,16.86,0,0,1,8.8-1.6c7.2.1,14.5,0,21.7,0,0-1.1.1-2.3,0-3.4,0-7.5,0-7.5-7.7-7.2-.5,0-1-.1-1.5-.1a.52.52,0,0,0-.2-.4c-2.9-.4-5.8-.4-8.6-1.2-9.4-.7-18.6-2-27.5-5.8s-17.8-7-26.7-10.1c-4.4-1.6-8.6-4.1-13.6-3.9-.1-.9-.7-1.1-1.5-1.3-5.1-1.4-10.1-3.5-15.3-4.2-4.1-.6-8.1-2.9-12.5-1.7.5,2.4-.8,5.3,1.6,7.3v.1a2.13,2.13,0,0,0,.5,2.3,21.05,21.05,0,0,1,2.5-.2c.3,0,.5.1.8.1,2.9-1.5,6.1-.7,9.1-.5a2.84,2.84,0,0,1,2.4,2.9c.4.3.7.4,1.1,0,1.7.5,4.7-1.8,5,2.1l1.5.3c1.8-1.5,3-1.5,3.1,1.2.3.1.5.1.8.2,1.6-1.2,3.6-.8,5.4-.9.3,2,1.9,1.4,3.1,1.5l1.6,3.1.1.2.2-.1c.6,0,1.3-.1,1.9-.1a3.41,3.41,0,0,1,3.8,2.9c.3,1.9-1,3-2.9,3.2h-.1c-.2,1.3,2.3,1.9.7,3.6-1.8,1.8-2.5-.8-3.8-.8l-.1.1c.2.9.7,2.2-.3,2.6-.6.3-1.6-.6-2.5-1h-.1c-.5.1-1.2,0-1.5.3-4.4,4.8-10.1,4.4-15.7,4.3-2.9-.5-5.9,1-8.8-.1-1.2,1.9-4.9.7-4.8,4.1l1.2,12.9a2.85,2.85,0,0,0,1.6-.2,4.14,4.14,0,0,1-1.6.2c-.1.6-.2,1.3.5,1.6,5.1-.1,10.3-.1,15.4-.2a2.45,2.45,0,0,1,0,3.3h0a13.48,13.48,0,0,1-4.9,2.2,13.48,13.48,0,0,0,4.9-2.2c-5,0-10.1-.1-15.1-.1.1,1.8-.6,3.7.5,5.4a95.5,95.5,0,0,0,.6,10.6c.9,8.9,1.2,17.9,1.7,26.9,1.9-.1,1.4-1.6,1.6-2.7a8.28,8.28,0,0,1,1.3-4.1,13.21,13.21,0,0,1,1.5-6.2c1.9-3.2,3.7-6.4,5.6-9.5v-.1a1.08,1.08,0,0,0,1-1c-.2,0-.3,0-.4.1.1,0,.3-.1.4-.1l4.1-3.8h0c1.7-.8,3.4-1.5,4.6-3h.1a4,4,0,0,0,3.3-1.5,5,5,0,0,1,1.2-.2c.8-.1,1.7.3,2.3-.6.3,0,.5-.1.8-.1,4.5-.7,9.1-.5,13.7-.6h.1a9.2,9.2,0,0,0,4.6,1.4l.3.2h.4a5.68,5.68,0,0,0,3.7,1.6h.1c1.2,1.5,2.9,2.2,4.6,3h.1c1,0,2.1-.1,2.4-1.4a13,13,0,0,0,.3,1.3c-.9,0-1.8.1-2.7.1a5.09,5.09,0,0,0,2.8,2.4h.1c.2.3.5.5.7.8h0a1.55,1.55,0,0,0,1,1.2h0c1.3,2.2,2.5,4.5,4.4,6.2v.1c1.3,4.8,3.7,9.3,3.3,14.4h0c-.1,2.7-.2,5.5-.4,8.2-1,2.6-1.9,5.2-2.9,7.8,5.1.1,10.1.4,15.3-1.2,9.1-2.7,18.6-4.3,27.8-6.7,1.5-.4,3.8-.5,4.5-2.6h0a1.08,1.08,0,0,1,.7.3c2.3-2,4.5-3.6,4.1-6.8ZM318,152.8c-.2.1-.4-.1-.6-.2l.3-.6.6.3C318.23,152.4,318.13,152.7,318,152.8Zm19.6,2.3c.7-.7,2.6-.3,2.5-2C340.23,154.7,338.33,154.3,337.63,155.1Zm7,5.7c.1-.6.1-1.2.9-1.2.1,0,.2.2.2.2C345.83,160.7,345.23,160.7,344.63,160.8Zm6.5.9c-.4.9-1.2.6-1.9.6h-1.5c.1-.6.2-1.2.9-1.5s1.5-1,2.3-.1A1.64,1.64,0,0,1,351.13,161.7Zm-21.7,59.4a4.05,4.05,0,0,0,.5.9A1.93,1.93,0,0,1,329.43,221.1Zm1.4-2.2h0l-1.4,1.7-.1.1h-.8c1.8-3.3,2.6-7.2,6.1-9.3.1-.5.1-1,.8-1.1a.78.78,0,0,1,.4.4c-.1.6-.6.7-1.1.8l-.9,3C332.83,215.8,331.23,217,330.83,218.9Zm3.1-4.5c.4.4.3,1.1.2,1.8.1-.7.3-1.4-.2-1.8,1.5-.2,2.1-1.3,2.6-2.4C336,213.1,335.43,214.2,333.93,214.4Zm5.5-3.5c-.8.1-.8-.6-.9-1.2h0c.6.1,1.2.1,1.2.9Q339.58,210.9,339.43,210.9Zm1.4-24.3c-.1,0-.3-.2-.3-.2.1-.2.3-.4.4-.6.1.2.3.3.4.4A1,1,0,0,1,340.83,186.6Zm3.2,10.5a14.77,14.77,0,0,0-2.1-8.5c-.5-.8.6-.8,1.1-1h0C344.23,190.7,345.43,193.7,344,197.1Zm4.2-16.6a1.41,1.41,0,0,1-2-1.4c.9.2,2-.5,2.6.7C348.83,179.9,348.43,180.5,348.23,180.5Zm1.9,2.9c-.2-.1-.5-.1-.6-.3s.2-.4.2-.6c.2.1.5.1.6.3S350.23,183.2,350.13,183.4Zm1.6-4.6c-.2.1-.4-.1-.6-.2.1-.2.1-.5.3-.6s.4.1.6.2C351.93,178.4,351.93,178.7,351.73,178.8Zm11.2-13.5c-.5-.1-1.2-.1-.9-.8.1-.3.8-.5,1.2-.6s1,.1,1,.7A1.05,1.05,0,0,1,362.93,165.3Zm10.8,49.1c.1-.6.1-1.2.9-1.2.1,0,.2.2.2.2C374.93,214.3,374.33,214.3,373.73,214.4Zm5,3a6.4,6.4,0,0,0-1-1.3c1.1-1.3,1.7-.5,1.8.7C379.53,216.9,379,217.2,378.73,217.4Zm9.8,7.3c-.6.2-.8-.3-.8-.8,0-.3.4-.6.6-.7s.5.3.8.6C388.83,224.2,388.73,224.6,388.53,224.7ZM390,234c-.2.1-.4-.2-.6-.2.1-.2.1-.5.3-.6s.4.2.6.2A3.33,3.33,0,0,1,390,234Zm2.7-39.9c-.1,0-.2-.2-.2-.2-.1-.8.6-.8,1.2-.9C393.53,193.5,393.63,194.1,392.73,194.1Zm14.4,55.4c-.5,0-1-.2-.8-.8a1.27,1.27,0,0,1,.9-.4c.3,0,.5.3.9.6C407.63,249.1,407.43,249.4,407.13,249.5Zm8.9-.3c-.2.1-.4-.1-.6-.2.1-.2.1-.5.3-.6s.4.1.6.2C416.23,248.9,416.23,249.2,416,249.2Z" transform="translate(0.07)" fill="#2187f3"/><path d="M225.23,206.6Z" transform="translate(0.07)" fill="#2187f3"/><path d="M306.33,251.7c-.2-1.3.4-2.7-.7-3.7-2.8-15.3-5.5-30.5-9.8-45.6-3.2,14.1-4.5,28.4-5.5,42.8-1.4,2.1-.6,4.5-.6,6.8v.8h16.7A4.1,4.1,0,0,1,306.33,251.7Z" transform="translate(0.07)" fill="#2187f3"/><path d="M121.73,242.1c.4,1.4,1.3,1.2,2.4.9,3.2-.9,6.3-1.8,9.5-2.5,1.3-.3,2.2-.7,1.9-2.8a23.72,23.72,0,0,0-2.6-6.1c-.8-1.3-1.8-.7-2.6-.1-2.8,2.3-5.5,4.8-8.4,7.1C120.53,239.9,121.43,240.9,121.73,242.1Z" transform="translate(0.07)" fill="#231a3e"/><path d="M95.33,240.8a60.35,60.35,0,0,1,8.1,2.1c1.2.3,2.4,1.1,3.1-.8.4-1.4.9-2.4-.7-3.6a91.91,91.91,0,0,1-7.6-6.4,6.93,6.93,0,0,0-1.7-1c-2.4,1.2-2.7,3.6-3.5,5.6C92.13,239,92.43,240.3,95.33,240.8Z" transform="translate(0.07)" fill="#231a3e"/><path d="M107.13,248.3c0-1.7-.9-1.8-2-1.8-2,.1-4.1,0-6.1.3-7.3.9-7.9,2.1-4,8.6.9,1.5,1.5,2.2,3.1.7,2.5-2.3,5.2-4.4,7.8-6.6A4.46,4.46,0,0,0,107.13,248.3Z" transform="translate(0.07)" fill="#231a3e"/><path d="M131.53,247.2c-2.1-.2-4.3-.5-6.6-.7-1.1.5-2.9-.8-3.6.8-.9,1.9,1.2,2.5,2.2,3.5,2.2,1.9,4.5,3.6,6.7,5.5,1.2,1,1.9,1,2.7-.4.6-1.1,1.3-2.2,1.8-3.3C136.73,247.8,136.53,247.6,131.53,247.2Z" transform="translate(0.07)" fill="#231a3e"/><path d="M108.23,235.6c.5.8.7,2.1,2.2,1.4,1-.5,2.2-.9,1.8-2.5-.4-2.9-.8-5.8-1.3-8.7-.8-4.3-1.1-4.2-5.2-2.7-3.3,1.3-4.1,2.7-1.8,5.7A59.93,59.93,0,0,1,108.23,235.6Z" transform="translate(0.07)" fill="#231a3e"/><path d="M117.53,236.8c1.3.7,1.8,0,2.4-.9,1.8-3,3.7-6.1,5.6-9.1.5-.8.8-1.7-.3-2.3-1.8-.9-3.7-1.7-5.5-2.6-1.3,0-1.7.6-1.9,1.7-.6,3.6-1.2,7.3-1.8,10.9C115.83,235.7,116.53,236.2,117.53,236.8Z" transform="translate(0.07)" fill="#231a3e"/><path d="M111.33,251.1c-1-.3-1.8-.6-2.6.6-1.6,2.7-3.2,5.5-5,8s-1,3.6,1.4,4.4c1.1.4,2.1.7,3.2,1.1,1.7.6,2-.5,2.2-1.7.6-3.5,1.3-7,1.9-10.4C112.63,252.1,112.43,251.4,111.33,251.1Z" transform="translate(0.07)" fill="#231a3e"/><path d="M119.53,251.8a1.77,1.77,0,0,0-2.5-.8c-1.1.4-1.4,1-1.2,1.6.7,3.9,1.2,7.3,1.8,10.8.1.7,0,1.8,1,1.8a10.26,10.26,0,0,0,6.3-2.2c1.8-1.4-.2-2.7-.8-3.9C122.73,256.7,121,254.3,119.53,251.8Z" transform="translate(0.07)" fill="#231a3e"/><path d="M220.63,187.5a72,72,0,0,1-19.1,1.2c-.2,0-.4-.1-.6-.1s-.2.2-.2.3c.4-.9,1.3-.5,1.9-.6A67.63,67.63,0,0,1,220.63,187.5Z" transform="translate(0.07)" fill="#2a2976"/><path d="M233.73,156.7a1.53,1.53,0,0,1,1.8-.4A1.78,1.78,0,0,1,233.73,156.7Z" transform="translate(0.07)" fill="#2a2976"/><path d="M244.53,203.6c.8,2.5-1.2,1.6-2.1,1.6-5.2.1-10.4,0-15.7-.1.3-1.9,1.8-1.4,3-1.4C234.63,203.6,239.63,203.6,244.53,203.6Z" transform="translate(0.07)" fill="#eeecfc"/><path d="M244.53,203.6c-4.9,0-9.9,0-14.8.1-1.2,0-2.7-.5-3,1.4-.5,0-.9.1-1.4.1a17.7,17.7,0,0,0-.1-2.3h16C242.43,202.9,243.63,202.7,244.53,203.6Z" transform="translate(0.07)" fill="#fafafb"/></svg>