<svg id="Capa_1" data-name="Capa 1" xmlns="http://www.w3.org/2000/svg" viewBox="0 0 565.39 304.17"><path d="M222,108.18c7.83-14.58,17.88-27.06,31.73-36.62,20.7-14.29,44.27-20.63,68.36-25.1,12-2.21,24.36-2.33,36.66-2.57a279.55,279.55,0,0,1,62.9,6.16,237.42,237.42,0,0,1,45.76,14.51c16.86,7.33,32.58,16.76,46.21,29.49,7,6.57,13.66,13.55,18.72,21.49,8.2,12.86,12.84,27.15,14.79,42.56,2,15.77-2.9,30.4-4.75,45.56a57.08,57.08,0,0,0,7.16,36.42c5.66,9.7,13.15,17.8,20.71,26,8.69,9.42,18.22,18.41,23.05,30.75,4.39,11.18,6.21,22.5,1.77,34.24-1.79,4.74-2.8,9.76-4.17,14.66H565c-1.92-2.59-5.15-1.18-8.43-2.37,2.73-1.94,4.86-3.38,6.91-4.94,1.65-1.27,4-2.47,3-5-1-2.31-3.38-1.42-5.3-1.3a2.67,2.67,0,0,1-1.33-2.37c.61-2.41,4.48-5.22.34-7.14-3.93-1.83-5.5,2-6.64,4.88a40.26,40.26,0,0,0-2,7.7c-.64,3.62-.37,7.68-5.75,7.95-1.18.06-1.56,1.59-1.92,2.71H513.08c7.24-4.67,8.77-8.44,6.82-17.11-.58-2.58-1.39-5.11-2.1-7.67-.2-.42-.4-.85-.61-1.27s-.19-.54-.3-.8a7,7,0,0,0-.62-4.35c-5.43-11.61-5.38-23.58-2.33-35.74,7.83-8,9-12.95,4.8-22.44a16,16,0,0,1-.42-12.54,12.59,12.59,0,0,0,.61-8.27c-2.84-9.37-8-17.11-16.45-22.3-6.33-3.9-13.16-4.26-20.09-1.6-8.84,3.38-13.22,15.85-8.37,23.85,1.2,2,2,4,.94,6.08-1.85,3.78-.82,7.06,1.37,10.24-.83,3.43-5.9,2-6.52,5.7A15.51,15.51,0,0,0,463,260c-4.59.08-8.67-1.51-12.57-3.74l.33-46.59h1.18c4.57,2.62,8.58.85,12.55-1.56,5.85-3.55,5.87-3.52.41-7A7.85,7.85,0,0,1,466,197c2.22.3,3.56,2.51,6.18,2.33,4.75-.34,6.95-3.22,8.56-7.13s1.09-7.5-1.95-10.5c-5.25-5.16-10-5.55-16.36-1.57-1.09.69-2.3,1.2-3.45,1.8-1-1.35.14-2.75-.08-4.12.09-1.29,4.26-2.72.38-3.74-6-1.57-12.21-2.23-18.31,0-.94-2.25-5.31-.26-5-4,4.45-3.39,7.55-7.89,10.23-12.69s2.48-5.21-2.92-5.14A28.34,28.34,0,0,1,428.82,149c-.74-.41-1.52-.92-1.42-1.85s1.13-1,1.91-1.18c4.24-1.11,8.58-.81,12.88-1.1,3.4-.23,7.05,0,9.91-2.45,6.21-5.36,5.25-19.75-1.41-24.55-5.23-3.78-11.1-2.67-16.84-2.91a6,6,0,0,0-5.84,3,99,99,0,0,1-8.49,11.66c-2.62,2.92-4.23,7.18-9.34,8.33.3-1.37.43-2.3.71-3.19,1.53-5,4.2-9.37,6.63-13.9.61-1.14,1.87-2.39,1.12-3.64-1.06-1.77-2.77-.28-4.05-.07-7.78,1.23-14.79,4.82-22,7.68-2.05.81-2.48,2.17-2.09,4.37,1.1,6.13-.67,12.19-.84,18.31,0,1.05-.16,3.13-1.87,3.06-2-.07-1.84-2.06-1.82-3.48.06-4.64-.28-9.29.85-13.9.35-1.38,1.33-4.2-1.92-3.8-5.64.71-14.64,11.74-15,17.8-.11,1.73,1.22,4.2-1.81,4.95l-.15-1-1.13-.92.09.08c-.27-1.11-1.1-1.23-2-1.14-7.86-4.61-15.85-9-23.55-13.88-8.37-5.3-16.35-5.19-24.67.08-7.13,4.53-14.53,8.63-21.8,12.92-1.33-.32-1.53-1.49-2.11-2.49-3-5.17-6.54-9.91-11.62-13.29-.94-.63-1.8-1.71-3.06-1.2-1.67.66-1,2.27-1,3.48,0,5.78.25,11.56-1,17.27h-4a137.1,137.1,0,0,1,1-21.81c.21-1.81.39-3.72-1.59-4.85-7.77-4.45-15.44-9.1-24.22-11.4-1.19-.31-2.76-1.61-3.58-.17-.47.82.31,2.49.75,3.7,1.8,5,3.78,9.89,5.48,14.91.44,1.28,1,3.3-.48,4.09-1.67.88-2.68-1-3.42-2.15a148.34,148.34,0,0,1-8.22-13C234.23,114.72,231.23,107.82,222,108.18ZM415,87a8.36,8.36,0,0,0-1.64-7.23c-2.17-2.87-4.23-5.81-6.37-8.7-.94-1.27-1.46-3.47-3.15-3.41-2.08.07-2.27,2.53-3,4.07A13,13,0,0,0,400,75a2.37,2.37,0,0,0-2.12,1.13c-8.27-3.26-16.91-1.29-25.31-2.75l-.24,1.38L389,80.08c-.35,2.71.61,4.47,3.49,4.91,6.48,1,12.95,2,19.43,3C413,88.17,414.24,88.19,415,87Zm104.84,59.91c.36-2.49-.24-3.54-2.74-3.93a124.94,124.94,0,0,1-13-3c-9.59-2.58-19.14-5.27-28.7-7.95-1.68-.47-3.05-1.05-3.69,1.5-2,8-4.17,15.95-6.36,23.9a2.31,2.31,0,0,0,2.08,3.24c4.89.51,9.1,3,13.72,4.29,8.73,2.35,17.64,4,26.23,7,2.59.88,5.2,1.61,6.5-2.87C516,161.52,517.68,154,519.79,146.86ZM334.7,102.94a9.33,9.33,0,0,0-.58-1.21c-2.87-4.33-4.25-9.34-6.4-14-3-6.44-3-6.41-9.4-3.39-.6.28-1.24.47-1.86.7-9.43,3.62-18,9.1-27.71,12.15-1.94.61-2.86,1.45-1.44,4a82.9,82.9,0,0,1,7.33,15.73c1.49,4.8,4.21,3.89,7.06,2.62,10.1-4.51,20.11-9.25,30.13-13.94C333,105,334.41,104.69,334.7,102.94Z" transform="translate(-32.3 -43.84)" fill="#eaf1f9"/><path d="M51.08,345.75c.19-6.88-4.42-12-6.77-18-8.46-21.43-12.44-43.58-11-66.5A152.35,152.35,0,0,1,37.87,234C42.1,216.9,50,201.53,59.71,187.14c10.84-16,25.07-28.39,43.68-34.49,6.29-2.07,12.7-4.67,19.6-4.63l-.9,4a84.44,84.44,0,0,0-9.91,32.47c-.36,3.6,1.26,6.7,2.79,9.89,2.73,5.69,7.4,10.18,9.67,16.11l0,3h0c1.18,20.74,1,41.55,3.26,62.22a5.54,5.54,0,0,1-.77,3.32c-8.46,16.34-8.44,33.49-4.81,51l.65,1.52.08,1.51c-1.12,4.26-2.5,9.1-4.71,12.11-1.61,2.19-8.32.66-12.76.73-1.81,0-3.62-.11-5.43-.17a8.69,8.69,0,0,0-6.56-3.15c-3.78-.15-5.39-2.06-6.74-5.27a29.3,29.3,0,0,0-6.33-10.05c-1-1-2.24-1.74-3.58-1-1.56.82-.77,2.22-.47,3.51.62,2.67,2.54,4.59,3.74,6.93l-1.4,1.44c-2,.15-3-2.9-5.57-1.58.77,3.95,5.45,4.23,7.26,7.19-3.61,1.58-7.69-1.46-10.61,2Zm51-101.53c-.54-4.15-1.67-8.53-4.49-11.25-2.33-2.24-5.11,1.85-8,2.33a26.7,26.7,0,0,0-4.22,1.46c-3.72,1.29-8.73,1.53-10.87,4.13-2.86,3.46,2.22,7.32,2.61,11.34a7.17,7.17,0,0,0,.58,1.88c.6,1.4,1.52,2.11,3.13,1.45q9.6-3.9,19.24-7.73C101.76,247.15,102.11,245.82,102,244.22Z" transform="translate(-32.3 -43.84)" fill="#eaf1f9"/><path d="M100.19,345.71c1.81.06,3.62.2,5.43.17,4.44-.07,11.15,1.46,12.76-.73,2.21-3,3.59-7.85,4.71-12.11a10.58,10.58,0,0,0,6.84,2.9c2.48,6.35,9.43,7.78,14.13,9.31,7,2.3,15.38.63,23.16.63.85,0,1.83-.19,1.66-1.28-.53-3.36,2.34-6.27,1.21-9.68a15.88,15.88,0,0,0,6.76-1c7.19,8.2,15.88,13,27.13,12,1-.08,2-.06,3-.09l.46.11.47-.08c2,0,4,.12,6,.12q92.69,0,185.37,0c9.25,0,18.59,1.23,27.23-4.09,3.72-2.29,7.14-5.66,6.31-8.91.13-2.07,1.32-3.73,2.14-5.54a163.12,163.12,0,0,0,13.22-50.93c.8-3.05,1.92-5.88,4.91-7.49,5-1.86,8.08,2.32,12,3.94-5.5.68-3.52,5.65-3.78,8.21-1.78,17.53-4.43,34.76-12,50.89-3,.71-4.46,3.61-7,5-1.24.69-1,2.14-.15,3.43,1.21,1.75,2.33.78,3.28-.05,1.72-1.52,3.29-3.23,4.92-4.86l6.87,2.44c.54,1.55,1.59,3.12,1.52,4.64-.14,3.12,1.36,3.37,3.86,3.3,5.38-.16,10.76-.05,16.68-.05-5.62-6.24-5.78-14-8.31-20.83,2.31-3.43,4.68-6.82,6.88-10.33.6-.95.64-2.41,2.09-2.42,1.76,0,1.8,1.6,2.27,2.81,3.21,8.31,5.58,16.91,9.31,25,1.9,4.15,4.3,6.32,9.12,5.82,4.12-.42,8.32-.13,12.48-.15h30.81l21.12-.09h25.91l5.92.27c.09.34.18.69.26,1l-3,.34h-1.35l-172.62,0c-1.64-.15-3.28-.43-4.93-.43q-101.19,0-202.38,0c-1.64,0-3.29.28-4.93.43H32.31v-1.66H51.08l18.85,0Z" transform="translate(-32.3 -43.84)" fill="#233864"/><path d="M122.09,152l.9-4c3-5,6.1-10,12.11-12,1.51,0,3.17.37,4.12-1.35l3.79-.47c2.34,1.45,3,3.64,3.11,6.29.09,3.08,1.32,5.2,4.86,5.73,3.23.49,6.32,1.59,9.65,1.85,7.5.59,7.67.68,6.05-6.51-.63-2.82.94-2.59,2.58-2.78l5.54,1.35,6.34,7.77c-3.13,5.84-6.53,11.57-8,18.13-.44,6.94-.37,14-1.49,20.79-.86,5.31.93,11.06-2.44,16L162,204.2c-7.39-.21-14.79.67-22.16-.35a2.5,2.5,0,0,0-3.57-.18l-2.18-.39c-.69-6,1.45-11.66,2.32-17.47.58-3.83,3.84-8.2-.58-11.92L134,163.15c.9-4-.52-6.66-4.53-8C126.92,154.29,124.53,153.07,122.09,152Z" transform="translate(-32.3 -43.84)" fill="#fc9943"/><path d="M222,108.18c9.21-.36,12.21,6.54,15.72,13.13a148.34,148.34,0,0,0,8.22,13c.74,1.11,1.75,3,3.42,2.15,1.5-.79.92-2.81.48-4.09-1.7-5-3.68-9.93-5.48-14.91-.44-1.21-1.22-2.88-.75-3.7.82-1.44,2.39-.14,3.58.17,8.78,2.3,16.45,7,24.22,11.4,2,1.13,1.8,3,1.59,4.85A137.1,137.1,0,0,0,272,152l-9.93.05c-8.74-8.62-19.6-14-30.2-19.73,4.87,4.18,10.3,7.53,15.41,11.32,3.22,2.38,7.29,4,8.84,8.26-7.78.07-15.55.25-23.32.16-3.36,0-4.9,1.06-4.72,4.58.21,4.13.12,8.27.16,12.4-1.11,1.51-2.19,3-4.36,3-9.26-3.73-12.74-12-15.71-20.49-.83-2.37,1.17-2.82,3-2.3,5.53,1.57,10.8,0,16.12-1.12,1.42-.3,3.33-.26,3.35-2.23s-1.9-2.23-3.26-2.51c-4.36-.93-8.74-1.74-13.15-2.38-10.1-1.46-11.83-2.93-13.51-12.05.12-1.64.2-3.29.35-4.93.89-9.7,6-14.62,15.58-15.17C218.43,108.77,220.22,108.42,222,108.18ZM229,131a1.75,1.75,0,0,0,.15.34c.05.06.17,0,.26.07L229,131l-.4-.24Z" transform="translate(-32.3 -43.84)" fill="#a9d1a2"/><path d="M200.7,129c1.68,9.12,3.41,10.59,13.51,12.05,4.41.64,8.79,1.45,13.15,2.38,1.36.28,3.27.65,3.26,2.51s-1.93,1.93-3.35,2.23c-5.32,1.11-10.59,2.69-16.12,1.12-1.84-.52-3.84-.07-3,2.3,3,8.51,6.45,16.76,15.71,20.49-3.68,2.41-7.35-.11-11-.24-8.38-.29-15.59-3.14-20.6-10.69-3.16-4.76-7.38-8.81-11.12-13.18l-6.34-7.77Z" transform="translate(-32.3 -43.84)" fill="#eaf0f7"/><path d="M152,120.14c-7.63-1.24-10.21-5-9.06-13.12.32-2.27,1.21-4-1.91-5.87-3.95-2.34-3.95-9.29-.94-12.47,2.8-3,8.71-2.35,11.89,1.34,1,1.11,1.35,2.12,3.42,1.84,8.88-1.21,12.57,6.09,17.14,11.42,3,3.54,1.7,7.82-.43,11.64-2.05-2.31-.94-5.45-2.09-8-.47-1-.75-2.44-2.07-2.56-1.17-.1-1.24,1.33-1.81,2.07-2.11,2.78-2.94,6.82-7.25,7.46l.08.06C153.24,112.51,152.33,113.32,152,120.14Z" transform="translate(-32.3 -43.84)" fill="#233864"/><path d="M158.89,113.89c4.31-.64,5.14-4.68,7.25-7.46.57-.74.64-2.17,1.81-2.07,1.32.12,1.6,1.52,2.07,2.56,1.15,2.55,0,5.69,2.09,8-1,5.49-1.31,11.44-8.38,13-2.41-1.77-4.84-3.46-8.47-3.29,2.2,3.21,4.18,5.79,8.14,5.15-.76,4.76,2.51,6.9,5.86,9-1.64.19-3.21,0-2.58,2.78,1.62,7.19,1.45,7.1-6.05,6.51-3.33-.26-6.42-1.36-9.65-1.85-3.54-.53-4.77-2.65-4.86-5.73-.08-2.65-.77-4.84-3.11-6.29,6.51-.63,9.37-4.91,8.9-13.33.45-.27,1.07-.54.05-.89l0,.11c.33-6.82,1.24-7.63,7-6.18a4,4,0,0,0-.22.34.58.58,0,0,0,0,.22Z" transform="translate(-32.3 -43.84)" fill="#f7b384"/><path d="M207.88,347.41c1.64-.15,3.29-.43,4.93-.43q101.19,0,202.38,0c1.65,0,3.29.28,4.93.43-1.54.91-3.25.51-4.88.51q-101.24,0-202.48,0C211.13,347.92,209.43,348.32,207.88,347.41Z" transform="translate(-32.3 -43.84)" fill="#9ea0b1"/><path d="M163.4,129.83c-4,.64-5.94-1.94-8.14-5.15,3.63-.17,6.06,1.52,8.47,3.29Z" transform="translate(-32.3 -43.84)" fill="#fc9943"/><path d="M139.22,134.72c-.95,1.72-2.61,1.32-4.12,1.35C136.24,134.9,137.47,134,139.22,134.72Z" transform="translate(-32.3 -43.84)" fill="#f7b384"/><path d="M152,120c1,.35.4.62-.05.89A.61.61,0,0,1,152,120Z" transform="translate(-32.3 -43.84)" fill="#233864"/><path d="M597.1,347c-.08-.35-.17-.7-.26-1l.86.55Z" transform="translate(-32.3 -43.84)" fill="#9ea0b1"/><path d="M592.74,347.38h1.35Q593.42,348.22,592.74,347.38Z" transform="translate(-32.3 -43.84)" fill="#9ea0b1"/><path d="M262,152.06,272,152h4a27.38,27.38,0,0,0,14,.3l77.78.18c9.11.8,18.24.45,27.36.21,2.39.84,4.45-1.12,6.77-.79,8,.07,15.9.28,23.84.15,3.28-.06,4.37,1,4.23,4.27-.22,5,0,9.94,0,14.91,0,1.28.05,2.57.07,3.85l0,14.66L430,212c-5.78,3.72-11.48,7.58-17.37,11.14q-35.77,21.66-71.66,43.18c-3.8-.92-7.09-3.27-11.19-3.49-4.7-.24-8.45,2.38-12.69,3.49a25.07,25.07,0,0,0-2.36-1.81C293.78,252,272.81,239.58,252,227c-8-4.87-16.64-8.88-23.91-15,0-6.58.11-13.15.12-19.73,0-1.37.43-3.19-2-3a8.25,8.25,0,0,0,1.53-8.8c-1.09-2.94-4.42-.92-6.67-1.48,6.15-.51,9-4.37,10-10a1.22,1.22,0,0,0,.38-.13c.06,0,.05-.18.07-.28L231,169l-2.82,0c0-4.13,0-8.27-.16-12.4-.18-3.52,1.36-4.62,4.72-4.58,7.77.09,15.54-.09,23.32-.16C258.07,152.15,260,153.72,262,152.06Zm67.64,28H279.22a20.28,20.28,0,0,0-4,.16c-1.24.25-2.91.52-2.94,2.19,0,2,1.76,1.53,3,1.63,9,.8,18.11.52,27.14.73,14.93.34,29.95-.32,44.84-.17,12.11.11,24.17-1.33,36.26-.58,1.23.08,3,.41,3.16-1.48s-1.42-2.4-3.05-2.46c-1.17,0-2.33,0-3.5,0Zm-.2-7c-11.48,0-23,0-34.45,0-1.44,0-3.86-.86-3.7,1.86.12,2.19,2.23,2.08,3.9,2.09q34.44,0,68.9,0c1.53,0,3.77.55,3.65-2.07s-2.34-1.87-3.85-1.88C352.45,173,341,173,329.48,173Zm.5,36h28c3.33,0,6.67,0,10,0,1.45,0,3.54.19,3.45-1.82-.08-1.72-2.33-1.79-3.59-1.83-2.62-.08-5.26.62-7.89.63-21.64.06-43.29,0-64.93,0-1.33,0-2.67,0-4,.07-.65,0-1.48.2-1.39,1,.05.53.55,1.36,1,1.46a17.21,17.21,0,0,0,3.93.42Q312.25,209,330,209Zm31.76,4c-7,0-13.95,0-20.92,0-1.32,0-3.49-.7-3.46,1.58,0,1.84,2,1.36,3.21,1.36q20.91,0,41.84,0c1.22,0,3.17.48,3.2-1.35,0-2.29-2.14-1.57-3.45-1.59C375.35,212.94,368.55,213,361.74,213ZM310,224c6.63,0,13.26,0,19.89-.05,1.27,0,3.58.88,3.51-1.36-.06-1.79-2.21-1.57-3.68-1.58-3.48,0-7,0-10.45,0-8.95,0-17.9,0-26.85,0-1.72,0-4.58-.68-4.65,1.5-.09,2.64,2.81,1.36,4.32,1.4C298,224.12,304,224,310,224Zm45,0c5.16,0,10.32,0,15.48,0,1,0,2.67.53,2.89-1.09s-1.24-1.83-2.41-1.83q-16-.06-32,0c-1.16,0-2.55.3-2.39,1.85.13,1.35,1.5,1,2.42,1C344.33,224,349.66,224,355,224ZM344.61,242.7c-6.34,2.64-6.37,2.66-10-3.13-.71-1.14-1.72-2.15-2.71-1.14-2.92,3-6.77,5.69-5.42,11.09,1.51-1.42,4.09-1.14,4.78-3.78.36-1.38,1.66-2.34,3.07-1.29s.76,2.36,0,3.55a21,21,0,0,0-2.05,3.33,1.66,1.66,0,0,0,1.08,2c.36.14,1.22,0,1.28-.2C336.28,248,341.78,246.64,344.61,242.7ZM319.35,213v0c-4.3,0-8.61,0-12.91,0-1,0-2.16.18-2.16,1.46s1.13,1.47,2.16,1.47q12.17,0,24.32,0c1.22,0,2.63-.31,2.66-1.64.05-1.69-1.6-1.3-2.66-1.31C327,213,323.15,213,319.35,213Zm-32.69,2.93v0c3.31,0,6.61,0,9.92,0,1,0,2.16-.2,2.15-1.47s-1.14-1.46-2.16-1.46q-9.92,0-19.84,0c-1,0-2.25-.06-2.18,1.31.06,1.08,1.14,1.58,2.2,1.59C280.05,216,283.36,215.92,286.66,215.92Zm36.82,35.52c0-3.85-1.53-6.66.64-9.19.93-1.1,1.42-2.61-.56-3.06-1.63-.38-2.36,1.06-2.47,2.45C320.83,244.73,320.68,247.84,323.48,251.44Z" transform="translate(-32.3 -43.84)" fill="#faebda"/><path d="M340.93,266.32q35.83-21.58,71.66-43.18c5.89-3.56,11.59-7.42,17.37-11.14,7.31-2.39,13.1-7.52,19.81-11,.84,2.63-.33,5.48.86,8.07a2.51,2.51,0,0,0,.1.6l-.33,46.59c-6.75-.43-11.14-4.81-15.5-9.24l-.22.05c-.05-1.8-.69-3-2.76-2.9l-1.92-.07c-6.2-.33-12.18,1.4-18.26,2.11-2.38.27-3.9,1.85-.8,3.83,1.69.91,3.08,1.7,3.27,4.18.21,2.87,1.81,5.48,3.77,7.72a2,2,0,0,0,.74.48.42.42,0,0,0,.13.54c.4,1.77.88,3.53,1.18,5.31.76,4.53,3.13,6.31,7.9,5.84,5.26-.51,10.61-.22,15.92-.27,1.93,0,4.08-.26,4.29,2.62a163.13,163.13,0,0,1-13.22,50.92c-.82,1.81-2,3.47-2.14,5.54q-21-15-42-30.09c-12.67-9-25.49-17.86-38-27.13C348.75,272.73,343.51,271.15,340.93,266.32Z" transform="translate(-32.3 -43.84)" fill="#fc9943"/><path d="M513.08,345.84c-4.16,0-8.36-.27-12.48.15-4.82.5-7.22-1.67-9.12-5.82-3.73-8.13-6.1-16.73-9.31-25-.47-1.21-.51-2.83-2.27-2.81-1.45,0-1.49,1.47-2.09,2.42-2.2,3.51-4.57,6.9-6.88,10.33-4.64,4.26-8.06,9.81-13.75,12.94l-6.87-2.43c-.35-1.19-.69-2.38-1-3.56,7.54-16.13,10.19-33.36,12-50.89.26-2.56-1.72-7.53,3.78-8.21,5.8,2.53,11.73,1.58,17.65.58,8.87,6.57,14.65,15.78,20.77,24.64,4.7,6.8,9,13.89,13.45,20.85.11.26.21.53.3.8s.41.85.61,1.27c.71,2.56,1.52,5.09,2.1,7.67C521.85,337.4,520.32,341.17,513.08,345.84Z" transform="translate(-32.3 -43.84)" fill="#294589"/><path d="M395.13,152.7c-9.12.24-18.25.59-27.36-.21a.33.33,0,0,1,.28-.39c3-.75,1.7-3.22,1.81-4.95.37-6.06,9.37-17.09,15-17.8,3.25-.4,2.27,2.42,1.92,3.8-1.13,4.61-.79,9.26-.85,13.9,0,1.42-.21,3.41,1.82,3.48,1.71.07,1.85-2,1.87-3.06.17-6.12,1.94-12.18.84-18.31-.39-2.2,0-3.56,2.09-4.37,7.24-2.86,14.25-6.45,22-7.68,1.28-.21,3-1.7,4.05.07.75,1.25-.51,2.5-1.12,3.64-2.43,4.53-5.1,8.94-6.63,13.9-.28.89-.41,1.82-.71,3.19,5.11-1.15,6.72-5.41,9.34-8.33A99,99,0,0,0,428,117.92a6,6,0,0,1,5.84-3c5.74.24,11.61-.87,16.84,2.91,6.66,4.8,7.62,19.19,1.41,24.55-2.86,2.46-6.51,2.22-9.91,2.45-4.3.29-8.64,0-12.88,1.1-.78.21-1.79.12-1.91,1.18s.68,1.44,1.42,1.85a28.34,28.34,0,0,0,14.42,3.15c5.4-.07,5.63.31,2.92,5.14s-5.78,9.3-10.23,12.69l-6,1.27c0-5-.19-10,0-14.91.14-3.24-1-4.33-4.23-4.27-7.94.13-15.89-.08-23.83-.15.49-3.14,3.41-3.77,5.52-5.06,6.1-3.74,12.34-7.24,18.52-10.84,1.71.09,3.24-.17,4-2,.36-.24,1.35.48,1.08-.72L430,134c-1.7-.08-3.26.15-4,2-8.45,1.21-15.21,6.27-22.45,10.14C400.47,147.81,396.89,149.21,395.13,152.7Z" transform="translate(-32.3 -43.84)" fill="#a9d1a2"/><path d="M519.79,146.86c-2.11,7.1-3.81,14.66-6,22.1-1.3,4.48-3.91,3.75-6.5,2.87-8.59-3-17.5-4.61-26.23-7-4.62-1.24-8.83-3.78-13.72-4.29a2.31,2.31,0,0,1-2.08-3.24c2.19-8,4.36-15.9,6.36-23.9.64-2.55,2-2,3.69-1.5,9.56,2.68,19.11,5.37,28.7,7.95a124.94,124.94,0,0,0,13,3C519.55,143.32,520.15,144.37,519.79,146.86Z" transform="translate(-32.3 -43.84)" fill="#dde9f9"/><path d="M476.33,251.92c-2.19-3.18-3.22-6.46-1.37-10.24,1-2.12.26-4.11-.94-6.08-4.85-8-.47-20.47,8.37-23.85,6.93-2.66,13.76-2.3,20.09,1.6,8.42,5.19,13.61,12.93,16.45,22.3a12.59,12.59,0,0,1-.61,8.27,16,16,0,0,0,.42,12.54c4.19,9.49,3,14.41-4.8,22.44.28-4.29.89-8.59.79-12.88-.35-16.7-1.84-16.9-15.93-17-3.47-6-.84-15-9.34-18.45-.23-.1-.37-.54-.48-.85-.66-1.87-1.28-3.76-2-5.62-.85-2.31-2.38-3.5-5-3-2.38.49-3.94,1.69-4,4.28a55.5,55.5,0,0,0-.14,7.94c.37,3.45.63,7.89,3.72,9.37,4.89,2.33,4,5.5,3.14,9.21C481.93,251.32,479.12,254.23,476.33,251.92Z" transform="translate(-32.3 -43.84)" fill="#233864"/><path d="M476.33,251.92c2.79,2.31,5.6-.6,8.39,0,.15,2.28,1,3.23,3.53,2.54,3.94-1.07,7.14-3.44,10.55-5.45,14.09.07,15.58.27,15.93,17,.1,4.29-.51,8.59-.79,12.88-3.05,12.16-3.1,24.13,2.33,35.74a7,7,0,0,1,.62,4.35c-4.47-7-8.75-14.05-13.45-20.85-6.12-8.86-11.9-18.07-20.78-24.63,5.5-1.75,11.43-2.17,16.83-5.06-2.57-3.51-6-5.72-8-9.21-1-1.77-2.57-.6-3.94-.09-4.31,1.62-8.63,3.24-13.28,3.65-1.93-1.34-3.14-3.3-4.44-5.18C470.43,253.94,475.5,255.35,476.33,251.92Z" transform="translate(-32.3 -43.84)" fill="#7699ec"/><path d="M450.63,209.09c-1.19-2.59,0-5.44-.86-8.07-6-4.81-12.41-8.88-19.79-11.27l0-14.66c1.29-.33,2.56-.75,3.86-1s3.3-1.08,4.28.08c1.17,1.37-.65,2.64-1.26,3.88-1.36,2.79-3.71,5.25-2.72,10.08,3.55-5,6.82-8.71,6.76-14.16,6.1-2.19,12.31-1.53,18.31,0,3.88,1-.29,2.45-.38,3.74-3,1.92-5.82,4-7.69,7.48,3.56.32,5.5-1.88,7.77-3.36,1.15-.6,2.36-1.11,3.45-1.8,6.33-4,11.11-3.59,16.36,1.57,3,3,3.59,6.53,1.95,10.5s-3.81,6.79-8.56,7.13c-2.62.18-4-2-6.18-2.33-2.09-1.26-4.21-2.39-7.19-1.5a10.36,10.36,0,0,0,6.1,5.68c5.46,3.45,5.44,3.42-.41,7-4,2.41-8,4.18-12.55,1.56Z" transform="translate(-32.3 -43.84)" fill="#87b37c"/><path d="M334.7,102.94c-.29,1.75-1.71,2.1-2.87,2.64-10,4.69-20,9.43-30.13,13.94-2.85,1.27-5.57,2.18-7.06-2.62a82.9,82.9,0,0,0-7.33-15.73c-1.42-2.52-.5-3.36,1.44-4,9.68-3,18.28-8.53,27.71-12.15.62-.23,1.26-.42,1.86-.7,6.36-3,6.43-3,9.4,3.39,2.15,4.65,3.53,9.66,6.4,14A9.33,9.33,0,0,1,334.7,102.94Z" transform="translate(-32.3 -43.84)" fill="#dde9f9"/><path d="M368.05,152.1a.33.33,0,0,0-.28.39L290,152.31c.34-2.85,3.85-1.95,4.81-4.07,7.27-4.29,14.67-8.39,21.8-12.92,8.32-5.27,16.3-5.38,24.67-.08,7.7,4.86,15.69,9.27,23.55,13.88a2.3,2.3,0,0,0,2,1.14l-.08-.08,1.12.92Z" transform="translate(-32.3 -43.84)" fill="#ec7d26"/><path d="M474.25,262.8c4.65-.41,9-2,13.28-3.65,1.37-.51,2.93-1.68,3.94.09,2,3.49,5.45,5.7,8,9.21-5.4,2.89-11.33,3.31-16.83,5.06-5.91,1-11.84,1.94-17.64-.59-3.89-1.62-6.94-5.8-12-3.94-.63-3-9.44-10.41-12.58-10.5-.33,0-.67.66-1,1a2.19,2.19,0,0,0-.72-.42c-3.28-2.36-7.41-.26-10.8-2l-1.05-2a7.24,7.24,0,0,0,.22-.92l1.86-1,1.19-.9L433,252c.5-.17,1.78.47,1-1l.93-3.92c4.36,4.43,8.75,8.81,15.5,9.24,3.9,2.23,8,3.82,12.57,3.74C465.91,264.27,469.86,264.43,474.25,262.8Z" transform="translate(-32.3 -43.84)" fill="#f5be9a"/><path d="M400,75a13,13,0,0,1,.71-3.29c.77-1.54,1-4,3-4.07,1.69-.06,2.21,2.14,3.15,3.41,2.14,2.89,4.2,5.83,6.37,8.7A8.36,8.36,0,0,1,415,87c-1-.13-1.94-.2-2.89-.41-7.79-1.8-15.12-5.28-23.08-6.46l-16.61-5.35.24-1.38c8.4,1.46,17-.51,25.31,2.75,3.51,4.47,8.83,5.8,13.65,8A53.1,53.1,0,0,0,400,75Z" transform="translate(-32.3 -43.84)" fill="#fdfdfd"/><path d="M294.8,148.24c-1,2.12-4.47,1.22-4.81,4.07a27.38,27.38,0,0,1-14-.3c1.22-5.71.94-11.49,1-17.27,0-1.21-.64-2.82,1-3.48,1.26-.51,2.12.57,3.06,1.2,5.08,3.38,8.62,8.12,11.62,13.29C293.27,146.75,293.47,147.92,294.8,148.24Z" transform="translate(-32.3 -43.84)" fill="#a9d1a2"/><path d="M565,345.74l-21.12.09c.36-1.12.74-2.65,1.92-2.71,5.38-.27,5.11-4.33,5.75-7.95a40.26,40.26,0,0,1,2-7.7c1.14-2.91,2.71-6.71,6.64-4.88,4.14,1.92.27,4.73-.34,7.14-3.42,3.78-5,8.31-5.51,13.26a85.64,85.64,0,0,1,6.84-10.89c1.92-.12,4.32-1,5.3,1.3,1.08,2.56-1.31,3.76-3,5-2,1.56-4.18,3-6.91,4.94C559.86,344.56,563.09,343.15,565,345.74Z" transform="translate(-32.3 -43.84)" fill="#87b37c"/><path d="M440.93,174c.06,5.45-3.21,9.19-6.76,14.16-1-4.83,1.36-7.29,2.72-10.08.61-1.24,2.43-2.51,1.26-3.88-1-1.16-2.84-.31-4.28-.08s-2.57.63-3.86,1c0-1.28-.05-2.57-.07-3.85l6-1.27C435.62,173.75,440,171.76,440.93,174Z" transform="translate(-32.3 -43.84)" fill="#dde9f9"/><path d="M389,80.08c8,1.18,15.29,4.66,23.08,6.46.95.21,1.93.28,2.89.41-.71,1.24-1.91,1.22-3.05,1-6.48-1-12.95-2-19.43-3C389.59,84.55,388.63,82.79,389,80.08Z" transform="translate(-32.3 -43.84)" fill="#dde9f9"/><path d="M474.25,262.8c-4.39,1.63-8.34,1.47-11.28-2.78a15.51,15.51,0,0,1,6.84-2.4C471.11,259.5,472.32,261.46,474.25,262.8Z" transform="translate(-32.3 -43.84)" fill="#f7b384"/><path d="M400,75a53.1,53.1,0,0,1,11.53,9.15c-4.82-2.22-10.14-3.55-13.65-8A2.37,2.37,0,0,1,400,75Z" transform="translate(-32.3 -43.84)" fill="#dde9f9"/><path d="M561.15,332.1A85.64,85.64,0,0,0,554.31,343c.56-4.95,2.09-9.48,5.51-13.26A2.67,2.67,0,0,0,561.15,332.1Z" transform="translate(-32.3 -43.84)" fill="#dde9f9"/><path d="M458.94,181.91c-2.27,1.48-4.21,3.68-7.77,3.36,1.87-3.52,4.72-5.56,7.69-7.48C459.08,179.16,457.9,180.56,458.94,181.91Z" transform="translate(-32.3 -43.84)" fill="#dde9f9"/><path d="M464.87,201.16a10.36,10.36,0,0,1-6.1-5.68c3-.89,5.1.24,7.19,1.5A7.85,7.85,0,0,0,464.87,201.16Z" transform="translate(-32.3 -43.84)" fill="#dde9f9"/><path d="M366.86,150.26a2.3,2.3,0,0,1-2-1.14C365.76,149,366.59,149.15,366.86,150.26Z" transform="translate(-32.3 -43.84)" fill="#faebda"/><path d="M450.63,209.09l1.28.6h-1.18A2.51,2.51,0,0,1,450.63,209.09Z" transform="translate(-32.3 -43.84)" fill="#f5be9a"/><path d="M517.8,321.06c-.2-.42-.4-.85-.61-1.27C517.4,320.21,517.6,320.64,517.8,321.06Z" transform="translate(-32.3 -43.84)" fill="#7699ec"/><path d="M367.9,151.1l-1.12-.92Z" transform="translate(-32.3 -43.84)" fill="#faebda"/><path d="M139.86,203.85c7.37,1,14.77.14,22.16.35-1.49,10.81-5.22,21.15-6.67,32-1.36,10.13-3.64,20.14-5.51,30.2-1.69,4.84-2.89,9.92-5.15,14.48-8.63,17.39-10.94,36.42-14.76,55.06a10.58,10.58,0,0,1-6.84-2.9c0-.51,0-1-.08-1.51-.22-.51-.43-1-.65-1.52-3.63-17.49-3.65-34.64,4.81-51a5.54,5.54,0,0,0,.77-3.32c-2.27-20.67-2.08-41.48-3.26-62.21h0c0-1,0-2,0-3,3.92,2.13,6.2,5.6,7.51,9.7.89,2.75,1.93,5.28,4.44,7,1.33.89,2.92,1.2,3-.66.09-3,1.08-6.55-1.47-8.75-4.51-3.89-5.35-9.31-7.05-14.42l3.07-.06,2.18.4Z" transform="translate(-32.3 -43.84)" fill="#294589"/><path d="M131,203.33c1.7,5.11,2.54,10.53,7.05,14.42,2.55,2.2,1.56,5.79,1.47,8.75-.05,1.86-1.64,1.55-3,.66-2.51-1.68-3.55-4.21-4.44-7-1.31-4.1-3.59-7.57-7.51-9.7-2.27-5.94-6.94-10.43-9.67-16.12-1.53-3.19-3.15-6.29-2.79-9.89A84.44,84.44,0,0,1,122.09,152c2.44,1,4.83,2.27,7.34,3.11,4,1.36,5.43,4,4.53,8a50.43,50.43,0,0,0-8,21.26c-.23,1.75-.24,3.65,1.17,5.11C126.91,194.56,129.38,198.83,131,203.33Z" transform="translate(-32.3 -43.84)" fill="#f7b384"/><path d="M102,244.22c.07,1.6-.28,2.93-2,3.61q-9.63,3.82-19.24,7.73c-1.61.66-2.53-.05-3.13-1.45a7.17,7.17,0,0,1-.58-1.88c-.39-4-5.47-7.88-2.61-11.34,2.14-2.6,7.15-2.84,10.87-4.13a26.7,26.7,0,0,1,4.22-1.46c2.85-.48,5.63-4.57,8-2.33C100.37,235.69,101.5,240.07,102,244.22Z" transform="translate(-32.3 -43.84)" fill="#dde9f9"/><path d="M100.19,345.71H69.93c2.92-3.48,7-.44,10.61-2-1.81-3-6.49-3.24-7.26-7.19,2.61-1.32,3.59,1.73,5.57,1.58,2.15,2,3.52,5.3,7.9,4.7-2.06-2.61-3.48-5.18-6.5-6.14-1.2-2.34-3.12-4.26-3.74-6.93-.3-1.29-1.09-2.69.47-3.51,1.34-.7,2.58.07,3.58,1a29.3,29.3,0,0,1,6.33,10.05c1.35,3.21,3,5.12,6.74,5.27A8.69,8.69,0,0,1,100.19,345.71Z" transform="translate(-32.3 -43.84)" fill="#87b37c"/><path d="M80.25,336.64c3,1,4.44,3.53,6.5,6.14-4.38.6-5.75-2.68-7.9-4.7Z" transform="translate(-32.3 -43.84)" fill="#dde9f9"/><path d="M124.68,213.5Z" transform="translate(-32.3 -43.84)" fill="#f7b384"/><path d="M122.36,330c.22.5.43,1,.65,1.52Z" transform="translate(-32.3 -43.84)" fill="#233864"/><path d="M340.93,266.32c2.58,4.83,7.82,6.41,11.85,9.4,12.5,9.27,25.32,18.1,38,27.13q21,15,42,30.09c.83,3.25-2.59,6.62-6.31,8.91-8.64,5.32-18,4.09-27.23,4.09q-92.69,0-185.37,0c-2,0-4-.08-6-.12.13-.61.25-1.22.38-1.83,5.1-.76,7.92-5.29,12.2-7.41a23.06,23.06,0,0,0,7.35,1c9.61-.06,19.22,0,28.83,0,13.33,0,13.25,0,13.2-13.47,0-3.16-.7-5.53-3.88-6.67l-1.21-.29-15.8,0c5.39-5.94,12.47-9.71,18.8-14.42,12.59-9.4,25.68-18.11,38.26-27.51,3.75-2.8,8.64-4.33,11-8.84,4.24-1.11,8-3.73,12.69-3.49C333.84,263.05,337.13,265.4,340.93,266.32Z" transform="translate(-32.3 -43.84)" fill="#ec7d26"/><path d="M221,179c2.25.56,5.58-1.46,6.67,1.48a8.25,8.25,0,0,1-1.53,8.8l-1.72.91c-1.13-.15-2.06,0-2.23,1.39l-.89.53-1.31.83,0,0-3.27.2c-3-.74-6-1.53-9-2.21-2.67-.61-6.34-2.36-7.86-.29-1.73,2.38,2.78,3.78,3.46,6.25a3.42,3.42,0,0,0-2.18,1.94,9.78,9.78,0,0,1-4-3.61c-4.23-5.84-9.09-6.86-15.25-3.24-3.71,2.18-5.11,6.7-3.62,11.89,1.16,4,4,5.45,8,5,2.47-.27,4.94-.51,7.42-.58a2.66,2.66,0,0,1,2.06,1c.44.85-.48,1.43-1.21,1.81-1,.53-2.1,1-3.16,1.46-2,.93-5.71-.35-5.91,2.76-.14,2.31,2.67,4,4.34,5.83,2.83,3.12,6.35,3.19,10.09,2.59l1.15,1c-1.67,4.86-1.31,5.16,6.11,5.09q0,26.07.11,52.14l.12,2.68q0,29.61,0,59.2l-.4,1.83c-1,0-2,0-3,.09-11.25,1-19.94-3.76-27.13-12-1.47-7.46-3.21-14.88-4.37-22.4-2.08-13.57-4.32-27.06-1.63-41a132.79,132.79,0,0,0,1.74-38.6c-.11-1.4-.23-2.81-.34-4.22.06-.1.21-.22.19-.29a5,5,0,0,0-.3-.62,161.6,161.6,0,0,0-3-24c3.37-4.91,1.58-10.66,2.44-16,1.12-6.83,1.05-13.85,1.49-20.79,1.86-.49,3.14.46,4.3,1.73,3.71,4.05,8.39,6.88,13,9.64,3.54,2.12,6.82,5.39,11.61,4.46,1.56,1.48,3,1.78,4.08-.51l2-.17c4.69,1.46,8.86-.17,13-2.24Z" transform="translate(-32.3 -43.84)" fill="#eaf0f7"/><path d="M129.93,335.94c3.82-18.64,6.13-37.67,14.76-55.06,2.26-4.56,3.46-9.64,5.15-14.48l1.28,5.52c.42,6.46-1,12.9.23,19.39,2.91,16,10,30.14,18.74,43.61,1.13,3.41-1.74,6.32-1.21,9.68.17,1.09-.81,1.28-1.66,1.28-7.78,0-16.12,1.67-23.16-.63C139.36,343.72,132.41,342.29,129.93,335.94Z" transform="translate(-32.3 -43.84)" fill="#eaf0f7"/><path d="M170.09,334.92c-8.73-13.47-15.83-27.61-18.74-43.61-1.19-6.49.19-12.93-.23-19.39,4.79-9.45,9.9-18.72,14.48-28.29,1.9-4,2.65-9,7-11.66a132.79,132.79,0,0,1-1.74,38.6c-2.69,13.9-.45,27.39,1.63,41,1.16,7.52,2.9,14.94,4.37,22.4A15.88,15.88,0,0,1,170.09,334.92Z" transform="translate(-32.3 -43.84)" fill="#294589"/><path d="M457.18,338c5.69-3.13,9.11-8.68,13.75-12.94,2.53,6.85,2.69,14.59,8.31,20.83-5.92,0-11.3-.11-16.68.05-2.5.07-4-.18-3.86-3.3C458.77,341.13,457.72,339.56,457.18,338Z" transform="translate(-32.3 -43.84)" fill="#eaf0f7"/><path d="M439.46,259.49c.34-.35.68-1,1-1,3.14.09,11.95,7.51,12.58,10.5-3,1.61-4.11,4.44-4.91,7.49-.21-2.87-2.36-2.57-4.29-2.61l-.18-1a1.77,1.77,0,0,0-.58-1.95c-.33-.72-.67-1.43-1-2.14A2.56,2.56,0,0,0,442,268a2.37,2.37,0,0,0-.87-2.18A2,2,0,0,0,441,265l-.82-1.29C439.91,262.28,439.68,260.89,439.46,259.49Z" transform="translate(-32.3 -43.84)" fill="#f7b384"/><path d="M449.27,332c.35,1.18.69,2.37,1,3.56-1.63,1.62-3.2,3.33-4.92,4.85-.95.83-2.07,1.8-3.28.05-.89-1.29-1.09-2.74.15-3.43C444.81,335.63,446.26,332.73,449.27,332Z" transform="translate(-32.3 -43.84)" fill="#fc9943"/><path d="M207,345.8c.13-.61.26-1.22.4-1.83l.45,0,.46.05c-.13.61-.25,1.22-.38,1.83l-.47.08Z" transform="translate(-32.3 -43.84)" fill="#a9d1a2"/><path d="M172.59,232c-4.34,2.65-5.09,7.69-7,11.66-4.58,9.57-9.69,18.84-14.48,28.29q-.63-2.76-1.28-5.52c1.87-10.06,4.15-20.07,5.51-30.2,1.45-10.85,5.18-21.19,6.67-32l7.14-1.36a161.6,161.6,0,0,1,3,24,1,1,0,0,0,.11.91C172.36,229.16,172.48,230.57,172.59,232Z" transform="translate(-32.3 -43.84)" fill="#233864"/><path d="M208.07,181.23l-2,.17c-1.43-.36-2.84-.63-4.08.51-4.79.93-8.07-2.34-11.61-4.46-4.62-2.76-9.3-5.59-13-9.64-1.16-1.27-2.44-2.22-4.3-1.73,1.52-6.56,4.92-12.29,8-18.13,3.74,4.37,8,8.42,11.12,13.18,5,7.55,12.22,10.4,20.6,10.69,3.64.13,7.31,2.65,11,.24,2.17,0,3.25-1.5,4.36-3l2.82,0,0,0c-1,5.63-3.84,9.49-10,10h0C216.56,178.9,212.37,180.38,208.07,181.23Z" transform="translate(-32.3 -43.84)" fill="#f7b384"/><path d="M131,203.33c-1.66-4.5-4.13-8.77-3.88-13.81l8.69-15.63c4.42,3.72,1.16,8.09.58,11.92-.87,5.81-3,11.44-2.32,17.47Z" transform="translate(-32.3 -43.84)" fill="#ec7d26"/><path d="M135.85,173.89l-8.69,15.63c-1.41-1.46-1.4-3.36-1.17-5.11a50.43,50.43,0,0,1,8-21.26Z" transform="translate(-32.3 -43.84)" fill="#faebda"/><path d="M139.86,203.85l-3.57-.18A2.5,2.5,0,0,1,139.86,203.85Z" transform="translate(-32.3 -43.84)" fill="#ec7d26"/><path d="M262,152.06c-2,1.66-4,.09-6-.15-1.55-4.24-5.62-5.88-8.84-8.26-5.11-3.79-10.54-7.14-15.41-11.32C242.44,138.1,253.3,143.44,262,152.06Z" transform="translate(-32.3 -43.84)" fill="#87b37c"/><path d="M229,131l-.43-.22.4.24Z" transform="translate(-32.3 -43.84)" fill="#87b37c"/><path d="M229,131l.44.39c-.09,0-.21,0-.26-.07A1.75,1.75,0,0,1,229,131Z" transform="translate(-32.3 -43.84)" fill="#87b37c"/><path d="M158.89,113.89l-.12.63a.58.58,0,0,1,0-.22A4,4,0,0,1,159,114Z" transform="translate(-32.3 -43.84)" fill="#233864"/><path d="M208.26,344l-.46-.05-.45,0q0-29.6,0-59.19a1.68,1.68,0,0,0-.12-2.69q-.06-26.07-.11-52.14c1.4-3.89.76-7.85.41-11.8q.36-8.6.71-17.18a36,36,0,0,0,3.4,2.08c5.64,2.67,10.11,7.51,16.43,8.94,7.27,6.1,15.87,10.11,23.91,15,20.84,12.61,41.81,25,62.72,37.54a25.07,25.07,0,0,1,2.36,1.81c-2.4,4.51-7.29,6-11,8.84-12.58,9.4-25.67,18.11-38.26,27.51-6.33,4.71-13.41,8.48-18.8,14.42-7.63,0-15.26,0-22.9.11-2.85,0-6.38.17-6.62,3.74-.35,5.19-1.46,10.59,1,15.65C216.18,338.71,213.36,343.24,208.26,344Zm24.64-61.08-3,2.76a10.85,10.85,0,0,0-7.84,5.51c5.39-.72,9.67-2.61,13.91-4.67,2.11,0,1.9,4.3,4.44,2.75,7.23-4.42,15.16-7.68,21.77-13.11,1.11-.2,2.35-.16,2.91-1.94-6.13-1.81-12.24-3.6-18.34-5.41-7.14-2.12-7.85-1.45-6.17,5.91.09.43.55.78.84,1.16l-.34,3.19a3.37,3.37,0,0,0-3.08.86,2,2,0,0,0-2,.91A4.4,4.4,0,0,0,232.9,282.92Z" transform="translate(-32.3 -43.84)" fill="#fc9943"/><path d="M329.68,180h50.46c1.17,0,2.33,0,3.5,0,1.63.06,3.2.54,3.05,2.46s-1.93,1.56-3.16,1.48c-12.09-.75-24.15.69-36.26.58-14.89-.15-29.91.51-44.84.17-9-.21-18.11.07-27.14-.73-1.23-.1-3,.4-3-1.63,0-1.67,1.7-1.94,2.94-2.19a20.28,20.28,0,0,1,4-.16Z" transform="translate(-32.3 -43.84)" fill="#eecfb3"/><path d="M329.48,173c11.48,0,23,0,34.45,0,1.51,0,3.74-.68,3.85,1.88s-2.12,2.07-3.65,2.07q-34.45,0-68.9,0c-1.67,0-3.78.1-3.9-2.09-.16-2.72,2.26-1.85,3.7-1.86C306.51,173,318,173,329.48,173Z" transform="translate(-32.3 -43.84)" fill="#eecfb3"/><path d="M228.06,212c-6.32-1.43-10.79-6.27-16.43-8.94a36,36,0,0,1-3.4-2.08c2.3-3.11,6.61-3.5,8.94-6.58,1.07-.2,2.2-.28,2.79-1.42l0,0,1.31-.83.89-.54,2.23-1.38,1.72-.91c2.45-.21,2,1.61,2,3C228.17,198.84,228.1,205.41,228.06,212Z" transform="translate(-32.3 -43.84)" fill="#ec7d26"/><path d="M330,209q-17.73,0-35.46,0a17.21,17.21,0,0,1-3.93-.42c-.45-.1-.95-.93-1-1.46-.09-.83.74-1,1.39-1,1.33-.07,2.67-.07,4-.07,21.64,0,43.29,0,64.93,0,2.63,0,5.27-.71,7.89-.63,1.26,0,3.51.11,3.59,1.83.09,2-2,1.79-3.45,1.82-3.32.05-6.66,0-10,0Z" transform="translate(-32.3 -43.84)" fill="#eecfb3"/><path d="M430,189.75c7.38,2.39,13.8,6.46,19.79,11.27-6.71,3.46-12.5,8.59-19.81,11Z" transform="translate(-32.3 -43.84)" fill="#ec7d26"/><path d="M361.74,213c6.81,0,13.61,0,20.42,0,1.31,0,3.49-.7,3.45,1.59,0,1.83-2,1.35-3.2,1.35q-20.93,0-41.84,0c-1.23,0-3.18.48-3.21-1.36,0-2.28,2.14-1.57,3.46-1.58C347.79,212.94,354.76,213,361.74,213Z" transform="translate(-32.3 -43.84)" fill="#eecfb3"/><path d="M310,224c-6,0-11.94.1-17.91-.08-1.51,0-4.41,1.24-4.32-1.4.07-2.18,2.93-1.48,4.65-1.5,9,0,17.9,0,26.85,0,3.48,0,7,0,10.45,0,1.47,0,3.62-.21,3.68,1.58.07,2.24-2.24,1.34-3.51,1.36C323.24,224.07,316.61,224,310,224Z" transform="translate(-32.3 -43.84)" fill="#eecfb3"/><path d="M355,224c-5.33,0-10.66,0-16,0-.92,0-2.29.3-2.42-1-.16-1.55,1.23-1.85,2.39-1.85q16-.08,32,0c1.17,0,2.61.32,2.41,1.83s-1.84,1.07-2.89,1.09C365.31,224.05,360.15,224,355,224Z" transform="translate(-32.3 -43.84)" fill="#eecfb3"/><path d="M344.61,242.7c-2.83,3.94-8.33,5.34-10,10.44-.06.2-.92.34-1.28.2a1.66,1.66,0,0,1-1.08-2,21,21,0,0,1,2.05-3.33c.77-1.19,1.33-2.57,0-3.55s-2.71-.09-3.07,1.29c-.69,2.64-3.27,2.36-4.78,3.78-1.35-5.4,2.5-8.08,5.42-11.09,1-1,2,0,2.71,1.14C338.24,245.36,338.27,245.34,344.61,242.7Z" transform="translate(-32.3 -43.84)" fill="#f7b384"/><path d="M319.35,213c3.8,0,7.61,0,11.41,0,1.06,0,2.71-.38,2.66,1.31,0,1.33-1.44,1.64-2.66,1.64q-12.17,0-24.32,0c-1,0-2.16-.19-2.16-1.47s1.14-1.46,2.16-1.46c4.3,0,8.61,0,12.91,0Z" transform="translate(-32.3 -43.84)" fill="#eecfb3"/><path d="M395.13,152.7c1.76-3.49,5.34-4.89,8.4-6.52,7.24-3.87,14-8.93,22.45-10.14l0,0c-6.18,3.6-12.42,7.1-18.52,10.84-2.11,1.29-5,1.92-5.52,5.06C399.58,151.58,397.52,153.54,395.13,152.7Z" transform="translate(-32.3 -43.84)" fill="#87b37c"/><path d="M286.66,215.92c-3.3,0-6.61,0-9.91,0-1.06,0-2.14-.51-2.2-1.59-.07-1.37,1.22-1.31,2.18-1.31q9.91,0,19.84,0c1,0,2.16.2,2.16,1.46s-1.12,1.47-2.15,1.47c-3.31,0-6.61,0-9.92,0Z" transform="translate(-32.3 -43.84)" fill="#eecfb3"/><path d="M323.48,251.44c-2.8-3.6-2.65-6.71-2.39-9.8.11-1.39.84-2.83,2.47-2.45,2,.45,1.49,2,.56,3.06C322,244.78,323.51,247.59,323.48,251.44Z" transform="translate(-32.3 -43.84)" fill="#f5be9a"/><path d="M231,169l.43-.43c0,.1,0,.24-.07.28a1.22,1.22,0,0,1-.38.13Z" transform="translate(-32.3 -43.84)" fill="#f7b384"/><path d="M443.09,270.92a1.77,1.77,0,0,1,.58,1.95c-5.62,0-11.24-.06-16.85.14-2.84.1-4-1.13-5-3.66-.82-2.16,0-5.21-3-6.37a.42.42,0,0,1-.13-.54,61.43,61.43,0,0,0,.16-8.46c-.53-4.75,1.11-6.75,6-6.08,2.7.37,5.64.5,5.11-3.78l1.92.07a3,3,0,0,0,2.76,2.9l.22-.05L434,251l-1,1-2.78.17L429,253l-1.86,1c-.75.14-.92.43-.22.92l1.05,2c.3,2.09,1.9,1.91,3.39,1.93l7.41.11a2.19,2.19,0,0,1,.72.42c.21,1.4.44,2.79.66,4.19L441,265a2,2,0,0,1,.14.81A1.87,1.87,0,0,0,442,268a2.3,2.3,0,0,1,.12.82C442,269.71,442.08,270.52,443.09,270.92Z" transform="translate(-32.3 -43.84)" fill="#eaf0f7"/><path d="M430,244.12c.53,4.28-2.41,4.15-5.11,3.78-4.9-.67-6.54,1.33-6,6.08a61.43,61.43,0,0,1-.16,8.46A2,2,0,0,1,418,262c-.29-1.94-1-3.91-.8-5.81.51-6.28.63-6.27-6.24-6.09-3.1-2-1.58-3.56.8-3.83C417.82,245.52,423.8,243.79,430,244.12Z" transform="translate(-32.3 -43.84)" fill="#faebda"/><path d="M418.85,263c3,1.16,2.17,4.21,3,6.37,1,2.53,2.14,3.76,5,3.66,5.61-.2,11.23-.11,16.85-.14l.18,1c-5.31.05-10.66-.24-15.92.27-4.77.47-7.14-1.31-7.9-5.84C419.73,266.51,419.25,264.75,418.85,263Z" transform="translate(-32.3 -43.84)" fill="#faebda"/><path d="M410.94,250.06c6.87-.18,6.75-.19,6.24,6.09-.15,1.9.51,3.87.8,5.81-2-2.24-3.56-4.85-3.77-7.72C414,251.76,412.63,251,410.94,250.06Z" transform="translate(-32.3 -43.84)" fill="#f7b384"/><path d="M434.68,247.09a3,3,0,0,1-2.76-2.9C434,244.06,434.63,245.29,434.68,247.09Z" transform="translate(-32.3 -43.84)" fill="#faebda"/><path d="M426,136c.73-1.85,2.29-2.08,4-2l0,0c-.76,1.83-2.29,2.09-4,2Z" transform="translate(-32.3 -43.84)" fill="#87b37c"/><path d="M430,134l1.06-.75c.27,1.2-.72.48-1.08.72Z" transform="translate(-32.3 -43.84)" fill="#87b37c"/><path d="M498.8,249.05c-3.41,2-6.61,4.38-10.55,5.45-2.52.69-3.38-.26-3.53-2.54.9-3.71,1.75-6.88-3.14-9.21-3.09-1.48-3.35-5.92-3.72-9.37a55.5,55.5,0,0,1,.14-7.94c.09-2.59,1.65-3.79,4-4.28,2.6-.53,4.13.66,5,3,.69,1.86,1.31,3.75,2,5.62.11.31.25.75.48.85C498,234,495.33,243.09,498.8,249.05Z" transform="translate(-32.3 -43.84)" fill="#f7b384"/><path d="M438.75,259.07l-7.41-.11c-1.49,0-3.09.16-3.39-1.93C431.34,258.81,435.47,256.71,438.75,259.07Z" transform="translate(-32.3 -43.84)" fill="#faebda"/><path d="M433,252l1-1C434.73,252.42,433.45,251.78,433,252Z" transform="translate(-32.3 -43.84)" fill="#faebda"/><path d="M426.9,255c-.7-.49-.53-.78.22-.92A7.24,7.24,0,0,1,426.9,255Z" transform="translate(-32.3 -43.84)" fill="#faebda"/><path d="M429,253l1.19-.9Z" transform="translate(-32.3 -43.84)" fill="#faebda"/><path d="M220.46,336.59c-2.49-5.06-1.38-10.46-1-15.65.24-3.57,3.77-3.71,6.62-3.74,7.64-.1,15.27-.08,22.9-.11l15.8,0,1.21.29c3.18,1.14,3.87,3.51,3.88,6.67.05,13.47.13,13.47-13.2,13.47-9.61,0-19.22,0-28.83,0A23.06,23.06,0,0,1,220.46,336.59Zm5.77-15.47v.51h29.57v-.51Zm-.12,8.09v.47h29.84v-.47Zm7.21-5.06-.18.51H247.9v-.51Z" transform="translate(-32.3 -43.84)" fill="#faebda"/><path d="M266,317.42l-1.21-.29Z" transform="translate(-32.3 -43.84)" fill="#fc9943"/><path d="M217.17,194.39c-2.33,3.08-6.64,3.47-8.94,6.58q-.36,8.58-.71,17.18c-.17.29-.35.57-.53.86-1.2.79-2.9,1.07-3,3l0,0a1.68,1.68,0,0,0-2,1l0,0-2.17.88c-3.74.6-7.26.53-10.09-2.59-1.67-1.84-4.48-3.52-4.34-5.83.2-3.11,3.87-1.83,5.91-2.76,1.06-.48,2.13-.93,3.16-1.46.73-.38,1.65-1,1.21-1.81a2.66,2.66,0,0,0-2.06-1c-2.48.07-4.95.31-7.42.58-4,.44-6.83-1-8-5-1.49-5.19-.09-9.71,3.62-11.89,6.16-3.62,11-2.6,15.25,3.24a9.78,9.78,0,0,0,4,3.61c1.16,1.46,2.34,2.87,4.62,3-.12-2.28-1.32-3.58-2.44-4.92-.68-2.47-5.19-3.87-3.46-6.25,1.52-2.07,5.19-.32,7.86.29,3,.68,6,1.47,9,2.21Z" transform="translate(-32.3 -43.84)" fill="#87b37c"/><path d="M207,219c.18-.29.36-.57.53-.86.35,3.95,1,7.91-.41,11.8-7.42.07-7.78-.23-6.11-5.09a1.72,1.72,0,0,0,1-1.92l0,0a2,2,0,0,0,2-1l0,0C205.77,221.78,207.09,221.11,207,219Z" transform="translate(-32.3 -43.84)" fill="#a9d1a2"/><path d="M208.07,181.23c4.3-.85,8.49-2.33,13-2.24C216.93,181.06,212.76,182.69,208.07,181.23Z" transform="translate(-32.3 -43.84)" fill="#faebda"/><path d="M203.27,196.92c1.12,1.34,2.32,2.64,2.44,4.92-2.28-.11-3.46-1.52-4.62-3A3.42,3.42,0,0,1,203.27,196.92Z" transform="translate(-32.3 -43.84)" fill="#dde9f9"/><path d="M202,181.91c1.24-1.14,2.65-.87,4.08-.51C205,183.69,203.57,183.39,202,181.91Z" transform="translate(-32.3 -43.84)" fill="#faebda"/><path d="M207.22,282.09a1.68,1.68,0,0,1,.12,2.69Z" transform="translate(-32.3 -43.84)" fill="#a9d1a2"/><path d="M202,222.94a1.72,1.72,0,0,1-1,1.92l-1.15-1Z" transform="translate(-32.3 -43.84)" fill="#faebda"/><path d="M217.17,194.39l-.47-1.22L220,193C219.37,194.11,218.24,194.19,217.17,194.39Z" transform="translate(-32.3 -43.84)" fill="#faebda"/><path d="M224.44,190.19l-2.23,1.38C222.38,190.2,223.31,190,224.44,190.19Z" transform="translate(-32.3 -43.84)" fill="#faebda"/><path d="M172.25,227.75a1,1,0,0,1-.11-.91,5,5,0,0,1,.3.62C172.46,227.53,172.31,227.65,172.25,227.75Z" transform="translate(-32.3 -43.84)" fill="#294589"/><path d="M221.32,192.11l-1.31.83Z" transform="translate(-32.3 -43.84)" fill="#faebda"/><path d="M443.09,270.92c-1-.4-1.12-1.21-1-2.14C442.42,269.49,442.76,270.2,443.09,270.92Z" transform="translate(-32.3 -43.84)" fill="#faebda"/><path d="M442,268a1.87,1.87,0,0,1-.87-2.18A2.37,2.37,0,0,1,442,268Z" transform="translate(-32.3 -43.84)" fill="#faebda"/><path d="M441,265l-.82-1.29Z" transform="translate(-32.3 -43.84)" fill="#faebda"/><path d="M241,279.07c.12-1.06.23-2.13.34-3.19,2.46-.05,4.9-.31,7.35-.54,4.44-.4,9.09-1.66,13.41.82-6.61,5.43-14.54,8.69-21.77,13.11-2.54,1.55-2.33-2.8-4.44-2.75-1.81-1.87-4.42,2.07-6.07-.84l3-2.76c1.56.1,3.08.14,3.1-2.08a2,2,0,0,1,2-.91C239.51,281.51,240.56,281.3,241,279.07Z" transform="translate(-32.3 -43.84)" fill="#dde9f9"/><path d="M262.14,276.16c-4.32-2.48-9-1.22-13.41-.82-2.45.23-4.89.49-7.35.54-.29-.38-.75-.73-.84-1.16-1.68-7.36-1-8,6.17-5.91,6.1,1.81,12.21,3.6,18.34,5.41C264.49,276,263.25,276,262.14,276.16Z" transform="translate(-32.3 -43.84)" fill="#fdfdfd"/><path d="M229.86,285.68c1.65,2.91,4.26-1,6.07.84-4.24,2.06-8.52,4-13.91,4.67A10.85,10.85,0,0,1,229.86,285.68Z" transform="translate(-32.3 -43.84)" fill="#faebda"/><path d="M241,279.07c-.48,2.23-1.53,2.44-3.08.86A3.37,3.37,0,0,1,241,279.07Z" transform="translate(-32.3 -43.84)" fill="#faebda"/><path d="M236,280.84c0,2.22-1.54,2.18-3.1,2.08A4.4,4.4,0,0,1,236,280.84Z" transform="translate(-32.3 -43.84)" fill="#faebda"/><path d="M226.23,321.12H255.8v.51H226.24Z" transform="translate(-32.3 -43.84)" fill="#eecfb3"/><ellipse cx="208.72" cy="285.6" rx="21.1" ry="0.33" fill="#eecfb3"/><path d="M233.32,324.15H247.9v.51H233.14Z" transform="translate(-32.3 -43.84)" fill="#eecfb3"/><path d="M207,219c.1,2.1-1.22,2.77-3,3C204.09,220.08,205.79,219.8,207,219Z" transform="translate(-32.3 -43.84)" fill="#faebda"/><path d="M204,222a2,2,0,0,1-2,1A1.68,1.68,0,0,1,204,222Z" transform="translate(-32.3 -43.84)" fill="#faebda"/></svg>