<svg id="Capa_2" data-name="Capa 2" xmlns="http://www.w3.org/2000/svg" xmlns:xlink="http://www.w3.org/1999/xlink" viewBox="0 0 3000 2000"><defs><clipPath id="clip-path" transform="translate(9.47 -7.47)"><rect x="1387.63" y="560.67" width="532.5" height="656.9" fill="none"/></clipPath></defs><rect x="0.5" y="0.5" width="2999" height="1999" fill="#fff"/><path d="M2990.53,2007.47H-9.47V7.47h3000Zm-2999-1h2998V8.47H-8.47Z" transform="translate(9.47 -7.47)"/><rect x="109.8" y="1827.8" width="2740.9" height="6.2" fill="#1d2238"/><path d="M764.93,1015v-71.5a12.08,12.08,0,0,0-12.1-12.1h-29.2a169.12,169.12,0,0,0-13.6-32.8l20.6-20.6a12.13,12.13,0,0,0,0-17.1l-50.4-50.4a12.13,12.13,0,0,0-17.1,0l-20.6,20.6a169.12,169.12,0,0,0-32.8-13.6v-29.2a12.08,12.08,0,0,0-12.1-12.1h-71.4a12.08,12.08,0,0,0-12.1,12.1v29.2a169.12,169.12,0,0,0-32.8,13.6l-20.5-20.6a12.13,12.13,0,0,0-17.1,0L393.23,861a12.13,12.13,0,0,0,0,17.1l20.6,20.6a169.12,169.12,0,0,0-13.6,32.8H371a12.08,12.08,0,0,0-12.1,12.1V1015a12.08,12.08,0,0,0,12.1,12.1h29.2a169.12,169.12,0,0,0,13.6,32.8l-20.6,20.6a12.13,12.13,0,0,0,0,17.1l50.5,50.5a12.13,12.13,0,0,0,17.1,0l20.6-20.6a169.12,169.12,0,0,0,32.8,13.6v29.2a12.08,12.08,0,0,0,12.1,12.1h71.4a12.08,12.08,0,0,0,12.1-12.1v-29.2a169.12,169.12,0,0,0,32.8-13.6l20.6,20.6a12.13,12.13,0,0,0,17.1,0l50.5-50.5a12.13,12.13,0,0,0,0-17.1l-20.6-20.6a169.12,169.12,0,0,0,13.6-32.8H753A12.17,12.17,0,0,0,764.93,1015Zm-201.1,21.8a57.63,57.63,0,1,1,55.7-55.7A57.64,57.64,0,0,1,563.83,1036.77Z" transform="translate(9.47 -7.47)" fill="#f1f2f5"/><path d="M774,1376v-49.2a8.28,8.28,0,0,0-8.3-8.3h-20.1a118,118,0,0,0-9.3-22.6l14.2-14.2a8.33,8.33,0,0,0,0-11.7l-34.8-34.8a8.33,8.33,0,0,0-11.7,0l-14.2,14.2a111.92,111.92,0,0,0-22.6-9.3V1220a8.28,8.28,0,0,0-8.3-8.3h-49.2a8.28,8.28,0,0,0-8.3,8.3v20.1a118,118,0,0,0-22.6,9.3l-14.2-14.2a8.33,8.33,0,0,0-11.7,0l-34.8,34.8a8.33,8.33,0,0,0,0,11.7l14.2,14.2a111.92,111.92,0,0,0-9.3,22.6h-20.1a8.28,8.28,0,0,0-8.3,8.3V1376a8.28,8.28,0,0,0,8.3,8.3H523a118,118,0,0,0,9.3,22.6l-14.2,14.2a8.33,8.33,0,0,0,0,11.7l34.8,34.8a8.33,8.33,0,0,0,11.7,0l14.2-14.2a111.92,111.92,0,0,0,22.6,9.3v20.1a8.28,8.28,0,0,0,8.3,8.3h49.2a8.28,8.28,0,0,0,8.3-8.3v-20.1a118,118,0,0,0,22.6-9.3l14.2,14.2a8.33,8.33,0,0,0,11.7,0l34.8-34.8a8.33,8.33,0,0,0,0-11.7l-14.2-14.2a111.92,111.92,0,0,0,9.3-22.6h20.1A8.28,8.28,0,0,0,774,1376Zm-138.3,15a39.62,39.62,0,1,1,38.3-38.3A39.61,39.61,0,0,1,635.73,1391Z" transform="translate(9.47 -7.47)" fill="#f1f2f5"/><path d="M454.53,1268.47v-34.3a5.8,5.8,0,0,0-5.8-5.8h-14a80.8,80.8,0,0,0-6.5-15.8l9.9-9.9a5.73,5.73,0,0,0,0-8.2l-24.3-24.3a5.73,5.73,0,0,0-8.2,0l-9.9,9.9a78.35,78.35,0,0,0-15.8-6.5v-14a5.8,5.8,0,0,0-5.8-5.8h-34.3a5.8,5.8,0,0,0-5.8,5.8v14a80.8,80.8,0,0,0-15.8,6.5l-9.9-9.9a5.73,5.73,0,0,0-8.2,0l-24.3,24.3a5.73,5.73,0,0,0,0,8.2l9.9,9.9a78.35,78.35,0,0,0-6.5,15.8h-14a5.8,5.8,0,0,0-5.8,5.8v34.3a5.8,5.8,0,0,0,5.8,5.8h14a80.8,80.8,0,0,0,6.5,15.8l-9.9,9.9a5.73,5.73,0,0,0,0,8.2l24.3,24.3a5.73,5.73,0,0,0,8.2,0l9.9-9.9a78.35,78.35,0,0,0,15.8,6.5v14a5.8,5.8,0,0,0,5.8,5.8h34.3a5.8,5.8,0,0,0,5.8-5.8v-14a80.8,80.8,0,0,0,15.8-6.5l9.9,9.9a5.73,5.73,0,0,0,8.2,0l24.3-24.3a5.73,5.73,0,0,0,0-8.2l-9.9-9.9a78.35,78.35,0,0,0,6.5-15.8h14A5.8,5.8,0,0,0,454.53,1268.47Zm-96.6,10.5a27.71,27.71,0,1,1,26.8-26.8A27.74,27.74,0,0,1,357.93,1279Z" transform="translate(9.47 -7.47)" fill="#f1f2f5"/><rect x="1597.9" y="234.8" width="1093.7" height="1293.7" fill="#f1f2f5"/><path d="M2682.13,1536l-546.2,1.4-547.4,1.1h-2.6v-2.6l-.7-646.9-.2-646.9v-3.5h3.5l546.8.1,546.8.5h2.9v2.9l-1.2,647.6Zm0,0-1.7-647.6-1.2-646.2,2.9,2.9-546.8.5-546.8.1,3.5-3.5-.2,646.9-.7,646.9-2.6-2.6,546.2,1.1Z" transform="translate(9.47 -7.47)" fill="#1d2238"/><circle cx="2144.7" cy="1305.3" r="142.8" fill="#4a4e60"/><path d="M2201.33,1268.77h-22v-14.6a8.49,8.49,0,0,0-8.5-8.5h-71a8.49,8.49,0,0,0-8.5,8.5v14.6h-22a28.38,28.38,0,0,0-28.4,28.4v49.7a28.38,28.38,0,0,0,28.4,28.4h132a28.38,28.38,0,0,0,28.4-28.4v-49.7A28.38,28.38,0,0,0,2201.33,1268.77Z" transform="translate(9.47 -7.47)" fill="#0088f9"/><circle cx="2135.19" cy="1319.62" r="39.1" transform="translate(-298.26 1888.85) rotate(-45)" fill="#fff"/><polygon points="1703 468.8 1683.4 468.8 1683.4 328.3 1824 328.3 1824 347.8 1703 347.8 1703 468.8" fill="#4a4e60"/><polygon points="2596.4 468.8 2576.8 468.8 2576.8 347.8 2455.8 347.8 2455.8 328.3 2596.4 328.3 2596.4 468.8" fill="#4a4e60"/><polygon points="2606.1 1092.4 2465.5 1092.4 2465.5 1072.9 2586.5 1072.9 2586.5 951.9 2606.1 951.9 2606.1 1092.4" fill="#4a4e60"/><polygon points="1833.7 1092.4 1693.1 1092.4 1693.1 951.9 1712.6 951.9 1712.6 1072.9 1833.7 1072.9 1833.7 1092.4" fill="#1d2238"/><path d="M1883.43,1838.47h-632.1a74.6,74.6,0,0,1-74.6-74.6v-1281a74.6,74.6,0,0,1,74.6-74.6h632.1a74.6,74.6,0,0,1,74.6,74.6v1281A74.66,74.66,0,0,1,1883.43,1838.47Z" transform="translate(9.47 -7.47)" fill="#1d2238"/><rect x="1224" y="509.4" width="705.6" height="1203.9" fill="#f1f2f5"/><path d="M1630.13,467h-125.5a10.07,10.07,0,0,1-10.1-10.1h0a10.07,10.07,0,0,1,10.1-10.1h125.5a10.07,10.07,0,0,1,10.1,10.1h0A10.14,10.14,0,0,1,1630.13,467Z" transform="translate(9.47 -7.47)" fill="#fff"/><polygon points="799.4 824.4 896.4 873.3 907.3 978.7 820 948.1 799.4 824.4" fill="#0088f9"/><rect x="887.72" y="648.01" width="622.68" height="445.49" transform="translate(-77.71 127.39) rotate(-6.21)" fill="#fff"/><path d="M912.63,1127.07l-48.4-444.9,1-.1,620.1-67.5,48.4,444.9ZM866.53,684l48,440.8,617-67.2-48-440.8Z" transform="translate(9.47 -7.47)" fill="#d2d6e1"/><rect x="906.27" y="666.71" width="585.38" height="408.19" transform="translate(-77.72 127.38) rotate(-6.21)" fill="#0088f9"/><path d="M913.43,951.67l101.2-122.5a71.4,71.4,0,0,1,98.9-10.9l144.4,112.2a42.69,42.69,0,0,0,57.8-4.9l26.4-28.8a71.39,71.39,0,0,1,93.7-10.2l64.3,45.1,12,110.2-582,63.4Z" transform="translate(9.47 -7.47)" fill="#fff"/><circle cx="1287.2" cy="759.9" r="47.4" fill="#fff"/><path d="M869.53,1762.47l93.5,40.7a37.75,37.75,0,0,1,22.6,35.2h0l-203.2-.4,10.8-75.6Z" transform="translate(9.47 -7.47)" fill="#0088f9"/><path d="M782.33,1824.47c16.7,1,33.5,1.5,50.2,1.9,8.4.2,16.7.3,25.1.4l25.1.2,25.1-.1c8.4-.1,16.7-.1,25.1-.3,16.7-.3,33.5-.7,50.2-1.6-16.7-1-33.5-1.5-50.2-1.9-8.4-.2-16.7-.3-25.1-.4l-25.1-.2-25.1.1c-8.4.1-16.7.1-25.1.3C815.83,1823.17,799.13,1823.57,782.33,1824.47Z" transform="translate(9.47 -7.47)" fill="#1d2238"/><path d="M806.83,1794.47a18.45,18.45,0,1,0,18.5-18.4A18.44,18.44,0,0,0,806.83,1794.47Z" transform="translate(9.47 -7.47)" fill="#1d2238"/><path d="M950.33,1795.87a12.82,12.82,0,0,0-6.9-.7,16.24,16.24,0,0,0-6.1,2.4,15.38,15.38,0,0,0-4.7,4.8,10.92,10.92,0,0,0-1.6,6.9l.4.2a21.45,21.45,0,0,1,1.8-2.4,5.24,5.24,0,0,1,1-1.1l1-1.1a31.7,31.7,0,0,1,4.6-3.6,32.94,32.94,0,0,1,5.2-2.9l2.7-1.2a23.07,23.07,0,0,1,2.8-1Z" transform="translate(9.47 -7.47)" fill="#1d2238"/><path d="M926.53,1785.67a12.82,12.82,0,0,0-6.9-.7,16.24,16.24,0,0,0-6.1,2.4,15.38,15.38,0,0,0-4.7,4.8,10.92,10.92,0,0,0-1.6,6.9l.4.2a21.45,21.45,0,0,1,1.8-2.4,5.24,5.24,0,0,1,1-1.1l1-1.1a31.7,31.7,0,0,1,4.6-3.6,32.94,32.94,0,0,1,5.2-2.9l2.7-1.2a23.07,23.07,0,0,1,2.8-1Z" transform="translate(9.47 -7.47)" fill="#1d2238"/><path d="M904.43,1776.47a12.82,12.82,0,0,0-6.9-.7,16.24,16.24,0,0,0-6.1,2.4,15.38,15.38,0,0,0-4.7,4.8,10.92,10.92,0,0,0-1.6,6.9l.4.2a21.45,21.45,0,0,1,1.8-2.4,5.24,5.24,0,0,1,1-1.1l1-1.1a31.7,31.7,0,0,1,4.6-3.6,32.94,32.94,0,0,1,5.2-2.9l2.7-1.2a23.07,23.07,0,0,1,2.8-1Z" transform="translate(9.47 -7.47)" fill="#1d2238"/><path d="M747.73,1762.47l93.5,40.7a37.75,37.75,0,0,1,22.6,35.2h0l-203.2-.4,10.8-75.6Z" transform="translate(9.47 -7.47)" fill="#0088f9"/><path d="M660.53,1824.47c16.7,1,33.5,1.5,50.2,1.9,8.4.2,16.7.3,25.1.4l25.1.2,25.1-.1c8.4-.1,16.7-.1,25.1-.3,16.7-.3,33.5-.7,50.2-1.6-16.7-1-33.5-1.5-50.2-1.9-8.4-.2-16.7-.3-25.1-.4l-25.1-.2-25.1.1c-8.4.1-16.7.1-25.1.3C694,1823.17,677.33,1823.57,660.53,1824.47Z" transform="translate(9.47 -7.47)" fill="#1d2238"/><circle cx="712.95" cy="1787.07" r="18.5" fill="#1d2238"/><path d="M828.53,1795.87a12.82,12.82,0,0,0-6.9-.7,16.24,16.24,0,0,0-6.1,2.4,15.38,15.38,0,0,0-4.7,4.8,10.92,10.92,0,0,0-1.6,6.9l.4.2a21.45,21.45,0,0,1,1.8-2.4,5.24,5.24,0,0,1,1-1.1l1-1.1a31.7,31.7,0,0,1,4.6-3.6,32.94,32.94,0,0,1,5.2-2.9l2.7-1.2a23.07,23.07,0,0,1,2.8-1Z" transform="translate(9.47 -7.47)" fill="#1d2238"/><path d="M804.73,1785.67a12.82,12.82,0,0,0-6.9-.7,16.24,16.24,0,0,0-6.1,2.4,15.38,15.38,0,0,0-4.7,4.8,10.92,10.92,0,0,0-1.6,6.9l.4.2a21.45,21.45,0,0,1,1.8-2.4,5.24,5.24,0,0,1,1-1.1l1-1.1a31.7,31.7,0,0,1,4.6-3.6,32.94,32.94,0,0,1,5.2-2.9l2.7-1.2a23.07,23.07,0,0,1,2.8-1Z" transform="translate(9.47 -7.47)" fill="#1d2238"/><path d="M782.63,1776.47a12.82,12.82,0,0,0-6.9-.7,16.24,16.24,0,0,0-6.1,2.4,15.38,15.38,0,0,0-4.7,4.8,10.92,10.92,0,0,0-1.6,6.9l.4.2a21.45,21.45,0,0,1,1.8-2.4,5.24,5.24,0,0,1,1-1.1l1-1.1a31.7,31.7,0,0,1,4.6-3.6,32.94,32.94,0,0,1,5.2-2.9l2.7-1.2a23.07,23.07,0,0,1,2.8-1Z" transform="translate(9.47 -7.47)" fill="#1d2238"/><path d="M901.83,1761.77l-18.3-374.7a237.92,237.92,0,0,0-3.7-31.4L841,1152l-235-18.4s-23.1,93.9,24.2,184.2l24.3,446.8,125.4-.8v-1.4Z" transform="translate(9.47 -7.47)" fill="#1d2238"/><path d="M761.13,1164.27l1.6,18.7,1.5,18.7,3,37.4,5.5,74.9,1.4,18.7,1.2,18.7,2.5,37.4,4.9,74.9.3,4.7c.1,1.6,0,3.1,0,4.7v9.4l-.1,18.8-.1,37.5-.1,37.5-.1,18.8-.2,18.8-.8,75.1-.6,37.5-.3,18.8-.4,18.8H780l-.1-150v-145.4l-.3-4.7-18.5-299.5Z" transform="translate(9.47 -7.47)" fill="#4a4e60"/><path d="M859.43,652.87s12.8,14.1,16.4,34a19.11,19.11,0,0,1-9.3,19.8h0l-39-53.8Z" transform="translate(9.47 -7.47)" fill="#1d2238"/><path d="M804.63,644.87h0a61.66,61.66,0,0,0-61.5,57l-.5-.1-18.2,113.4c0,.1.1.3.2.3l65.3,16.3,6.7-42a70.12,70.12,0,0,0,8,.5h0a61.67,61.67,0,0,0,61.7-61.7v-22.1A61.65,61.65,0,0,0,804.63,644.87Z" transform="translate(9.47 -7.47)" fill="#c69491"/><path d="M796.63,790a57.48,57.48,0,0,1-37.8-22.1s5.5,34,35.4,37c0,.1.5-2.4,2.4-14.9" transform="translate(9.47 -7.47)" fill="#1d2238"/><path d="M842.33,696.17a38.94,38.94,0,0,1,1.2,4.9,20,20,0,0,1,.4,2.4,19.67,19.67,0,0,1,.3,2.4c.2,1.6.4,3.2.5,4.9l.2,2.4.1,2.4-2.7-2.7c1,0,2.1-.1,3.1,0a13.57,13.57,0,0,1,1.8.1,9.77,9.77,0,0,1,2.3.6A7.65,7.65,0,0,1,854,721a7.17,7.17,0,0,1-5,6.3,6.48,6.48,0,0,1-2,.2c-.7-.1-1.2-.2-1.7-.3-1-.2-2.1-.5-3.1-.8h0c-.1,0-.1-.1-.1-.2a.1.1,0,0,1,.1-.1h4.6a5.73,5.73,0,0,0,1.4-.4,5.26,5.26,0,0,0,3.1-4.6,5,5,0,0,0-3.1-4.6,7.37,7.37,0,0,0-1.4-.4h-4.9v-.3c0-6.5,0-12.9.1-19.4,0-.1.1-.2.2-.1,0-.3.1-.2.1-.1Z" transform="translate(9.47 -7.47)" fill="#1d2238"/><circle cx="864.6" cy="689.1" r="4.3" fill="#1d2238"/><path d="M851.53,740s-7.1-10.4-27.8-10.1Z" transform="translate(9.47 -7.47)" fill="#fff"/><path d="M844.33,679.37c-.4,1.6,2.9,3.8,7.4,4.9s8.4.7,8.8-.9-2.9-3.8-7.4-4.9S844.73,677.77,844.33,679.37Z" transform="translate(9.47 -7.47)" fill="#1d2238"/><path d="M818.83,687.17c-.1,1.6,3.6,3.1,8.2,3.3s8.4-1,8.5-2.7-3.6-3.1-8.2-3.3S818.93,685.47,818.83,687.17Z" transform="translate(9.47 -7.47)" fill="#1d2238"/><path d="M743.63,697.57s9.6,4.1,6.8,28.8h0a37.5,37.5,0,0,0,30-21.4l6.3-13.4c9.3-23.2,34.3-36.5,58.5-30.4.6.1,1.1.5,1.7.4,30-1.6,29.6-27,29.6-27h-1.4a146.1,146.1,0,0,1-51.9-9.7c-19.6-7.4-51.9-12.7-84.5,12.2-52.2,40-5.8,125.4-5.8,125.4Z" transform="translate(9.47 -7.47)" fill="#1d2238"/><ellipse cx="747.6" cy="703.7" rx="12.3" ry="15.2" fill="#c69491"/><path d="M745.13,707a9.36,9.36,0,0,0-3.3-1.9,4.14,4.14,0,0,0-1.5-.2,3.4,3.4,0,0,0-1.4.2,6,6,0,0,0-3.5,3.8,5.73,5.73,0,0,0-.4,1.4c0,.2-.1.5-.1.7v.8a.31.31,0,0,0-.1-.2,1.37,1.37,0,0,0-.8-.5c-.4,0,.2.2.7.1,1.1-.1,2.5-.4,3.9-.6a8.65,8.65,0,0,1,4.5.2h0c.1,0,.1.1.1.2a.1.1,0,0,1-.1.1,14.28,14.28,0,0,0-3.9,1.1c-1.3.5-2.5,1.1-3.8,1.5a4.07,4.07,0,0,1-2.2.2,1.32,1.32,0,0,1-.9-.7,2.28,2.28,0,0,1-.3-1.1,9.59,9.59,0,0,1,.7-4.1,8.14,8.14,0,0,1,2.4-3.4,6.93,6.93,0,0,1,3.8-1.7,6.23,6.23,0,0,1,4,1.1,7.63,7.63,0,0,1,2.7,3.2c0,.1,0,.2-.1.2a1.4,1.4,0,0,0-.4-.4Z" transform="translate(9.47 -7.47)" fill="#1d2238"/><path d="M855.73,742.87a47.09,47.09,0,0,1-9.1-1.7c-1.5-.4-2.9-.9-4.4-1.3s-2.8-1-4.3-1.5-2.8-1.1-4.2-1.7-2.8-1.2-4.1-1.9a53.72,53.72,0,0,1-7.9-4.8h0c-.1,0-.1-.1,0-.2s.1-.1.1,0l17,6.3,16.9,6.6c.1,0,.1.1.1.2Z" transform="translate(9.47 -7.47)" fill="#1d2238"/><path d="M1034.23,1076.17,852,988.37l-35.7-111.1a119.09,119.09,0,0,0-84.1-79h0a31.66,31.66,0,0,0-34.6,13.8c-39.7,63.2-123.7,273.1-106.9,337,22.5,85.4,197.3,42,252.5,26a16.54,16.54,0,0,0,11.1-21.3l-21.7-64.5,173.7,48.5Z" transform="translate(9.47 -7.47)" fill="#0088f9"/><path d="M832.63,1089.47l-8.5-2.6-8.4-2.7-16.8-5.4-8.4-2.8c-1.4-.5-2.8-.9-4.2-1.4s-2.9-1-4.2-1.6a86.93,86.93,0,0,1-41.2-34.6,89.22,89.22,0,0,1-12.5-34.3c-.4-3-.7-6.1-.8-9.1l-.3-8.8c-.2-5.9-.5-11.8-.6-17.6-.3-11.8-.7-23.5-.9-35.3s-.4-23.5-.5-35.3v-26.5l.2-8.8h.4l3,70.5,1.5,35.3.7,17.6c.3,5.9.3,11.8,1.2,17.6a86,86,0,0,0,11.7,32.9,90.37,90.37,0,0,0,10.6,14,85.07,85.07,0,0,0,13.2,11.5,82.19,82.19,0,0,0,15.3,8.6c2.7,1.2,5.4,2.2,8.2,3.2l8.3,3.1,33.1,12.2Z" transform="translate(9.47 -7.47)" fill="#1d2238"/><path d="M1030.33,1085.17l8.4,3.8,45.8,1.6a8.77,8.77,0,0,1,8.1,6.3h0c1.6,5.3-2.5,11.4-8.1,11.9l-18.5,1.1,14.2,5.3,4.7-7.1,23.5-2.4-9.8,25c-3,5.8-5.7,7.1-8.5,8.7l-22.2,12.7a21,21,0,0,1-14.3,2.4h0a63.39,63.39,0,0,1-35.7-20.2l-6.6-7.4Z" transform="translate(9.47 -7.47)" fill="#c69491"/><path d="M1069.53,1139.27a13.92,13.92,0,0,1,4.4-.7,14.72,14.72,0,0,1,2.1,0,14.92,14.92,0,0,1,2.1.2,15.52,15.52,0,0,1,2.1.4,16.55,16.55,0,0,1,2.1.6,13.3,13.3,0,0,1,4,1.9v.2l-8.4-1-8.4-1.2Z" transform="translate(9.47 -7.47)" fill="#1d2238"/><path d="M1061.13,1147.87a7.93,7.93,0,0,1,3.2-1,10.75,10.75,0,0,1,3.1-.1,10.88,10.88,0,0,1,3,.7,7.6,7.6,0,0,1,2.9,1.6v.2c-2-.1-4.1-.3-6.1-.5s-4.1-.4-6.1-.7Z" transform="translate(9.47 -7.47)" fill="#1d2238"/><path d="M1080.33,1115.37a44,44,0,0,1-6.5-1.2,28.11,28.11,0,0,1-3.1-1l-3-1.2c-1-.4-2-.9-2.9-1.3s-1.9-.9-2.9-1.5a32.32,32.32,0,0,1-5.4-3.7l.1-.2,11.9,4.8,11.9,5Z" transform="translate(9.47 -7.47)" fill="#1d2238"/><path d="M1008.83,666.27l74.1-7.9h0a29,29,0,0,0-21.3-12.9l-20.8-2a21.37,21.37,0,0,0-18.1,7.1Z" transform="translate(9.47 -7.47)" fill="#c69491"/><path d="M1072.33,680.67h0a7.34,7.34,0,0,1-7.5-7.1l-.4-15.9a7.34,7.34,0,0,1,7.1-7.5h0a7.34,7.34,0,0,1,7.5,7.1l.4,15.9A7.34,7.34,0,0,1,1072.33,680.67Z" transform="translate(9.47 -7.47)" fill="#c69491"/><path d="M1054.83,690h0a10.5,10.5,0,0,1-10.8-10.2l-.6-22.8a10.5,10.5,0,0,1,10.2-10.8h0a10.5,10.5,0,0,1,10.8,10.2l.6,22.8A10.57,10.57,0,0,1,1054.83,690Z" transform="translate(9.47 -7.47)" fill="#c69491"/><path d="M1045.53,650.37a8.7,8.7,0,0,1,1.7-2.1,9.45,9.45,0,0,1,2.3-1.6,11.55,11.55,0,0,1,5.5-1.1,11,11,0,0,1,9,6.4,9.24,9.24,0,0,1,.8,2.7,13.13,13.13,0,0,1,.1,2.8v5.4c0,3.6,0,7.2-.1,10.8l-.6-10.8-.3-5.4a10.84,10.84,0,0,0-1.2-5,10.2,10.2,0,0,0-7.9-5.5A10.57,10.57,0,0,0,1045.53,650.37Z" transform="translate(9.47 -7.47)" fill="#1d2238"/><path d="M1026.53,689.27h0a10.41,10.41,0,0,1-7.9-12.5l5-22.3a10.41,10.41,0,0,1,12.5-7.9h0a10.41,10.41,0,0,1,7.9,12.5l-5,22.3A10.39,10.39,0,0,1,1026.53,689.27Z" transform="translate(9.47 -7.47)" fill="#c69491"/><path d="M1036.13,646.47a9.44,9.44,0,0,1,6.4,3.2,10.49,10.49,0,0,1,2.7,6.9,14.32,14.32,0,0,1-.6,3.7c-.3,1.1-.6,2.3-.9,3.4-.6,2.3-1.4,4.5-2.2,6.7.1-2.4.5-4.7.8-7,.2-1.2.4-2.3.6-3.5a12.93,12.93,0,0,0,.4-3.3,11.85,11.85,0,0,0-.5-3.2,8.93,8.93,0,0,0-1.5-2.9A11.22,11.22,0,0,0,1036.13,646.47Z" transform="translate(9.47 -7.47)" fill="#1d2238"/><path d="M1078.93,658.47a9.54,9.54,0,0,0-.9-3.3,7.27,7.27,0,0,0-2-2.6,1.61,1.61,0,0,0-.7-.4,1.49,1.49,0,0,0-.7-.3c-.2-.1-.5-.2-.7-.3s-.5-.1-.8-.2a1.88,1.88,0,0,0-.8-.2c-.3-.1-.5-.1-.8-.2a13.64,13.64,0,0,1-1.7-.4h0s-.1-.1,0-.1h0a7,7,0,0,1,3.7-.5,5.58,5.58,0,0,1,3.3,1.9,8,8,0,0,1,1.9,3.2,11.07,11.07,0,0,1,.4,3.6c0-.2-.1-.1-.2-.2Z" transform="translate(9.47 -7.47)" fill="#1d2238"/><path d="M845.63,968.87c-4.9-11.5-9.1-23.2-13.1-34.9-2.1-5.8-3.9-11.7-6-17.6s-3.9-11.7-6-17.5c-1.9-5.8-4-11.7-6.2-17.4s-4.6-11.2-7.2-16.8c-5.3-11-11.5-21.7-17.5-32.7l.3-.2a309.77,309.77,0,0,1,19.9,31.5,173.12,173.12,0,0,1,7.9,16.9c2.3,5.8,4.4,11.6,6.4,17.5,8,23.5,14.5,47.5,21.7,71.2Z" transform="translate(9.47 -7.47)" fill="#1d2238"/><rect x="1186.2" y="509.4" width="37.9" height="735.2" fill="#4a4e60"/><rect x="1415.95" y="1024.51" width="454.01" height="324.81" transform="translate(-177.78 308.57) rotate(-10.4)" fill="#fff"/><path d="M1448.43,1388.47l-58.9-321,448.1-82.2,58.9,321Zm-57.1-319.7,58.4,318,445.1-81.7-58.4-318Z" transform="translate(9.47 -7.47)" fill="#d2d6e1"/><rect x="1429.63" y="1038.16" width="426.91" height="297.61" transform="translate(-177.79 308.6) rotate(-10.4)" fill="#4a4e60"/><path d="M1439.63,1261l67.1-94.5a52,52,0,0,1,71.3-13.2l111,73.9a31.3,31.3,0,0,0,41.8-6.6l17.6-22.3a52,52,0,0,1,67.6-12.4l49.2,29.4,14.6,79.5-419.8,77.1Z" transform="translate(9.47 -7.47)" fill="#fff"/><circle cx="1704.14" cy="1100.19" r="34.6" fill="#fff"/><g clip-path="url(#clip-path)"><rect x="1519.14" y="555.26" width="445.52" height="622.73" transform="translate(658.83 2469) rotate(-82.29)" fill="#fff"/><path d="M2021.53,1130.17l-1-.1-618.1-83.7.1-1,59.9-442.5,1,.1,618.1,83.7-.1,1Zm-616.9-85.7,615,83.3,59.5-439.4-615-83.3Z" transform="translate(9.47 -7.47)" fill="#d2d6e1"/><rect x="1537.93" y="573.76" width="408.22" height="585.43" transform="translate(659.09 2469.01) rotate(-82.29)" fill="#5185ed"/><path d="M1445.23,876.27l127.7-94.5a71.43,71.43,0,0,1,98.6,13.2l113.1,143.7a42.85,42.85,0,0,0,57.3,9.2l32.5-21.6a71.31,71.31,0,0,1,93.4,12.6l51.6,59.3-14.9,109.8-580.1-78.6Z" transform="translate(9.47 -7.47)" fill="#fff"/><circle cx="1852.63" cy="777.69" r="47.4" fill="#fff"/></g><rect x="1224" y="1244.6" width="705.6" height="468.7" fill="#e4e6ed"/><path d="M1854.13,1684.27h-573.2a24.11,24.11,0,0,1-24.1-24.1v-343.6a24.11,24.11,0,0,1,24.1-24.1h573.2a24.11,24.11,0,0,1,24.1,24.1v343.6A24,24,0,0,1,1854.13,1684.27Z" transform="translate(9.47 -7.47)" fill="#fff"/><rect x="1372.1" y="1523.2" width="75.9" height="21.2" fill="#1d2238"/><path d="M1367.53,1539l-7-15.1a6.3,6.3,0,0,0-5.7-3.6h-47.3a6.27,6.27,0,0,0-6.3,6.3v114.2a6.27,6.27,0,0,0,6.3,6.3h138.4a6.27,6.27,0,0,0,6.3-6.3V1549a6.27,6.27,0,0,0-6.3-6.3h-72.6A6.49,6.49,0,0,1,1367.53,1539Z" transform="translate(9.47 -7.47)" fill="#5185ed"/><rect x="1563" y="1523.2" width="75.9" height="21.2" fill="#1d2238"/><path d="M1558.33,1539l-7-15.1a6.3,6.3,0,0,0-5.7-3.6h-47.3a6.27,6.27,0,0,0-6.3,6.3v114.2a6.27,6.27,0,0,0,6.3,6.3h138.4a6.27,6.27,0,0,0,6.3-6.3V1549a6.27,6.27,0,0,0-6.3-6.3h-72.6A6.73,6.73,0,0,1,1558.33,1539Z" transform="translate(9.47 -7.47)" fill="#5185ed"/><rect x="1753.9" y="1523.2" width="75.9" height="21.2" fill="#1d2238"/><path d="M1749.23,1539l-7-15.1a6.3,6.3,0,0,0-5.7-3.6h-47.3a6.27,6.27,0,0,0-6.3,6.3v114.2a6.27,6.27,0,0,0,6.3,6.3h138.4a6.27,6.27,0,0,0,6.3-6.3V1549a6.27,6.27,0,0,0-6.3-6.3H1755A6.6,6.6,0,0,1,1749.23,1539Z" transform="translate(9.47 -7.47)" fill="#5185ed"/><rect x="1372.1" y="1338.1" width="75.9" height="21.2" fill="#1d2238"/><path d="M1367.53,1353.87l-7-15.1a6.3,6.3,0,0,0-5.7-3.6h-47.3a6.27,6.27,0,0,0-6.3,6.3v114.2a6.27,6.27,0,0,0,6.3,6.3h138.4a6.27,6.27,0,0,0,6.3-6.3v-91.8a6.27,6.27,0,0,0-6.3-6.3h-72.6A6.32,6.32,0,0,1,1367.53,1353.87Z" transform="translate(9.47 -7.47)" fill="#5185ed"/><rect x="1563" y="1338.1" width="75.9" height="21.2" fill="#1d2238"/><path d="M1558.33,1353.87l-7-15.1a6.3,6.3,0,0,0-5.7-3.6h-47.3a6.27,6.27,0,0,0-6.3,6.3v114.2a6.27,6.27,0,0,0,6.3,6.3h138.4a6.27,6.27,0,0,0,6.3-6.3v-91.8a6.27,6.27,0,0,0-6.3-6.3h-72.6A6.54,6.54,0,0,1,1558.33,1353.87Z" transform="translate(9.47 -7.47)" fill="#5185ed"/><rect x="1753.9" y="1338.1" width="75.9" height="21.2" fill="#1d2238"/><path d="M1749.23,1353.87l-7-15.1a6.3,6.3,0,0,0-5.7-3.6h-47.3a6.27,6.27,0,0,0-6.3,6.3v114.2a6.27,6.27,0,0,0,6.3,6.3h138.4a6.27,6.27,0,0,0,6.3-6.3v-91.8a6.27,6.27,0,0,0-6.3-6.3H1755A6.43,6.43,0,0,1,1749.23,1353.87Z" transform="translate(9.47 -7.47)" fill="#5185ed"/><path d="M1475.13,358.77h-428a34.87,34.87,0,0,1-34.9-34.9h0a34.87,34.87,0,0,1,34.9-34.9h428a34.87,34.87,0,0,1,34.9,34.9h0A34.93,34.93,0,0,1,1475.13,358.77Z" transform="translate(9.47 -7.47)" fill="#d2d6e1"/><polygon points="949.2 281.6 963.8 351.3 1000.1 351.3 985.5 281.6 949.2 281.6" fill="#0088f9"/><path d="M707.23,323.87h0a34.87,34.87,0,0,0,34.9,34.9h8.5l-14.5-69.3A35,35,0,0,0,707.23,323.87Z" transform="translate(9.47 -7.47)" fill="#0088f9"/><polygon points="1009.2 281.6 1023.8 351.3 1060.1 351.3 1045.5 281.6 1009.2 281.6" fill="#0088f9"/><polygon points="889.2 281.6 903.8 351.3 940.1 351.3 925.5 281.6 889.2 281.6" fill="#0088f9"/><polygon points="769.2 281.6 783.8 351.3 820.1 351.3 805.5 281.6 769.2 281.6" fill="#0088f9"/><path d="M1170.13,289.07h-50.4l14.6,69.8h35.8A34.87,34.87,0,0,0,1205,324h0A34.87,34.87,0,0,0,1170.13,289.07Z" transform="translate(9.47 -7.47)" fill="#0088f9"/><polygon points="829.2 281.6 843.8 351.3 880.1 351.3 865.5 281.6 829.2 281.6" fill="#0088f9"/><polygon points="1069.2 281.6 1083.8 351.3 1120.1 351.3 1105.5 281.6 1069.2 281.6" fill="#0088f9"/><path d="M742.13,289.07a38.08,38.08,0,0,0-5.9.5l14.5,69.3h23.7l-14.6-69.8Z" transform="translate(9.47 -7.47)" fill="#396bb2"/><polygon points="805.5 281.6 820.1 351.3 843.8 351.3 829.2 281.6 805.5 281.6" fill="#396bb2"/><polygon points="865.5 281.6 880.1 351.3 903.8 351.3 889.2 281.6 865.5 281.6" fill="#396bb2"/><polygon points="925.5 281.6 940.1 351.3 963.8 351.3 949.2 281.6 925.5 281.6" fill="#396bb2"/><polygon points="985.5 281.6 1000.1 351.3 1023.8 351.3 1009.2 281.6 985.5 281.6" fill="#396bb2"/><polygon points="1045.5 281.6 1060.1 351.3 1083.8 351.3 1069.2 281.6 1045.5 281.6" fill="#396bb2"/><polygon points="1105.5 281.6 1120.1 351.3 1143.8 351.3 1129.2 281.6 1105.5 281.6" fill="#396bb2"/><path d="M2516.63,670.67c.3-17.2-5.4-31.7-17.4-43.7-2.6-2.7-2.6-3.8.9-5.5,12.4-6.1,18.8-19.4,15.7-32.4-3.1-13.6-14.1-22.6-28-22.8-5-.1-9.8-.2-14.8.1-3,.2-4.4-1-5.3-3.8-2.5-8.4-5.2-16.7-8-25-7.4-22.4-22.3-36.8-44.6-42.8-10.6-2.9-21.6-2.1-32.4-2.1-47.8-.1-95.7.1-143.4,0-7.7,0-15.3.6-22.6,2.9-17.7,5.7-31.8,16.3-39.3,34.1-4.3,10.2-7.2,20.9-10.5,31.5-1.2,4-2.4,6.8-7.5,6.3s-10.4.2-15.7-.2c-13.8-1-26.4,15.1-26.7,27.5-.2,6.3-.1,6.2,5.8,4.4a15.83,15.83,0,0,1,3.8-.5c12.2-.8,24.3-.4,36.5-.4,3,0,5.5-.9,6.5-4q8.1-25,16.1-50.1c2.2-6.8,4.5-13.5,9-18.9,10-12.4,23-18.1,38.7-18,55.5.2,111,.1,166.4.1a53.84,53.84,0,0,1,16.3,2.2c16,4.8,25.3,16,30.5,31.5,3.9,11.6,7.7,23.2,11.4,34.9,3.1,9.6,6.3,19,9.3,28.6,1.7,5.7,1.4,6-4.5,6h-53.9c-1.5,0-3.1-.5-4.8.7,2.6,3.2,6.6,4.2,9.4,6.9a98.43,98.43,0,0,1,24.3,37.7c1.6,4.2,3,4.6,6.3,2.1a17.84,17.84,0,0,1,5.1-2.3c11.4-4,22-2.2,30.6,6.1,7.9,7.7,11,17.9,8.1,28.9-1.1,4.4.1,5.6,3.4,7.3,14.2,7.1,22,18.7,21.7,35.3,0,.7-.4,1.8.7,2.1,2.5-2.8,2.7-6.1,2.7-9.6C2516.63,707.37,2516.43,689.07,2516.63,670.67Z" transform="translate(9.47 -7.47)" fill="#008dc4"/><path d="M2115.83,558.07c-13,12.6-15.4,28.7-14.3,45.9.1,1-.1,2.1,1.4,2.2,3.6.4,7.5-3,7.5-6.9,0-3.6.2-7.1-.1-10.7-1-13.8,13.5-29,27.3-28,4.6.4,9.3-.3,13.9.1,4.2.4,6.5-1.3,7.7-5.4a48.34,48.34,0,0,1,3-8.3c1-2.3.3-2.9-1.9-2.9-4.8.1-9.6-.2-14.3.1-3.7.2-5.1-1.1-3.7-4.8.3-.8.4-1.7.7-2.6,5-15.6,10.2-31.1,15.2-46.7,2.3-7.1,4.8-14,9.7-19.6,7.7-8.8,17.8-12.1,29.1-12,23.3.1,46.6,0,69.9,0,23.7,0,47.5-.1,71.2,0,16.4.1,28.8,7.6,35.1,23.1,2.3,5.8,5.2,6.3,10,6.2,3-.1,3.3-1,2.5-3.8-6.9-22.3-26.2-37.3-48.9-37.3-46.8-.1-93.6,0-140.4,0-19.5,0-38.4,12.9-45.7,31.5-3.3,8.6-6.1,17.3-8.9,26.1-.8,2.4-1.9,3.3-4.3,3.2-3.9-.2-7.8-.1-11.7,0-12.1.3-21.1,7.5-23.8,18.9-2.4,10.5,2.4,21,12.9,26.6C2117.43,554.67,2118.23,555.77,2115.83,558.07Z" transform="translate(9.47 -7.47)" fill="#008dc4"/><path d="M2504.53,829.47c-.1-19.6-7.9-35.8-20.3-50-5.5-6.3-5.7-5.9,1-10.2,4.3-2.7,7-7.1,10.7-10.4,5.7-5.3,7.4-12,8-19.5,1.4-19.1-8.8-27.7-8.8-27.7h0c-7-7.7-15.4-12.2-26.2-12.2-7.1.1-14.2,0-21.3,0-2.7,0-4.9-.9-5.7-3.7-3.6-11.2-7.3-22.3-10.7-33.7-5.8-19.4-17.4-34.1-33.8-45-11.5-7.6-24.3-12.2-37.7-12.2-74.8-.3-149.5-.2-224.3-.1a65.13,65.13,0,0,0-26.9,5.9c-21.5,9.7-36.5,25.8-44.1,49-3.7,11.4-7.7,22.8-11.1,34.2-1.1,3.7-2.7,5.3-6.7,5-6.5-.4-13-.1-19.6-.1-17.7,0-32.4,12.6-36.2,30.7-3.4,16.4,5.9,34.1,21.6,41.2,4.3,2,4.3,1.9.9,5.5-15,15.4-23,33.9-23,55.9.1,23,.5,45.8-.2,68.8-.4,13.7,5,23.1,15.7,30.2,2.3,1.4,3,3.2,3,5.9-.1,10.7-.1,21.4-.1,32.2h.1v31.7c0,10.5,7.9,18.7,18.2,18.7h54.4c10.9,0,18.7-8,18.8-19,.1-12.3,0-24.8,0-37.1,0-6.6-.1-6.6,6.5-5.8a712.31,712.31,0,0,0,77.1,4.8c69,.7,138.2,2.3,207.1-5.1,3.3-.4,4.3.6,4.3,4-.2,12.8-.1,25.6-.1,38.4,0,11.8,8,20,19.4,20,17.7,0,35.3.1,53,0,11,0,18.9-8.2,19-19.4,0-20.1.2-40.2-.1-60.3-.1-4.6,1.1-7.5,5-10.3,7.8-5.6,13.7-12.9,13.7-23.5C2504.43,880.67,2504.63,855.07,2504.53,829.47Zm-404.3,20.4c-.8,21.6-15.7,37.7-36.9,37.7-21,0-36.5-16.4-36.8-37.8-.3-20.5,16.4-38.6,36.9-37.5C2083.43,811.07,2100.83,829.77,2100.23,849.87Zm229.2,37.7h-163.9c-7,0-10.2-3.2-10-9.8.2-6.3,3-9.3,9.2-9.3,54.9,0,109.8-.1,164.7,0,6.3,0,10.3,4.1,10.1,10.2S2336.23,887.57,2329.43,887.57Zm20.8-37.8c-1.4.2-2.9.1-4.3.2h-199.8c-7-.3-9.2-2.4-9.4-8.8-.2-6.1,3.4-10.1,9.4-10.5,1.6-.1,3.2,0,4.8,0h195.9c6.9,0,10.2,2.1,11.4,7.2C2359.43,843.77,2356,849,2350.23,849.77Zm-102.9-94.4c-63.3,0-126.6-.1-189.9.1-4.3,0-5.1-1.3-4-5.1,2.8-8.8,5.5-17.7,8.3-26.5,4.3-13.4,8.5-26.9,13.1-40.3,4-11.4,6.1-23.6,13.5-33.8,8.3-11.5,18.5-20,32.1-24.2,6.3-2,12.4-2.4,18.8-2.4,72,0,144,.2,216-.1,19.5-.1,35.4,6.9,48.1,21.8,6.3,7.5,9.5,16.7,12.4,26,6,18.9,12.1,37.6,18.3,56.4,2.5,7.9,5.3,15.6,7.9,23.4,1.2,3.7.1,4.7-3.7,4.7Q2342.53,755.22,2247.33,755.37Zm181.9,133.2c-17.6.3-35.2-16.7-35.3-39.1-.1-20.6,15.4-38.3,37.3-37.2,22.2-.8,37.6,16,37.2,37.7C2467.93,875.37,2452.13,888.27,2429.23,888.57Z" transform="translate(9.47 -7.47)" fill="#008dc4"/></svg>