<?xml version="1.0" encoding="utf-8"?>
<!-- Generator: Adobe Illustrator 25.2.1, SVG Export Plug-In . SVG Version: 6.00 Build 0)  -->
<svg version="1.1" id="Capa_1" xmlns="http://www.w3.org/2000/svg" xmlns:xlink="http://www.w3.org/1999/xlink" x="0px" y="0px"
	 viewBox="0 0 396.9 396.9" style="enable-background:new 0 0 396.9 396.9;" xml:space="preserve">
<style type="text/css">
	.st0{fill:#070707;}
</style>
<g>
	<path class="st0" d="M316.7,172.4l-0.4-0.1c-0.9-0.2-1.7-0.4-2.6-0.2l0,0c-1.1,0.2-1.6,0.3-2.2-2.2c-6.2-21.8-12.7-43.9-18.9-65.3
		l-5-17c-1-3.6-2.1-7.1-3.1-10.7c-1.2-4.2-2.5-8.4-3.7-12.8c-0.2-0.5-0.5-1-1-1.2c-0.5-0.3-1.1-0.3-1.6-0.1
		c-50,19.5-100.5,39.2-149.4,58.2c-21.2,8.2-42.3,16.5-63.5,24.7c-0.9,0.4-1.5,1.4-1.2,2.3c0.3,1.2,0.5,2.1,0.8,2.9l4.3,14.7
		c6.4,21.9,12.9,44.4,19.3,66.8c0.4,1.3,0.5,3.1,0.5,4.2c-0.3,9.4-0.6,18.7-1,28c-0.3,9-0.6,18-0.9,27c0,0.5,0,1,0,1.5
		c0,0.6-0.1,1.2-0.1,1.8c0,1.1,0.9,2,2,2h222.9c1.1,0,2-0.9,2-1.9c0.7-19.8,1.4-39.5,2.2-59.2c0.7-20.5,1.5-41,2.2-61.5
		C318.3,173.5,317.7,172.7,316.7,172.4z M267.7,171.9c0.3-1.1,0.7-2.2,1.1-3.2c0.3-0.7,0.5-1.4,0.8-2.1c0.7-2,1.4-3.8,2.5-5.1
		c3-3.6,6.4-6.8,9.7-9.8c2.8-2.6,3.9-4.5,2.8-8.7c-1.4-4.6-2.7-9.2-4.1-13.8c-1.4-4.6-2.7-9.2-4.1-13.8c-1.1-3.5-3.3-5.2-6.7-5.2
		c-9-0.1-15.8-2.5-21.4-7.4c-1.4-1.2-3-1.7-4.7-1.6c-1.6,0.2-3.1,1.1-4.1,2.5c-2.1,2.8-1.7,6.5,1.1,9.1c6.3,5.7,13,8.8,19.9,9.3
		c4.6,0.3,6.3,2,7.2,7c0.7,4.2,2.2,8.2,3.5,12.1l0.4,1.3c0.3,1,0.3,1.2-0.7,2.3l-0.1,0.1c-3.6,3.9-7.3,8-10.4,12.5
		c-2,3.1-3,7.2-3.5,10.1c-0.3,1.6,0,3.2,0.4,4.7c-15.8,0-32.2,0-48.2,0.1H209c-0.9,0.1-1.2,0-1.9-1.1c-3.1-5-8.1-6.3-12.5-6.9
		c-1-0.1-2-0.3-2.9-0.4c-1.8-0.2-3.7-0.4-5.4-0.8c-2.6-0.6-4-2.1-4-4.6c-0.1-2.5,1.4-4.6,3.7-5.4c2.5-0.8,5.3-1.2,8-1.6
		c0.4-0.1,0.7-0.1,1.1-0.2c0.3,0.2,0.6,0.4,1,0.5c0.6,0.1,1.3-0.1,1.7-0.6l0.2-0.2c0.3-0.3,0.5-0.7,0.6-1.1l0.1-0.4
		c0.6-4,0.8-5.6-0.4-6.9c-1.1-1.2-2.6-1.2-4.7-1.2c-0.5,0-1,0-1.5,0c-1.2,0-2.5,0.2-3.8,0.4v-0.1c-0.5-1.8-1-3.7-1.6-5.7
		c-0.1-0.5-0.5-1-1-1.3s-1.1-0.3-1.6-0.1l-1.6,0.5c-1.1,0.4-2.2,0.8-3.3,1.2c-0.9,0.4-1.5,1.4-1.2,2.3l0.1,0.4
		c0.5,2.3,1,4.3,1.6,6.3c-0.6,0.5-1.2,1-1.8,1.5c-4.8,4.1-6.8,9.3-5.9,15.4c0.6,4.4,2.7,7.7,6,9.8h-60.4c4-3.2,8.1-7.1,10.8-12.5
		c1.7-3.4,2.5-7.3,3.1-10.6c0.3-1.5,0-2.9-0.9-4c-0.9-1.2-2.4-2-4-2.2c-3.4-0.5-6.1,1.4-6.7,4.7c-1,6.6-5,10.5-10.2,14.9
		c-1.2,1-2.2,1.9-3.4,2.5c-3.3,1.8-4.8,4.2-4.6,7.4c-2.2,0-4,0-5.9-0.1c-0.5,0-2.1-0.1-3.3,1c-1.1,1-1.2,2.6-1.2,3.6
		c-0.1,6.1-0.4,12.2-0.6,18.2c0,0.2,0,0.4,0,0.5c-1.7-5.9-3.5-11.9-5.2-17.9c-2.3-7.7-4.5-15.5-6.8-23.3
		c37.6-14.6,75.1-29.2,112.7-43.8c27-10.5,54-21,81.1-31.5l2.3,7.8c8.1,27.9,16.5,56.8,24.9,85.3L267.7,171.9L267.7,171.9z
		 M305.7,185.1c-1.2,34.9-2.3,66.6-3.6,99H99.6c0.6-16.8,1.2-33.6,1.8-50.4c0.6-16.2,1.2-32.4,1.7-48.6H305.7z"/>
	<path class="st0" d="M117.4,256.9c7.8,3.4,13,7.9,16.2,14c1.2,2.3,3,3.7,4.9,4.2c0.4,0.1,0.8,0.1,1.2,0.1c1.1,0,2.2-0.4,3.2-1.1
		c3.1-2.2,3.5-6.1,1.1-10.3c-0.5-1-1.2-1.9-1.8-2.9c-4.3-6.2-10-11.1-16.9-14.5c-0.7-0.3-0.8-0.4-0.8-1.4c0.3-6.3,0.6-13.4,0.7-20.3
		c0-0.8,0-0.8,1-1.3h0.1c4.4-2.2,8.9-4.5,13.1-7.3c3.6-2.4,6.3-5.9,8-10.5c1.3-3.7,0.2-7.2-2.7-8.7c-1.7-0.9-5.1-1.6-8.3,3.6
		c-1.3,2.3-2.8,4.5-4.4,5.6c-4.3,2.7-8.9,4.8-12.8,6.4c-4.4,1.8-5.6,3-5.8,8.2c-0.1,2.3-0.2,4.6-0.2,6.9c-0.1,2.4-0.2,4.7-0.3,7.1
		c-0.1,2.4-0.2,4.7-0.3,7c-0.1,2.3-0.1,4.6-0.3,7.1C112.3,253.7,113.2,255.1,117.4,256.9z"/>
	<path class="st0" d="M261.4,274.3c1,0.8,2.2,1.2,3.5,1.2c0.3,0,0.7,0,1-0.1c1.6-0.3,3-1.3,3.9-2.8c4.4-7.4,10.6-12.5,19.4-16
		c2.8-1.1,4.2-3.3,4.4-6.5c0-2.5,0.2-5.1,0.2-7.5c0.1-2.5,0.2-5.1,0.3-7.6l0.6-14.9c0.1-4.2-1.1-6.1-5-7.5c-3-1.1-6.5-2.4-9.5-4.1
		c-3.7-2-5.9-4.4-7.1-7.7c-0.6-1.9-1.8-3.3-3.3-4c-1.4-0.7-3-0.7-4.7,0c-3.2,1.3-4.7,4.9-3.4,8.6c1,2.9,2.2,5,3.5,6.7
		c4.7,6.3,11.4,9.4,16.7,11.5c0.5,0.2,0.6,0.3,0.6,0.3s0.1,0.2,0,0.8c-0.3,6.3-0.6,13.4-0.7,20.3c0,0.8,0,0.8-1,1.5
		c-0.7,0.4-1.4,0.9-2.1,1.3c-3.5,2.2-7,4.4-10.2,7.2c-3.2,2.9-5.7,6.5-8.1,10l-0.4,0.6C258.1,268.4,258.7,272.2,261.4,274.3z"/>
	<path class="st0" d="M187.4,260.6c1.4,0.4,2.7,0.8,4.2,1.2c1.1,0.3,2.2,0.7,3.4,1c-0.1,2-0.2,4.1-0.2,6.3c0,0.5,0.2,1.1,0.6,1.5
		c0.4,0.4,0.9,0.6,1.4,0.6h5.2c1.1,0,2-0.9,2-1.9c0.1-2.5,0.2-4.8,0.2-7l0,0c1.1-0.4,2.1-0.7,3-1.2c5.3-2.4,8.9-7.4,9.6-13.3
		c0.8-5.8-1.3-11.3-5.6-14.9c-1.7-1.4-3.6-2.4-5.4-3.4c-0.6-0.3-1.2-0.7-1.9-1.1c-0.6-0.3-1.2-0.7-1.8-1c-1.4-0.8-2.8-1.5-3.9-2.4
		c-0.9-0.8-1.6-2.2-1.8-3.3c-0.2-1.6,0.2-3.1,1.1-4.2c0.8-0.9,1.9-1.4,3.2-1.4c2.5,0,5,0.4,7.6,0.9c1.3,0.2,2.7,0.5,4.1,0.7
		c0.9,0.1,1.8-0.4,2.2-1.3c0.2-0.6,0.5-1.4,0.9-2.4c0.3-0.8,0.7-1.8,1.1-2.9c0.2-0.5,0.2-1.1-0.1-1.6s-0.7-0.9-1.2-1
		c-2.9-0.9-5.7-1.8-8.7-2.7c0.1-1.8,0.2-3.9,0.2-6c0-0.5-0.2-1.1-0.6-1.5s-0.9-0.6-1.4-0.6h-5.1c-1.1,0-2,0.9-2,1.9
		c-0.1,2.4-0.2,4.6-0.2,6.8c-0.1,0.1-0.3,0.1-0.4,0.2c-0.9,0.3-1.7,0.6-2.6,1c-5.4,2.4-8.5,6.8-9.3,12.9c-0.8,6,1.4,10.9,6.1,14.1
		c1.4,1,3,1.8,4.5,2.6c1,0.5,1.9,1,2.8,1.5c0.4,0.2,0.8,0.5,1.2,0.7c1.7,1,3.3,2,4.5,3.2c1.3,1.4,1.9,3.5,1.4,5.4
		c-0.4,1.9-1.7,3.3-3.3,3.9l0,0c-1.9,0.8-4.4,1-7,0.6c-1.6-0.2-3.2-0.9-5-1.7c-0.8-0.4-1.7-0.7-2.5-1c-1-0.4-2.2,0.1-2.6,1.2
		l-0.2,0.5c-0.2,0.6-0.5,1.2-0.7,1.7c-0.9,1.7-1.2,3.2-0.7,4.6S185.5,259.9,187.4,260.6z"/>
</g>
</svg>
