<?xml version="1.0" encoding="utf-8"?>
<!-- Generator: Adobe Illustrator 25.2.1, SVG Export Plug-In . SVG Version: 6.00 Build 0)  -->
<svg version="1.1" id="Capa_1" xmlns="http://www.w3.org/2000/svg" xmlns:xlink="http://www.w3.org/1999/xlink" x="0px" y="0px"
	 viewBox="0 0 396.9 396.9" style="enable-background:new 0 0 396.9 396.9;" xml:space="preserve">
<g id="Capa_4">
	<path d="M277.8,284.4h-60.1c-4.1,0-7.5-3.4-7.5-7.5v-60.5h-23.5v60.5c0,4.1-3.4,7.5-7.5,7.5h-60.1c-0.3,0-0.7,0-1-0.1
		c-7.6-1.1-11.3-4.7-13.1-7.6c-2.7-4.5-2.3-9.1-1.7-11.5v-100l-40.5-0.3c-3.4,0-6.4-2.4-7.2-5.7s0.8-6.8,3.8-8.4l120.2-62.5
		c0,0,0.1,0,0.1-0.1c5.8-2.9,12.1-4.2,18.7-3.9c6.6-0.3,12.9,1,18.7,3.9l120.4,62.5c3.1,1.6,4.6,5.1,3.8,8.4
		c-0.8,3.4-3.8,5.7-7.2,5.8l-40.5,0.3v100c0.5,2.4,1,7-1.7,11.5c-1.8,2.9-5.5,6.6-13.1,7.6C278.5,284.4,278.1,284.4,277.8,284.4z
		 M225.2,269.4h52c0.9-0.2,1.5-0.4,1.8-0.5c0-0.1,0-0.2,0-0.2c-0.3-0.8-0.4-1.6-0.4-2.5V157.8c0-4.1,3.3-7.5,7.4-7.5l17.7-0.1
		l-93.5-48.6c-3.4-1.8-7.3-2.5-11.4-2.3c-0.3,0-0.6,0-0.9,0c-4-0.2-7.9,0.5-11.4,2.3l-93.4,48.6l17.8,0.1c4.1,0,7.4,3.4,7.4,7.5
		v108.4c0,1,0,1.5-0.4,2.4c0,0.1,0,0.2,0,0.3c0.3,0.1,0.9,0.4,1.8,0.5h52v-60.5c0-4.1,3.4-7.5,7.5-7.5h38.5c4.1,0,7.5,3.4,7.5,7.5
		L225.2,269.4L225.2,269.4z M117.9,268.7L117.9,268.7L117.9,268.7z"/>
</g>
</svg>
