<svg id="Capa_1" data-name="Capa 1" xmlns="http://www.w3.org/2000/svg" viewBox="0 0 743.62 725.96"><g id="Capa_1-2" data-name="Capa 1"><g id="Capa_3" data-name="Capa 3"><g style="isolation:isolate"><path d="M153,200.19l88.58.6V602.1q0,60.2-9.85,93.57-16.74,58.16-62,57.86-19.69-.13-36.41-18.4t-16.73-37.38a46.08,46.08,0,0,1,9.35-28.6q9.36-12.36,29-12.22,15.74.11,23.13,12.58t7.38,28.71q0,12.4-10.34,23.34T154,732.4q4.92,8.64,15.75,8.71,13.77.09,23.62-15.12a62,62,0,0,0,9.84-34.34q0-18.15-20.66-59.38-9.85-19.18-9.85-35.42V212.74L153,212.61Zm54.13-80.85a43.22,43.22,0,0,1-29.53-11.67Q164.81,96.12,164.81,78q0-16.23,12.79-28.57t29.53-12.22q16.73.11,29.52,12.62t12.8,28.75a38.83,38.83,0,0,1-12.3,29.06Q224.82,119.48,207.13,119.34Z" transform="translate(-116.59 -37.17)" fill="#005ea4"/><path d="M290.77,398.92q0-86.94,24.61-146t70.86-58.76q44.28.3,69.87,60.67T481.7,400.23q0,85-20.67,141.27-25.59,69.59-74.79,69.24-46.28-.33-72.83-70.25Q290.76,480.13,290.77,398.92ZM363.6,227.43V576.18A21.09,21.09,0,0,0,370,592q6.39,6.27,16.24,6.32c6.55.05,12-2,16.24-6.1a20.87,20.87,0,0,0,6.39-15.72V227.74a20.1,20.1,0,0,0-6.39-14.86,22.61,22.61,0,0,0-16.24-6.32Q363.59,206.41,363.6,227.43Z" transform="translate(-116.59 -37.17)" fill="#005ea4"/><path d="M509.24,202.63l88.58.6V592.12l19.68.13v12.43l-108.26-.75V591.51l19.69.14V215.18l-19.69-.13Zm54.13-80.85a43.2,43.2,0,0,1-29.52-11.67Q521,98.56,521.05,80.4q0-16.23,12.8-28.57t29.52-12.22q16.73.11,29.53,12.62T605.69,81A38.83,38.83,0,0,1,593.39,110Q581.07,121.92,563.37,121.78Z" transform="translate(-116.59 -37.17)" fill="#005ea4"/><path d="M838.93,402.67l-114.17-.78V577.7a23.39,23.39,0,0,0,22.64,23.09q44.28.3,65-59.75,14.77-42.9,14.77-105l11.81.08q0,71.67-14.77,113.61-22.65,63.87-76.76,63.49-47.24-.33-73.81-71.21-21.66-58.42-21.65-141.56,0-86,24.6-145.07t70.86-58.76q50.19.34,72.83,62.61Q838.91,310.94,838.93,402.67Zm-114.17-13.2,45.27.31V230.21q0-7.64-6.88-14.38A22.2,22.2,0,0,0,747.4,209q-22.65-.16-22.64,20.86Z" transform="translate(-116.59 -37.17)" fill="#005ea4"/></g></g><path d="M337.55,673.07a42.36,42.36,0,0,0-14.7-9.68,54.54,54.54,0,0,0-20.61-3.82,63.69,63.69,0,0,0-28.56,6.07,41.91,41.91,0,0,0-19.16,17.89,53.69,53.69,0,0,0-6.39,26.15,49,49,0,0,0,7.05,26.24,48,48,0,0,0,19.88,17.88,62.77,62.77,0,0,0,28.14,6.55q23.63.17,35.8-14.1v12.17l20.12.14V625.46l-21.57-.15Zm-8.13,65.26q-9.94,8.7-24.17,8.6a36,36,0,0,1-24.46-9.34q-10.37-9.24-10.36-27.76,0-19.16,9.7-28t24.16-8.73q14.82.1,24.94,9.43t10.13,29.12Q339.36,729.65,329.42,738.33Z" transform="translate(-116.59 -37.17)" fill="#5185ed"/><path d="M426.31,663.69q-6.33,3.22-13.8,13.43V662.5L393,662.37v96.42l21.69.15V708.46a49.08,49.08,0,0,1,3.61-19,18.09,18.09,0,0,1,8.08-8.89,25.27,25.27,0,0,1,12.77-3.14A39.15,39.15,0,0,1,455.05,681l7.47-15.11a52.85,52.85,0,0,0-22.29-5.41A29.69,29.69,0,0,0,426.31,663.69Z" transform="translate(-116.59 -37.17)" fill="#5185ed"/><polygon points="358.95 722.19 380.64 722.34 380.64 625.92 358.95 625.77 358.95 722.19" fill="#5185ed"/><polygon points="358.95 607.89 380.64 608.03 380.64 589.24 358.95 589.09 358.95 607.89" fill="#5185ed"/><path d="M583.76,722.51q-5.19,10.68-8.08,18.28-3.73-10.1-8.19-19.48L540,663.38l-22.9-.16L565.8,760l20.24.14L634.49,664l-22.29-.15Z" transform="translate(-116.59 -37.17)" fill="#5185ed"/><path d="M748.13,675.79q-16.26-13.27-41.93-13.45-26.52-.18-43.15,13.14t-16.63,37.65q0,23.52,16.45,36.66t44.53,13.33q22.29.15,36.64-7.92a41.85,41.85,0,0,0,19.64-22.83l-22.41-2.25q-4.95,10.32-13.38,15t-20.37,4.58q-16-.1-26.75-8.62t-11.93-24.42l95.44.66c.08-1.94.12-3.39.12-4.36Q764.4,689.06,748.13,675.79ZM670,703.22a26.69,26.69,0,0,1,11.27-20.08q10.19-7.47,25.13-7.36,16.5.11,26.87,9.62,6.75,6.14,8.2,18.31Z" transform="translate(-116.59 -37.17)" fill="#5185ed"/><path d="M837.92,663.24A29.75,29.75,0,0,0,824,666.41q-6.33,3.23-13.8,13.44V665.23l-19.53-.14v96.42l21.7.15V711.18a49.11,49.11,0,0,1,3.61-19,18.14,18.14,0,0,1,8.08-8.89,25.27,25.27,0,0,1,12.77-3.13,39,39,0,0,1,15.91,3.65l7.47-15.11A52.9,52.9,0,0,0,837.92,663.24Z" transform="translate(-116.59 -37.17)" fill="#5185ed"/></g></svg>