<?xml version="1.0" encoding="utf-8"?>
<!-- Generator: Adobe Illustrator 25.2.1, SVG Export Plug-In . SVG Version: 6.00 Build 0)  -->
<svg version="1.1" id="Capa_2_1_" xmlns="http://www.w3.org/2000/svg" xmlns:xlink="http://www.w3.org/1999/xlink" x="0px" y="0px"
	 viewBox="0 0 94.9 93.9" style="enable-background:new 0 0 94.9 93.9;" xml:space="preserve">
<style type="text/css">
	.st0{fill:#0088F9;}
</style>
<g>
	<path class="st0" d="M47.7,10.5c0.3-0.1,0.3,0.1,0.4,0.3c0.7,1.5,1.4,2.9,2.2,4.4c1.6,3.3,3.2,6.6,4.8,9.8c1.5,3,3,6.1,4.5,9.1
		c0.2,0.3,0.3,0.5,0.7,0.5c1.2,0.1,2.4,0.3,3.6,0.5c1.4,0.2,2.7,0.4,4.1,0.6c1.4,0.2,2.8,0.4,4.2,0.6c1.6,0.2,3.2,0.5,4.8,0.7
		c1.4,0.2,2.8,0.4,4.2,0.6c1.6,0.2,3.2,0.5,4.8,0.7c0.2,0,0.5,0.1,0.7,0.1c0.2,0.1,0.3,0.1,0.1,0.3c-0.2,0.2-0.4,0.4-0.6,0.6
		c-1.9,1.9-3.8,3.8-5.8,5.6c-3.8,3.6-7.5,7.2-11.2,10.8c-0.5,0.5-1.1,1.1-1.7,1.6c-0.2,0.2-0.3,0.4-0.2,0.7c0.3,1.6,0.6,3.3,0.9,4.9
		c0.4,2.4,0.8,4.8,1.2,7.2c0.4,2.4,0.8,4.8,1.2,7.1c0.4,2.3,0.8,4.6,1.2,7c0,0.3,0,0.3-0.3,0.3c-0.1,0-0.2-0.1-0.3-0.1
		c-4.5-2.4-9-4.8-13.5-7.2c-3.1-1.6-6.2-3.3-9.3-4.9c0,0-0.1,0-0.1-0.1c-0.8-0.4-0.6-0.5-1.5,0c-5.4,2.9-10.8,5.7-16.3,8.6
		c-2.2,1.2-4.4,2.3-6.6,3.5c-0.1,0-0.1,0.1-0.2,0.1c-0.1,0.1-0.3,0.1-0.4,0c-0.1-0.1,0-0.3,0-0.4c0.4-2.5,0.9-5.1,1.3-7.6
		c0.4-2.4,0.8-4.8,1.2-7.2c0.4-2.3,0.8-4.7,1.2-7c0.3-1.5,0.5-2.9,0.8-4.4c0.1-0.3-0.1-0.4-0.3-0.6c-1.1-1-2.2-2.1-3.2-3.1
		c-2-1.9-4-3.9-6-5.8c-3.2-3-6.3-6.1-9.5-9.1c-0.1-0.1-0.2-0.2-0.3-0.3c-0.2-0.3-0.1-0.5,0.2-0.5c2.2-0.3,4.4-0.6,6.7-0.9
		c2.5-0.4,4.9-0.7,7.4-1.1c2.4-0.4,4.9-0.7,7.4-1c1.6-0.2,3.2-0.5,4.8-0.7c0.3,0,0.5-0.2,0.6-0.5c1.2-2.5,2.4-4.9,3.6-7.4
		c2.1-4.2,4.2-8.5,6.2-12.7c0.6-1.1,1.1-2.2,1.7-3.4C47.3,10.6,47.4,10.4,47.7,10.5z"/>
</g>
</svg>
