<?xml version="1.0" encoding="utf-8"?>
<!-- Generator: Adobe Illustrator 25.2.1, SVG Export Plug-In . SVG Version: 6.00 Build 0)  -->
<svg version="1.1" id="ujgbui_xA0_Imagen_1_" xmlns="http://www.w3.org/2000/svg" xmlns:xlink="http://www.w3.org/1999/xlink"
	 x="0px" y="0px" viewBox="0 0 920 920" style="enable-background:new 0 0 920 920;" xml:space="preserve">
<g>
	<path d="M281,697.7c0,11.3,0.1,22.3,0,33.2c-0.1,13.2-5.8,23.5-16.9,30.8c-6,4-12.8,5.3-19.8,5.3c-22.1,0.1-44.2,0.1-66.2-0.1
		c-17.6-0.2-30.2-9.4-35-25.4c-0.6-1.9-0.8-3.9-0.8-5.8c-0.1-12.5,0-24.9,0-36.5c-7.2-2.9-13.9-4.5-19.5-7.9
		c-9.9-6.2-15.5-15.5-15.5-27.6c0-58.6,0.2-117.2-0.1-175.8c-0.1-14.2,11.4-30.5,27.3-33.1c6.2-1,12.5-1.1,19.3-1.6
		c3.1-8.9,6.4-18.1,9.5-27.4c6.8-20.4,13.5-40.9,20.2-61.3c9.4-28.6,18.5-57.3,28.2-85.7c7.7-22.6,15.7-45.1,29.3-65
		c13-19.1,30.2-32,53-36.4c7.1-1.4,14.4-2.1,21.6-2.1c92.9-0.1,185.8-0.2,278.7,0c19.8,0,38.7,4.3,54.7,16.8
		c14.4,11.2,24,26.1,31.9,42.3c11.9,24.8,19.4,51.1,27.9,77.1c4.6,13.9,9.3,27.8,14,41.7c10.7,32,21.3,64,31.8,96.1
		c1.1,3.4,2.6,4.5,6.2,4.7c6.7,0.4,13.8,0.5,19.9,2.8c15.3,5.7,22.4,17.9,22.5,33.9c0.1,56.6,0.1,113.2,0,169.8
		c0,21-12.7,34.7-34.8,37.4c0,10.5,0.1,21,0,31.6c-0.1,11-3.2,20.7-11.6,28.5c-7.3,6.7-16,9.2-25.5,9.2c-22.2,0.2-44.5,0.2-66.7,0
		c-13.6-0.1-24.5-6.2-31-18.1c-2.8-5.1-4.1-11.5-4.5-17.4c-0.7-11.1-0.2-22.3-0.2-33.7C512.9,697.7,397.3,697.7,281,697.7z
		 M683,453.4c-0.4-1.5-0.6-2.4-0.9-3.3c-5.9-17.8-11.9-35.6-17.8-53.4c-10.8-32.3-21.3-64.7-32.6-96.9
		c-5.2-14.9-11.6-29.4-18.3-43.6c-3.5-7.5-9.9-11.5-19.2-11.5c-93.7,0.2-187.4,0.2-281.2,0.1c-4.7,0-8.5,1.4-11.5,4.8
		c-2.7,3.1-5.6,6.3-7.3,9.9c-4.7,10.3-9.5,20.7-13,31.4c-15.3,46.3-30.1,92.8-45.1,139.3c-2.5,7.6-4.8,15.3-7.4,23.3
		C380.4,453.4,531.4,453.4,683,453.4z M166.3,575.6c-0.2,31.3,27.8,61.9,62,61.9c33.7,0,62.5-27.6,62.6-61.9
		c0.1-33-27.1-62.2-62.4-62.3C194.5,513.3,165.9,543.6,166.3,575.6z M619.4,576.5c-0.9,31.9,28.2,61.1,62.3,61.2
		c29.5,0.1,65.9-28,61.8-68.4c-2.7-26.6-27.3-56.3-62.9-55.8C646.2,513.9,619.3,541.4,619.4,576.5z"/>
</g>
</svg>
