<?xml version="1.0" encoding="utf-8"?>
<!-- Generator: Adobe Illustrator 25.2.1, SVG Export Plug-In . SVG Version: 6.00 Build 0)  -->
<svg version="1.1" id="Capa_2" xmlns="http://www.w3.org/2000/svg" xmlns:xlink="http://www.w3.org/1999/xlink" x="0px" y="0px"
	 viewBox="0 0 94.9 93.9" style="enable-background:new 0 0 94.9 93.9;" xml:space="preserve">
<style type="text/css">
	.st0{fill:#4D4D4D;}
</style>
<g>
	<path class="st0" d="M70.1,52.8c-0.4-3-2.5-5-5.7-4.8c-2.1,0.1-4.2,0-6.2,0c-0.3,0-0.7,0.1-0.7-0.3c0-0.3,0.4-0.2,0.6-0.2
		c0.9,0.1,1.8-0.1,2.5-0.8c1.6-1.5,3.3-3.1,4.8-4.7c1.2-1.2,1.1-3-0.1-4.2c-1.2-1.1-3-1.2-4.3-0.1c-1,0.8-1.9,1.5-2.9,2.4
		c-0.4,0.4-0.7,0.3-1.1,0c-0.8-0.8-1.5-1.7-2.1-2.6c-1.4-1.9-3.8-2.6-6.1-1.7c-2.1,0.8-3.6,3-3.2,5c0.9,4.5,0.9,9.2,3.1,13.5
		c-1.3,0-2.5-0.1-3.8,0c-0.8,0-1.1-0.3-1.2-1c-0.9-4.8-1.8-9.6-2.8-14.4c-1.1-5.4-5.5-7.5-10.1-6.6c-1.5,0.3-2.7,1.1-3.7,2.1
		c-0.5,0.4-0.7,0.5-0.8-0.2c-0.2-1.5-0.5-3.1-0.8-4.6c-0.4-2-2.3-3.4-4.3-3.1c-2.1,0.3-3.6,2.2-3.4,4.1c0.2,1.6,0.5,3.3,0.8,4.9
		c1.2,7.4,2.5,14.7,3.7,22.1C23.7,66,30.8,72,39.8,72c4.1,0,8.2,0,12.4,0c0.5,0,0.9,0,1.4-0.1c0.6-0.2,0.7,0.1,0.8,0.6
		c0.3,2.5,0.6,4.9,0.9,7.4c0.5,3.6,3.8,6,7.6,5.5c3.6-0.4,6.2-3.6,5.8-7.1c-0.5-3.6-1.1-7.1-1.7-10.6c-0.1-0.6-0.1-0.8,0.6-0.8
		c2.7-0.2,4.5-2.5,4-5.1C71,58.8,70.5,55.8,70.1,52.8z M52.4,69.5c-2.4,0-4.7,0-7.7,0c-2.1-0.1-4.8,0.2-7.5-0.2
		c-6.5-1-11.4-5.8-12.4-12.2c-1.4-8.9-2.9-17.8-4.4-26.7c-0.2-1,0.2-1.6,1-1.8c0.7-0.1,1.3,0.4,1.5,1.3c1.1,6.2,2.1,12.4,3.1,18.6
		c0.5,3,1,6.1,1.6,9.1c1.1,5.4,5.9,9.2,11.7,9.3c4.1,0,8.2,0,12.3,0c0.3,0,0.6,0,0.9,0c0.7,0.1,1.3,0.5,1.3,1.2
		C53.8,69.1,53.3,69.5,52.4,69.5z M64.7,81.9c-1.2,1.1-2.6,1.3-4.1,0.8c-1.5-0.5-2.5-1.5-2.7-3.1c-0.5-3.7-1-7.4-1.4-11.1
		c-0.3-2.5-1.7-3.9-4.4-3.9c-4.2,0-8.4,0-12.7,0c-3.5-0.1-6.2-1.7-8.1-4.6c-0.9-1.4-0.9-2.9-1.2-4.4c-0.9-4.8-1.7-9.7-2.5-14.5
		c-0.1-0.5-0.1-0.9-0.1-1.3c0-2.8,2-5,4.6-5.4c2.9-0.4,5.5,1.2,6.1,3.9c0.8,3.2,1.3,6.5,2,9.8c0.5,2.3,0.9,4.7,1.4,7
		c0.2,1.1,0.6,1.4,1.7,1.4c4.8,0,9.6,0,14.3,0c3.2,0,5,1.5,5.5,4.6c0.9,5.5,1.8,11,2.7,16.5C66.1,79.3,66,80.7,64.7,81.9z
		 M67.1,64.5c-0.6-0.1-0.9-0.5-1-1.1c-0.2-1.2-0.3-2.4-0.6-3.6c-0.8-3.3-3.8-5.7-7.3-5.7c-1.7,0-3.4,0-5.1,0c-0.5,0-0.9-0.2-1.3-0.5
		c-1.1-1.1-1.7-2.5-2-4c-0.5-2.9-1-5.9-1.5-8.8c-0.2-1.3,0.4-2.4,1.5-2.8c1.2-0.5,2.4-0.1,3.2,1c1,1.5,2.2,2.8,3.7,3.8
		c0.8,0.6,1.5,0.6,2.2,0c1.2-1,2.5-2,3.7-3c0.3-0.3,0.6-0.5,1-0.2c0.4,0.4,0.1,0.7-0.2,1c-1.4,1.4-2.8,2.7-4.2,4.1
		c-0.4,0.3-0.7,0.4-1.2,0.2c-0.6-0.2-1.2-0.5-1.9-0.7c-1-0.3-1.8,0.3-1.6,1.3c0.2,1.4,0.5,2.7,0.8,4.1c0.2,0.7,0.8,0.9,1.5,0.9
		c1.4,0,2.8,0,4.3,0c0,0,0,0,0,0c1.4,0,2.7,0,4.1,0c1.3,0,2.1,0.6,2.3,1.8c0.6,3.4,1.2,6.8,1.7,10.2C69.2,63.4,68.1,64.6,67.1,64.5z
		"/>
	<path class="st0" d="M33.2,30.9c5,0,9-3.8,9-8.4c0-2.6-0.8-4.6-2.6-6.3c-2.2-2.2-4.9-2.9-8-2.4c-3.4,0.5-7.4,3.6-7.4,8.5
		C24.3,27,28.2,30.9,33.2,30.9z M33.2,16.1c3.6,0,6.4,2.7,6.4,6.2c0,3.4-2.8,6.1-6.4,6.1c-3.5,0-6.3-2.7-6.3-6.1
		C26.8,18.8,29.7,16.1,33.2,16.1z"/>
	<path class="st0" d="M54.1,34.9c3.2,0.1,5.8-2.3,5.8-5.4c0.1-2.9-2.4-5.4-5.5-5.5c-3.1-0.1-5.8,2.3-5.9,5.4
		C48.4,32.3,50.9,34.8,54.1,34.9z M54.3,26.5c1.5,0,2.9,1.4,3,3c0,1.6-1.4,3-3.1,3c-1.7,0-3.1-1.3-3.1-2.9
		C51.1,27.9,52.5,26.5,54.3,26.5z"/>
	<path class="st0" d="M47,1.2C21.5,1.2,0.8,21.9,0.8,47.5S21.5,93.7,47,93.7S93.3,73,93.3,47.5S72.5,1.2,47,1.2z M47,90.7
		c-23.9,0-43.3-19.4-43.3-43.3S23.2,4.2,47,4.2s43.3,19.4,43.3,43.3S70.9,90.7,47,90.7z"/>
</g>
</svg>
