<svg id="Capa_1" data-name="Capa 1" xmlns="http://www.w3.org/2000/svg" viewBox="0 0 1205.78 278.62"><path d="M264.22,181.91l9.41,7.76c13.5,17.84,27.19,35.5,43.8,50.66l.84,4.27c-6.57,23.45-15,46.44-17.31,70.93l.14-.27c-3,.71-3.68,2.84-3.4,5.55l-1.61,4.5c-2.83,1.3-5,3-4,6.6l.11-.31c-22.59,17.46-37.44,42.36-58.92,60.89l-87.84-43.75-5.5-4.82q-1.56-1.74-3.15-3.48l.44.6-4.21-4.86.12.46c-16.81-30.24-38.82-56.9-58.87-84.9.11-1.44.21-2.87.32-4.3,15.59-19.43,30.5-39.33,42.83-61l6.21-5.31c3,.28,4.51-1.52,5.53-4l-.58.21c20.26-5,35.93-19.74,55.52-26.17C211.81,158.88,235.94,175.75,264.22,181.91Z" transform="translate(-61.7 -136.88)" fill="#210149"/><path d="M982.74,363.72c-15,2.7-27.72,6.86-37.15-5.34-4.94-6.39-9.35-2.37-14.36-.31-46,18.89-92.2,3.95-115-37C793.64,280.3,805.71,224.48,845,198.91c29.15-19,72.42-22.31,102.66,3.23,32.35,27.34,46.93,75.51,26.86,110.34C962.17,333.88,959.34,348.56,982.74,363.72Zm-88.92-63.94c15.48-3.41,28.53-3.45,37.71,10.6,7.39,11.31,12.51,5.93,17.57-2.55,14.25-23.87,9.27-60-11.43-80.93-20.48-20.67-52.46-24.56-76.69-9.32-25.27,15.89-36.76,51-26.51,81,9.44,27.64,36.2,45.47,64.43,42.67,6.9-.68,16.29-.29,19.2-6.13,3.7-7.42-6.63-10.5-10.31-15.85C903.61,313.25,895.71,310,893.82,299.78Z" transform="translate(-61.7 -136.88)" fill="#260b4d"/><path d="M568.51,365c-32.54-30.23-59.66-65.4-89.88-97.75-8-8.53-15.77-17.19-27-29.4,0,38.61.36,72.85-.3,107.08-.13,6.66,4.9,15.24-4.21,20.35-13.39-4.27-17.35-12.85-17.1-27.15.92-51,.14-102.08,0-153.12,11.08-5,14.45,5.16,19.36,10.58,33.22,36.67,66,73.71,102.31,114.38,0-39.38.62-73.67-.27-107.91-.44-17,4.79-23.51,21.66-17.33q-.25,78-.48,156.06C572.61,349.09,573.26,357.48,568.51,365Z" transform="translate(-61.7 -136.88)" fill="#260b4d"/><path d="M677.56,283c-9.43,57.39-9.33,57.38,47.61,57.91,6.19.06,13.69-3.79,18.7,3.54-4.1,13.43-12.87,16.88-26.94,17-21.51.12-43.56-5.35-64.68,3.31-6.49-2.61-3.63-8.27-3.65-12.54-.19-50.55.26-101.12-.38-151.67-.18-13.29,3.37-19,17.49-18.05,24.86,1.64,49.88-1.78,74.73,1.85,1.18,14.4-5.37,19-19.71,18.66-10.13-.2-22.27-6.09-30.81,5.16-27,5.34-11.61,26.27-13.75,40-2.25,14.39,11.19,7.6,17.94,8.76,16.49,2.84,33.88-4.55,49.93,4.18-4.31,13.35-13,17.35-27.29,17.08C703.85,277.89,689.31,271.87,677.56,283Z" transform="translate(-61.7 -136.88)" fill="#321755"/><path d="M1068.44,310.5c6.44,19.84,19,31.76,41,30.35,19.79-1.27,29.13-13.09,35.58-43.59,5.62,11.52,4.8,2.37,4.79-1.6-.07-37.05-.3-74.11-.48-111.16,14.29-4.41,22.11-2.13,21.51,15.76-1.12,33.27.15,66.61-.59,99.91-.68,30.41-16.79,54-43,62.73-25.11,8.39-48,3.48-67.12-15.41-13.68-13.52-18.42-30.69-18.58-49.26-.27-32.61.58-65.24-.48-97.83-.57-17.53,6.79-20.58,21.39-15.9-.18,36.75-.43,73.51-.47,110.26C1062.07,300.67,1060.21,307.73,1068.44,310.5Z" transform="translate(-61.7 -136.88)" fill="#260b4d"/><path d="M1267.29,274.34c0,25.65-.2,51.3.11,77,.11,9.07.31,15.85-12.52,15.56-10.94-.25-14.16-3.45-14.05-14.31.51-52,.34-104,.12-156,0-9.07,1.74-14,12.57-14.06,11.41-.08,14.17,4.51,14,14.9C1266.94,223,1267.29,248.69,1267.29,274.34Z" transform="translate(-61.7 -136.88)" fill="#210149"/><path d="M74.3,251.74c20,28,42.06,54.66,58.87,84.9-22.24-3.89-40.89-16.08-58.51-28.54C56.84,295.49,58,272.74,74.3,251.74Z" transform="translate(-61.7 -136.88)" fill="#09c8d6"/><path d="M145.47,348.74l87.84,43.75A18,18,0,0,1,234,395c-3.93,3.89-7.78,7.85-11.81,11.64C209,419,195.14,418.44,184.38,404.79,170.33,387,158.35,367.5,145.47,348.74Z" transform="translate(-61.7 -136.88)" fill="#f82f79"/><path d="M234,395a18,18,0,0,0-.73-2.48c21.48-18.53,36.33-43.43,58.92-60.89-.39,18.92-7.21,36.46-13,54C273.23,403.65,260.63,405.55,234,395Z" transform="translate(-61.7 -136.88)" fill="#09c8d6"/><path d="M264.22,181.91c-28.28-6.16-52.41-23-80.09-30.75a8.59,8.59,0,0,1-.1-2.48c38.2-17.69,38.25-17.73,66.55,15.41C255.43,169.77,259.69,176,264.22,181.91Z" transform="translate(-61.7 -136.88)" fill="#f82f79"/><path d="M301,315.53c2.3-24.49,10.74-47.48,17.31-70.93,24.16,24.23,24.47,28.27,1.59,53.17C314.06,304.09,310.06,312.61,301,315.53Z" transform="translate(-61.7 -136.88)" fill="#f82f79"/><path d="M117.45,186.41c-12.33,21.7-27.24,41.6-42.83,61C65.19,228,72,212.76,88.27,201.38,97.14,195.17,107.67,191.32,117.45,186.41Z" transform="translate(-61.7 -136.88)" fill="#f82f79"/><path d="M317.43,240.33c-16.61-15.16-30.3-32.82-43.8-50.66,14.35.74,26.3,8.28,38.25,14.76C328.31,213.33,323.56,227.09,317.43,240.33Z" transform="translate(-61.7 -136.88)" fill="#09c8d6"/><path d="M184,148.68a8.59,8.59,0,0,0,.1,2.48c-19.59,6.43-35.26,21.13-55.52,26.17,2.18-12.83,11.71-21.4,19.44-30.45C159.8,133.12,172,147.81,184,148.68Z" transform="translate(-61.7 -136.88)" fill="#09c8d6"/><path d="M430.05,185c.14,51,.92,102.1,0,153.12-.25,14.3,3.71,22.88,17.1,27.15-17.69,5.39-22.34-1.69-21.95-19.13,1.05-47.53.19-95.1.57-142.65C425.82,197.33,421.73,189.5,430.05,185Z" transform="translate(-61.7 -136.88)" fill="#210149"/><path d="M568.51,365c4.75-7.5,4.1-15.89,4.12-24.21q.18-78,.48-156.06c6.24,2.45,4.34,8,4.35,12.41.12,51.66.21,103.32-.11,155C577.31,357.46,581.83,367.86,568.51,365Z" transform="translate(-61.7 -136.88)" fill="#210149"/><path d="M1068.44,310.5c-8.23-2.77-6.37-9.83-6.37-15.74,0-36.75.29-73.51.47-110.26,9,4,5,12,5.1,18.21C1068.23,238.63,1068.24,274.57,1068.44,310.5Z" transform="translate(-61.7 -136.88)" fill="#210149"/><path d="M1149.36,184.5c.18,37.05.41,74.11.48,111.16,0,4,.83,13.12-4.79,1.6q-.46-51.46-.93-102.93C1144.09,190.18,1144.14,185.94,1149.36,184.5Z" transform="translate(-61.7 -136.88)" fill="#210149"/><path d="M689.92,208.17c8.54-11.25,20.68-5.36,30.81-5.16,14.34.3,20.89-4.26,19.71-18.66,10.36,19.55,8.1,24.75-11.5,24.89C715.93,209.34,702.92,208.56,689.92,208.17Z" transform="translate(-61.7 -136.88)" fill="#210149"/><path d="M652.25,364.76c21.12-8.66,43.17-3.19,64.68-3.31,14.07-.08,22.84-3.53,26.94-17,6,16.91.7,23.68-17.78,22.22C701.56,364.77,676.8,368.49,652.25,364.76Z" transform="translate(-61.7 -136.88)" fill="#210149"/><path d="M677.56,283c11.75-11.17,26.29-5.15,39.19-4.9,14.26.27,23-3.73,27.29-17.08,5.2,16,1.63,24.16-17.47,22.47C710.34,282.09,693.9,283.11,677.56,283Z" transform="translate(-61.7 -136.88)" fill="#210149"/><path d="M129.19,177.12c-1,2.46-2.54,4.26-5.53,4C124.73,178.69,125.22,175.49,129.19,177.12Z" transform="translate(-61.7 -136.88)" fill="#09c8d6"/><path d="M297.7,320.81c-.28-2.71.4-4.84,3.4-5.55C302.27,318.5,300.6,320,297.7,320.81Z" transform="translate(-61.7 -136.88)" fill="#f82f79"/><path d="M292.12,331.91c-1.07-3.63,1.14-5.3,4-6.6A6.33,6.33,0,0,1,292.12,331.91Z" transform="translate(-61.7 -136.88)" fill="#09c8d6"/><path d="M133.05,336.18l4.21,4.86C134.73,340.4,131.81,340.08,133.05,336.18Z" transform="translate(-61.7 -136.88)" fill="#09c8d6"/><path d="M136.82,340.44q1.59,1.74,3.15,3.48Z" transform="translate(-61.7 -136.88)" fill="#09c8d6"/></svg>