<?xml version="1.0" encoding="utf-8"?>
<!-- Generator: Adobe Illustrator 25.2.1, SVG Export Plug-In . SVG Version: 6.00 Build 0)  -->
<svg version="1.1" id="Capa_2_1_" xmlns="http://www.w3.org/2000/svg" xmlns:xlink="http://www.w3.org/1999/xlink" x="0px" y="0px"
	 viewBox="0 0 94.9 93.9" style="enable-background:new 0 0 94.9 93.9;" xml:space="preserve">
<style type="text/css">
	.st0{fill:#0088F9;}
</style>
<g>
	<path class="st0" d="M93.1,46.7c-1-3.3-2.5-6.3-5.4-8.4c-0.8-0.6-1.6-1-1.7-2.3c-0.2-2.7-1-5.2-2-7.7c-1.2-3-2.8-5.8-5.3-7.9
		c-1.9-1.6-4.2-2.6-6.9-2.6c-10.5,0.1-21,0-31.5,0c-0.7,0-1.4,0-2,0.1c-2.1,0.5-3.9,1.5-5.5,3c-1.9,1.8-3.2,4-4.3,6.4
		c-1.3,3-2.2,6.1-2.6,9.4c0,0.3-0.2,0.5-0.5,0.7c-1.3,0.9-2.5,1.9-3.5,3.2c-1.4,1.7-2.3,3.6-2.9,5.7c-1,3.8-1.1,7.6-0.2,11.4
		c0.6,2.7,1.7,5.1,3.6,7.2c0.3,0.3,0.4,0.7,0.4,1.1c0,3.1,0,6.2,0,9.2c0,0.5,0.1,0.7,0.7,0.7c3.6,0,7.1,0,10.7,0
		c0.6,0,0.7-0.2,0.7-0.7c0-1.6,0-3.3,0-4.9c0-0.5,0.1-0.8,0.7-0.8c13.7,0,27.5,0,41.2,0c0.6,0,0.7,0.2,0.7,0.7c0,1.6,0,3.3,0,4.9
		c0,0.7,0.2,0.8,0.8,0.8c3.5,0,6.9,0,10.4,0c0.7,0,0.9-0.1,0.9-0.8c0-3,0-5.9,0-8.9c0-0.6,0.2-1.1,0.6-1.5c1.4-1.6,2.3-3.4,2.9-5.4
		c0.5-1.4,0.6-2.9,1-4.3c0-1.6,0-3.3,0-4.9C93.4,49.1,93.5,47.9,93.1,46.7z M33.3,26.3c0.9-1.5,2.1-2.7,3.6-3.7
		c0.7-0.4,1.4-0.7,2.2-0.7c0.5,0,1-0.1,1.6-0.1c10.3,0,20.5,0,30.8,0c2.9,0,4.8,1.3,6.5,3.4c2.4,3.1,3.5,6.7,4.4,10.4
		c-0.7,0.1-1.3-0.1-1.9-0.1c-0.3,0-0.4-0.2-0.4-0.5c-0.1-2.2-1-4.2-2.5-5.8c-0.5-0.5-1-0.9-1.7-1.2c-1.4-0.7-2.8-1.3-4.4-1
		c-2.6,0.6-4.6,1.9-5.9,4.4c-0.5,1.1-0.9,2.2-0.9,3.5c0,0.6-0.4,0.6-0.8,0.5c-2.7,0-5.4,0-8.1,0c-7.8,0-15.6,0-23.4,0
		c-0.8,0-1.6,0.1-2.5,0.2C30.4,32.3,31.4,29.2,33.3,26.3z M31.2,58.1c-2.6,0.1-5.1-2.5-5-5.6c0.1-3,2.3-5.5,5.1-5.4
		c3,0.1,4.9,2.4,5,5.4C36.4,55.5,33.9,58.1,31.2,58.1z M70.8,57c-0.3,0-0.6,0-0.9,0c-4.6,0-9.2,0-13.8,0c-4.8,0-9.5,0-14.3,0
		c-1.3,0-1.8-0.6-1.6-1.6c0.1-0.6,0.5-0.8,1-0.9c0.3,0,0.5,0,0.8,0c9.3,0,18.6,0,28,0c1.3,0,1.7,0.3,1.8,1.2
		C71.9,56.4,71.5,56.9,70.8,57z M70.9,52.2c-0.3,0-0.6,0-0.9,0c-4.7,0-9.3,0-14,0c-4.7,0-9.4,0-14.1,0c-0.6,0-1.2,0-1.5-0.7
		c-0.4-0.8,0-1.7,0.9-1.8c0.3-0.1,0.5,0,0.8,0c9.3,0,18.7,0,28,0c0.4,0,0.7,0,1.1,0.1c0.6,0.2,0.8,0.7,0.8,1.3
		C71.8,51.6,71.5,52.1,70.9,52.2z M67.6,35.5c-0.5,0-0.6-0.1-0.6-0.6c0.3-2.1,1.2-3.8,3.2-4.6c1.9-0.8,3.8-0.6,5.4,0.8
		c1.2,1,1.8,2.4,1.9,4c0.1,0.6-0.3,0.5-0.6,0.5c-1.6,0-3.2,0-4.7,0C70.7,35.5,69.1,35.5,67.6,35.5z M80.9,58.1
		c-2.6,0-5.2-2.5-5.1-5.5c0-3.1,2.2-5.5,5-5.5c2.8,0,5,2.4,5.1,5.5C85.9,55.5,83.4,58,80.9,58.1z"/>
	<path class="st0" d="M18.7,38.2c0.2-0.7,0.7-0.9,1.5-0.8c0.8,0.2,1.1-0.2,1.2-1c0.1-0.7,0.3-1.2,1.1-1.2c0.9-0.1,1.1-0.6,0.9-1.4
		c-0.2-0.7,0-1.2,0.7-1.5c0.8-0.4,0.9-1,0.5-1.7c-0.4-0.7-0.3-1.3,0.2-1.8c0.6-0.5,0.5-1.1,0-1.5c-0.8-0.7-0.7-1.3-0.4-2.1
		c0.2-0.5,0.2-1-0.4-1.1c-1-0.3-1.2-1-1.1-1.9c0.1-0.5-0.1-0.9-0.7-0.9c-1,0-1.4-0.6-1.6-1.4c-0.2-0.7-0.5-0.9-1.2-0.7
		c-0.7,0.2-1.3,0.1-1.6-0.7c-0.3-0.7-0.8-0.9-1.5-0.4c-0.5,0.4-1,0.4-1.6,0.1c-1-0.7-1.2-0.6-1.8,0.3c-0.4,0.6-0.8,0.7-1.4,0.4
		c-0.9-0.5-1.2,0-1.4,0.7C10,20,9.6,20.4,9,20.3c-1-0.1-1.2,0.5-1.2,1.3c0,0.7-0.3,1.3-1,1.5c-0.8,0.3-0.9,0.7-0.6,1.4
		c0.3,0.7,0.1,1.3-0.5,1.8c-0.6,0.4-0.7,1-0.2,1.6C6,28.6,6,29.3,5.5,30c-0.3,0.5-0.3,0.9,0.2,1.2c0.2,0.2,0.4,0.4,0.6,0.6
		c0.3,0.4,0.3,0.7-0.2,0.9c-0.6,0.3-1.1,0.7-1.6,1.1c-0.6,0.4-1.1,0.9-1.9,0.9c-1.4-0.1-2.2,0.8-2.2,2.2C0.3,38,1,39,2,39.2
		c1,0.2,1.9-0.3,2.3-1.4c0.1-0.2,0.1-0.5,0.4-0.6c1-0.5,1.9-1.2,2.8-1.8c0.7-0.5,0.9-0.2,0.9,0.5c0,0.9,0.4,1.3,1.3,1.1
		c0.7-0.1,1.2,0.3,1.4,0.9c0.2,0.9,0.7,1,1.4,0.6c0.6-0.3,1.1-0.2,1.6,0.3c0.5,0.6,1,0.7,1.6,0.1c0.5-0.5,1-0.6,1.6-0.2
		C18,39.2,18.5,38.9,18.7,38.2z M2.4,37.9c-0.5,0-1-0.2-1-1c-0.2-0.7,0.7-0.7,0.9-1.2c0.3,0.4,1,0.5,1,1.2
		C3.3,37.6,2.9,37.9,2.4,37.9z M9.6,29.9c-0.4-2.3,0-4.4,1.7-6.1c1.9-1.8,4.4-2.2,6.4-1.2c2.5,1.3,4,5,3,7.8c-0.8,2.4-2.3,4-4.9,4.3
		c-1.7,0.2-3.3-0.3-4.5-1.7c0.7-0.7,1.7-0.9,2.3-1.6c0.1-0.1,0.3,0,0.4,0c1.4,0.6,3.2-0.4,3.4-2.1c0-0.2,0-0.4,0-0.6
		c-0.4,0.2-0.7,0.4-1.1,0.7c-0.4,0.5-1.1,0.6-1.6,0.2c-0.6-0.5-0.6-1.3-0.1-1.9c0.2-0.2,0.5-0.5,0.7-0.7c0.2-0.2,0.5-0.3,0.8-0.5
		c-1.8-0.9-3.2-0.3-3.8,1.6c-0.4,1.3-1.6,1.7-2.6,2.3C9.5,30.6,9.6,30.1,9.6,29.9z M13.2,36.1c-1.1-0.3-2.1-1-2.9-1.8
		c-0.3-0.3-0.3-0.5-0.1-0.7c0.3-0.3,0.4,0.1,0.5,0.3c2.1,2.3,6.8,2.3,8.9,0.1c3-3.2,2.8-7.9,0.2-10.8c-2-2.2-6.1-2.6-8.4-0.8
		C9.2,24.1,8,27,8.7,30.2c0,0.2,0.1,0.3,0.2,0.5c0,0.2-0.1,0.3-0.3,0.4c-0.2,0.1-0.2-0.2-0.3-0.3c-0.3-0.8-0.4-1.7-0.4-2.6
		c-0.1-2.9,2-6.4,5.1-7.4c2.8-0.9,5.7-0.1,7.6,2.3c2.4,2.9,2.6,7.6-0.3,10.8C18.5,36.1,16.1,37,13.2,36.1z"/>
	<path class="st0" d="M1.9,17.3c-0.2,0.9,0.3,1.2,0.9,1.3c0.8,0.1,1.4,0.4,1.8,1.1c0.4,0.6,0.8,0.7,1.3,0.2c0.6-0.6,1.3-0.8,2.2-0.6
		c0.6,0.2,1-0.1,1-0.7c0-1.1,0.5-1.9,1.3-2.5c0.3-0.3,0.5-0.6,0.2-1c-0.8-0.8-1-1.8-0.7-2.7c0.1-0.7-0.2-1.1-0.8-1.1
		c-1,0-1.7-0.5-2.1-1.3C6.6,9.4,6.2,9.4,5.9,9.9c-0.6,0.8-1.3,1-2.1,0.8c-0.8-0.2-1.2,0.2-1.2,1c0,0.8-0.3,1.5-1,1.9
		c-0.7,0.4-0.7,1-0.2,1.5C1.9,15.7,2.1,16.5,1.9,17.3z M5.9,12.5c1.3,0,2.3,1.2,2.2,2.6c-0.1,1.5-1.1,2.5-2.4,2.4
		c-1.4,0-2.2-1.3-2.2-2.6C3.6,13.4,4.6,12.4,5.9,12.5z"/>
</g>
</svg>
