<?xml version="1.0" encoding="utf-8"?>
<!-- Generator: Adobe Illustrator 25.2.1, SVG Export Plug-In . SVG Version: 6.00 Build 0)  -->
<svg version="1.1" id="Capa_2_1_" xmlns="http://www.w3.org/2000/svg" xmlns:xlink="http://www.w3.org/1999/xlink" x="0px" y="0px"
	 viewBox="0 0 94.9 93.9" style="enable-background:new 0 0 94.9 93.9;" xml:space="preserve">
<style type="text/css">
	.st0{fill:#0088F9;}
</style>
<g>
	<g>
		<path class="st0" d="M80,55.6c-3.1-4.4-7.1-7.9-12-10.5c-0.6-0.3-0.8,0-1.1,0.3c-1.3,1.3-2.9,2.4-4.5,3.3
			c-2.5,1.4-5.3,2.4-8.2,2.9c-4.4,0.7-8.6,0.4-12.8-1.1c-3.2-1.1-5.9-2.7-8.2-5c-0.6-0.6-1-0.7-1.9-0.2c-6.9,3.8-11.7,9.1-14.8,15.9
			c-1.2,2.7-2,5.6-2.6,8.5c-0.1,0.9,0.8,1.4,1.3,1.9c5,5.2,10.9,9.3,18,11.9c3.8,1.4,7.7,2.4,11.8,2.8c0.6,0.1,1.2-0.1,1.7,0.3
			c1.9,0,3.8,0,5.7,0c0.7-0.3,1.4-0.2,2.1-0.3c9.2-0.9,17.2-4.4,24.2-9.7c2.4-1.8,4.6-3.9,6.7-6c0.3-0.3,0.3-0.6,0.3-0.9
			C84.8,64.6,83,59.9,80,55.6z"/>
		<path class="st0" d="M29.6,34.4c1.3,3.3,3.4,6.1,6.4,8.4c4.7,3.6,10.1,5.1,16.2,4.5c4.8-0.5,9-2.3,12.5-5.4
			c5.4-4.8,7.4-10.7,6.2-17.4c-0.7-3.9-2.7-7.2-5.7-10.1c-3.4-3.1-7.4-5-12.2-5.7c-0.7-0.1-1.4,0.1-2-0.2c-0.8,0-1.7,0-2.5,0
			c0,0.1-0.1,0.1-0.3,0.1c-3.1,0.1-6,0.9-8.6,2.2c-7.5,4-11.4,9.9-11.2,17.9C28.5,30.8,28.9,32.6,29.6,34.4z"/>
	</g>
</g>
</svg>
