<?xml version="1.0" encoding="utf-8"?>
<!-- Generator: Adobe Illustrator 25.2.1, SVG Export Plug-In . SVG Version: 6.00 Build 0)  -->
<svg version="1.1" id="Capa_2" xmlns="http://www.w3.org/2000/svg" xmlns:xlink="http://www.w3.org/1999/xlink" x="0px" y="0px"
	 viewBox="0 0 94.9 93.9" style="enable-background:new 0 0 94.9 93.9;" xml:space="preserve">
<style type="text/css">
	.st0{fill:#636363;}
</style>
<g>
	<path class="st0" d="M60.6,46.5c5,1.3,9.6,3.2,13.7,6.4c4.8,3.8,8.1,8.6,10.4,14.1c0.6,1.3,0.9,2.8,1.5,4.1
		c0.9,1.7,0.5,2.9-0.8,4.3c-3.8,3.9-8.4,6.6-13.2,9c-4,2-8.3,3.2-12.7,4.4c-5.3,1.4-10.7,1.6-16,1.4c-6.1-0.3-12.1-1.6-17.6-4
		C19.7,83.5,13.7,80.4,9,75.4c-2.1-2.2-2.3-3.2-1.1-6c2.1-4.9,4.4-9.7,8.1-13.6c4.5-4.7,10-7.5,16.3-9.1c0.2,0,0.3-0.1,0.8-0.3
		c-1.3-1.8-2.5-3.5-3.7-5.2c-3.7-5.1-5.6-10.7-5.2-16.9c0.3-5.9,2.9-10.8,7.6-14.3c2.5-1.8,5.2-3.6,8-4.6c4-1.5,8.3-1.2,12.5-0.4
		c3.3,0.6,6,2.4,8.7,4.5c4.3,3.4,7.4,7.6,8.4,13c0.7,4.1,0.1,8.1-1.5,12c-1.7,4.1-3.9,7.8-6.8,11C60.8,45.7,60.7,46.1,60.6,46.5z
		 M49,85.5c4.7-0.3,11.2-1,17.6-3.6c5-2.1,9.5-4.9,13.8-8c0.7-0.5,1.3-2,1-2.6c-1.5-3.5-3-7-5.1-10.2c-2.4-3.7-6-6.3-10.1-8
		c-2.7-1.1-5.6-1.9-8.5-2.4c-2.3-0.4-3.4-1.7-2.3-3.8c1.1-2,2.3-4,3.6-5.9c2.6-3.8,4.7-7.8,5.8-12.4c0.7-2.9,0-5.2-0.5-7.7
		c-0.6-2.6-2.4-4.5-4.2-6.4c-1.9-2-4.2-3.7-6.6-4.4C47.2,8.4,41,8.4,35.6,12.7c-4.3,3.3-7.2,7.3-7.1,13c0,4.8,2.2,8.8,4.4,12.8
		c0.3,0.5,0.6,1,0.9,1.4c1.6,2.5,3.4,4.8,4.9,7.4c0.8,1.4-0.4,3-1.9,3.3c-2.4,0.5-4.9,1-7.3,1.7c-5.3,1.6-9.4,4.9-12.4,9.3
		c-1.6,2.3-2.7,4.9-4.1,7.3c-1.5,2.6-1.5,3,1.1,4.8c0.2,0.1,0.4,0.3,0.6,0.5c4.1,4,9.3,6.4,14.5,8.3C34.9,84.8,41,85.6,49,85.5z"/>
</g>
</svg>
