<?xml version="1.0" encoding="utf-8"?>
<!-- Generator: Adobe Illustrator 25.2.1, SVG Export Plug-In . SVG Version: 6.00 Build 0)  -->
<svg version="1.1" id="Capa_1" xmlns="http://www.w3.org/2000/svg" xmlns:xlink="http://www.w3.org/1999/xlink" x="0px" y="0px"
	 viewBox="0 0 396.9 396.9" style="enable-background:new 0 0 396.9 396.9;" xml:space="preserve">
<style type="text/css">
	.st0{fill:#FFFFFF;}
</style>
<g>
	<path class="st0" d="M67.7,256.2c0-3,0-5.4,0-7.8c0-42.1-0.3-84.1,0.1-126.2c0.2-23,7.4-44.2,21.3-62.5
		c23.4-30.8,54.7-48.1,93-53.4c36.8-5.1,70.9,2.6,101,23.5c24.5,17.1,42,40.4,48.9,70.4c1.2,5.3,1.5,11,1.5,16.5
		c0.1,42.1,0,84.1,0.1,126.2c0,15.2-2,13.4,13,13.2c9.2-0.1,17.4,1.9,24.4,8.1c5.5,5,9.6,10.6,9.6,18.5c-0.1,15.9-0.1,31.8,0,47.6
		c0,5.9-2.2,9-8.5,9.1c-38.8,0.4-77.7,0.9-116.5,1.3c-2.1,0-4.3-0.3-7.4-0.6c-0.2,2.5-0.7,5-0.5,7.5c2.6,26.4-23.9,46.1-46,45.7
		c-12.7-0.2-23.9-2.7-33.8-10.6c-9.2-7.3-15.2-16.4-15.5-28.4c-0.3-15-0.1-15-14.7-15c-36,0-72,0-108,0c-8.1,0-10.3-2.2-10.3-10.2
		c0-14.1,0.6-28.2-0.2-42.3c-0.8-15.2,13-30.2,30.6-30.8C55.5,256,61.3,256.2,67.7,256.2z M363.1,324.4c0-13,0-25.3,0-37.6
		c0-8.7-2.9-13.1-11.9-14.4c-8.7-1.3-17.6-1.2-26.5-1.4c-5-0.1-7.2-2-7.3-7.2c-0.3-20.7-1.1-41.4-1.2-62.1
		c-0.2-28.6-0.1-57.3-0.1-85.9c0-2,0.3-4.1-0.1-6c-4.9-23.7-15.8-43.6-34.4-59.7C254,26.4,221.9,17.8,187,21.6
		c-30.9,3.3-57.9,16.4-78.5,41.1c-14.8,17.8-23,37.9-23.3,60.8c-0.5,45.8-0.1,91.7-0.2,137.6c0,8.1-1.8,9.8-9.6,9.9
		c-6.9,0-13.9-0.1-20.8,0c-8.3,0.1-17.3,5.6-17.6,12c-0.7,13.7-0.2,27.5-0.2,41.4C145.9,324.4,254.1,324.4,363.1,324.4z M168.5,341
		c-0.8,14.7,3,26.5,16.3,33.3c13.3,6.7,26.1,4.7,37.1-4.9c8.6-7.5,9.4-17.7,7.6-28.5C209.1,341,189.1,341,168.5,341z"/>
</g>
</svg>
