<svg id="Capa_1" data-name="Capa 1" xmlns="http://www.w3.org/2000/svg" viewBox="0 0 762.55 846.4"><path d="M78.78,214.54c-.24-4.15-.24-8.33-.77-12.44-.47-3.62.79-4.53,4.29-4.51,16.49.1,33-.05,49.46-.11h12c3.83.06,7.66.16,11.49.16q56.73-.06,113.47-.16c2,.06,4,.16,6,.17H407.66c11.62,0,11.68,0,12,11.57.73,24.78,1.38,49.56,2.09,74.33.05,1.8-.31,3.69.8,5.34.05,21.58.68,43.14,2.26,64.67-.63,17.64,1.07,35.21,1.35,52.83-.06,1-.2,2-.17,3,.92,24.43,2,48.86,2.72,73.3.43,14.64.84,29.26,2.08,43.86,0,6.77-.22,13.55,0,20.32.17,4.89-.77,9.87.95,14.66-.43,13.37.76,26.7,1.14,40.05.1,5.67-.75,11.39.84,17a1.36,1.36,0,0,0,.05.91c0,1,0,2.07,0,3.1.4,17.74.39,35.5,1.37,53.2.43,7.92-.35,15.94,1.5,23.77l.09,3,.09,11v2.06a133.35,133.35,0,0,0,.9,23.72c.56,4.84-.88,7.19-6,6.39h-3.06a22.62,22.62,0,0,1-2.48-.15c-4.6-.79-6.19,1.08-5.63,5.66.38,3.1,0,6.28,0,9.42-1.48-2.47-.7-5.21-.84-7.81-.45-7.85,1.4-7.27-7.75-7.27H110.05c-3.17,0-6.34-.13-9.5,0-2.76.14-3.65-.85-3.84-3.68-1-14.76-1-29.56-1.66-44.33-.76-18.43-1.18-36.88-2-55.32-.93-22.42-1.29-44.87-2.15-67.3C90.29,557.47,89.57,540,89,522.59c-.6-19.45-1.16-38.88-2-58.32-.9-21.59-1.23-43.2-2.07-64.8q-1.07-27.41-2-54.82c-.61-18.44-1.28-36.89-1.89-55.32Q79.9,251.93,78.78,214.54Zm207,367a26.38,26.38,0,0,1-1-3.84c-1.6-15.82-22.42-27.39-38.22-18.8-8.83,4.79-11.33,12.83-12.91,21.66-2.33.07-4.65.2-7,.2-23.11,0-46.21.06-69.32-.06-3.26,0-4.85.56-4.64,4.3.64,11.27,1.08,22.55,1.42,33.84.14,4.27,1.63,5.73,6.23,5.68,25.43-.25,50.86-.09,76.3-.07a21.5,21.5,0,0,1,2.13,7.57c.44,3.55,2.16,5.81,6.36,4.82a74.82,74.82,0,0,1,8.31-1.31c13.92-1.68,27.83-3.33,41.65-5.79,3.36-.6,4.64-2,4.54-5.12,22.47-.08,44.95-.24,67.42-.14,3.79,0,4.91-1.1,4.73-4.82-.54-11.29-1-22.6-1.06-33.91,0-4-1.29-5.11-5.18-5.08-24.81.15-49.62.08-74.43.09C289.37,580.8,287.52,580.65,285.82,581.58ZM350,369c-.22-34.35-7.56-55.2-22.56-73.29C303.66,267,272.64,255.37,236.3,260c-27,3.44-48.56,17.7-63.43,40.75-14.25,22.08-18.16,46.21-12.53,72A94.32,94.32,0,0,0,182.92,417c16.78,18.4,37.23,30,62.49,32.86,15.7,1.76,30.93.55,45.55-5.09C326.41,431.06,350.61,396.84,350,369ZM260.21,547.46c34.64,0,69.27-.05,103.91.08,3.63,0,4.94-.83,4.8-4.69-.41-11.13-.15-22.27-.93-33.42-.33-4.84-1.59-5.94-6.29-5.93q-101.65.24-203.32.11c-1.67,0-3.34.08-5,0-2.66-.12-3.33,1.05-3.18,3.66.62,11.62,1.31,23.25,1.36,34.88,0,4.63,1.56,5.41,5.74,5.4C191.6,547.4,225.91,547.47,260.21,547.46Zm4,109.06h0c-21.81,0-43.62.08-65.43-.07-3.77,0-5.44.78-5.16,4.95a172.51,172.51,0,0,1,.13,17.47c-.18,4.81,1.35,6.69,6.56,6.63,24.3-.26,48.61-.12,72.92-.12q28.73,0,57.44,0c2.63,0,5.24.1,5.07-3.67-.3-6.8.11-13.59-.61-20.42-.48-4.51-2.34-4.88-6-4.85C307.53,656.58,285.89,656.52,264.25,656.52Z" transform="translate(-61.25 -48.27)" fill="#64a5fd"/><path d="M670.79,795.52a93.89,93.89,0,0,0,5.75,20.26c1.13,7.36,3.58,14.34,6.07,21.32l-31.77,5.3-9-25c.09-1.14.09-2.25-1-3l0,0a8.27,8.27,0,0,0-2.09-5.95c-.06-.33-.11-.65-.17-1a53.52,53.52,0,0,0-3.86-11,6.49,6.49,0,0,0-1.89-5.1c.17-1.72-.59-3.2-1.12-4.76q-5.64-16.54-11.23-33.12c-.54-1.38-1.08-2.75-1.63-4.12a184.08,184.08,0,0,0-8-24c-.23-1.35.32-2.92-1.1-4-.69-2-.58-4.2-2-5.9,0-.78.16-1.6-.66-2.13a228.91,228.91,0,0,0-8.32-25.94,131,131,0,0,0-6.08-20q-4-14.49-8-29c-1.1-5-2-10.13-3.87-15l-.15-1,.37.06c1.76-5.11,1.26-10.56,1.36-15.7.55-26.41,1.5-52.87-1.84-79.17-.69-5.41-1.72-11-4.26-16-.08,10.48-2,20.82-1.46,31.27a67.58,67.58,0,0,1-.29,10c-1,9.74-2.23,19.46-1.4,29.29-1.6,20.39-2.18,40.81-2.15,61.26q0,8.52-.1,17h0l-1,12.94c-1.44,1.11-1,2.71-1,4.16q0,50.48,0,100.94l.26,19.84c0,1,0,2,0,3.08q-.06,8-.11,16l-.48,26.5-29.69-.62a46.83,46.83,0,0,0-1.93-14.07l-.2-3.79a233.94,233.94,0,0,0-3-28.94c.15-2.49.61-5-.74-7.35-.39-11.29-1.88-22.47-3.29-33.65,0-3.09.51-6.21-.79-9.17-.36-7-.66-14-2.18-20.87l-.09-2c0-.67,0-1.34,0-2,.06-3.51.8-7.14-1.75-10.2l-.18-8.76v-3c-.77-10-1.14-20-2.82-29.9.22-4.73.39-9.46-1-14.06l-.21-7.07c.21-9.7-1-19.32-1.87-29q0-5,0-10v-3q0-20,0-40v-2l0-25v-3c0-2.33,0-4.66,0-7,0-1,0-2,0-3,.07-2.65.15-5.3.2-8q.66-34.84,1.3-69.68c9.32-.12,18.63-.29,27.95-.34q31.2-.17,62.41-.23c.84,3.1-.77,6.55,1.28,9.49Q613.86,477,616,496.18c.27,2.46.59,4.91.89,7.37,1,7.31,1.09,14.74,2.9,21.94-.25,2.16-.46,4.31.74,6.3.13,1.57.26,3.15.38,4.72,0,1.85-.53,3.74.67,5.43q1,7.83,2,15.64c.28,3-.31,6.09,1.12,8.94l4.35,38c.16.41.31.82.47,1.22l0,0c.5,3-.34,6.1,1.13,8.94l.36,3.79c.76,3.66-.08,7.56,1.69,11.06h0c.32,2.76-.61,5.66,1,8.27a153.35,153.35,0,0,0,3.31,19.62,4,4,0,0,0,.77,3.13,26.24,26.24,0,0,0,.22,4.45c2.29,10.5,4.67,21,7,31.48l.42,1.27,0,0a10,10,0,0,0,1.49,4.66c-.26,3.53,1.08,6.73,2.06,10a3.91,3.91,0,0,0,.91,3.06c-.15,2.82.88,5.39,1.79,8a3.69,3.69,0,0,0,1,3.11,127.54,127.54,0,0,0,6.09,23.88,17.37,17.37,0,0,0,1.92,8.12c2.52,11.41,5.71,22.63,9.12,33.8Z" transform="translate(-61.25 -48.27)" fill="#027dfb"/><path d="M78.78,214.54q1.09,37.4,2.33,74.79c.61,18.43,1.28,36.88,1.89,55.32q.9,27.41,2,54.82c.84,21.6,1.17,43.21,2.07,64.8.82,19.44,1.38,38.87,2,58.32.54,17.44,1.26,34.88,1.92,52.32.86,22.43,1.22,44.88,2.15,67.3.77,18.44,1.19,36.89,2,55.32.61,14.77.68,29.57,1.66,44.33.19,2.83,1.08,3.82,3.84,3.68,3.16-.17,6.33,0,9.5,0H412c9.15,0,7.3-.58,7.75,7.27.14,2.6-.64,5.34.84,7.81a1.3,1.3,0,0,1-.17,1l-218.87.06H87.12c-6.35,0-6.22,0-6.47-6.58-.17-4.8.62-9.64-.54-14.4-.4-1.72-.81-3.44-1.21-5.17-.75-25.05-1.4-50.1-2.28-75.15-.38-10.61-1.24-21.2-1.88-31.8.73-19.48-1.23-38.9-1.38-58.36-.06-7.49-.4-15-.71-22.45-.08-2.12.35-4.34-.77-6.35.54-16.63-1.18-33.2-1.3-49.82,0-3.65.27-7.33,0-11-1.89-26.41-1.94-52.89-2.88-79.34-.11-3.3.41-6.66-.75-9.88-.59-18.44-1.27-36.88-1.75-55.32Q64.42,305.09,63,274.2c-.88-18.6-1.12-37.23-1.76-55.84-.09-2.74.58-3.92,3.55-3.8C69.46,214.75,74.12,214.56,78.78,214.54Z" transform="translate(-61.25 -48.27)" fill="#037cfb"/><path d="M651.72,113.63c-2.14-8.89-1.15-17.52,2.09-26,12.38-21.53,32.48-31.18,55.63-36.21,23.95-5.21,47.55-4.11,70.62,4.22,16.05,5.8,30.47,14.15,38.91,29.89,9.32,17.38,4.94,36.42-11.37,50.28-15.72,13.36-34.26,19.76-54.52,21.86a43.37,43.37,0,0,0-4.34.89,164.44,164.44,0,0,1-40-2.67c-4.9-1.45-9.93-2.56-14.67-4.4C675.2,144.21,659,133.92,651.72,113.63Zm54.47-31c-18.17-.07-30.4,19.88-21.87,35.79,5,9.24,13,13.76,23.29,13,10.48-.76,17.95-6.26,21.39-16.55.8-2.42,1.78-4.57,4.8-5,3.93-.58,7.83-1.43,11.74-2.12,1.46-.26,3.71-.68,3.56,1.33-.4,5.41,4.59,5.91,7.19,8.47,3,3,6.36,2,8.15-2.06,2-4.62,4.67-5.31,8.06-1.64a5.06,5.06,0,0,0,6.21,1.42c2.21-.88,6.4-9.92,5.58-12.27s-.08-2.92,2.15-3.69c5-1.75,7.25-6,6.11-10.48-1.19-4.73-5.95-7.18-12.07-5.91-16.22,3.36-32.43,6.82-48.64,10.27-3,.65-5.25.56-7.7-2.37A23,23,0,0,0,706.19,82.6Z" transform="translate(-61.25 -48.27)" fill="#057cf9"/><path d="M653,389.56c-.12,3.66-.23,7.32-.35,11a116.49,116.49,0,0,1-20.13,35.13c-3.65,4.33-7.11,8.67-9.41,13.91-2.14,4.84-6.79,6.51-11.33,8.21-2.05-2.94-.44-6.39-1.28-9.49q0-4.85,0-9.71c1.36-2.44,4.4-3.22,5.6-5.93,3.54-8,7.54-15.8,10.75-24,3.47-8.84,4.15-17.24.17-26.28-2.49-5.65-5.88-11.12-6.6-17.5a109.43,109.43,0,0,1,20-15.4C645.8,362.49,651.21,375.45,653,389.56Z" transform="translate(-61.25 -48.27)" fill="#f68d7f"/><path d="M692.22,872.68c1.18,2.72,2.22,5.51,3.57,8.13,1.69,3.3.71,4.89-2.79,5.57-8.76,1.68-17.51,3.39-26.23,5.26-4.83,1-9.53,2.67-14.52,3-3,.2-5.41-.47-6.17-3.64s2.15-3.28,3.87-4.21c4.82-2.6,9.63-5.19,13.47-9.21,1.51-.45,1.84-1.84,2.42-3l0,0c1.81-.44,1.74-3.54,4.25-3,5.5-1.58,11.43-1.44,16.67-4.1C690.58,867.06,690.78,870.53,692.22,872.68Z" transform="translate(-61.25 -48.27)" fill="#1d2f36"/><path d="M538.74,843.35l29.69.62c.9,1,2.86-.18,3.34,2.12,1.35,6.34-.61,9.22-7,9.58l-1.18,0-17.72.05c-3.17-.72-7.33,1.25-9.37-1-1.71-1.86-1.16-5.81-1.62-8.83-.08-.48-.24-.95-.36-1.42C535.51,842.66,537.39,844,538.74,843.35Z" transform="translate(-61.25 -48.27)" fill="#1d2f36"/><path d="M650.84,842.39l31.77-5.29c4.75,1.26,3.29,5.73,4,8.73.64,2.64-2.76,1.89-4.4,2.55a13.73,13.73,0,0,1-2.9.48L662.58,853l-2.29,0-.17-.16,0,.23c-5.33,2.78-8.34.49-10.09-4.6a4.49,4.49,0,0,0-.76-1.78C646.59,844,649.22,843.39,650.84,842.39Z" transform="translate(-61.25 -48.27)" fill="#1d2f36"/><path d="M662.58,853l16.74-4.12c1.48,6.6,5.55,12.17,7.4,18.63-5.24,2.66-11.17,2.52-16.67,4.1-.18-.39-.36-.77-.55-1.15C668,864.31,663.8,859.23,662.58,853Z" transform="translate(-61.25 -48.27)" fill="#f68d7f"/><path d="M545.82,855.7l17.73-.06a2.09,2.09,0,0,0,.21.85l.07,3,0,2,.06,2.07c-.1,4-.74,8,.62,11.84l-17.63-.06c-.11-1.95-.23-3.9-.34-5.85C547.19,864.83,545.72,860.31,545.82,855.7Z" transform="translate(-61.25 -48.27)" fill="#f68d7f"/><path d="M350,369c.61,27.85-23.59,62.07-59,75.77-14.62,5.64-29.85,6.85-45.55,5.09C220.15,447,199.7,435.39,182.92,417a94.32,94.32,0,0,1-22.58-44.24c-5.63-25.77-1.72-49.9,12.53-72,14.87-23,36.45-37.31,63.43-40.75,36.34-4.65,67.36,7,91.14,35.68C342.44,313.79,349.78,334.64,350,369Zm-24.41,22.45a73.8,73.8,0,0,0,6.75-45.62c-6.07-36.68-31.16-61.95-67.87-68.93-21.78-4.15-42,.94-59.72,14.27-31.65,23.77-38.68,67.69-19.23,100.95a72.09,72.09,0,0,0,15.29,19.47c23.22,21,50,27.38,80,18.43C301.27,423.89,315.81,410.28,325.59,391.44Z" transform="translate(-61.25 -48.27)" fill="#057cf9"/><path d="M264.25,656.52c21.64,0,43.28.06,64.93-.06,3.65,0,5.51.34,6,4.85.72,6.83.31,13.62.61,20.42.17,3.77-2.44,3.67-5.07,3.67q-28.72,0-57.44,0c-24.31,0-48.62-.14-72.92.12-5.21.06-6.74-1.82-6.56-6.63a172.51,172.51,0,0,0-.13-17.47c-.28-4.17,1.39-5,5.16-4.95,21.81.15,43.62.07,65.43.07Z" transform="translate(-61.25 -48.27)" fill="#037cfb"/><path d="M236.73,624.49c.33-6.9-1.91-13.42-3.28-20-2.09-10.05.08-10.58,8-11.18,12.35-.93,24.64-3,36.87-5.08,13.16-2.23,13.39-2.3,16,10.32q2.7,13.08,5.45,26.14c.1,3.14-1.18,4.52-4.54,5.12-13.82,2.46-27.73,4.11-41.65,5.79a74.82,74.82,0,0,0-8.31,1.31c-4.2,1-5.92-1.27-6.36-4.82A21.5,21.5,0,0,0,236.73,624.49Zm27.9-23.69c-4.42,0-8.13,5.11-5.33,8.13,3.38,3.65,3.29,7.52,3.68,11.69.45,4.75,4,2.66,6.43,2.58,2.82-.09,3.4-1.46,2.39-4.16-1.3-3.47-2.57-6.82-.62-10.87C272.74,605,268.58,600.79,264.63,600.8Z" transform="translate(-61.25 -48.27)" fill="#057cf9"/><path d="M241.78,581.48c.11,1.62-.2,3.44.43,4.84,1.13,2.54.11,3.79-2.05,4.39s-3.64-.36-4.51-2.59c-1-2.45-.31-5.27-1.94-7.52,1.58-8.83,4.08-16.87,12.91-21.66,15.8-8.59,36.62,3,38.22,18.8a26.38,26.38,0,0,0,1,3.84c-.9,1.61-1.24,4-3.83,3.61-1.88-.27-3.34-1.3-3.32-3.54-.33-1.27-.64-2.54-1-3.8-2.92-10.26-11.76-15.75-22.93-14.26C247.44,564.57,241.81,572.34,241.78,581.48Z" transform="translate(-61.25 -48.27)" fill="#057cf9"/><path d="M591.65,298.28c7.86,1.11,15.76,2,23.56,3.41,6.1,1.14,9.86,5.91,13.23,10.62,6.67,9.35,10.81,20,15.24,30.49,1.72,4.09-2.34,4.43-3.27,6.72a109.43,109.43,0,0,0-20,15.4,13,13,0,0,0-3,1.58c-2.74,2.47-5.42,4.37-8.7.06-1.43,13.25-.67,25.81-.17,38.38.44,11.23.09,22.51,2,33.66q0,4.86,0,9.71-31.22.1-62.41.23c-9.32,0-18.63.22-27.95.34-2.58-15.68-3.85-31.52-5.59-47.3-.58-9.37-1.2-18.74-1.71-28.11-.08-1.49-.9-2-2.06-2.28-5.68-7.38-11.24-14.86-17.11-22.1-2.21-2.74-2.41-5.13-.62-8,2.64-4.17,5-8.51,7.87-12.54,8-11.34,16.27-22.41,29.75-28.06,2.8-1.17,6.09.15,8.46-2.21,2.93.21,5.89.77,8.67-.75C562.38,297.72,577,297.1,591.65,298.28Z" transform="translate(-61.25 -48.27)" fill="#02499c"/><path d="M608.69,222.94c.92,0,1.82-1.2,2.65-.4s.34,1.85-.27,2.69c-.29.4-.64,1.06-1,1.07-7.52,0-6.44,5.35-6.76,10.3-.27,4.22-3.75,7.2-5.74,10.77-6.22,5.57-11.52,11.81-14.52,19.78a12.51,12.51,0,0,1-4.66,6.25,14.62,14.62,0,0,0-1.48,0c-6.27.58-13.15.81-16.61-5.05s-7.08-12-3.07-20.07.16-12.31-8.28-11.19q-.45-6.92-.91-13.79c1.56-2.2-.56-2.73-1.68-3.77a21.61,21.61,0,0,1-7.07-14.33c-.18-2,.42-2.87,2.39-2.57,13.6,2.1,27.19-1.11,40.78,0,6,.49,11.86,1.47,16.54,5.73,4.52,4.12,6.68,9,4.57,15.12-.23.21-.69.55-.66.6.34.57.81.39,1.27.12Z" transform="translate(-61.25 -48.27)" fill="#1d2f36"/><path d="M548.07,223.32q.45,6.88.91,13.79c8.44-1.12,12.23,3.28,8.28,11.19s-.38,14.22,3.07,20.07,10.34,5.63,16.61,5.05a14.62,14.62,0,0,1,1.48,0c.93,5.27-.65,10.86,2.06,15.9-8.17.46-16.38-.07-24.52,1.07-.33-1.83.26-3.86-1-5.62-4.49,3.44-9.41,5.95-11.86,11-.87,1.81-2.67,1.73-4,2.52-2.37,2.36-5.66,1-8.46,2.21-13.48,5.65-21.74,16.72-29.75,28.06-2.84,4-5.23,8.37-7.87,12.54-1.79,2.84-1.59,5.23.62,8,5.87,7.24,11.43,14.72,17.11,22.1-5.85,4.36-11.87,7.47-19.25,3.33-5.82-3.26-8.23-9.09-7.34-16.57,1.55-12.95,7.58-23.95,14.58-34.51a196.55,196.55,0,0,1,37.21-41.93c.73-.61,1.69-1.46,1.76-2.27.73-8.68,2.45-17.37.3-26.08-.12-.49-.07-1.27-.35-1.42-7-3.49-1-5.6.72-8.39,2.58-4.18,2.53-9.39,5.07-13.7C544.79,227.35,545.71,224.85,548.07,223.32Z" transform="translate(-61.25 -48.27)" fill="#f68d7f"/><path d="M622.76,183.5c2,.56,4.14,1,6.11,1.73,2.49.94,4.09,2.62,3.9,5.59s-1.23,5-3.94,6.27c-3.57,1.67-7.33,1.62-11.11,1.56-3.61-1.92-8.68-2.59-7.92-8.46.53-4.09,4.77-6.41,11.46-6.62C621.76,183.56,622.26,183.52,622.76,183.5Z" transform="translate(-61.25 -48.27)" fill="#d7f1f9"/><path d="M573.05,582.24c-.83-9.83.42-19.55,1.4-29.29a67.58,67.58,0,0,0,.29-10c-.5-10.45,1.38-20.79,1.46-31.27,2.54,5,3.57,10.59,4.26,16,3.34,26.3,2.39,52.76,1.84,79.17-.1,5.14.4,10.59-1.36,15.7Z" transform="translate(-61.25 -48.27)" fill="#02499c"/><path d="M569.76,673.5q-.12,43.28-.22,86.55c0,3.14.08,6.28.13,9.42l-.15,8.65a3.36,3.36,0,0,0-.74.48q0-50.48,0-100.94C568.73,676.21,568.32,674.61,569.76,673.5Z" transform="translate(-61.25 -48.27)" fill="#057cf9"/><path d="M640.82,814.42c-3.77-.91-1.45-3.95-2.09-5.95A8.27,8.27,0,0,1,640.82,814.42Z" transform="translate(-61.25 -48.27)" fill="#d7f1f9"/><path d="M641.82,817.38c-1.39-.64-1.1-1.84-1-3C641.91,815.13,641.91,816.24,641.82,817.38Z" transform="translate(-61.25 -48.27)" fill="#d7f1f9"/><path d="M80.11,740.63Q80,751,79.82,761.38c-1.48-8.6-.94-17.27-.92-25.92C79.3,737.19,79.71,738.91,80.11,740.63Z" transform="translate(-61.25 -48.27)" fill="#7ab1fd"/><path d="M546.91,875.31l17.63.06c.94.14,2.09-.1,2.4,1.22,1.21,5.14,2.57,10.25,3.53,15.43.38,2.09-1.38,2.65-3.29,2.64q-27.4,0-54.82,0a6,6,0,0,1-3.61-1.37A4.62,4.62,0,0,1,506.7,889c.15-2.13,2.09-2,3.34-2.26,6.12-1.4,12.28-2.62,18.44-3.84a44.64,44.64,0,0,0,10.25-3.56l6.1-3.79Z" transform="translate(-61.25 -48.27)" fill="#1d2f36"/><path d="M661.27,871.86c.16-.05.4-.06.46-.17,2.78-5.19,2.78-5.19,7.77-1.27l.55,1.17c-2.51-.56-2.44,2.54-4.25,3-.76-1.12-1.61-1.54-2.73-.42.84,1,1.86.23,2.77.39-.58,1.2-.91,2.59-2.42,3C662.64,875.7,657.92,875.3,661.27,871.86Z" transform="translate(-61.25 -48.27)" fill="#64a5fd"/><path d="M544.83,875.55l-6.1,3.79c-1.11-1.07-3.63-.7-3.51-2.91.16-3.22,3.5-2.46,5.29-3.61C543.12,871.14,543.34,874.64,544.83,875.55Z" transform="translate(-61.25 -48.27)" fill="#64a5fd"/><polygon points="599.03 804.67 599.01 804.91 598.84 804.75 598.87 804.52 599.03 804.67" fill="#f68d7f"/><path d="M185.52,392.11c13.3-8,27.11-14.69,42.47-17.85a128.51,128.51,0,0,1,94.29,16.57,4.26,4.26,0,0,0,3.31.61c-9.78,18.84-24.32,32.45-44.8,38.57-30,8.95-56.76,2.57-80-18.43A72.09,72.09,0,0,1,185.52,392.11Z" transform="translate(-61.25 -48.27)" fill="#7ab1fd"/><path d="M267.77,526a7.78,7.78,0,0,1-8.17,7.57,8.46,8.46,0,0,1-7.77-8.7,7.8,7.8,0,0,1,7.85-7.35A8.52,8.52,0,0,1,267.77,526Z" transform="translate(-61.25 -48.27)" fill="#1d2f36"/><path d="M293.85,533.56a8.52,8.52,0,0,1-8.05-8.51,7.79,7.79,0,0,1,7.79-7.52,8.3,8.3,0,0,1,8.15,8.27A7.6,7.6,0,0,1,293.85,533.56Z" transform="translate(-61.25 -48.27)" fill="#1d2f36"/><path d="M225.68,517.52a8.62,8.62,0,0,1,8.13,8.32,7.88,7.88,0,0,1-8,7.71,8.53,8.53,0,0,1-8.1-8.29A7.89,7.89,0,0,1,225.68,517.52Z" transform="translate(-61.25 -48.27)" fill="#1d2f36"/><path d="M191.3,517.53a8.42,8.42,0,0,1,8.43,8.06,7.65,7.65,0,0,1-7.71,8,8.42,8.42,0,0,1-8.23-7.79A7.77,7.77,0,0,1,191.3,517.53Z" transform="translate(-61.25 -48.27)" fill="#1d2f36"/><path d="M335.79,526a7.72,7.72,0,0,1-8,7.58,8.62,8.62,0,0,1-8-8.43,7.91,7.91,0,0,1,8.1-7.59A8.51,8.51,0,0,1,335.79,526Z" transform="translate(-61.25 -48.27)" fill="#1d2f36"/><path d="M241.78,581.48c0-9.14,5.66-16.91,13-17.89,11.17-1.49,20,4,22.93,14.26.36,1.26.67,2.53,1,3.8C266.37,580.92,254.08,581.25,241.78,581.48Z" transform="translate(-61.25 -48.27)" fill="#64a5fd"/><path d="M694.86,173.58c.51,4-1.78,7.43-5.07,10.2-11.77,9.93-34.74,9.8-46.37-.17-7-6-6.61-16,.8-21.93,11.56-9.29,33.25-9.37,44.77-.15C693,164.75,694.9,168.41,694.86,173.58Z" transform="translate(-61.25 -48.27)" fill="#7ab1fd"/><path d="M556,290.37c8.14-1.14,16.35-.61,24.52-1.07l4.26.12c5.74.28,6.91,4.12,6.91,8.86-14.62-1.18-29.27-.56-43.9-.72-.72-3.74.4-6.06,4.62-5.87C553.8,291.76,554.82,291,556,290.37Z" transform="translate(-61.25 -48.27)" fill="#057cf9"/><path d="M684.47,108.5c-.07-10.73,5.58-19.06,15.42-22.08,7.64-2.34,16.71-1.1,23,7.47,1.84,2.49,3.73,3.23,6.69,2.59C745.78,93,762,89.6,778.23,86.2c1.29-.27,2.62-.33,3.93-.54,3.74-.6,7,.26,7.66,4.36.61,3.58-1.37,5.93-5.1,6.69-2.08.43-4.44,1.94-3.76,3.89,1.37,3.94-.86,6.38-2.19,9.49s-2.22,3.13-4.58,1.26c-5.34-4.22-9.53-3.39-12.32,2.57-1.2,2.56-2.16,3-4.25,1-2.47-2.33-6.13-3.36-6.2-8,0-2.42-3-2.64-5.29-2.19-4.23.85-8.41,2-12.67,2.5-4.05.43-5.8,2.17-7,6.15a21,21,0,0,1-20.87,15.33,21.65,21.65,0,0,1-20.29-15.54A36,36,0,0,1,684.47,108.5Zm6-1.28A15.33,15.33,0,0,0,706,122.68c8.82-.2,15.89-7.37,15.69-15.93a15.9,15.9,0,0,0-15.93-15.16A15.31,15.31,0,0,0,690.51,107.22Z" transform="translate(-61.25 -48.27)" fill="#057cf9"/><path d="M287.91,328.94c1.58,17.81-14.65,34.8-35.33,34-18.45-.75-34.8-16.93-34.81-36,0-19.46,14.89-34,34.48-34.35C269.86,292.24,289.23,308.58,287.91,328.94Z" transform="translate(-61.25 -48.27)" fill="#7ab1fd"/><path d="M718.64,107.34a12.53,12.53,0,0,1-12.75,12.46c-6.77,0-13.36-6.15-12.9-12.63.4-5.72,4.32-12.87,13.37-12.63C713.52,94.73,718.66,100,718.64,107.34Z" transform="translate(-61.25 -48.27)" fill="#057cf9"/></svg>