<?xml version="1.0" encoding="utf-8"?>
<!-- Generator: Adobe Illustrator 25.2.1, SVG Export Plug-In . SVG Version: 6.00 Build 0)  -->
<svg version="1.1" id="Capa_1" xmlns="http://www.w3.org/2000/svg" xmlns:xlink="http://www.w3.org/1999/xlink" x="0px" y="0px"
	 viewBox="0 0 396.9 396.9" style="enable-background:new 0 0 396.9 396.9;" xml:space="preserve">
<g>
	<path d="M201.5,161.4c32.3,0,58.6-26.3,58.6-58.6s-26.3-58.6-58.6-58.6s-58.6,26.3-58.6,58.6S169.2,161.4,201.5,161.4z M201.5,60.2
		c23.5,0,42.6,19.1,42.6,42.6s-19.1,42.6-42.6,42.6s-42.6-19.1-42.6-42.6S178,60.2,201.5,60.2z"/>
	<path d="M315.1,240.2C273.7,176,215,177.7,201.3,179.1c-13.7-1.4-72.4-3.1-113.8,61.1c-1.2,1.8-1.6,4.1-1.1,6.2
		c0.2,0.9,5.6,23.3,22.2,46.2c21.9,30.4,53.2,47.5,90.4,49.5c0.5,0.1,1.1,0.2,1.7,0.2h1.2c0.6,0,1.1-0.1,1.7-0.2
		c37.2-2,68.5-19.1,90.4-49.5c16.6-23,22-45.3,22.2-46.2C316.7,244.2,316.3,242,315.1,240.2z M281,283.2
		c-19.5,27-46.3,41.5-79.5,42.9c-0.1,0-0.2,0-0.2,0c-0.1,0-0.2,0-0.2,0c-33-1.5-59.7-15.7-79.2-42.5c-11.4-15.6-17-31.2-19-37.8
		c37.2-54.7,87.6-52,97.5-50.8c0.6,0.1,1.2,0.1,1.8,0c9.9-1.1,60.3-3.9,97.5,50.8C297.7,252.3,292.3,267.6,281,283.2z"/>
</g>
</svg>
