<?xml version="1.0" encoding="utf-8"?>
<!-- Generator: Adobe Illustrator 25.2.1, SVG Export Plug-In . SVG Version: 6.00 Build 0)  -->
<svg version="1.1" id="Capa_1" xmlns="http://www.w3.org/2000/svg" xmlns:xlink="http://www.w3.org/1999/xlink" x="0px" y="0px"
	 viewBox="0 0 305 264" style="enable-background:new 0 0 305 264;" xml:space="preserve">
<style type="text/css">
	.st0{fill:#606060;}
</style>
<g>
	<path class="st0" d="M286.2,91.4c-2.8-8.8-14.2-13.7-22.5-12.2c-3.5,0.5-7.1,1.2-10.5,2.9c-0.6,0.3-1,0.5-1.3,0.5
		c-0.2-0.3-0.4-0.9-0.8-2.1c-3.2-10.3-6.7-20.2-14.6-28.2c-12.1-12.3-28-18.6-47.5-19c-30.7-0.6-57.5-0.5-82.1,0.1
		C93.5,33.7,81.1,40.2,70,52.5c-8.1,9.1-12.7,19.9-17.1,30.3c-2.4-0.8-4.7-1.2-7-1.6c-1.4-0.2-2.7-0.5-4-0.8
		c-6.7-1.6-20.6,2.9-24.3,11.2c-3,6.6-4.1,13.5-3.2,21.3c1.1,10.7,10.7,19.7,21.3,20c-4.5,10.5-4.8,21.5-4.5,31.9
		c0.2,6.9,0.1,14,0,20.8c-0.2,10.4,4.6,19.3,12.6,23.1c5.5,2.6,5.9,5.3,5.4,11.5v0.3c0,0.2,0,0.3,0,0.5c0,0.5-0.1,1.2,0,2
		c1.4,14.9,10.3,23.5,23.9,22.9c4.7-0.2,9.1-0.4,13.4,0.1c0.7,0.1,1.3,0.1,1.9,0.1c6.6,0,10.5-4.1,13.2-7.9c4.1-5.8,5.9-12,5.7-18.9
		c-0.1-1.7-0.1-4.1,0-5.2c1.1-0.2,3.4-0.2,5.6-0.2h32.5c4.4,0,8.7,0,13.1,0c12.9,0,26.3,0,39.4-0.1c0.1,0,0.2,0,0.3,0
		c0,0,0,0.1,0,0.2c-0.4,4.4-0.4,8,0,11.4c1.3,10,4.6,17,16.5,18.4c6.6,0.8,13.4,0.5,19.9,0.2l2.8-0.1c8.2-0.4,15.8-8.2,17.9-15.3
		c1-3.6,0.9-7,0.9-10.3c0-1.3,0-2.6,0-3.9c0-0.4,0-0.8,0-1.2c0-0.5,0-1.3,0.1-1.6c0.1-0.1,0.3-0.1,0.6-0.2c2.3-0.5,4.7-2.3,7.6-5.8
		c5.6-6.6,7.3-14.2,9.1-21.6l0.4-1.5c0.6-2.3,0.2-4.5-1.1-6.3c-1.1-1.5-2.7-2.5-4.6-3c-2.8-0.8-4.8,0-6,0.7
		c-1.2,0.8-2.7,2.3-3.1,5.4c-0.7,4-1.4,8.2-2.8,12.1c-2,5.4-5.1,7.7-10.4,7.7c-23.1-0.1-46.6-0.1-69.3-0.1c-7.7,0-15.4,0-23.1,0
		H60.1c-4.8,0-7.6-1-10-3.5c-2.6-2.8-3.7-5.3-3.5-8.5c0.1-4.5,0.1-9,0.1-13.4c0-15.2,0-29.6,5.4-43.9c2.4-6.2,4.5-12.6,6.6-18.8
		c4.9-14.3,9.9-29.1,17.7-42.3c7.8-13.4,19.4-20.2,34.4-20.3c11.4,0,23,0,34.2,0s22.8,0,34.3-0.1c8.2,0,16.9,0.2,25.2,2.1
		c14.9,3.4,24.4,11.1,29.1,23.5c3.6,9.8,7.2,19.8,10.6,29.4c3.4,9.7,7,19.7,10.7,29.6c0.6,1.7,1.3,3.4,1.9,5.1
		c0.8,2.2,1.6,4.5,2.5,6.8c1,2.7,2.6,4.6,4.6,5.5c1.6,0.7,3.4,0.7,5,0c2.1-0.8,3.7-2.3,4.6-4.3c0.8-2,0.8-4.4-0.3-6.7
		c-0.4-0.9-0.8-2-1.1-3.1c-0.3-1-0.6-2-1.1-3.1c6-0.8,10.7-3.8,14.1-9.1l0.1-0.1C291.6,112.6,289.5,101.6,286.2,91.4z M213.4,216.2
		c0-0.7,0-1.3,0-2h17.4V214c2.9,0.1,5.8,0.1,8.7-0.2c0,0,0,0.1,0,0.2c-0.3,3.7-0.2,7.4,0,10.5c0.1,1,0.2,2.8-2.9,3.3
		c-7.2,1.1-14.5,0.7-21.4,0.3c-0.7-0.1-0.9-0.1-1.2-1.5C213.3,223.3,213.4,219.9,213.4,216.2z M64.8,214.8c1.1-0.5,5.4-0.5,9.5-0.5
		v0.1h17.3c0,0.5,0,1,0,1.4c0.2,5.2,0.3,9.8-2.7,13.6c-0.9,1.2-1.1,1.2-1.4,1.1h-0.1c-1.2,0-2.5,0-3.7,0c-1.1,0-2.2,0-3.2,0
		c-2.9,0-6,0-8.9-0.1c-4.4,0-6.2-1.7-6.5-6.1C64.7,220.2,64.3,216,64.8,214.8z M46.2,98.5c-1.7,4.6-3.3,9.4-4.9,14.1
		c-1.1,3.2-4.7,5.5-6.9,5.1c-2-0.3-4.2-3.2-4.2-7v-4v-0.4c-0.3-3.1-0.3-7.2,1.7-9c1.3-1.2,3.6-1.6,6-1.6c1.8,0,3.6,0.2,5.2,0.4
		c0.3,0,0.5,0.1,0.7,0.2c0.3,0.1,0.6,0.2,1,0.2c0.6,0.1,1.3,0.3,2,0.4C46.6,97.4,46.4,98,46.2,98.5z M273.2,110.1
		c0.1,2.4,0.1,4-1,5.4c-1.9,2.5-2.9,2.3-3.7,2.2h-0.1c-3-0.4-3.7-1.1-4.2-2.6c-2-6.6-4.3-12.9-6.8-18.8c0.1,0,0.2,0,0.2-0.1l0.3-0.1
		c6.6-2.2,10.9-2.5,12.8-1.1c1.3,1,2.9,4,2.5,12.2C273.1,108.3,273.2,109.2,273.2,110.1z"/>
	<path class="st0" d="M96.6,90c1.3-2.5,2.6-5.2,3.9-7.8c2.6-5.4,6.5-8.3,12.3-9.4c3.4-0.5,5.2-2.2,6-3.4c0.8-1.1,1.6-3,1-5.6
		c-0.5-2.2-1.8-4.1-3.7-5.2c-2-1.1-4.3-1.3-6.5-0.6c-7.6,2.6-15.2,6-19.8,13.4c-8.6,14-14.8,29.4-19.2,41.3c-1,3-0.9,6.1,0.5,9.2
		c3.5,7.4,8.9,10.9,17,10.9h99.8c7.2,0.2,13.5,0.2,19.5,0.2c2.4,0,4.8,0,7.2,0c6.8-0.1,12.7-3,15.8-7.9c2.9-4.6,3-10.5,0.2-16.5
		c-3.6-7.7-6.4-15.5-9.3-23.8c-0.5-1.3-0.9-2.6-1.4-4c-5.5-15.1-17.9-24-32.4-23c-6.6,0.4-13.4,0.3-20.1,0.2c-2,0-4.1-0.1-6.2-0.1
		c-6.6,0-10,2.5-10,7.3c-0.1,2.7,1,4.4,2,5.4c2.3,2.3,5.5,2.4,7.9,2.4c0.1,0,0.1,0,0.2,0h0.2c2.9,0,5.8,0,8.7,0.1
		c6.7,0.1,13.6,0.1,20.5-0.2c6.6-0.3,11,2.8,14.1,9.6c3.4,7.8,6.5,16.1,9.5,24c1,2.6,2,5.3,3,7.9c0.6,1.6,0.8,2.5,0.8,3
		c-0.5,0.1-1.4,0.3-3.3,0.3h-126c-2.1,0-3.2-0.2-3.6-0.3c0-0.5,0.2-1.5,0.8-3.4C88.5,105.7,92.6,97.7,96.6,90z"/>
	<path class="st0" d="M57.9,169.8c0.1,12,7.3,19.2,19.3,19.2h25c3.4,0,6.4-0.8,9.4-2.5c8.7-4.8,10.9-17,8.7-26.7
		c-3.2-13.7-11.6-16.7-18.3-16.9c-8.6-0.1-17.4-0.1-26.1,0c-5.1,0.1-10.2,2.4-13.7,6.3c-3.2,3.5-4.7,7.9-4.3,12.4
		c0.1,1.7,0.1,3.4,0,5.3C57.9,167.9,57.9,168.8,57.9,169.8z M73.7,159.3c1-0.6,5.5-0.5,9.9-0.4l0.6-0.1c3.9,0.1,7.9,0,11.8,0
		c1.9,0,3.9,0,5.8,0c0.3,0,0.6,0,1,0c0.2,0,0.4,0,0.7,0c2.1,1.7,2.1,3.8,1.6,8.3c-0.2,1.7-0.4,3.4-0.3,5.3c0,0.3,0,0.6-0.1,0.7
		c-0.2,0.2-1,0.6-2.8,0.7c-2.8,0.1-5.7,0-8.6,0c-2.9,0-5.7,0-8.6,0c-2.8,0-5.5,0-8.2,0c-2.8-0.1-3.1-0.4-3.2-3.1v-2.5
		C73.3,164.3,73.2,160.3,73.7,159.3z"/>
	<path class="st0" d="M201.2,189h11.5c1.6,0,3.1,0,4.6,0s3.1,0,4.7,0c1.6,0,3.3,0,4.9-0.1c7.5-0.4,12.9-4,16-10.6
		c2.2-4.9,2.2-9.7,2.1-13.9c0-0.7,0-1.5,0-2.3c-0.1-10.4-8.8-19-19.4-19.2c-8.3-0.1-16.7-0.1-25,0c-10.9,0.1-18.5,7.9-18.7,18.9v8
		C182,181.5,189.5,189,201.2,189z M197.7,159.1c0.6-0.4,2.6-0.5,5.2-0.5c1.4,0,3,0,4.5,0.1l19.5,0.1c1.7,0,2,0.3,2,1.9
		c0.1,1.9,0,3.8,0,5.8c0,1,0,2,0,3c0,3-0.4,3.6-0.5,3.7c0,0-0.6,0.4-3.4,0.4c-8,0.1-15.8,0.1-23.8,0c-3.4,0-3.8-0.4-3.9-3.9v-0.6
		C197.2,164.6,197.1,160,197.7,159.1z"/>
	<path class="st0" d="M124.2,154.7c2.4,1.2,4.6,1.2,6.6,1.2h39.5c0.3,0,0.7,0,1.1,0c0.4,0,0.9,0,1.3,0c2.3,0,5-0.3,7.1-2.2
		c1-0.9,2.2-2.7,2.2-5.5v-0.1V148c-0.1-2.9-1.3-4.7-2.3-5.7c-2.5-2.4-6.1-2.3-8.6-2.2c-0.4,0-0.7,0-1,0c-7.2-0.1-14.6-0.1-21.7-0.1
		c-5.3,0-10.8,0-16.2,0c-2.6,0-4.9,0.5-6.8,1c-3.2,0.9-5.2,3.1-5.4,6.3C119.8,149.7,120.4,152.8,124.2,154.7z"/>
</g>
</svg>
