<?xml version="1.0" encoding="utf-8"?>
<!-- Generator: Adobe Illustrator 25.2.1, SVG Export Plug-In . SVG Version: 6.00 Build 0)  -->
<svg version="1.1" id="ujgbui_xA0_Imagen_1_" xmlns="http://www.w3.org/2000/svg" xmlns:xlink="http://www.w3.org/1999/xlink"
	 x="0px" y="0px" viewBox="0 0 920 920" style="enable-background:new 0 0 920 920;" xml:space="preserve">
<g>
	<path d="M432.1,507.2c18.7-54,52.7-96.2,101-127.1c-115.5,0-231.1,0-346.9,0c0.1-1.4-0.1-2.5,0.3-3.4c9.1-24.6,18.2-49.2,27.3-73.7
		c6.2-16.7,12.2-33.5,19-50c2.8-6.8,6.6-13.6,11.5-19c5.6-6.1,13.9-7.6,22.4-7.6c105.2,0.1,210.3,0.1,315.5,0.1
		c2.7,0,5.4,0.2,8.1,0.6c12.7,2,19.3,11.1,24.1,21.7c3.8,8.5,6.6,17.4,9.8,26.2c8.7,23.4,17.4,46.7,26,70.1c0.9,2.5,2.4,3.1,5,3.4
		c14.5,1.4,29.1,3.1,43.6,5c5.3,0.7,10.5,2.2,16.2,3.5c-1.9-5.4-3.4-10.3-5.2-15c-10-26.2-20-52.4-30.1-78.6
		c-5.9-15.4-11.5-31-18.2-46c-6.9-15.5-17.3-28.4-32.7-36.7c-15.2-8.2-31.5-11.1-48.5-11.1c-103.8,0-207.6,0-311.4,0
		c-13.9,0-27.6,1.9-40.6,7.1c-11.6,4.6-21.7,11.6-29.2,21.4c-8.9,11.7-14.8,25.1-19.8,39.1c-8.7,24.7-18.5,49-27.9,73.5
		c-8.9,23.3-17.9,46.7-26.9,70c-0.5,1.4-2.1,2.9-3.4,3.2c-19.6,5.2-35.3,15.8-47.1,32.4c-11.3,15.8-16.8,33.2-16.9,52.3
		c-0.2,65.6-0.1,131.2-0.1,196.8c0,1.5,0.1,2.9,0.2,4.7c2,0,3.6,0,5.2,0c19.4,0,38.8,0.1,58.2-0.1c3.6,0,4.7,1.1,4.6,4.7
		c-0.2,17-0.4,33.9,0.1,50.9c0.3,12.5,3.1,24.5,10.9,34.6c8.2,10.7,18.4,18.6,32.6,19c18.4,0.5,30.7-9.4,39.7-24.2
		c6.6-10.9,7.9-23.3,8.1-35.7c0.3-15,0.1-30,0-45c0-2.6,0.4-4.2,3.7-4.2c20.9,0.2,41.7,0.4,62.6,0.4c48.6,0,97.3-0.2,145.9-0.3
		c1.3,0,2.5-0.2,4.4-0.3C414.4,615.3,413.5,561.2,432.1,507.2z M226.1,543.6c-16.7,7.9-38.2,5.9-54.2-7.4
		c-24.8-20.6-25.9-63,0.1-84.7c10.1-8.4,20.8-12.4,35.9-12.5c8.1-1,17.6,2.6,25.4,8.8c14.2,11.1,24,25.4,23.9,44.4
		C256.9,515.2,247.7,533.3,226.1,543.6z"/>
	<path d="M865.8,734.4c-13.8-12.5-28.4-24.1-42.7-36c-2.1-1.7-2.4-3-1.1-5.6c5-9.7,10-19.4,14.3-29.5c8.6-19.8,13-40.6,14.3-62.1
		c1.3-23.6-0.5-46.9-6.9-69.9c-9.1-32.6-25-61.5-48-86c-11.4-12.2-24.8-23-38.7-32.3c-12-8-25.7-13.7-39.1-19.1
		c-24.7-9.7-50.7-12.7-77-11c-10.9,0.7-21.9,1.9-32.6,4.3c-24.3,5.6-47.2,14.4-67.4,29.6c-14.2,10.7-27.9,21.7-39.5,35.5
		c-18.1,21.6-31.2,45.5-39.8,72.2c-6.5,20.3-9.8,41.1-9.5,62.2c0.3,15.1,2.2,30.4,5,45.3c4.9,25.9,15.5,49.7,30.5,71.2
		c8.8,12.7,19.2,24.5,30.1,35.4c16.2,16.2,36.2,27,56.6,37c6.7,3.3,14,5.5,21.2,7.6c34,10.1,68.2,10.4,102.7,2.7
		c19.9-4.5,37.8-13.1,55.1-23.4c12.3-7.3,23.8-15.8,34.2-25.8c7.5,6.1,15,12.2,22.4,18.3c8,6.6,15.7,13.5,23.7,20.1
		c9.8,8,28.4,7.9,37.3-8.2C878.1,754.1,873.5,741.3,865.8,734.4z M804,597.4c-1.5,25.3-9.1,48.6-21.6,70.3
		c-5.3,9.2-12.1,17.6-19.1,25.7c-18.2,21.2-41.5,34.4-67.8,43.4c-14.4,4.9-28.9,6.8-43.9,7.1c-13.6,0.3-27.1-1.2-40-5.5
		c-21.1-7.1-41.3-16-58.1-31.1c-12.6-11.3-24.1-23.8-32.5-38.4c-10.1-17.5-17.4-36.2-20.4-56.3c-4-26.8-2-53.1,7-78.8
		c5.6-15.8,13.8-30.1,23.8-43.7c11.8-16,26.8-27.8,43.2-38.5c19.8-12.9,41.5-18.8,64.7-20.8c29.7-2.6,57.7,2.9,83.6,17.4
		c17,9.6,32.7,21.3,45.1,36.9c14.7,18.4,25.6,38.9,31.4,61.7C803.7,563.3,805.1,580.2,804,597.4z"/>
</g>
</svg>
