<?xml version="1.0" encoding="utf-8"?>
<!-- Generator: Adobe Illustrator 25.2.1, SVG Export Plug-In . SVG Version: 6.00 Build 0)  -->
<svg version="1.1" id="Capa_2_1_" xmlns="http://www.w3.org/2000/svg" xmlns:xlink="http://www.w3.org/1999/xlink" x="0px" y="0px"
	 viewBox="0 0 94.9 93.9" style="enable-background:new 0 0 94.9 93.9;" xml:space="preserve">
<style type="text/css">
	.st0{fill:#1081DF;}
</style>
<g>
	<path class="st0" d="M47.2,93.7c0.1-0.3-0.1-0.4-0.2-0.5c-1.4-2-2.7-4-4.1-5.9c-2.5-3.2-4.6-6.7-7.1-10c-2.9-3.8-5.4-7.9-8.3-11.7
		c-2.7-3.6-5.1-7.3-7.7-10.9c-3-4.1-4.4-8.7-5.1-13.6c-1.1-7.3-0.2-14.3,2.8-21.1c2.1-4.6,5-8.6,9.1-11.7c9.3-6.9,19.5-8.9,30.7-5.6
		C63.6,4.6,68.8,8.1,73,13.1c4.2,5,6.2,10.9,7.1,17.2c0.9,6.4,0.2,12.7-2.2,18.8c-1,2.7-2.4,5.1-4.1,7.4c-2.5,3.2-4.6,6.7-7,9.9
		c-2.9,3.8-5.4,7.9-8.3,11.7c-2.7,3.5-5,7.3-7.7,10.9c-1,1.3-2,2.7-3,4.1c-0.1,0.2-0.3,0.3-0.2,0.5C47.4,93.7,47.3,93.7,47.2,93.7z
		 M47.7,43.9c6.4,0.2,11-5.4,11-10.6c0-5.2-4.5-10.8-11-10.7c-6.3,0.1-10.9,4.8-10.9,10.7C36.8,39.2,41.6,43.9,47.7,43.9z"/>
</g>
</svg>
