<?xml version="1.0" encoding="utf-8"?>
<!-- Generator: Adobe Illustrator 25.2.1, SVG Export Plug-In . SVG Version: 6.00 Build 0)  -->
<svg version="1.1" id="Capa_1" xmlns="http://www.w3.org/2000/svg" xmlns:xlink="http://www.w3.org/1999/xlink" x="0px" y="0px"
	 viewBox="0 0 572 473" style="enable-background:new 0 0 572 473;" xml:space="preserve">
<style type="text/css">
	.st0{fill:#FEF8F8;}
	.st1{fill:#364A53;}
	.st2{fill:#A6D7DE;}
	.st3{fill:#F2F2F2;}
	.st4{fill:#BCBDBF;}
	.st5{fill:#59757B;}
	.st6{fill:#E5E6E8;}
	.st7{fill:#BCBDC0;}
	.st8{fill:#58757A;}
	.st9{fill:#A2A5A9;}
	.st10{fill:#D1D2D4;}
	.st11{fill:#A8A8AC;}
	.st12{fill:#D1D2D3;}
	.st13{fill:#E5E6E7;}
	.st14{fill:#364D56;}
	.st15{fill:#A3A6AA;}
	.st16{fill:#E4E5E7;}
	.st17{fill:#ECECED;}
	.st18{fill:#364E58;}
	.st19{fill:#DDE9EA;}
	.st20{fill:#FEFEFE;}
	.st21{fill:#F8F6F8;}
	.st22{fill:#394D56;}
	.st23{fill:#FDFBFC;}
	.st24{fill:#F1F1F2;}
	.st25{fill:#384E58;}
	.st26{fill:#C9E4E8;}
	.st27{fill:#2F434A;}
	.st28{fill:#192E37;}
	.st29{fill:#18303A;}
	.st30{fill:#2F4049;}
	.st31{fill:#B5BBBF;}
	.st32{fill:#9FA9AB;}
	.st33{fill:#BBC4C7;}
	.st34{fill:#FCFDFE;}
	.st35{fill:#F7F7F9;}
	.st36{fill:#384850;}
	.st37{fill:#3D4447;}
	.st38{fill:#273339;}
	.st39{fill:#3E464A;}
	.st40{fill:#B7BCBE;}
	.st41{fill:#2B3B43;}
	.st42{fill:#C0CCCC;}
	.st43{fill:#C3CCCC;}
	.st44{fill:#526B72;}
	.st45{fill:#5A7179;}
	.st46{fill:#26363F;}
	.st47{fill:#283943;}
	.st48{fill:#8B999F;}
	.st49{fill:#A4B1B4;}
	.st50{fill:#33434A;}
	.st51{fill:#283942;}
	.st52{fill:#243943;}
	.st53{fill:#411479;}
	.st54{fill:#59757A;}
	.st55{fill:#45197A;}
	.st56{fill:#3B4448;}
	.st57{fill:#4A1C7C;}
	.st58{fill:#3A4147;}
	.st59{fill:#A5B2B5;}
	.st60{fill:#5D757B;}
	.st61{fill:#C6D7E6;}
	.st62{fill:#3C424A;}
	.st63{fill:#838A96;}
	.st64{fill:#3B4149;}
	.st65{fill:#2A3F48;}
	.st66{fill:#C7B9B9;}
	.st67{fill:#273841;}
	.st68{fill:#35474F;}
	.st69{fill:#344750;}
	.st70{fill:#27363E;}
	.st71{fill:#38464C;}
	.st72{fill:#2C464D;}
	.st73{fill:#142F39;}
	.st74{fill:#283A44;}
	.st75{fill:#B3D5D9;}
	.st76{fill:#050505;}
	.st77{fill:#D2D2D6;}
	.st78{fill:#434446;}
	.st79{fill:#A2A5AA;}
	.st80{fill:#5286ED;}
	.st81{fill:#A9A9AC;}
	.st82{fill:#D2D2D3;}
	.st83{fill:#22353E;}
	.st84{fill:#AAAAAD;}
	.st85{fill:#AAACAF;}
	.st86{fill:#061A23;}
	.st87{fill:#EAEAED;}
	.st88{fill:#E9ECED;}
	.st89{fill:#F4F6F8;}
	.st90{fill:#EAECED;}
	.st91{fill:#EBE5EC;}
	.st92{fill:#3F5F6A;}
	.st93{fill:#57767A;}
	.st94{fill:#183A46;}
	.st95{fill:#5B6F72;}
	.st96{fill:#58767B;}
	.st97{fill:#263842;}
	.st98{fill:#3C6170;}
	.st99{fill:#A1A5A9;}
	.st100{fill:#A6A7AC;}
	.st101{fill:#55757A;}
	.st102{fill:#B8C1C3;}
	.st103{fill:#005DA5;}
	.st104{fill:#D29D72;}
	.st105{fill:#57757A;}
	.st106{fill:#597579;}
	.st107{fill:#A2A4AB;}
	.st108{fill:#A5A8AB;}
	.st109{fill:#4B6069;}
	.st110{fill:#25353E;}
	.st111{fill:#22343D;}
	.st112{fill:#273238;}
	.st113{fill:#E6EAEB;}
	.st114{fill:#38525C;}
	.st115{fill:#223842;}
	.st116{fill:#2D4249;}
	.st117{fill:#B7C1C5;}
	.st118{fill:#26363E;}
	.st119{fill:#2C4E5D;}
	.st120{fill:#D8D2D1;}
	.st121{fill:#CDC3C1;}
	.st122{fill:#384F59;}
	.st123{fill:#1F3038;}
	.st124{fill:#28535B;}
	.st125{fill:#203843;}
	.st126{fill:#285259;}
	.st127{fill:#38535C;}
	.st128{fill:#38555F;}
	.st129{fill:#88959B;}
	.st130{fill:#374952;}
	.st131{fill:#33464E;}
	.st132{fill:#33444C;}
	.st133{fill:#384B54;}
	.st134{fill:#1F2F35;}
	.st135{fill:#E6E6E7;}
	.st136{fill:#D0D2D3;}
	.st137{fill:#A4A2A7;}
	.st138{fill:#E5E5E7;}
	.st139{fill:#E6E6E8;}
	.st140{fill:#D8D8D8;}
	.st141{fill:#213036;}
	.st142{fill:#AAAAAE;}
	.st143{fill:#38444C;}
	.st144{fill:#B1B5B8;}
	.st145{fill:#142C35;}
	.st146{fill:#D5DCDE;}
	.st147{fill:#0C222B;}
	.st148{fill:#34454D;}
	.st149{fill:#153440;}
	.st150{fill:#183540;}
	.st151{fill:#0C2129;}
	.st152{fill:#D7D7D6;}
	.st153{fill:#D2D2D5;}
	.st154{fill:#303E44;}
	.st155{fill:#929BA2;}
	.st156{fill:#153946;}
	.st157{fill:#A4A6AA;}
	.st158{fill:#C1DDDF;}
	.st159{fill:#C0DCDF;}
	.st160{fill:#A3A5AA;}
	.st161{fill:#BBBDBF;}
	.st162{fill:#54777B;}
	.st163{fill:#404144;}
	.st164{fill:#B6BABD;}
	.st165{fill:#B5C1C4;}
	.st166{fill:#CE8F91;}
	.st167{fill:#AFA2AD;}
	.st168{fill:#816094;}
	.st169{fill:#F8DDD6;}
	.st170{fill:#69447D;}
	.st171{fill:#55757B;}
	.st172{fill:#C2D7DE;}
	.st173{fill:#F2EBF2;}
	.st174{fill:#ECECEC;}
	.st175{fill:#A2A4A9;}
	.st176{fill:#F9F7F9;}
	.st177{fill:#717C81;}
	.st178{fill:#060506;}
	.st179{fill:#373032;}
	.st180{fill:#272C30;}
	.st181{fill:#1A161A;}
	.st182{fill:#303639;}
	.st183{fill:#3C4043;}
	.st184{fill:#6E625E;}
	.st185{fill:#272F33;}
	.st186{fill:#1F1C1F;}
	.st187{fill:#A5A5A8;}
	.st188{fill:#527074;}
	.st189{fill:#527075;}
	.st190{fill:#EAEAEE;}
	.st191{fill:#FAFBFC;}
	.st192{fill:#50686F;}
	.st193{fill:#FCFBFA;}
	.st194{fill:#C5C6C9;}
	.st195{fill:#E8E6EB;}
	.st196{fill:#D0D1EA;}
	.st197{fill:#495B64;}
	.st198{fill:#354E56;}
	.st199{fill:#A7A8AC;}
	.st200{fill:#A4A5A9;}
	.st201{fill:#A2A4A8;}
	.st202{fill:#A5A8AC;}
	.st203{fill:#A4A4A8;}
	.st204{fill:#A9ACB0;}
	.st205{fill:#A2A2A6;}
	.st206{fill:#B2B0B4;}
	.st207{fill:#A1A2A5;}
	.st208{fill:#C3C0C3;}
	.st209{fill:#35444B;}
	.st210{fill:#1D2E35;}
	.st211{fill:#34424A;}
	.st212{fill:#374951;}
	.st213{fill:#5A2393;}
	.st214{fill:#0E0C0F;}
	.st215{fill:#4D1B82;}
	.st216{fill:#1B181A;}
	.st217{fill:#582191;}
	.st218{fill:#63279D;}
	.st219{fill:#7231AC;}
	.st220{fill:#0A0A0A;}
	.st221{fill:#F6D5B5;}
	.st222{fill:#262426;}
	.st223{fill:#191618;}
	.st224{fill:#EDC49F;}
	.st225{fill:#292628;}
	.st226{fill:#FEFAFD;}
	.st227{fill:#312E2E;}
	.st228{fill:#F6D4B3;}
	.st229{fill:#E6BB98;}
	.st230{fill:#E5BE9B;}
	.st231{fill:#EDC4A0;}
	.st232{fill:#DDE0E1;}
	.st233{fill:#D6D7D7;}
	.st234{fill:#D6DBDA;}
	.st235{fill:#CAC1C0;}
	.st236{fill:#A0A1A4;}
	.st237{fill:#F8F5F7;}
	.st238{fill:#547075;}
	.st239{fill:#354D56;}
	.st240{fill:#374E57;}
	.st241{fill:#828F95;}
	.st242{fill:#3A565F;}
	.st243{fill:#3C565F;}
	.st244{fill:#324B54;}
	.st245{fill:#566F74;}
	.st246{fill:#4C7176;}
	.st247{fill:#43157A;}
	.st248{fill:#73665F;}
	.st249{fill:#FBF5F5;}
	.st250{fill:#EFF0F0;}
	.st251{fill:#D2D4D4;}
	.st252{fill:#F3D1B3;}
	.st253{fill:#7334AC;}
	.st254{fill:#E1B28B;}
	.st255{fill:#63279C;}
	.st256{fill:#D09D73;}
	.st257{fill:#F1CAA5;}
	.st258{fill:#483A30;}
	.st259{fill:#D19D73;}
	.st260{fill:#ECC29E;}
	.st261{fill:#F4D0AC;}
	.st262{fill:#C49571;}
	.st263{fill:#95715F;}
	.st264{fill:#E5D9E5;}
	.st265{fill:#E1B28A;}
	.st266{fill:#0D0B0B;}
	.st267{fill:#E2B899;}
	.st268{fill:#59767B;}
	.st269{fill:#58747A;}
	.st270{fill:#D9AA83;}
	.st271{fill:#684B42;}
	.st272{fill:#F9DABD;}
	.st273{fill:#181314;}
	.st274{fill:#382E2B;}
</style>
<g>
	<g>
		<path class="st0" d="M286.1,472.9c-93.9,0-187.9,0-281.8,0.1c-3.8,0-4.3-1-4.3-4.4C0.1,313.9,0.1,159.1,0,4.4C0,1,0.5,0,4.3,0
			C192,0.1,379.7,0.1,567.5,0c3.9,0,4.5,1,4.5,4.7c-0.1,154.6-0.1,309.1,0,463.7c0,3.6-0.6,4.7-4.5,4.7
			C473.7,472.9,379.9,472.9,286.1,472.9z"/>
		<path class="st1" d="M475,398c-2,1-4.1,2-6.1,2.9c-0.3,0.1-0.6,0.3-0.9,0.4c-0.3,0-0.6,0-1,0.1c-30.4-0.2-60.8,0-91.3-0.1
			c-1.3,0-2.7,0-4,0.3c-0.9,0.2-1.8,0.2-2.6-0.3c-1.7-2-0.6-4.1,0-6.1c11.3-37.9,22.3-75.9,33.2-114c2.5-8.8,4.5-17.8-0.4-26.7
			c-0.7-1.2-0.2-2.2,0.6-3.2c1.7-1.6,3.7-1.7,5.9-1.3c7.6,1.1,15.3,0.2,22.9,0.5c2.6,0.1,5.3-0.4,7.9,0.6c1.1,0.6,1.5,1.6,1.4,2.7
			c0.1,0.8-1,1.7,0,2.5c0.5,0.4,1.4,0.4,1.8,0c0.9-0.9-0.5-1.6-0.5-2.4c-0.4-1.7-0.3-3.3,1.2-4.6c4.4-1.5,8.9-1.4,13.4-0.1
			c1.6,1.1,1.7,2.7,1.4,4.4c0.2,0.9-1.8,2,0.1,2.7c1,0.4,1.3-0.6,1.2-1.5c0-1.8-0.5-3.7,0.7-5.3c0.4-0.3,0.9-0.5,1.4-0.7
			c6.8-0.7,13.6-0.6,20.3,0.7c8.8,1.8,15.7,8.5,17.2,17.1c-0.6,3.5-0.7,7,0.1,10.5c-1.3,12.9-3.2,25.7-6.5,38.3
			c-3,1.4-0.2,3.5-0.5,5.2c-0.8,6.4-1.4,12.9-3.7,19.1c-0.2,0.6-1.7-0.5-1.2,1c0.4,1.3,0.7,2.6,0.8,3.9c-0.5,4.5-0.6,9.1-2.7,13.2
			c0,1-2-1.3-1.3,0.8c0.3,1,0.6,2.1,0.8,3.2c0.1,0.9,0,1.7-0.8,2.3c-1.6,1.7,0.3,3.4,0,5.1c-0.9,7.4-2,14.7-3.7,21.9
			C479.4,394.1,478,396.7,475,398z"/>
		<path class="st1" d="M106.1,401c-0.3-0.2-0.6-0.2-0.9-0.3c-7.8-0.6-10.2-6.4-12.2-12.6c-1.1-6.2-2.6-12.3-2.9-18.5
			c0.1-2,1.9-3.5,1.4-5.5c-0.2,0.7,0.4,2-1.3,2c-1.7-1.2-1.7-3.1-1.9-4.9c-1.2-7-2.7-13.8-3.3-20.9c0.1-1.3,0.5-2.5,1.1-3.6
			c0.8-1.7-0.6-0.2-0.8-0.5c-1.1-0.7-1.2-1.7-1.1-2.8c0.1-0.8,0.4-1.6,0.7-2.4c0.2-0.4,0.7-0.7,0.2-1.2c-0.3,0.5-0.7,0.4-1.2,0.3
			c-1.9-2.6-1.8-5.6-1.9-8.5c0.1-1.8,1.7-3.2,1.3-5.4c0,1.1,0.2,2.1-1.2,2c-1.9-1.4-1.7-3.5-2.1-5.4c-2.1-12.3-4.2-24.6-6.2-37
			c-1.9-12.2,6-23.4,18.2-25.8c2.9-0.6,5.8-1.6,8.9-1.1c0.5,0.1,1,0.3,1.5,0.5c0.2,0.2,0.4,0.3,0.6,0.5c0.2,0.5,0.2,1-0.2,1.4
			c-1.4,0.5-2.9,0-3.8,0.3c-0.1,0.1,0.1,0,0.5,0c1.2,0,2.3,0.1,3.5-0.1c2.1-1.2,4.7-0.3,6.9-1.3c0.9-0.4,1.8-0.5,2.6,0.2
			c1.1,1.1,1.3,2.6,2.2,3.8c2.1-0.1,0.7-2.3,1.8-3c0.3-0.4,0.7-0.6,1.1-0.7c1.6,0,3.2,0.5,4.6-0.4c0.8-0.5,1.6-0.4,2.5,0
			c1.8,1,3.7,0.4,5.6,0.4c0.5,0.1,0.8,0.3,1.1,0.7c0.5,0.9,0.5,1.7,0.3,2.7c-0.1,0.8-1.2,1.6-0.2,2.5c0.5,0.4,1.3,0.5,1.7,0
			c0.5-0.5-0.1-1.1-0.1-1.7c-0.1-1.4,0.2-2.7,1.6-3.4c10.2-1.4,20.4-0.3,30.5-0.6c2.4,0,4.7,0.4,6.7,2c0.4,0.6,0.4,1.3,0.1,1.9
			c-4.5,7.1-4,14.5-1.8,22.1c10.2,36.9,21.1,73.6,31.9,110.3c0.8,2.9,1.7,5.7,2.4,8.6c0.5,1.9,1,4-1.3,5.3c-1.8,0.6-3.6,0.5-5.4,0.5
			c-29.9,0-59.9,0-89.8,0C107.3,401.3,106.7,401.2,106.1,401z"/>
		<path class="st2" d="M490,173.1c10.1-20.4,20.3-40.8,30.4-61.2c0.5-1,1.1-2.1,1.5-3.1c5.3-11.7,4.1-10.1,12.7-2.1
			c16.9,15.6,25.3,35.8,29.3,58.1c1.9,10.3,2.7,20.7,2.7,31.2c0.1,10.6-1.3,21.2-2.7,31.7c-0.6,4.7-3.5,2.6-5.5,2
			c-10-3-19.9-6.4-29.8-9.5c-13.6-4.3-27.1-8.5-40.7-12.8c0.2-0.2,0.4-0.5,0.5-0.7c3.7-1.7,7.5-0.8,11.3-0.9
			c5.8-0.2,11.7,0,17.5-0.1c1.6-0.1,3-0.6,3.9-2.1c0.8-8.2,0.3-16.5,0.3-24.7c0-1-0.5-1.9-1.1-2.7c-1.7-1.7-3.9-1.6-6-1.6
			c-6.2,0-12.5,0-18.7,0C493.7,174.4,491.7,174.6,490,173.1z"/>
		<path class="st2" d="M81.1,210.1c-11.6,3.8-23.2,7.6-34.8,11.3c-10.6,3.4-21.2,6.6-31.8,10c-5.7,1.8-5.6,1.8-6.6-4
			c-2-11.6-3.3-23.4-2.7-35.1c1.2-24.6,5.6-48.5,19.9-69.3c4.9-7.1,10.8-13.4,17.5-18.9c2.1-1.7,3.2-1.5,4.4,1
			c9.3,19,18.7,38,28.1,57c2.1,4.3,4.8,8.3,5.8,13.1c-1.1,1.1-2.4,1-3.8,0.8c-2.6-0.8-5.1-0.7-7.7,0.1c-5.3,0.7-10.7-0.1-16,0.5
			c-0.8,0.4-1.8,0.7-2.2,1.6c-0.2,0.5-0.4,0.9-0.5,1.4c-0.4,7.7-0.1,15.4-0.1,23.1c0,2.3,0.7,3.8,2.9,4.4c7,0.8,14,0.1,21,0.4
			C76.9,207.7,79.6,207.5,81.1,210.1z"/>
		<path class="st3" d="M463,208c2.3,1.8,5,0.6,7.5,0.9c1.8,0.3,4-0.8,5.4,1.2c-0.7,0.7-1.6,1-2.6,1.1c-13.6,0.2-27.1,0-40.7,0.1
			c-2.6,0-5.3-0.1-7.9,0c-1.9,0.1-3.8,0.5-5.7,0.6c-16.9-2.4-34-2.4-51-3.9c-3.4-0.3-4.8,1.2-5.5,4.3c-0.7,3.4-0.2,7-2.5,10
			c-1.5,0.9-3,0.9-4.6,0.4c-2-1-2-2.9-1.8-4.7c0.2-2.3,0.6-4.6,1-6.9c0.4-2.4-0.1-3.8-2.9-3.9c-4-0.1-7.9-1-11.9-1
			c-16.3,0.3-32.5-0.4-48.8-1c-7.8-0.3-7.8-0.3-7.6,7.3c0,1.2-0.1,2.3,0.1,3.5c0.6,3.6-1.1,5.3-4.5,5.6c-0.8,0-1.5-0.1-2.2-0.6
			c-2.2-3.4-2.1-7.3-2.1-11.1c0.1-3.2-1.1-4.6-4.4-4.3c-2.6,0.2-5.3,0-8-0.1c-13.8-0.3-26.3-11.6-28.2-25.2
			c-0.8-5.9-2.1-11.8-2.5-17.8c-0.1-2-0.3-4.3-2.6-5c-3.2-0.9-6.7-1-9.7,0.5c-1.9,0.9-0.9,3.4-0.5,5.1c1.6,7.2,2.5,14.4,3.9,21.6
			c0.3,1.8,0.8,3.6-0.4,5.3c-2.9,1.4-5.6,1.6-7.4-1.8c-2.6-8.5-2.8-17.4-5.1-25.9c-0.8-3.2-2.2-4.3-5.5-4.2
			c-5.1,0.2-10.3,0.1-15.4,0.5c-3.4,0.3-5.9-0.5-7-4c-0.5-0.9-0.7-1.9-0.4-2.9c2.6-1.9,5.7-0.9,8.6-1.1c4.3-0.3,8.7,0,13-0.4
			c2.7-0.3,4-1.1,3.4-4.1c-1.6-8.5-3.7-16.9-5-25.5c-0.3-2.1-1.7-3.1-3.8-3.2c-7.4-0.5-14.6,1-21.9,1.3c-2.6,0.1-2.3,1.8-1.8,3.6
			c1.7,6.3,3.1,12.6,4.9,18.9c0.7,2.5,2,5.1,0.4,7.7c-4.6,0.6-8.4-1.8-12.3-3.6c4.1-3,1.8-6.7,0.9-10.1c-1-3.8-2.2-7.7-3.2-11.5
			c-0.7-2.8-2.4-4.1-5.4-3.9c-10.3,0.6-20.5,2.1-30.8,2.6c-2.5,0.1-3.3,1-2.4,3.4c3.2,8,5.7,16.3,9.6,24.1c0.5,0.6,0.8,1.3,0.8,2.1
			c-2.5,4.8-5.3,9.5-10.4,12.2c-9.2,1.1-18.4,2.1-27.6,3.2c-2.4,0.3-4.9,1-7.3-0.2c-0.7-2.2-2.8-3.7-3.1-6.1c4-1.8,8.4-1.7,12.7-2.2
			c7.9-0.8,15.8-2.1,23.7-2.7c3-0.2,3.1-1.3,2.1-3.8c-3-7.2-6-14.4-8.6-21.8c-2.3-6.5-2.8-6.7-9.9-6c-12.1,1.2-24,3-36.1,4.4
			c-1.3-2.3-2.7-4.7-4-7c7.3-2.6,15-2.4,22.6-3.3c21.1-2.4,42.3-5,63.5-6.5c6.2-0.4,6.5-1.2,5.1-7.1c-1.2-4.8-3.5-9.4-4.3-14.3
			c-0.3-1.6-1.1-3.2,0.1-4.8c2.6-1.2,5.4-0.4,8-1c3,6.5,4.2,13.6,6.1,20.4c1.2,4.3,3.5,5.6,7.5,5.2c5.8-0.6,11.5-1.1,17.3-1.1
			c1.4,0,3.2,0.2,4-1.4c0.9-1.9-0.6-3-1.9-4.1c-0.5-0.4-0.9-0.9-1.1-2.1c4.5-1.7,9.1-1.6,13.8-0.3c0.4,0.3,0.6,0.8,0.6,1.3
			c-1.4,4.8-0.8,6,3.9,5.7c11.4-0.7,22.8-1.1,34.3-0.9c2.2,0,3.9-0.6,4.1-3.2c0.1-0.7,0.3-1.4,0.6-2c0.6-1.1,1.7-1.4,2.7-1.9
			c0.5-0.3,1.1-0.7,1.5-1.2c0.5-0.5,0.9-1,1.3-1.5c0.7-0.8,1.4-1.5,2.5-0.5c0.5,0.7,0.8,1.5,0.9,2.3c1.1,7,1.1,7.1,8.5,7
			c18.6-0.3,37.3,0.5,55.9,1c8.3,0.2,8.3,0,9-8.1c0.3-3.6,1-7.2,1-10.9c0-3.1-0.8-5.1-4.4-5.3c-1.3,0-3.2-0.1-3.2-2.3
			c5.7-0.3,11.4,0.3,17,1c2.1,4.2-0.3,8.4,0,12.6c0.1,1.3-0.4,2.6-0.6,3.9c-0.9,8.7-0.9,8.7,7.7,10c1.6,0.2,3.3,0.3,4.4,1.8
			c0.7,1.5,0.7,3.1-0.1,4.6c-2.5,2.3-5.7,1.7-8.6,1.4c-14.4-1.5-28.9-0.2-43.3-1.4c-4.7-0.4-5.1,0.4-5.3,5.4
			c-0.2,4.3,1.4,9.1-3,12.5c-1.6,0.8-3.2,1.4-4.9,0.7c-1.4-1-1.6-2.5-1.7-4c-0.6-4.4,1.9-10-1.2-13c-2.9-2.8-8.3-0.8-12.6-0.9
			c-12.7-0.3-25.3-0.1-38-0.1c-5.8,0-11.5,1.6-17.4,1.1c-10.2,0.4-10.3-1.6-8.1,10.2c1.1,5.9,2.4,11.7,3.3,17.6
			c0.6,3.8,2.4,5.6,6.4,4.8c3.9-0.8,7.9-0.8,11.9-0.6c14.1,0.6,28.1-1.5,42.2-1c3.8,0.1,7,0.6,7.5,5.3c0.1,0.9,0,1.8-0.4,2.6
			c-3.3,5-1.9,10.7-1.6,15.9c0.5,6.8,0.7,13.5,0.8,20.3c0.1,5.3,0.5,5.8,5.6,5.9c10.4,0.1,20.9-0.3,31.3,0.3
			c4.8,0.3,3.6-3.9,5.3-5.9c2.1-1.5,4.4-1.4,6.7-0.5c0.6,0.3,1,0.8,1.1,1.5c1.1,5.9,1.2,6.1,7.2,5.8c6.2-0.4,12.4,1.8,18.6,0
			c0.8,0,1.6,0.2,2.3,0.5c2.5,1.9,5.5,1.5,8.4,1.6c7.1,0.1,14.1-0.3,21.2,0.2c2.2,0.8,4.5,0.7,6.7,1.1c6.4,0.2,12.9,3.4,19.4,0
			c1.4-0.7,3.2-0.5,4.8,0.2c0.5,0.2,0.8,0.6,1.1,1.1c10.7,2.6,21.7,2.9,32.6,3.3C457.6,206.6,460.6,205.8,463,208z"/>
		<path class="st4" d="M102.1,250c-7,0.9-13.9,0.6-19.8,6.4c-5,5-7.9,10.5-7,17.1c2.1,15,5,30,7.6,45c1.1,0.7,0.7,1.6,0.3,2.6
			c0.4,3.1,0.6,6.3,1.7,9.3c1.1,0.8,0.7,1.7,0.3,2.6c-0.1,1.2-0.1,2.4,0.7,3.4c1,0.8,0.7,1.7,0.2,2.6c1.4,9.1,2.6,18.3,4.8,27.3
			c1,0.8,0.7,1.7,0.2,2.7c1,6.6,2,13.3,2.9,19.9c0.4,2.4,1.2,4.6,2.8,6.7c0.9,1.1,2.4,2.5,1.2,4.4c-12.8-2.2-21.8-9.8-27-21.2
			C54.6,341.9,38.5,305,22.2,268.1c-0.1-0.3-0.1-0.6-0.2-1c1.2-2.2,3.4-2.5,5.4-3.2c20.3-6.6,40.3-13.9,60.6-20.5
			c2.9-0.9,5.7-2,8.8-1.7c1.7,0.2,3.3,0.6,4.7,1.4c0.5,0.3,0.9,0.7,1.2,1.2C103.6,246.3,103.5,248.2,102.1,250z"/>
		<path class="st4" d="M491.2,316.2c2.9-13,4.8-26.1,6.7-39.3c-0.3-3.3-0.1-6.6-0.1-9.9c-1.6-9.5-10.7-16.8-23.4-16.9
			c-4.8,0-9.6-0.1-14.4-0.1c-0.8-2.5-0.8-5.2-1.5-7.7c0.3-0.4,0.7-0.6,1.2-0.6c4.1,1.6,8.4,0.8,12.7,0.8c2.3-0.2,4.4-1.3,6.7-1.3
			c11,2.8,21.5,6.9,32.3,10.4c12.9,4.2,25.6,9.1,38.6,12.8c-4,9.3-8,18.6-12.1,27.8c-12.6,28.4-25.2,56.9-37.8,85.3
			c-4,9.1-10.8,15.5-19.9,19.3c-1.7,0.7-3.4,1.4-5.3,1.2c6-6.9,4.8-15.8,6.9-23.8c0.5-2,0.6-4.2,0.9-6.3c-0.2-1.3-0.8-2.6,0.4-3.6
			c0.2-0.8,0.4-1.6,0.6-2.3c-0.3-1.2-0.9-2.5,0.4-3.5c1.4-4.7,2-9.6,2.6-14.5c-0.2-1.2-0.8-2.6,0.4-3.6c1.7-6.7,2.8-13.5,3.6-20.4
			C490.5,318.6,489.9,317.3,491.2,316.2z"/>
		<path class="st5" d="M403,252c-0.2,3.3,2.7,5.3,3.1,8.5c0.9,6.5,0.2,12.9-1.6,19.1c-9,31.6-18.3,63.1-27.5,94.6
			c-2.6,8.9-5.3,17.8-8,26.7c-7.7,1.3-15.3,0.7-23,0.3c-0.3-0.1-0.6-0.2-0.9-0.3c-0.2-0.3-0.4-0.5-0.3-0.8c0-0.3,0-0.5,0.1-0.5
			c2.5-4.4,3.1-9.4,4.7-14c1.3-3.6-2.3-6.1-2.2-9.4c0.8-0.8,0.8-2.1-0.2-3c-1-0.9-1-2-0.6-3.2c1.8-5.2,1.5-4.8-3.3-7.1
			c-2.5-1.2-4.9-3.2-7.2-5.1c-0.3-0.4-0.5-0.8-0.5-1.3c0.2-1.1,1.2-2,0.8-3.2c0.3-0.6-0.1-0.4-0.1-0.2c0.3,2.7-1.3,2.3-3,1.6
			c-5.4-5.5-10-11.9-15.9-17c-1.1-1-1.3-2.3-0.3-3.6c1.8-1.8,4.1-1.6,6.4-1.5c13.3-0.3,26.6-0.1,39.9-0.3c2.1-0.6,2.6-2.4,3.1-4.2
			c3-10.2,6-20.4,9.1-30.5c2.9-9.1,5.4-18.4,8.2-27.5c1.4-4.7,4.1-8.6,7.1-12.4c2.5-2.5,5.4-4.4,8.5-5.9
			C400.6,251.5,401.8,251,403,252z"/>
		<path class="st6" d="M155,86.1c2.1,7.6,4.2,15.2,6.5,22.8c1,3.2,0,4-3.1,4.3c-14.1,1.2-28.2,2.5-42.3,4
			c-14.2,1.5-28.5,3.3-42.7,5.2c-1.9,0.3-3.5,0.1-5.3-0.2c-2.5-6.7-6.1-12.8-9.6-18.9c-1.1-1.9-1.7-3.9-2.7-6.3
			c13-1.6,25.6-3.3,38.1-4.7c14.9-1.7,29.9-3.4,44.8-4.9C144.1,86.6,149.6,86.4,155,86.1z"/>
		<path class="st6" d="M328,81.1c0.3,0.2,0.5,0.5,0.8,0.6c2.5,1.2,6.7-1.3,7.7,1.6c1.2,3.4,0.4,7.5,0.4,11.4c0,1.1-0.7,2.2-0.8,3.4
			c-0.2,3.6,0.9,8.1-1.7,10.3c-2.6,2.1-7.1,0.8-10.7,0.6c-20.1-0.7-40.2-1.5-60.2-0.6c-2.8,0.1-3.3-1.3-3.4-3.6
			c-0.2-2.6,1-5.3-0.9-7.7c-2.3-5.3-2.2-10.7,0-16C282,81.1,305,81.1,328,81.1z"/>
		<path class="st7" d="M279.3,400.7c-4.8,0-9.5,0.1-14.3,0.1c-1.8-1.9-1.6-4.3-1.6-6.6c0-8.8-0.2-17.6,0.2-26.3
			c0-2.2,0.9-4.1,1.7-6.1c2.7-7.3,3.2-14.7,0.7-22.2c-0.4-1.1-0.7-2.1-1-3.2c-0.6-4.7-1.7-9.3-1.4-14c0.4-4.9,0.1-9.7-1.9-14.4
			c-1-2.5-1.7-5.3-1.3-8.1c2.8-4.3,8-4,11.9-6c1.3-0.6,2.8-0.7,4.3-1.1c1.8-0.4,3.6-1.2,5.4-0.3c1.5,1.4,3.2,2.7,3.2,5.2
			c-3.3,2.9-7.2,0.3-10,1.3c3.4,0.5,7.7-0.8,11.9,0.7c0.6,0.6,0.9,1.3,1.1,2.1c0.2,1.4,0.2,2.8,0.3,4.2c-0.1,1.9,0,3.9-0.4,5.8
			c-0.5,2.1-0.6,4.2-0.6,6.4c-0.1,1.9,0,3.8-0.4,5.7c-0.9,2.6-0.5,5.4-0.6,8.1c-0.1,1.4-0.1,2.8-0.4,4.1c-1.2,5.6,0.2,11.5-1.9,16.9
			c-0.8,2.8-4.9,3.4-4.7,6.6c0.2,3.3,4.1,3.4,5.9,5.5c0.7,0.8,0.9,1.7,1,2.7c-0.9,9.7-3.2,19.2-4.7,28.8
			C281.2,398.2,280.9,399.8,279.3,400.7z"/>
		<path class="st6" d="M72.1,129c2.7-3.9,7.1-2.1,10.6-2.7c10.2-1.7,20.6-2.3,31-3.5c2-0.2,2.9-0.1,3.6,2c4,10.5,8.1,20.9,12.4,31.8
			c-13.6,1.7-26.9,3.3-40.2,4.9c-0.4,0.1-0.9-0.4-1.4-0.6C82.7,150.4,77.4,139.7,72.1,129z"/>
		<path class="st6" d="M356,110.1c-3.7-0.3-7.5-0.8-11.2-0.7c-2.5,0.1-2.7-0.9-2.5-2.9c1-8.1,1.8-16.3,2.7-24.4
			c20.7,0,41.3,2.2,62,3.2c14.3,0.7,28.6,2.5,42.9,3.8c3,3.5-0.4,5.4-2,7.8c-2.4,2.1-5.3,1.6-8.1,1.6c-23.4,0.1-46.8-0.1-70.1,0.1
			c-0.3,0.4-0.6,0.7-1,1C361.9,99.9,358.1,104,356,110.1z"/>
		<path class="st1" d="M478.9,242c-2,0.7-3.8,2.1-6,1.9c-2.2-0.9-4.5-0.4-6.8-0.4c-2.5,0-5,0-7.2-1.6c0,0.2,0.1,0.4,0.1,0.6
			c-1.1,0.7-1.5,2.1-2.9,2.5c-3.9,0.8-7.9,0.7-11.8,0.1c-1.9-2-4.2-1.2-6.4-0.8c-2.8,0-5.7,0.6-8.5-0.6c-1.7-2,0.2-3,1.2-4.1
			c8.2-8.8,9-13.5,3.8-24.5c-0.5-1.1-1.1-2.1-0.8-3.3c0.7-1.3,1.7-1.2,2.9-0.8c11.7,0.4,23.4,0.2,35.1,0.2c0.9-0.1,1.7-0.4,2.4-0.8
			c0.7,0,1.3,0,2,0.1c1.6,1,3.2,2,4.9,3c3,1.8,4.1,4.6,4,8c-0.6,3.8-0.7,7.6,0,11.5C485.2,237.3,483,240.2,478.9,242z"/>
		<path class="st4" d="M17.9,258.1c-2.2-4.8-4.2-9.7-6.5-14.5c-1.3-2.7-1.2-4,2-5c22.3-7.1,44.5-14.4,66.9-21.4
			c3.9-1.2,7.7-3.3,11.9-3.2c0.7,1,0.2,1.8-0.5,2.5c-2.5,2.3-2.4,5.3-2.2,8.2c0.3,4.2-0.5,7.6-4.2,9.9c-1.3,2-3.6,2.2-5.6,2.9
			c-16.3,5.5-32.6,10.8-49,16C26.3,255.1,22.1,256.6,17.9,258.1z"/>
		<path class="st4" d="M483.8,221.1c0.3-3.1-2.1-5.2-3.1-7.9c4.3,0,8,2,11.9,3.3c21.6,6.8,43.2,13.8,64.9,20.6
			c3.1,1,4.6,1.9,2.7,5.5c-2.4,4.3-4.2,9-6.2,13.5c-2.4,0.4-4.6-0.6-6.7-1.3c-19.5-6.5-38.9-13-58.5-19.3c-2.3-0.7-4.3-1.7-5.3-4.1
			C483.6,227.9,483.1,224.5,483.8,221.1z"/>
		<path class="st1" d="M91.1,216c0.4-0.6,0.7-1.3,1.1-1.9c2-1.3,3.9-2.7,5.9-4c0.6-0.7,1.3-0.7,2.1-0.5c0.5,0.2,1,0.4,1.4,0.7
			c4.9,0.9,9.8,0.2,14.8,0.4c1.8,0.1,3.5-0.5,5.2-0.4c2.1,0.4,4.2,0.7,6.3,0.2c0.5-0.1,0.9-0.1,1.4,0c2.3,0.5,4.6,0.5,6.9-0.2
			c1-0.2,2-0.2,3,0.1c0.5,0.2,0.9,0.5,1.2,0.9c-0.2,3.6-2.9,6.3-3.5,9.8c-1.2,6.6-0.3,12.5,5,17.3c1.1,1,3,1.9,2.3,4
			c-1.9,1.6-4.5,0.7-6.6,1.6c-1,0.3-2,0.4-3,0.4c-0.7,0-1.5,0-2.2,0c-0.7,0-1.4-0.1-2.1-0.2c-0.5-0.1-0.9-0.2-1.3-0.3
			c-2.4-0.7-4.8-0.8-7.2,0c-0.4,0.2-0.8,0.3-1.3,0.5c-1.6,0.6-3.2,0.6-4.8-0.1c-0.4-0.1-0.9-0.3-1.3-0.4c-3-0.7-6-0.6-9,0.1
			c-1.4,0.7-2.8-0.6-4.2,0.1c-1.5,0.3-2.7-0.6-4-1c-5.1-1.3-7.2-3.7-7.8-9.3c0.2-0.7,0.5-1.4,0.8-2c0.8-3.3,1.6-6.5,0.3-9.9
			c-0.4-0.6-0.7-1.2-0.9-1.9C89.5,218.3,89.9,217,91.1,216z"/>
		<path class="st4" d="M91.1,167.2c11.9-2.2,23.9-3.5,36-4.1c0.5,0.9,0.4,2,0.1,2.9c-3.1,10.4-0.3,19.8,4.3,29.1
			c1.1,2.3,3.7,4.7,1,7.6c-6.2,1.7-12.6,1.7-18.9,2.6c-1.7,0.2-3.2-0.4-4.6-1.3C103.1,191.7,97.1,179.5,91.1,167.2z"/>
		<path class="st6" d="M369,98.6c0-0.2,0-0.4,0-0.5c1.7-1,3.6-0.5,5.4-0.5c24.1-0.1,48.3,0.2,72.4-0.2c1.6-0.6,3.2-0.8,4.9-0.7
			c1.1,0,2.5,0.3,2.8-1.2c1.4-6.5,6.1-5.1,10.5-4.4c10,1.2,20,2.3,30,3.5c4.7,0.6,9.4,1.5,14.2,2c3.3,0.4,3.6,1.8,2.2,4.5
			c-3.6,7.2-6.9,14.6-10.4,21.9c-4.7,1.8-9.2,1.2-13.4-1.6c-2.1-4.2,0.1-8.9-1.6-13.2c-1.1-1.9-1.9-4.1-3.7-5.5
			c-2.6-2.3-5.8-2.2-9-2.2c-32.3,0-64.6,0-96.9,0C373.8,100.4,370.9,101.3,369,98.6z"/>
		<path class="st8" d="M90.3,232.9c-0.2,5,3.2,7.6,6.8,10c-6-0.1-11.2,2.8-16.7,4.6c-19.5,6.4-39,13.1-58.4,19.6c-1.4-3-2.8-6-4.1-9
			c0.2-1.6,1.5-2,2.8-2.4c12.1-4,24.1-8,36.2-12c9.5-3.2,18.9-6.4,28.3-9.6c0.8-1.3,2.3-1,3.3-1.6c0.4-0.1,0.8-0.1,1.3,0.1
			C89.9,232.6,90.1,232.7,90.3,232.9z"/>
		<path class="st8" d="M484,231.9c10.6,4.4,21.6,7.4,32.4,11.1c11.1,3.8,22.4,7.4,33.5,11.1c1.4,0.5,3,0.5,4,1.9
			c-1.3,2.8-2.6,5.6-3.9,8.4c-1.7,0.8-3.4,0.7-5.3,0.1c-21.9-7.5-43.9-15-65.9-22.4c1.9-2.9,5.5-4.9,4.9-9.1
			C483.5,232.5,483.6,232.1,484,231.9z"/>
		<path class="st4" d="M321,400.9c-6.9-0.4-13.9,1.3-20.8-0.9c-0.2-0.1-0.4-0.2-0.6-0.4c-1.5-3-1.6-6.3-2.2-9.6
			c-0.2-0.4-0.3-0.9-0.4-1.3c-0.3-1.8-0.2-3.6-0.8-5.4c-0.2-0.5-0.3-0.9-0.3-1.4c-0.3-1.7-0.2-3.4-0.4-5.1
			c-0.3-3.4-1.6-6.7-1.5-10.2c0.1-0.5,0.1-1.1,0.5-1.3c4.2-2.8,6.5-6,3.3-11c-0.1-0.2,0.2-0.5,0.6-0.7c3,0.4,4.8-0.5,4.4-3.9
			c-0.8,0.4,1.9-3.3-0.9-0.8c-0.7,0.6-1.3-0.3-1.4-0.9c-0.5-3.6-1.1-7.2,0.6-10.7c0.3-0.6,0.7-1.2,1.5-1.2c1,0.1,1.4,1,1.4,1.8
			c0.1,2-0.1,4,1.8,5.3c0.7,1.6,0.8,3.3,0.7,4.9c-0.8,10.3,3.4,18.7,9.6,26.4c2.3,3,5.3,5.5,6.3,9.4
			C322.2,389.5,323.9,395.4,321,400.9z"/>
		<path class="st6" d="M209,102.2c-4.3,0-8.5,0-12.8,0c2.6,0.7,4,2.1,3.9,5c-0.1,2.5-0.2,3.7-3.5,3.7c-7.8,0-15.5,0.7-23.3,1.3
			c-2.9,0.2-3.8-1-4.7-3.7c-2-6.1-2.8-12.6-5.3-18.6c-0.6-1.4-1.2-3.2-0.2-4.8c7,0.6,13.9-1.2,20.8-1c5,0.2,1.9-4.6,4.1-6.1
			c2.6,2.8,1.2,6.2,1.5,9.4c0.2,2.4,0,4.9,0,7.3c0.1,1.7-0.5,3.6,1.6,4.7c3.6,0.4,7.2,0.1,10.9,0.2c15.9,0,31.8,0,47.7,0
			c2.2,0,4.7-0.6,6.5,1.6c-0.8,1-1.9,0.8-3,0.8c-1.8,1.6-4,1.3-6.1,1.3c-7.1,0.1-14.2,0-21.3,0.1c-0.9,0.2-1.9,0.2-2.8,0
			C218.2,102.9,213.4,104.7,209,102.2z"/>
		<path class="st9" d="M265,366.9c0,11.3,0,22.7,0,34c-12.3,0.1-24.7,0.2-37,0.4c-0.1-0.2-0.2-0.4-0.3-0.7c0-0.5,0.2-0.9,0.5-1.3
			c4.2-3.5,9.2-5.8,13.5-9.3c7.3-6,14.3-12.3,19.7-20.2C262.2,368.5,262.8,366.7,265,366.9z"/>
		<path class="st1" d="M295.1,365.9c0.6,3.7,1.2,7.4,1.8,11.1c-0.5,2-1.2,4,0.3,5.9l-0.1-0.1c1.2,1.9-0.5,4.3,1.1,6.1l0-0.1
			c0.2,3.6,1.2,7,1.4,10.6c-1,1.9-3.1,0.3-4.4,1.4c-0.4,0-0.7,0-1.1,0c-2-0.6-3.9-0.6-5.9,0c-2.3,0-4.7,0-7,0
			c-1.1-1.1,0.1-2.7-0.9-3.8c1.7-10,3.4-20,5.1-30C288.1,363.2,291.5,364,295.1,365.9z"/>
		<path class="st10" d="M84.1,181c3.8,6.4,7.3,13,9.9,20c-0.6,2.1-1.9,3.3-4.2,3.3c-5.7-0.1-11.4,0.6-17.1-0.4
			c-1.7-0.8-2.4-2.3-2.1-4c1.2-5.8,2.3-11.6,4.4-17.1c0.4-1.1,1.2-1.9,2.3-2.5C79.7,179.5,82,179.3,84.1,181z"/>
		<path class="st11" d="M484.1,102.9c2,0.6,1.5,3,2.8,4.1c0.6,14.3,3.2,28.6,0.8,43.1c-0.9,5.2-0.1,10.6-0.3,15.9
			c-0.1,2.3,0.4,4.7-0.3,6.9c0,1.3,0,2.6,0,3.9c2.6,7.4,1.5,14.8-0.2,22.4c4.3,0.6,8.6,0,12.8,0.3c2.2-0.1,4.4,0,6.7,0
			c0.6,0,1.1,0,1.7,0c1.4-0.1,2.8,0.1,4.1-0.1c3.7,0.1,4.1-2.2,4.3-5.2c0.3-5.4-1.1-10.9,1-16.1c0.5-0.5,1-0.5,1.6-0.3
			c0.4,0.5,0.7,1,0.9,1.6c0.3,7.3,0.9,14.5-0.4,21.8c-1.4,2.2-3.6,2.1-5.7,2.1c-12.2-0.1-24.4,0.6-36.6-0.5
			c-2.5-0.8-2.1-2.2-0.8-3.8c0.5-0.5,1.1-1,1.7-1.5c1.6-1.2,2.8-2.9,4.6-3.9c0.4-0.2,0.7-0.4,1-0.7c-0.3-25.8-0.2-51.5-0.2-77.3
			c0-2.5,0.2-5-0.2-7.5c-0.2-0.5-0.4-1-0.7-1.4c-0.2-0.5-0.3-1-0.3-1.5c0.1-0.8,0.4-1.5,1.1-2C483.6,103.1,483.8,103,484.1,102.9z"
			/>
		<path class="st12" d="M71.9,202.9c5.8,0,11.6,0,17.4,0.1c2,0.1,3.5-0.5,4.7-2c-0.2,1.6,1.6,1.8,2,3c-4.9,2.3-10.1,1.1-15.1,1.3
			c-3.1,0.1-6.3,0-9.4,0c-2.5,0-5,0-7.5,0c-3.7-0.4-7.5,0.8-11-1.1c-1.6-1.8-1.4-4.1-1.4-6.3c0.2-4.2,0.1-8.5,0.1-12.7
			c-0.1-1.6,0.1-3,1-4.4c0.9-0.9,2.1-1.1,3.3-1c3.2,1.1,6.8-0.2,9.9,1.4c2,2.7,0.3,5.4-0.1,8.1c-0.2,1.3-0.7,2.5-1.1,3.8
			c-0.8,2.4-2.3,5.1-1.5,7.1c1,2.7,4.4,0.5,6.6,1.4C70.4,202.2,71.2,202.5,71.9,202.9z"/>
		<path class="st10" d="M500,200.8c-5.3,0-10.6,0-16.5,0c5.9-7.4,2.4-15.9,3.5-23.9c0.3,0,0.6,0.1,1,0.1c2.6,0,5.2-1,7.7,0.5
			c0.4,0.3,0.7,0.8,0.8,1.3c1,5.4,2.9,10.5,4,15.8C500.9,196.8,501.7,198.9,500,200.8z"/>
		<path class="st13" d="M421.9,203.1c-3.2-0.4-6,1.2-9,1.7c-5.3,0.9-10.7-0.3-16-1.8c2.1-1.9,4.7-1.2,7.1-1.3
			c3.4-0.2,6.9,0.4,10.3-0.8c18.8-0.5,37.6-0.2,56.4-0.2c1.2,0,2.3,0.1,3.4,0.7c0.6,0.4,0.9,0.9,1,1.6c-0.8,0-1.6,0.1-2.4,0.1
			c-4.4-0.5-8.3-0.3-9.7,5c-13.8,0.5-27.5-0.9-41.1-3c-0.3,0-0.8-0.1-0.8-0.3c-0.2-0.7,0.5-0.6,0.9-0.7c9.1-1.1,18.2-0.2,27.2-0.5
			c3.5-0.1,7,0.1,8.9,0C447,203.1,434.5,204.1,421.9,203.1z"/>
		<path class="st14" d="M53.3,181.1c-0.1,1.3-0.2,2.6-0.4,4c-0.6,4.3-0.6,8.6,0,12.9c0.1,1.9,0.2,3.9,0.3,5.8
			c3.6,1.6,7.5,0.2,11.2,0.7c2.2,0,4.5,0,6.7,0c5.8-0.1,11.5,0.2,17.3,0c1.7-0.1,3.7-0.5,4.8,1.6c-3.6,1.5-7.1,3.1-11,3.1
			c-10-1.3-20.1-1-30.2-0.3c-1.8-0.2-2.8-1.6-2.8-3c0-9.4-1.2-18.7,0.6-28.1c1.8-0.7,2.7,0.6,3.5,1.8
			C53.6,180.2,53.5,180.6,53.3,181.1z"/>
		<path class="st15" d="M321,400.9c0-6,0.1-12.1,0.1-18.1c0.9-0.2,1.7,0,2.3,0.5c6.8,6.1,15.1,10,21.5,16.6c0.1,0.3,0.1,0.5,0.1,0.8
			C337.1,400.8,329,400.8,321,400.9z"/>
		<path class="st16" d="M487.1,173c-0.1-22-0.1-44-0.2-66c2.2,4.5,0.5,9.4,1.1,14c1.2,3.3,3.5,4.9,7,5.4c3.6,0.6,4.4,2.6,2,5.6
			c-2.7,5.7-5.3,11.4-8,17c-1.6,3.2-0.7,6.5-1,9.8C487.5,163.6,488.8,168.4,487.1,173z"/>
		<path class="st17" d="M109,204c8.1-0.7,16.1-1.4,24.2-2.1c2.9,0.6,4.2,3,5.6,5.1c0.9,1.4,1.6,3.2-1.2,3.5
			c-11.8,0.5-23.5,0.6-35.3,0.4c-0.9,0-1.6-0.4-2.3-0.9c-0.7,0-1.3,0-2,0.1c0.3-0.4,0.7-0.7,1-1.1c5.4-1.1,10.8-0.1,15.8-0.5
			c-1-0.2-2.5,0.4-3.8-0.5C110.4,206.7,109.7,205.4,109,204z"/>
		<path class="st18" d="M519.1,179.1c-0.1-0.3-0.2-0.7-0.3-1c-0.6-2.7-2.6-2.9-4.8-2.7c-6.3,0.1-12.6,0-18.9,0.1
			c-1.9,0-3.7,0-5.1-1.5c-0.1-0.3,0-0.6,0.1-0.9c8.8,0,17.6-0.1,26.5-0.1c2,0,4,0.2,5.2,2.1c0.4,9.9,0.1,19.9,0.2,29.8
			c-0.3,1.7-1.4,2.2-3,2.1c-10.3-0.8-20.6-0.6-30.9-0.1c0,0,0,0.4,0,0.4c-2.3-1.1-5.1-1.1-7.2-2.9c0.2-3.2,2.6-1.8,4-1.8
			c10.2-0.1,20.5-0.1,30.7-0.1c1.6,0,3.5,0.7,3.9-1.8C519.2,193.6,519.9,186.3,519.1,179.1z"/>
		<path class="st19" d="M106.1,401c0.3-0.1,0.7-0.2,1-0.3c3.5-0.6,7-0.3,10.4-0.3c27.3,0,54.5,0,81.8,0c1.8,0,3.7,0.4,5.4-0.4
			c7.8-0.8,15.6-2,23.2,0.8c0,0-0.1,0.4-0.1,0.4c-6.9,1.5-13.9,0.3-20.9,0.7c-1.7,1.4-3.8,1-5.8,1c-29.5,0-58.9,0-88.4,0
			c-2,0-4,0.4-5.8-1C106.7,401.7,106.4,401.3,106.1,401z"/>
		<path class="st19" d="M346,401.1c7.7-0.1,15.3-0.2,23-0.3c0.7,0,1.3,0,2,0c1.4-0.5,3-0.3,4.4-0.3c29.5,0,59,0,88.6,0
			c1.3,0,2.7-0.1,4,0.2c0.1,0.2,0.1,0.3-0.1,0.4c-1.5,2.3-4,1.7-6.1,1.8c-29.7,0.1-59.4,0.1-89.1,0.1c-1.3,0-2.7,0-3.8-1
			c-6.1,0-12.2,0-18.3,0C349.1,401.9,347.4,402.4,346,401.1z"/>
		<path class="st20" d="M369,401.9c31.1,0,62.1,0,93.2-0.1c1.9,0,4,0.7,5.7-0.8c0.3-0.1,0.7-0.1,1-0.2c1.3,0.2,2,1,0.4,1.6
			c-1.3,0.5-2.9,0.3-4.4,0.4c-1.2,0.8-2.6,0.5-3.9,0.5c-29.4,0-58.8,0-88.2,0c-1.3,0-2.7,0.3-3.9-0.5C369,402.6,369,402.3,369,401.9
			z"/>
		<path class="st21" d="M207,402.9c0.4,0.2,1.2,0.2,1.3,0.5c0.4,1.2-0.5,0.7-1.1,0.7c-15.6-0.1-31.2-0.2-46.8-0.2
			c-16.1,0-32.2,0-48.3,0c-1.7,0-3.7,0.6-5.2-1c1.2-0.8,2.6-0.5,3.9-0.5c30.7,0,61.5,0,92.2,0C204.4,402.5,205.8,402.1,207,402.9z"
			/>
		<path class="st22" d="M489.9,174c1.7,0,3.3,0,5,0c7,0.8,14,0.8,21,0c3.9,0.4,3.9,0.4,2.9,4.1c0,0-0.5,0-0.5,0l-0.4,0.1
			c-4.1,2.5-8.5,1.1-12.8,1.3c-3-0.3-6.3,0.8-9.1-1.3c-2.6-0.7-5.5,0.9-7.9-1.1C488.6,176,489.3,175,489.9,174z"/>
		<path class="st20" d="M207,402.9c-33.3,0-66.6,0-100,0c0-0.3,0-0.6,0-1c33.3,0,66.6,0,100,0C207,402.3,207,402.6,207,402.9z"/>
		<path class="st21" d="M369,402.9c32,0,64,0,96,0c-1.3,1.5-3.1,1-4.7,1c-28.9,0-57.8,0-86.6,0C372.1,403.9,370.3,404.4,369,402.9z"
			/>
		<path class="st23" d="M189,76.1c0.1-1.5,0.8-1.5,2.3-1.5c7,0.2,14.1,0,21.1,0c10.8,0,21.5,0,32.3,0c1.5,0,3.4-0.8,4.3,1.4
			c-1.7,1.8-4,1.5-6.1,1.5c-15.9,0-31.9,0-47.8,0C193,77.5,190.8,77.8,189,76.1z"/>
		<path class="st3" d="M464.9,91.1c-4.4-0.3-8.3-0.5-9.7,5.4c-0.9,3.7-4.8,0.7-7.2,1.6c-0.3-1-0.3-2-0.1-2.9c0.9-1.9,3.1-3.4,2-6
			C455,89.3,460.1,89.4,464.9,91.1z"/>
		<path class="st24" d="M496.9,132c1.9-4-1.3-4.7-3.7-4.6c-4.8,0.1-5.9-2.3-5.3-6.4c4.2,1.5,8.7,1.1,13,2
			C499.7,126.1,500,129.8,496.9,132z"/>
		<path class="st25" d="M53.3,180.1c-1.1-0.7-2.3-1.5-3.4-2.2c0-0.3,0.1-0.6,0.3-0.9c2-0.9,4.2-1.1,6.3-1c8,0.3,15.9-0.6,23.9-0.1
			c0.3,0,0.6-0.1,0.9-0.1c1.2,0.2,1.3,1.4,2,2.1c0.3,0.6,0.2,1.1-0.4,1.5c-1.9,0.9-4,0.3-6,0.6c-3.7,0.6-7.5,0.2-11.2,0.3
			c-3.6,0-7.1,0-10.7-0.3C54.4,180.3,53.8,180.3,53.3,180.1z"/>
		<path class="st26" d="M189,76.1c20,0,40-0.1,60-0.1c0.3,0,0.7,0,1,0c1-0.6,2-0.7,3,0c1.1,0.1,2.3-0.2,3.1,0.9
			c-0.4,0.6-0.9,1-1.5,1.2c-6.6,0.9-13.2,0.3-19.8,0.4c-12.9,0.1-25.8,0-38.7,0c-2.1,0-4.3,0.3-6.3-0.8c-0.2-0.2-0.4-0.5-0.7-0.7
			C189,76.7,189,76.4,189,76.1z"/>
		<path class="st27" d="M519.9,201c-0.4,2.5-2,2.3-4,2.2c-10.5-0.2-21.1-0.2-31.6-0.2c-1.3,0-2.7-0.1-3.5,1.3c-2-0.2-4-0.2-5.7-1.4
			c0-0.3,0-0.5,0-0.8c0.1-0.2,0.3-0.3,0.4-0.5c0.2,0.1,0.3,0.2,0.5,0.4c13.6-0.1,27.2-0.1,40.8-0.2c0.8,0,1.5-0.5,2.3-0.8
			C519.3,200.6,519.6,200.6,519.9,201z"/>
		<path class="st28" d="M52.1,209c5.9-2.2,12.1-0.8,18.1-0.9c4,0,8.3-1.5,12,1.1c-0.4,0.3-0.8,0.6-1.1,0.8
			c-7.5-1.7-15.1-0.5-22.6-0.8C56.3,209.2,54.2,209.1,52.1,209z"/>
		<path class="st29" d="M93.3,206.2c-5.4-2.8-11.3,0.2-16.8-1.1c-1.7-0.4-3.6-0.1-5.4-0.1c-0.3-0.2-0.4-0.4-0.3-0.6
			c0.1-0.2,0.2-0.3,0.3-0.3c8.3,0,16.6,0,25,0C96.2,206.2,94.6,206,93.3,206.2z"/>
		<path class="st30" d="M188.1,96.1c-0.1-6-0.1-12-0.2-18c0.4-0.4,0.7-0.7,1.1-1.1c0,0,0,0.5,0,0.5c0.5,0.1,1,0.3,1.3,0.7
			c0.4,4.7,0.7,9.4,0.8,14.1C191.2,93.9,191.9,97,188.1,96.1z"/>
		<path class="st25" d="M51.9,175.9c6-1.7,12.2,0,18.2-0.9c2.3-0.7,4.6-0.7,7,0c1.3,0.1,2.6,0.1,3.9,0.2c0.1,0.3,0.1,0.5,0.2,0.7
			c-0.1,0.1-0.3,0.2-0.4,0.3C71.1,176.5,61.5,177.1,51.9,175.9z"/>
		<path class="st31" d="M98.1,399.9c-0.2-2.1-1.2-3.8-2.6-5.2c-1.7-1.7-1.8-3.7-1.3-5.9c1.9,5.7,5.4,9.9,11.1,12
			C102.7,401,100.3,401.1,98.1,399.9z"/>
		<path class="st32" d="M258.1,99c-0.3,0.3-0.6,0.7-1,1c-0.2-0.2-0.4-0.4-0.7-0.5c-1-1.5-0.8-3.2-0.9-4.9c0.2-5.1-0.5-10.2,0.5-15.3
			c0.2-0.5,0.6-1,1.1-1.3c1,0.8,0.6,2,0.9,3C258.7,87,258.7,93,258.1,99z"/>
		<path class="st33" d="M83,179c0-0.3,0.1-0.7,0.1-1c1.2,0.7,1,1.9,1,3c-2.4,0-4.8,0.1-7.2,0.1c-1.6,1.1-3.4,1.3-5.3,1.3
			c-0.5,0-1.1,0-1.6,0c-1.4,0-2.7-0.1-3.9-0.8c-0.6,0-1-0.3-1.3-0.8c0.1-0.6,0.5-1,1-1.1c3.6-0.1,7.2,0,10.8,0
			C78.8,179.3,81,180.1,83,179z"/>
		<path class="st34" d="M111.1,208c2.3,0,4.5,0,6.8,0c0,0.3,0,0.7,0,1c-6.3,0-12.5,0-18.8,0C102.9,207,107.1,208.5,111.1,208z"/>
		<path class="st35" d="M258.1,99c0-6,0-12,0-17.9c0.3,0,0.6,0,0.9,0c0,5.3,0,10.7,0,16C258.7,97.7,258.4,98.4,258.1,99z"/>
		<path class="st36" d="M255,77.2c0.4-0.1,0.7-0.2,1.1-0.3c0.4,0.4,0.8,0.8,1.1,1.2l-0.5,0c-0.4,0.7-0.2,1.5-0.6,2.2
			c-0.3,0.2-0.7,0.3-1.1,0.4c-0.4,0-0.8-0.1-1.2-0.3c-0.5-0.3-1-0.7-1.2-1.3c-0.1-0.4,0-0.8,0.1-1.2C253.4,77.4,254.3,77.8,255,77.2
			z"/>
		<path class="st37" d="M288,400.8c2-1.3,4-1.4,5.9,0C292,400.8,290,400.8,288,400.8z"/>
		<path class="st23" d="M253,76c-1,0-2,0-3,0c-0.1-1.3,0.7-1.4,1.7-1.4C252.9,74.6,253,75.2,253,76z"/>
		<path class="st38" d="M280.1,397c1.3,1,0.8,2.5,0.9,3.8c-0.6,0-1.2,0-1.7-0.1C279.5,399.5,279.8,398.2,280.1,397z"/>
		<path class="st39" d="M295,400.8c1.1-1.3,2.6-0.7,4-0.9c0.3-0.5,0.6-0.5,0.8,0.1c0,0,0.4-0.1,0.4-0.1
			C298.8,401.9,296.8,400.7,295,400.8z"/>
		<path class="st4" d="M392.1,258.3c-7.3,8-8.5,18.5-11.8,28.2c-1.3,3.8-2.3,7.6-3.4,11.5c-1.1,2.1-3,2.5-5.1,2.3
			c-10.1-1-20.2-1.4-30.2-2.2c-4.8-2.1-5.7-3.5-4.4-8.3c4.8-18.6,9.6-37.2,14.3-55.8c0.4-1.8,1-3.5,2.7-4.6
			c7.4-2.2,14.8,0.2,22.1,0.5c10,0.5,20.1,1.5,30.1,2.6c2.5,0.3,4.9,0.5,7,2c3.5,3.8,6.5,8.4,12.6,8.2c4.3,1.4,8.7,0.6,13.1,0.9
			c2.8,1.9,2.4,4.2,0.8,6.6c-3.1,1.6-6.5,0.7-9.7,0.8c-7.4,0.1-14.9,0.1-22.3,0.1c-1.8-0.4-3.4,0.2-5,1c-1,0.3-2,0.6-3.1,0.9
			C396.2,253.1,393.8,255.1,392.1,258.3z"/>
		<path class="st37" d="M468,400.6c-10.4,0.1-20.9,0.3-31.3,0.3c-21.9,0-43.8-0.1-65.7-0.2c1.2-1.2,2.8-0.8,4.3-0.8
			c29.5,0,58.9,0,88.4,0C465.1,399.9,466.7,399.6,468,400.6z"/>
		<path class="st40" d="M442.9,244.1c4.7-0.1,9.4-0.1,14-0.2c-0.3,2.1,1.6,4.2-0.1,6.3c-4.6,0-9.2-0.1-13.8-0.1
			C441.2,248.2,441.3,246.2,442.9,244.1z"/>
		<path class="st41" d="M408,251c7.1-1.7,14.3-0.4,21.4-0.7c3.5-0.2,7-0.1,10.5-0.2c0.2,0.1,0.3,0.3,0.5,0.4
			c0.2,0.6,0.1,1.2-0.5,1.5c-9.1,0-18.1,0-27.2,0C411,252,409.3,252.5,408,251z"/>
		<path class="st42" d="M456.8,250.3c0.4-2.1-1.9-4.2,0.1-6.3c0.1-1.4,0.3-2.5,2.1-1.5c1.7,2.4,1.4,5,0.9,7.6c0,0,0.1,0.1,0.1,0.1
			c-0.3,0.2-0.6,0.4-0.9,0.7c-0.6,1.7,0.4,3.9-1.3,5.4c-0.8,0-1.3-0.4-1.2-1.3C456.7,253.4,456.8,251.8,456.8,250.3z"/>
		<path class="st43" d="M442.9,244.1c0,2,0.1,4,0.1,6c0,1.6,0,3.2,0,4.8c0.2,0.9-0.3,1.2-1.1,1.2c-1.5-1.4-0.5-3.5-1.2-5.1
			c-0.2-0.4-0.5-0.7-0.9-0.9c0,0,0,0,0,0c0-2,0.7-4.1-0.5-6.1c-0.8-0.2-0.9-0.6-0.1-1C440.8,242.1,442.5,241,442.9,244.1z"/>
		<path class="st44" d="M442,256.1c0.3-0.4,0.7-0.7,1-1.1c1.2,0.3,3.2,0.6,1.8,2.2c-1.5,1.6-4.2,1.4-5.9,0.3c-1.7-1-0.6-2.1,1-2.6
			c0.6,0,1,0.3,1.3,0.7C441.4,255.9,441.6,256.1,442,256.1z"/>
		<path class="st45" d="M456.7,254.9c0.4,0.4,0.8,0.8,1.2,1.2c0.4,0,0.7-0.1,0.8-0.5c0.4-0.4,0.8-0.7,1.3-0.7
			c0.9,0.7,2.4,1.4,0.6,2.5c-1.6,1-3.7,1.1-5.1-0.1C454.4,256.3,455.4,255.3,456.7,254.9z"/>
		<path class="st46" d="M497.8,267.1c1.1,3.3,0.9,6.6,0.1,9.9C496.3,273.7,496.5,270.4,497.8,267.1z"/>
		<path class="st47" d="M471.8,251.3c-2,0.8-3.9,1.1-6.6,0C467.9,251.3,469.9,251.3,471.8,251.3z"/>
		<path class="st48" d="M460,254.9c-0.3,0.4-0.7,0.7-1,1.1c-0.9-2-0.9-4,0-6c0.3,0,0.7,0,1,0.1C460.1,251.7,460,253.3,460,254.9z"/>
		<path class="st49" d="M440.8,256.2c-0.3-0.4-0.7-0.8-1-1.2c0-1,0-2-0.1-3c0-0.6,0-1.2,0-1.8c0.4-0.1,0.7-0.1,1.1-0.2
			C441.7,252.1,441.8,254.1,440.8,256.2z"/>
		<path class="st50" d="M484.2,358.3c-0.1,1.2-0.3,2.4-0.4,3.5c-1.3-1.3-0.9-3-0.7-4.5c0.1-0.8,0.6-0.3,0.8,0.1
			C484,357.7,484.1,358,484.2,358.3z"/>
		<path class="st51" d="M487.2,340.2c-0.1,1.2-0.3,2.4-0.4,3.6C485.9,342.5,484.9,341.2,487.2,340.2z"/>
		<path class="st52" d="M483.2,364.2c-0.1,1.2-0.3,2.4-0.4,3.6C481.9,366.5,480.9,365.2,483.2,364.2z"/>
		<path class="st52" d="M491.2,316.2c-0.1,1.2-0.3,2.4-0.4,3.6C489.9,318.6,488.9,317.2,491.2,316.2z"/>
		<path class="st53" d="M134,243.1c1,0,2,0,2.9,0c3.3-0.7,6.8,0.5,10-1.1c8.1-1.4,10.8-4.2,11.7-12.5c0.2-1.8,0-3.6,1.6-5
			c1.8-1,3.8-0.9,5.7-0.8c2,0,4,0.1,5.9,0c5.8,0,11.6-0.5,17.1,1.9c10,2.4,18.5,7.2,24.4,16c4,7.7,7.9,15.4,13.2,22.2
			c1.2,2.5,3.1,4.6,4.4,7.1c0.6,1.6,1.3,3.1,2.2,4.5c1.3,2.5,3.4,3.3,6.1,3.3c3.1,0,6.2,0,9.3,0c8.1-0.6,16.1,0.7,24.1,1.2
			c1.7,0.1,3.6,0.3,5,1.7c2,4.2,3.4,8.4-0.6,12.4c-5.4,1.9-11.1,3.1-16.1,6c-2.7,2.3-6.1,2.7-9.4,3.4c-1.7,0.1-3.4-0.1-4.9,1
			c-1.1,0.6-2.3,0.9-3.6,1c-2,0.1-4.1-0.1-6.1,0.7c-0.8,0.2-1.6,0.3-2.4,0.4c-2.9,0-5.9,0.2-8.8-0.1c-4.8-1-8.8-3.5-12.2-7
			c-1.5-1.4-3-2.9-4.9-5c1.3,1.9,2,3.3,2.6,4.9c3.4,7,6,14.4,9.5,21.4c1,6,1.4,11.9-0.9,17.6c-1.5,3.6-2.8,7.6-7.4,8.6
			c-3.1-0.6-4.3-2.9-4.9-5.6c-2.8-12.4-7-24.5-10.5-36.8c-3.2-11.3-6.3-22.7-10.5-33.6c-1.1-4.8-4.5-8-7.7-11.3
			c-1.5-2.9-5.6-3-6.7-6.3c-1.9-0.4-3.9-0.7-5.8-1.1c-3-1.6-6.2-0.4-9.3-0.4c-7.5-0.1-15-0.1-22.4-0.1c-1.1-0.4-1.7-1.4-2.1-2.4
			C131.6,246.6,132.1,244.6,134,243.1z"/>
		<path class="st54" d="M187.1,269.8c3.7,7,5.2,14.8,7.5,22.3c3.9,13,7.7,26,11.6,39c0.9,3.2,2.1,6.3,2.5,9.5
			c0.3,2.4,1.7,3.8,3.3,5.2c2.2,7.7,5.3,15.3,6,23.4c-2.2,3.4-2.7,6.2,1.9,8.1c1.8,0.8,2.9,2.6,3.5,4.6c1.3,6.1,3.8,11.9,4.8,18.1
			c0,0.2-0.1,0.5-0.2,0.7c-7.7,0-15.4,0-23.1-0.1c-0.4-0.1-0.7-0.4-0.9-0.8c-3.7-12.9-7.3-25.8-11-38.7c-8.5-29.6-17.7-59-25.2-88.9
			c-1.7-6.9-1.6-13.8,4.1-19.3c2,2.5,6.7,1.5,7.2,5.8c1.4,2.1,0.1,5.8,4.1,6.4c0.8,0.1,1.1,1.8,0.8,2.7c-1.8,4.9,0.2,9.2,2,13.1
			C184.9,277.5,181.1,273.2,187.1,269.8z"/>
		<path class="st55" d="M130.1,243c0.7,0,1.3,0,2,0c0.6,2.2-0.5,4.5,0.4,6.6c-0.2,0.7-0.7,1.1-1.5,1.2c-0.3,0-0.6,0.1-0.9,0.1
			c-2,0.7-4,0.4-6-0.1c-0.3-0.7-0.7-0.7-1,0c-1.7,0.6-3.3,0.5-5,0.1c-0.3,0-0.7-0.1-1-0.1c-0.9-0.2-1.4-0.8-1.8-1.6
			c-0.7-2.2-0.9-4.3,0.8-6.2c1.3,0.8,2.7,0.8,4-0.1C123.4,243.1,126.7,243.1,130.1,243z"/>
		<path class="st56" d="M204,399.9c0.3,0.3,0.6,0.5,0.9,0.8c-32.6,0-65.2,0-97.8,0c1.8-1.4,3.8-0.8,5.8-0.8
			C143.2,399.9,173.6,399.9,204,399.9z"/>
		<path class="st57" d="M112.1,250.9c-0.3-0.7-0.7-0.7-1,0c-2.7,0.1-5.4,1.2-7.9-0.8l-0.1-0.2c-0.9-2-0.6-4-0.2-6
			c2.7-1.1,5.6-1,8.5-1c0.8,0,1.7,0.1,2.4,0.4c1.8,1.4,1.1,3.4,1.2,5.1c0,0.5-0.2,1-0.4,1.5C113.9,250.8,113.2,251.4,112.1,250.9z"
			/>
		<path class="st58" d="M134.1,250.9c9.2-0.4,18.4,0.8,27.6-0.4c1.6-0.2,3.3-0.2,4.4,1.5c-10.7,0-21.3,0-32,0
			c-0.2-0.2-0.3-0.5-0.3-0.7C133.9,251,134,250.9,134.1,250.9z"/>
		<path class="st59" d="M116.2,250c0.3,0.3,0.6,0.6,0.9,1c0,1.3,0,2.6,0,3.9c0,1.1-0.3,2-1.5,2c-1.2,0-1.5-1-1.8-2
			c-0.3-1.6-0.6-3.2,0-4.8l0.5,0c0.5-0.3,0.9-0.2,1.2,0.3c0.1,1.5,0.2,3-0.1,4.3c0.5-1.2,0-2.7,0.3-4.2
			C115.8,250.3,116,250.1,116.2,250z"/>
		<path class="st60" d="M134.2,256c0.6,0.1,1.6,0.4,1,1.1c-1.4,1.5-3.3,1-5.1,0.7c-0.9-0.2-1.2-1.1-0.8-2c0.4-0.7,1.1-1.2,1.6-1.8
			c0.8,0.3,1.5,1,2.3,1.3C133.6,255.4,133.9,255.7,134.2,256z"/>
		<path class="st61" d="M133.1,256c-2.3,0.9-1.7-1.1-2.2-2.1c0-1,0-2,0-3c0.4-0.3,0.7-0.6,1.1-0.9c0.5-0.4,1-0.3,1.4,0.2
			C133.5,252.2,133.9,254.1,133.1,256z"/>
		<path class="st62" d="M103.2,250.2c2.6,0.3,5.3,0.5,7.9,0.8c-2.4,2.1-5.3,0.6-8,1.1c-0.3-0.2-0.5-0.4-0.4-0.6
			c0.1-0.2,0.2-0.3,0.3-0.3C103,250.8,103.1,250.5,103.2,250.2z"/>
		<path class="st63" d="M133.1,256c-0.1-2-0.2-4-0.3-6c-0.2-0.5-0.1-0.8,0.3-1.1c0.3,0.6,0.6,1.3,0.9,1.9c0,0.4,0.1,0.7,0.1,1.1
			c0,1.3,0,2.7,0,4C133.8,256,133.5,256,133.1,256z"/>
		<path class="st64" d="M124.1,250.9c2-0.7,4,0,6,0.1C128,252.5,126,252.6,124.1,250.9z"/>
		<path class="st65" d="M103,251c0,0.3,0,0.6,0,0.9c-1.6,0-3.2,0-4.8,0c0-0.3,0-0.6,0-0.9C99.8,251,101.4,251,103,251z"/>
		<path class="st66" d="M103.2,244.1c0,2-0.1,3.9-0.1,5.9c-0.3,0-0.7,0-1,0c0-1.9,0-3.8,0-5.7C102.3,243.7,102.7,243.6,103.2,244.1z
			"/>
		<path class="st64" d="M118,251c1.7-0.5,3.3-0.5,5-0.1C121.4,252.5,119.7,252.4,118,251z"/>
		<path class="st67" d="M113.8,250c0,1.6,0,3.2,0,4.8c-0.6-1.3-1.2-2.6-1.7-3.9C112.6,250.6,113.2,250.3,113.8,250z"/>
		<path class="st68" d="M83.1,320.9c-0.1-0.9-0.2-1.7-0.3-2.6c0.1-0.8,0.3-1.5,0.4-2.3C83.9,317.8,84.6,319.4,83.1,320.9z"/>
		<path class="st69" d="M91.1,368.9c-0.1-0.9-0.2-1.8-0.2-2.7c0.1-0.7,0.2-1.5,0.3-2.2C92.2,365.7,92.5,367.4,91.1,368.9z"/>
		<path class="st70" d="M85.2,332.9c-0.1-0.9-0.2-1.8-0.3-2.6c0.2-0.4,0.3-1.1,0.6-1.2c0.7-0.2,0.6,0.5,0.6,0.8
			C86.1,331,86.2,332.1,85.2,332.9z"/>
		<path class="st71" d="M86.1,338.9c-0.1-0.9-0.2-1.8-0.2-2.6c0.2-0.4,0.2-1.1,0.5-1.2c0.7-0.3,0.6,0.4,0.6,0.8
			C87.1,337,87.2,338.1,86.1,338.9z"/>
		<path class="st72" d="M521.9,204.9c-1.9-4.4-0.9-9.1-0.9-13.7c0.1-5.4-1.1-10.8,0.7-16.1c1.8,2,1.1,4.5,1,6.7
			C522.4,189.5,523.9,197.3,521.9,204.9z"/>
		<path class="st73" d="M488,206.8c8-1.8,16.2-0.4,24.2-0.8c2.2-0.1,4.7-0.9,6.7,0.9C508.6,207.2,498.3,207.4,488,206.8z"/>
		<path class="st74" d="M51.9,175.9c9.6,0.1,19.3,0.2,28.9,0.3c-4.3,1.8-8.8,0.6-13.2,0.8c-5.8,0.2-11.6,0.1-17.5,0.1
			C50.2,175.9,51.1,175.9,51.9,175.9z"/>
		<path class="st75" d="M77,175c-2.3,0-4.6,0-7,0C72.4,173.5,74.7,173.5,77,175z"/>
		<path class="st76" d="M138.9,209.8c-1.2-3.1-4.1-5-5.7-7.9c-3.1-6.2-6.3-12.3-7.9-19.1c-1.5-6.8-1.4-13.4,1.8-19.7
			c3-3.7,5.9-7.5,8.9-11.2c1.2-2.7,3.5-3.6,6.2-4c6.7,1,12.4-2.7,18.7-3.7c0.8-0.2,1.5-0.3,2.3-0.4c1.4,0,2.7,0,3.8,1.2
			c4.2,0.8,8.3,1.7,12,4.2c1.8,0.2,2.4,1.6,3,3.1c0.4,0.6,0.7,1.3,1.1,1.9c0.6,2.3,1.2,4.7,0.1,7c-3.2,2.9-3.3,5.7-0.5,9.3
			c3.7,4.6,2.8,10.4,2.8,15.9c0,1.1-0.4,2.5-1.8,2.7c-1.4,0.2-1.8-1.1-2.3-2.1c-0.8-1.7-0.2-5.4-2.9-4.7c-2.6,0.7-2.5,4.4-1.9,6.6
			c2.2,7.6-1.5,13.6-4.8,19.7c-2.8,5.1-7,7.9-13,7.7c-4.7-1.7-8.7-5.7-14.4-4.5c-1.4,0.3-3,0.7-4.3-0.5c-0.3-0.1-0.6-0.2-0.9-0.2
			C138.5,210.7,138.4,210.3,138.9,209.8z"/>
		<path class="st77" d="M282.8,153.1c-0.8-3.1-2.6-4.1-6-4.1c-17,0.1-33.9,1.4-50.8,1.2c-10.5-0.1-10.5,0.5-12.7-9.8
			c-1.4-7-2.6-14-4-21c-0.7-3.4,0.4-4.7,3.8-4.4c2.3,0.2,4.7,0,7,0c2.9,1.8,6.2,1.2,9.3,0.9c15.1-1.5,30.2-1.3,45.2-0.4
			c3.5,0.2,7,0.1,10.5,0.2c3.6,0,5.7,1.4,5.2,5.4c-0.2,1.3,0,2.7-0.1,4c-0.2,2.4-0.2,4.8-3.8,4.2c-1.3-0.2-1.8,1.4-2.7,2
			c-0.3,1-1.5,0.3-1.9,1c1,0.2,1.4-0.6,2-1c2.1-2,4.5-2.7,7.3-1.3c0,1.2-0.1,2.4,1.2,3.1c0,1.6-1.2,2.2-2.3,2.9
			c-4.3,2.9-6.4,6.8-5.8,12.1C284.3,149.9,284.6,151.8,282.8,153.1z"/>
		<path class="st6" d="M296,131.9c3.1-3.3,1.9-7.5,2-11.3c0.2-7.6,0-7.5,7.8-7.2c16.1,0.6,32.1,1.1,48.2,1.7c0.7,0,1.3,0,2,0
			c1.1,0.9,1.5,2.2,1.5,3.6c0,10.1,0.7,20.3-0.4,30.4c-0.9,2.6-3.1,3.5-5.6,3.3c-11.8-0.6-23.6-0.6-35.3-1.6
			c-0.8-0.1-1.6-0.5-2.2-1.1c-0.3-0.6-0.2,0.3-0.3-0.4c-1.9-9.4-7.1-15.4-17-16.6C296.4,132.6,296.2,132.2,296,131.9z"/>
		<path class="st78" d="M213.4,242.3c-4.2-1.2-5.2-5.8-8.4-8.3c-4.6-3.6-9.9-4.9-15-7c-0.2-2.7,2.4-3.2,3.6-4.7c2.2-1.3,2.9-4,5-5.5
			c0.4-5.7,0.4-11.3-0.2-17c-0.1-0.4-0.2-0.9-0.2-1.3c-0.2-1.3,0.9-2.9-0.2-3.7c-1.4-1-2.5,0.8-3.8,1.3c-2,1-4,2.2-6.4,1.3
			c-3-3.3-0.5-6.2,0.7-9.1c3.4-1.9,7.1-2.4,10.9-1.8c2,0.4,3.9,0.4,5.9,0.1c3.7-0.5,7.5-1.4,10.7,1.6c1.5,2.2,4,1.5,6,2.2
			c3.5,0.5,6,2.7,8.5,4.9c0.5,1.6,2.1,1.8,3.4,2.5c8.7,5.8,12.3,15,15.5,24.3c0.8,2.5,1.3,5,0.7,7.6c-0.7,2.1-0.9,4.3-0.1,6.5
			c0.2,0.7,0.3,1.5,0.3,2.3c-0.4,3.6-1,7-2.2,10.4c-1.3,3.4-2.5,7-4.9,9.9c-2.8,2.4-3.5,6.9-7.8,7.7c-3.8-1.4-3.6-4.7-3.8-7.9
			c2-5.7,6.4-10.2,7.5-16.3c0.8-1.7,0.4-2.9-1.4-3.5c-6.3-0.4-12.6-0.4-18.8,0c-0.6,0.3-1.2,0.7-1.6,1.3
			C216,240.9,215.6,242.9,213.4,242.3z"/>
		<path class="st6" d="M255.9,155c4.5,0,9,0.1,13.5,0c3.1-0.1,4.7,1,4.6,4.3c-0.4,12.1,1.1,24.1,1.6,36.2c0.1,1.7,0.7,3.7-2,3.4
			c-6.8-0.6-13.5,1.2-20.4-2.4c-6.9-3.7-10.6-8.8-12-15.9c-1.4-7.3-2.1-14.7-3.1-22.1c-0.4-2.6,0.8-3.6,3.3-3.5
			C246.3,155.1,251.1,155,255.9,155z"/>
		<path class="st77" d="M325.1,192.1c0,1.5-0.1,3,0,4.5c0.2,2.4-0.6,3.2-3.1,2.9c-11.8-1.1-23.6-0.5-35.3-0.4c-4.2,0-6-0.8-5.7-5.4
			c0.9-11.4-1.4-22.8-1-34.3c0.1-2.1-0.5-4.6,3-4.4c2.3,0.9,2.2,3.1,2.8,4.9c2.3,6.4,4.8,12.6,9.4,17.9c2.5,2.8,3.8,2.2,5.9,0
			c6.2-6.7,9-14.9,10.6-23.6c0.6-3.5,0.5-3.5,3.2-3.5c1.4,3,4.1,2.9,6.8,3c7,0.2,8,1.4,7.8,8.4c-0.2,4-1.2,7.9-0.9,11.9
			c0.3,2.7-1.7,3.7-3.5,4.9c-3.1,2.2-6.4,4.1-9.3,6.5c-1.2,1-3,1.8-1.8,3.9c0.4,0.5,1,0.9,1.6,1.2
			C318.7,191.3,322.3,189.5,325.1,192.1z"/>
		<path class="st79" d="M248.9,230.1c0.6-2.8-0.6-5.4-0.7-8.2c9.5-2.9,19.1-3.9,28.8-1c0.7,0,1.3,0,2,0c7.5-2,15-1.5,22.6-1.4
			c15.5,0.2,31.1-0.7,46.6,0.8c2.3,0.2,4.6,0.4,6.7,1.6c1.7,0,3.3,0,5,0.1c5.5-2.2,11.2-0.6,16.7-0.3c10.6,0.6,21.3,1.1,31.8,2.7
			c1.5,0.2,3,0.3,4.3,1.1c2.1,3.3,2.5,6.8,1.2,10.5c-4.4-3.3-9.7-1.9-14.5-2.7c-9.3-1.4-18.8-1.8-28.2-2.3c-5.8-0.3-11.5-1.7-17.3-1
			c-1.9,2.1-3.4,3.1-6.5,0.9c-2.5-1.8-6.4-0.5-9.6-0.5c-2.3,0.2-4.6,0-6.9,0.4c-5.8,0.4-11.7-0.3-17.5-0.3
			c-12.9-0.1-25.7,0-38.6,0.2c-3.5,0-7-0.2-10.5,0c-1.1,0-2.1,0.7-3.2,0.6c-1.3-0.2-2.6-0.3-4-0.3c-3.5,0-6.7,0.2-6.2,5.1
			c0.1,0.9-0.4,2-1.8,1.9c-0.1-0.7-0.2-1.4-0.3-2.1C248.3,234,248.3,232,248.9,230.1z"/>
		<path class="st6" d="M277,220.9c-9.6,0.3-19.2,0.7-28.8,1c-2.6-7.3-5.6-14.3-11.1-20.1c-1.4-1.4-3.5-2-4.4-3.8
			c-0.7-0.8-2.1-0.9-2.3-2.2c-2.8-1.8-5.6-3.7-8.5-5.5c-1.4-8.6-2.9-17.2-4.3-25.9c-0.3-2-0.6-3.9-0.9-5.9c-0.2-0.9,0-2,0.8-2.1
			c4.4-0.5,9.1-1.7,13.2,0c2.8,1.2,1.9,4.9,2.3,7.6c1.3,8.1,1.3,16.4,4.9,24c5.5,11.4,15.1,16.1,27.2,16.5c3.4,0.1,7.7-1.2,10,0.5
			c2.3,1.6,0.4,6.2,0.8,9.5C276.3,216.7,276.7,218.8,277,220.9z"/>
		<path class="st6" d="M355,221.9c-25.3-1.2-50.6-0.8-76-1c2.2-0.8,3.9-1.7,3.1-4.8c-0.5-1.9,0.4-4.1-0.2-5.9
			c-1.6-5.6,1-6.5,5.8-6.2c22,1.4,44,0.3,66,2c2.4,0.2,2.9,0.7,2.6,3.2C355.7,213.4,354.1,217.5,355,221.9z"/>
		<path class="st6" d="M167.1,145c-1.3,0-2.7,0.1-4,0.1c-0.5-0.5-1.1-0.6-1.7-0.5c-0.5,0-1-0.1-1.5,0c0.6,0.2,1.3,0,1.6,0.7
			c-6.5,1.2-12.4,5.2-19.4,3.6c-2.9-1-4.5,1.8-7,2.2c-1.4-0.6-1.7-1.8-2.2-3.1c-2.7-7.3-5.4-14.6-8.3-21.8c-1.2-3.1-1.1-4.8,3-5.1
			c10.7-0.7,21.4-1.9,32-2.8c3.3-0.3,5.5,0.7,6.3,4.4c1.4,6.3,3.2,12.5,5.1,18.6C172.4,145.7,167.7,143.1,167.1,145z"/>
		<path class="st6" d="M182,152.2c-1-1-2-2-3-3.1c-1.3-9.5-4.5-18.6-6.9-27.8c-0.5-2-1.4-4.1,1.4-4c8.5,0.2,16.8-1.8,25.2-1.3
			c2.4,0.1,3.9,1.1,4.1,3.3c1,9.7,3.9,19.1,5.4,28.7c0.4,2.4,0.1,3.2-2.4,3.4C197.9,152.3,189.9,151.8,182,152.2z"/>
		<path class="st80" d="M313.9,149.9c-1.1,5.1-1.9,10.2-3.8,15.2c-2.2,5.7-5.4,10.5-9.2,15.1c-1.9,2.2-3.5,2.2-5.6-0.2
			c-5.6-6.7-9.6-14.1-11.3-22.7c-0.2-0.8-0.6-1.5-1-2.3c-0.1-0.6-0.1-1.3-0.2-1.9c0-1.6,0.2-3.3,0-4.9c-1-7.6,3.1-12,9.4-15
			c1.3-0.4,2.5-0.8,3.8-1.3c11-0.9,18.5,8.4,18,17.2c0.2,0.2,0.3,0.4,0.2,0.6C314.1,149.8,314,149.9,313.9,149.9z"/>
		<path class="st6" d="M413,226.1c-17.7-1.4-35.4-2.7-53-4.1c0.6-4.1,1.4-8.1,1.8-12.2c0.3-2.7,2.2-3.5,4.1-3.3
			c17,1.2,34.1,2.5,51.1,3.9c0.8,0.1,1.5,0.6,2.3,0.9c-0.4,3.3-3.9,4.9-4.2,8.2c-0.1,0.5-0.2,0.9-0.4,1.3
			C414,222.5,414.6,224.6,413,226.1z"/>
		<path class="st6" d="M199,186.9c-3.3,0.5-6.6,0.9-9.9,1.4c-1.8-0.1-2.2-1.5-2.2-2.8c0.3-8.6-2.3-16.5-4.8-24.6
			c1.2-2.2,1.1-4.6,1-6.9c0.9,2.7,2.5,3.9,5.6,3.6c5.6-0.5,11.2-0.1,16.8-0.7c3.6-0.4,4.9,0.7,5.5,4c1.6,9.1,3.4,18.1,5.1,27.2
			c-3.5-0.3-7-2.1-10.6-0.2C203.4,186.8,201,188.3,199,186.9z"/>
		<path class="st5" d="M414,219c0.3-3.6,3.1-5.5,5.3-7.8c1.6-0.3,3-1.5,4.7-1.1c2.4,1,5,0.2,7.5,0.5c1.1,0,2,0.5,2.5,1.5
			c7.6,10.1,5.9,18.6,0.6,25.5c-1.6,2-3.8,3.6-5.8,5.4c-1,1.3-2.7,0-3.7,1c-5.5-0.1-8.8-3.2-11.1-7.9c-1.2-3.2-0.9-6.6-1-9.9
			c0.4-2.1-0.4-4.3,0.9-6.2c1.2,2.3,0.4,4.7,0.6,7C414.1,224.2,415.1,221.6,414,219z"/>
		<path class="st81" d="M312.9,190.1c-1.9-2.2-0.9-3.8,1.2-5.2c4.7-3.2,9.3-6.6,13.9-9.9c0.6-2.6,3.1-3.3,4.8-4.8
			c6.5-4.7,13.3-9.1,19.7-14c2.2-1.4,2.1-4.2,3.5-6.2c0-11.7,0-23.3,0-35c0-1.7,0-3.3,0-5c0.8-8.6,2.9-10.5,13-11.4
			c7,0.1,14,0.3,20.9,0.3c28.4,0,56.9,0,85.3,0c3.6,0,6.9,0.5,8.8,4c0,0-0.2,0.1-0.2,0.1c-1.7,0.6-3.4,1.2-5.2,0.6
			c-0.5-0.2-1-0.4-1.6-0.7c-2-0.6-4-0.4-5.9-0.4c-33,0-66.1,0-99.1,0c-2,0-4-0.2-5.9,0.6c-3.8,0.8-4.8,3.4-4.8,7
			c0.1,13.1-0.2,26.2,0.1,39.3c0.1,5.7-1.6,9.6-6.5,12.9c-9.7,6.3-18.9,13.5-28.6,19.9c-3.2,1.9-6.2,4.1-9.1,6.4
			c-0.3,0.3-0.7,0.6-1.1,0.8C315.1,189.8,314,189.9,312.9,190.1z"/>
		<path class="st13" d="M223,102.1c0.7,0,1.4,0,2.1,0c7.2,1,14.4,0.2,21.5,0.5c2.2,0.1,4.6-0.6,6.4,1.5c0.6,3.9-0.9,5.2-4.9,5.1
			c-12.4-0.5-24.8,0.2-37.2,1c-3.3,0.2-3.6-1.6-4.1-4.1c-0.5-2.4,0.1-3,2.3-2.9C213.6,101.7,218.4,103.4,223,102.1z"/>
		<path class="st6" d="M358.8,199.1c-1.7,1.4-3.5,2.4-5.9,1.8c-4.9-1.3-9.8-0.8-14.7-0.9c-8.2,0-8.3-0.1-6.2-8
			c0.9-1.2,2.2-1.4,3.6-1.4c5.6-0.1,11.3-0.1,16.9,0c1.7,0,3.3,0.4,4.5,1.8c0.5,0.7,0.9,1.4,1.2,2.2
			C358.4,196.1,359.8,197.4,358.8,199.1z"/>
		<path class="st82" d="M291,130c-3.1-1.1-5.2,2.1-8,2v0c0.5-2,0-5.2,3.9-3.6c1.7,0.7,2-0.4,2.1-1.7c0.1-1.8,0.2-3.6,0.5-5.4
			c0.5-3.2-0.6-4.2-4-4.4c-16.1-1.1-32.3-1.1-48.5-0.9c-4.1,0.1-8.2,0.7-12.3,0.9c-1.9,0.1-3.7,0.1-4.7-2
			c21.7-1.5,43.4-0.8,65.1-1.2c4.9-0.1,6.4,1.5,5.9,6.2C290.7,123.4,291,126.7,291,130z"/>
		<path class="st11" d="M475.1,202.1c-20.3,0-40.6,0-60.9,0c-7.8,0.7-15.6,0.7-23.4,0c-7.6,0-15.2-0.1-22.8-0.1
			c0.6-3,3.2-2.2,5.1-2.3c5.2-0.3,10.4,0.3,15.6-0.4c0.6-0.1,1.2-0.1,1.9,0c9.8,0.9,19.6,0.3,29.3,0.3c10.1,0,20.2,0.4,30.3-0.3
			c0.6-0.1,1.2-0.1,1.8-0.1c6.6,0.9,13.2,0.2,19.8,0.4c1.7,0,4-0.5,3.3,2.7L475.1,202.1z"/>
		<path class="st83" d="M256,101.3c-18.3-0.1-36.7-0.2-55-0.4c-0.6-1-0.5-1.8,0.5-2.5c1.2-0.7,2.5-0.8,3.9-0.8
			c15.3,0,30.6-0.2,45.9,0.1c1.4,0.2,2.8,0.7,4.1,1.2c0.5,0.3,0.9,0.6,1.3,1.1c0.2,0.1,0.4,0.1,0.5,0
			C256.8,100.5,256.4,100.9,256,101.3z"/>
		<path class="st84" d="M389,199.9c-2.8,2.2-6,0.7-9,1.1c-4,0.5-8.2-1.1-12,1c-2.9,0.3-5.8,0.4-8-2.1c-0.1-2,1.2-2.4,2.8-2.6
			c6.6,0.2,13.2,0.1,19.8,0.1c2,0,4-0.1,5.8,0.9C389,198.7,389.2,199.2,389,199.9z"/>
		<path class="st85" d="M356.9,194.2c-1-1.8-2.5-2.3-4.5-2.2c-6.8,0.1-13.6,0.1-20.4,0.2c-2.3,0-4.6,0-6.9,0
			c-3.7-0.7-7.6,1-11.1-1.1c1.7-2,4.1-2.2,6.4-2c11.4,1,22.8,0.4,34.2,0.5C358.3,189.6,358.9,191,356.9,194.2z"/>
		<path class="st86" d="M434,212c-0.6-0.4-1.2-0.7-1.8-1.1c-0.7-0.1-0.8-0.4-0.2-0.9c14-0.3,28-0.5,41.9,0.1c-0.3,0.3-0.7,0.6-1,0.9
			c-12.3,0.7-24.6,0.7-36.9,0C435.2,211,434.4,211.1,434,212z"/>
		<path class="st87" d="M421.9,203.1c12.3,0,24.5,0,36.8,0c0,0.3,0,0.6,0,0.9c-12.2,0-24.5,0-36.7,0
			C422,203.7,421.9,203.4,421.9,203.1z"/>
		<path class="st88" d="M253,104.1c-7.3-1.9-14.8-0.6-22.2-1c-1.9-0.1-4,0.7-5.7-0.9c9.3,0,18.6,0,28,0
			C253,102.8,253,103.4,253,104.1z"/>
		<path class="st84" d="M390.8,202.1c7.8,0,15.6,0,23.4,0c-5.6,1.9-11.5,0.3-17.2,0.9C394.9,202.6,392.7,203.5,390.8,202.1z"/>
		<path class="st89" d="M367.3,203.3c6.8,0,13.7,0,20.5,0c0,0.2,0,0.3,0,0.5c-6.9,0-13.8,0-20.7,0
			C367.2,203.6,367.3,203.5,367.3,203.3z"/>
		<path class="st85" d="M362.1,198c-1,0.3-1.6,1-2.1,1.9c-0.4-0.3-0.8-0.6-1.2-0.9c-0.6-1-1.2-2.1-1.7-3.1c0.6-0.9,0.4-2.4,1.9-2.5
			c0.5,0,0.9,0.1,1.3,0.3C361.6,194.9,362.6,196.1,362.1,198z"/>
		<path class="st90" d="M223,102.1c-4.5,2-9.3,0.5-13.9,0.9c0-0.3,0-0.6,0-0.9C213.6,102.1,218.3,102.1,223,102.1z"/>
		<path class="st91" d="M135,151c2.1-1.5,3.7-4.3,7-2.2c-2,1-4,2-6,3C135.7,151.6,135.4,151.3,135,151z"/>
		<path class="st92" d="M432,210c0.1,0.3,0.2,0.6,0.2,0.9c-2.7-0.2-5.6,1.1-8.2-0.8C426.6,209.6,429.3,209.6,432,210z"/>
		<path class="st93" d="M46.2,284.7c-3.2-0.7-5.8-2.2-7.9-5.3c7.9-3,15.5-5.8,23-8.7c3-1.2,3,0.5,2.7,2.6c-0.7,5.5-5.6,10.2-12,11.6
			C50.1,284.1,48.1,284.4,46.2,284.7z"/>
		<path class="st94" d="M103.2,244.1c-0.4,0.1-0.8,0.1-1.1,0.2c-0.3-0.1-0.6-0.3-1-0.4c1.1-1.4,2.6-0.7,4-0.9c2.4-0.4,5-1.7,7,0.9
			C109.1,244,106.1,244.1,103.2,244.1z"/>
		<path class="st95" d="M46.2,284.7c2-1,3.9-1.2,5.8,0.2C50.1,285.2,48.1,285.2,46.2,284.7z"/>
		<path class="st96" d="M522.9,284c-8.1,0-14.1-5.1-15.5-12c-0.5-2.5,0.1-3.7,2.7-2.7c6.8,2.5,13.6,5.2,20.3,7.8
			c2.4,0.9,2.8,1.8,0.5,3.6C528.2,282.9,525.3,283.9,522.9,284z"/>
		<path class="st97" d="M458.9,241.9c4.4,2.3,9.5,0,14,2c-3.4,0.1-6.8,0-10.2,0.3C460.7,244.4,459.7,243.5,458.9,241.9z"/>
		<path class="st4" d="M249.2,238c0.3-0.8,0.6-1.5,0.8-2.3c0.5-2-0.9-5.6,0.9-5.7c3.3,0,6.7-1.5,10-0.1c0.4,0.2,0.7,0.7,1,1.1
			c1.9,0.9,2.1,2.9,2.5,4.6c1,4.4,2,8.8,3.2,13.1c3.4,12.5,13.3,20.8,25.7,21.8c12.7,1,23.7-5.8,28.9-17.9
			c2.8-6.6,4.3-13.7,6.5-20.4c0.4-1,1.1-1.8,2.1-2.2c1.8-1.6,4.2,0,6.1-1c2.2,1,4.6,0.4,6.9,0.5c5,0.1,5.6,0.6,4.4,6
			c-2,8.6-4.7,17-7.2,25.5c-3.7,12.6-6.8,25.4-10.8,37.9c-1.2,5-3,9.8-4.3,14.8c-0.9,5.2-0.4,10.5-1.5,15.7
			c-0.3,1.6-0.1,3.3-1.4,4.6c-2,0.3-4.1-0.2-6,0.8c-0.2,0-0.4,0.1-0.6,0.1c-1.8,0.3-3.8,0.1-5.4,1.4c-3.7,0.7-3,5.4-6.1,6.6
			c-3.7-0.9-1.2-4.2-2.2-6.2c-3.2,3.4,0.3,7.5-2.2,11c2.4-0.1,1.5-2.6,3.5-2.7c0,1.4,0,2.8,0,4.2c0,7.1,0,7.1-6.1,4.8
			c-0.6,0.2-1,0.1-1.4-0.4c-1.5-2.7-0.3-5.9-1.5-8.7c-0.4-1.6-0.3-3.3-0.4-4.9c-0.1-2.4,0.3-4.9-0.6-7.2c-0.5-2.5-0.3-4.9-0.4-7.4
			c-0.1-1.9,0-3.8-0.6-5.6c-0.4-1.7-0.3-3.4-0.5-5c0-2.5,0.1-5.1,0.1-7.6c0.2-8,0.2-8,8.2-8c4,0,8,0,12,0c0.7,0-0.3,0,0.4,0
			c-4.3,0-8.7,0-13,0c-1.6,0-3.4,0.4-4.5-1.4c-0.2-0.9,0.1-1.6,0.8-2.1c6.5-0.8,13.1-0.7,19.6,0.1c-4.9-0.8-9.8-0.6-14.7-0.5
			c-1.8,0-3.5,0.2-3-2.5c0.2-0.6,0.6-0.9,1.2-1.1c5.8,0,11.7,0,17.5-0.2c0.6-0.3-0.2-1.2,0.1-0.6c0.1,0.2,0,0.4-0.2,0.4
			c-5.5,0.7-11.1,0.2-16.6,0.3c-2-3.2,0.5-3.2,2.4-3.4c3.3-0.2,6.6-0.1,9.3-0.1c-3.9-0.4-8.5,0.7-13-0.6c-0.3-0.4-0.5-0.8-0.6-1.3
			c0.5-2.2,2.3-2,4-2c3.1-0.1,6.3,0,8.7,0c-4-0.6-8.8,1.1-13.4-0.9c-0.4-0.7-0.4-1.5-0.1-2.3c3.9-2.4,8.2-0.9,12.4-1.2
			c1.8-0.2,3.6,0,5.3,0c0.5,0,1-0.2,1-0.8c0-0.3,0-0.6,0-0.9c-0.3-0.6-0.9-0.4-1.5-0.5c-6.3,0.1-12.7,0-19,0.1c-2.8,0.2-5.6,0-8.3,0
			c-3.8-0.3-7.6-0.8-10.9-0.5c1.7,0.3,4.1-0.7,6.2,0.8c-0.3,3.2-2.8,2.7-4.9,2.9c-6.7-0.2-13.4-0.9-20.1-1.2c-1.9-0.1-3.9,0-4.6-2.1
			c-3.3-9.3-7.2-18.5-6.6-28.7C247.6,245.2,248.4,241.6,249.2,238z"/>
		<path class="st98" d="M304.9,342.9c0.7-1.8,1.4-3.7,2.3-5.4c0.7-1.4,1.6-3.1,3.7-1.7c1.8-2.1,4-1.6,6.2-1c0,0,0,0,0,0
			c0,2.3,2.2,2.8,3.4,3.9c5.1,4.5,9,10.1,13.5,15.1c0.7,1,1.5,1.9,2,3l0,0c5.6,5.3,9,12,12,19c0.9,3.1,4.5,5.5,3,9
			c-2.2,4.9-1.1,11.2-6,15c-6.8-3.9-13.2-8.3-19.2-13.5c-1.5-1.3-3.1-2.5-4.6-3.7c-4.1-4.8-8.3-9.4-11.5-14.9
			C305,360.1,304.2,351.7,304.9,342.9z"/>
		<path class="st99" d="M325,313c1.3-4.7,2.7-9.3,4-14c1.4-1.5,0.8-4.7,4.2-4.5c1.7,0.1,3.6-2.2,4.4,1.2c0.4,1.6,2.4,0.3,3.4,1.3
			c9.9-0.1,19.8,0.7,29.6,1.9c2.1,0.3,4.3,0.4,6.3-0.9c-3.3,11.4-6.7,22.8-10,34.2c-0.3,1.1-0.7,1.8-1.9,1.9
			c-4.8-1-9.4-1.5-14.6-0.9c-7.3,0.8-15.1,1.7-22.6-0.7c-1.1-0.3-3.3,2.7-4.1-0.7c-0.7-2.8,0-4.7,3.7-4.7c7.1,0.1,14.3,0,21.4,0
			c-6.1,0-12.1,0.1-18.2,0c-4.1-0.1-4.1-0.3-2.1-4.2c1.4-2.7-1.1-0.6-1.6-1C324.1,319.2,323.9,316.2,325,313z"/>
		<path class="st100" d="M325,313c-1.7,6.4,4.1,7.3,7.5,9.9c-1.1,2.1-3.7,0.1-5.4,2.8c9.4,0,18.3,0,27.5,0c-0.9,3.1-2.7,2.2-4,2.2
			c-8,0.2-15.9,0.3-23.9,0.3c-1.3,0-2.4-0.2-2.6,1.4c-0.1,1-0.4,2.2,0.5,2.8c1.5,0.9,2,0.1,2.1-1.4c0-0.6,0.5-0.5,1-0.2
			c7.6,4.4,15.9,1.8,23.7,1.6c1.8,0,4.8-2.2,7.6-2.4c1-0.1,3.3-0.6,1.3,1.8c-1.2,1.5,0.4,1,1,1.1c1.3,0.2,2.7-0.3,3.7,1
			c-14,0-28,0-42,0.1C323.2,327,323.5,319.9,325,313z"/>
		<path class="st101" d="M348,375.9c-4-6.3-8-12.7-12-19c2.5,1.2,5.7,1.4,7,4.5c0.2,0.5,0.6,1,1.1,0.5c4.1-3.8,3.5,0.9,4.9,2.5
			c1.6,2,2.3,3.3-0.6,4.9c-1.6,0.9-2.5,2.3,0.6,3c1.7,0.4,3.4,2,2.9,4.4C350.1,378.1,349.9,373.6,348,375.9z"/>
		<path class="st102" d="M392.1,258.3c1.3-3.7,2.9-7,7.8-5.4C397.3,254.7,394.7,256.5,392.1,258.3z"/>
		<path class="st101" d="M336,357c-1.3-0.6-2-1.6-2-3c4.2,0-1.1-3,1.3-3.5C337.4,352.3,337.3,354.5,336,357z"/>
		<path class="st103" d="M217.1,369.9c-0.9-7.5-4.2-14.4-5.5-21.8c-0.2-0.9-0.3-1.5,0.5-2.1c7.9-5.4,8.5-13.5,7.8-22
			c-0.1-1.3-0.9-2.5,0.2-3.7c0.7-3.7,4.1-5,6.6-7c2.7-2.2,5.7-4,8.6-5.9c1.7-1,3.4-2.1,5.3-2.6c0.7-0.4,1.7-0.1,2.4-0.7
			c1.1-0.3,2.3,0.1,3.1-1c1.4-1.3,3.1-0.4,4.6-0.6c6.4,0.1,11,4.4,13,11.9c0.7,2.5,0.5,5.2,1.3,7.7c0.3,4.9,0.6,9.8,1,14.7
			c-2.7,2.9-7,0.2-9.8,2.6c-6.5,3.8-11.8,8.8-16.1,15c-5.8,5.4-11.5,11-16.3,17.4c-1.1,1.5-2.3,3-4.4,2.5
			C217,373.7,217.5,371.5,217.1,369.9z"/>
		<path class="st98" d="M240,353.8c2.9-7,8.6-11.3,14.9-14.9c4.1-2,8.2-2.6,12.3,0c4.2,9.7,1.6,18.9-2.2,27.9
			c-9.4,14.3-21.8,25.2-36.8,33.2c-3.9-5.4-4.1-12.1-6.2-18.1c1-1,0.8-2.4,1.4-3.5c0.6-1.5,1.1-2.9,2.1-4.2
			C230.4,367.5,233.7,359.5,240,353.8z"/>
		<path class="st1" d="M293.8,307.2c0,2.6,0,5.2,0.1,7.8c-0.5,1.6-1,3.2,0.3,4.7c0.9,1.7,0.8,3.5,0.6,5.3c-0.7,2.5-0.2,5.1-0.4,7.6
			c0,0.4,0.3,1-0.3,1.3c0.9-0.1,0.1-1.3,1-1.4c1.1,2.4,0.8,4.9,0.8,7.4c-0.9,1.2-0.4,2.5-0.5,3.8c-0.1,0.7,0,1.3,0,2
			c0.1-0.5,0.2-1,0.7-1.2c1.1,3,0.7,6.2,0.9,9.3c1.5,2.9,0.6,5.1-1.9,6.8c-3.2,2.1-6.5,2.3-9.8,0.3c-2.6-1.6-4.2-3.8-2.5-7
			c1.1-6,0.4-12.2,1.9-18.2c0.8,0.8,0.8,1.6,0.4,2.2c0.3-1.8,0.6-3.9-0.2-6c-0.1-2.8-0.4-5.6,0.8-8.3c1.2-1.8,0.8-3.8,0.3-5.7
			c-0.1-2.1-0.4-4.1,0.6-6.1c1.5-1.9,0.9-3.9,0.4-5.9c0-1.3,0-2.7,0.1-4c0.1-0.4,0.4-0.5,0.7-0.4c0.8-1,0-2.6,1.5-3.2
			c1.2-0.5,2.4-0.5,3.5,0.2c0.4,0.4,0.5,0.8,0.5,1.3c-0.7,3.2-0.2,6.5-1.2,9.7c-0.1,0.7,1-0.1,0.4-0.1c-0.1,0-0.1-0.2-0.1-0.5
			c0-0.6,0-1.3,0.2-1.9C293.2,306.7,293.5,306.7,293.8,307.2z"/>
		<path class="st104" d="M287.1,276c3,0,6,0,9,0c0.5,0.5,1.3,0.7,1.7,1.4c0.3,0.5,0.6,1,0.8,1.5c0.1,0.4,0.2,0.7,0.2,1.1
			c-0.1,0.4-0.3,0.7-0.5,1c0,0.7,0,1.3,0,2c0.8,1,0.5,2,0.2,3c-3.3,5.6-9.7,8.4-16.3,7.2c-1.8-0.7-3.3,0.6-5,0.6c1.8-4,0.8-8,0-11.9
			c0.5-0.5,0.1-1.6,1-1.9c1.7-0.5,3.6-0.7,4.9-2C283.9,276.4,285.8,276.9,287.1,276z"/>
		<path class="st105" d="M282.9,353.9c0.2,4.6,2.5,7.2,7.2,7.1c4.5-0.1,7.2-2.3,7-7.2c0.2,0.1,0.5,0.2,0.8,0.2
			c5.3,6,5.2,6.5-2.8,11.9c-3.3,0.4-6.7-0.9-9.9,1.1c-0.3-1-0.8-1.6-1.9-2c-2.7-0.9-5.5-2.1-5.7-5.4
			C277.5,356.3,280.4,355.1,282.9,353.9z"/>
		<path class="st106" d="M282,293.3c6-1,11.7-2.5,15.9-7.5c0.5-0.4,0.8-0.3,0.9,0.3c0.1,0.3,0.1,0.6,0.3,0.8c1,1.1,0.3,2.4,0.4,3.7
			c0.1,0.5-0.1,1-0.3,1.4c-0.1,0.3-0.2,0.5-0.3,0.8c-0.4,1.2-0.5,2.5-1.9,3.1c-0.4,0.3-0.8,0.6-1.2,0.9c-0.6,1.2-1.5,2-2.9,2.2
			c-1.3,0-2.6-0.1-3.9-0.1c-1.1,0.7,0,2.2-1.1,3c-0.3,0-0.5,0.1-0.8,0.1c-0.1-0.7-0.2-1.3-0.3-2c-0.8-0.9-1.5-1.9-2-2.9
			C283.7,296,282.1,295.2,282,293.3z"/>
		<path class="st107" d="M265,322.1c-2.2-4.6-2.6-9.8-5.8-14c-2.1-2.7-4.3-4.9-7.9-5.3c-0.2-0.1-0.5-0.2-0.7-0.3
			c0.2-0.1,0.5-0.2,0.7-0.3c3.3-0.5,6.2-2.6,9.7-2.3C262.3,307.3,266.2,314.2,265,322.1z"/>
		<path class="st108" d="M284.9,297.1c1.5,0.4,2.2,1.4,2,2.9c-5.4,0-10.8,0-16.1,0C275.1,296.5,280.4,299.5,284.9,297.1z"/>
		<path class="st109" d="M267.1,338.9c-4.1-1.8-8.2-1-12.3,0c3.1-3.9,7.4-1.2,11.1-2.1C266.3,337.5,266.7,338.2,267.1,338.9z"/>
		<path class="st110" d="M286.1,318c1.7,2.1,0.7,4.4,0.8,6.7c0,0.6-0.5,0.8-0.4,0.1c0.1-0.3-0.4-0.8-0.7-1.1
			C285.9,321.8,286,319.9,286.1,318z"/>
		<path class="st111" d="M285,332c1.7,1.8,0.9,3.9,0.3,6c-0.2-0.8-0.3-1.5-0.5-2.3C284.9,334.5,285,333.2,285,332z"/>
		<path class="st112" d="M287.1,306c1.3,2.1,1.7,4.1-0.4,5.9C286.8,310,287,308,287.1,306z"/>
		<path class="st113" d="M448,95.1c0.6,1,0.6,2,0.1,2.9c-26.3,0-52.7,0.1-79,0.1c-0.6-0.1-1.3-0.2-1.9-0.2c0-0.3,0-0.5,0-0.8
			c1,0,2,0,3,0c23.9,0,47.8,0,71.6,0C444,97.1,446.4,97.3,448,95.1z"/>
		<path class="st114" d="M436,211.1c12.3,0,24.6,0,36.9,0c-1.2,1.4-2.8,0.9-4.2,0.9c-9.5,0-19,0-28.5,0
			C438.8,212,437.2,212.4,436,211.1z"/>
		<path class="st115" d="M425.1,243.9c1-1.2,2.5-0.8,3.7-1c3.5,0.1,6.9,0.1,10.4,0.2c0,0.3,0.1,0.7,0.1,1
			C434.6,244,429.8,243.9,425.1,243.9z"/>
		<path class="st116" d="M484,231.9c-0.1,0.3-0.2,0.7-0.2,1c-1.4-3.9-1.3-7.9,0-11.8C483.9,224.7,484,228.3,484,231.9z"/>
		<path class="st117" d="M89,233c-1.3,0.4-2.6,0.7-3.9,1.1c3.9-3.7,2.5-8.5,3.1-13c0.2-1.8-0.5-4.8,2.9-5.1
			c-0.3,1.4-0.6,2.7-0.9,4.1c0,0.3,0,0.5,0,0.8C90.2,225,91.5,229.1,89,233z"/>
		<path class="st8" d="M140.1,211.1c7.2-3,13.2,0.1,19,4c2.7,3,3.3,6.3,1.1,9.8c-0.3,2.9,0.4,5.9-0.5,8.8c-2.2,6.5-6.4,10-13.5,9.4
			c-0.8-0.2-1.6-0.3-2-1.2C132.9,232.9,131.7,223.2,140.1,211.1z"/>
		<path class="st118" d="M138.9,209.8c0.1,0.4,0.2,0.8,0.3,1.1c-1.1,0.1-2.2,0.2-3.3,0.2c-2.3,0.5-4.5,0.6-6.8,0c-0.4,0-0.8,0-1.2,0
			c-1.9,0.6-3.9,0.6-5.8,0c-1.7,0.3-3.4,0.6-5.2,0.9c-5.6-1.4-11.3,0.3-16.9-0.9c0-0.3,0-0.7,0-1C113,209.3,126,209.7,138.9,209.8z"
			/>
		<path class="st114" d="M100.1,211.1c5.6,0.5,11.4-1.1,16.9,0.9C111.4,211.5,105.6,213.1,100.1,211.1z"/>
		<path class="st119" d="M144,242c0.9,0,1.7,0.2,2,1.2c-3,1.3-6.1,0.6-9.1-0.1C139.1,241,141.7,242.4,144,242z"/>
		<path class="st120" d="M115.1,250l-0.4,0c0,0-0.4,0-0.4,0c-0.1-2-0.2-4.1-0.3-6.1c-0.1-0.8,0.1-1.2,1-1c0.4,0.1,0.7,0.1,1.1,0.2
			c0,2.3,0.1,4.6,0.1,6.8c0,0-0.4,0-0.4,0C115.5,250,115.3,250,115.1,250z"/>
		<path class="st121" d="M133.2,248.9c-0.1,0.4-0.2,0.7-0.3,1.1c-0.3,0-0.5,0-0.8,0c-0.5-2.3-1.4-4.6,0-6.9c0.7,0,1.3,0,2,0
			C133.7,245,132.5,246.8,133.2,248.9z"/>
		<path class="st122" d="M91.1,221c2.9,3.7,0.8,7.3,0,11C89.5,228.3,89.5,224.7,91.1,221z"/>
		<path class="st123" d="M91.1,221c0,3.7,0,7.3,0,11c-0.3,0.3-0.5,0.6-0.8,0.9c0,0-0.3,0.2-0.3,0.2c-0.6-4.3-0.6-8.7,0-13l0.2,0.1
			C90.5,220.4,90.8,220.7,91.1,221z"/>
		<path class="st124" d="M115,242.9c-0.3,0.3-0.7,0.7-1,1c-0.6,0-1.3,0-1.9,0c-2.1-1.8-4.7-0.6-7-0.9
			C108.4,241.4,111.7,241.5,115,242.9z"/>
		<path class="st125" d="M130.1,243c-3.4,1.5-6.7,1.5-10,0c0.3,0,0.7,0,1-0.1c2.7-0.7,5.3-0.8,8,0C129.4,243,129.7,243,130.1,243z"
			/>
		<path class="st126" d="M129,243c-2.7,0-5.3,0-8,0C123.7,241.5,126.4,241.5,129,243z"/>
		<path class="st127" d="M129.1,211.1c2.3,0,4.5,0,6.8,0C133.7,212.5,131.4,212.5,129.1,211.1z"/>
		<path class="st128" d="M122.1,211.1c1.9,0,3.9,0,5.8,0C126,212.5,124.1,212.5,122.1,211.1z"/>
		<path class="st129" d="M90,220c0,4.3,0,8.7,0,13c-0.3,0-0.6,0-0.9-0.1C89.6,228.6,88,224.2,90,220z"/>
		<path class="st130" d="M299.8,400c-0.3,0-0.6-0.1-0.8-0.1c0-3.7-1.7-7.3-0.9-11.1C299.2,392.5,300.7,396,299.8,400z"/>
		<path class="st131" d="M297.1,382.9c-2.6-1.9-1.6-3.9-0.3-5.9C297.4,378.9,297.4,380.9,297.1,382.9z"/>
		<path class="st132" d="M298.1,388.9c-2-1.7-0.8-4-1.1-6.1C299.1,384.6,298.1,386.8,298.1,388.9z"/>
		<path class="st133" d="M188.1,96.1c3.7-1.9,1.9-5.3,1.6-7.9c-0.4-3.4-0.5-6.7,0.3-10.1c1.3-0.9,2-0.3,2.6,0.9
			c0.1,5.9-0.7,11.8,0.3,17.7c0.2,0.7,0.4,1.5,0.5,2.3c-0.6,2.6-3,0.9-4.3,1.8C187.1,99.6,188.1,97.7,188.1,96.1z"/>
		<path class="st134" d="M189.1,100.8c1.4-0.5,2.7-1,4.1-1.6c2.6-2.2,5.2-2.3,7.8,0.1c0,0.5,0,1,0,1.6
			C197,101.2,193.1,101.4,189.1,100.8z"/>
		<path class="st135" d="M71.1,181.1c2,0,3.9,0,5.9,0c-2.2,7.2-4.6,14.3-5.1,21.8c-3.6,0-7.3,0-11.2,0c1.8-7.2,3.6-14,5.3-20.9
			c-0.4-0.2-0.5-0.4-0.3-0.6c0.1-0.2,0.3-0.3,0.4-0.3c1.3,0,2.6,0,3.9,0c-0.2,5.7-2.7,10.9-3.5,15.8
			C68.1,192.1,68.7,186.3,71.1,181.1z"/>
		<path class="st0" d="M362.1,198c-0.7-1.3-1.4-2.6-2.1-4c-1.3-1.8-0.8-4.6-3.3-5.8c-6.2-1.6-12.6-1.1-18.8-0.4
			c-3.8,0.4-7.3-0.4-10.8-0.8c-3-0.4-3.6-2.5-2.1-5.2c10.1-7.2,20.1-14.6,30.4-21.6c3.5-2.4,4.6-4.9,4.6-9
			c-0.2-14.1,0-28.3-0.1-42.4c0-3.9,1.2-6.4,5.2-7c1.8-0.7,3.6-0.4,5.4-0.4c22.7,0,45.5,0,68.2,0c4.3,0.7,8.6,0.6,12.9,0.3
			c0.5-0.2,1.1-0.2,1.6-0.1c4.4,0.3,8.8,0.6,13.2-0.2c4.2,0.4,8.6-1.2,12.6,1.3c0.3,0.1,0.7,0.1,1,0.2c0.7,0.8,2.5,0.3,2.5,2
			c-0.5,2.4,0.8,4.5,1.4,6.7c0.1,2,0.2,3.9,0,5.9c-0.2,1-0.7,1.8-1.3,2.5c-3.2,1.6-0.7,3,0.2,4.5c0.5,1.3,0.4,2.5,0.1,3.8
			c-0.8,5.5-0.9,11.1,0.1,16.6c0.5,3.3,0.4,6.6,0.1,9.9c-0.8,2.5-2.3,5.3-2.3,7.5c0.2,5.2-2.2,10.7,1.6,15.5
			c0.4,0.3,0.7,0.7,0.9,1.1c0.4,0.9,0.5,1.8,0,2.8c-0.6,1-2.5,0.4-2.4,2c-0.7,0.4,0,0.6,0.1,0.5c0.9-1.5,2-2.2,2.8,0.2
			c-0.2,3.3,0.8,6.6-0.8,9.8c-1.3,1.3-2.6,2.6-3.9,3.9c-3.7,1.4-7.6,1.6-11.5,0.8c-1.7-0.4-3.2-0.3-4.6,0.7
			c-0.5,0.2-1.1,0.3-1.6,0.3c-6.8,0-13.5-0.1-20.3,0c-1.8,0-3.7,0.3-5.2-1.2c-1.3-3.4-3.6-6.3-4.4-9.8c0-5.7,0.8-11.1,3.9-16.1
			c1.4-0.8,2.5-0.3,3.3,1c0.2,0.4,0.3,0.9,0.6,1.4c0.9,1.5,1,4.1,3.1,3.8c1.9-0.3,0.8-2.8,1.4-4.3c0.2-0.9,0.6-1.8,1.4-2.4
			c3.1-2.7,6-5.5,7.3-9.6c-0.4-0.9,2.2-2.6-0.7-2.8c-1.8,0.6-2.5-0.2-2.6-1.9c0-0.3,0.1-0.9,0-0.9c-3.8-1-5.4-5.5-9.5-5.9
			c-2.4-0.5-4.7-1.3-6.7-2.8c-0.5-0.7-0.3-1.3,0.3-1.9c1.1-0.7,2.4-1.3,2.5-2.8c1-4.3,1.1-8.6,2.1-12.9c0.2-0.8,0.6-1.5,1.1-2.2
			c1.6-2.4,0.8-4-1.7-5c-1-3.3-1.2-6.8-1.8-10.1c-0.6-3.1-1.4-6.1-4-8.2c-1.4-1.2-3.1-0.9-4.7-1c-1.2,0-2.4,0-3.6,0
			c-0.5,0-1,0-1.5,0c-2.8,0-5.8-0.3-8.2,1.7c-3.6,4.1-4.4,9.2-5.2,14.2c-0.3,1.8-0.4,3.6-0.9,5.4c-0.6,5-1,10.1-1.6,15.1
			c-0.4,3.4,0.9,4,3.8,3.6c3.2-0.5,6.4-1.9,9.4,0.6c0.3,0.5,0.4,1,0.3,1.5c-0.4,1.7-1.7,2.7-3.3,3.3c-0.7,0.3-1.5,0.4-2.3,0.5
			c-4.6,1-7,4-7.7,8.5c-0.5,3.7-1.4,7.4-2,11.2c-1.9,7.2-1.8,14.5-2.3,21.8c-1.1,2.4,0.1,5.5-2.2,7.6c-3.7,0.8-7.3,1-10.9-0.4
			c-7.2,0-14.5,0-21.7-0.2C365.5,198.9,363.6,199.4,362.1,198z"/>
		<path class="st136" d="M504.9,178.2c4.3,0,8.6,0,12.9,0c0,5.6-0.3,11.2,0.2,16.7c0.5,5.2-1.3,7-6.3,5.9c-1.6-0.7-2.5-2.1-2.9-3.7
			c-1.4-5.9-3.6-11.5-4.5-17.5C504.4,179.1,504.6,178.6,504.9,178.2z"/>
		<path class="st135" d="M500,200.8c-0.4-6.2-2.3-12-4.1-17.8c-0.4-1.4-1.6-2.7,0-4c4.1-1.4,6.1-0.1,6.8,4.2
			c0.9,6,4.3,11.4,4.2,17.6C504.6,200.8,502.3,200.8,500,200.8z"/>
		<path class="st137" d="M483.7,106.2c1.9,1.1,1.2,2.9,1.2,4.5c0.1,22.7,0.1,45.4,0.1,68.1c0,5.3,0,10.5-0.1,15.8
			c0,0.1-0.1,0.3-0.2,0.3c-0.7,0.1-0.6-0.5-0.7-0.9c-0.6-12.1-2.2-24.2-1.2-36.2c0.6-7.4-0.2-14.6-0.2-21.9c0-9.3,1.7-18.5,0.5-27.8
			C482.8,107.3,483.3,106.7,483.7,106.2z"/>
		<path class="st138" d="M483.7,106.2c0.1,18.8,0.2,37.6,0.3,56.4c0,10.5,0,21,0,31.4c-0.3,0.1-0.6,0.1-0.9,0.2
			c0-3.7-0.1-7.4-0.1-11.2c-0.3-0.2-0.4-0.4-0.3-0.7c0.1-0.2,0.2-0.3,0.3-0.3c0-1,0-2,0-3c-2.6-3.4-0.8-7.3-1.2-11
			c-1.1-4.2,0.3-8.2,0.7-12.3c-0.3-11.1-0.3-22.3-0.5-33.4c0-1.5,0.5-2.9,1-4.3c0-2.3,0-4.7,0-7c-0.7-1.6-1.4-3.3,0-4.9
			C483.2,106.1,483.4,106.2,483.7,106.2z"/>
		<path class="st139" d="M504.9,179c3.1,7,3.6,14.9,6.9,21.8c-1.3,0-2.6,0-3.8,0c-3.1-6-4.4-12.6-6-19.1
			C501.5,179.5,501.8,177.6,504.9,179z"/>
		<path class="st140" d="M504.9,179c-3.4-0.4-2.3,2-1.9,3.5c1.6,6.2,3.3,12.3,4.9,18.4c-0.4,0-0.8,0-1.1,0
			c-2.5-5.6-4.3-11.5-5.5-17.5c-0.7-3.6-2.1-4.9-5.4-4.4c0-0.3,0-0.5,0-0.8c3,0,6,0,9,0C504.9,178.4,504.9,178.7,504.9,179z"/>
		<path class="st84" d="M475.2,202.2c-0.3-2.1-1.8-1.2-3-1.3c-6.7-0.4-13.5,1.2-20.2-0.9c3.6-1.5,7.5,0.3,11.1-1l0,0
			c5-1.4,10-0.6,15,0c-0.7,1-2.1,1.4-2,2.9C475.7,202.1,475.4,202.2,475.2,202.2z"/>
		<path class="st141" d="M519.9,201l-0.4,0c0,0-0.4,0-0.4,0c0-7.3,0-14.6,0-21.9C521,186.4,519.4,193.7,519.9,201z"/>
		<path class="st0" d="M477.9,199.1c-5,0-10,0-15,0c0.8-1.9,1.3-3.3,4.2-1.8c3.7,1.9,8,0.4,12,0.8
			C478.8,198.4,478.4,198.7,477.9,199.1z"/>
		<path class="st0" d="M482.9,106.1c0,1.6,0,3.3,0,4.9c-2.1-1.8-2.3-3.9-0.9-6.2c0.4-0.2,0.7-0.1,0.9,0.4
			C482.8,105.5,482.9,105.8,482.9,106.1z"/>
		<path class="st142" d="M482.9,105.2c-0.3-0.1-0.6-0.2-0.9-0.4c-0.7-0.6-1.4-1.2-2.1-1.8c1.3,0,2.7-1,4,0
			C483.6,103.8,483.2,104.5,482.9,105.2z"/>
		<path class="st143" d="M53,198c-1.4-4.3-1.4-8.6,0-12.9C53,189.4,53,193.7,53,198z"/>
		<path class="st144" d="M65,180.2c0,0.3,0,0.5,0,0.8c-3,0.9-6,0.7-9,0.1c-0.9,0-1.8,0-2.8,0c-0.1-0.3-0.1-0.6,0-1
			c0.3,0,0.6-0.1,0.9-0.2c3.4-0.7,6.8-0.3,10.2-0.3C64.6,179.8,64.8,180,65,180.2z"/>
		<path class="st145" d="M64.1,205c-3.6-0.1-7.3-0.2-10.9-0.3c0,0-0.1-0.3-0.1-0.4c0-0.1,0.2-0.3,0.2-0.4c3.6,0.1,7.2,0.2,10.8,0.3
			c0.3,0.2,0.4,0.4,0.3,0.6C64.3,204.9,64.2,205,64.1,205z"/>
		<path class="st146" d="M56.1,181.1c3,0,6,0,9-0.1c0.4,0,0.7,0.1,1.1,0.1c0,0.3,0,0.6,0,0.9C62.8,181.6,59.3,183,56.1,181.1z"/>
		<path class="st147" d="M64.1,205c0-0.3,0-0.6,0-0.9c2.3,0,4.7,0,7,0c0,0.3,0,0.6,0,0.9C68.7,205,66.4,205,64.1,205z"/>
		<path class="st148" d="M515.9,174c-7,1.6-14,1.6-21,0C501.9,174,508.9,174,515.9,174z"/>
		<path class="st145" d="M77,179.9c-4,0.1-8,0.2-12,0.3l0.1-0.3c-0.4-0.1-0.5-0.3-0.4-0.5c0.1-0.2,0.2-0.3,0.4-0.3c4,0,8,0,12,0
			c0.3,0.2,0.5,0.3,0.3,0.5C77.3,179.8,77.2,179.9,77,179.9z"/>
		<path class="st149" d="M65.1,179.1c0,0.2,0,0.5,0,0.7c-3.7,0-7.3,0-11,0C57.7,178.1,61.4,179.4,65.1,179.1z"/>
		<path class="st150" d="M77,179.9c0-0.3,0-0.5,0-0.8c2,0,4,0,6-0.1C81.3,181.1,79.1,179.7,77,179.9z"/>
		<path class="st145" d="M192,79.1c-0.4-0.8-1.1-1-2-0.9c-0.3-0.2-0.7-0.5-1-0.7c13.3-0.1,26.6-0.3,39.9-0.3c8.7,0,17.3,0.1,26,0.1
			c-0.4,0.8-1.2,0.9-1.9,0.9c-2.1,1.8-4.7,1.3-7.1,1.3c-17.4,0.1-34.7-0.1-52.1,0.1C193.2,79.6,192.6,79.5,192,79.1z"/>
		<path class="st151" d="M255.9,80c0.3-0.6,0.5-1.3,0.8-1.9c0,5.7,0,11.3,0.1,17c-0.7,0.2-1.2,0-1.5-0.6
			C254.5,89.6,253.6,84.7,255.9,80z"/>
		<path class="st86" d="M256.1,95.1c0.3,0,0.5,0,0.8,0c-0.1,1.7-0.1,3.3-0.2,5c0,0-0.2-0.1-0.2-0.1l-0.3,0c-1.2-1-1.4-2.3-1-3.7
			C255.3,95.8,255.6,95.4,256.1,95.1z"/>
		<path class="st152" d="M71.1,181.1c-1,7.1-3.3,13.8-5.1,20.7c-0.5-0.1-1.1-0.3-1.6-0.4c1.9-6.8,3.8-13.5,5.6-20.3
			C70.4,181.1,70.7,181.1,71.1,181.1z"/>
		<path class="st153" d="M253,79c0.4,0.3,0.7,0.7,1.1,1c0,0.3,0.1,0.5,0.1,0.8c0.3,5.3-0.1,10.7,0.3,16.1c-0.1,0.6-0.3,1.1-0.8,1.4
			c-1.4,0.3-2.9,0.3-4.3-0.1c-9.5-0.6-19.1,0.2-28.6-0.4c-2.9-1.7-1.5-4.1-0.9-6.2c1.2-4.1,3.3-8,3.8-12.4c0.4-0.5,0.9-0.7,1.5-0.7
			C234.5,78.9,243.7,78,253,79z"/>
		<path class="st154" d="M253,79c-9.7,0.1-19.3,0.2-29,0.3c-2.7,1.9-5.8,1-8.7,1.2c-5.6,0.4-11.2,0.3-16.9,0.2c-2,0-4,0-5.5-1.8
			c1.2-1.2,2.8-0.8,4.2-0.8c18.6,0,37.2,0,55.8,0C253,78.4,253,78.7,253,79z"/>
		<path class="st155" d="M254,97.6c-0.1-0.2-0.2-0.4-0.2-0.7c-0.6-5.6-0.2-11.2-0.2-16.7c0.1-0.1,0.3-0.2,0.5-0.2c0.3,0,0.6,0,0.9,0
			c1.1,4.8,0.2,9.7,0.5,14.6c-0.1,1.1,0.2,2.2-0.3,3.2C254.7,98.3,254.3,98.2,254,97.6z"/>
		<path class="st156" d="M255.1,96c0-5.3-0.1-10.6-0.1-16c0.3,0,0.6,0,0.9,0c0,5,0.1,10,0.1,15c-0.1,0.3-0.1,0.7-0.2,1
			C255.6,96.5,255.3,96.5,255.1,96z"/>
		<path class="st157" d="M341,297c-1.5-0.6-4.2,1.5-4.4-1.9c-2,0.4-4.2,0.4-5.7,1.9c-0.6,0.7-1,1.6-2,2c3.5-12.7,7-25.5,10.6-38.2
			c2.5-9.1,5.5-18,7.6-27.2c0.7-3.1-0.2-3.7-3-3.7c-2.4,0-5,1-7.2-0.9c3.7,0.1,8.7-1.3,10.9,0.6c2.7,2.3,4.2,0.6,6.2,0.4
			c-5.2,20.2-10.5,40.4-15.7,60.5C337.5,293.5,338,295.7,341,297z"/>
		<path class="st158" d="M459,250.1c0,2,0,4,0,6c-0.4,0.4-0.7,0.5-1.1,0C458.7,254.2,456.6,251.7,459,250.1z"/>
		<path class="st159" d="M440.8,256.2c0-2.1,0-4.1,0.1-6.2c1.9,1.7,0.7,4.1,1.1,6.1C441.6,256.8,441.2,256.7,440.8,256.2z"/>
		<path class="st104" d="M160.1,224.9c0.6-3.4-0.8-6.5-1.1-9.8c5.7-0.2,9.7-3.1,12.1-8.1c2.6-5.5,6.4-10.7,4-17.6
			c-0.8-2.5-0.7-5.6,1.1-8.1c0.6-0.9,1.2-2.1,2.5-2.1c1.6,0,2.1,1.4,2.7,2.5c1.2,2.1-0.1,4.9,1.8,7c1.9-6.2,1.5-14.8-2.4-18.6
			c-4.4-4.3-2.3-6.4,1.1-9.1c4.5,6.2,5.7,13.3,5.9,20.8c0.1,2.2-0.8,4.7,1.1,6.6c0.1,3-2.8,5.6-1.2,8.9c0.2,2.5-1.6,4.2-2.2,6.4
			c-1.1,2.2-2.2,4.4-3.2,6.7c-1.9,4.2-4.7,6.5-9.5,6.3c-5.1-0.3-4.3,4.5-6,7.2c-0.3,0.4-0.6,0.8-0.9,1.1
			C164.1,224.9,162.1,224.9,160.1,224.9z"/>
		<path class="st4" d="M213.4,242.3c2.1,0.1,1.9-2,2.8-3.1c0.5-0.3,1-0.5,1.6-0.5c6.5-0.3,13,0.4,19.4-0.5c2.3,0.3,4.3,0.8,2.8,3.8
			c-1,6.5-4.6,11.7-8.3,16.9c-1,2.8-1.8,5.7-5.8,5.4C220.5,257.6,215.8,250.6,213.4,242.3z"/>
		<path class="st6" d="M166.2,224c-0.5-2.7,1.5-4.7,1.8-7.1c0.2-1.4,1.2-2,2.5-1.7c7.8,1.9,10.3-3.4,12.6-9.2c0.4-1.1,1.1-2,1.6-3
			c3.7-1.3,4.8,1.7,5.3,4c1.2,5.4,2.9,10.7,4,16.1c-0.5,2.2-3.8,1.5-4.1,4c-5.8-2.3-11.9-1.3-17.8-1.8
			C170.3,223.6,168,225.3,166.2,224z"/>
		<path class="st160" d="M236,308c-5.5,4-11.1,7.6-16,12.3c-4.9-6.4-6.6-14.2-9.9-21.3c1.1-1,2.6-0.6,3.9-0.8
			c3.4,2.7,6.8,5.5,11.1,6.8c3.3,1,6.7,0.1,10,0.5C236.4,305.9,236.8,306.7,236,308z"/>
		<path class="st161" d="M235.2,266.4c3.1-2.1,4.4-5.7,6.9-8.3c1.4,0.4,2.1,1.5,2.5,2.8c1.7,5.3,2.9,10.8,4.2,16.2
			c0.3,1-0.1,2-0.8,2.7c-3.1,0.1-6.2,0-9.3,0.2c-3.9,0.3-6.2-1.2-7-5.1c0.9-1.7,0.2-3.4-0.2-5.1
			C231.9,267.9,232.8,266.4,235.2,266.4z"/>
		<path class="st15" d="M248,279.9c-1.8-7.3-3.2-14.7-6-21.8c2.2-2.8,3.3-6.2,4.8-9.4c1.9,9.4,4.4,18.7,7.5,27.8
			c0.6,1.8,1.9,2.5,3.8,2.4c6.1-0.2,12.1,2.1,18.3,0.1c0.4-0.1,1.1,0.6,1.6,0.9c-0.3,0.6-0.7,1.3-1,1.9
			C267.4,280.5,257.7,279.8,248,279.9z"/>
		<path class="st162" d="M187.1,269.8c-2.7,3.3-2.8,6.7-0.6,10.3c0.7,1.1,0.7,2.6,0.9,3.9c0.1,0.7-0.2,1.3-1,1.5
			c-0.8,0.1-1.2-0.4-1.3-1.1c-0.5-4.6-1.8-8.8-4.3-12.7c-1.1-1.8,1.3-1.4,1.7-2.3c0.6-1.3,1-2.8-0.2-3.6c-1.5-0.9-0.9,2-2.8,1.7
			c0-2.8-1.8-5.5-0.4-8.5C183,261.6,186.5,264.6,187.1,269.8z"/>
		<path class="st163" d="M235.2,266.4c-1.1,1.2-2.2,2.4-3.3,3.5c-0.3,0.9-0.8,1.6-1.9,1c-1.4-2.2-3.7-3.9-4.1-6.7
			c1.9-1.8,3.8-3.6,5.8-5.4C234,260.8,233,264.3,235.2,266.4z"/>
		<path class="st164" d="M213.9,298.2c-1.1,1.2-2.3,1.6-3.9,0.8c-1-2.1-2.1-4.1-3-6.2c-0.2-0.4,0.1-0.9,0.3-1.9
			C209.7,293.5,211.8,295.8,213.9,298.2z"/>
		<path class="st165" d="M230,270.9c0.6-0.3,1.3-0.7,1.9-1c1.8,1.8,3.2,3.5-0.1,5.1C230.7,273.9,229.9,272.6,230,270.9z"/>
		<path class="st166" d="M235,305.9c-3.3-0.4-6.8,1-10-0.9c3.3,0,6.7,0,10,0.1c0.3,0.2,0.4,0.4,0.3,0.6
			C235.2,305.9,235.1,305.9,235,305.9z"/>
		<path class="st167" d="M235,305.9c0-0.3,0-0.6,0-0.9c0.6-0.1,1.3-0.1,1.9-0.2c1.4-0.5,2.8-0.7,4.2,0.2c-1.7,1-3.4,2-5.1,3
			C236,307.2,235.8,306.4,235,305.9z"/>
		<path class="st168" d="M241.1,305c-1.4-0.1-2.8-0.1-4.2-0.2c1.9-1.3,3.9-0.9,6-0.8C242.6,304.9,241.9,305,241.1,305z"/>
		<path class="st169" d="M166.2,224c2,0.4,4.2-0.8,5.9,1.1c-2-0.1-4-0.2-6-0.2C166.1,224.6,166.1,224.3,166.2,224z"/>
		<path class="st170" d="M251.3,302.2c0,0.2,0,0.4,0,0.6c-1.7,0.1-3.5,0.2-5.2,0.3C247.5,301.1,249.5,302.2,251.3,302.2z"/>
		<path class="st171" d="M240,353.8c-4.6,7.1-8.6,14.5-13.9,21.2c-2.2,0.6-1.7,2.5-2,4c0,1.4-0.7,2.4-2,3c-0.6-2.2-2.1-3.7-4.2-4.3
			c-1.3-0.4-3.1,0.2-2.8-2.1c0.2-2-1-4.6,2-5.6c2.9,5,2.9,4.7,6.6,0.1C228.5,364,233.2,357.8,240,353.8z"/>
		<path class="st172" d="M115.1,250c0.2,0,0.4,0,0.7,0c0.3,1.6,0.6,3.2-0.1,5.2C114.6,253.4,115.2,251.7,115.1,250z"/>
		<path class="st173" d="M161.4,145.2c-0.8-0.1-1.5-0.3-3.1-0.6c2.2-0.7,3.6-1.1,4.8,0.4C162.5,145.1,162,145.2,161.4,145.2z"/>
		<path class="st82" d="M255.8,118.5c-5.5-0.1-11.1,3.5-16.9,0.1C244.5,115,250.1,118.8,255.8,118.5z"/>
		<path class="st82" d="M283,132c-0.2,2.5-2.1,1.1-4.4,2.3C280.6,132.4,280.5,129.4,283,132L283,132z"/>
		<path class="st3" d="M333.1,171.2c-1.7,1.3-3.4,2.6-5,3.8c-2-2.7-0.9-5.7-0.7-8.6c0.1-1,0.5-1.9,0.6-2.9c0.8-8.5,0.8-8.6-7.7-8.5
			c-3.8,0.1-7.2,0.1-6.3-5.2c0-0.3,0-0.5,0.1-0.8c9.1,0.5,18.2,1,27.3,1.4c4.9,0.2,9.8,1.6,14.6-0.4c0.2,2.8,1,5.9-2.9,7
			c-4.4,0.8-8.8,0.1-13.3,0.1c-3.3,0-4.4,1.1-4.5,4.2C335.2,164.8,335.7,168.4,333.1,171.2z"/>
		<path class="st6" d="M216,197.2c12,3.8,18.9,12.5,23.1,23.8c-0.4,2.8-2.7,2.3-4.5,2.4c-2.4,0.2-4.9-0.2-7.3,0.6
			c-2.3,0.5-4.6,0.3-6.9,0.4c-3.1,0.2-6.2-0.1-9.1-1.2c-1.7-1.1-3.4-2.1-5.1-3.2c-1.4-7.2-0.3-14.4-0.6-21.6c-0.1-0.5,0.1-1,0.3-1.5
			C209.2,199.7,212.6,199.3,216,197.2z"/>
		<path class="st174" d="M194,223c-2.6-3.3-3.4-7.2-4.1-11.2c-0.6-3.5-0.3-7.8-5.2-8.9c0.7-2.1,1.3-4.3,3.2-5.7
			c2-0.7,4.1-1.4,6.1-2.1c1.4-0.8,2.9-1.2,4.2,0.2c0,2-1.1,3.9-0.6,6.2c0.1-1.3-0.2-2.5,0.3-3.6c0.5-0.3,0.9-0.1,1.1,0.4l-0.2,0.3
			l0.2,0.3c0.8,5.9,1,11.9-0.1,17.8C199,220.2,196.5,221.6,194,223z"/>
		<path class="st175" d="M226.9,222.9c3.8-2.2,8.5,0.7,12.2-2c1,3.3,3,6.4,0.8,10c-6.9,1-13.8,0.9-20.8,0c-4.2-0.9-4.6-5.8-7.9-7.7
			c2.9-0.1,5.8-0.1,8.7-0.2c4.4,1,8.9,0.2,13.3,0.4C231.2,223.4,229,224,226.9,222.9z"/>
		<path class="st176" d="M216,197.2c-1.4,4.4-6.1,1.8-8.6,4.5c-0.2-2-0.4-3.5-0.5-4.9c-0.3-0.6-0.5-1.3,0.2-1.7
			c0.9-0.5,1.4,0.3,2,0.8C211.7,194.4,213.5,197.6,216,197.2z"/>
		<path class="st177" d="M240,242c0.1-2.1-0.8-3.2-3.1-2.8c-6.6,0.5-13.2,0.5-19.8,0l-0.5,0c0,0-0.5,0-0.5,0
			c0.3-0.4,0.6-0.8,0.9-1.2c7.3-0.7,14.6-0.7,21.8,0C241.7,238.7,241.4,240.2,240,242z"/>
		<path class="st178" d="M206.2,197.2c0,7.6,0,15.2,0,22.8c-2.1-1.5-1.1-3.7-1.1-5.5c0.3-6.4-1-12.9,0.7-19.3
			C206.7,195.7,206.5,196.4,206.2,197.2z"/>
		<path class="st179" d="M219.2,230.9c6.9,0,13.8,0,20.8,0c0,0.3,0,0.6,0,0.8c-7.2,0.1-14.4,0.2-21.5,0.2c-0.1,0-0.2-0.2-0.3-0.3
			C218.5,231.4,218.8,231.2,219.2,230.9z"/>
		<path class="st180" d="M239,237.9c-7.3,0-14.6,0-21.9,0C224.4,236.4,231.7,236.4,239,237.9z"/>
		<path class="st181" d="M198.9,216.8c-0.3-5.9-0.5-11.9,0.1-17.8c2.5,6.5,0.3,13.3,0.6,19.9C199.4,218.2,199.1,217.5,198.9,216.8z"
			/>
		<path class="st182" d="M198.1,196c-0.9-2.4-2.8-0.2-4.1-0.9c1.5-1.1,2.5-3.4,4.8-2c2.6,1.6-0.4,3.5,0.1,5.2
			c-0.2-0.2-0.5-0.4-0.7-0.6C197.3,197.1,197.5,196.6,198.1,196z"/>
		<path class="st183" d="M230.4,195.8c1,0.5,2,1,2.3,2.2c-1.1-0.1-2.5,0.4-3.2-0.7C229.1,196.7,229.8,196.1,230.4,195.8z"/>
		<path class="st184" d="M206.2,197.2c-0.1-0.6-0.3-1.3-0.4-1.9c1.5-1.6,2.6-1.6,3.3,0.7c-0.7,0.4-2.5-2.2-2.2,0.8
			C206.6,196.9,206.4,197,206.2,197.2z"/>
		<path class="st185" d="M248.9,230.1c0,1.9,0,3.9,0,5.8C247.5,234,247.5,232,248.9,230.1z"/>
		<path class="st186" d="M199,186.9c2.2-0.1,4.6-1.4,6.4,1C203.2,187.7,200.9,188.9,199,186.9z"/>
		<path class="st187" d="M359,194c-0.7,0.7-1.3,1.3-1.9,2c-0.1-0.6-0.1-1.2-0.2-1.8c1.3-2.1,0.8-3.7-1.8-3.5
			c-12.8,0.8-25.6,0.5-38.3-0.3c-0.9-0.1-1.9,0.5-2.9,0.7c-0.3-0.3-0.6-0.6-1-0.9c0.6-1.6,1.6-1.9,3-1.1c3.3-2.3,7.1-1.5,10.6-1.4
			c9.1,0.4,18.2-0.4,27.3,0C359.2,187.9,359.7,188.6,359,194z"/>
		<path class="st8" d="M329.8,231.9c-1.6,7.6-3.8,15.1-6.8,22.3c-4.8,11.4-16.1,18.2-29.1,17.8c-11.9-0.4-23.3-8.7-26.9-20.2
			c-2.1-6.8-3.5-13.8-5.2-20.7c0.4-1.1,0.6-2.5,2.2-1.1c3,0.7,5.9,0.7,8.9,0c1.4-1.3,3.1-0.8,4.7-0.8c10.9,0,21.8,0,32.7,0
			c1.6,0,3.3-0.4,4.7,0.8c-2.6,1.3-5.5,0-8,0.7c6.2-0.2,12.5-0.5,18.9-0.1C327.4,230.6,329.1,230,329.8,231.9z"/>
		<path class="st188" d="M329.8,231.9c-5.3-2-10.8-0.6-16.2-0.9c-2.8-0.2-5.6,0-8.4-1.1c3.3,0,6.6,0,9.9,0c5.2-0.9,10.5,0,15.7,0.1
			C330.5,230.7,330.2,231.3,329.8,231.9z"/>
		<path class="st189" d="M273,229.9c-2.8,2-5.9,0.9-8.9,0.8c-0.1,0-0.2-0.3-0.2-0.4c0-0.2,0.1-0.3,0.2-0.4
			C267.1,229.3,270,229.3,273,229.9z"/>
		<ellipse class="st190" cx="309.9" cy="219.5" rx="13.8" ry="0.3"/>
		<path class="st191" d="M304.9,147.5c-0.1,4.3-3.2,7.4-7.1,7.1c-3.3-0.2-6.8-4-6.8-7.4c0-4.2,3-7.1,7.2-7.1
			C302.5,140.3,305,142.9,304.9,147.5z"/>
		<path class="st192" d="M414,219c1.8,2.9,0.7,5.9-0.1,8.9c0-2.7,0-5.4,0-8.1C413.8,219.5,413.8,219.3,414,219z"/>
		<path class="st6" d="M333.1,171.2c0.3-3.9,0.6-7.8,0.9-11.7c0.2-2.8,0.8-4.5,4.5-3.7c4.7,1,9.8-1,14.5,1.2
			C346.8,162.4,340,166.8,333.1,171.2z"/>
		<path class="st142" d="M440,102.2c-25-0.1-50-0.1-75-0.2c1.4-1.4,3.1-0.9,4.7-0.9c34.7,0,69.5,0,104.2,0c1.8,0,4.2-1.1,5,1.8
			c-4.3-1.2-8.7-0.9-13-0.7c-4.3,0.6-8.6,0.6-12.9,0c-0.4,0-0.7,0-1.1,0C447.9,102.8,444,102.8,440,102.2z"/>
		<path class="st193" d="M324.9,181.9c-0.2,2.8,0.6,3.9,3.8,4.3c8.3,0.9,16.5-0.8,24.7-0.1c1.7,0.1,3.9-0.8,4.5,1.9
			c-3.2,1.3-6.5,0.6-9.8,0.5c-10.7-0.2-21.5,0.7-32.2-0.4C318.8,185.7,321.7,183.5,324.9,181.9z"/>
		<path class="st194" d="M316,188c14,0,28-0.1,42-0.1c3.5,1.1,1.4,4,1.9,6.1c-0.3,0-0.6-0.1-0.9-0.1c0.5-3.7-0.8-5.2-4.9-5.1
			c-12.7,0.3-25.4,0.1-38.2,0.1C316,188.7,316,188.4,316,188z"/>
		<path class="st84" d="M451,200.1c-1.2,1.3-2.8,0.9-4.2,0.9c-17.5,0-35.1,0-52.6,0c-1.4,0-3,0.4-4.2-1c8-0.7,16-1.8,24-1.4
			C426.4,198.3,438.7,199,451,200.1z"/>
		<path class="st195" d="M451,200.1c-12.3-0.1-24.6-0.1-37-0.2c-0.3-0.6-0.2-1,0.3-1.4c1.2-0.8,2.6-0.8,4-0.9c2.7,0,5.3,0,8,0
			c0.7,0,1.5,0,2.2,0c2.1,0.1,4.1,0.2,6.2,0c0.5,0,0.9,0,1.4,0c1.6,1.6,3.6,1.3,5.6,1.3c7.1,0,14.2,0.1,21.4,0.1
			c-3.6,1.9-7.4,0.3-11.1,1C451.6,200.1,451.3,200.1,451,200.1z"/>
		<path class="st196" d="M414,199.2c0,0.2,0,0.5,0,0.7c-8,0-16,0.1-24,0.1c-0.3-0.1-0.6-0.1-0.9-0.2c0-0.3-0.1-0.5-0.1-0.8
			c3.7,0,7.3-0.1,11-0.1c1.1-1.1,2.6-1.2,4-1.3c0.9-0.1,1.9-0.2,2.8-0.2c1.1,0.1,2.3,0.3,3.4,0.3c0.9,0,1.9,0.1,2.8,0.4
			C413.4,198.4,413.7,198.8,414,199.2z"/>
		<path class="st197" d="M250,98.1c1.4,0.3,2.7,0.3,4-0.4c0,0.2-0.1,0.4-0.1,0.6c0.2,0.9,0,1.3-1,0.9c-17.3,0-34.6,0.1-51.9,0.1
			c-2.6,0-5.2,0-7.8-0.1c-0.4-0.3-0.8-0.7-1.2-1c2.9-2.8,6.5-1.5,9.8-1.8c2.1-0.2,4.3-0.1,6.4,0.1c1.5,0.1,3-0.1,4.5,0.1
			c0.9,0,1.8,0,2.7,0c1.9-0.2,3.6,0.4,5.4,0.9C230.5,97.9,240.3,96.9,250,98.1z"/>
		<path class="st198" d="M252.9,99.2c0.3-0.3,0.7-0.6,1-0.9c0.4-0.7,0.8-1.5,1.2-2.2c0.3,0,0.5,0.1,0.8,0.1c0.1,1.3,0.2,2.6,0.3,3.9
			C255,100,253.8,100.2,252.9,99.2z"/>
		<path class="st108" d="M292.9,299c0.6-1.2,1.5-2,2.9-2.2c2.6,2.3,5.7,0.9,8.5,1.1c4.6,0.4,9.3-0.5,13.9,1c-4,1.8-8.2,0.8-12.3,1.1
			c-1.5,0.1-3,0-4.5,0c-7.3,0-7.3,0-7.7,7.3c-0.2-0.2-0.5-0.3-0.7-0.5c-1.2-2.2-0.6-4.4-0.3-6.7C292.9,299.7,292.9,299.3,292.9,299z
			"/>
		<path class="st199" d="M298.9,286.1c-0.3-0.1-0.6-0.2-0.9-0.3c0.1-0.9,0.1-1.9,0.2-2.8c6.7,0,13.4,0,20.8,0
			c-1.6,2.8-3.5,1.8-5.1,2C308.8,285.7,303.7,283.6,298.9,286.1z"/>
		<path class="st200" d="M299.1,291c0-1.3,0-2.7,0-4c6.4,0,12.8,0,19.2,0c0,0.7,0.1,1.4,0.1,2c-4.5,0-9-0.1-13.6,0.1
			c-1.7,0.1-4.2-1.2-4.8,1.9C299.7,291.4,299.4,291.4,299.1,291z"/>
		<path class="st201" d="M297,296c0.6-1,1.3-2.1,1.9-3.1c0.2,1.7,1.3,1.3,2.5,1.3c5.6-0.1,11.2,0,16.8,0c0,0.6,0,1.3,0,1.9
			C311.1,296,304.1,296,297,296z"/>
		<path class="st202" d="M287.1,276c-1.1,1.2-2.5,1.8-4,2c-4.1,0-8.2,0-12.4,0c0-0.7,0-1.3,0-2C276.1,276,281.6,276,287.1,276z"/>
		<path class="st203" d="M297.2,278c-0.4-0.7-0.8-1.3-1.1-2c7.3,0,14.6,0,22,0c-0.8,2.8-3.3,2.3-5.2,2.3c-4.6,0.1-9.3,0.1-13.9,0
			C298.3,278.3,297.7,278.2,297.2,278z"/>
		<path class="st204" d="M298,277.9c4.5-2,9.3-0.4,13.9-1c2-0.2,4.3,0.8,6.1-1c1.5,1.6,0.2,1.8-1,2
			C310.6,280.2,304.3,280.3,298,277.9z"/>
		<path class="st205" d="M298.1,281c0-0.3,0-0.7,0-1c7-1.7,13.9-1.4,20.9,0c-5,2.2-10.3,0.5-15.4,1C301.8,281.1,299.9,281,298.1,281
			z"/>
		<path class="st206" d="M319,280c-7,0-13.9,0-20.9,0c-0.1-0.3-0.1-0.6-0.1-1c6.3-0.8,12.6-0.8,19,0C317.8,279,318.6,279.2,319,280z
			"/>
		<path class="st207" d="M299.1,291c0.3,0,0.6,0,0.9,0c5.9,0,11.8,0,17.7,0c0,0.4,0,0.7,0,1.1c-6.2,0-12.4,0-18.6,0
			C299.1,291.7,299.1,291.3,299.1,291z"/>
		<path class="st208" d="M317,279c-6.3,0-12.6,0-19,0c-0.3-0.3-0.6-0.7-0.9-1c0.3,0,0.6,0,0.8,0c6.3,0,12.7,0,19,0.1
			C317,278.3,317,278.6,317,279z"/>
		<path class="st209" d="M295.2,332.6c-0.1,0.8-0.3,1.5-0.4,2.3c-0.6-3.4-1.6-6.7,0-9.9C295,327.5,295.1,330.1,295.2,332.6z"/>
		<path class="st5" d="M317,334.9c-2.1,0.1-4.2,0-6.2,1C312.5,332.7,314.8,334.3,317,334.9z"/>
		<path class="st36" d="M296.2,344.5c-0.1,0.3-0.1,0.7-0.3,0.9c-0.2,0.3-0.8,0.9-0.8,0c0-1.9-0.8-3.9,0.9-5.5
			C296.1,341.5,296.1,343,296.2,344.5z"/>
		<path class="st210" d="M294.2,319.7c-2.5-1.4-1.1-3.1-0.3-4.7C294,316.6,294.1,318.2,294.2,319.7z"/>
		<path class="st54" d="M224,378.9c-1.1-2.2-1.4-4,2-4C225.4,376.3,224.7,377.6,224,378.9z"/>
		<path class="st211" d="M292.8,300c0.1,2.2,0.2,4.4,0.3,6.7c-0.4,1.4,0.4,2.9-1,4.6C292.3,307.3,291.1,303.6,292.8,300z"/>
		<path class="st212" d="M288,301.9c0.4-1-1.1-2.6,1.1-3c0,1.1,0,2.2,0,3.4c0,0.5-0.2,0.9-0.7,0.5C288,302.6,288,302.2,288,301.9z"
			/>
		<path class="st77" d="M209,98.1c-5.7,0.1-11.3,0.1-17,0.2c-1.6-6.4-1.6-12.8,0-19.2c0.3-0.1,0.7-0.1,1-0.2
			c10.3,0.1,20.7,0.2,31,0.4c0,0.3,0,0.5,0,0.8c-0.7,0.9-1.7,1.1-2.8,1.3c-0.8,0.1-1.5,0.1-2.3,0.1c-3.3-0.3-4.2,2-4.9,4.4
			C212.7,90.1,211.8,94.5,209,98.1z"/>
		<path class="st213" d="M429.1,198.9c-0.7,0-1.5,0-2.2,0c-1.5-2.1-0.4-4.2-0.1-6.2c2.1-13.1,3.5-26.3,5.2-39.5
			c0.2-1.7-0.4-3.3-0.3-4.9c0.3-0.4,0.8-0.5,1.2-0.3c2.2,0.8,4.3,1.5,6.5,2.3c3.6,0.8,4.4,3.7,4.8,6.8c-0.3,2.6,1.5,5.1,0.2,7.7
			c-1.9,1.7-4.1,1.2-6.3,1c-2.5-1.4-3.3-3.8-3.5-6.4c0,0,0-0.3,0-0.3s-0.2,0.3-0.2,0.4c0.3,2.6,0.8,5.2,2.4,7.3
			c1,2.2,1.8,4.4-0.8,6.2c-1.6,5.2-3.6,10.2-3.4,15.7c-0.8,1.7-0.1,3.4,0.2,5.1C433,196.4,431.3,197.8,429.1,198.9z"/>
		<path class="st214" d="M432,104c5.8,4.2,4.4,10.9,5.9,16.6c0.3,1.1,0.1,2.3,0.2,3.4c1.4,1.8,2.4,3.7,0.9,6c-0.7,5-1.5,10-2.2,15
			c-3.1,2.9-2.8-0.6-2.9-1.8c-0.5-5.1-0.2-10.2,0.6-15.4c-0.9,1.4,0.7,5.1-3.1,2.9c-1.2-2.1-0.6-4.5-0.8-6.7c0-1.2-0.3-2.4-0.2-3.6
			c1.1-3.1-1.1-5.5-1.9-8.2c0.5-1.7,1.1-3.3,1.1-5.2C429.4,105.5,429.4,103.6,432,104z"/>
		<path class="st215" d="M414,199.2c-0.3-0.1-0.7-0.2-1-0.3c-2.6-1.8-1.8-4.6-1.5-6.8c1.5-12.8,3.7-25.6,5.1-38.4
			c0.3-2.5,1.6-4.7,2.2-7.1l-0.2-0.3l0.2-0.3c0.4-0.3,0.8-0.3,1.2-0.1c1,0.8,0.9,2.3,1.7,3.2c0.9,0.2,1.9-0.6,2.7,0.3
			c0.6,3.2-1.8,5.7-2.4,8.7c-2.3,11.3-1.7,23-4.6,34.2c-0.6,2.2-0.6,4.5,0.5,6.6C416.6,199,415.3,199.1,414,199.2z"/>
		<path class="st216" d="M406.2,125.1c1.3-4.9,1-10.2,3.2-14.9c0.9-2,1.6-4,3.7-5c2.2-0.4,2.8,1.4,2.2,2.5c-1,1.9,0.7,3.2,0.4,4.8
			c-0.2,2.8-1.5,5.4-1.1,8.2c0.4,1.6,0.8,3.3,0.7,5c0,0.7-0.2,1.4-0.5,2.1c-0.2,0.4-0.4,0.8-0.7,1.2c-1.3,2.1-0.3,4.6-1.3,6.7
			c-1,1.5-1.7,3.1-2.2,4.9c-0.3,1.1-0.7,2.5-2.1,2.3c-1.6-0.2-1.8-1.7-1.7-3c0.1-1.3,0.5-2.6,0.7-3.8c0.4-1.7,0.4-3.5-0.2-5.2
			C406.8,129,407.3,126.9,406.2,125.1z"/>
		<path class="st217" d="M418.8,146.5c-1,7.3-2.3,14.6-2.9,21.9c-0.8,10.2-4.5,20-2.9,30.4c-1,0-2,0-3,0c-2.4-1.2-1.6-3.5-1.4-5.3
			c1.5-13.3,3.2-26.6,5.1-39.9c0.3-1.9,0.9-3.5,2.4-4.8C416.9,148.1,417.8,147.3,418.8,146.5z"/>
		<path class="st218" d="M416,148.9c-2.8,16.6-5.8,33.1-6,49.9c-1.2,0.1-2.5,0.5-3.3-0.9c-0.5-4.9,0.1-9.7-0.1-14.6
			c0-1.6,0-3.3,0-4.9c0-1.3,0-2.6,0.3-3.8c2.8-5.8,2.2-12.3,3.5-18.4c0.6-2.7,0.4-5.8,3.6-7.2C414.6,149.1,415.3,149,416,148.9z"/>
		<path class="st219" d="M413.9,149.1c-3.4,5.9-2.7,12.6-3.9,18.9c-0.4,2.3-0.5,4.6-2.2,6.3c-1.2,0-1.8-1-2.5-1.7
			c-1-1.1-1.7-2.4-2.2-3.7c0.7-3.6,1.4-7.1,2-10.7C405.9,153.1,408.5,149.7,413.9,149.1z"/>
		<path class="st220" d="M408,136c1.7,2-2,4.3,0.5,6.3c2.2-1.5-0.2-5.5,3.4-6.3c0.7,0,1.3,0.3,1.8,0.7c0.9,0.9,1.6,2.1,2.7,2.9
			c1.9,1.7,5.8,2.2,3.5,6.2l-0.5,0c0,0-0.5,0-0.5,0c-4.9-1.3-9.7,0.2-15,0.8c0.8-7.3,1.6-14.4,2.4-21.6c2.5,1.4,1.6,3.8,1.8,6
			c0,0.2,0,0.4,0,0.6c0,1.2,0,2.5,0,3.7C408,135.6,408,135.8,408,136z"/>
		<path class="st221" d="M405.9,172c0.6,0.8,1.3,1.5,1.9,2.3c0,1.3-0.1,2.5-0.1,3.8c-0.5,1.8-0.1,3.7-0.2,5.5
			c-0.9,5.1,0.1,10.5-2.5,15.3c-1.7,0-3.4,0-5,0c0.3-2.4-0.7-4.9,0.9-7.1c1.8-5.1,1.1-10.6,2.4-15.8
			C403.7,174.5,403.3,172.2,405.9,172z"/>
		<path class="st0" d="M482.9,156c0,4,0,8,0,12c-1.3,3.6,0.4,7.4-1,11c-0.7-0.6-1.7-1.1-2.2-1.9c-1.3-1.9-1.1-14.4,0.4-16.2
			c1.3-1.5,0-3.7,1.8-4.9C482.3,155.5,482.6,155.6,482.9,156z"/>
		<path class="st222" d="M414.9,112c-2.3-1.9,1.2-5.3-1.9-6.9c2.5-3,5.8-1.9,8.9-1.9c1.9,2.4,1.3,5,1,7.7c-0.2,0.5-0.4,0.9-0.8,1.3
			C419.7,112.6,417.3,112.8,414.9,112z"/>
		<path class="st223" d="M431.9,131c3.3-1.2,0.3-4.4,3-7c0,4.7,0,8.6,0,12.4c0,2.5,0,5,0,7.4c0,1.5,0.7,1.6,1.9,1.2
			c0.5,2.4-1.5,1.5-2.5,1.8c-0.5-0.1-0.9-0.3-1.1-0.7c-1.4-2.5-0.2-5.1-0.5-7.5c-0.7,1.7,0.7,4.4-2,5.3c-1.3,0.5-1.9-1-2.3-2.1
			c-0.2-2.6,1-5,1.2-7.5c0-0.5,0.1-0.9,0.2-1.4c0.1-0.7,0.4-1.4,0.8-2C431.1,130.7,431.5,130.7,431.9,131z"/>
		<path class="st224" d="M405.9,172c-2.7,5.4-2,11.4-3.4,17c-0.4,1.3-0.6,2.7-1,4.1c-0.1-0.1-0.3-0.1-0.4-0.2
			c-0.1-0.3-0.2-0.6-0.3-0.9c-0.3-7.8,0.5-15.5,2.2-23C404,169.9,405,171,405.9,172z"/>
		<path class="st0" d="M443.3,157.3c-0.2-2.9-1.9-5.1-3.8-7.2c2.5-0.2,5.1-0.6,5.5,3c0.3,2.2,1.7,1.1,3,1c3.3-0.3,3.7,1.3,2.1,3.8
			c-1,0.3-1.8,1.2-2.7,1.6c-0.4,0.2-0.8,0.4-1.2,0.5C443.4,161.1,443.6,159,443.3,157.3z"/>
		<path class="st225" d="M432,104c-2.1,0.7-1.6,2.5-1.5,4c0.1,1.7-0.3,3.1-1.6,4.2c-0.4,0.3-0.9,0.4-1.4,0.3
			c-3.7-2.1-3.9-6.3-0.6-9.3C428.7,103.2,430.6,102.4,432,104z"/>
		<path class="st226" d="M482.9,156c-0.3,0-0.7,0-1,0c0-3.7,0-7.3,0-11c-0.8-5.7-0.8-11.3,0-17c0-1.3,0-2.7,0-4
			c-1.1-1.3-1.1-2.7,0-4c0-0.8,0.2-1.6,1-2C482.9,130.7,482.9,143.4,482.9,156z"/>
		<path class="st0" d="M453.9,162.8c-1.5,4.4-3.9,8-8.2,10.1c-0.6-0.6-0.8-1.3-0.9-2.1c-0.1-1.8,0.4-3.5,1.4-5
			c1.4-1.8,3.6-2.4,5.5-3.4C452.5,162.3,453.2,162.4,453.9,162.8z"/>
		<path class="st227" d="M427,103.2c-1,3-3.4,6.3,1,8.7c-2,1.7-3.9,3.7-6.1,0.3l0.2-0.4c1.1-2.8-0.4-5.7,0.8-8.5
			C424.3,103.3,425.6,103.2,427,103.2z"/>
		<path class="st228" d="M452,163.2c-0.9,2.2-3.5,1.5-4.9,2.9c-1.6-2.4-0.3-4.8-0.2-7.2c1-0.8,1.8-2,3.3-0.9
			c-0.3,2.1,0.8,1.4,1.8,0.9C453.3,160.4,452.9,161.8,452,163.2z"/>
		<path class="st229" d="M436.2,172.8c0.7-1.9,0.9-3.8-0.1-5.7c0.3-0.4,0.7-0.6,1.3-0.6c4.9,3.7,5.5,5.1,4,10.4c-2.1,1-2.4-1-3.3-2
			C438,173.7,437.4,173,436.2,172.8z"/>
		<path class="st0" d="M438,174.9c1,0.7,2,1.5,2.9,2.2c1.3-0.3,1.8-1.7,2.9-2.3c0.4-0.2,0.8-0.1,1.1,0.2c-0.3,2.2,1,5.7-2.6,5.8
			C439.1,180.9,438.9,177.3,438,174.9z"/>
		<path class="st0" d="M432.1,193.9c0.1-1.8-0.3-3.7,0.7-5.4c-0.2,3.5,4.5,5.3,3.2,9.1c0,0,0,0.3,0,0.3
			C432.7,198.5,432.7,195.9,432.1,193.9z"/>
		<path class="st0" d="M482.9,182c0,0.3,0,0.7,0,1c-0.2,0.2-0.4,0.5-0.7,0.7c-1,1,0.9,3.8-1.9,3.7c-1,0-1.6-1.4-1.2-2.4
			C479.9,183.5,479.8,180.6,482.9,182z"/>
		<path class="st0" d="M481.9,128.1c0,5.7,0,11.3,0,17C480.3,139.4,480.3,133.7,481.9,128.1z"/>
		<path class="st230" d="M452,163.2c0-1.4,0-2.8-0.1-4.2c0.5-0.8,1-1.8,2.1-1.6c1.3,0.2,1,1.5,0.8,2.3c-0.2,1.1-0.6,2.1-1,3.1
			C453.2,163,452.6,163.1,452,163.2z"/>
		<path class="st0" d="M439,130c-0.3-2-0.6-4-0.9-6c0.9,0.5,2.4-1.1,2.8,1C441.3,127.1,441.2,129,439,130z"/>
		<path class="st0" d="M453,102.2c4.3,0,8.6,0,12.9,0C461.6,103.6,457.3,103.6,453,102.2z"/>
		<path class="st0" d="M440,102.2c4,0,7.9,0,11.9,0C447.9,103.6,444,103.6,440,102.2z"/>
		<path class="st0" d="M481.9,120.1c0,1.3,0,2.7,0,4c-1.5,0-3.1-0.1-2.9-2.2C479.2,120,480.7,120.1,481.9,120.1z"/>
		<path class="st226" d="M481.9,179c0.5-3.6-1.1-7.5,1-11c0,3.7,0,7.3,0,11c0,0-0.5,0-0.5,0L481.9,179z"/>
		<path class="st0" d="M448.4,126.1c-1.1-3.2-3.4-0.3-3.9-2.9c-0.1-0.4,0.7-1.4,1-1.4C447.2,121.8,448.1,122.7,448.4,126.1z"/>
		<path class="st76" d="M422.9,103.3c-0.3,2.8,1.1,5.8-0.8,8.5c0-2.8-0.1-5.7-0.1-8.5C422.3,103,422.6,103,422.9,103.3z"/>
		<path class="st231" d="M444.9,175c-0.3,0.1-0.6,0.1-1,0.1c-1.7-2-1.7-4.1,0-6.1c1.9-0.6,1.2,1.4,1.9,1.9c0,0.7-0.1,1.3-0.1,2
			C445.5,173.6,445.2,174.3,444.9,175z"/>
		<path class="st0" d="M433.9,146.2c0.1,0.2,0.3,0.5,0.4,0.7c-0.5,0.3-0.9,0.6-1.4,1c-0.3,0.1-0.7,0.2-1,0.3
			c-2.2,0.6-2.7-0.3-2.1-2.3C431.3,144.8,432.6,145,433.9,146.2z"/>
		<path class="st232" d="M221,80.1c1,0,2,0,3,0c2.1,2.3-0.1,4.3-0.7,6.3c-1.2,3.5-2.9,6.9-3.3,10.7c0.4,0.2,0.5,0.4,0.4,0.7
			c-0.1,0.2-0.2,0.3-0.4,0.3c-1.7,0-3.3,0-5,0C215.2,91.5,217.3,85.5,221,80.1z"/>
		<path class="st233" d="M220,98.1c0-0.3,0-0.7,0-1c8.3,0,16.6,0,24.9,0c1.7,0,3.7-0.7,5.1,1C240,98.1,230,98.1,220,98.1z"/>
		<path class="st234" d="M253.6,80.2c0.8,5.6,0.5,11.2,0.2,16.7C252.4,91.4,252.7,85.8,253.6,80.2z"/>
		<path class="st235" d="M217.1,239.2c6.6,0,13.2,0,19.8,0C230.3,240.5,223.7,240.5,217.1,239.2z"/>
		<path class="st236" d="M226.9,222.9c1.9,0,3.9,0,5.8,0c-4.2,0.6-8.5,2.2-12.6,0.1C222.3,223,224.6,223,226.9,222.9z"/>
		<path class="st237" d="M198.1,196c0,0.6,0,1.1,0.1,1.7c-0.1,1.4-0.3,2.8-0.4,4.2C197.1,199.9,196.3,197.8,198.1,196z"/>
		<path class="st1" d="M277,250c0-4.5,0-9-0.1-13.5c-0.1-2.5,0.9-3.6,3.5-3.5c9.8,0.1,19.6,0,29.4,0c2,0,4,0.3,4,2.7
			c-0.1,4.8,1.1,9.6-0.8,14.3c-1.3,1.3-3,1.3-4.6,1.4c-8.9,0.1-17.8,0-26.8,0C280,251.4,278.3,251.2,277,250z"/>
		<path class="st238" d="M277,250c12,0,24,0,36,0c0.3,0.7,0.6,1.4,0.9,2c-3.7,2.6-8,1-12,1.4c-1.8,0.2-3.6,0.1-5.4,0
			c-4.7,0.1-9.3-0.2-14,0.3c-2-0.2-4-0.3-5.6-1.8C277,251.3,277,250.7,277,250z"/>
		<path class="st239" d="M296,252.1c6,0,12,0,17.9,0c0.3,2.5-1.2,3-3.3,3c-4.9-0.1-9.8-0.1-14.6-0.1C295.2,254,295.2,253,296,252.1z
			"/>
		<path class="st240" d="M296,252.1c0,0.9,0,1.9,0,2.8c-4.7,0-9.3,0-14,0c-0.6-0.7-0.5-1.3,0-2C286.6,251.1,291.3,252.3,296,252.1z"
			/>
		<path class="st241" d="M291,261c-1.8,0-3.6,0-5.4-0.2c-1.3-0.1-1.6-0.9-0.6-1.9c4.3-0.7,8.6-0.7,12.9,0c0.8,0.4,1,1.2,1,2
			C296.3,261.8,293.7,261.7,291,261z"/>
		<path class="st242" d="M299.9,261c0-2.5,0.8-4.4,3.8-3.8c2.1,0.4,2.7,2.1,2.1,3.8c-1.2,3.2-3.6,2.1-5.8,1.1
			c-0.4-0.2-0.5-0.4-0.4-0.6C299.7,261.1,299.8,261,299.9,261z"/>
		<path class="st243" d="M278,258c1.7-1.7,3.4-1.3,4.5,0.5c0.9,1.4,0.6,3-0.8,3.9c-1.4,0.9-3,0.9-4-0.5
			C276.6,260.6,275.6,259.1,278,258c0.3,0.3,0.6,0.6,0.9,0.9C278.6,258.6,278.3,258.3,278,258z"/>
		<path class="st244" d="M282,252.9c0,0.7,0,1.3,0,2c-2.1-0.2-5.2,1.3-5-2.9C278.7,252.3,280.6,251.3,282,252.9z"/>
		<path class="st245" d="M298,258.9c-4.3,0-8.6,0-12.9,0C289.3,257.4,293.7,257.4,298,258.9z"/>
		<path class="st246" d="M299.9,261c0,0.3,0,0.7,0.1,1c-3-0.4-6.2,1-9-1c2.6,0,5.3,0,7.9,0C299.3,261,299.6,261,299.9,261z"/>
		<path class="st247" d="M430.2,146.3c0,1.2,0.8,1.6,1.8,1.9c1.2,1,1.8,1.9,1.5,3.7c-2.2,15.6-3.6,31.4-6.6,46.9c-3,0-6,0-9,0
			c-1.2-1-2.6-1.1-2.2-3.8c1.7-10.4,3.6-20.8,3.9-31.5c0.1-3.5,2.4-6.8,1.5-10.7c-0.3-1.2,3.8-1,2.9-3.8c-0.4-0.8,0-1.3,0.5-1.9
			c0.9-0.8,1.9-1.6,3.1-1.9C428.6,145.2,429.6,145.2,430.2,146.3z"/>
		<path class="st248" d="M432.1,193.9c1,1.6,2.2,3.1,3.9,4c-2.1,2.1-4.6,0.8-6.9,0.9C430,197.1,432.1,196.2,432.1,193.9z"/>
		<path class="st249" d="M405,199c-0.2-5.4,1.3-10.6,2-16c0.3-0.5,0.6-0.4,0.8,0c-0.3,5,1.5,10.1-1.1,15
			C406.1,198.3,405.5,198.6,405,199z"/>
		<path class="st250" d="M209,98.1c0.9-5.6,3.4-10.7,4.9-16.1c0.8-2.9,3.2-1.6,5-1.9c-0.5,6.5-2.5,12.5-5.9,18
			C211.7,98.1,210.3,98.1,209,98.1z"/>
		<path class="st251" d="M213,98.1c2-6,3.9-12,5.9-18c0.7,0,1.4,0,2.1,0c-2,6-4,12-6,18C214.4,98.1,213.7,98.1,213,98.1z"/>
		<path class="st252" d="M444.9,169c-1.8,1.8-0.7,4-1,6.1c-0.3,1.8-0.6,3.4-3,2c0.6-4.2-0.6-7.6-4.1-10.1c-0.3-1,0.2-1.6,1.1-1.9
			c2-0.1,3.9-0.1,5.9-0.2c0.6-0.3,1.1-0.2,1.5,0.3C446.1,166.5,445.8,167.8,444.9,169z"/>
		<path class="st253" d="M437.9,165.1c-0.4,0.6-0.7,1.3-1.1,1.9c-0.3,0.1-0.5,0.1-0.8,0.2c-3.5-2.8-1.7-6.7-2.1-10.1
			c1.1-0.7,1.4,0.4,1.9,1C434.7,161,437.4,162.7,437.9,165.1z"/>
		<path class="st254" d="M445,165c-0.4,0-0.8-0.1-1.1-0.1c-0.2-2.5-0.4-5-0.6-7.6c0.9,0.6,0.4,3.2,2.7,1.8
			C446.8,161.3,447.9,163.5,445,165z"/>
		<path class="st255" d="M435.9,158.1c-0.6-0.3-1.3-0.6-1.9-1c0.2-0.7,0.1-1.9,1.2-1.5C436.3,156,435.8,157.2,435.9,158.1z"/>
		<path class="st215" d="M438.3,157.5c-0.4-0.9-0.7-1.6-1-2.3c0-0.1,0.5-0.4,0.6-0.4C438.8,155.5,439.3,156.2,438.3,157.5z"/>
		<path class="st256" d="M421.9,112.1c2.1,2.2,4-1.2,6.1-0.3c0.3,0.1,0.6,0.2,0.9,0.3c2.4,2.2,4.7,4.4,2,7.8c-1.4,1-2.9,0.8-4.2-0.2
			c-3-2.2-6.2-2.2-9.5-1c-0.9,0.5-1.7,1.2-2.4,1.9c-0.5,0.4-1,0.7-1.7,0.4c-0.7-3.3,1-6.1,1.8-9.1
			C417.3,111,419.6,110.8,421.9,112.1z"/>
		<path class="st257" d="M416,118.3c3.8-2.2,7.6-2.6,11,0.5c1.3,1.2,2.6,0.9,3.9,1.2c0.3,1,0.6,1.9,0.9,2.9c-0.6,1-0.2,2.2-0.6,3.2
			c-0.4,0.2-0.8,0.3-1.2,0.2c-1-0.8-1.6-2.1-2.6-2.8c-2.3-2.8-5.5-2.6-8.6-2.5C417.7,120.2,416.8,119.3,416,118.3z"/>
		<path class="st258" d="M431,126.1c0.3-1.1,0.6-2.1,0.8-3.2c0,2.7,0.1,5.4,0.1,8.2c-0.3,0-0.5,0-0.8,0
			C429.4,129.5,429.7,127.8,431,126.1z"/>
		<path class="st259" d="M430.8,134.1c-0.3,2.7,0,5.6-2.1,7.8c-0.3,1.1-0.9,2-1.9,2.5c-0.8,0.2-1.7,0.1-2.5,0.1
			c-3.2,1-1.2,4.8-3.2,6.4c-2-1.3-0.5-3.4-1.2-5c1.4-4.4-3.7-3.6-4.8-6c-1.1-1.2-0.3-2.2,0.4-3.2c0.5-0.4,1.2-1,1.7-0.8
			C422.1,137.7,426.4,136,430.8,134.1z"/>
		<path class="st260" d="M421,150.9c1.1-2.7-3-8,3.9-7.8c1.3,1.6,1.2,3.2,0,4.8c-0.3,0.4-0.6,0.8-0.9,1.2
			C423,149.8,422.8,151.6,421,150.9z"/>
		<path class="st261" d="M431,126.1c0,1.7,0.1,3.4,0.1,5c-0.1,0.6-0.2,1.3-0.3,1.9c-1.8,0.8-3.3,2.2-5.4,2.2
			c-1.2,0.1-2.3,0.1-3.5,0.2c-2.9,0.7-5.4,0-7.5-2.3c-0.8-1.7-1.4-3.4-0.6-5.2c0.1-0.6,0.2-1.2,0.3-1.9c0.5-0.6,1.2-0.7,2-0.7
			c0.7,0.2,1.3,0.6,1.8,1.1c3.5,3.5,6.3,0.9,9.2-1c1-0.3,1.9-0.2,2.7,0.5C430.2,126,430.6,126,431,126.1z"/>
		<path class="st262" d="M413.8,127.9c1.1,1.5,1.2,3.3,1.1,5.1c1.1,1.1,1.6,2.4,1.1,3.9c-0.3,1-0.7,1.9-1,2.9
			c-0.7-0.9-1.5-1.7-2.2-2.6c-0.4-3-0.8-6.1,0.2-9.1C413.3,128,413.5,128,413.8,127.9z"/>
		<path class="st257" d="M416.1,126c-0.7,0-1.3,0-2,0.1c-0.3-1.7-0.7-3.3-1-5c0.3-0.4,0.6-0.7,0.9-1.1c1.2-0.6,2.3-0.9,3.6-0.4
			c1.3,1,0.6,2.2,0.3,3.4C417.4,124,417.1,125.2,416.1,126z"/>
		<path class="st263" d="M413,128.2c-0.1,3-0.1,6.1-0.2,9.1c-0.3-0.4-0.7-0.8-1-1.2C412.6,133.5,410.8,130.5,413,128.2z"/>
		<path class="st76" d="M408,131.1c1.5,1.7,1.5,3.3,0,5c0,0,0,0,0,0C407.2,134.4,407.2,132.7,408,131.1L408,131.1z"/>
		<path class="st264" d="M407.8,183c-0.3,0-0.6,0-0.8,0c0.1-1.7-0.5-3.4,0.7-4.9C407.7,179.7,407.8,181.4,407.8,183z"/>
		<path class="st223" d="M408,131c0,1.7,0,3.3,0,5C406.5,134.4,406.5,132.7,408,131z"/>
		<path class="st265" d="M416,136.9c-0.8-1.2-1.3-2.4-1.1-3.9c2.3,0.7,4.4,2.4,7,1c1.3,1.2,2.6,1.2,3.9,0c1.8,0.3,2.9-2.5,4.9-1.1
			c0,0.4,0,0.7,0,1.1C426.7,139.3,421.3,137.8,416,136.9z"/>
		<path class="st266" d="M426.7,144c0-1.4,0.7-2.1,2-2.1c1,0.2,2.6,3.8,2.8-0.6c0.1-1.9,0.5-3.7,1.6-5.6c0.3,3.5,0.5,7,0.8,10.5
			c-1.2,0-2.5,0.1-3.7,0.1c-1-0.1-2-0.2-3-0.2C426.4,145.5,426.3,144.8,426.7,144z"/>
		<path class="st267" d="M445,165c1.8-1.7,0.7-3.9,1-5.9c0.3-0.1,0.6-0.2,0.9-0.3c2.2,2.3-0.1,4.8,0.2,7.2c-0.4,1.6-0.8,3.2-1.2,4.9
			c-0.8-0.4-0.9-1.2-0.9-1.9C444.9,167.7,445,166.4,445,165z"/>
		<path class="st268" d="M304.7,260c-0.1,1-0.8,1.7-1.9,1.6c-0.8-0.1-1.5-0.7-1.5-1.6c0-1.1,0.8-1.8,1.9-1.7
			C304.1,258.4,304.6,259,304.7,260z"/>
		<path class="st269" d="M278,258c1.4,0,3-0.1,3.6,1.6c0.1,0.4-0.3,1.5-0.7,1.6C277.8,262.2,278.1,259.9,278,258
			C278,258,278,258,278,258z"/>
		<path class="st270" d="M426.7,144c0.2,0.7,0.3,1.4,0.5,2c-0.4,1.1-1,1.8-2.2,1.9c0-1.6,0-3.2,0-4.8
			C425.5,143.4,426.1,143.7,426.7,144z"/>
		<path class="st271" d="M418,120.3c-1.3-0.1-2.7-0.2-4-0.3c0.7-0.6,1.3-1.2,2-1.7c1.4-0.1,2.6,0.1,3,1.7
			C418.7,120.4,418.4,120.5,418,120.3z"/>
		<path class="st272" d="M418,120.3c0.3-0.1,0.7-0.2,1-0.3c3.4-0.4,6.9-1,9,2.8c0.2,1.2,0,2.3-0.9,3.1c-2.3,4.9-6.8,5.3-10,0.9
			c0.6-1.3,0.4-2.6-0.1-3.9C417.3,122,417.6,121.1,418,120.3z"/>
		<path class="st273" d="M427,125.9c0-1.1-0.6-2.4,0.9-3.1c2.2,0.1,2.3,1.5,1.8,3.2C428.8,126,427.9,125.9,427,125.9z"/>
		<path class="st274" d="M417,122.9c1,0.1,1.9,0.4,2,1.6c0.1,1.4-0.7,2-1.9,2.3c-0.3-0.3-0.6-0.5-0.9-0.8
			C415.9,124.8,415.9,123.7,417,122.9z"/>
		<path class="st104" d="M425.9,134.1c-0.1,1.1-0.5,1.8-1.7,1.9c-1.3,0.1-2.1-0.5-2.2-1.9C423.3,134.1,424.6,134.1,425.9,134.1z"/>
	</g>
</g>
<path class="st271" d="M424.7,120l1.5,0.4l4.3-0.7c0,0-2.6-1.7-3.3-1.1c0,0-1.8,0.3-2.1,0.9C424.7,120,424.7,120,424.7,120z"/>
<ellipse class="st273" cx="417.4" cy="125.1" rx="1.7" ry="2.2"/>
<g>
	<path class="st273" d="M417.5,131.4c1.4,0.8,2.8,1.4,4.2,1.5c0.7,0,1.4,0,2.2-0.2c0.7-0.2,1.4-0.5,2.2-0.8
		c-0.5,0.6-1.1,1.2-1.9,1.5c-0.8,0.4-1.6,0.5-2.5,0.5c-0.9-0.1-1.7-0.3-2.4-0.8C418.6,132.7,417.9,132.1,417.5,131.4z"/>
</g>
<ellipse class="st273" cx="428.4" cy="125.1" rx="1.7" ry="2.2"/>
</svg>
