<?xml version="1.0" encoding="utf-8"?>
<!-- Generator: Adobe Illustrator 25.2.1, SVG Export Plug-In . SVG Version: 6.00 Build 0)  -->
<svg version="1.1" id="Capa_2_1_" xmlns="http://www.w3.org/2000/svg" xmlns:xlink="http://www.w3.org/1999/xlink" x="0px" y="0px"
	 viewBox="0 0 94.9 93.9" style="enable-background:new 0 0 94.9 93.9;" xml:space="preserve">
<style type="text/css">
	.st0{fill:#4D4D4D;}
</style>
<g>
	<path class="st0" d="M47,1.2C21.5,1.2,0.8,21.9,0.8,47.5S21.5,93.7,47,93.7S93.3,73,93.3,47.5S72.5,1.2,47,1.2z M47,90.7
		c-23.9,0-43.3-19.4-43.3-43.3S23.2,4.2,47,4.2s43.3,19.4,43.3,43.3S70.9,90.7,47,90.7z"/>
	<path class="st0" d="M43.5,17.2L21.4,67.6h9.1l5-11.4h25.2l5,11.4h9.1L52.6,17.2H43.5z M38.9,48.3L48,27.6l9.1,20.7H38.9z"/>
</g>
</svg>
