<?xml version="1.0" encoding="utf-8"?>
<!-- Generator: Adobe Illustrator 25.2.1, SVG Export Plug-In . SVG Version: 6.00 Build 0)  -->
<svg version="1.1" id="Capa_2_1_" xmlns="http://www.w3.org/2000/svg" xmlns:xlink="http://www.w3.org/1999/xlink" x="0px" y="0px"
	 viewBox="0 0 94.9 93.9" style="enable-background:new 0 0 94.9 93.9;" xml:space="preserve">
<style type="text/css">
	.st0{fill:#4D4D4D;}
</style>
<g>
	<path class="st0" d="M47,1.2C21.5,1.2,0.8,21.9,0.8,47.5c0,25.6,20.7,46.2,46.2,46.2S93.3,73,93.3,47.5S72.5,1.2,47,1.2z M47,90.7
		c-23.9,0-43.3-19.4-43.3-43.3C3.7,23.5,23.2,4.2,47,4.2s43.3,19.4,43.3,43.3C90.3,71.4,70.9,90.7,47,90.7z"/>
	<path class="st0" d="M58.7,45.7c0.9-0.4,1.5-0.7,1.8-0.8c0.3-0.2,1-0.6,1.9-1.3c2.5-1.9,3.7-4.8,3.7-8.8c0-3.3-1.2-6.2-3.5-8.8
		c-1.2-1.4-3-2.5-5.5-3.3s-5.4-1.2-8.8-1.2H28.7v50.3h22c6.9,0,11.7-1.6,14.5-4.7c2.4-2.7,3.6-5.8,3.6-9.3c0-3.2-0.9-5.8-2.8-8
		C64.1,47.6,61.8,46.4,58.7,45.7z M37.2,29.4h10.9c3.1,0,5.4,0.5,6.9,1.6c1.5,1.1,2.2,2.8,2.2,5.2c0,4.2-3.1,6.3-9.2,6.3H37.2V29.4z
		 M57.7,62.5c-1.7,1-4,1.5-7.2,1.5H37.2V50.2h12.2c7.2,0,10.7,2.2,10.7,6.7C60.2,59.7,59.4,61.5,57.7,62.5z"/>
</g>
</svg>
