<?xml version="1.0" encoding="utf-8"?>
<!-- Generator: Adobe Illustrator 25.2.1, SVG Export Plug-In . SVG Version: 6.00 Build 0)  -->
<svg version="1.1" id="Capa_2_1_" xmlns="http://www.w3.org/2000/svg" xmlns:xlink="http://www.w3.org/1999/xlink" x="0px" y="0px"
	 viewBox="0 0 94.9 93.9" style="enable-background:new 0 0 94.9 93.9;" xml:space="preserve">
<style type="text/css">
	.st0{fill:#0088F9;}
</style>
<g>
	<path class="st0" d="M49.1,4.8C49.8,5.1,50.6,5,51.4,5c6,0.7,11.7,2.6,16.8,5.8c3.4,2.2,6.4,4.7,9.1,7.8c0.1,0.2,0.3,0.3,0.4,0.5
		c0.4,0.5,0.6,0.5,1.1,0.1c1.4-1.5,2.9-2.9,4.3-4.4c0.6-0.6,1.2-0.7,1.9-0.5c0.7,0.2,1.1,0.7,1.2,1.4c0.4,2.1,0.7,4.1,0.8,6.2
		c0.1,2.1,0.3,4.1,0.3,6.2c0,1.8-0.1,3.7-0.1,5.5c0,1.3-0.8,2.1-2.1,2.2c-3.6,0.2-7.1,0.2-10.7,0c-2.3-0.1-4.6-0.4-6.8-0.8
		c-0.8-0.1-1.5-0.3-1.8-1.2c-0.3-0.9,0-1.6,0.7-2.2c1.6-1.6,3.3-3.3,4.8-5c0.3-0.3,0.3-0.5,0-0.9c-4.5-5.6-10.3-9.2-17.3-10.9
		c-3.3-0.8-6.7-1-10-0.6c-7.9,0.9-14.7,4.2-20,10.1c-3.2,3.5-5.3,7.6-6.7,12.2c-1,3.3-1.4,6.6-1.3,10c0.2,4.5,1.3,8.7,3.3,12.8
		c1.6,3.3,3.7,6.2,6.4,8.7c4.3,4,9.3,6.6,15,7.9c1.9,0.4,3.9,0.7,5.8,0.8c1.9,0.1,3.8,0,5.7-0.4c3.7-0.9,7.4-2,10.7-4
		c4.8-2.9,8.6-6.7,11.3-11.7c1.7-3.1,2.9-6.4,3.5-10c0.1-0.7,0.2-1.3,0.4-2c0.7-2.2,2.7-3.4,4.7-3.2c2.1,0.2,3.9,1.8,4.2,4
		c0.2,1.3-0.1,2.4-0.4,3.6c-0.7,3.4-1.7,6.7-3.2,9.9c-2.3,4.7-5.4,8.8-9.2,12.4c-3.7,3.6-8,6.1-12.8,8c-2.9,1.1-5.8,1.8-8.9,2.3
		c-1.9,0.3-3.9,0.4-5.8,0.4C39,86,31.9,84,25.4,79.8c-1.5-0.9-3-1.9-4.3-3.1c-5-4.6-9.2-9.8-11.6-16.2C8.3,57.1,7.3,53.7,7,50
		c-0.4-3.8-0.3-7.5,0.3-11.3c0.6-3.6,1.8-7,3.2-10.3c2.2-5.1,5.5-9.3,9.5-13.1c1.2-1.1,2.6-2.1,3.9-3.1c3.7-2.9,7.9-4.7,12.3-6
		C38.8,5.5,41.4,5,44,4.9c0.1,0,0.3,0.1,0.4-0.1C46,4.8,47.5,4.8,49.1,4.8z"/>
</g>
</svg>
