<?xml version="1.0" encoding="utf-8"?>
<!-- Generator: Adobe Illustrator 25.2.1, SVG Export Plug-In . SVG Version: 6.00 Build 0)  -->
<svg version="1.1" id="Capa_1" xmlns="http://www.w3.org/2000/svg" xmlns:xlink="http://www.w3.org/1999/xlink" x="0px" y="0px"
	 viewBox="0 0 485 456" style="enable-background:new 0 0 485 456;" xml:space="preserve">
<style type="text/css">
	.st0{fill:#FCFCFC;}
</style>
<g>
	<path class="st0" d="M47.2,229.4c-0.4-32.3,24.6-60.8,55.5-65.6c21.8-3.4,40.8,2.3,56.8,17.5c2.9,2.7,4.9,1.5,7.4,0.3
		c23.5-11.4,46.9-22.8,70.4-34.2c20.8-10.1,41.5-20.3,62.4-30.2c3.4-1.6,4.6-3.4,4.3-7.2c-3.2-34.8,22.1-66.3,57.4-70.9
		c33.5-4.4,61.8,15.5,71.7,45c12.4,37.2-8.8,77.8-50.8,86.5c-21.9,4.5-41.4-2.3-57.9-17.3c-2.2-2-3.7-2.3-6.4-1
		c-44.5,21.7-89.1,43.3-133.7,64.8c-3.4,1.6-4.9,3.5-4.2,7.2c0.3,1.8,0.6,3.7,0.2,5.5c-1.8,7.7,1.7,11.1,8.5,14.4
		c43.2,20.7,86.1,41.8,129,63c3.1,1.5,4.7,0.9,7.1-1.3c19.3-16.6,41.4-22.6,65.8-14.3c25.4,8.7,41,27,45,53.6
		c5.4,35.4-18.7,68.3-53.6,74.8c-38.6,7.2-72.4-19.7-78-55.8c-0.8-5-0.4-10.3-0.2-15.5c0.1-3-0.5-4.7-3.5-6.2
		c-44.7-21.7-89.3-43.6-133.9-65.5c-3.1-1.5-5-1.5-7.7,1c-13.9,12.7-30.5,19.2-49.2,17.7C80,293.5,55.9,273.7,49,243.7
		C47.9,239.1,47.8,234.2,47.2,229.4z"/>
</g>
</svg>
