<?xml version="1.0" encoding="utf-8"?>
<!-- Generator: Adobe Illustrator 25.2.1, SVG Export Plug-In . SVG Version: 6.00 Build 0)  -->
<svg version="1.1" id="Capa_2" xmlns="http://www.w3.org/2000/svg" xmlns:xlink="http://www.w3.org/1999/xlink" x="0px" y="0px"
	 viewBox="0 0 94.9 93.9" style="enable-background:new 0 0 94.9 93.9;" xml:space="preserve">
<style type="text/css">
	.st0{fill:#4D4D4D;}
</style>
<g>
	<path class="st0" d="M47,1.2C21.5,1.2,0.8,21.9,0.8,47.5S21.5,93.7,47,93.7S93.3,73,93.3,47.5S72.5,1.2,47,1.2z M47,90.7
		c-23.9,0-43.3-19.4-43.3-43.3S23.2,4.2,47,4.2s43.3,19.4,43.3,43.3S70.9,90.7,47,90.7z"/>
	<path class="st0" d="M61.7,47.2c-2.6-2.2-6.6-4-12.2-5.3h-0.2V28.4c3.7,0.5,7.1,1.9,10.3,4.2l4.7-6.6c-4.7-3.2-9.7-5-15-5.4v-3.7
		h-4.6v3.6c-4.7,0.2-8.4,1.7-11.3,4.3c-2.9,2.6-4.4,6-4.4,10.2c0,4.2,1.3,7.3,3.8,9.4c2.5,2.1,6.5,3.8,11.9,5.1v14
		c-4.3-0.7-8.4-2.8-12.5-6.3L27,63.4c5.2,4.6,11.1,7.2,17.7,7.8v5.3h4.6v-5.2c4.9-0.2,8.8-1.7,11.8-4.3c3-2.6,4.5-6.1,4.5-10.3
		C65.6,52.6,64.3,49.4,61.7,47.2z M44.7,40.6c-2.7-0.9-4.5-1.8-5.5-2.7c-1-0.9-1.4-2.2-1.4-3.8c0-1.6,0.6-3,1.8-4
		c1.2-1.1,2.9-1.7,5.1-1.9V40.6z M54.8,61.6c-1.3,1.1-3.2,1.8-5.5,2v-13c2.9,0.9,4.8,1.8,5.9,2.8c1.1,1,1.6,2.3,1.6,4
		C56.8,59.1,56.1,60.5,54.8,61.6z"/>
</g>
</svg>
