<?xml version="1.0" encoding="utf-8"?>
<!-- Generator: Adobe Illustrator 25.2.1, SVG Export Plug-In . SVG Version: 6.00 Build 0)  -->
<svg version="1.1" id="Capa_1" xmlns="http://www.w3.org/2000/svg" xmlns:xlink="http://www.w3.org/1999/xlink" x="0px" y="0px"
	 viewBox="0 0 468.4 549.1" style="enable-background:new 0 0 468.4 549.1;" xml:space="preserve">
<style type="text/css">
	.st0{fill:#515151;}
</style>
<g>
	<path class="st0" d="M410.9,332.5c-18.3-28.9-42.3-51.8-71.7-69.1c-3.4-2-4.9,0.2-6.6,2c-8,8.5-17.3,15.6-27.1,21.8
		c-15.1,9.5-31.3,16-49.1,19c-26.1,4.3-51.5,2.5-76.2-6.9c-18.8-7.1-35.4-18-49.1-32.8c-3.7-4-6.2-4.6-11.1-1.6
		c-41,24.9-69.9,60-87.9,104.3c-7.3,18-12.1,36.6-15.3,55.7c-0.7,6.2,4.7,9,7.8,12.6c30,33.9,65.2,60.8,107.2,78.3
		c22.6,9.4,46.1,15.7,70.6,18.4c3.4,0.4,7.2-0.5,10.4,1.7c11.3,0,22.7,0,34,0c3.9-2.1,8.3-1.3,12.4-1.8
		c54.7-6.2,102.2-28.6,144.2-63.6c14.5-12,27.3-25.6,39.8-39.7c1.7-1.9,1.6-3.8,1.7-5.9C439.5,391.9,428.9,360.8,410.9,332.5z"/>
	<path class="st0" d="M110.4,193.6c7.8,21.8,20.4,40.2,38.3,55.3c28.1,23.6,60.4,33.6,96.4,29.8c28.5-3,53.8-15,74.4-35.3
		c32-31.5,44.2-70.1,36.9-114.2c-4.2-25.5-16-47.5-34.2-66.1c-20-20.4-44.1-32.9-72.4-37.4c-4-0.6-8.2,0.7-11.9-1.6c-5,0-10,0-15,0
		c-0.2,0.8-0.8,0.9-1.5,0.9c-18.3,0.5-35.5,5.7-51,14.7c-44.8,26.1-67.7,65.2-66.8,117.6C103.8,169.7,106.2,181.9,110.4,193.6z"/>
</g>
</svg>
