<?xml version="1.0" encoding="utf-8"?>
<!-- Generator: Adobe Illustrator 25.2.1, SVG Export Plug-In . SVG Version: 6.00 Build 0)  -->
<svg version="1.1" id="Capa_1" xmlns="http://www.w3.org/2000/svg" xmlns:xlink="http://www.w3.org/1999/xlink" x="0px" y="0px"
	 viewBox="0 0 85 85" style="enable-background:new 0 0 85 85;" xml:space="preserve">
<style type="text/css">
	.st0{fill:#FFFFFF;}
</style>
<g id="Capa_3">
	<path class="st0" d="M40.7,84.6L1.6,61.6V24.7L40.7,0.2V84.6z M4.6,59.8l33.1,19.5V5.6L4.6,26.3V59.8z"/>
	<path class="st0" d="M59,57.3c-0.4,0-0.7-0.1-1-0.4c-0.6-0.6-0.7-1.5-0.1-2.1c10.8-12,0.4-24,0-24.5c-0.5-0.6-0.5-1.6,0.1-2.1
		s1.6-0.5,2.1,0.1c0.1,0.1,12.5,14.6,0,28.5C59.8,57.1,59.4,57.3,59,57.3z"/>
	<path class="st0" d="M70.3,72c-0.4,0-0.7-0.1-1-0.4c-0.6-0.6-0.6-1.5-0.1-2.1C80,58,83.2,45.8,79,33.2c-3.2-9.5-9.6-15.7-9.7-15.8
		c-0.6-0.6-0.6-1.5-0.1-2.1c0.6-0.6,1.5-0.6,2.1-0.1c0.3,0.3,27.7,27,0.1,56.3C71.1,71.8,70.7,72,70.3,72z"/>
</g>
</svg>
