<svg id="Capa_1" data-name="Capa 1" xmlns="http://www.w3.org/2000/svg" viewBox="0 0 486.59 486.59"><path d="M258.54,13.63c133.93.1,236.56,105.1,243.56,227,4.22,73.41-19.39,136.87-71.27,188.94-42.38,42.53-94.22,66.22-154.24,70.07-72,4.62-134.76-18-186.63-68.16-47.26-45.71-71.88-102.27-73.85-168C11.84,121.6,129.12,12.81,258.54,13.63ZM124.47,343.72c-.41,20.95,7.78,35.53,22,47a57.51,57.51,0,0,0,30.41,12.81c9.83,1.07,19.35-.08,27.86-5.49,7.85-5,14.43-11.6,21-18q27.65-27,54.93-54.35,43.78-43.81,87.34-87.83c6-6.07,12.5-11.87,16.9-19.22,8.84-14.75,11.14-30.87,7.25-47.52-5.53-23.69-19.13-41.58-40.54-53.36a72,72,0,0,0-28.35-8.31c-7.57-.71-15.07-1-22.5,1.09-10.76,3.07-20.48,7.79-28.16,16.27-3.49,3.84-7.47,7.23-11.16,10.89Q231.68,167.34,201.87,197c-20.1,20.07-40.11,40.22-60.24,60.26-1.63,1.62-1.43,2.39.08,3.83Q149,268.05,156,275.26c1.24,1.27,1.84.94,2.89-.13,4.77-4.84,9.61-9.59,14.42-14.39q43.11-43,86.24-85.91c10.94-10.88,21.74-21.92,33.55-31.89,4.39-3.7,8.79-7.89,14.68-8.42,9.49-.86,19-.65,28,3.32,18.85,8.31,34.31,28.11,32.83,52A29.81,29.81,0,0,1,361,208.67c-9.23,10.09-18.76,19.88-28.34,29.63q-23.91,24.38-48.11,48.46c-28.63,28.52-57,57.27-86.25,85.2-6.19,5.91-13.15,7.6-21.07,6.34a33.56,33.56,0,0,1-27.66-28.7c-.82-6.9,0-13.54,5.43-18.78,2.16-2.07,4-4.42,6.11-6.6,16-16.84,32.38-33.2,48.75-49.62q40.92-41.06,82.11-81.85c6.94-6.89,13.82-13.86,21.53-19.93a6.86,6.86,0,0,1,6.86-1.39,15.44,15.44,0,0,1,10.21,10.23c1.2,3.59.58,6.31-2.4,9.26q-45.33,44.9-90.32,90.14-18,18-36,35.9c-1.31,1.3-1.31,1.94,0,3.22,4.82,4.65,9.64,9.32,14.17,14.24,1.69,1.84,2.38,1.31,3.78-.1q37.49-37.59,75-75.1C313.5,240.54,332.3,222,350,202.48a18.46,18.46,0,0,0,4.77-9,43.47,43.47,0,0,0-.29-18.62c-3.66-15.15-18.83-27.82-34.38-28.77-8.65-.53-16.43,1.21-23.09,7.48s-13.16,12.26-19.56,18.57q-27,26.53-53.64,53.38c-27.75,27.79-55.79,55.28-83,83.55C130.83,319.42,123,330.57,124.47,343.72Z" transform="translate(-15.99 -13.63)" fill="#497faa"/></svg>