<svg id="Capa_1" data-name="Capa 1" xmlns="http://www.w3.org/2000/svg" viewBox="0 0 873.49 871.12"><path d="M462.59,30.82c14.63,0,29.31-.79,43.88.18,24.25,1.61,33.59,11.36,34.3,35.48.63,21.5.45,43,.19,64.55-.11,9,.63,14.46,11.94,17.48,28.15,7.52,55.22,18.62,79.88,34.47,7.25,4.66,11.54,4.08,17.47-2.15,15.33-16.11,31.11-31.83,47.4-47,20.09-18.66,34.54-18.46,54.22.48q28.57,27.48,56.14,56c18.72,19.44,19,32.13.44,52.12q-23.37,25.23-48.67,48.66c-8.07,7.48-8.78,13.21-3.2,22.71a232.08,232.08,0,0,1,24.69,61.37c2.85,11.38,8,13.83,18.6,13.45,20.87-.74,41.8-.48,62.69-.12,24.3.41,34.81,7.83,36.15,30.83,1.8,31.11,1.3,62.44,0,93.59-.86,20.42-13.4,30.89-34.48,30.65-21.6-.25-43.22.62-64.78-.27-11.09-.46-15.37,3.19-18.29,13.9-7.48,27.39-18.17,53.79-34.1,77.47-6,8.89-2.44,13.19,3.46,18.94,16.93,16.49,33.84,33,50.2,50.08,20.79,21.65,21.09,33.93.85,55.17-18.21,19.12-36.88,37.86-56.12,55.94-19.41,18.23-33.1,18.41-52.58.45-18.91-17.43-37.07-35.71-54.78-54.35-7-7.4-12.36-8.06-21.15-3A250.24,250.24,0,0,1,553.4,783.4c-10.81,2.75-12.69,7.58-12.49,17.07.44,21.51.47,43-.11,64.55-.64,23.59-9.29,34.43-31.91,35.52-30.57,1.47-61.32,1.47-91.89,0-21.8-1.07-30.56-11.67-31.3-33.84s-.71-44.43-.17-66.63c.23-9.85-2.5-14.07-12.88-16.78-22.11-5.77-43.71-13.94-63.47-25.55-9.27-5.45-14.36-3.46-21.08,3.55-17.32,18.07-34.89,36-53.28,52.92-19.52,18-33,17.67-52.45-.78q-29.51-28-57.69-57.36c-17.4-18.21-17.5-32.41-.29-50.88,16.1-17.28,33.05-33.81,50.12-50.16,7.35-7,9.93-12,3.27-22.28a258.67,258.67,0,0,1-32.72-75.89c-2.93-11.41-8-13.82-18.54-13.46-20.87.72-41.8.48-62.7.12-24.29-.41-34.73-7.68-36.16-30.84-1.92-31.09-1.45-62.44,0-93.58.91-20.25,13.42-30.92,34.56-30.66,22.29.28,44.6-.34,66.88.19,9.2.22,12.79-2.55,15.38-11.9,6.26-22.63,14.37-44.87,26.44-65.18,5.05-8.49,2.73-13.33-3.55-19.37-16.54-15.91-33-32-48.62-48.73-19.5-20.84-19.37-33.54.16-53.66,18.89-19.46,38-38.71,57.69-57.37,17.2-16.32,31.91-16.69,49.59-.76,17,15.35,33.11,31.78,49.06,48.25,6.18,6.39,10.5,8.19,19,2.74A272.3,272.3,0,0,1,372.17,149c11.55-3,13.73-8.15,13.37-18.57-.68-20.1-.46-40.26-.07-60.38.54-28.23,10.85-38.41,39.5-39.3,12.52-.39,25.08-.06,37.62-.06Zm.17,307.44C391.53,338.51,334.38,396.08,335,467a128.2,128.2,0,0,0,256.4-.87C591.58,395.22,534,338,462.76,338.26Z" transform="translate(-26.38 -30.52)" fill="#010101"/></svg>