<svg id="Capa_1" data-name="Capa 1" xmlns="http://www.w3.org/2000/svg" viewBox="0 0 235.8 235.39"><path d="M125.58,45.57c36.27,0,72.53.17,108.8,0,4.62,0,5.84,1.21,5.82,5.8q-.25,65.37,0,130.75c0,4.46-1.2,5.49-5.55,5.47-31.78-.19-63.55-.09-95.33-.1-2.33,0-4.65-.15-7-.23.46-3.34,4-4.87,4.2-8.89.34-6.17-1-11.28-5.29-15.37-2.45-2.35-3-4.52-1.87-7.51s1.88-6,3.06-9c2.1-5.22,3.61-6,8.72-4,3.72,1.46,7.53,2.65,11.2,4.25a12.28,12.28,0,0,0,11-.43c10.17-5.12,20.4-10.12,28.24-18.52,3.07-3.29,7.17-6.68,5.22-12.32a3.39,3.39,0,0,1,.09-1.52,8.27,8.27,0,0,1,2.11-3.37c7.09-6,9.1-14.46,11.42-22.8,1.19-4.31-3.11-11.91-8.66-13.67-4.29-1.37-5.21-4.17-5.65-7.76-.28-2.31-.29-4.65-1.88-6.6-1-1.25-2.12-2.17-3.83-1.49-1.49.6-1.78,1.93-1.6,3.32,1.21,9.22-.08,18.51.71,27.75a26.51,26.51,0,0,1-.17,6.48c-.53,3.2-1.56,6.34-4.41,8.11-7.91,4.92-15.53,10.3-23.88,14.52-3.76,1.89-6.82,1.65-10.11-.95a83.24,83.24,0,0,1-19.57-21.67c-1-1.67-.44-3.16.07-4.76C133,86,135,81,135.85,75.79c1.52-9.51-1.45-17.66-8-24.66C126.5,49.71,123.47,48.55,125.58,45.57Z" transform="translate(-4.4 0)" fill="#5386ec"/><path d="M4.45,187.06c0-45.2.09-90.39,0-135.58,0-4.49,1.06-6,5.76-5.9,17.27.23,34.56,0,51.84,0,2.17,3.15-.62,4.8-2.2,6.59-4.91,5.54-8.08,11.64-7.22,19.38a20.11,20.11,0,0,0,2.42,8c1.6,2.76.81,4.76-1.82,6.2S48.26,88.53,45.86,90c-10.78,6.71-13.61,17.07-7.42,28,1.48,2.6,1.09,4.24-1.14,5.92a52.4,52.4,0,0,1-7.45,5c-7,3.62-9.88,10.28-7.46,17.84a49.7,49.7,0,0,0,8.19,15.28c4.23,5.42,7.24,11.75,13.3,15.86,4.54,3.07,4,5.78-.67,9.32h.06c-7.37,1.32-14.81.52-22.22.52C15.58,187.72,9.93,188.7,4.45,187.06Z" transform="translate(-4.4 0)" fill="#5386ec"/><path d="M83.29,235.11l-25.92.06a1,1,0,0,1,.14-1.29,11.89,11.89,0,0,0,6.43-6.56c4.15-9.08,9.33-17.61,14.17-26.33a13.61,13.61,0,0,1,1.28-2.14c.72-.9,1.51-2.06,2.81-1.41,1.06.53.74,1.71.45,2.69-1.65,5.75-2,11.75-3.45,17.53a8.12,8.12,0,0,0-.4,3.17c1.36-6.88,2.11-14.33,4.26-21.52.23-.8.45-1.79,1.2-2.12,5.4-2.36,11.2-3,17-3.28,2-.1,1.8,2,1.53,3.53-1.24,6.78,0,14-3.48,20.41-1.25,2.31.63,3.36,2.31,4.14a81.61,81.61,0,0,1,12,6.38c-3-1.45-6.31-4.49-9.21-8-.71-.86-1.68-2-.72-3.08s2.09,0,3,.08c-1-1.3-4.55-.38-4.09-3,.5-2.78,3.52-3.77,5.89-4.92,2-1,2.58.59,3,1.63-.91-2.79,2.71-7.91,7.26-9.67q5.17-2,9,7.89c.91,5.25,2.43,10.36,3.71,15.52.05,3.45,2.69,6.94-.09,10.36H90.46a1.43,1.43,0,0,1-.36-1.28c.85-3,3-5.54,3.66-8.61C89.79,228.13,87.36,232.48,83.29,235.11Z" transform="translate(-4.4 0)" fill="#3e4b5f"/><path d="M127.06,209.62a10,10,0,0,0-2.24-4.38c-3-3.93-4.3-3.8-8.29-.82-3.59,2.67-6.64,5-3.78,10.08l-3-4.75-7.09,4.64c2.3,1.79,5.28,2,7.67,4.84l-7-1.91c4.45,5.64,9.35,9.49,14,13.94-6.36-3.24-12.75-6.44-19.08-9.74-1.36-.71-1.89-2.05-.8-3.33,4.58-5.35,2.26-12.13,3.85-18.1a39,39,0,0,0,.61-5.39c-5.21.89-10.32,1.82-15.45,2.61-2.36.36-2.8,2.18-3.17,3.93-1.52,7.25-2.92,14.53-4.63,21.77-.29-8.38,2.43-16.4,3.53-24.79-1.68-.2-1.81,1.19-2.26,2-5.35,10-11.35,19.61-16,29.92-1.29,2.85-3.1,4.71-6.52,4.1-2.12-2.38-.6-4.93-.27-7.39.28-2.08.73-4.14,1-6.23a3.28,3.28,0,0,1,1.65-2.56c4,.84,6.15-1.75,7.94-4.63a96.17,96.17,0,0,0,8.52-16.27,23.06,23.06,0,0,1,5-7.38,2.9,2.9,0,0,1,3.61-.82c1.62.85.72,2.18.42,3.38,0,.63,1-.14.39,0-.24.07-.23-.08-.18-.46.51-4,3.25-4,6.26-3.5s5.91,2.25,9.14,2.23c2.19.47,4.58,0,6.55,1.43-3.81,5.33-3.59,11.8-4.66,16.87,1.39-4.2,2.28-9.59,4.36-14.62a9.85,9.85,0,0,0,.72-1.82,2.54,2.54,0,0,1,.28-1.43c1.91-1.84,4.52-2,6.86-2.65,2.57-.72,4.48.64,5.66,3a21.08,21.08,0,0,1,2.14,7.61,3.65,3.65,0,0,0,.65,1.27,33.9,33.9,0,0,1,6.64,14C127.82,214.15,127.58,213.82,127.06,209.62Z" transform="translate(-4.4 0)" fill="#232e41"/><path d="M55.49,29.37c-1.64-2.49-1.28-4.29,1.31-6.14,5.26-3.75,9.66-8.33,11.52-14.8,2.54-.47,3.59,1.5,4.55,3.12a50.49,50.49,0,0,1,4.3,8.53A2,2,0,0,0,77,19.4c-4.48-9-5.41-11.49,6.82-13.16a12.6,12.6,0,0,0,2.41-.64c1.86-.06,3.56-.94,5.42-1.09C94.2,5,95.47,6.39,94.9,9.1c-1.75,2.84-5.33,2.42-7.61,4.31-1.63,2.46-.62,5.05-.26,7.57a18.05,18.05,0,0,1,.33,5.34c-.78,2.1-.29,4.29-.53,6.44a3.06,3.06,0,0,1-2.25,1.77c-2,.35-3.85,1.07-5.89.76-3.11-3.16-7.57-3-11.37-4.59,1.8.67,3.67,1.23,4.53,3.22,1.58,2-.11,4.9,2,6.73A4.69,4.69,0,0,1,74.33,42a4.25,4.25,0,0,1-.72,3.4c-2.76.37-3.11-2.43-4.71-3.6a9.27,9.27,0,0,0-4.26-4.52A28.85,28.85,0,0,1,55.49,29.37Z" transform="translate(-4.4 0)" fill="#030702"/><path d="M125.58,45.57c.84,4,4.51,6,6.69,9,6.12,8.5,6.66,17.44,3.49,27-1.24,3.78-3,7.52-3.46,11.4-.39,3.26,2.62,6,4.38,8.42a80.9,80.9,0,0,0,17.51,17c1.39,1,2.48.91,4.06.18,9.41-4.33,17.53-10.78,26.5-15.82,2.84-1.6,3.38-4.85,3.27-7.94-.39-11.06.55-22.14-.49-33.19-.19-2.13.08-4.15,2.33-5s4.12.27,5.58,2.15c2.2,2.86,2,6.24,2.31,9.54.2,2.36.4,3.93,3.76,4.42,7.28,1.06,11,10.66,9.52,17.78-2,9.86-7.1,17.31-13.83,24.13a1.73,1.73,0,0,1-1.67-1.24c-.94-3.72,2.49-5.1,4-7.51a37,37,0,0,1,3.94-5.13c3.3-4.2,3.65-9.54,4.75-14.37.82-3.61-2-7.1-5.55-9.18a3.43,3.43,0,0,0-2.17-1c-5,.25-5.68-.31-6.24-5.1-.3-2.57.45-5.24-.72-7.72-.48-.57-.67-1.55-1.76-1.14-.59,11,0,22-.17,33,0,2.5.19,5-1.72,7.08a25.25,25.25,0,0,0-1.91,2.23c-1.5,2.23-4.23,2.79-6.13,4.48a14.56,14.56,0,0,1-2.82,2.12c-6.37,3.06-12.25,7-18.52,10.24-2.09,1.08-4,2.34-6.42,1-2.3-1.15-4.71-2.14-6.47-4.14-3.93-4.72-8.58-8.74-12.8-13.18a9.77,9.77,0,0,1-1.25-1.61C132.46,101,131.33,98.72,128,99a1.9,1.9,0,0,1-2.17-1.61,1.61,1.61,0,0,1,0-.49,88.53,88.53,0,0,0,6.58-16.7,23.68,23.68,0,0,0,1.55-7c.21-4.1.41-8.19-2.19-11.76-1.94-3.14-4.13-6.11-6-9.28-1.19-1.88-3.77-2.88-3.58-5.64Z" transform="translate(-4.4 0)" fill="#e5f8f8"/><path d="M43.25,187.24c3.67-5.79,3.16-7.56-3.26-10.73-.9-.44-1.94-.63-2.43-1.58-4.36-8.59-11.37-15.49-15.22-24.46-4.39-10.2-2-17.81,7.72-23.06,1.16-.63,2.19-1.5,3.34-2.16,3.94-2.25,6.69-4,2.44-9.23S33,104,36.28,98.17a25.23,25.23,0,0,1,9.3-9.47c3-1.76,7.12-2.75,8.79-5.35s-2.24-5.6-2.78-8.81c-1.47-8.82.72-16.4,6.89-22.92,1.59-1.68,4.18-3,3.48-6.08l3.41.9c.73,3.21-1.84,4.73-3.5,6.66C57,58.81,53.08,64.82,55.23,72.88c.36,4.2,3.54,6.93,5.41,10.35a2.34,2.34,0,0,1-.18,1.38c-1.48,1.63-3.72,1.88-5.58,2.86a56.36,56.36,0,0,0-11,6.81c-4.55,4.92-8.15,10.17-6.29,17.4.7,4.08,5.62,5.49,6.13,9.69-2,3.69-5.86,5.27-8.9,7.79-3.87,2.77-8.73,4.46-10.46,9.57-1.76,7.1,2.35,12.37,5.58,17.9,2.57,3.89,6,7.15,8.1,11.37,1.16,2.78,2.49,5.38,5.7,6.29a9.74,9.74,0,0,1,3.45,3.24c.82,1.6,2.54,2.42,3.48,3.93-.06,2.24-1.86,3.61-2.72,5.44-.51.52-1,1-1.79.39Z" transform="translate(-4.4 0)" fill="#e5f9f9"/><path d="M73.32,41.35a1.94,1.94,0,0,1,0-.68c2.46-4.19,7.16-3.56,10.87-5.09A8,8,0,0,1,88,35.52a2.63,2.63,0,0,1,1.64,1.35c.45,1.11-.24,2.52.89,3.51.93-.9.48-2.16.94-3.15A3.16,3.16,0,0,1,94,34.94a2.11,2.11,0,0,1,1.29.52c.72,1.32.44,2.87.92,4.25.39,1.12.86,2.28,2.31,2S100,40.18,99.92,39s-.8-2.13-.86-3.29a2.05,2.05,0,0,1,1-1.07,4.75,4.75,0,0,1,4.43.46,3.13,3.13,0,0,1,.72,1.28c.59,2.62.17,5.76,4.11,6.37s7.28.56,9.4-3.42a2.86,2.86,0,0,1,1.55-1.18c1.39,0,1.69,1,1.85,2.06.1,1.73-.84,3.06-1.68,4.43l.86,1.75c.26.8-.2,1.31-.85,1.09-2.14-.75-2.29.5-2.25,2a31.85,31.85,0,0,1-.85,3.33c-.35.89-.75,1.73-1.9,1.74-1.82-.86-.66-3.81-3-4.26-2.08,2.9-4.91,1.76-7.59,1.48a31.37,31.37,0,0,1-6.25-.8c-2-.69-3.13.8-4.54,1.65-4.66-2.05-9-.17-13.42,1C79,52.18,78.05,49.94,75.84,49c-.85-.77-2-1.38-1.59-2.84a1.47,1.47,0,0,1,.86-.38,7.11,7.11,0,0,1,1.46.06c-.27-.44-.76-.12-1.14-.38C73.89,44.55,74.78,42.37,73.32,41.35Z" transform="translate(-4.4 0)" fill="#131920"/><path d="M94.3,9.45c-.21-2-.14-4.13-3-4.2C91,3.54,94,3.11,92.93,1.09c2.58-1.74,5.08-1.22,7.54.28a8.83,8.83,0,0,0-.3,1C103.64,5.62,108,6,112.43,6.28a9.94,9.94,0,0,0,1.83-.72c4.45-.87,7.26.51,9.22,5,2.14,4.89,6.39,8.27,11,11.09,1.34.82,4,1.23,2,3.84-2.1,1-3.91,2.6-6.13,3.3-1.68.53-4,.43-2.71-2.11,1.51-2.91-.16-3.45-2-4.34a8.14,8.14,0,0,1-2.16-1.24c-3-2.85-5-2.06-7,1.25-1.18,1.91-1.84,5.34-5.22,4.19-3-1-4-3.74-4-6.83a11.59,11.59,0,0,0-.63-3.87,4.18,4.18,0,0,0-2.3-3C101.19,11.08,97.17,12,94.3,9.45Z" transform="translate(-4.4 0)" fill="#626561"/><path d="M197.46,115.52c2.61,1.42,2.08,3.16.91,5.4-3.65,7-9.49,11.8-15.78,16.11a166.13,166.13,0,0,1-20,11.21,10.69,10.69,0,0,1-9.16.33c-4.63-1.86-9.41-3.39-14-5.43-2.93-1.31-4.41-.36-5.31,2.26-1.46,4.25-2.71,8.56-4.24,12.78-.75,2,.61,2.45,1.8,3.41,5.76,4.65,8.22,15.26,5.49,22-1,2.39-4.31,1.11-4.87,3.7l-2-.92c-1.39-1.94-.22-3.2,1.14-4.42,3.51-2,2.13-5.45,2.52-8.37,0-3-1.55-5.3-3.19-7.59a3.86,3.86,0,0,0-2.08-1.39c-2.08-.46-3.59-1.39-3.26-3.86.35-1.68,1-3.26,1.48-4.9,1.76-4.28,2.25-9,4.29-13.15a7.77,7.77,0,0,1,.81-1.24c2.14-2.76,4.7-3.19,7.89-1.75,4.22,1.89,8.57,3.51,12.88,5.21,2.84,1.12,5.4,1.28,8.06-.19a37.87,37.87,0,0,0,8.77-4.09c4.07-2.43,8.48-4.33,11.93-7.73,1.87-1.56,4.26-2.37,6-4.11,1.92-1.78,3.91-3.49,5.05-5.94C194.44,120.49,195.58,117.74,197.46,115.52Z" transform="translate(-4.4 0)" fill="#e2f8f9"/><path d="M107.58,15.55c2,2.69-.74,6.61,2.62,9.11,1.92,1.43,2.94,1.88,4-.61a21.71,21.71,0,0,1,1.23-2.15c2.16-3.85,4.29-6.58,8.58-1.82,1.65,1.82,4.48,2.58,7,4l-3.49,4c3.71.93,5.51-3.79,9-2.5a18.17,18.17,0,0,1-2.87,6c-3.69,3.4-7.15,7.13-12.26,8.49l-.47-1.68a1.11,1.11,0,0,1-1.16-.6c-1-1.86-.09-4.26-1.75-6-3-3.12-6.17-2.81-9.51,1a2.47,2.47,0,0,1-2.12-.14c-1.24-1.78-.44-3.94-1.13-5.83a20.42,20.42,0,0,1,.21-6.29C106.09,18.91,105.72,16.76,107.58,15.55Z" transform="translate(-4.4 0)" fill="#091007"/><path d="M50.49,212.24c-.64-3.3-3.09-5.54-5.21-7.71-4.57-4.68-2.5-9.4-.91-14.27,3.07,3.22.82,6.75.28,10.19.21.63,1.24.28.58.21-.12,0-.06-.16-.12-.31-.19-.48-.35-1.07,0-1.4,1.51-1.47,2.19-.09,3.14,1.15-.15-3-1.82-5.69-.39-8.49,2.1-.7,4.43-.82,6-2.89.7-1,1.74-.74,2.34.44,1.3,3.41-.43,6.65-.52,10-1.23,4.28-2.75,8.48-3.77,12.82a.91.91,0,0,1-1.24.35Z" transform="translate(-4.4 0)" fill="#7c5241"/><path d="M74.4,46.34l2,2.39A4.88,4.88,0,0,1,77,54a1.57,1.57,0,0,1-1.14.77c-2.26-.73-.8-3.86-3-4.63-3.5-2.71-5.72-1-7.51,2.17-1,4.19-4.9,6.42-6.76,10-1,2.81-1.23,5.77-1.92,8.64-.43,1.15-.41,2.74-2.33,2.5C52,66.34,54.68,60.5,58.73,55c2.14-2.93,5.18-5.14,6.7-8.54l2.15-2c.12-1.34.18-2.71,1.88-3.08,2.14.58,2.61,2.85,4.1,4.08C74.31,45.31,74.67,45.55,74.4,46.34Z" transform="translate(-4.4 0)" fill="#482514"/><path d="M86.4,6.55c-2,1.52-4.52,1.68-6.61,1.64-5.51-.11-5,3.08-4.1,6.48.52,2,1.57,3.88,2.85,6.94-4.6-4.54-5.73-10.16-10.22-13.18.24-.39.44-1.07.74-1.12,6.52-1.07,13-2.07,19.52-3.07C89.35,6.36,86.58,5.31,86.4,6.55Z" transform="translate(-4.4 0)" fill="#494c48"/><path d="M52.39,235.18c-4.72.9-5.91-1.25-4.62-5.42.67-2.19.09-4.63,1.43-6.67,1.29-1.35.56-4.28,3.43-4.42a2.58,2.58,0,0,1,2.12.66,4.44,4.44,0,0,1,.64,1.48C55,225.73,54.83,230.69,52.39,235.18Z" transform="translate(-4.4 0)" fill="#6e757b"/><path d="M69.48,41.3c-.62,1-1.25,2-1.88,3.08-3.13-3.57-7.67-5.73-10-10.07-.86-1.58-2.07-3-2.09-4.94,4.49,2.37,7.78,6.51,12.59,8.44C69.51,38.38,69.22,40.05,69.48,41.3Z" transform="translate(-4.4 0)" fill="#4e4c42"/><path d="M132.3,182.24c-1.46,1-1.74,2.51-1.91,4.1q-2,4.53-4,9c-3.94-3.89-3.88-10.27.16-15.72C129.09,179.09,131.71,178.39,132.3,182.24Z" transform="translate(-4.4 0)" fill="#63443a"/><path d="M48.5,191.55c-.52,3.62,1.53,7.08.58,10.76-1.81-.46-1.43-2.89-3.13-3.55-1.1,1.91,1.53,3.12.8,5.21-1.89-2.53-4.56-4.32-2-8,1-1.4-1-3.68-.34-5.68.59-1,1.18-2,1.76-3l1.11-.85C50.46,187.46,49.58,189.47,48.5,191.55Z" transform="translate(-4.4 0)" fill="#f1b792"/><path d="M121.3,40.07a62.51,62.51,0,0,1,12.28-8.49c-2.32,6.42-7.15,10.34-13.13,13.09C120,43,121,41.59,121.3,40.07Z" transform="translate(-4.4 0)" fill="#4a4b43"/><path d="M126.35,180.38c-.87,5-3.14,10,0,15,0,2.26-1.73,3.41-3,4.87h-1c-1.13-7-2.89-14.07,1.28-20.77C125,178.62,125.73,179.24,126.35,180.38Z" transform="translate(-4.4 0)" fill="#472e25"/><path d="M59.26,220.4c.4,4.75-1.88,9.14-1.86,13.84a2.9,2.9,0,0,0,0,.93l-4.06,0c.31-5.12.73-10.21,2.94-15A2.17,2.17,0,0,1,59.26,220.4Z" transform="translate(-4.4 0)" fill="#667383"/><path d="M83.29,235.11a40,40,0,0,1,11.1-11.74c.38,4.24-3.26,7-4,10.82a4.92,4.92,0,0,0,0,.94Z" transform="translate(-4.4 0)" fill="#6d7988"/><path d="M117.43,49.29c-2-5.34,1.85-2.88,3.86-2.87a5.93,5.93,0,0,1,.84.06l4.21,5c-.71,1.35,1.15,3.73-1,4.19-2.58.57-3.81-2-5.4-3.6A16.86,16.86,0,0,0,117.43,49.29Z" transform="translate(-4.4 0)" fill="#613419"/><path d="M4.45,187.06c13,.73,25.91.46,38.86.14-.86,1.41-2.27,1.14-3.57,1.14H7.9C6.58,188.34,5.17,188.63,4.45,187.06Z" transform="translate(-4.4 0)" fill="#e5f9f9"/><path d="M131.24,235.17c.79-3.71-1.22-7.14-1-10.79a3.78,3.78,0,0,1-.17-3c3.7,1.16,2.48,5,4,7.32.44,2.14,2.17,4,1.37,6.4Z" transform="translate(-4.4 0)" fill="#878b8e"/><path d="M52.34,219.33c-1.38,1.14-1.76,2.64-2.23,4.36-.43,1.56-.5-.47-.91-.6l1.29-10.85h.9c4.4,0,2.76,2.84,2.35,5.09A9,9,0,0,1,52.34,219.33Z" transform="translate(-4.4 0)" fill="#4b5156"/><path d="M130.36,221.12l-.15,3.26c-1.61-4.8-3.35-9.57-3.15-14.76,1.08,1.48.19,4.26,3,4.58.41,1.68.83,3.36,1.24,5C132,220.39,131.07,220.7,130.36,221.12Z" transform="translate(-4.4 0)" fill="#6a7684"/><path d="M56.51,220.42q-1.6,7.35-3.2,14.7l-.46.14-.46-.08c-.36-5.14,1.85-9.92,2.12-15a1.38,1.38,0,0,1,1.63-.26Z" transform="translate(-4.4 0)" fill="#303b4e"/><path d="M99,1.53l1.51-.16a42,42,0,0,0,13.79,4.24l-1.08.9C107.71,6.92,102.58,6.33,99,1.53Z" transform="translate(-4.4 0)" fill="#494c48"/><path d="M86.4,6.55c-.24-1.66,1.9-1.15,2.15-2.36a12,12,0,0,0,4.38-3.1c5.38,3.71-2,2.43-1.63,4.16Z" transform="translate(-4.4 0)" fill="#8a8c8a"/><path d="M130.36,221.12l1-1.87c1.93,2.53,2.34,5.62,3.17,8.57.35,1,.05,1.52-1.08,1.41C132.39,226.53,131.38,223.83,130.36,221.12Z" transform="translate(-4.4 0)" fill="#50565c"/><path d="M133.41,229.24l1.08-1.41c.27,2.42,3.84,4.44.88,7.26Q134.39,232.15,133.41,229.24Z" transform="translate(-4.4 0)" fill="#545a60"/><path d="M170.21,141.37c-2.69,1.85-5.31,3.89-8.79,4a3.8,3.8,0,0,1-3,.36c-2.22-3-.07-4.4,2.23-5.11,9.5-3,14.53-11.27,21.32-17.48a3.34,3.34,0,0,0,1.11-3.63c-1.35-3.62-.62-7.64-2.3-11.17,1.53-2.33,4.85-2.1,6.35-4.45,1.92,2.81-.87,5.17-.76,7.9.2,4.54.06,4.66,4.47,3.26,1.29.47,1,2.11,2.06,2.76-1-1.29-1.23-2.6-.07-3.93.95-.84,1.95-1.5,3.27-.76.36.49.71,1,1.06,1.48a1.14,1.14,0,0,0,.25.91c.28,3.5-2.18,5.54-4.16,7.84-1.61,2.11-3.72,3.8-5.13,6.08s-3.73,2.8-5.77,4C178.58,136.46,173.93,138.17,170.21,141.37Z" transform="translate(-4.4 0)" fill="#224584"/><path d="M90.41,234.24c-.11-4.13,3.08-7,4-10.82C95.83,228,92.09,230.72,90.41,234.24Z" transform="translate(-4.4 0)" fill="#1f2a3d"/><path d="M100.24,191.48c-2.46,1.3-4.34-.67-6.43-1.24-3.83-1.05-7.62-2.59-8.52,3.53-1.87-1.44,1-3.43-1-4.15s-2.63,1.41-3.59,2.67c-4.74,6.23-6.54,14-11,20.43-1.81,2.57-3.31,5.29-6.2,6.87-1.7.93-2.82.85-3.17-1.31-1.3-2-.24-3.89.5-5.75a2.48,2.48,0,0,1,1.17-.82c1.31-.31,2.78.65,3.9-.05,2-1.22,3.71-2.79.32-4.55a2.67,2.67,0,0,1-1.06-.85,1.72,1.72,0,0,1,1.42-1.76c2-.64,4.54-.51,5.42-2.93,2.54-7,9-12.38,8.78-20.56a5.23,5.23,0,0,1-.09-1.31,7,7,0,0,0-.13-3.7,55.46,55.46,0,0,0-1.6-6.21,5.82,5.82,0,0,1,1.48-2.92,3.07,3.07,0,0,1,1-.79c1.57.1,1.9,1.65,2.88,2.44a5.75,5.75,0,0,1,.85,1c-.62,4.44,2.61,8.35,1.61,13-.47,2.17,2.37,1.65,3.68,2.39.65.17,1.28.38,1.92.61,1.22.47,2.53.64,3.73,1.2a32.29,32.29,0,0,1,4,4.1A2.12,2.12,0,0,1,100.24,191.48Z" transform="translate(-4.4 0)" fill="#13161d"/><path d="M124.36,179.41c-2.55,6.79-2,13.86-2,20.89-1.89-1.73-1.11-4.29-2-6.4-1.51-3.7-3-6.31-7.5-3.45-1.27.8-3.13.64-4.72.92A1.81,1.81,0,0,1,108,190a5.14,5.14,0,0,1,2.5-2.41c1.5-.55,3.08-.84,4.61-1.28,4-.19,4.54-3.4,5.38-6.32,1-2.69,1.12-5.93,4.63-6.91C127.73,175.57,127,177.61,124.36,179.41Z" transform="translate(-4.4 0)" fill="#151418"/><path d="M108,192.09a42.48,42.48,0,0,1-6.37,19.35c.76-4.09.51-8.19.87-12.24a8.23,8.23,0,0,1,4.77-6.87l.3-.34Z" transform="translate(-4.4 0)" fill="#3b485c"/><path d="M61.33,212.29c-.34,2-.69,4-1,6a2.47,2.47,0,0,0-1,2.12H56.51l-.28-.18c-1-3.77.23-7,2.33-10.1C60.23,209.89,60.9,210.93,61.33,212.29Z" transform="translate(-4.4 0)" fill="#3e454d"/><path d="M108,192.09c-.24.07-.49.15-.73.24a19.23,19.23,0,0,1-7.07-.85v-.28l.24-.17c.1-1.94,1.86-1.83,3-2.46a5.53,5.53,0,0,1,3.57.1,2.29,2.29,0,0,1,1.3,1.66c0,.35-.09.7-.13,1A6.1,6.1,0,0,1,108,192.09Z" transform="translate(-4.4 0)" fill="#737673"/><path d="M84.36,36.53c-3.47,2-7.73,1.78-11,4.14-1.82.44-3-.09-2.17-2.07a6.13,6.13,0,0,0,.08-4.16c-.53-1.65-.16-2.85,1.58-1.48a7.33,7.33,0,0,0,5.69,1.64l5.83-1.14A2.27,2.27,0,0,1,84.36,36.53Z" transform="translate(-4.4 0)" fill="#a5a9ab"/><path d="M78.5,34.6c-2.44,1-5.34,4.08-6.47-1.42,0-.25-.53.81-.8,1.26C70,32,67,31.67,65.3,29.52,69.24,32.57,75.87,28.1,78.5,34.6Z" transform="translate(-4.4 0)" fill="#30332f"/><path d="M94.3,9.45c3.77.64,7.79.26,11.11,2.73l-.48.64c-2.86,1-5.71-.45-8.57,0-2.9-.29-5.71.81-8.61.52a2.67,2.67,0,0,1-1.34-.84C88.58,10.31,91.67,10.45,94.3,9.45Z" transform="translate(-4.4 0)" fill="#e1cb8a"/><path d="M84.36,36.53V33.46l2-1a3.85,3.85,0,0,1,3.85-1,3.73,3.73,0,0,1,2.54,2C93,37.29,90,35.83,88.2,36.28Z" transform="translate(-4.4 0)" fill="#bec5c9"/><path d="M86.41,12.46h.85c.62,1.6,1,3.28,1.58,4.91-.35,3,.34,6-1.13,8.85a.91.91,0,0,1-1.29.18l-.06,0c-.42-3.59-.85-7.17-1.26-10.76C85,14.33,84.51,12.9,86.41,12.46Z" transform="translate(-4.4 0)" fill="#e4ce8a"/><path d="M86.36,26.37l1,.14a.8.8,0,0,1,1.12-.15l0,0c.77,1.89,2.3,3.55,1.77,5.83l-4,.26C85.18,30.46,84.92,28.42,86.36,26.37Z" transform="translate(-4.4 0)" fill="#3b3731"/><path d="M74.4,46.34l-.82-1c-.09-1.35-.17-2.69-.26-4,3.26-.21.56,5,4.65,4C76.58,46.9,75.45,46.37,74.4,46.34Z" transform="translate(-4.4 0)" fill="#51534f"/><path d="M180.83,108.35c1.54.1,2.5.74,2.43,2.45-.13,3.17,0,6.27,1.72,9.12.67,1.11,0,2.26-.87,3.11C178.7,128.15,174,134,168,138.48a14.17,14.17,0,0,1-6.66,3.08c-2,.24-3.33,1.45-3.09,3.73a2.25,2.25,0,0,1-2.68.84c-7-3.34-14.44-6-19.17-12.74-.62-3.39-.18-6.94-1.61-10.2-.16-2.73-.86-5.23-3.16-7a7.45,7.45,0,0,1-1.53-2.23,19,19,0,0,1-1.91-4.38,8.12,8.12,0,0,1-.23-3.5c1.18-1.7.76-4.46,3.42-5.19,1.72,0,2.12,2,3.5,2.49a.48.48,0,0,1,.46.5.5.5,0,0,1,0,.12c.87,2.52,3.37,3.75,4.69,5.92a14.38,14.38,0,0,0,6.54,6.54,3.51,3.51,0,0,1,1.69,1.06c1.52,2,4.11,2.3,6,3.75-2.29,1.89-1.77,3.51.55,5a18,18,0,0,1,11-7.57,24.77,24.77,0,0,0,13.48-8.87Z" transform="translate(-4.4 0)" fill="#366abd"/><path d="M120.42,51.32l5.26,4.46c-.43-2.05-1.88-3.76.66-4.34a46.57,46.57,0,0,1,6,8.85c2.13,4.1,2.47,8.59,2.79,13.08a13.66,13.66,0,0,1-1.8,7.06c-3.12-1.59-2.27-5.2-3.85-7.58-1.42-3.18-3.8-5.63-6-8.23-1.72-2-4.21-3.81-3.42-7.1,2.49-1,3.56,1.14,4.89,2.4a42.59,42.59,0,0,1,6.7,7.67c0-.07.38-1-.09-.56,0,0-.15,0-.33-.24a92.54,92.54,0,0,0-8.57-9.67C121.08,55.7,118.7,54.17,120.42,51.32Z" transform="translate(-4.4 0)" fill="#854c2b"/><path d="M130.32,72.37c2.09,2.28,1.52,5.57,3,8.06-1.74,6-2.8,12.21-7.13,17.08-1,1.53-2,2.14-3.19.24.1-2.42,3.32-3.48,2.69-6.18-1.51-.26-3.62.92-4.28-1.29-.51-1.71,1.45-1.89,2.39-2.63,2.24-1.74,2.51-4.07,2.29-6.64C125.79,77.3,126.68,74.16,130.32,72.37Z" transform="translate(-4.4 0)" fill="#552a12"/><path d="M196.15,113.13c-1.25,0-2,.85-2.94,1.52a2.59,2.59,0,0,1-2.56-1.48,4.47,4.47,0,0,1,.14-3.8c4.25-3.75,8-7.72,9.61-13.52.64-2.32,1.51-5.68,5.34-5.48,2.45,4.09-.12,7.54-1.42,11.15C202.24,105.84,197.43,108.24,196.15,113.13Z" transform="translate(-4.4 0)" fill="#cc8666"/><path d="M179.24,109.83c-1.66,6.74-8,8.92-13,9.91-5.94,1.17-9,4-11.26,9.31L149.75,122c1.49-.54,3.26.69,4.42-.73,1.72,1.32,3.07.53,4.82-.32C166,117.56,172,112.68,179.24,109.83Z" transform="translate(-4.4 0)" fill="#284c87"/><path d="M188.77,102.65a9.49,9.49,0,0,0,1.49-4.85c-.18-11.91-.12-23.83-.08-35.75,0-1.26-1.32-4,2.12-2.64-.6,2.18,1.55,3.78,1.26,5.9a263.4,263.4,0,0,0,.82,32.4,6.79,6.79,0,0,1-2.86,6.44C189.87,105,188.81,104.76,188.77,102.65Z" transform="translate(-4.4 0)" fill="#937262"/><path d="M194.26,62.07c3.18,4.21-.42,9.55,2.83,13.92,1.8-.28,4.2-3.3,6.38.15a2.1,2.1,0,0,1-.71,1c-1,1.5-.57,2.63,1.1,2.92A2.9,2.9,0,0,1,206.63,83a2.75,2.75,0,0,1-.64,1.26c-2.27,1.71-3.68,4.13-5.34,6.36a2.47,2.47,0,0,1-2.53,1.15c-.76-.14-1.29-.78-1.06-1.39,1.9-5.19-2.49-8.87-3.16-13.44C193,71.94,192.38,67,194.26,62.07Z" transform="translate(-4.4 0)" fill="#bc7e60"/><path d="M188.77,102.65l1.21,1.59c1.94,1.38,2.45,3.11,1.37,5.27v3.82a1.48,1.48,0,0,1,0,2.09l-.15.13c-.53.38-1.05.79-1.61,1.14-1,.66-1.65,2.53-3.18,1.81s-.91-2.33-1.08-3.61c-.51-3.87.78-7.41,1.94-11a1.38,1.38,0,0,1,1.48-1.25Z" transform="translate(-4.4 0)" fill="#4972b5"/><path d="M204.32,101.52c0-3.75,3.39-7.22.93-11.18-1.32-2.57-.52-4.83,1.05-7v.07A2.64,2.64,0,0,0,204.9,80l-.17-.06c-1.45-.71-2.46-1.64-1.65-3.44a1.61,1.61,0,0,0,.43-.35C210.88,82.71,211.25,93.63,204.32,101.52Z" transform="translate(-4.4 0)" fill="#a5775e"/><path d="M123.4,97.62c1,1.35,1.88-.13,2.82-.11,4.35-.22,7.61,1.19,8.64,5.86l-3.58-2a3.2,3.2,0,0,0-2.36-.67c-2.49-.36-4.94.72-7.43.26a10,10,0,0,1-4.21-4.82,3.64,3.64,0,0,1-.1-2.84c2.71-1.24,3.87,1,5.44,2.39A3.51,3.51,0,0,1,123.4,97.62Z" transform="translate(-4.4 0)" fill="#354663"/><path d="M139.3,110.08c-1.09-2.18-4.18-3.06-4-6.09,4.18,4.62,9.39,8.27,12.92,13.52l-1.45-.15A19.7,19.7,0,0,1,139.3,110.08Z" transform="translate(-4.4 0)" fill="#3a5276"/><path d="M194.26,62.07c0,5.11-.39,10.24.9,15.27-3.31-.49-2.86-3.07-2.67-5.23.22-2.61.64-5.17-.15-7.74-.07-1.65-2.16-3.29,0-5Z" transform="translate(-4.4 0)" fill="#f9d5b6"/><path d="M135.15,73.37l-2.79-13.08C135.87,64.1,135.65,68.71,135.15,73.37Z" transform="translate(-4.4 0)" fill="#552f1f"/><path d="M34.31,128.24l8.57-6.91c.73-.5,1.22-1.26,2-1.74,1.73-1.38,3.57-2.6,5.36-3.91,4-2.83,8.17-5.57,10.89-9.85,1.09-1.73,2.35-2.17,4.08-1A2.49,2.49,0,0,1,65.9,106c.5,2.84,1.51,5.4,4,7.1,2.45,0,4.72-1.06,7.15-1.17,3.11-.15,4.84-1.61,4.64-4.9,6.88-2.07,13.46-.75,19.93,1.76,1.74,2.59,2.28,4.83-1.65,5.81-3.08.16-6.23,0-9,1.72-2.26,1.21-4.8,1.61-7.19,2.44-3.48.69-6.72,2.51-10.4,2.32-5.1-2.31-9.81.07-14.25,1.79-6.74,2.61-14,3.65-20.51,6.82C37.06,129.47,34.81,131.42,34.31,128.24Z" transform="translate(-4.4 0)" fill="#4a7ac7"/><path d="M43.37,93.39a33.43,33.43,0,0,1,11-6.77c5.69.76,10.25,4.29,15.38,6.41a3.86,3.86,0,0,1,2.1,5,4.76,4.76,0,0,1-4.52,3.27c-2.46.16-5-.27-7.39.46a29.86,29.86,0,0,1,8.12-.32c1.11.06,2.44.17,2.13,1.93-1.49,1.52-3.31,1.13-5.15,1-8.62-.7-11.32,1.21-13.7,9.58A4.18,4.18,0,0,1,50,116c-2.42,1.22-2.74-.65-3.05-2.22s.17-2.93.44-4.71c-3,2.67-.78,7.33-4.13,9.52a1.87,1.87,0,0,1-1.79-1.12,15.52,15.52,0,0,1-2.48-8.2,31.85,31.85,0,0,1,.3-6.09C39.93,99.62,41.86,96.6,43.37,93.39Z" transform="translate(-4.4 0)" fill="#6a310c"/><path d="M50.41,181.4c-2.54.68-2.81-1.47-3.65-2.91.42-3-1.92-3.49-3.87-4.36-.84-.33-1.8-.49-2.06-1.57a5.76,5.76,0,0,0-2.07-5.71A58.46,58.46,0,0,1,30.4,157c-.77-1.09-.54.79-1.14.66-3.42-6-8.48-11.55-5.82-19.39,2.3,0,2.18,2.52,3.58,3.48a44,44,0,0,1,3.56,4.15c5,5.78,9.88,11.68,15.52,16.88,1.31,1.21,2.47,3,4.61,2.37,2.53-.78,1.17-3.06,1.57-4.69s-1.07-4.41,2.52-3.95c1,1.46.77,3.19,1,4.8.1.47.18,1.08.54,1.31,4.44,2.81,3.76,6,.85,9.47-.28.63-.59,1.24-.93,1.84a11.93,11.93,0,0,0-2,5.14C53.58,180.79,52.8,182.49,50.41,181.4Z" transform="translate(-4.4 0)" fill="#16305f"/><path d="M26.28,142.47c-2-.65-1.52-3-2.84-4.16,1.57-5.57,6.15-7.9,10.87-10.09,1.28,2.05,2.7-.27,4,.13a2.44,2.44,0,0,0,2.3.61c5.63-1.84,11.1-.61,16.58.71a13.86,13.86,0,0,0,3.18,1.4c1.21.25,3,.23,2.9,2,0,1.52-1.43,2.2-2.71,2.59-5.73,1.72-11.36,3.86-17.21,5.11-2.36.5-.31.92-.22,1.29.51,2-1.1,2.09-2.3,2.36a25.32,25.32,0,0,1-5,.23c-1.23,0-2.46.14-3.7.06-.33-.08-.78-.23-.81-.49-.31-2.61-.3-2.62-3.17-2.25C27.52,142.11,26.89,142.27,26.28,142.47Z" transform="translate(-4.4 0)" fill="#3164b2"/><path d="M57.41,61.46c1.43-4,6.16-5.56,7-9.91,2.3.13,1.58,1.88,1.09,2.75C63.5,57.78,63,61.71,62,64.48A20.6,20.6,0,0,0,63.12,61c.49-4.23,2.79-6.49,7-7a3.52,3.52,0,0,1,2.46,1.4c.45,3.19-2,5.1-3.38,7.44-3.65,6.17-3.35,12.53,1,17.31C72.64,85,77,88.88,78.32,94.47c-.15,1-.46,1.89-1.6,2.15-1.11-.3-1.22-1.34-1.6-2.46.23,2.38.84,4.45.63,6.6a1.66,1.66,0,0,1-2.12,1,1,1,0,0,1-.21-.09C72,93.58,66.3,88.77,60.16,84.26a.79.79,0,0,1,.13-.65,23.07,23.07,0,0,1-2-5.46C56,72.67,57.85,67,57.41,61.46Z" transform="translate(-4.4 0)" fill="#854b29"/><path d="M60.09,84.24c.78-.18,2.06-.76,2.27-.5,4.36,5.43,11.52,9.15,11,17.62.3,2.06-1.18,2.11-2.56,2.27l-.56-.4c-3.42-2-7.34,0-11-1.3,1.9-2.23,4.34-1.51,6.53-1.53,2.52,0,4.92-.44,5.35-3.22.39-2.6-2-3.89-4-4.29-4.85-1-8.49-4.17-12.7-6.29Z" transform="translate(-4.4 0)" fill="#481f09"/><path d="M50.41,181.4c1.6-.37,2.79-1.17,3-3,1.69-1.26,2.68-.17,3.62,1.08.62,3.15,1.92,6.44-1.74,8.74-2.23,1.15-2.33,6.68-6.77,3.29-.52-1.68.77-3.8-1.26-5.11C47.13,184,49.91,183.43,50.41,181.4Z" transform="translate(-4.4 0)" fill="#ca8869"/><path d="M29.26,157.7l-.68-4.46c4.43,5.53,8.17,10.7,13,14.87,2,1.75.5,2.73-.33,4-3,.58-2.33-3.18-4.37-3.74Z" transform="translate(-4.4 0)" fill="#5b6879"/><path d="M42.42,117.44l1,.49c1.38.35,2.73.73,1.77,2.65-.59.79-1.45.74-2.3.73-1.31-3.58-5.81-4.9-6.37-9,.18-4.59-.65-9.45,3.4-13.09,1.27,1.07,1,2.13.5,3.22l-.31,7C38.78,112.75,41,115,42.42,117.44Z" transform="translate(-4.4 0)" fill="#92715e"/><path d="M40.41,102.43l-.25-2.51a9.72,9.72,0,0,0-2.82,6.83c-.06,1.86.73,3.9-.83,5.55-2.24-7.94,1-13.9,6.86-18.91C44.45,97.08,40.71,99.24,40.41,102.43Z" transform="translate(-4.4 0)" fill="#78594a"/><path d="M59.29,79.35c1,1.28.75,2.81.93,4.26-2.89-2.87-5.57-5.86-5.93-10.19,1.25-.76.8-2.17,1.22-3.24C58.58,72.51,57.26,76.61,59.29,79.35Z" transform="translate(-4.4 0)" fill="#66453a"/><path d="M43.27,173.29c2.65.12,3.87,2.24,5.34,3.92.83.95.67,1.09-1.85,1.28l-3.49-3.39A1.3,1.3,0,0,1,43.27,173.29Z" transform="translate(-4.4 0)" fill="#5b6877"/><path d="M43.27,173.29v1.81c-4.31-.17-4.89-3.86-6.37-6.72,2.54,0,2.19,3.34,4.37,3.74A2,2,0,0,0,43.27,173.29Z" transform="translate(-4.4 0)" fill="#323a44"/><path d="M94.29,52.35c0-2.66,1.66-3,3.8-2.65a1.72,1.72,0,0,1,.74.62c3.33,7.13,9,9.8,16.62,8.68,2.21,1.45,2,3.92,2.52,6,.37,3.57-2.54,5.16-4.47,7.32s-4.43,3.49-6.43,5.49c-1.25,1.15-2.4,2.41-3.69,3.51-3.82,2.94-7.59,2.64-11.4,0a62,62,0,0,0-6.31-3.92c-6.83-4.87-11.46-11-11.09-19.86a2,2,0,0,1,2.24-1.62,3.08,3.08,0,0,1,1.26.7c4.25,3.88,9.21,3.73,13-.41C92.28,55,92.92,53.38,94.29,52.35Z" transform="translate(-4.4 0)" fill="#fbc299"/><path d="M88.13,26.81a.9.9,0,0,1-.75-.3c.18-3.37-.81-6.85.9-10.09-.16-1.43.87-1.52,1.86-1.67,3.1.67,6.33-.32,9.41.7a2.67,2.67,0,0,1,1.63,1.07c.34,1.09-.54,1.4-1.2,1.83-.81.52-2,.87-1.4,2.16a2.35,2.35,0,0,0,2.16,1,1.78,1.78,0,0,0,2.05-1.44,1.49,1.49,0,0,0,0-.21c.31-1.52,0-3.79,2.82-2.49.56,6.29.66,12.44-5,16.87a10.27,10.27,0,0,0-1.22,1v.23a1.84,1.84,0,0,1-2,.29c-1.63-1.39-.75-3.29-1.06-4.59a24.13,24.13,0,0,1-.18,3.4,2.65,2.65,0,0,1-.84,1.09l-1-.24A2.22,2.22,0,0,1,93,33.24C93.16,27.24,92.89,26.88,88.13,26.81Z" transform="translate(-4.4 0)" fill="#f1cb68"/><path d="M115.24,59.34c-8.88,3-13.1.57-17.15-9.64,3.41,1.41,7.14.36,10.65,1.55,3.18,1.07,2-2.69,3.37-3.69,2.08,1.72,1,3.83.69,5.82-.67,4,1.52,1.14,2.55,1.07.92-.4,1-1.28,1.21-2.09,2.63.17,2.69.31,1.82,4C117.76,57.8,117,59.08,115.24,59.34Z" transform="translate(-4.4 0)" fill="#5e3319"/><path d="M94.29,52.35c-2.14,6.54-7.06,9.7-13,8.31-2-.47-3.84-1.13-4-3.61,1.71-.72,1.68-2.93,3.24-3.79C84.94,50.76,89.41,48.47,94.29,52.35Z" transform="translate(-4.4 0)" fill="#5a3018"/><path d="M120.58,36.81l.24,1.58c-2.29,3.43-3.86,7.21-9.6,6.14-7.24-1.34-7.33-.85-7-9.08,2.36-2.09,4.91-1.05,7.37-.38s4.61,1.66,7.12,1C119.49,36.05,119.78,37.07,120.58,36.81Z" transform="translate(-4.4 0)" fill="#6f736e"/><path d="M117.4,56.46c-.58-1.31,2.31-3.33-.84-4.1-.41-1.22.62-2,.87-3.07,2.24-1.15,2.56.53,3,2,1.07,5.52,6.89,7.31,9.34,11.83,1.14,2.12,2.56,4,3.12,6.48-4.06-4.27-8-8.6-12.61-12.2a11.12,11.12,0,0,1-1.82-.39A2,2,0,0,1,117.4,56.46Z" transform="translate(-4.4 0)" fill="#a56d4f"/><path d="M119.29,36.41c-1.1,1.3-2.12,1.85-4.05,1.09-3.47-1.38-7-2.75-11-2l-4.89-.2a6.48,6.48,0,0,1,.1-.86c1.44-.85,2.39-2.4,4.11-2.85a3.57,3.57,0,0,1,2.79.69l1.93.23C112.58,32.13,116.71,32.11,119.29,36.41Z" transform="translate(-4.4 0)" fill="#c1c6c9"/><path d="M97.33,35.24l2.07.2c2.58,2.86,2.79,7.06.28,7.66-1.82.44-4.11.93-4.5-2.17-.22-1.79-1-3.56.12-5.3a.38.38,0,0,1-.08-.48A1.87,1.87,0,0,1,97.33,35.24Z" transform="translate(-4.4 0)" fill="#7b7e7a"/><path d="M115.35,54.45c-1.29,2.44-1.29,2.44-4.32,3.36.37-3.48.73-6.86,1.08-10.25C116.73,48.24,114.16,52.24,115.35,54.45Z" transform="translate(-4.4 0)" fill="#b4afab"/><path d="M80.49,53.24c-.85,1.46,1,5.25-3.24,3.79l.06-.45a1.76,1.76,0,0,1-.51-2.08l-.42-5.79C78.64,49.43,81.36,49.72,80.49,53.24Z" transform="translate(-4.4 0)" fill="#b7afab"/><path d="M92.05,37.59a2.64,2.64,0,0,1,.08.49c.1,1.73,1,3.65-1,4.9a1.76,1.76,0,0,1-1.24,0c-.35-1.91-2.67-3.58-.76-5.77A2,2,0,0,1,92.05,37.59Z" transform="translate(-4.4 0)" fill="#838784"/><path d="M99.65,47.73c-2.18-.5-4,.86-5.5-.88-.46-.52-.47-1.58.28-1.61C96.21,45.16,98.32,44.72,99.65,47.73Z" transform="translate(-4.4 0)" fill="#3d2821"/><path d="M92.05,37.59l-3-.39-.89-.89c1-1.55,4.06.19,4.18-2.69.2-.35.45-.4.75-.11.38.64.76,1.28,1.15,1.92A3.6,3.6,0,0,0,92.05,37.59Z" transform="translate(-4.4 0)" fill="#50504c"/><path d="M99,1.53c4.13,3.4,9,4.75,14.22,5C108.92,8,100.69,6,98.11,2.7,97.45,1.83,98.33,1.67,99,1.53Z" transform="translate(-4.4 0)" fill="#979998"/><path d="M107.58,15.55l-1,5.2c-1.22-.81-.47-2.09-.74-3.12-.75-1.63-1.44-3.27-.49-5.07l.11-.38C107.46,12.47,107.23,14.18,107.58,15.55Z" transform="translate(-4.4 0)" fill="#f8de8e"/><path d="M128.06,156.32l-1.48,4.28c-2,1.08,0,4.36-2.8,5-4.48-2.28-1.93-6.17-2.17-9.42,2.2-5,0-10.1,0-15.14a1.87,1.87,0,0,1,1.53-1.28,3.36,3.36,0,0,1,1.32.28c2,.86,3.89,0,5.84,0s2.81.64,2.33,2.63h0C129.37,146.62,128.79,151.5,128.06,156.32Z" transform="translate(-4.4 0)" fill="#214480"/><path d="M124.36,179.41c1-1.93,1.87-3.88.87-6.1-1.26-.38-2.5-.78-2.85-2.29-.34-1.85-.46-3.64,1.17-5,1.22-.18,2.17-1.28,3.51-1.06,2.13.82,2.62,2.82,3.3,4.67s1.45,3.41,3.8,3.15a2,2,0,0,1,1.17.57c1.23,3.07-1,5.91-.6,9.06.21,1.75-1.57.34-2.43-.13-1.34-2.67-3.82-1.73-6-1.87Z" transform="translate(-4.4 0)" fill="#391b13"/><path d="M132.58,142.63c-1.91-3-4.61-1.08-6.86-.84-1.66.18-2.17.34-1.46-1.42,4.42-2.13,8.91-4.11,13-6.92,6.23,5.3,12.64,10.27,21,11.84l3.19.09c-1.84,2.72-4.65,2.42-7,1.6a106.37,106.37,0,0,1-14.58-6.1C136.49,139.13,134.41,139.5,132.58,142.63Z" transform="translate(-4.4 0)" fill="#1a325d"/><path d="M134.43,173.39c-2.91,2-4.17-.17-4.85-2.3a25.71,25.71,0,0,0-2.38-5.77c-.14-2.47,2.16-.88,3-1.78a1.17,1.17,0,0,1,1.18,1.16v0C132.21,167.68,134.7,170,134.43,173.39Z" transform="translate(-4.4 0)" fill="#7e6053"/><path d="M128.06,156.32c-1.49-5,2-9,2.78-13.58a7.86,7.86,0,0,1,1.81-.09Z" transform="translate(-4.4 0)" fill="#1a325d"/><path d="M170.21,141.37c3-4.25,7.86-5.74,12.19-8C179.3,137.51,174.58,139.18,170.21,141.37Z" transform="translate(-4.4 0)" fill="#1d2f4f"/><path d="M130.16,163.54c-.63,1.19-2.48.34-3,1.78l-2.88,1c-.3-.21-.41-.42-.33-.65s.18-.35.28-.35c.18-1.84.07-3.82,2.27-4.68C125.3,164.59,128.94,162.58,130.16,163.54Z" transform="translate(-4.4 0)" fill="#2c333c"/><path d="M188.17,129.44c.53-3,2.53-4.81,5.13-6.08C193,126.57,190.12,127.61,188.17,129.44Z" transform="translate(-4.4 0)" fill="#1f3150"/><path d="M134.43,173.39c-1-2.88-3-5.43-3.09-8.65,2,2.54,4,5.11,4,8.58Z" transform="translate(-4.4 0)" fill="#463a34"/><path d="M119.29,36.41c-3.23-2.51-7.34-2.55-11-4,1.55-1.44-.21-5.61,4-4.87,5.21.93,8,4.08,8.26,9.22Z" transform="translate(-4.4 0)" fill="#363935"/><path d="M106.25,16.24c.1,1.49.19,3,.28,4.48-.11,2.18-.21,4.36-.32,6.55-.33,2.17-.78,4.28-3.18,5.18-1.23.55-2,2-3.55,1.92,4.43-4.77,6.76-10.23,5.71-16.85a1,1,0,0,1-.26-.77c0-.27.09-.41.15-.41A1,1,0,0,1,106.25,16.24Z" transform="translate(-4.4 0)" fill="#f3e5ad"/><path d="M103,32.48l3.18-5.18c1.47,1.59.32,3.28.18,4.93Z" transform="translate(-4.4 0)" fill="#46423c"/><path d="M52.28,217.42c.68-1.91,2.58-4-.89-5.21-1.11-4.8,1.86-8.66,3-12.94,1-.85-.35-3.09,1.85-3.29,2.54,1.92,5.43,3.63,4.71,7.58-3.38-.53-1.32,3-2.89,3.88a9.58,9.58,0,0,1-.66,1.22c-1.09,2-1,4.4-1.81,6.5C55,216.64,54.58,218.48,52.28,217.42Z" transform="translate(-4.4 0)" fill="#181a21"/><path d="M56.32,196.34c-.65,1-1.29,2-1.94,2.93,0-3.69,1.5-7.27.89-11,1.67-2.8.68-5.87.9-8.83-1.2-1.89-.78-4-.74-6l.92-1.08a1.12,1.12,0,0,1,1.53.41l0,0c1.59,5.33.72,10.74.53,16.12C57.3,191.24,58.4,194.24,56.32,196.34Z" transform="translate(-4.4 0)" fill="#401c0c"/><path d="M70.3,54.39c-6.59,1.31-6,7.63-8.69,11.9a31,31,0,0,1,2-10.44c.54-1.33,2.54-2.49.88-4.3,3.89-5.36,4.45-5.49,9-2.08C73.81,52,72.66,53.58,70.3,54.39Z" transform="translate(-4.4 0)" fill="#67310f"/><path d="M76.8,54.52l.51,2.08-1.91.73C74.71,65,72,72.2,69.53,79.43c-3.08-2.4-4-7.9-2.36-12.74,1.37-4,4.22-7.14,5.7-11,.54-1.06,1.25-1.8,2.58-1.26Z" transform="translate(-4.4 0)" fill="#854b28"/><path d="M59.29,79.35c-2.67-2.47-2.74-6-3.78-9.17.67-2.91,1.3-5.81,1.9-8.72,1.84,1,1,2.64.78,3.9C57.42,70.14,59.32,74.66,59.29,79.35Z" transform="translate(-4.4 0)" fill="#deccc0"/><path d="M75.45,54.39l-2.13,1c-.32.48-.65.48-1,0a2.16,2.16,0,0,1-2.06-1l3.14-4.92C77.07,49.91,74.45,52.88,75.45,54.39Z" transform="translate(-4.4 0)" fill="#9c6445"/><path d="M52.28,217.42c3.22-.92,2.2-4,2.92-6.1.53-1.52.32-3.26,2.15-4,.89,4.46.71,8.66-3,12l-2,.05Z" transform="translate(-4.4 0)" fill="#383f47"/><path d="M54.39,219.24c2.66-3.59,2.69-7.82,3-12h0c2.25,0,2.88,1,2,3-2,3-1.72,6.71-3.13,9.9H54.54A2.3,2.3,0,0,1,54.39,219.24Z" transform="translate(-4.4 0)" fill="#181e28"/><path d="M191.11,115.54c.07-.74.13-1.48.2-2.22l1.9,1.33c-1.11,1.81.63,3,1.23,4.61C191.81,119.07,191.84,117,191.11,115.54Z" transform="translate(-4.4 0)" fill="#6782a8"/><path d="M84.31,169.51a5.88,5.88,0,0,0-.91-.26c-1.1-1.29-.4-2.71.21-3.69,3-4.78,6.51-9.22,9.34-14.14,1.18-2.06,3.43-1.61,5.55-1.45.53,0-.13-1.15,0-.49h-.18c-3.81.31-7.78,2.36-11.3-.93-1.18-4.14-3.5-7.92-3.82-12.34,2.55-.92,5-2.25,7.83-2.15,1.71.06,3.64-.22,4.55,1.86-.39,1.11-1.39,1.34-2.36,1.49-2.4.37-4.92.67-4.1,4.1.75,3.14,2.31,5.72,6.1,5.09a70.29,70.29,0,0,1,8.29-1.39c2.33-.11,3.46-1.68,3.53-4v-5a7.54,7.54,0,0,0-1.31-4.34A4.07,4.07,0,0,1,105,130a2,2,0,0,1,.81-1.12,2.77,2.77,0,0,1,2.08,0c1.35,0,.73,2.61,3.39,2,1.58-.39,2,3.65,2.26,6,.49-.53.21-1.1.16-1.6-.2-2.05-1.43-5.17,1.1-5.54,2.16-.32,2.3,3.05,2.74,5.11a28.3,28.3,0,0,1-1.68,11.53c-.43,2.16-1.18,4.26-1.41,6.46-.63,2.83,1.47,3.59,3.38,4.57,1.26.65,3-.17,3.92,1.45a41.57,41.57,0,0,1-5.2,15.73,2.7,2.7,0,0,1-2.17.23c-2-.77-1.48-4.8-5-3.77-.63.18-1-1.58-.81-2.57.29-1.42,1.14-2.72.91-4.45a5.55,5.55,0,0,1-.88,3.48c-.83,1.23-2,1.9-3.4,1.28-1.81-.79-.18-1.85-.14-2.83.19-4.28,3.41-8,2.42-12.44-1.14-1.21.17-2.78-.52-4.1a6.23,6.23,0,0,0-3.72,2.68c1.33,1.06,3.71-.28,4.47,1.77-.35,5.61-2.79,10.69-4.07,16.06-.52,2.2-2.91,2.47-4.53,3.52C93.31,175.24,89.05,171.47,84.31,169.51Z" transform="translate(-4.4 0)" fill="#29549a"/><path d="M87.26,148.24c3.83,1.76,8,.93,11,1.18C91,153.91,87.71,162,83.36,169.29c-1.5-.39-.79-2.38-2.09-2.91-1.1-3.3-3.71-5.69-5.28-8.71,1.6-2.73,5.82-4,6-6.86s-4.3-4-5.75-6.84c-.78-1.54-1.63-3.36-3.91-3.26a13.71,13.71,0,0,0-4.57-2.16c-2-1.33-4.1-.44-6.13,0a22.09,22.09,0,0,1-6.2.95,3.61,3.61,0,0,1,2,.7c.14.34.21.85,0,.92-5,1.72-4.16,5.58-3.51,9.39a54.94,54.94,0,0,1-15.67-3.27c-1.68-.64-3.41-1.5-2.9-3.89h6.7c1.5-1.07-2.94-2.5.73-3.41,5-1.23,9.79-3,14.65-4.64,1.79-.6,3.92-.52,5.26-2.19-1.4-1.89-4.79.75-5.2-2.68,1.46-1.92,3.64-2.08,5.77-2.35,3.8.07,7.64-.4,11.4.38,2.61.53,4.72,1.47,3.8,5-1,3.86,1.53,6.58,3.75,9.28C83.78,144.67,86,146,87.26,148.24Z" transform="translate(-4.4 0)" fill="#162f5e"/><path d="M56.32,196.34c.32-2.37-.78-4.91.87-7.12,1,1,.63,2.18.37,3.72.55-2.29.14-4.24.33-6.15.47-1.23,1.24-2,2.63-1.39A2.5,2.5,0,0,1,62,187.78c0,1.7-.91,3.14-1.25,5,1.84-5.54,1.84-5.54,6.18-2.89a24.3,24.3,0,0,1,4.52,3c1.08,1.62.21,3.13-.62,5.71a140.86,140.86,0,0,0,7.83-16.29c.5-1.3.39-3.24,2.7-2,1.33,1.11,2.13,2.08,1,4.09C79,190.5,75.88,196.72,72.83,203c-1.61,3.32-5.21,1.43-7.37,3.14-3,1.43-4.45,0-5.23-2.79C60.31,200.24,57.26,198.89,56.32,196.34Z" transform="translate(-4.4 0)" fill="#59352a"/><path d="M84.31,169.51c3-.14,5.55,1.34,8.25,2.32,1.8.65,3.68,2.44,5.81.63,1-.44,1.33.29,1.64,1,.42,2.66-1.34,4.94-1.32,7.53-.32,2.3.49,5-2.44,6.33-1.37-.11-2.86.36-4-.81.25-3.3,2-6.25,2.17-9.41-1.29,3-.58,7-4,9.14-3-1-6.68-.67-4.56-6.33C86.85,177.24,83.47,173.24,84.31,169.51Z" transform="translate(-4.4 0)" fill="#242c38"/><path d="M81.35,180.34,71.2,200.76c-3.35-2.83.4-5.08.15-7.45a23.89,23.89,0,0,1,7.28-14.63,2.49,2.49,0,0,1,2.86.79A1.72,1.72,0,0,1,81.35,180.34Z" transform="translate(-4.4 0)" fill="#745246"/><path d="M76.31,157.56c2.72,2.33,6.13,4.26,5,8.78a8.93,8.93,0,0,1-.16,1.14c-2.22.16-3.21-1.57-4.46-2.9-.49-3.45-3.61-2.52-5.66-3.37-1.56-.74-2.88-1.67-3-3.6,1.19-2.48,3.57-1.6,5.53-1.94C74.73,155.9,75.83,156.24,76.31,157.56Z" transform="translate(-4.4 0)" fill="#241715"/><path d="M60.27,203.36c1.58,1.23,2.91,2.94,5.23,2.8a6.17,6.17,0,0,1,.84.15c.77,3.37-.65,5.26-3.94,5.9l-1.07.08-2-2a2.67,2.67,0,0,0-2-3C58.58,206.13,56.58,202.62,60.27,203.36Z" transform="translate(-4.4 0)" fill="#595954"/><path d="M90.41,186.24a35.41,35.41,0,0,0,2.72-10c.11-1.07-.16-2,1.35-1.88,1.29.11,1.59.79,1.28,2-.87,3.47-.76,7.27-3.53,10.08Z" transform="translate(-4.4 0)" fill="#424951"/><path d="M62.4,212.24c2.35-1.27,3-3.71,3.94-5.9,1.09.55,3.61-1.2,3.23,1.26-.29,1.94,0,4.86-3,5.57A4.57,4.57,0,0,1,62.4,212.24Z" transform="translate(-4.4 0)" fill="#6f726e"/><path d="M79.37,169.47c2,1.83,2.16,4.23,2.11,6.7-.69,1.34-2,1.81-3.24,2.49a1.93,1.93,0,0,1-1.41-.22,3.66,3.66,0,0,1-1.2-3.49c.51-1.85.12-4,1.38-5.56C77.58,168.63,78.69,166.89,79.37,169.47Z" transform="translate(-4.4 0)" fill="#5c5d59"/><path d="M79.37,169.47c-1.78-1.06-1.72.43-2,1.44-.36,1.5.52,3.31-1.16,4.47-1.42.14-1.65-.94-2-1.92,0-3.44-.51-7.06,3.09-9.31l3.77,3.33A3.07,3.07,0,0,1,79.37,169.47Z" transform="translate(-4.4 0)" fill="#777773"/><path d="M96.25,187.33c1.24-2.15,1.09-4.58,1.38-6.92,1.55,0,1.94,1.16,2.34,2.3-.76,3.15.2,5.48,3.24,6.83L100.44,191C98.24,190.7,96.51,189.85,96.25,187.33Z" transform="translate(-4.4 0)" fill="#999b9a"/><path d="M78.26,178.37c.17-2.06,1.79-2,3.22-2.2,1.43,1.09.83,2.2,0,3.3l-3-.27c-.29-.12-.42-.29-.38-.5S78.18,178.37,78.26,178.37Z" transform="translate(-4.4 0)" fill="#8a8985"/><path d="M114.31,174.24h1.9a25.81,25.81,0,0,1,7-2.89l2,2c-2.27,1.81-2.56,4.71-3.88,7-1.11,3.07-3.91,4.68-6,6.91a7.89,7.89,0,0,1-5,1.07c-2.38-4.49.41-8.49,1.17-12.69A2.42,2.42,0,0,1,114.31,174.24Z" transform="translate(-4.4 0)" fill="#2c333c"/><path d="M112.7,175.18q-1.17,6.57-2.33,13.15l-2,2-1-.87c-.19-1-1-1.09-1.83-1.17-1.56-.11-3.2-.47-3.24-2.29s1.79-1.55,3-1.9,2.41-.42,2.66-1.79-.93-1.48-1.85-1.78c-1.16-.39-3-.3-2.73-2.1s2-1.83,3.59-1.71a1.89,1.89,0,0,0,1.37-.29,5,5,0,0,0-6.56.35c-.74,1.92-.59,4.27-2.67,5.54l-1.47-1.91c.6-2.36,1.19-4.73,1.79-7.1C104.28,170.15,110.83,171.07,112.7,175.18Z" transform="translate(-4.4 0)" fill="#989c9b"/><path d="M115.36,187.24c.3-3.56,4.77-4.58,5.09-8.19a2.76,2.76,0,0,1,.9,1.28C120.93,184,120.25,187.46,115.36,187.24Z" transform="translate(-4.4 0)" fill="#474d54"/><path d="M99.1,182.32l1.36-7a1.7,1.7,0,0,1,2-.18c1.49,2.5.5,5.1.09,7.58-.86,5.16-.86,5.26,4.74,4.78,1.74.56.88,1.27.11,2l-4.18.08C96.49,190.18,98.45,185.88,99.1,182.32Z" transform="translate(-4.4 0)" fill="#2e3337"/><path d="M90.43,15.52a2.14,2.14,0,0,0-2.15.9c-3.21-.57-1.5-2.42-1-3.94,3-.3,5.91-1.47,9-1a2.35,2.35,0,0,1,.33,3C94.63,15.32,92.71,16.46,90.43,15.52Z" transform="translate(-4.4 0)" fill="#e2ae37"/><path d="M96.29,14.4V11.46c3.11-.49,6,.68,9,1.1l1,3.71-1,.12C102.07,16.73,99.17,15.6,96.29,14.4Z" transform="translate(-4.4 0)" fill="#edc664"/><path d="M93.14,33.51a3.88,3.88,0,0,0-.75.11l-2.07-1.38c-.73-1.81-3.11-3-2.19-5.42.38-.85-.33-2,.81-2.64.42,3.33,5.24-.28,5.31,3.3C94.29,29.51,95.19,31.82,93.14,33.51Z" transform="translate(-4.4 0)" fill="#e7b13a"/><path d="M137.26,133.45c-3,4.85-7.52,6.71-13,6.92l.06-.12c-1.88-2.19-1.55-4.64-.86-7.13.62-1.29,1.8-1.16,3-1.25,7.69-.64,8.24-1.39,6.51-8.72.44-1.21,1.18-1.59,2.31-.8C138,125.68,137.2,129.64,137.26,133.45Z" transform="translate(-4.4 0)" fill="#3567b5"/><path d="M150.34,130.13c-5-2.62-7-8.12-11.16-11.51l1.21-1.16,10.89,11.65Z" transform="translate(-4.4 0)" fill="#5c8cd5"/><path d="M129.13,109.8l1.83,3.66c-.3.79.11,1.91-1.08,2.29-3.67.41-6.07-1-6.7-4.82a3.36,3.36,0,0,1,2.65-2.39C127.14,108.41,128.58,108.08,129.13,109.8Z" transform="translate(-4.4 0)" fill="#ead69a"/><path d="M165,130.52l-6.78,4.39c-.88.57-1.86,2-2.71.3-.64-1.28,0-2.38,1.57-3,2.41-.89,5.17-.71,7.13-2.91Z" transform="translate(-4.4 0)" fill="#5989d4"/><path d="M135.28,122.35l-2,1a2.55,2.55,0,0,1-2.47,2.22,1.69,1.69,0,0,1-1-1.69,4.47,4.47,0,0,1,.43-1.34c2-2,1.25-4.7,1.74-7.08C135,116.75,135.83,119.24,135.28,122.35Z" transform="translate(-4.4 0)" fill="#314669"/><path d="M129.13,109.8c-1.15-.85-2.36-.33-3.56-.18a1.12,1.12,0,0,1-1.49-.54l0,0c-.69-2-3.16,0-4-1.73a1.8,1.8,0,0,1,.29-1.37,6.53,6.53,0,0,1,6.51-1.31,2.53,2.53,0,0,1,1.5,1.7Z" transform="translate(-4.4 0)" fill="#43546e"/><path d="M131.9,115.42c2,3.11,1.42,5.81-1.27,8.19-1.94-2.65-.66-5.44-.34-8.19l.67-2C131.28,114.11,131.58,114.77,131.9,115.42Z" transform="translate(-4.4 0)" fill="#ded0a3"/><path d="M128.35,106.32l-1.14-.78c-3-4.15,1.76-4.12,3.15-5.91,1.12.13.82,1,.92,1.7C129.58,102.59,130.93,105.6,128.35,106.32Z" transform="translate(-4.4 0)" fill="#93b4e6"/><path d="M153.13,130.92c-1.14,3.4-2.62,5.14-4.77,7.65C148.58,134.81,149.79,132.87,153.13,130.92Z" transform="translate(-4.4 0)" fill="#224f97"/><path d="M139.3,110.08l7.46,7.27A9.57,9.57,0,0,1,139.3,110.08Z" transform="translate(-4.4 0)" fill="#6591d4"/><path d="M118.22,56.48c1.39-1.2,1.53.27,2,1,1,4.1,4.47,6.38,6.87,9.46,1.29,1.66,2.82,3.25,3.18,5.48-2.86,3.5-3.19,7.41-3,11.86.11,2.42-1.11,6.09-6.19,5,2.55,2.77,4.49-.29,6.16,1.16a7.7,7.7,0,0,1-5.11,5.92c-1.81-.62-2.57-3-4.8-2.89-2.65-4.41-7.24-4.58-11.58-5.33-1.61-3.67-.31-7.19.58-10.72,3.7-3.94,9-6.47,10.89-12C117.58,62.41,116.41,59.29,118.22,56.48Z" transform="translate(-4.4 0)" fill="#421d07"/><path d="M122.19,96.32l5.11-5.92c1,3.64-2.28,5-3.9,7.22a1.24,1.24,0,0,1-1.21-1.27Z" transform="translate(-4.4 0)" fill="#c7b3a5"/><path d="M192.34,64.37c1.77,2.41.61,5.16.89,7.74.2,1.94-.4,4.11,1.93,5.23.82,4.61,6.45,8.18,1.59,14.76,4.92-2.74,4.73-8.4,9.55-8.73a14.83,14.83,0,0,1-1.05,7,26.61,26.61,0,0,0-5.25,9.8c-1.26,4.36-4.47,7.43-8.65,9.35-.46-1.75-.91-3.5-1.37-5.25,2.83-2.14,3-4.73,2.74-8.27A210.05,210.05,0,0,1,192.34,64.37Z" transform="translate(-4.4 0)" fill="#f8bf95"/><path d="M203,76.49a4.13,4.13,0,0,0,2.54,3.17c1.63.78,2.41,2.18.65,3.78-.77-.61-.12-2.37-2.46-1.84-3.27.73-3.07-2.91-3.3-4.64C200.24,74.91,202.17,76.88,203,76.49Z" transform="translate(-4.4 0)" fill="#f3be9b"/><path d="M106.82,88.48c5.42-2.43,8.8-.84,10.57,5l.9,1.93c-3,3.77-4.47,9-10,10.17-1.12-1.54-.11-2.83.59-4.08a3.55,3.55,0,0,0-.56-4.51,12.71,12.71,0,0,1-2-4.55C106.35,91.07,105.07,89.57,106.82,88.48Z" transform="translate(-4.4 0)" fill="#284471"/><path d="M130.36,99.63c0,2.52-4.18,2.83-3.15,5.91a11.37,11.37,0,0,0-6.67,1,7.3,7.3,0,0,1-7.42-1.31c-.66-3.51,1.75-3.62,4.17-3.77,1.44-.09,3.25,1.53,4.23-.87A15.22,15.22,0,0,1,130.36,99.63Z" transform="translate(-4.4 0)" fill="#6d95d3"/><path d="M121.52,100.62c.46.68,1.38,1.44,1.28,2-.22,1.4-1.51.79-2.38.7-2.49-.26-5.14-2.15-7.25.83-1.3,2.3-3.51,3.44-5.8,4.5a1.45,1.45,0,0,1-1.52-1.16,2,2,0,0,1,1.67-2.28,1.78,1.78,0,0,1,.46,0c4.91-1.74,5.77-7.73,10.31-9.86C118.43,97.68,121.08,98.47,121.52,100.62Z" transform="translate(-4.4 0)" fill="#1a3057"/><path d="M87.26,148.24c-5-2.19-8.18-6.07-10.12-11.07-.18-.46-.59-1-.5-1.39,2.15-9.07-4.82-5.8-8.78-6.44a25.9,25.9,0,0,0-4.49,0c.36-2.68,2.6-2.06,4.15-2.1,2.88-.07,4.41-.77,3.42-4-.57-1.89-.06-3.3,2.41-2.82l10-3c1.4,1.64,3.5.35,5.08,1.22a2.53,2.53,0,0,1,1.06.86c-.94,2.93-3.57,2.45-5.68,2.57a13.88,13.88,0,0,0-7,1.84c1.42,1.6,3.47,2,4.83,3.49,1-.94.48-2.3,1.3-3.11,1.7-1.55,3.46-1.74,5.29-.23.07,2.45-2.77,5.35-.18,7.18,2.23,1.58,4.72-.16,7.16-1.65,2.71-1.65,6.32-.94,9.57-.66l.48.52v.87c-2.73,3.61-5.91,5.79-10.87,4.71-3.7-.8-7.47,0-11,1.38C85.69,140,87.47,143.75,87.26,148.24Z" transform="translate(-4.4 0)" fill="#3665b0"/><path d="M73.35,120.32c-2.47.63-1.58,2.27-1,3.62,1.71,3.71.18,4.63-3.37,4.47-1.88-.08-4-.76-5.65.88l-5.88,1.14c-5.5.22-11-2.42-16.53-.27-1.19.46-2.07-.72-2.61-1.81,9.4-3,18.84-6,28.2-9.22C69.22,118.24,71.37,118.24,73.35,120.32Z" transform="translate(-4.4 0)" fill="#3466b5"/><path d="M49.27,116.24a7.42,7.42,0,0,0,1.09-3.72c.45-6.78,2.75-9,9.49-9.17,3.46-.09,6.91-.09,10.37-.13l.1.12a1.09,1.09,0,0,1,0,1.4c-1.5,1.23-3,2.07-4.85.55-1.15,0-2.32-1.24-3.34.66-2.56,4.82-6.93,7.8-11.48,10.51a.83.83,0,0,1-1.17.07A.86.86,0,0,1,49.27,116.24Z" transform="translate(-4.4 0)" fill="#481f09"/><path d="M65.45,105.32l4.79-1c4.35-2.13,4.53-2.12,4.26,2.5-.14,2.57.9,2.34,2.55,1.71,1.31-.42,2.59-1.25,4-.42.88.64,2.53.74,2.47,2S82.21,112,81,112.2c-3.9.71-7.82,1.33-11.73,2-1.41-2.61-2.84-5.2-4-7.92Z" transform="translate(-4.4 0)" fill="#709ada"/><path d="M81.08,108.16l-3.68,1.26c-1.39.48-1.34-.43-1-1.21a18.14,18.14,0,0,1,3.18-4.31c1-1,1.69-2.3,2.94-3,2.83-1,5,1,7.51,1.62.87.32,1.74.64,2.62.93,2.85.9,5.58,2.09,8.35,3.19a3.66,3.66,0,0,1,1.53,1.44,2,2,0,0,1,0,1.37.94.94,0,0,1-1.24.06C94.58,108.18,88,106.08,81.08,108.16Z" transform="translate(-4.4 0)" fill="#132a52"/><path d="M49.27,116.24l1.36.22-5.44,4.09a3.7,3.7,0,0,0-1.78-2.65,32.87,32.87,0,0,0,.88-5.31c0-3.13,1.42-4.89,4.4-5.58C49.46,110.14,46.23,113.4,49.27,116.24Z" transform="translate(-4.4 0)" fill="#471d08"/><path d="M88.14,119.24c-1.69-.4-4.37,1.68-4.76-1.93l6.93-1.9a38.92,38.92,0,0,1,6.11-1.5,1.68,1.68,0,0,1,2.1.8,1.89,1.89,0,0,1-1,2.46C94.64,119,91.34,119,88.14,119.24Z" transform="translate(-4.4 0)" fill="#d7c89b"/><path d="M101.27,109.46l1-.09c4.89,3.1,5.94,8.42,7.68,13.32a1.92,1.92,0,0,1-.87,2.56c-1.1.45-1.83-.46-2.38-1.27a51.28,51.28,0,0,1-2.64-5.3c-.87-1.72-2.57-1.91-4-2.59-1-.65-1.49-1.46-.77-2.62C103,113.66,101.7,111.35,101.27,109.46Z" transform="translate(-4.4 0)" fill="#305b9e"/><path d="M99.25,113.47l1,1.92c0,3.62-3,3.52-5.33,4.2-1,.12-1.94.37-2.92.57a3,3,0,0,1-2.77-.7l-1.1-.18L99,115.4c-3.74-1.41-6.21.55-8.74,0C92.91,113.08,96.11,113.38,99.25,113.47Z" transform="translate(-4.4 0)" fill="#57677a"/><path d="M65.31,106.33a10.3,10.3,0,0,1,4,7.92C67.05,112.08,64.72,110,65.31,106.33Z" transform="translate(-4.4 0)" fill="#9cbceb"/><path d="M42.42,117.44c-3.15-2-3.28-5.35-4-8.46-.1-.46,0-.48,1.66.5C40,112.4,42,114.7,42.42,117.44Z" transform="translate(-4.4 0)" fill="#d1b1a0"/><path d="M48.43,99.83l-6,6.56C43.28,102.7,44.67,100.74,48.43,99.83Z" transform="translate(-4.4 0)" fill="#8e5230"/><path d="M35.35,143.35c3.3,4.56,8.76,4.59,13.36,5.19,2.15.27,3,1.71,4.72,2,2.23-.25,1.94,1.68,2.5,2.88.13,1.37-.18,2.48-1.7,2.89-1.64,1.88-1.2,4.22-.77,6.19.52,2.41-.78,3.32-2.3,4.29s-2.81,0-3.93-1.06a176.39,176.39,0,0,1-17.77-19.49c3-1.27,4.62,1.74,6.89,2-1.32-1.13-4.07-1.11-4-4C33.07,143.18,34.24,143.34,35.35,143.35Z" transform="translate(-4.4 0)" fill="#285399"/><path d="M32.35,144.35l7,5.09c-4.1.26-6.81-2-9.9-3.18l-3.18-3.79c2.18-4.75,5.37-.31,8-1.17C34.58,143.17,30.14,141.42,32.35,144.35Z" transform="translate(-4.4 0)" fill="#4676c2"/><path d="M57.36,172.37h-1c0-.16-.07-.39,0-.49,3.46-4,1-6.81-1.94-9.49a1.77,1.77,0,0,1,1.18-.55c2.69.27,4.19,3.49,7.22,2.93C63.67,169.18,59.79,170.24,57.36,172.37Z" transform="translate(-4.4 0)" fill="#20232b"/><path d="M55.43,173.4c1.68,1.83.68,4,.74,6a3,3,0,0,0-2.78-1C52.75,176.24,54.41,174.94,55.43,173.4Z" transform="translate(-4.4 0)" fill="#725145"/><path d="M55.42,162.33h-1q-.11-3-.19-6c.56-.93,1.2-1.83.86-3l.82-.14C58.37,156.34,56.79,159.33,55.42,162.33Z" transform="translate(-4.4 0)" fill="#121821"/><path d="M69.18,79.48c.68-7.78,3.72-14.89,6.22-22.15.61,8.1,4,14.62,11,19,4.13,5.1,4.21,10.77,2.31,16.7-1.57,1.2-2-.21-2.34-1.2-.66-1.89-1.65-2.24-3.21-1-1,.79-2,1.63-3,2.41-.89.5-1.49,1.76-2.83,1.11-1.73-5.19-6.12-8.87-7.94-14a.58.58,0,0,1-.3-.58C69.06,79.59,69.11,79.48,69.18,79.48Z" transform="translate(-4.4 0)" fill="#492008"/><path d="M77.26,94.41l2.16-1.89a3.35,3.35,0,0,1,1,1.24c1.7,3.68,2.65,7.36-.08,11-1,1.53-2.77,2.58-2.9,4.65A8.27,8.27,0,0,1,72.82,111c-.76-2.42,1-4.4,1-6.74-1.14-1.24-2.35.62-3.54.08,0-.33.06-.67.08-1l3-2a1.68,1.68,0,0,0,1.81-1.08,3.25,3.25,0,0,1,1.17-3.83Z" transform="translate(-4.4 0)" fill="#263859"/><path d="M69.18,79.48c.06.3.11.61.14.91-3.42-2.18-4.8-8-3.43-13.3,1.16-4.5,4.56-7.66,6.47-11.68h1c-.58,3.33-2.54,6.07-4,9C66.7,69.46,66.4,74.43,69.18,79.48Z" transform="translate(-4.4 0)" fill="#b77a59"/><path d="M76.32,96.47c-.39,1.27-.78,2.55-1.16,3.83-1.67-2.18-.51-4.59-.8-7.07C76.16,93.87,76.09,95.24,76.32,96.47Z" transform="translate(-4.4 0)" fill="#a37054"/><path d="M92.34,104.31c-.77.07-1.56.24-2.11-.55a2.08,2.08,0,0,1-.47-1.4c2.29-5.75.87-11.4-.32-17.1-.26-1.26-1.51-3,.27-4.07,1.4-.87,2.47.35,3.61,1,3.83,2,7.25,1.84,10-1.91a6.8,6.8,0,0,1,3.08-2.85c1.7,3.64-1.23,7.46.43,11.1.13,1.31.26,2.61.38,3.92-1.62.16-1.84-1-2.26-3.25.28,3.16,1.19,5,1.55,7.07.49,2.83,1.79.46,2.74.41,5,3.65-1.08,5.69-1.25,8.59l-1.75,2.25c-.88,1.75-2.18,2-3.82,1.06l-1.18-.83A12.66,12.66,0,0,0,92.34,104.31Z" transform="translate(-4.4 0)" fill="#f8c096"/><path d="M103.31,80.24c-2.11,5-5.74,5.45-13.82,1.15.88,3.44,1.88,6.28,2.31,9.2.59,4,1.79,8.17-1.44,11.73-2.63.45-4.63-.74-6.44-2.45a3.52,3.52,0,0,1,.57-2.74c.93-1.29,1.39-3,3-3.77,2.52-5.84.69-11.41-1.08-17A53.29,53.29,0,0,1,92.2,80C95.88,83,99.52,83.13,103.31,80.24Z" transform="translate(-4.4 0)" fill="#ce8868"/><path d="M91.5,66.47l1.87-.12a21.36,21.36,0,0,1,9-.43c1.46.47,3.63.08,3.94,2.1.22,1.47-1.77,1.65-2.65,2.52-3,3.76-6.49,4.39-10.39,1.28C91.84,70.32,87.79,69.68,91.5,66.47Z" transform="translate(-4.4 0)" fill="#f1e9e3"/><path d="M93.38,71.35c3.55,2.21,6.87,2,9.9-1a.93.93,0,0,1,1.31-.07.49.49,0,0,1,.12.13c-5.56,5.87-7.45,6-12.4,1a.65.65,0,0,1,.91-.2A.54.54,0,0,1,93.38,71.35Z" transform="translate(-4.4 0)" fill="#a75e4a"/><path d="M118.22,56.48c0,3,.63,6.06-.94,8.9-1.77-1.64-.46-4.33-2-6l2.16-2.88A1.71,1.71,0,0,1,118.22,56.48Z" transform="translate(-4.4 0)" fill="#eccfbb"/><path d="M104.71,70.42l-1.43-.06c1.31-1.3,3.84-2.62,0-3.84a2,2,0,0,1,.93-1,6.15,6.15,0,0,1,4.7,1.23A6.1,6.1,0,0,1,104.71,70.42Z" transform="translate(-4.4 0)" fill="#c89077"/><path d="M104.16,65.52l-.93,1-9.86-.17C96.79,63.84,100.52,65.24,104.16,65.52Z" transform="translate(-4.4 0)" fill="#8d302b"/><path d="M93.38,71.35l-1.07.06c-2.37-.28-3.58-2-5-3.79a6.49,6.49,0,0,1,4.14-1.15C89.74,69,92,70,93.38,71.35Z" transform="translate(-4.4 0)" fill="#c3896e"/><path d="M100.44,61.84c-2.69.64-4.89,1.39-6.34-.09-1-1,.74-2.58,1.54-1.64C97,61.69,98.81,60.18,100.44,61.84Z" transform="translate(-4.4 0)" fill="#ce8b6b"/><path d="M96.29,14.4a17.92,17.92,0,0,1,9,2c0,.39-.07.77-.1,1.16-2.22.18-.89,1.66-.85,2.54.17,3-1.14,4-3.86,2.87-1.58-.66-4.16.06-4.2-3.07s2.63-2,4-2.91c-3.13-2.06-6.85.69-9.87-1.46Z" transform="translate(-4.4 0)" fill="#f8de8e"/><path d="M97.33,35.24H95.22c.42-3-.5-6.17.84-10C98.19,28.92,96.92,32.24,97.33,35.24Z" transform="translate(-4.4 0)" fill="#e7b13a"/><path d="M93.65,17c2.11,2.22,1.83,3.53.94,5.12C92.5,20.89,93.64,19.36,93.65,17Z" transform="translate(-4.4 0)" fill="#f8de8e"/><path d="M121.23,158.3c-4.45,1.36-8.43-1.2-7.85-5.05a5.31,5.31,0,0,1,1.27-1.52c3.94-2.65,4-2.65-.28-5.33a28.57,28.57,0,0,0,2-12.06,10,10,0,0,1,7.41-.61c.08,2.33.43,4.71-1.38,6.64.4,5.3,3.58,10.63-.09,15.91A2.07,2.07,0,0,1,121.23,158.3Z" transform="translate(-4.4 0)" fill="#3163b1"/><path d="M121.23,158.3l1-2c1.8,1.47-.19,3,0,4.49.23,1.77-.14,3.65,2,4.51a6.77,6.77,0,0,0,0,1c-1.66,1.4-.67,3.4-1.11,5.07-1.56,2.86-4.07,3.37-7,2.89Q118.72,166.24,121.23,158.3Z" transform="translate(-4.4 0)" fill="#153367"/><path d="M122.35,140.37c.48-2.33,1.32-4.61.89-7-2.73-1.78-2.58-4.32-1.82-7a1.82,1.82,0,0,1,2.23,0c1.24,1.88,2.23,3.79.68,6v7.92Z" transform="translate(-4.4 0)" fill="#2f5591"/><path d="M57.36,172.37c.22-3.62,5.88-3.8,5.1-8,.29-.81.73-1.36,1.7-1.07,2.39,3.24-.15,6-1.06,8.79-1.55,4.77-2,9.89-4.66,14.29v6.43c-1.59-1.36-.86-2.57-1.25-3.57Q57.28,180.8,57.36,172.37Z" transform="translate(-4.4 0)" fill="#725145"/><path d="M121.25,126.43c1.68,2,.56,4.82,2,6.89-1.87,3.36-4.6.77-6.92,1l-1.54-5c-1.26,4.27,2.56,8.36-2.12,11.45-.78-3.27.29-6.74-1.77-9.47-1.14.69-.08,2.16-1.08,3.2-1-1.79-.67-4.18-2.58-5.39-.82-1.43-2.29-2.17-3.44-3.24-1.18-1.33-2.94-2.1-3.74-3.81a2.87,2.87,0,0,1,1-1.69c-1.45.43-2.86,1.2-4.4.94s-3.54-.3-2.32-2.87c2.38-.25,4.63-.72,5.92-3.07,3.13-.71,4.44,1.19,5.43,3.69a27,27,0,0,0,2.93,5.51c-.39-5.8-3.64-10.4-6.35-15.22a3,3,0,0,0,.14-.84,4.61,4.61,0,0,0,3.82-1.06l1.11.91c1.84-.2,1.75,1.33,2.18,2.4.84.13-1.23,3,1.46,1.47,4-2.18,5.27-1.67,6.14,2.64.47,2.33,2.71,3.86,2.47,6.38-.75,1.67-3.34,1.58-3.66,4.12,1.5-.21,1.93-1.69,3-2.15,2.11-.42,2.21,1.09,2.41,2.5Z" transform="translate(-4.4 0)" fill="#4572b9"/><path d="M108.25,135.3c0,1.16.06,2.31.06,3.47,0,7.31,0,7.26-7.58,7.74a14.94,14.94,0,0,0-4.24,1.27c-3.88,1.52-6.42-.11-8-3.51-2.84-6-1.3-7.78,6.92-8a2.86,2.86,0,0,1,2.66-.63,7.42,7.42,0,0,0,6.12,0C105.43,135,106.8,134.14,108.25,135.3Z" transform="translate(-4.4 0)" fill="#3162af"/><path d="M112.7,175.18c-4.09-3.05-8.61-3-13.28-1.87l-1-.85c3.92-1.28,5.26-4.32,6-8.08s2-7.33,3-11h0c1.9,5.24-1.13,9.7-1.86,14.85,3.63,0,2.51-4.19,4.38-5.91,1.54,2.76-.92,5.32-.4,8,1.65.91,2-1.6,3.52-1.13.61,1.62.11,3.6,1.32,5.12Z" transform="translate(-4.4 0)" fill="#224785"/><path d="M108.25,135.3c-3.32.16-6.15,4.63-9.9,1.14,1.89-2.85,4.15-5.14,7.89-5.17A5.18,5.18,0,0,1,108.25,135.3Z" transform="translate(-4.4 0)" fill="#4978c2"/><path d="M107.34,153.39a2,2,0,0,1-.49,0c-2-.44-5.07,2.42-5.73.09s2.38-4.22,4.92-5.16c.74-.27,1.52-.45,2.45-.73a11,11,0,0,1-1.14,5.78Z" transform="translate(-4.4 0)" fill="#4475bf"/><path d="M106.24,131.24c-3.18.89-5.39,3.25-7.89,5.16l-3-.19a8.37,8.37,0,0,0-8.41.13,3.23,3.23,0,0,1-3.64,0,5.43,5.43,0,0,1,5.29-2c6,.61,11.65-.47,16.63-4.13Z" transform="translate(-4.4 0)" fill="#163a79"/><path d="M114.37,146.4c2.42-.24,5.07,0,5.44,2.73.33,2.4-2.44,2.53-4.17,3.23l-2.26.9C112.85,150.84,114.41,148.74,114.37,146.4Z" transform="translate(-4.4 0)" fill="#4476c2"/><path d="M104.31,125.32c1,1.27,4.53.56,2.92,3.81l-1.92.25v-.14c-3-.51-6.21-.68-8.75-2.79-.62-.52-1.48-1-1.18-1.91s1.17-1.1,2-1.26C100,122.8,102.17,124.07,104.31,125.32Z" transform="translate(-4.4 0)" fill="#6a94d4"/><path d="M110.16,152.82c-.54-3.3.75-6.06,2.62-9.61C113.76,147.54,112.41,150.24,110.16,152.82Z" transform="translate(-4.4 0)" fill="#4572b9"/><path d="M55.1,153.24l-1.67-2.75c-2.29-7-2.29-7,4.39-10.08,3-3.37,6.93-2.37,10.64-2.49,2.35-1.07,3.18.66,4.11,2.23,2.49,1.24,3.17,3.89,4.65,5.92,2.1,4,.25,6.51-3,8.57a6,6,0,0,1-1.36.51c-4,.76-6.37-2.51-9.51-3.88a6.08,6.08,0,0,0-3.72-.65c-1.91.09-2.63,2.19-4.34,2.6Z" transform="translate(-4.4 0)" fill="#e1f6f7"/><path d="M76.29,146.4l-3.71-6.16c1.42-2,2.14-.94,3,.57,2.22,3.7,4.86,7,9.35,9-2.79,3-4.87,6.28-8.66,7.8l-2.94-1.37a1.67,1.67,0,0,1-.22-2.19l.09.2C78.88,152.05,79.37,150.79,76.29,146.4Z" transform="translate(-4.4 0)" fill="#586370"/><path d="M68.46,138c-3.2,2.3-7.34.6-10.64,2.49l-3.55-.21C58.51,137,65.78,135.93,68.46,138Z" transform="translate(-4.4 0)" fill="#505e70"/><path d="M58.44,186.33c.68-6.75,2.93-13.08,5.18-19.41.44-1.25,1.23-2.46-.23-3.56-.59-1.57.54-2.21,1.57-2.91,4.78-1.08,6.23,2.64,8.17,5.67.22,4.48.4,9,4.29,12.17l.84.08a3,3,0,0,0,.2.83l-7.11,14.11C68,193,66,190.22,62.83,189l-2.25,5.29C61,186.65,61,186.65,58.44,186.33Z" transform="translate(-4.4 0)" fill="#623d33"/><path d="M65.28,161.34a3.21,3.21,0,0,0-1.89,2l-.93,1c-3.31,2.73-4.73-1.2-7-2-1.22-3,1.84-6.08-.15-9.07.9-1.73,1-4.35,4-3.78A7.14,7.14,0,0,0,63,155.64c-.28-1.28-1.62-1.93-1.75-3.15-.17-1.55.3-2.59,2.16-2.2,2.15.05,3.5,1.57,4.89,2.85a4.33,4.33,0,0,0,4.84,1c.07.72.14,1.45.22,2.18-1.55,1.44-3.75-.06-5.35,1.17C67.86,159.24,66,159.92,65.28,161.34Z" transform="translate(-4.4 0)" fill="#363837"/><path d="M77.38,164.15c-.77,3.06-2.64,5.84-2.27,9.18-4.08-1.65-1.57-4.92-1.84-7.5.11-2.09-2.52-3.23-1.93-5.5.8.16,1.76.69,2.36.42C77.74,159,77.11,162,77.38,164.15Z" transform="translate(-4.4 0)" fill="#533c32"/><path d="M71.34,160.33c.62,1.82,3.75,2.09,3,4.79-.45.74-.73,1.73-2,1.31-2.06-2.1-2.88-5.92-7.06-5.09.17-1.83,1.37-2.93,2.75-3.89Z" transform="translate(-4.4 0)" fill="#765549"/><path d="M72.34,166.43l2-1.31c.18,2.75-2.22,5.75.81,8.21.38.69.77,1.37,1.15,2l1.16,2.91C73.88,177.06,71.5,171.52,72.34,166.43Z" transform="translate(-4.4 0)" fill="#3b251e"/><path d="M107.28,187.49c-5.94,1.64-6.89.87-6-4.77.4-2.44.71-4.89,1.06-7.33,2.88-.45,5.68-.59,7.84,1.9-1.74,2.13-4.39-.8-6.23.87.83,3.4,6.17-1.25,5.91,3.67s-4.52,2.82-7.07,3.79C103.51,188.33,105.82,186.89,107.28,187.49Z" transform="translate(-4.4 0)" fill="#3c4246"/><path d="M110.22,177.29l-7.84-1.9-1.92-.08c3-2.62,6.36-.75,9.51-.64C111.58,174.73,110.88,176.31,110.22,177.29Z" transform="translate(-4.4 0)" fill="#26303c"/><path d="M124.33,132.33l-1-5.93c1.78-1.76,4-1.18,6.12-1.2l.71.13,3.06-2a4.94,4.94,0,0,1,1.83,6.74,5.39,5.39,0,0,1-.43.63A8.24,8.24,0,0,1,124.33,132.33Z" transform="translate(-4.4 0)" fill="#4778c5"/><path d="M130.29,115.42c2.09,2.65.13,5.46.34,8.19l-.1-.1c-2.75,1.67-5.6,1.64-7.66-.76a12.68,12.68,0,0,1-3.11-9.57c.12-1.24,1.38-1.74,2.6-1.92h.86C125.65,112.54,127.14,115.4,130.29,115.42Z" transform="translate(-4.4 0)" fill="#f2c55a"/><path d="M124.41,108.61l1.16,1-2.35,1.68h.09c-2,.42-3.76,1.78-5.94,1.39a1.83,1.83,0,0,1-.55-1.45C118.58,108.24,121.38,108,124.41,108.61Z" transform="translate(-4.4 0)" fill="#6b6d6c"/><path d="M117.52,112.55l5.79-1.26c-.61,1.45-4.32,1.11-2.52,3.8s.5,7.89,5.75,8.29c1.33.1,2.66.09,4,.13-.12.61-.23,1.21-.34,1.82h.12c-2.3,1.33-4.51-.31-6.77-.21A18.09,18.09,0,0,1,117.52,112.55Z" transform="translate(-4.4 0)" fill="#eddeb6"/><path d="M108.3,111.24c0-1.06.18-2.2-1-2.9a11.27,11.27,0,0,1,5.83-4.2c2.07,2,5.07,1.1,7.37,2.39a3.82,3.82,0,0,0-.08.75c-.34,2.92-3.33,1.9-4.76,3.19C113.21,110.55,111,113.29,108.3,111.24Z" transform="translate(-4.4 0)" fill="#4b79c2"/><path d="M115.44,109.41l5-2.09,3.75-.8c.86-.17,1.73-.08,1.63,1,0,.41-.93.73-1.43,1.09l-7.1,2.6C115.64,111.7,115.13,111,115.44,109.41Z" transform="translate(-4.4 0)" fill="#c1bca3"/><path d="M109.23,96.63c-1,1,.39,3.51-1.94,3.41-2-.09-1.83-1.94-2-3.44-.38-2.7-1.57-5.34-.63-8.34l2.58,4.14Z" transform="translate(-4.4 0)" fill="#f9d5b8"/><path d="M104.31,125.32c-2.68.18-5.2-1.82-8.41-.48l9.42,4.42c-2.76-.61-5.29,2.64-8.29.35-.91-.69-1.28,1-1.86,1.7-2.18,2.71-5.33,1.09-8,1.51-1,.15-1.84-.92-1.5-1.48,1.33-2.18-1-5.77,2.71-7,3.84-1.48,7.57-3.62,11.94-2C102.29,122.43,103.4,123.74,104.31,125.32Z" transform="translate(-4.4 0)" fill="#4c7bc6"/><path d="M89.24,119.46l3.06-.13c1.7,2.18.91,3.44-2.38,4-2.18.34-4.64-1.08-6.54,1-.27,1.42.41,3-.8,4.59l-9-5.18C78.33,119.86,84.44,122.11,89.24,119.46Z" transform="translate(-4.4 0)" fill="#4878c4"/><path d="M83.38,124.32c.75-3.3,3.46-1.41,5.25-2,1.62-.51,4.56.56,3.67-3a2,2,0,0,1,2-.88c.71,3.07,2.87,1.8,4.65,1.5,1.58-.27,3.54-2.75,4.58-.38.92,2.09-2.92.84-3.29,2.75-4,.37-7.72,2.76-11.94,2A9.23,9.23,0,0,0,83.38,124.32Z" transform="translate(-4.4 0)" fill="#335a9a"/><path d="M80.3,104.77c2.19-3.92-.35-7.48-.85-11.2,3.32.55,4,3,4.17,5.8a16.1,16.1,0,0,1-1.28,2.56C82.34,103.36,81.37,104.1,80.3,104.77Z" transform="translate(-4.4 0)" fill="#6a809f"/><path d="M92.34,104.31c3.72-.85,7-.63,8.89,3.39Z" transform="translate(-4.4 0)" fill="#e1ccbb"/><path d="M82.34,101.93c.13-1,0-2,.94-2.67a.49.49,0,0,1,.69-.13.48.48,0,0,1,.19.23c1.65,1.86,4.13,2,6.2,3,0,.49-.09,1-.13,1.45C87.58,103.43,85.39,100.74,82.34,101.93Z" transform="translate(-4.4 0)" fill="#c5b8b0"/><path d="M84.16,99.36a5.16,5.16,0,0,1-.88-.1l-3.83-5.69v-1l2.8-2.17c2.37-1.12,2.79.63,3.24,2.23s-.19,3.22-.26,4.84Z" transform="translate(-4.4 0)" fill="#314e7b"/><path d="M85.2,97.42c-2.3-1.81,1.15-6-3-7.07.91-1.57,2.36-2.44,4-1.71,2.1.93.77,3.13,1.21,4.71A5.63,5.63,0,0,1,85.2,97.42Z" transform="translate(-4.4 0)" fill="#203459"/><path d="M123.47,124.24l6.84,1.09c-2,2.4-4.7.32-7,1.11h-2.11v-.06C121.06,124.7,121.77,123.94,123.47,124.24Z" transform="translate(-4.4 0)" fill="#314669"/><path d="M123.47,124.24l-2.24,2.17-1.77-3.08a1.21,1.21,0,0,1-.42-1.67.16.16,0,0,1,0-.07c-.7-2.73-4-4.46-2.94-7.91a1.36,1.36,0,0,0-1-1.62,1.1,1.1,0,0,0-.36,0c-2.26.2-4.41.76-4.91,4.62l-1.53-5.41c2.6.23,4.81-1.06,7.14-1.87a1.87,1.87,0,0,0,1.87,1.8c.07.45.14.9.2,1.34Z" transform="translate(-4.4 0)" fill="#2f5591"/><path d="M119.08,121.55c.12.58.25,1.16.37,1.74-.32.57-.62,1.15-1,1.71-.74,1.21-1.21,2.89-3,2.59-.47-.08-.91-1.25-1.08-2-.43-1.92.33-3.16,2.35-3.51C117.52,122,118.29,121.73,119.08,121.55Z" transform="translate(-4.4 0)" fill="#6e99db"/><path d="M74.65,149.24c-.77,1.89-2.53,3.38-4.7,1.78-4.11-3-8.33-4.67-13.42-3.48-1.3.3-1.79-.55-2.11-1.53-.4-1.22.27-1.85,1.38-2.15,4.15-1.11,8.28-2.3,12.47-3.28C69.74,140.24,74.41,146.37,74.65,149.24Z" transform="translate(-4.4 0)" fill="#5386ec"/><path d="M63.43,150.24c-4,2.45.49,3.13,1,4.61.33.93,2.22,1.48.8,2.78-1.23,1.12-2.39.06-2.82-.87-1.12-2.41-7.13-2.78-3.13-7.32A5,5,0,0,1,63.43,150.24Z" transform="translate(-4.4 0)" fill="#555652"/><path d="M76.29,146.4c4-.48.43,4.74,3.65,4.84-.22,1.41-1.6,1.45-2.5,2a6,6,0,0,1-4.19,1C75.47,152.12,78.87,150.41,76.29,146.4Z" transform="translate(-4.4 0)" fill="#363837"/><path d="M69.74,177c-2.6,5.54-5.24,4.1-7.93,2.27C64.29,179.55,66.74,179.69,69.74,177Z" transform="translate(-4.4 0)" fill="#492619"/></svg>