<svg id="Capa_1" data-name="Capa 1" xmlns="http://www.w3.org/2000/svg" viewBox="0 0 863.5 861.63"><path d="M554.76,44.84C566,50.41,577.31,55.63,588.42,61.6c32.2,17.31,61.77,41.33,89.47,70l4.92,5.17,28.76,35.41,8.13,12,23.49,37.89c1.23,3.67,2.71,7.07,5.19,9.38A777.67,777.67,0,0,1,788.82,329L801,373.22c3.33,17.79,6.8,35.52,9.91,53.38.91,5.2,2.63,6.86,6.33,6.95a73.6,73.6,0,0,1,28.8,7.1c22.78,15.2,37.33,39.78,43,74.44q.7,23.68,1.42,47.39v47.24c-.13,15.94-.85,31.79-3.63,47.34l-8.78,25.86-14.73,21.49-17,14.43a85.78,85.78,0,0,1-33.76,7.64H779c-11.22-1.81-22.65,1.57-33.77-2.73-6.48-4.39-11.77-10.67-15.55-19.33-5.22-15.21-2.16-31.63-3.5-47.4V515.2q.16-23.7.32-47.38c2.67-15,9-25.72,19.05-32,4.17-.72,7.1-1.16,5.2-9.83-3.94-17.93-7.54-36-13.2-53a297.17,297.17,0,0,0-16.26-47c-2.86-7.61-5.46-15.45-9.52-22.05a177.88,177.88,0,0,0-12.46-25.24c-6.53-12.55-13.24-24.91-21.51-35.39a43.71,43.71,0,0,0-8.34-12,172.27,172.27,0,0,0-25.22-31.08,110.18,110.18,0,0,0-18.56-18.95c-4.6-5.57-9.89-9.62-15.28-13.43a152.81,152.81,0,0,0-31.16-22.37,206.68,206.68,0,0,0-70-29.61c-11.18-2.29-22.25-5.91-33.67-4.86a113.3,113.3,0,0,0-33.75,0c-11.41-1.05-22.49,2.58-33.66,4.85-23.43,5.44-46.19,14-67.73,28.35a160.88,160.88,0,0,0-33.39,23.68c-5.36,3.91-10.73,7.78-15.28,13.49-6.82,5.06-12.8,11.76-18.57,18.85a176.86,176.86,0,0,0-25.18,31.1,43,43,0,0,0-8.38,12c-8.28,10.46-14.94,22.85-21.5,35.37A179.69,179.69,0,0,0,205.75,304c-4.06,6.56-6.7,14.32-9.5,21.95A290.63,290.63,0,0,0,180,373c-5.61,16.67-9.09,34.37-13,51.89-1.77,7.91-.41,10.62,4.94,11.1,10.24,6,16.32,17,19.08,31.86l.32,47.37q0,23.61,0,47.21t0,47.4q0,23.6,0,47.2c-1.08,14.93,1,30.18-2.25,44.9-4.24,9.34-9.39,17.31-16.8,21.86-11.11,4.31-22.55.88-33.77,2.72H104.85a85.48,85.48,0,0,1-33.76-7.64L54.17,704.4,39.4,682.9Q35,670,30.63,657.06c-2.76-15.55-3.51-31.4-3.62-47.34V562.48q.72-23.7,1.45-47.39c5.64-34.7,20.22-59.21,43-74.32a70.23,70.23,0,0,1,28.79-7.2c3.66-.07,5.4-1.62,6.32-6.94,3.06-17.88,6.56-35.62,9.89-53.41l12.24-44.16,10.1-29.76a95,95,0,0,0,8.09-20.68Q158,255.07,169.14,231.5c2.48-2.33,4-5.77,5.27-9.39l23.4-37.9c3.19-4.16,7.18-7.41,8.23-14,11.11-8.51,18.82-22.77,28.7-33.35l4.89-5.15c28.41-29.32,58.67-54,91.81-71.27C341.81,55,352.31,50,362.75,44.87l11.71-3.34,33.75-9.19,33.68-4.57h33.73l33.68,4.57,33.76,9.17Z" transform="translate(-27.01 -27.76)" fill="#010101"/><path d="M441.89,889l-33.67-6.37-33.67-12.92-31.62-19L334,843.89l-26.76-24.75L289.4,798.67l-14-18.86-18.71-30.92q-7.44-15.33-14.86-30.68-3.53-8.3-7.06-16.6l-13.89-44.52c-7.82-30.68-12.13-62.45-15.06-94.66q-.08-23.62-.16-47.25,1.69-21.31,3.38-42.64l.21-4.73q4.38-23.58,8.75-47.14l13.35-44.84q5.12-13.06,10.22-26.12L252.72,326c1.44-2.39,2.95-4.7,4.3-7.18,24.34-44.75,54.49-79.43,90.5-104.41,17.33-12,35.65-19.84,54-27.87,2.38.07,4.73,0,6.74-2.22l33.71-5.47,33.65,0,33.72,5.46c2,2.09,4.34,2.34,6.72,2.26a36,36,0,0,0,4.59,2.4q48.38,17.43,88.63,58.93c21.42,22,39.23,48.82,55.46,78l11.23,23.93,9.19,23.52q7.2,23.7,14.41,47.39c6.14,31,11.05,62.28,12.32,94.51l-.16,47.25c-3.05,32.17-7.41,63.93-15.11,94.65-1.5,8.47-5.34,11.29-11.36,9.89-2.36-.55-4.87.21-7.31.38H576.69c-4.15-.17-8.33,0-12.45-.59-6.44-1-13.25,3-19.34-2.74-.7-3-1.93-5.4-4-6.83-8.32-13.62-18.94-21.39-31.45-24.37a40.5,40.5,0,0,0-33.86.5c-11.34,2.26-20.89,9.37-28.79,20.94a23.44,23.44,0,0,0-7.17,11.86c-6,11.4-8.91,23.87-6.71,38.12a52.65,52.65,0,0,0,8.76,29.23c4.6,9.82,10.91,16.69,18.64,21.08a30.73,30.73,0,0,0,15.33,8.24c11.2,4.25,22.41,4.56,33.64.28,7-1.77,13.6-4.67,19.23-11,7.27-4.53,12.8-11.75,16.74-21.4,2.4-2.68,5.23-2.16,8-2.21,7.83-.14,15.66-.34,23.48-.52h94l-9.82,21-18.7,30.92-13.85,18.83q-9,10.37-18.07,20.74L583.48,843.9l-8.9,6.73L543,869.84C510.12,884.67,476.42,891.17,441.89,889Z" transform="translate(-27.01 -27.76)" fill="#010101"/></svg>