<?xml version="1.0" encoding="utf-8"?>
<!-- Generator: Adobe Illustrator 25.2.1, SVG Export Plug-In . SVG Version: 6.00 Build 0)  -->
<svg version="1.1" id="Capa_1" xmlns="http://www.w3.org/2000/svg" xmlns:xlink="http://www.w3.org/1999/xlink" x="0px" y="0px"
	 viewBox="0 0 396.9 396.9" style="enable-background:new 0 0 396.9 396.9;" xml:space="preserve">
<style type="text/css">
	.st0{fill:#FFFFFF;}
</style>
<g>
	<path class="st0" d="M98.7,312.8c-24.8-0.5-45.7-3.3-62.2-19c-19.7-18.6-22.4-42.8-19.3-67.7c3.6-28.9,21.2-45.7,50.2-50.5
		c13.2-2.2,13.5-2.3,13.3-15.9c-0.3-32.4,4.6-63.6,21.2-92C140.3,1.9,211.3-0.1,254.6,26.1c30.6,18.5,46.5,47.9,54.2,81.4
		c4.3,18.6,5,38.1,6.8,57.3c0.5,5.3,1,9,7.5,10.1c43.3,7.1,62.3,32.9,56.7,76.5c-4.4,34.5-23.2,54-57.4,59.5
		c-4.7,0.8-9.1,1.6-10.2,7.3c-5.4,29.3-26.9,40.7-52.7,47.3c-3.4,0.8-6.9,1.6-10.3,1.7c-10.8,0.2-19.9,2.7-27.7,11.5
		c-8,9.1-20.2,11.3-31.8,10.5c-4.4-0.3-10-4.3-12.5-8.3c-9-14.8-5.7-38.5,6.2-51.1c5.4-5.7,12.5-6.6,18.4-3
		c8.1,4.8,15.6,11,22.1,17.8c4.5,4.7,8.6,8.2,15.1,6.6c12.4-3,25.1-5.4,37-9.7c9.7-3.5,15.9-11.6,18.7-21.8c1.2-4.4,0.6-7.4-4.9-7.4
		c-2.4,0-4.8-0.8-7.1-1.1c-17.1-2.4-15.8,0.4-15.1-17.8c1.3-34.3,2.9-68.5,4.5-102.8c0.4-9.9,2.6-12.5,12.4-14.7
		c15.5-3.5,15.7-3.6,14.9-18.9c-1.4-24.7-5.3-49-15.5-71.9c-29.5-65.9-98-68.2-135.7-43.1c-28.3,18.9-42.5,47-47.9,79.6
		c-2.3,13.9-2.3,28.3-3.2,42.4c-0.4,5.9,2,9.2,8.3,10.6c17.9,3.9,18.1,4.1,19.1,23.5c1.7,33.7,2.9,67.5,4.7,101.2
		c0.4,7.6-2.3,11-9.6,11.5C111.5,311.5,103.5,312.4,98.7,312.8z M110,243.8c-0.6-14.7-1.6-29.4-1.8-44.1c-0.1-5.9-2.4-7.9-7.9-8.6
		c-14.3-1.6-28.4-0.5-42,4.3c-12.2,4.3-20.3,12.7-23.2,25.5c-3.2,14.3-3.2,28.7,1.1,42.8c3.7,11.9,11.3,20.5,22.9,25.5
		c14.6,6.3,29.9,7.8,45.6,6.7c6-0.4,7.7-3.2,7.3-8.8C111.1,272.7,110.6,258.3,110,243.8z M286.6,243.4c-0.7,14.4-1.1,28.9-2.2,43.3
		c-0.5,6.7,2.2,9.9,8.4,9.4c12.7-1.1,25.7-1.6,38-4.6c16.8-4,27.8-15.6,30.4-32.7c1.8-12,1.6-24.5,0.3-36.6
		c-1.5-13.2-10.3-22.1-22.8-26.6c-13.8-5-28.1-6.1-42.7-4.4c-5.2,0.6-7.3,2.6-7.5,8.1C288.1,214,287.2,228.7,286.6,243.4z M187,360
		c1.5,12.1,4.7,14.5,15.2,10.8c1.8-0.6,3.5-1.3,5.1-2.2c9-4.8,9.6-7.1,2.8-15c-3.9-4.6-7.3-13.5-14.3-9.9
		C191.3,346.1,189.9,354.4,187,360z"/>
</g>
</svg>
