<svg id="Capa_1" data-name="Capa 1" xmlns="http://www.w3.org/2000/svg" viewBox="0 0 245.94 245.95"><path d="M130.69,250.48a123,123,0,1,1,123-121.41A122.8,122.8,0,0,1,130.69,250.48Zm.14-64.14h46.92c11.78,0,23.56,0,35.34,0,1.12,0,1.44-.31,1.41-1.42-.07-3.31-.08-6.63,0-9.94,0-1.25-.43-1.5-1.54-1.46-1.88.08-3.76,0-5.64,0-1.08,0-1.49-.24-1.44-1.39.1-2,0-4,.05-5.93.06-1.16-.37-1.42-1.44-1.39-2.42.07-4.85,0-7.28,0-1.08,0-1.43-.24-1.43-1.39q.06-32.44,0-64.89c0-1.23.4-1.48,1.52-1.45,2.47.08,4.95,0,7.42,0,.88,0,1.21-.23,1.21-1.16q-.06-7,0-14a1.39,1.39,0,0,0-.87-1.37c-6.23-3.54-12.43-7.11-18.65-10.67Q159.19,54.53,132,39a2.24,2.24,0,0,0-2.55,0q-14.88,8.61-29.8,17.15Q78.21,68.43,56.78,80.67a1.63,1.63,0,0,0-1,1.63c0,4.55,0,9.11,0,13.66,0,1,.26,1.3,1.25,1.28,2.57-.06,5.15,0,7.72,0,.92,0,1.19.28,1.17,1.18,0,2.58,0,5.15,0,7.72q0,28.44,0,56.88c0,1.29-.28,1.71-1.62,1.65-2.42-.12-4.85,0-7.28,0-1,0-1.28.31-1.25,1.27.07,2-.06,4,0,5.94.07,1.28-.4,1.6-1.6,1.54-1.88-.09-3.76,0-5.64-.05-1,0-1.39.27-1.37,1.33.06,3.52.05,7,0,10.54,0,.9.23,1.21,1.17,1.18,2.42-.06,4.85,0,7.27,0Z" transform="translate(-7.76 -4.52)" fill="#a1a1a1"/><path d="M181.8,135.36c0,9.26,0,18.52,0,27.78,0,1.17-.31,1.49-1.48,1.48q-10.92-.08-21.84,0c-1.08,0-1.38-.28-1.45-1.4-.29-4.64-.06-9.29,0-13.92,0-4.14,0-8.3,0-12.44,0-4.38.14-8.78,0-13.17-.19-5.53.08-11.06.09-16.59,0-1.34.86-1.07,1.6-1.07q10.53,0,21,0c2.07,0,2.07,0,2.07,2.15Z" transform="translate(-7.76 -4.52)" fill="#a1a1a1"/><path d="M104.36,135.34c0,9.23,0,18.46,0,27.69,0,1.21-.28,1.61-1.55,1.59-7.23-.06-14.45,0-21.68,0-1.1,0-1.53-.19-1.53-1.44q.08-27.84,0-55.68c0-1.17.31-1.5,1.49-1.5,7.16,0,14.32,0,21.48-.06,1.26,0,1.8.23,1.79,1.7C104.32,116.87,104.36,126.1,104.36,135.34Z" transform="translate(-7.76 -4.52)" fill="#a1a1a1"/><path d="M142.94,135.36c0,9.21,0,18.42,0,27.63,0,1.32-.35,1.65-1.65,1.64-7.23-.07-14.46-.06-21.69,0-1.09,0-1.43-.27-1.43-1.4q.08-24,0-48c0-2.58,0-5.15,0-7.73,0-1.09.26-1.61,1.44-1.59,3.94.06,7.89.06,11.84.08,3.35,0,6.71.06,10.07,0,1.14,0,1.4.34,1.4,1.43C142.92,116.75,142.94,126.05,142.94,135.36Z" transform="translate(-7.76 -4.52)" fill="#a1a1a1"/><path d="M169.72,81.13H92.09l-.1-.22c2-1.15,4.07-2.31,6.12-3.44Q113.86,68.72,129.6,60a1.5,1.5,0,0,1,1.72-.05Q145,67.5,158.73,75l9.75,5.34C168.81,80.5,169.12,80.73,169.72,81.13Z" transform="translate(-7.76 -4.52)" fill="#a1a1a1"/></svg>