<svg id="Capa_1" data-name="Capa 1" xmlns="http://www.w3.org/2000/svg" viewBox="0 0 90.53 117.72"><path d="M32.38,130.19a17.41,17.41,0,0,1-3-8.93c-.78-8.58,1.33-16.65,4.44-24.51C38.24,85.46,44.84,75.46,52.49,66.1a94.57,94.57,0,0,1,6.9-7.79,14.89,14.89,0,0,0,4.36,1.57,50.62,50.62,0,0,0,18.2.56c.71-.1,1.1,0,1.4.78a16.55,16.55,0,0,0,5.43,7.56,18.64,18.64,0,0,0,8.9,3.52,2.63,2.63,0,0,0,.22.55,95.13,95.13,0,0,1,9.59,19.46c2.31,6.64,3.78,13.4,3.43,20.48a20,20,0,0,1-2.72,9.43c-2.75,4.59-7,7.35-11.88,9.13-7.67,2.78-15.68,3.53-23.72,3.81a154.07,154.07,0,0,1-22.83-.66A92.22,92.22,0,0,1,40.6,133a83.21,83.21,0,0,1-7.93-2.55h0Zm41.84-7.92a13.52,13.52,0,0,1,1.56,0c.86.1,1.12-.25,1.08-1.08-.07-1,0-2.09,0-3.12a1.26,1.26,0,0,1,1-1.47,12.36,12.36,0,0,0,6.43-18.32c-1.66-2.46-4.14-3.8-6.65-5.13a60,60,0,0,1-6.28-3.23,3.6,3.6,0,0,1-1.77-2.82,4.35,4.35,0,0,1,5-4.6,6.19,6.19,0,0,1,4.71,3.31c.31.53.6.9,1.31.48,1.4-.85,2.84-1.63,4.27-2.42.42-.23.54-.46.29-.93-1.69-3-3.85-5.5-7.43-6.26-.73-.15-.91-.47-.89-1.13,0-1,0-2.07,0-3.11,0-.71-.23-1-1-1-1.12,0-2.24,0-3.36,0-.74,0-1,.3-1,1,0,1,0,1.92,0,2.88a1.27,1.27,0,0,1-1.06,1.54,10.87,10.87,0,0,0-4.33,2.48,10.17,10.17,0,0,0,2,16.38c2.33,1.3,4.78,2.39,7.14,3.64a8,8,0,0,1,3.61,3,5.89,5.89,0,0,1-2.08,7.49c-2.76,1.66-6.6,1.08-8.24-1.26a14.47,14.47,0,0,1-1.91-4.1c-.14-.5-.35-.8-.91-.68-1.68.37-3.35.75-5,1.09-.54.11-.62.42-.51.87,1.24,5.11,3.51,9.33,9.09,10.83,2.2.59,2.18.67,2.18,3C71.58,122.27,71.58,122.27,74.22,122.27Z" transform="translate(-29.18 -25.04)" fill="#58c393"/><path d="M32.67,130.44A83.21,83.21,0,0,0,40.6,133a92.22,92.22,0,0,0,9.17,1.51,154.07,154.07,0,0,0,22.83.66c8-.28,16.05-1,23.72-3.81,4.93-1.78,9.13-4.54,11.88-9.13a20,20,0,0,0,2.72-9.43c.35-7.08-1.12-13.84-3.43-20.48A95.13,95.13,0,0,0,97.9,72.85a2.63,2.63,0,0,1-.22-.55l3.66.14A115.26,115.26,0,0,1,114.41,95c3,7.12,5.14,14.47,5.29,22.24.23,11.25-4.71,18.17-15.38,21.85a66.23,66.23,0,0,1-16.07,3.1,166.4,166.4,0,0,1-25.16.19C55.81,141.9,48.6,141,41.84,138a21.6,21.6,0,0,1-8.79-6.65C32.83,131.06,32.53,130.85,32.67,130.44Z" transform="translate(-29.18 -25.04)" fill="#038a6a"/><path d="M55.22,32a4.18,4.18,0,0,0-1-1.84c-.63-.85-.35-1.18.53-1.52a50.45,50.45,0,0,1,11.32-3,54.31,54.31,0,0,1,27.46,2.78c2.06.8,2,.43.73,2.42-.23.36-.57.68-.54,1.17-.56.31-.76.9-1.06,1.4a77.24,77.24,0,0,0-5.92,13.39,88.87,88.87,0,0,0-2.87,9.46,3,3,0,0,1-1.15.28,40.64,40.64,0,0,1-6.87.63,36.39,36.39,0,0,1-10.75-.95c-.23-.88-.45-1.77-.7-2.64a99.4,99.4,0,0,0-7-18.27C56.72,34.18,56.31,32.87,55.22,32Z" transform="translate(-29.18 -25.04)" fill="#58c393"/><path d="M65.05,56.24a36.39,36.39,0,0,0,10.75.95,40.64,40.64,0,0,0,6.87-.63,2.94,2.94,0,0,0,1.14-.28,17.8,17.8,0,0,0,4-1.23c1.91.47,2.34,1.3,1.63,3.13a5.06,5.06,0,0,1-.9.53c-.68.26-.81.52-.15,1a10.25,10.25,0,0,0,4.2,2.05,12.06,12.06,0,0,0,7.82-.41c1.63-.59,3,.37,2.78,1.9a2,2,0,0,1-1.31,1.56A16.36,16.36,0,0,1,96.36,66l-3.18-.14a4.29,4.29,0,0,0-2.83-.35c1.5.74,2.47,1.72,3.84,2a9,9,0,0,0,4,1c.87.05,1.73.12,2.6.15,1.56,0,2.27.5,2.41,1.57s-.42,1.83-1.89,2.26l-3.66-.14a18.64,18.64,0,0,1-8.9-3.52,16.55,16.55,0,0,1-5.43-7.56c-.3-.82-.69-.88-1.4-.78a50.62,50.62,0,0,1-18.2-.56,14.89,14.89,0,0,1-4.36-1.57c-.65-2.1-.23-2.94,1.64-3.25A14.86,14.86,0,0,0,65.05,56.24Z" transform="translate(-29.18 -25.04)" fill="#f1b50c"/><path d="M87.85,55.05a17.8,17.8,0,0,1-4,1.23,91.29,91.29,0,0,1,2.88-9.46,77.24,77.24,0,0,1,5.92-13.39c.3-.5.5-1.09,1.06-1.4a20.1,20.1,0,0,1,8,4.35,11.52,11.52,0,0,1,.92.93c1.15,1.3,1.14,1.3-.24,2.41A94.87,94.87,0,0,0,87.85,55.05Z" transform="translate(-29.18 -25.04)" fill="#048b6a"/><path d="M65.05,56.24a14.86,14.86,0,0,1-4-1.18c-4.54-5.73-9.27-11.29-15.11-15.77-.62-.47-.59-.78-.17-1.33a17.52,17.52,0,0,1,8.81-5.69l.66-.24c1.09.84,1.5,2.15,2.09,3.3a99.4,99.4,0,0,1,7,18.27C64.6,54.47,64.82,55.36,65.05,56.24Z" transform="translate(-29.18 -25.04)" fill="#048b6a"/><path d="M98.22,68.46a9,9,0,0,1-4-1,8,8,0,0,0-1-1.62l3.18.14Z" transform="translate(-29.18 -25.04)" fill="#048b6a"/><path d="M92.63,61.77a10.25,10.25,0,0,1-4.2-2.05c-.66-.49-.53-.75.15-1a5.06,5.06,0,0,0,.9-.53Z" transform="translate(-29.18 -25.04)" fill="#048b6a"/><path d="M32.38,130.19l.31.26C32.44,130.53,32.44,130.33,32.38,130.19Z" transform="translate(-29.18 -25.04)" fill="#038a6a"/><path d="M74.22,122.27c-2.64,0-2.64,0-2.64-2.61,0-2.35,0-2.43-2.18-3-5.58-1.5-7.85-5.72-9.09-10.83-.11-.45,0-.76.51-.87,1.68-.34,3.35-.72,5-1.09.56-.12.77.18.91.68a14.47,14.47,0,0,0,1.91,4.1c1.64,2.34,5.48,2.92,8.24,1.26A5.89,5.89,0,0,0,79,102.4a8,8,0,0,0-3.61-3C73,98.11,70.57,97,68.24,95.72a10.17,10.17,0,0,1-2-16.38,10.87,10.87,0,0,1,4.33-2.48,1.27,1.27,0,0,0,1.06-1.54c-.06-1,0-1.92,0-2.88,0-.71.22-1,1-1,1.12,0,2.24,0,3.36,0,.73,0,1,.3,1,1,0,1,0,2.08,0,3.11,0,.66.16,1,.89,1.13,3.58.76,5.74,3.23,7.43,6.26.25.47.13.7-.29.93-1.43.79-2.87,1.57-4.27,2.42-.71.42-1,0-1.31-.48a6.19,6.19,0,0,0-4.71-3.31,4.35,4.35,0,0,0-5,4.6,3.6,3.6,0,0,0,1.77,2.82,60,60,0,0,0,6.28,3.23c2.51,1.33,5,2.67,6.65,5.13a12.36,12.36,0,0,1-6.43,18.32,1.26,1.26,0,0,0-1,1.47c.09,1,0,2.08,0,3.12,0,.83-.22,1.18-1.08,1.08A13.52,13.52,0,0,0,74.22,122.27Z" transform="translate(-29.18 -25.04)" fill="#e9ebea"/><path d="M93.18,65.85a8,8,0,0,1,1,1.62c-1.37-.25-2.34-1.23-3.84-2A4.29,4.29,0,0,1,93.18,65.85Z" transform="translate(-29.18 -25.04)" fill="#58c393"/></svg>