<?xml version="1.0" encoding="utf-8"?>
<!-- Generator: Adobe Illustrator 25.2.1, SVG Export Plug-In . SVG Version: 6.00 Build 0)  -->
<svg version="1.1" id="Capa_1" xmlns="http://www.w3.org/2000/svg" xmlns:xlink="http://www.w3.org/1999/xlink" x="0px" y="0px"
	 viewBox="0 0 501 497" style="enable-background:new 0 0 501 497;" xml:space="preserve">
<style type="text/css">
	.st0{fill:#F9F9F9;}
</style>
<g>
	<path class="st0" d="M401.1,195.7c0.2,42-7.1,71.3-20.4,99.2c-7.2,15.2-7.3,15.2,4.5,27c31.6,31.6,63.2,63.2,94.8,94.8
		c12.3,12.3,12.7,16.3,2.7,30.4c-10.6,15-22.9,28.2-39.2,37.2c-9.5,5.3-14,4.6-21.7-3.1c-33.8-33.8-67.6-67.7-101.4-101.6
		c-7.6-7.6-9.4-7.9-18.5-2.4c-26.5,15.9-55.2,24.3-86,26.1C107.3,409.5,27.8,331.2,10.2,246C-8.3,156.3,37,58.1,132.4,20.8
		c30.8-12.1,62.2-14.7,94.6-11c63.2,7.3,110.9,39.3,145,91.9C392.6,133.5,400.7,169.1,401.1,195.7z M203.9,73.6
		c-74.3,0-131.7,57.2-132.5,130.7c-0.8,69.1,53.8,131.2,129.5,132.8c77.8,1.7,134.8-60.1,135.1-129.6
		C336.3,131.2,279.3,73.6,203.9,73.6z"/>
</g>
</svg>
