<svg id="Capa_1" data-name="Capa 1" xmlns="http://www.w3.org/2000/svg" viewBox="0 0 799.81 799.81"><path d="M450.24,805.62h-80c-.93-1.36-2.4-.87-3.65-1a377.08,377.08,0,0,1-96.38-22.47c-74.35-28.4-134.2-76-182-139.07-42.16-55.66-66.13-118.69-74.15-188-.79-6.81-.32-13.82-2.76-20.41v-58c1.64-1,1-2.7,1.09-4.08a397.81,397.81,0,0,1,6.27-45Q49.18,181,167.84,89.33c65.11-50.28,139-78,221.38-82.54,1.07,0,2.4.49,3-1h6a86.71,86.71,0,0,0,21,0h6c.88,1.47,2.36.93,3.6,1A371.21,371.21,0,0,1,479,12.12c93.35,16.63,171.73,60.26,234.27,131.55q79.34,90.45,95.2,210.09c.83,6.32.49,12.83,2.71,19v68c-.92.43-.91,1.27-1,2.1-1,8.76-1.77,17.55-3,26.27a372.79,372.79,0,0,1-37.58,118.26c-27.88,54.13-66.45,99.47-114.06,137.13C603,766,543.4,791.57,477.2,801.78,468.22,803.17,459.09,803.4,450.24,805.62ZM413.75,586.38c59.82,0,119.63.09,179.44,0,17.2,0,32.43-5.56,44.1-18.74,10.5-11.86,13.78-26.24,13.75-41.68,0-28,0-56,0-84,0-43.15.2-86.3-.23-129.45-.2-19.27-8-35.18-24.58-46-10.67-7-22.71-9.23-35.22-9.3-19-.1-38,0-57-.12-10.15-.06-15-3.54-18.3-13-1.49-4.23-2.68-8.58-3.77-12.93-7.36-29.36-25-46-52.57-46.85-30.61-.94-61.3-1-91.91,0-23.55.81-40.89,12.43-49.83,35.17-3.69,9.36-5.82,19-7.76,28.83-1.35,6.78-4,9.05-10.88,9.27-2.16.07-4.32-.15-6.49-.16-22-.05-44-1.37-65.91.65-31.54,2.89-51.09,24.28-51.2,56.18q-.34,107.46,0,214.92c0,12,3,23.47,9.8,33.54,11.73,17.37,29.25,23.56,49.15,23.64C294.13,586.54,353.94,586.38,413.75,586.38Z" transform="translate(-11.35 -5.81)" fill="#497faa"/><path d="M419.25,5.81a86.71,86.71,0,0,1-21,0Z" transform="translate(-11.35 -5.81)" fill="#fcfdfd"/><path d="M413.75,586.38c-59.81,0-119.62.16-179.43-.09-19.9-.08-37.42-6.27-49.15-23.64-6.8-10.07-9.79-21.5-9.8-33.54q-.15-107.46,0-214.92c.11-31.9,19.66-53.29,51.2-56.18,21.92-2,43.94-.7,65.91-.65,2.17,0,4.33.23,6.49.16,6.84-.22,9.53-2.49,10.88-9.27,1.94-9.79,4.07-19.47,7.76-28.83,8.94-22.74,26.28-34.36,49.83-35.17,30.61-1,61.3-.94,91.91,0,27.55.84,45.21,17.49,52.57,46.85,1.09,4.35,2.28,8.7,3.77,12.93,3.32,9.49,8.15,13,18.3,13,19,.13,38,0,57,.12,12.51.07,24.55,2.32,35.22,9.3,16.54,10.83,24.38,26.74,24.58,46,.43,43.15.2,86.3.23,129.45,0,28,0,56,0,84,0,15.44-3.25,29.82-13.75,41.68-11.67,13.18-26.9,18.7-44.1,18.74C533.38,586.47,473.57,586.38,413.75,586.38Zm-.51-35.79q87.72,0,175.43,0a55.72,55.72,0,0,0,11.4-1.12c7.42-1.54,12.12-6,13.78-13.43a43.05,43.05,0,0,0,1-9.4q.09-105,0-209.91c0-16.48-7.41-23.87-23.81-23.9q-42.23-.08-84.46,0c-11.84,0-17.83-4.52-20.67-16-3.36-13.52-6.48-27.11-10.07-40.57-3.05-11.45-10-16.48-21.82-16.49h-82c-14.12,0-20.56,5.33-23.53,19.23-2.64,12.32-5.28,24.65-8.18,36.91-3.07,13-8.54,17-21.9,17q-40.23-.12-80.46-.07c-20.64,0-26.7,6.08-26.7,26.81q0,97.45,0,194.92c0,5-.06,10,0,15,.26,12.34,5.42,18.36,17.49,20.29a56.92,56.92,0,0,0,8.94.7Q325.53,550.62,413.24,550.59Z" transform="translate(-11.35 -5.81)" fill="#fcfdfd"/><path d="M413.24,550.59q-87.71,0-175.42,0a56.92,56.92,0,0,1-8.94-.7c-12.07-1.93-17.23-8-17.49-20.29-.1-5,0-10,0-15q0-97.46,0-194.92c0-20.73,6.06-26.82,26.7-26.81q40.23,0,80.46.07c13.36.05,18.83-3.94,21.9-17,2.9-12.26,5.54-24.59,8.18-36.91,3-13.9,9.41-19.23,23.53-19.23h82c11.79,0,18.77,5,21.82,16.49,3.59,13.46,6.71,27.05,10.07,40.57,2.84,11.46,8.83,16,20.67,16q42.24-.06,84.46,0c16.4,0,23.8,7.42,23.81,23.9q.06,105,0,209.91a43.05,43.05,0,0,1-1,9.4c-1.66,7.38-6.36,11.89-13.78,13.43a55.72,55.72,0,0,1-11.4,1.12Q501,550.56,413.24,550.59ZM413.16,331c-50.81,0-90.93,39.85-91.35,90.72-.41,49.58,40.88,91.08,90.66,91.09,51.12,0,91.44-40,91.52-90.92S464.06,331,413.16,331Zm136.75,35c5.44-.48,11,.79,16.34-1,6.81-2.28,10.72-8,11.13-16.63.31-6.6-2.81-12.69-8.31-14.62-11.87-4.16-23.91-5.4-36-.42-6.93,2.87-10.11,7.83-9.7,15.13.49,8.9,4.52,14.55,11.64,16.72C540,366.63,545,365.47,549.91,366Z" transform="translate(-11.35 -5.81)" fill="#497faa"/><path d="M413.16,331c50.9,0,90.91,40,90.83,90.89s-40.4,90.93-91.52,90.92c-49.78,0-91.07-41.51-90.66-91.09C322.23,370.86,362.35,331,413.16,331Zm-55.67,90.6c.2,30,26.2,56,55.8,55.94,29.17-.09,55.64-26.75,55.52-55.9-.12-29.4-27-56.08-56.24-55.75S357.3,392.66,357.49,421.61Z" transform="translate(-11.35 -5.81)" fill="#fcfdfd"/><path d="M549.91,366c-4.94-.5-9.94.66-14.86-.84-7.12-2.17-11.15-7.82-11.64-16.72-.41-7.3,2.77-12.26,9.7-15.13,12-5,24.09-3.74,36,.42,5.5,1.93,8.62,8,8.31,14.62-.41,8.6-4.32,14.35-11.13,16.63C560.86,366.76,555.35,365.49,549.91,366Z" transform="translate(-11.35 -5.81)" fill="#fcfdfd"/><path d="M357.49,421.61c-.19-28.95,25.93-55.38,55.08-55.71s56.12,26.35,56.24,55.75c.12,29.15-26.35,55.81-55.52,55.9C383.69,477.64,357.69,451.58,357.49,421.61Z" transform="translate(-11.35 -5.81)" fill="#497faa"/></svg>