<svg id="Capa_1" data-name="Capa 1" xmlns="http://www.w3.org/2000/svg" viewBox="0 0 591.95 457.91"><path d="M539.83,359.62c3.44,10.87,5.4,22.09,7.26,33.3.58,3.44,2,5.81,5,7.4s3.94,4,4.14,7.27c.4,6.37,1.23,12.71,1.88,19.07-.71,10.6.91,21.26-.86,31.86-.6,3.58-2.45,6.78-2.35,10.59.19,7.48-1.18,8.26-8.23,5.43-.92-.37-1.83-.77-2.75-1.15-1.26-2.81-3.24-5.51-3.65-8.44a88,88,0,0,0-10.17-30c-4.16-7.68-9.69-14.27-18.35-16.05-17.88-3.67-31.85,3.8-43,17.35-6.68,8.12-10.7,17.55-13.1,27.77-1.9,8.06-6.77,12.37-14.56,12.42-24.81.17-49.62.11-74.43,0-4.93,0-9.85-4.76-10.75-9.44-2.1-10.81-5-21.36-10.16-31.19-7.73-14.74-22.43-21.46-37.29-16.7-19.63,6.3-30.59,20.82-36.44,39.71-3.76,12.15-5,17.82-22.25,17.73-25.64-.14-51.29,0-76.93,0-1.57,0-3.35.7-4.67-.85,19.8,0,39.6-.11,59.4,0,3.15,0,5.21-1.05,6.18-3.81,3.56-10.05,6.73-20.25,10.55-30.2,2.1-5.45,2.39-11.94,7.35-15.95,15.58-12.62,32.58-22.7,52.28-27.37a92.18,92.18,0,0,1,20.15-2.08,19.29,19.29,0,0,0-5.76-2.49c-9-2.12-18.21-.72-27.32-1a49.45,49.45,0,0,0-15.18,2c.16-3.53-1.21-6.72-2.53-9.85-1.15-2.75-2.08-6.05-6-6.24l-.27-1.1c1.73-2.81,4.81-4,7.24-6a313.61,313.61,0,0,1,46-31.08c1.52-.84,3.07-1.65,3.81-3.64,10.51-28.14,25.69-53.71,43.52-77.74,2.18-2.95,3.93-7.1,7.73-8.12a120,120,0,0,1,24.88-4.15c14.76-.72,29.58.84,44.32-1,9.35.87,18.63,2.24,27.58,5.13,3,1,5.07,3.69,7.17,6,11,12.21,19.1,26.23,26.17,40.92,2.73,5.67,5.4,11.4,7,17.52.81,3.14,3.33,4.83,5,7.22-6.8.1-13.74-.65-20.36.48-12.44,2.14-25,2.09-37.48,3.61-9.35,1.13-18.73,2-28.09,3.1-7.71.89-15.41,1.84-23.09,2.93-8.83,1.26-17.65,2.59-26.43,4.1-3.29.57-1.66,3.45-1.86,5.36s1,2.65,2.84,2.34c13.07-2.19,26.33-2.56,39.46-4.08,16.77-1.94,33.57-3.32,50.37-4.66,12.22-1,24.5-1.2,36.71-2.29,2.05-.18,5.44,1.74,6.68-2C522.57,342.12,533.59,348.85,539.83,359.62Zm-194-23c-.17,3.12,1.14,4.45,4.39,4.16,4.4-.41,8.8,0,13.26-.83,10.09-1.88,10.14-1.64,10.66-11.28,2.87,2.38,6.31,1.78,9.68,2.1,6.65.64,12.74-2.9,19.34-2.14,5.79,0,11.34-2.2,17.16-1.82,3,.2,4.05-1.09,3.95-4.11-.25-7-.38-13.95-.24-20.92.3-14.65-1.53-29.18-2.26-43.76-.21-4.14-1-6.95-6.69-6.44-11.89,1.06-23.83,1.47-35.69,3.11-2.65.36-4.38,1.21-4.81,4-3,1.38-4.08,4.12-5.1,6.93l-1.55.61c-2.74,1.88-3.65,5.13-5.7,7.53a237.37,237.37,0,0,0-21.93,38.7c-1.88,4.28-5.29,8.1-4.65,13.28a44.74,44.74,0,0,0-5.53,22.55c0,1.66,1,2.33,2.56,2.36,10.74.19,21.51.31,31.9-2.9,4.35-1.35,9.57-.37,13.3-4.63-1.75-.92-3.38-.49-4.94-.43-7.27.28-14.3,2.76-21.7,2C345.47,344.09,344,342.22,345.83,336.62Zm85.05-37.13.18,20.82c.06,7.16,2.25,8.31,8.65,4.56,22.13-1.29,44.17-3.85,66.36-4.13,4.34-.06,2.44-2.63,1.73-4.27-8.74-20-19-39.13-32.09-56.66-1.52-2-2.86-4.67-6.13-5.2-13-2.09-26.12-2.6-39.25-3.09-3-.11-3.78,1.07-3.4,3.86.52,3.78.79,7.6,1.12,11.4Q429.49,283.13,430.88,299.49ZM327.26,397.11a1.22,1.22,0,0,0-.4-.12c-.05,0-.09.21-.13.32a1.25,1.25,0,0,0,.4.13C327.18,397.43,327.22,397.23,327.26,397.11Z" transform="translate(-8.1 -70.84)" fill="#0161cf"/><path d="M168.16,475.67c1.32,1.55,3.1.85,4.67.85,25.64,0,51.29-.12,76.93,0,17.29.09,18.49-5.58,22.25-17.73,5.85-18.89,16.81-33.41,36.44-39.71,14.86-4.76,29.56,2,37.29,16.7,5.17,9.83,8.06,20.38,10.16,31.19.9,4.68,5.82,9.42,10.75,9.44,24.81.11,49.62.17,74.43,0,7.79-.05,12.66-4.36,14.56-12.42,2.4-10.22,6.42-19.65,13.1-27.77,11.17-13.55,25.14-21,43-17.35,8.66,1.78,14.19,8.37,18.35,16.05a88,88,0,0,1,10.17,30c.41,2.93,2.39,5.63,3.65,8.44-.62,2.4-1.08,5.19-3,6.6-5.73,4.13-5.72,10.58-7.32,16.41-3.07,6.82-6.09,13.65-11.16,19.33-7.12,8-15.76,12.59-26.72,12.28-4.32-.13-8.67-.26-13,0-18.51,1.21-30-8.59-37.86-24-1.29-2.51-2.31-5.15-3.45-7.73A20.56,20.56,0,0,1,440.3,492c-.19-4.42-2.31-5.74-6.65-5.48-6.6.39-13.23.08-19.85.11-10.2.05-10.2.06-13,9.92-3.46,8.13-7.22,16.05-13.92,22.16-6.53,5.95-14,9.41-23,9.29-7.66-.1-15.67,1.27-22.87-.58a46.94,46.94,0,0,0-24.48-.1c-9,2.28-18.94,1.44-28.32.28-11.27-1.39-19.43-8.31-25.17-17.84-1.89-3.15-3.93-4.6-7.5-4-1,.16-2-.12-3,0-4.82.81-8.23-.81-10.24-5.42a22.1,22.1,0,0,0-2.91-4c-2.06-5.09-5.61-7.38-11.24-6.4a22.62,22.62,0,0,1-7,.09c-5.46-.79-9.25,1.5-12.12,5.87-2.89.49-4.92,2.65-7.44,3.86-8.64,4.18-17.69,4.91-27,3.06-2.95-.59-4,.53-5.27,2.88-5.56,10.52-13.2,19.11-25.38,21.37a91.13,91.13,0,0,1-32.23.08c-13.22-2.32-21-11.88-26.81-23.23-1.28-2.51-2.28-5.15-3.41-7.73a77.66,77.66,0,0,1-3.34-19.48c4.14-.11,8.28-.3,12.42-.27,2.14,0,3.1-.59,3.72-2.88,1.63-6.06,2.58-12.24,3.86-18.36,1.77-8.45,2.28-9.55,10.84-9.57,10.63,0,21.28.37,31.89-.15,8.84-.44,14,3,17.36,11.22C161,463.25,163.67,470,168.16,475.67Zm171.37-4.29c-.1-6.27-1.63-14.34-7.62-20.88-6.5-7.08-15.37-6.87-21.62.42-9.72,11.33-9.68,33.34.08,44.57,6.32,7.28,15.14,7.44,21.61.27C337.63,489.49,339.43,481.83,339.53,471.38Zm185.38,2.48c-.4-8.46-1.88-16.06-7-22.47-6.29-7.88-15.63-8.12-22.3-.66-9.82,11-9.77,34,.09,45,6.3,7,14.91,7.11,21.28.2C522.87,489.52,524.32,481.59,524.91,473.86Z" transform="translate(-8.1 -70.84)" fill="#1b2e36"/><path d="M97.9,192.89c-3.06.2-3.5,2.38-4,4.83-1.07,5.85-5.08,7.92-10.09,4.63-4.21-2.76-8.06-4.45-12.85-1.87a2.85,2.85,0,0,1-2.42.15c-3.66-2.55-7.35-4.86-12.11-4.42-.29,0-1-.8-.94-1,1.68-4.6-2.14-7-3.9-10.32-2-3.75,3-6.06,2.3-9-.62-2.71-5.36-3.5-4.65-7.5a4.39,4.39,0,0,1,.51-1.91c3.18-3.77,5.55-7.17.94-12-1.63-1.7,1.2-4.51,3.27-6,2.73-1.93,5.41-3.73,7-6.9,1.43-2.86,3.92-2.08,6-.75,3.85,2.45,7,5.3,9.8-1.79.85-2.15,1.57-2.89.65-5.27-1.17-3,1.17-5.35,3.71-6.87a16.81,16.81,0,0,0,6.7-6.45c1.83-3.4,4.56-1.68,6.75-.16,3.61,2.5,6.52,4.22,8.37-2,.88-3,3.86-1.92,5.93-.76,1.43.8,2.44,2.32,3.87,3.12,2.81,1.56,5.32,1.75,5.3-2.59,0-2.6,1.26-4.36,3.08-6s2.71-3.43.31-5.4c-4-3.29-2.06-6.2.89-8.63s6.35-4.08,7.94-8c.87-2.13,3.12-1.4,4.79-.51,1.47.77,2.72,2,4.22,2.65,2.14,1,4,1.12,5.13-1.82,1.76-4.4,3.93-5,7.37-1.83s6.17,4.15,10.47,1.29c3.36-2.23,5.29.89,5.74,3.84.62,4,1.66,6.59,6.48,6.94,3.8.28,4.6,3.28,2.36,6.57-1.12,1.63-2.79,2.88-3.14,5-.17,1.06-.26,2,1,2.44s1.75-.23,2.38-1.19c3.46-5.39,3.89-5.43,9-1,1.68,1.44,3.24,2.84,5.75,1.84,7.44-3,7.46-2.93,10,4.4,2.84-2.87,5.6-2.63,8.72-.32s6.1,3.73,7.61-2.08c.91-3.51,4.07-2.47,6-.81,3.71,3.14,6.75,4.66,11.84,1.68,3.9-2.29,5.37,2.32,5.64,5.35.34,3.68,1.44,5.17,5.37,5.34,4.13.17,5.16,3.07,3,6.76-.67,1.14-1.61,2.13-2.24,3.29-1.31,2.37-1.83,4.5,2,4.87a6.73,6.73,0,0,1,5,3c1.86,2.66,1,5.37-1.69,6.17-6.61,2-6.11,6.7-4.77,11.5.76,2.72.46,3.61-2.37,3.53-1.84-.05-3.11,1.63-5.07,1.75-2.74.17-4.89,1.69-4.42,4.83.38,2.6,5.09,4.67,7.7,3.66,7.46-2.88,8.17-2.63,9.53,5.1.48,2.75,1.57,3.36,4.15,3.65,5.45.62,6.49,3.26,3.45,7.81-.64,1-1.35,1.89-2,2.85-1.44,2.11-1.42,3.61,1.51,4.34a12.35,12.35,0,0,1,4.52,2c3,2.32,2.45,6.34-1.28,7.8-4.83,1.88-5.61,4.94-4.09,9.51,1.93,5.81,1.61,6.24-4.52,6.43-4.43.14-7,1.58-7.75,6.46-1,6.05-4.42,7.61-9.68,4.22-4.44-2.86-8.65-3.87-13.57-2-.6.23-1.61.59-1.89.32-3.77-3.55-9-4-13.29-6.33,2.43-4.07,4.74-8.19,8.43-11.36,1.24-1.08,3.42-2.65,1.68-4.48-2.06-2.16-3.42.49-4.84,1.6-2.75,2.14-4.23,6.16-8.66,5.79l-1.81-2.42a29,29,0,0,1,3.3-10c2.65-5,7-8.75,10.76-12.89,1.11-1.21,2.87-2.53,1.31-4.14s-2.86.17-4.13,1.23c-2.95,2.45-5,6-9.91,8.34,2.09-6.66-2-11.62-1.33-17.31.16-1.33,0-2.75-1.93-2.83s-2.12,1.24-2.08,2.66c.05,2-.27,4.13.33,6,5.23,15.81-.2,29.09-9.56,41.5-7.81-5.13-16.16-5-24.74-2.5-1.1-5,2.88-8.49,4.09-12.84,2-7.17,5.29-14,6.9-21.25,1.24-5.52,3.65-10.94,3-16.83-.14-1.39-.19-2.74-2.09-2.72-1.58,0-1.64,1.19-2,2.37-1.06,4-2.41,8-3.41,12.08-1.48,6-4.67,11.4-6.41,17.28-2.8,9.49-8,17.71-13.1,26-1,1.56-2.11,2-4,.49a58.73,58.73,0,0,0-10.17-6.72,5.12,5.12,0,0,1-2.93-4.28c-.93-8.34,1.32-16.34,2.58-24.41.37-2.41,3.21-5.47-.27-6.46-2.93-.83-2.44,3.85-4.12,5.62-.08.1,0,.32,0,.49-.78,7.74-4.8,14.81-4.1,23.62-8.1-4.53-14.1-9.73-18.07-17.12.6-2,2.44-3.1,3.6-4.69.62-.85,1.89-2.5.31-2.83-4.28-.92-6.83-5.54-11.6-5.12-1.77-.36-2.65-1.91-3.84-3s-2.32-1.81-3.48-.91c-1.48,1.16-.84,2.56.35,3.8C97.73,191.49,97.72,192.28,97.9,192.89ZM204.26,173c-1.1-.1-2.06.1-2.11,1.44-.06,1.55.14,3.09,2,3.47a43.53,43.53,0,0,1,4.88.79c1.61.53,3.65,3.42,4.47,0,.74-3.07-2.5-1.19-3.86-1.7s-1.74-1.43-2.51-2.25A4.74,4.74,0,0,0,204.26,173Z" transform="translate(-8.1 -70.84)" fill="#65a5fc"/><path d="M444.47,245.8c-14.74,1.88-29.56.32-44.32,1A120,120,0,0,0,375.27,251c-3.8,1-5.55,5.17-7.73,8.12-17.83,24-33,49.6-43.52,77.74-.74,2-2.29,2.8-3.81,3.64a313.61,313.61,0,0,0-46,31.08c-2.43,2-5.51,3.17-7.24,6-6-1.05-11.85,1.25-17.75,1-17.22-.7-33.07,4.25-48.71,10.69-7.35,3-13,7.37-17.05,14.36A51.8,51.8,0,0,1,175,415.25c-1.62-.07-3.59-.74-4.45,1.19-1.63,3.71-4.71,3.6-8,3.59-14,0-28,0-41.94,0-5.93,0-12.4,1.64-16.44-4.85-.48-2.76-1.1-5.51-1.4-8.29-.84-7.86-1.2-15.74-6.86-22.22-2.84-3.26-7-4.52-9.84-7.71a182.41,182.41,0,0,1,52-37.27,23.54,23.54,0,0,1,2.76-.93c4.49-2.09,9-4.09,13.44-6.32a9.51,9.51,0,0,0,3.19-3c1.9-2.64.15-2.93-2-2.8,2.65-.74,6.18-1,7.35-3.33,3.16-6.33,9.08-10.16,13-15.69C188.63,294,202,281.05,215.26,268s29.36-19.38,47.31-22.24c14.77-2.36,29.62-4,44.52-5.14l13,.13,68.61.06c14.45-.14,28.77,1.64,43.09,3.24C436,244.54,440.4,244.11,444.47,245.8Zm-118.81,72a7.07,7.07,0,0,1,1.92-3.78c6.09-12.39,13.44-24,21.06-35.5a279.32,279.32,0,0,1,17.74-23.27c-6.15-.85-11.49-1.75-16.86-2.31-21.84-2.25-43.76-2.29-65.68-2.12a23.56,23.56,0,0,0-7.79,1c-5.4,0-10.85-.89-16.18.7-2.16.1-4.32.12-6.47.31-10.26.91-20.19,2.31-27.61,10.85-3.57,4.1-8.1,7.35-12.12,11.06a449.43,449.43,0,0,0-48.31,52.56c-.7.88-1.85,1.67-1.35,3,.59,1.55,2,.81,3,.71,12.67-1.17,25.33-2.53,38.06-2.69,33-.23,66-.83,98.94,2.23,3.24.3,6.47-.24,9.68,1.42,2.49,1.29,5-.29,5.84-2.95.48-1.5,1.6-2.44,2.12-3.79C322.14,322.27,325.44,320.85,325.66,317.78Zm-191.72,85c-8.47,0-8.58,0-6.54,5.61,1,2.67.52,7.13,3.74,7.41,2.69.24,4.17-3.82,5.86-6.18,1.27-1.77,4.28-3.31,3.1-5.74S135.83,403.39,133.94,402.82Z" transform="translate(-8.1 -70.84)" fill="#037cfb"/><path d="M168.16,475.67c-4.49-5.68-7.18-12.42-9.84-18.95C155,448.47,149.8,445.06,141,445.5c-10.61.52-21.26.12-31.89.15-8.56,0-9.07,1.12-10.84,9.57-1.28,6.12-2.23,12.3-3.86,18.36-.62,2.29-1.58,2.89-3.72,2.88-4.14,0-8.28.16-12.42.27-1.16-.85-2.5-.75-3.82-.77-6.74-.13-8.29-1.26-10.39-9.24-.21-.79-.08-1.66-.92-2.16q-1.65-6.36-3.31-12.73c.21-1.14.36-2.26-.85-3l0-.1c-.77-8.67-2.89-17.24-1.8-26L64,414.58c3.75-.65,6.56,1.8,9.67,3.07,9,3.68,17.66,9,28.12,6.87,2.65.11,5.31.33,8,.32q31.44-.12,62.87-.31c8.43.06,16.79.66,25.19-1.46q19.19-4.83,38.69-8.38c8.48-1.54,16.05-4.51,22.64-10,6.14-2.34,11.12-6.63,16.69-9.92a49.15,49.15,0,0,1,15.18-2c9.11.32,18.29-1.08,27.32,1a19.29,19.29,0,0,1,5.76,2.49,92.18,92.18,0,0,0-20.15,2.08c-19.7,4.67-36.7,14.75-52.28,27.37-5,4-5.25,10.5-7.35,15.95-3.82,9.95-7,20.15-10.55,30.2-1,2.76-3,3.83-6.18,3.81C207.76,475.56,188,475.65,168.16,475.67ZM75.07,461.78c-.37-.85-.75-1.69-1.12-2.54-.84-.32-1.71-.59-2-1.57-1.19-2.62-4.7-5-3.43-7.66,1-2.14,4.56-3.07,7.92-5.11-4.3,0-7.54.11-10.76,0-3.92-.17-4,1.9-3.07,4.76,1.25,3.73,2.59,7.43,3.73,11.2,3,9.88,3,10,10.45,9.78,1.75-.05,4.58,1.32,5.14-1.21s-1.5-4.61-3.3-6.25c-.91-.82-2.45-.95-3.7-1.39Zm127.54-17c1.9,2.34,4.57,1.71,6.85,2.1,1.59.26,3.13.9,3.77,2.11.76,1.46-1.19,2.17-2,3-5.13,5-10.69,9.33-17.89,11-2.07.48-3.81,1.39-3.49,4s2.35,1.92,3.86,1.94c8.3.06,16.6,0,24.9.08,2.41,0,3.7-.87,4.12-3.22,1-5.69,2.14-11.36,3.09-17.05.34-2.08-.63-3.83-2.85-3.88C216.26,444.66,209.56,444.76,202.61,444.76Z" transform="translate(-8.1 -70.84)" fill="#037cfb"/><path d="M175.91,307.62c-3.95,5.53-9.87,9.36-13,15.69-1.17,2.36-4.7,2.59-7.35,3.33l-4.47.08c.31-2.89-1-4.79-3.25-6.62-15-12.15-29.93-24.47-44.91-36.69a51.71,51.71,0,0,0-5-3.21c-2.88-3.72-5.94-7.31-10.2-9.52C86.43,270,86,269.21,86.36,268c.43-1.5,1.76-1.19,2.86-1.26,1.67-.1,2.74,1,3.75,2,1.45,1.5,3.07,2.43,5.22,2.07.67,3.05,3.62,3.72,5.7,5.15,15.36,10.6,30.61,21.39,46.8,31.44a208.13,208.13,0,0,0,1-42.15c-.92-11.39-8.19-20.37-15.86-28.6-1.3-4.21-5.23-5.72-8.5-7.49-5.06-2.76-8.41-7.54-13.35-10.32-5.55-8.54-11.76-16.66-16.11-26-.18-.61-.17-1.4-.57-1.8-1.19-1.24-1.83-2.64-.35-3.8,1.16-.9,2.39-.08,3.48.91s2.07,2.63,3.83,3c.16,5.68,4.23,9,7.7,12.64,4,7.39,10,12.59,18.07,17.12-.7-8.81,3.32-15.88,4.1-23.62,0-.17,0-.39,0-.49,1.68-1.77,1.19-6.45,4.12-5.62,3.48,1,.64,4.05.27,6.46-1.26,8.07-3.51,16.07-2.58,24.41a5.12,5.12,0,0,0,2.93,4.28,58.73,58.73,0,0,1,10.17,6.72c1.9,1.46,3.06,1.07,4-.49,5.07-8.31,10.3-16.53,13.1-26,1.74-5.88,4.93-11.26,6.41-17.28,1-4.06,2.35-8,3.41-12.08.31-1.18.37-2.34,2-2.37,1.9,0,1.95,1.33,2.09,2.72.63,5.89-1.78,11.31-3,16.83-1.61,7.24-4.92,14.08-6.9,21.25-1.21,4.35-5.19,7.81-4.09,12.84-4.25,4.07-5.15,9.9-7.43,14.94-1.22,2.69,2.36,5.15,3.43,7.87,1.4,3.56,3.31,6.92,4.55,10.52s2.67,3.17,4.65.75a124.34,124.34,0,0,0,13.48-19.75c2.08-3.9,5.34-7.23,6.06-11.83,9.36-12.41,14.79-25.69,9.56-41.5-.6-1.82-.28-4-.33-6,0-1.42.18-2.73,2.08-2.66s2.09,1.5,1.93,2.83c-.69,5.69,3.42,10.65,1.33,17.31,4.94-2.35,7-5.89,9.91-8.34,1.27-1.06,2.54-2.85,4.13-1.23s-.2,2.93-1.31,4.14c-3.78,4.14-8.11,7.86-10.76,12.89a29,29,0,0,0-3.3,10c-1.5,1.68-3.33,3.24-2.55,5.87.09.33.95.81,1.08.71,1.48-1.07,3.9-1.45,3.28-4.16,4.43.37,5.91-3.65,8.66-5.79,1.42-1.11,2.78-3.76,4.84-1.6,1.74,1.83-.44,3.4-1.68,4.48-3.69,3.17-6,7.29-8.43,11.36-7.61,7.33-12.84,16.39-18.18,25.29-7.46,12.42-14,25.29-16.28,39.87C174.09,299,175,303.3,175.91,307.62Z" transform="translate(-8.1 -70.84)" fill="#b7bcbf"/><path d="M101.77,424.52c-10.46,2.12-19.07-3.19-28.12-6.87-3.11-1.27-5.92-3.72-9.67-3.07A162,162,0,0,1,74.74,391.3c.19-.33.88-.38,1.34-.56l0,0c-.63,2.39-1.36,4.75-1.88,7.17a5.65,5.65,0,0,0,2.23,6.06c1.88-5.14,3.83-9.81,8.31-12.81,1-.64.81-2.26.21-3.26C83.44,385.39,81,387,79,386.69l0,0a31.09,31.09,0,0,1,7.08-9.8c2.78,3.19,7,4.45,9.83,7.71,5.66,6.48,6,14.36,6.86,22.22.3,2.78.92,5.53,1.4,8.29,1.39,2,.57,4.06-.18,6.55h5.27c18.79,0,37.57-.2,56.35.13,5.25.08,8.08-1.75,9.34-6.58a51.8,51.8,0,0,0,8.44-11.63c4-7,9.7-11.33,17.05-14.36,15.64-6.44,31.49-11.39,48.71-10.69,5.9.23,11.74-2.07,17.75-1l.27,1.1c-.12,9.48-3.59,17.92-8.13,26-6.59,5.51-14.16,8.48-22.64,10q-19.47,3.56-38.69,8.38c-8.4,2.12-16.76,1.52-25.19,1.46-1.11-2.15-3.15-1.51-4.88-1.52q-30.47-.06-60.95,0C105,423,103.05,422.76,101.77,424.52ZM216.18,403.4c0-9-7.3-14.44-14.45-10.45a16.51,16.51,0,0,0-8.5,10.66c-1,4.66-.7,9.4,3.25,12.91,3,2.66,6.59,3.32,10.19,1.44C212.52,414.93,216.13,410.28,216.18,403.4Zm-115-.21c.06-6.86-4-11.57-9.76-11.43-6.52.15-13.24,7.93-13.48,15.62-.21,6.7,3.84,11.49,9.69,11.47C94.63,418.83,101.12,411.34,101.18,403.19Zm120.68-4.7c-.09,6,2.49,9.35,7.12,9.39s8.13-4,8.17-9.3c0-5.68-2.74-9.7-6.85-9.92S221.94,393.24,221.86,398.49Z" transform="translate(-8.1 -70.84)" fill="#b7bcbf"/><path d="M63.1,464.56c.84.5.71,1.37.92,2.16,2.1,8,3.65,9.11,10.39,9.24,1.32,0,2.66-.08,3.82.77a77.66,77.66,0,0,0,3.34,19.48c-2,.16-4,.45-5.94.46-20.79,0-41.58-.07-62.37.09-3.94,0-5.31-1.16-5.15-5.13.27-6.64.12-13.3.05-19.95-.05-3.69,1.35-5.53,5.31-5.35,7.47.35,14.89-1.36,22.39-.53.38-1.76-1.25-1.84-1.81-2.69-.71-1.06-2.48-1.91-1.68-3.28,1.12-1.93,2.14.41,3.27.51.61.05,1.44.16,1.81-.17.78-.71.08-1.55-.31-2.22-1.49-2.56-3.22-5-4.54-7.65-.76-1.55-1.57-3.86.24-4.93,1.52-.9,2.32,1.3,3.31,2.32a48.32,48.32,0,0,1,5.18,6.62c-1.52-6.24-1.29-12.43-1.27-18.61a18.3,18.3,0,0,1,.14-3.48c.33-1.63.77-3.44,2.92-3.46s2.47,1.55,3,3.29c2.35,7.76,2,15.75,2,24,2.67-.91,2-3.48,3.15-4.89.4-.49.37-1.32.76-1.82,5.55-7,3.85-15.15,4-23,0-1.3-.15-2.7,1.13-3.64-1.09,8.8,1,17.37,1.8,26-1-.32-.4-1.94-1.74-2.05-1,5.64-3.85,10.5-6.14,15.6-.55,1.21-1.47,2.36-.29,3.58S61.36,466.05,63.1,464.56Z" transform="translate(-8.1 -70.84)" fill="#b7bcbf"/><path d="M533.58,496.4c1.6-5.83,1.59-12.28,7.32-16.41,2-1.41,2.41-4.2,3-6.6.92.38,1.83.78,2.75,1.15,7.05,2.83,8.42,2,8.23-5.43-.1-3.81,1.75-7,2.35-10.59,1.77-10.6.15-21.26.86-31.86,1.31,1.59.8,3.51.83,5.28.06,4.76-.42,9.26,5.07,12.23,3.65,2,3.38,6.46,2.53,10.4-1,4.59-.32,5.1,4.36,4.4,6.21-.92,11.94-.6,15.35,6,1.46,2.84,4.52,1.43,6.84,1.49,6.93.17,6.93.07,6.93,6.93,0,6.48,0,13,0,19.46,0,2.23-.18,3.87-3.11,3.85Q565.26,496.5,533.58,496.4Z" transform="translate(-8.1 -70.84)" fill="#b7bcbf"/><path d="M98.19,270.81c-2.15.36-3.77-.57-5.22-2.07-1-1.06-2.08-2.14-3.75-2-1.1.07-2.43-.24-2.86,1.26-.36,1.25.07,2.06,1.35,2.72,4.26,2.21,7.32,5.8,10.2,9.52-4.6.18-8.34,1-9.17,6.83-.5,3.53-3.61,4.34-6.51,2.34-3.54-2.46-7-3.49-11.19-1.87a3.11,3.11,0,0,1-3.66-.88c-1.43-1.71-3.26-2.1-5.36-2.05-.78,0-1.93-.05-2.3-.55-1.54-2,.05-5-2.6-7.12-2.29-1.83-1.61-4.77.33-7.14,1-1.27.65-2.27-.78-3.23-3.67-2.48-3.35-5.45-.5-8.32,1.67-1.67,2.44-3.1.25-4.92a3.52,3.52,0,0,1-1.23-2.08c-.29-3,1.75-4.9,4-5.67,3.54-1.19,4.16-9.07,10.13-4.44,2.28,1.77,4.23,2.63,5.72-1s3.9-2.51,5.91-.58c2.34,2.25,4.4,2.95,7.46,1s4.9.49,5.23,3.11c.4,3.27,1.24,4.94,4.94,5.3,3.3.31,3.19,3.15,1.59,5.29-2.46,3.29-3.61,5.73,1.85,6.83,1.79.35,2.52,2.13,2.66,3.87s-1.23,2.59-2.62,3.26S98.74,268.8,98.19,270.81Z" transform="translate(-8.1 -70.84)" fill="#65a5fc"/><path d="M516.12,331.53c-1.24,3.72-4.63,1.8-6.68,2-12.21,1.09-24.49,1.31-36.71,2.29-16.8,1.34-33.6,2.72-50.37,4.66-13.13,1.52-26.39,1.89-39.46,4.08-1.85.31-3-.36-2.84-2.34s-1.43-4.79,1.86-5.36c8.78-1.51,17.6-2.84,26.43-4.1,7.68-1.09,15.38-2,23.09-2.93,9.36-1.09,18.74-2,28.09-3.1,12.46-1.52,25-1.47,37.48-3.61,6.62-1.13,13.56-.38,20.36-.48l2.69,2c1.72,2.76,2.36,4.67-2.31,4.16-2.84-.3-2.88.07-1.69,2A1.11,1.11,0,0,1,516.12,331.53Z" transform="translate(-8.1 -70.84)" fill="#037cfb"/><path d="M504.78,74.66c.55,1.27,1.42,1.12,2.43.61,6.08-3,12.82-2.77,20.53-4.43-4.8,6.22-10.29,9.4-17,12.55,7.06,2.16,13-2.27,19.23-.27-1.29,1.74-3.92,1.15-5.44,2.78,1.23,1.54,3.35.08,4.74,2-8.82-.38-16.89,2.67-25.35,3A16.39,16.39,0,0,1,494,88.4c-2.57-1.65-5.17-3.52-8.53-3.87-1-.1-3.84,0-3-2.78.65-2.23,2.13-3.38,4.48-3a41.17,41.17,0,0,1,4.3,1.23C497.36,82.79,501.56,81.13,504.78,74.66Z" transform="translate(-8.1 -70.84)" fill="#b7bcbf"/><path d="M400.77,496.54c2.83-9.86,2.83-9.87,13-9.92,6.62,0,13.25.28,19.85-.11,4.34-.26,6.46,1.06,6.65,5.48a20.56,20.56,0,0,0,1.11,4.31C427.87,497.09,414.32,496.63,400.77,496.54Z" transform="translate(-8.1 -70.84)" fill="#b7bcbf"/><path d="M516.12,331.53a1.11,1.11,0,0,0-.06-.8c1.93-1.89,4-.54,6.06-.38s3.86,2.35,5.91.3a4.65,4.65,0,0,1,3.31,2.81c3,8.66,6.79,17.08,8.49,26.16C533.59,348.85,522.57,342.12,516.12,331.53Z" transform="translate(-8.1 -70.84)" fill="#b7bcbf"/><path d="M366,164.77c-2.63-3.58-7.35-.87-10.76-3.48a13,13,0,0,1,8.17-2.64c7.06.07,14.43,2.14,21.13-2.06a4,4,0,0,1,3.6-.65c.3,3.94-2.45,4.76-5.94,5.13,3.64,2.51,7.7,2.12,12,3.9-6.05,2.12-11.24,1.94-16.43,1.36-1.18-.14-2.27-.61-3.08.66-2.27-1.88-4-5.79-7.76-2.18l.07,0C366.7,164.05,366.35,164.14,366,164.77Z" transform="translate(-8.1 -70.84)" fill="#b7bcbf"/><path d="M209.06,495.92c2.87-4.37,6.66-6.66,12.12-5.87a22.62,22.62,0,0,0,7-.09c5.63-1,9.18,1.31,11.24,6.4C229.28,496.59,219.15,497.47,209.06,495.92Z" transform="translate(-8.1 -70.84)" fill="#b7bcbf"/><path d="M114,218.84c4.94,2.78,8.29,7.56,13.35,10.32,3.27,1.77,7.2,3.28,8.5,7.49-3,.9-5.87,2-8.39-1.49-2.11-2.9-6.32-.52-8.73-2.39s1.3-6.26-2.86-8.16C113.69,223.61,113.82,221,114,218.84Z" transform="translate(-8.1 -70.84)" fill="#65a5fc"/><path d="M151.06,326.72l4.47-.08c2.17-.13,3.92.16,2,2.8a9.51,9.51,0,0,1-3.19,3c-4.42,2.23-9,4.23-13.44,6.32A10.51,10.51,0,0,0,142,336.1C142.62,330.63,146.11,328,151.06,326.72Z" transform="translate(-8.1 -70.84)" fill="#0161cf"/><path d="M504.78,74.66c-3.22,6.47-7.42,8.13-13.52,5.35,2-7.45,8.61-7.25,14.71-9.13Z" transform="translate(-8.1 -70.84)" fill="#65a5fc"/><path d="M388.71,240.82l-68.62-.06a2,2,0,0,0,.21-.75C343.11,239.34,365.92,239,388.71,240.82Z" transform="translate(-8.1 -70.84)" fill="#0161cf"/><path d="M528,330.65c-2,2.05-4-.14-5.91-.3s-4.13-1.51-6.06.38c-1.19-1.89-1.15-2.26,1.69-2,4.67.51,4-1.4,2.31-4.16C523.21,326,525.43,328.56,528,330.65Z" transform="translate(-8.1 -70.84)" fill="#65a5fc"/><path d="M366.91,164.81c3.8-3.61,5.49.3,7.76,2.18C371.67,167.74,368.55,168.9,366.91,164.81Z" transform="translate(-8.1 -70.84)" fill="#65a5fc"/><path d="M320.3,240a2,2,0,0,1-.21.75l-13-.13C311.44,239.26,315.87,239.68,320.3,240Z" transform="translate(-8.1 -70.84)" fill="#b7bcbf"/><path d="M79,386.69,78.68,388c-.91-.75,0-.92.4-1.24Z" transform="translate(-8.1 -70.84)" fill="#b7bcbf"/><path d="M366,164.77c.4-.63.75-.72,1,.08Z" transform="translate(-8.1 -70.84)" fill="#65a5fc"/><path d="M76.08,390.74l.2-.44-.25.4Z" transform="translate(-8.1 -70.84)" fill="#b7bcbf"/><path d="M335.65,325.71,347,328.47c-.39,2.72-.77,5.44-1.16,8.15-1.79,5.6-.36,7.47,5.41,8.05,7.4.75,14.43-1.73,21.7-2,1.56-.06,3.19-.49,4.94.43-3.73,4.26-8.95,3.28-13.3,4.63-10.39,3.21-21.16,3.09-31.9,2.9-1.57,0-2.52-.7-2.56-2.36A44.74,44.74,0,0,1,335.65,325.71Z" transform="translate(-8.1 -70.84)" fill="#1b2e36"/><path d="M345.83,336.62c.39-2.71.77-5.43,1.16-8.15a4.23,4.23,0,0,1,2.43-3.35c8.57-1.17,16.74.52,24.72,3.55-.52,9.64-.57,9.4-10.66,11.28-4.46.83-8.86.42-13.26.83C347,341.07,345.66,339.74,345.83,336.62Z" transform="translate(-8.1 -70.84)" fill="#037cfb"/><path d="M259.12,404.67c4.54-8.1,8-16.54,8.13-26,3.95.19,4.88,3.49,6,6.24,1.32,3.13,2.69,6.32,2.53,9.85C270.24,398,265.26,402.33,259.12,404.67Z" transform="translate(-8.1 -70.84)" fill="#65a5fc"/><path d="M430.88,299.49c2.11,4.46.54,9.21,1.05,13.8a33.21,33.21,0,0,1,.05,3.46c0,7.75,0,7.75,7.74,8.12-6.41,3.75-8.6,2.6-8.66-4.56Z" transform="translate(-8.1 -70.84)" fill="#65a5fc"/><path d="M327.26,397.11c0,.12-.08.32-.13.33a1.25,1.25,0,0,1-.4-.13c0-.11.08-.32.13-.32A1.22,1.22,0,0,1,327.26,397.11Z" transform="translate(-8.1 -70.84)" fill="#037cfb"/><path d="M339.53,471.38c-.1,10.45-1.9,18.11-7.55,24.38-6.47,7.17-15.29,7-21.61-.27-9.76-11.23-9.8-33.24-.08-44.57,6.25-7.29,15.12-7.5,21.62-.42C337.9,457,339.43,465.11,339.53,471.38Z" transform="translate(-8.1 -70.84)" fill="#b7bcbf"/><path d="M524.91,473.86c-.59,7.73-2,15.66-7.93,22-6.37,6.91-15,6.83-21.28-.2-9.86-11-9.91-34-.09-45,6.67-7.46,16-7.22,22.3.66C523,457.8,524.51,465.4,524.91,473.86Z" transform="translate(-8.1 -70.84)" fill="#b7bcbf"/><path d="M190.81,231c-.72,4.6-4,7.93-6.06,11.83a124.34,124.34,0,0,1-13.48,19.75c-2,2.42-3.4,2.91-4.65-.75s-3.15-7-4.55-10.52c-1.07-2.72-4.65-5.18-3.43-7.87,2.28-5,3.18-10.87,7.43-14.94C174.65,226,183,225.86,190.81,231Z" transform="translate(-8.1 -70.84)" fill="#fefefe"/><path d="M112,203.83c-3.47-3.66-7.54-7-7.7-12.64,4.78-.42,7.33,4.2,11.61,5.12,1.58.33.31,2-.31,2.83C114.43,200.73,112.59,201.8,112,203.83Z" transform="translate(-8.1 -70.84)" fill="#fefefe"/><path d="M204.26,173a4.74,4.74,0,0,1,2.9,1.75c.77.82,1.28,1.78,2.51,2.25s4.6-1.37,3.86,1.7c-.82,3.42-2.86.53-4.47,0a43.53,43.53,0,0,0-4.88-.79c-1.89-.38-2.09-1.92-2-3.47C202.2,173.12,203.16,172.92,204.26,173Z" transform="translate(-8.1 -70.84)" fill="#fefefe"/><path d="M205.86,220.91c.62,2.71-1.8,3.09-3.28,4.16-.13.1-1-.38-1.08-.71-.78-2.63,1.05-4.19,2.55-5.87Z" transform="translate(-8.1 -70.84)" fill="#fefefe"/><path d="M301.38,316c8.25-7.08,17-7,26.2-2a7.07,7.07,0,0,0-1.92,3.77c-5.32-2.2-10.68-3.8-17.58-.51,6.06,1.42,9.81,4.7,13.59,7.95-.52,1.35-1.64,2.29-2.12,3.79-.85,2.66-3.35,4.24-5.84,2.95-3.21-1.66-6.44-1.12-9.68-1.42-32.93-3.06-65.94-2.46-98.93-2.23,3.71-4.85,8.77-5.52,14.5-5.44,9.79.15,19.59-.55,29.38-.49,4,0,6-1.19,5.75-5.29,1.47,1.28,2.07,3.93,5,2.91,4-1.41,8-2.69,12-4,1.27,1.22,2.63,1,4,.29,2.24,1.09,4.52.07,6.78.17,2.87.85,5.78.55,8.69.16C294.58,315.73,298.09,317.68,301.38,316Zm-76.81,11.4a27.57,27.57,0,0,0,12.93.06A30.47,30.47,0,0,0,224.57,327.4Z" transform="translate(-8.1 -70.84)" fill="#1b2e36"/><path d="M175,415.25c-1.26,4.83-4.09,6.66-9.34,6.58-18.78-.33-37.56-.13-56.35-.13h-5.27c.75-2.49,1.57-4.56.18-6.55,4,6.49,10.51,4.84,16.44,4.85,14,0,28,0,41.94,0,3.24,0,6.32.12,8-3.59C171.44,414.51,173.41,415.18,175,415.25Z" transform="translate(-8.1 -70.84)" fill="#1b2e36"/><path d="M133.94,402.82c1.89.57,4.94-1.39,6.16,1.1s-1.83,4-3.1,5.74c-1.69,2.36-3.17,6.42-5.86,6.18-3.22-.28-2.76-4.74-3.74-7.41C125.36,402.84,125.47,402.8,133.94,402.82Zm1.07,2c-2.14-.06-4.41-1.08-5.38.5-.77,1.24.2,3.36,1.36,5.14A11,11,0,0,0,135,404.83Z" transform="translate(-8.1 -70.84)" fill="#b7bcbf"/><path d="M321.67,325.21c-3.78-3.25-7.53-6.53-13.59-7.95,6.9-3.29,12.26-1.69,17.58.51C325.44,320.85,322.14,322.27,321.67,325.21Z" transform="translate(-8.1 -70.84)" fill="#b7bcbf"/><path d="M276.05,251.82c-5.34,1.54-10.77.78-16.18.7C265.2,250.93,270.65,251.85,276.05,251.82Z" transform="translate(-8.1 -70.84)" fill="#65a5fc"/><path d="M202.61,444.76c6.95,0,13.65-.1,20.35.05,2.22.05,3.19,1.8,2.85,3.88-.95,5.69-2.07,11.36-3.09,17.05-.42,2.35-1.71,3.25-4.12,3.22-8.3-.1-16.6,0-24.9-.08-1.51,0-3.54.6-3.86-1.94s1.42-3.52,3.49-4c7.2-1.68,12.76-6,17.89-11,.82-.79,2.77-1.5,2-3-.64-1.21-2.18-1.85-3.77-2.11C207.18,446.47,204.51,447.1,202.61,444.76ZM220.43,462c-.36-2.83-1.41-5.41-4.69-5.33-3.45.09-4.76,2.67-4.68,5.83.07,3,1.46,5.4,4.63,5.38C219.18,467.86,220.27,465.16,220.43,462Z" transform="translate(-8.1 -70.84)" fill="#1b2e36"/><path d="M74.89,461.76c1.25.44,2.79.57,3.7,1.39,1.8,1.64,3.85,3.82,3.3,6.25s-3.39,1.16-5.14,1.21c-7.5.2-7.47.1-10.45-9.78-1.14-3.77-2.48-7.47-3.73-11.2-1-2.86-.85-4.93,3.07-4.76,3.22.14,6.46,0,10.76,0-3.36,2-6.9,3-7.92,5.11-1.27,2.67,2.24,5,3.43,7.66-2.64-.36-3.25,1.46-3.09,3.37.25,3,.69,7.17,3.93,7.18C76.5,468.23,74.47,464.11,74.89,461.76Z" transform="translate(-8.1 -70.84)" fill="#1b2e36"/><path d="M63.1,464.56c-1.74,1.49-11.17,2.56-12.36,1.31s-.26-2.37.29-3.58c2.29-5.1,5.16-10,6.14-15.6,1.34.11.76,1.73,1.74,2.05l0,.1a3.13,3.13,0,0,0,.85,3Q61.46,458.19,63.1,464.56Z" transform="translate(-8.1 -70.84)" fill="#fefefe"/><path d="M101.77,424.52c1.28-1.76,3.18-1.54,5-1.54q30.48,0,61,0c1.73,0,3.77-.63,4.88,1.52q-31.42.17-62.87.31C107.08,424.85,104.42,424.63,101.77,424.52Z" transform="translate(-8.1 -70.84)" fill="#1b2e36"/><path d="M74.89,461.76c-.42,2.35,1.61,6.47-2.14,6.46-3.24,0-3.68-4.22-3.93-7.18-.16-1.91.45-3.73,3.09-3.37.33,1,1.2,1.25,2,1.58.12,1,0,2,1.12,2.53Z" transform="translate(-8.1 -70.84)" fill="#b7bcbf"/><path d="M59.79,451.83a3.13,3.13,0,0,1-.85-3C60.15,449.57,60,450.69,59.79,451.83Z" transform="translate(-8.1 -70.84)" fill="#b7bcbf"/><path d="M75.07,461.78c-1.14-.5-1-1.57-1.12-2.53C74.32,460.09,74.7,460.93,75.07,461.78Z" transform="translate(-8.1 -70.84)" fill="#1b2e36"/><path d="M216.18,403.4c-.05,6.88-3.66,11.53-9.51,14.56-3.6,1.88-7.19,1.22-10.19-1.44-3.95-3.51-4.29-8.25-3.25-12.91a16.51,16.51,0,0,1,8.5-10.66C208.88,389,216.23,394.43,216.18,403.4Z" transform="translate(-8.1 -70.84)" fill="#fefefe"/><path d="M101.18,403.19c-.06,8.15-6.55,15.64-13.55,15.66-5.85,0-9.9-4.77-9.69-11.47.24-7.69,7-15.47,13.48-15.62C97.22,391.62,101.24,396.33,101.18,403.19Z" transform="translate(-8.1 -70.84)" fill="#fefefe"/><path d="M221.86,398.49c.08-5.25,4.2-10.05,8.44-9.83s6.89,4.24,6.85,9.92c0,5.28-3.61,9.34-8.17,9.3S221.77,404.45,221.86,398.49Z" transform="translate(-8.1 -70.84)" fill="#fefefe"/><path d="M482,307.66c.18.61.37,1.23.55,1.85-.95,0-.14-.65-.32-1a3,3,0,0,1-.17-1Z" transform="translate(-8.1 -70.84)" fill="#1b2e36"/><path d="M507.8,316.47c-8.74-20-19-39.13-32.09-56.66-1.52-2-2.86-4.67-6.13-5.2-13-2.09-26.12-2.6-39.25-3.09-3-.11-3.78,1.07-3.4,3.86.52,3.78.79,7.6,1.12,11.4q1.44,16.35,2.83,32.71c2.11,4.46.54,9.21,1.05,13.8a33.21,33.21,0,0,1,.05,3.46c0,7.75,0,7.75,7.74,8.12,22.12-1.29,44.16-3.85,66.35-4.13C510.41,320.68,508.51,318.11,507.8,316.47Z" transform="translate(-8.1 -70.84)" fill="#b7bcbf"/><path d="M424,301.78c.3-14.65-1.53-29.18-2.26-43.76-.21-4.14-1-6.95-6.69-6.44-11.89,1.06-23.83,1.47-35.69,3.11-2.65.36-4.38,1.21-4.81,4-3,1.38-4.08,4.12-5.1,6.93l-1.55.61c-2.74,1.88-3.65,5.13-5.7,7.53a237.37,237.37,0,0,0-21.93,38.7c-1.88,4.28-5.29,8.1-4.65,13.28L347,328.47a4.24,4.24,0,0,1,2.42-3.35h0c8.58-1.17,16.75.52,24.73,3.55,2.87,2.38,6.31,1.78,9.68,2.1,6.65.64,12.74-2.9,19.34-2.14,5.79,0,11.34-2.2,17.16-1.82,3,.2,4.05-1.09,3.95-4.11C424,315.73,423.89,308.75,424,301.78Z" transform="translate(-8.1 -70.84)" fill="#b7bcbf"/><path d="M366.38,255.23c-6.15-.85-11.49-1.75-16.86-2.31-21.84-2.25-43.76-2.29-65.68-2.12a23.56,23.56,0,0,0-7.79,1c-5.34,1.54-10.77.78-16.18.7-2.16.1-4.32.12-6.47.31-10.26.91-20.19,2.31-27.61,10.85-3.57,4.1-8.1,7.35-12.12,11.06a449.43,449.43,0,0,0-48.31,52.56c-.7.88-1.85,1.67-1.35,3,.59,1.55,2,.81,3,.71,12.67-1.17,25.33-2.53,38.08-2.7,3.7-4.84,8.76-5.51,14.49-5.43,9.79.15,19.59-.55,29.38-.49,4,0,6-1.19,5.75-5.29a38,38,0,0,1-5.18-9.14,28.48,28.48,0,0,1-1-3.29,28.48,28.48,0,0,0,1,3.29,38,38,0,0,0,5.18,9.14c1.47,1.28,2.07,3.93,5,2.91,4-1.41,8-2.69,12-4,1.27,1.22,2.63,1,4,.29,2.23,1.09,4.51.07,6.77.17h0c2.88.85,5.78.55,8.7.16,3.34-.86,6.85,1.09,10.14-.59,8.25-7.08,17-7,26.2-2,6.09-12.39,13.44-24,21.06-35.5A279.32,279.32,0,0,1,366.38,255.23Z" transform="translate(-8.1 -70.84)" fill="#b7bcbf"/><path d="M224.57,327.4a30.47,30.47,0,0,1,12.93.06A27.57,27.57,0,0,1,224.57,327.4Z" transform="translate(-8.1 -70.84)" fill="#037cfb"/><path d="M135,404.83a11,11,0,0,1-4,5.64c-1.16-1.78-2.13-3.9-1.36-5.14C130.6,403.75,132.87,404.77,135,404.83Z" transform="translate(-8.1 -70.84)" fill="#037cfb"/><path d="M220.43,462c-.16,3.15-1.25,5.85-4.74,5.88-3.17,0-4.56-2.42-4.63-5.38-.08-3.16,1.23-5.74,4.68-5.83C219,456.6,220.07,459.18,220.43,462Z" transform="translate(-8.1 -70.84)" fill="#b7bcbf"/></svg>