<svg id="Capa_1" data-name="Capa 1" xmlns="http://www.w3.org/2000/svg" viewBox="0 0 214.91 208.76"><path d="M201.79,176.29l-1.51.36-4.19-12.12-6.84,2.16c-.93-7.25-3.19-27.06-1.73-37.14,1.06-7.3-6.65-22.91-15.86-35.2-5.31-8.91-9.94-15.64-17.45-19.53l-9.87-59a3.52,3.52,0,0,0-4-2.85L12.66,33.64a3.48,3.48,0,0,0-2.9,4l12.84,76.7a3.51,3.51,0,0,0,4,2.86L89.25,107a7.26,7.26,0,0,0,4.24,3,22.27,22.27,0,0,0,5,1.06c-3.76,10.89-5.21,22.51,5,21.24.54-.07,1-.16,1.56-.25-1,9.67.45,18.29,8.94,15.71a19.2,19.2,0,0,0,10.49-7.35c2.53,11.93,6.94,24.71,15,26.82a4.69,4.69,0,0,0,.46.21c6.16,2.4,10.29,8.26,11.95,11l-6.06,1.91,1.92,8.66-5,1.18,3.73,26.31H218.9l-17.11-40.21Z" transform="translate(-9.72 -7.74)" fill="#162da3"/><path d="M142.35,81.44s-27.74,19.4-31.11,31.76-6.3,33.22,6.3,29.39,13.84-14.94,17.27-22.74,16.63-14.37,16.63-14.37,10.11,15.35,19.79,12,17.15-10,6.21-18.93S155.6,73.64,142.35,81.44Z" transform="translate(-9.72 -7.74)" fill="#e4a78f"/><path d="M143.17,69.53S111.59,84.34,106,96.27,93.59,128.8,107,127.12s16.7-12.71,21.58-20S148,95.46,148,95.46s7.48,17.31,17.88,15.62S185.08,104,175.61,93,158,64,143.17,69.53Z" transform="translate(-9.72 -7.74)" fill="#f8ba93"/><path d="M155,68.38s-35-.15-45.33,8.19-25.49,24-12.63,28.26,20.65-4.32,28.27-8.81,22.64-2.21,22.64-2.21-.9,18.79,9.21,21.71,31.88-3.27,24.39-15.64c-9.38-15.5-14.31-26.71-26.55-31.5Z" transform="translate(-9.72 -7.74)" fill="#f8ba93"/><path d="M106.59,125.19c8.49-2.5,10.61-13.35,9.39-18.41-.89-3.64-4.26-11.11-4.32-17.58A24.66,24.66,0,0,0,106,96.27c-3.69,7.8-7.84,19.32-6.5,25.88,1.22,2.35,3.36,4.16,7.14,3Z" transform="translate(-9.72 -7.74)" fill="#f8ba93"/><path d="M175.61,93C166.14,82,158,64,143.17,69.53c0,0-20.62,9.67-31.51,19.67.06,6.47,3.43,13.94,4.32,17.58,1.22,5.06-.9,15.91-9.39,18.41-3.78,1.12-5.92-.69-7.14-3,.7,3.47,2.94,5.55,7.59,5,13.46-1.68,16.7-12.71,21.58-20S148,95.46,148,95.46s7.48,17.31,17.88,15.62S185.08,104,175.61,93Z" transform="translate(-9.72 -7.74)" fill="#f8ba93"/><path d="M126.52,125s8.76,34.12,16.93,37.3,12.76,12.45,12.76,12.45l36.92-10.48s-3.91-27.4-2.1-39.88C193,111.2,166.33,71,153.78,72s-40.41,29.07-27.26,53Z" transform="translate(-9.72 -7.74)" fill="#fac59d"/><path d="M155,68.38s-35-.15-45.33,8.19C100.37,84,87.24,97.42,93.87,103.16c2.33.11,5.89.2,9.13,0-.47,1.24-.93,2.51-1.35,3.78a18.65,18.65,0,0,0,8.1-.12,5.75,5.75,0,0,1,4.33.63,20.34,20.34,0,0,0-2.84,5.74c-1.8,6.6-3.47,15.61-2.73,22,.49-2.64,1.61-6,4.75-7.43,5.37-2.37,7.79-5.1,9.44-3.36s.52,8,3.23,13.3c5.11-5.09,6.44-12.32,8.88-17.87,2.62-5.93,14.68-13.31,14.68-13.31S167.2,73.17,155,68.38Z" transform="translate(-9.72 -7.74)" fill="#e4a78f"/><path d="M138.35,90s11.63-23.78,16-24.12,7.77,20.6,7,24.06c-.48,2.12-4,3.31-6,4.42-3,1.7-5.63,2.88-4.06,4.17,2.91,2.41,4.73,3.29,4.2,4.36-.7,1.44-2.83.3-3.77,3.79s2.53,7.26,5.69,12.5-7.6-2.89-10.91-9S138.35,90,138.35,90Z" transform="translate(-9.72 -7.74)" fill="#e4a78f"/><path d="M185.65,105.94c.26,7.71,0,18.4-2.72,24.74-4.64,10.76-2.42,26.09-9.64,31.59-4.78,3.65-13.45,6.32-19.37,8.78a29.26,29.26,0,0,1,2.29,3.67l36.92-10.48s-3.91-27.4-2.1-39.88c.61-4.15-1.64-11-5.38-18.42Z" transform="translate(-9.72 -7.74)" fill="#e6b591"/><polygon points="139.62 167.43 189.88 151.61 195.14 166.78 142.43 180.14 139.62 167.43 139.62 167.43" fill="#fff"/><path d="M204.85,174.52l-3.51-10.14c-.73,2.6-2.7,6-8,7.33-7.28,1.84-32.51,8.51-42.33,11.11l1.11,5.06,52.71-13.36Z" transform="translate(-9.72 -7.74)" fill="#e0e0e0"/><polygon points="136.52 177.27 195.58 163.37 214.91 208.76 140.98 208.76 136.52 177.27 136.52 177.27" fill="#0089fc"/><path d="M160.39,192.06a4.34,4.34,0,0,1-3.62,5,4.39,4.39,0,0,1-5.05-3.57,4.33,4.33,0,0,1,3.62-5,4.39,4.39,0,0,1,5,3.56Z" transform="translate(-9.72 -7.74)" fill="#ffd663"/><path d="M160.69,87.35a3.47,3.47,0,0,1-2.9,4L30.15,112a3.51,3.51,0,0,1-4-2.85L13.28,32.43a3.47,3.47,0,0,1,2.9-4L143.81,7.78a3.51,3.51,0,0,1,4,2.86l12.84,76.71Z" transform="translate(-9.72 -7.74)" fill="#f1e7e7"/><path d="M147.85,10.64a3.51,3.51,0,0,0-4-2.86L16.18,28.45a3.47,3.47,0,0,0-2.9,4l3.15,18.84L151,29.48l-3.15-18.84Z" transform="translate(-9.72 -7.74)" fill="#0089fc"/><text transform="matrix(1, -0.16, 0.17, 0.99, 31.21, 31.31)" font-size="8.31" fill="#fff" font-family="SourceSansPro-Black, SourceSansPro Black" font-weight="800">CEDULA DE</text><text transform="matrix(1, -0.16, 0.17, 0.99, 73.29, 24.49)" font-size="8.31" fill="#fff" font-family="SourceSansPro-Black, SourceSansPro Black" font-weight="800">IDENTIDAD</text><polygon points="59.08 83.1 21.69 89.15 14.84 48.17 52.22 42.11 59.08 83.1 59.08 83.1" fill="#dadada"/><path d="M64.91,81.89c-1.25-1.21-5.62-.12-8.63-.78s-4.13-2.28-3.1-2.45,1.09-5.82,1.7-5.91S57.43,71.44,57,68.3s-3-.42-3-.42a35.4,35.4,0,0,0-1.34-8c-1.06-3.41-6.56-3.29-8.8-2.92s-7.5,2-7.39,5.55a35.16,35.16,0,0,0,1.33,8s-3.32-1.77-2.67,1.33,2.88,3.64,3.49,3.54,2.51,5.23,3.54,5.06.48,1.72-2.15,3.3S33,85.65,32.17,87.19s1.56,9.32,1.56,9.32l32.74-5.3s-.32-8.11-1.56-9.32Z" transform="translate(-9.72 -7.74)" fill="#a1a4b3"/><text transform="matrix(1, -0.16, 0.17, 0.99, 61.57, 49.44)" font-size="3.2" fill="#315285" font-family="SourceSansPro-Bold, SourceSansPro Bold" font-weight="700">Nam</text><text transform="matrix(1, -0.16, 0.17, 0.99, 68.16, 48.37)" font-size="3.2" fill="#315285" font-family="SourceSansPro-Bold, SourceSansPro Bold" font-weight="700">e</text><text transform="matrix(1, -0.16, 0.17, 0.99, 63.53, 61.15)" font-size="3.2" fill="#315285" font-family="SourceSansPro-Bold, SourceSansPro Bold" font-weight="700">Last Name</text><text transform="matrix(1, -0.16, 0.17, 0.99, 65.49, 72.86)" font-size="3.2" fill="#315285" font-family="SourceSansPro-Bold, SourceSansPro Bold" font-weight="700">Address</text><text transform="matrix(1, -0.16, 0.17, 0.99, 67.45, 84.57)" font-size="3.2" fill="#315285" font-family="SourceSansPro-Bold, SourceSansPro Bold" font-weight="700">Birthdat</text><text transform="matrix(1, -0.16, 0.17, 0.99, 79.34, 82.65)" font-size="3.2" fill="#315285" font-family="SourceSansPro-Bold, SourceSansPro Bold" font-weight="700">e</text><text transform="matrix(1, -0.16, 0.17, 0.99, 94.79, 80.15)" font-size="3.2" fill="#315285" font-family="SourceSansPro-Bold, SourceSansPro Bold" font-weight="700">Gender</text><text transform="matrix(1, -0.16, 0.17, 0.99, 60.59, 43.57)" font-size="3.2" fill="#315285" font-family="SourceSansPro-Bold, SourceSansPro Bold" font-weight="700">IDENTIFICA</text><text transform="matrix(1, -0.16, 0.17, 0.99, 76.43, 41)" font-size="3.2" fill="#315285" font-family="SourceSansPro-Bold, SourceSansPro Bold" font-weight="700">TION NUMBR</text><polygon points="136.57 31.94 96.08 38.5 95.43 34.64 135.93 28.09 136.57 31.94 136.57 31.94" fill="#72a1b6"/><polygon points="102.98 48.35 62.48 54.91 61.84 51.06 102.34 44.5 102.98 48.35 102.98 48.35" fill="#72a1b6"/><polygon points="104.97 60.24 64.47 66.8 63.83 62.95 104.33 56.39 104.97 60.24 104.97 60.24" fill="#72a1b6"/><polygon points="106.96 72.13 66.46 78.69 65.81 74.84 106.32 68.28 106.96 72.13 106.96 72.13" fill="#72a1b6"/><polygon points="90.08 87.08 68.45 90.58 67.81 86.72 89.44 83.22 90.08 87.08 90.08 87.08" fill="#72a1b6"/><polygon points="117.43 82.65 95.8 86.15 95.15 82.3 116.78 78.79 117.43 82.65 117.43 82.65" fill="#72a1b6"/><polygon points="60.54 91.86 23.16 97.92 22.01 91.08 59.4 85.02 60.54 91.86 60.54 91.86" fill="#72a1b6"/><polygon points="137.36 36.62 121.56 39.18 121.45 38.5 137.25 35.94 137.36 36.62 137.36 36.62" fill="#181d1f"/><polygon points="137.69 38.61 121.89 41.17 121.7 40.03 137.5 37.47 137.69 38.61 137.69 38.61" fill="#181d1f"/><polygon points="138.68 44.53 122.88 47.09 122.69 45.95 138.49 43.39 138.68 44.53 138.68 44.53" fill="#181d1f"/><polygon points="139.01 46.52 123.22 49.08 123.03 47.94 138.82 45.38 139.01 46.52 139.01 46.52" fill="#181d1f"/><polygon points="141.45 61.09 125.65 63.64 125.46 62.51 141.26 59.95 141.45 61.09 141.45 61.09" fill="#181d1f"/><polygon points="137.95 40.14 122.15 42.7 122.03 42.02 137.83 39.46 137.95 40.14 137.95 40.14" fill="#181d1f"/><polygon points="138.35 42.54 122.55 45.1 122.49 44.75 138.29 42.19 138.35 42.54 138.35 42.54" fill="#181d1f"/><polygon points="138.15 41.34 122.35 43.9 122.29 43.55 138.09 40.99 138.15 41.34 138.15 41.34" fill="#181d1f"/><polygon points="140.41 54.84 124.61 57.4 124.55 57.05 140.35 54.49 140.41 54.84 140.41 54.84" fill="#181d1f"/><polygon points="140.21 53.64 124.41 56.2 124.35 55.85 140.15 53.29 140.21 53.64 140.21 53.64" fill="#181d1f"/><polygon points="139.35 48.51 123.55 51.07 123.36 49.93 139.16 47.37 139.35 48.51 139.35 48.51" fill="#181d1f"/><polygon points="139.6 50.04 123.8 52.59 123.69 51.92 139.49 49.36 139.6 50.04 139.6 50.04" fill="#181d1f"/><polygon points="141.71 62.61 125.91 65.17 125.8 64.5 141.59 61.94 141.71 62.61 141.71 62.61" fill="#181d1f"/><polygon points="140.86 57.57 125.06 60.13 124.95 59.45 140.75 56.89 140.86 57.57 140.86 57.57" fill="#181d1f"/><polygon points="141.12 59.1 125.32 61.66 125.21 60.98 141.01 58.42 141.12 59.1 141.12 59.1" fill="#181d1f"/><polygon points="140 52.44 124.21 55 124.15 54.65 139.95 52.09 140 52.44 140 52.44" fill="#181d1f"/><polygon points="140.61 56.04 124.81 58.6 124.75 58.25 140.55 55.69 140.61 56.04 140.61 56.04" fill="#181d1f"/><polygon points="139.8 51.24 124 53.8 123.95 53.45 139.75 50.89 139.8 51.24 139.8 51.24" fill="#181d1f"/><polygon points="142.7 68.53 126.9 71.09 126.71 69.95 142.51 67.39 142.7 68.53 142.7 68.53" fill="#181d1f"/><polygon points="143.03 70.52 127.23 73.08 127.04 71.94 142.84 69.38 143.03 70.52 143.03 70.52" fill="#181d1f"/><polygon points="141.96 64.14 126.16 66.7 126.05 66.02 141.85 63.46 141.96 64.14 141.96 64.14" fill="#181d1f"/><polygon points="142.37 66.54 126.57 69.1 126.51 68.75 142.31 66.19 142.37 66.54 142.37 66.54" fill="#181d1f"/><polygon points="142.16 65.34 126.36 67.9 126.31 67.55 142.11 64.99 142.16 65.34 142.16 65.34" fill="#181d1f"/><polygon points="144.42 78.84 128.62 81.4 128.56 81.05 144.37 78.49 144.42 78.84 144.42 78.84" fill="#181d1f"/><polygon points="144.22 77.64 128.42 80.2 128.36 79.85 144.16 77.29 144.22 77.64 144.22 77.64" fill="#181d1f"/><polygon points="143.36 72.51 127.56 75.07 127.37 73.93 143.17 71.37 143.36 72.51 143.36 72.51" fill="#181d1f"/><polygon points="143.62 74.04 127.82 76.6 127.71 75.92 143.51 73.36 143.62 74.04 143.62 74.04" fill="#181d1f"/><polygon points="144.02 76.44 128.22 79 128.16 78.65 143.96 76.09 144.02 76.44 144.02 76.44" fill="#181d1f"/><polygon points="143.82 75.24 128.02 77.8 127.96 77.45 143.76 74.89 143.82 75.24 143.82 75.24" fill="#181d1f"/><path d="M125.51,120.13s-20-32.71-9.8-39.41,18-2.66,21.66,5.36,14.65,25.26,17.78,31.76S172.75,147,153,159.73s-25.37-23.92-27.49-39.6Z" transform="translate(-9.72 -7.74)" fill="#fac59d"/><path d="M135.34,89.5S130.48,77.15,121,81.07c-7.92,3.27-4,15.91-1.48,17,1.92.82,16.81-5.22,15.86-8.58Z" transform="translate(-9.72 -7.74)" fill="#fff3f3"/><path d="M109.75,106.83a18.65,18.65,0,0,1-8.1.12c-3.48,10.56-4.51,21.41,5.39,20.17a19.93,19.93,0,0,0,13-6.69c-.18-8-4.68-15-10.27-13.6Z" transform="translate(-9.72 -7.74)" fill="#f8ba93"/><path d="M122.7,124.42c-1.65-1.74-4.07,1-9.44,3.36-3.14,1.39-4.26,4.79-4.75,7.43.66,5.58,3.16,9.16,9,7.38a19.7,19.7,0,0,0,8.39-4.87c-2.71-5.25-1.71-11.69-3.23-13.3Z" transform="translate(-9.72 -7.74)" fill="#f8ba93"/><path d="M106,102.88a74.42,74.42,0,0,1-12.17.28A9,9,0,0,0,97,104.83c7.12,2.34,12.67.77,17.51-1.86-2.54-2.6-4.73-.61-8.47-.09Z" transform="translate(-9.72 -7.74)" fill="#f8ba93"/><path d="M59.74,206.56a1.25,1.25,0,0,0,.11.58.79.79,0,0,0,.29.37.75.75,0,0,0,.41.12.73.73,0,0,0,.41-.12.7.7,0,0,0,.3-.35,1.5,1.5,0,0,0,.11-.6,1.41,1.41,0,0,0-.11-.57.75.75,0,0,0-.3-.37.7.7,0,0,0-.42-.13.67.67,0,0,0-.41.13.81.81,0,0,0-.29.38,1.4,1.4,0,0,0-.1.56Zm1.68,1.24v-.09a2.45,2.45,0,0,1-.34.32,1.39,1.39,0,0,1-.79.25,1.33,1.33,0,0,1-.57-.13,1.55,1.55,0,0,1-.45-.36,1.75,1.75,0,0,1-.29-.56,2.26,2.26,0,0,1-.1-.69,1.78,1.78,0,0,1,.39-1.23,1.3,1.3,0,0,1,1-.44,1.43,1.43,0,0,1,.62.12,1.75,1.75,0,0,1,.5.39v-1.24a.64.64,0,0,1,.1-.4.38.38,0,0,1,.3-.13.38.38,0,0,1,.3.12.55.55,0,0,1,.1.36v3.71a.49.49,0,0,1-.11.36.37.37,0,0,1-.29.12.36.36,0,0,1-.29-.13.52.52,0,0,1-.11-.35Z" transform="translate(-9.72 -7.74)" fill="#fff"/><path d="M63.51,206.3h1.55a1.07,1.07,0,0,0-.23-.65.73.73,0,0,0-.54-.21.68.68,0,0,0-.53.22,1.11,1.11,0,0,0-.25.64Zm1.67.48H63.51a1.12,1.12,0,0,0,.12.5.81.81,0,0,0,.3.33.88.88,0,0,0,.42.11,1.2,1.2,0,0,0,.28,0,.82.82,0,0,0,.25-.12,1.12,1.12,0,0,0,.22-.16l.26-.23a.24.24,0,0,1,.18-.06.38.38,0,0,1,.22.07.28.28,0,0,1,.08.2.54.54,0,0,1-.09.27,1.09,1.09,0,0,1-.28.29,1.32,1.32,0,0,1-.46.23,2,2,0,0,1-1.91-.36,1.7,1.7,0,0,1-.46-1.26,2.22,2.22,0,0,1,.11-.69,1.63,1.63,0,0,1,.33-.54,1.4,1.4,0,0,1,.53-.35,2,2,0,0,1,.7-.12,1.66,1.66,0,0,1,.86.2,1.4,1.4,0,0,1,.54.54,1.38,1.38,0,0,1,.18.67c0,.21-.06.35-.19.41a1,1,0,0,1-.52.1Z" transform="translate(-9.72 -7.74)" fill="#fff"/><path d="M69.07,207.18a1,1,0,0,1-.17.59,1,1,0,0,1-.51.38,2.37,2.37,0,0,1-.81.13,2.07,2.07,0,0,1-.79-.14,1.17,1.17,0,0,1-.49-.35.69.69,0,0,1-.15-.41.31.31,0,0,1,.1-.24.32.32,0,0,1,.25-.1.28.28,0,0,1,.21.07.7.7,0,0,1,.13.18.92.92,0,0,0,.32.33.91.91,0,0,0,.5.11.69.69,0,0,0,.42-.11.3.3,0,0,0,.16-.26.34.34,0,0,0-.17-.32,2,2,0,0,0-.56-.19,4.73,4.73,0,0,1-.72-.23,1.2,1.2,0,0,1-.44-.31.72.72,0,0,1-.17-.48.86.86,0,0,1,.16-.48,1,1,0,0,1,.45-.35,1.74,1.74,0,0,1,.72-.14,2.25,2.25,0,0,1,.6.07,1.62,1.62,0,0,1,.44.18,1.1,1.1,0,0,1,.27.25.54.54,0,0,1,.09.27.3.3,0,0,1-.1.24.41.41,0,0,1-.28.09.32.32,0,0,1-.22-.07.89.89,0,0,1-.21-.22,1.07,1.07,0,0,0-.23-.2.74.74,0,0,0-.36-.07.74.74,0,0,0-.38.09.29.29,0,0,0-.16.25.26.26,0,0,0,.11.21.81.81,0,0,0,.31.14l.52.14a2.56,2.56,0,0,1,.65.23.92.92,0,0,1,.38.31.65.65,0,0,1,.13.41Z" transform="translate(-9.72 -7.74)" fill="#fff"/><path d="M70.37,205.34v2.43a.54.54,0,0,1-.12.38.44.44,0,0,1-.31.13.42.42,0,0,1-.31-.13.56.56,0,0,1-.11-.38v-2.41a.51.51,0,0,1,.11-.37.39.39,0,0,1,.31-.13.4.4,0,0,1,.31.13.48.48,0,0,1,.12.35Zm-.42-.87a.49.49,0,0,1-.31-.11.38.38,0,0,1-.12-.3.41.41,0,0,1,.12-.3.49.49,0,0,1,.31-.11.43.43,0,0,1,.29.1.37.37,0,0,1,.13.31.35.35,0,0,1-.13.3.44.44,0,0,1-.29.11Z" transform="translate(-9.72 -7.74)" fill="#fff"/><path d="M71.64,206.54a1.14,1.14,0,0,0,.22.77.74.74,0,0,0,.59.27.82.82,0,0,0,.71-.46,1.13,1.13,0,0,0,.12-.54,1.25,1.25,0,0,0-.23-.8.76.76,0,0,0-.61-.29.7.7,0,0,0-.58.27,1.23,1.23,0,0,0-.22.78Zm2.47-1.06v2.44a2.53,2.53,0,0,1-.09.72,1.18,1.18,0,0,1-.29.5,1.24,1.24,0,0,1-.53.29,3,3,0,0,1-.8.09,2.39,2.39,0,0,1-.79-.12,1.28,1.28,0,0,1-.53-.31.56.56,0,0,1-.19-.4.33.33,0,0,1,.1-.25.39.39,0,0,1,.26-.09.41.41,0,0,1,.33.16c0,.05.09.11.14.17l.16.14a.63.63,0,0,0,.22.09,1.23,1.23,0,0,0,.29,0,1.16,1.16,0,0,0,.51-.09.55.55,0,0,0,.26-.26,1,1,0,0,0,.08-.35c0-.12,0-.32,0-.59a1.22,1.22,0,0,1-1.07.55,1.37,1.37,0,0,1-.75-.21,1.42,1.42,0,0,1-.49-.61,2.24,2.24,0,0,1-.17-.89,2.13,2.13,0,0,1,.1-.69,1.31,1.31,0,0,1,1.31-.93,1.32,1.32,0,0,1,.62.13,1.66,1.66,0,0,1,.5.43v-.11a.51.51,0,0,1,.11-.34.36.36,0,0,1,.28-.12A.34.34,0,0,1,74,205a1.12,1.12,0,0,1,.08.46Z" transform="translate(-9.72 -7.74)" fill="#fff"/><path d="M75.47,205.33v.1A1.4,1.4,0,0,1,76,205a1.34,1.34,0,0,1,.61-.14,1.23,1.23,0,0,1,.61.15.84.84,0,0,1,.39.4.85.85,0,0,1,.11.34,2.81,2.81,0,0,1,0,.45v1.57a.54.54,0,0,1-.12.38.42.42,0,0,1-.3.13.42.42,0,0,1-.31-.13.56.56,0,0,1-.12-.38v-1.4a1.37,1.37,0,0,0-.12-.64.49.49,0,0,0-.47-.22.74.74,0,0,0-.41.13.8.8,0,0,0-.28.37,2.72,2.72,0,0,0-.06.7v1.06a.54.54,0,0,1-.12.38.42.42,0,0,1-.31.13.4.4,0,0,1-.3-.13.56.56,0,0,1-.12-.38v-2.43a.53.53,0,0,1,.1-.36.37.37,0,0,1,.29-.12.46.46,0,0,1,.21,0,.36.36,0,0,1,.14.16.53.53,0,0,1,.06.26Z" transform="translate(-9.72 -7.74)" fill="#fff"/><path d="M79,206.3h1.55a1,1,0,0,0-.24-.65.7.7,0,0,0-.54-.21.67.67,0,0,0-.52.22,1,1,0,0,0-.25.64Zm1.67.48H79a1,1,0,0,0,.12.5.81.81,0,0,0,.3.33.88.88,0,0,0,.42.11,1.2,1.2,0,0,0,.28,0,1,1,0,0,0,.25-.12,1.06,1.06,0,0,0,.21-.16,2.26,2.26,0,0,0,.26-.23.29.29,0,0,1,.19-.06.33.33,0,0,1,.21.07.25.25,0,0,1,.09.2.48.48,0,0,1-.1.27A1,1,0,0,1,81,208a1.32,1.32,0,0,1-.46.23,2,2,0,0,1-1.91-.36,1.7,1.7,0,0,1-.46-1.26,2.22,2.22,0,0,1,.11-.69,1.63,1.63,0,0,1,.33-.54,1.4,1.4,0,0,1,.53-.35,2,2,0,0,1,.7-.12,1.66,1.66,0,0,1,.86.2,1.4,1.4,0,0,1,.54.54,1.38,1.38,0,0,1,.18.67.42.42,0,0,1-.19.41,1,1,0,0,1-.52.1Z" transform="translate(-9.72 -7.74)" fill="#fff"/><path d="M82.46,206.56a1.39,1.39,0,0,0,.11.58.75.75,0,0,0,.3.37.73.73,0,0,0,.41.12.75.75,0,0,0,.41-.12.81.81,0,0,0,.3-.35,1.5,1.5,0,0,0,.11-.6A1.41,1.41,0,0,0,84,206a.82.82,0,0,0-.31-.37.67.67,0,0,0-.41-.13.68.68,0,0,0-.42.13.88.88,0,0,0-.29.38,1.6,1.6,0,0,0-.1.56Zm1.68,1.24v-.09a1.68,1.68,0,0,1-.34.32,1.22,1.22,0,0,1-.36.18,1.18,1.18,0,0,1-.43.07,1.32,1.32,0,0,1-.56-.13,1.47,1.47,0,0,1-.46-.36,1.73,1.73,0,0,1-.28-.56,2.26,2.26,0,0,1-.1-.69,1.78,1.78,0,0,1,.39-1.23,1.28,1.28,0,0,1,1-.44,1.46,1.46,0,0,1,.62.12,1.71,1.71,0,0,1,.49.39v-1.24a.64.64,0,0,1,.11-.4.38.38,0,0,1,.3-.13.38.38,0,0,1,.3.12.62.62,0,0,1,.1.36v3.71a.53.53,0,0,1-.11.36.38.38,0,0,1-.29.12.35.35,0,0,1-.29-.13.48.48,0,0,1-.12-.35Z" transform="translate(-9.72 -7.74)" fill="#fff"/><path d="M87.67,206.59a1.13,1.13,0,0,0,.24.77.76.76,0,0,0,.61.27.68.68,0,0,0,.55-.28,1.15,1.15,0,0,0,.24-.79,1.61,1.61,0,0,0-.1-.57.81.81,0,0,0-.28-.37.63.63,0,0,0-.41-.13.76.76,0,0,0-.44.13,1,1,0,0,0-.3.38,1.48,1.48,0,0,0-.11.59Zm0-2.5v1.29a2,2,0,0,1,.49-.38,1.38,1.38,0,0,1,1.87.64,2.22,2.22,0,0,1,.17.9,2.63,2.63,0,0,1-.09.7,1.92,1.92,0,0,1-.29.55,1.47,1.47,0,0,1-.46.36,1.38,1.38,0,0,1-.59.13,1.5,1.5,0,0,1-.37-.05,1.1,1.1,0,0,1-.29-.12l-.21-.15-.23-.25v.09a.55.55,0,0,1-.11.36.41.41,0,0,1-.3.12.38.38,0,0,1-.29-.12.55.55,0,0,1-.1-.36v-3.67a.63.63,0,0,1,.1-.39.38.38,0,0,1,.29-.13.36.36,0,0,1,.31.13.52.52,0,0,1,.1.35Z" transform="translate(-9.72 -7.74)" fill="#fff"/><path d="M91.27,208.38l.08-.19-1-2.6a.87.87,0,0,1-.1-.33.33.33,0,0,1,.06-.19.31.31,0,0,1,.15-.15.42.42,0,0,1,.21-.06.35.35,0,0,1,.28.12,1,1,0,0,1,.16.33l.72,2.07.69-1.93a2.18,2.18,0,0,1,.15-.36.46.46,0,0,1,.13-.18.41.41,0,0,1,.21,0,.41.41,0,0,1,.19,0,.38.38,0,0,1,.14.14.41.41,0,0,1,0,.18l0,.17c0,.07,0,.14-.06.22l-1.12,2.86a3.11,3.11,0,0,1-.28.6,1,1,0,0,1-.36.33,1.33,1.33,0,0,1-.61.11,1.41,1.41,0,0,1-.57-.08.3.3,0,0,1-.19-.29.27.27,0,0,1,.09-.22.41.41,0,0,1,.27-.08l.13,0,.14,0a.46.46,0,0,0,.23,0,.32.32,0,0,0,.16-.15,3.09,3.09,0,0,0,.15-.31Z" transform="translate(-9.72 -7.74)" fill="#fff"/><path d="M103.64,204.93h.21v-.25a1.6,1.6,0,0,1,.1-.63.61.61,0,0,1,.34-.33,1.69,1.69,0,0,1,.67-.11c.5,0,.74.12.74.36a.27.27,0,0,1-.07.2.25.25,0,0,1-.19.08.66.66,0,0,1-.17,0h-.21c-.15,0-.25,0-.29.13a.81.81,0,0,0-.07.38v.2h.21c.32,0,.49.1.49.29a.28.28,0,0,1-.13.27,1.15,1.15,0,0,1-.36,0h-.21v2.23a.56.56,0,0,1-.12.38.42.42,0,0,1-.31.13.42.42,0,0,1-.3-.13.56.56,0,0,1-.12-.38v-2.23h-.24a.48.48,0,0,1-.29-.08.28.28,0,0,1-.11-.22c0-.21.15-.31.43-.31" transform="translate(-9.72 -7.74)" fill="#fff"/><path d="M106.44,207.06v.71a.59.59,0,0,1-.12.38.46.46,0,0,1-.31.13.42.42,0,0,1-.31-.13.54.54,0,0,1-.12-.38v-2.34q0-.57.42-.57a.33.33,0,0,1,.3.13.7.7,0,0,1,.11.39,1.66,1.66,0,0,1,.31-.39.65.65,0,0,1,.43-.13,1.12,1.12,0,0,1,.53.13.4.4,0,0,1,.25.35.35.35,0,0,1-.11.26.37.37,0,0,1-.23.1l-.23-.06a1,1,0,0,0-.32-.06.49.49,0,0,0-.3.1.7.7,0,0,0-.19.29,2.55,2.55,0,0,0-.09.45c0,.18,0,.39,0,.64" transform="translate(-9.72 -7.74)" fill="#fff"/><path d="M108.69,206.3h1.55a1.07,1.07,0,0,0-.23-.65.73.73,0,0,0-.54-.21.68.68,0,0,0-.53.22,1.08,1.08,0,0,0-.25.64m1.67.48h-1.67a1.12,1.12,0,0,0,.12.5,1,1,0,0,0,.3.33.88.88,0,0,0,.42.11.82.82,0,0,0,.28,0,.8.8,0,0,0,.25-.11l.22-.16.26-.23a.24.24,0,0,1,.18-.06.38.38,0,0,1,.22.07.28.28,0,0,1,.08.2.54.54,0,0,1-.09.27,1,1,0,0,1-.28.29,1.32,1.32,0,0,1-.46.23,2,2,0,0,1-1.91-.36,1.7,1.7,0,0,1-.46-1.26,2.22,2.22,0,0,1,.11-.69,1.79,1.79,0,0,1,.33-.55,1.46,1.46,0,0,1,.53-.34,1.78,1.78,0,0,1,.7-.13,1.66,1.66,0,0,1,.86.21,1.4,1.4,0,0,1,.54.54,1.38,1.38,0,0,1,.18.67c0,.21-.06.35-.19.41a1.17,1.17,0,0,1-.52.1" transform="translate(-9.72 -7.74)" fill="#fff"/><path d="M112.25,206.3h1.54a1.07,1.07,0,0,0-.23-.65.73.73,0,0,0-.54-.21.69.69,0,0,0-.53.22,1,1,0,0,0-.24.64m1.67.48h-1.67a1.12,1.12,0,0,0,.11.5.9.9,0,0,0,.31.33.81.81,0,0,0,.41.11,1,1,0,0,0,.53-.15l.22-.16.26-.23a.27.27,0,0,1,.19-.06.38.38,0,0,1,.21.07.28.28,0,0,1,.08.2.54.54,0,0,1-.09.27,1,1,0,0,1-.27.29,1.53,1.53,0,0,1-.46.23,1.83,1.83,0,0,1-.64.1,1.74,1.74,0,0,1-1.28-.46,1.7,1.7,0,0,1-.46-1.26,2,2,0,0,1,.12-.69,1.59,1.59,0,0,1,.32-.55,1.42,1.42,0,0,1,.54-.34,1.75,1.75,0,0,1,.7-.13,1.69,1.69,0,0,1,.86.21,1.44,1.44,0,0,1,.53.54,1.38,1.38,0,0,1,.18.67c0,.21-.06.35-.18.41a1.23,1.23,0,0,1-.52.1" transform="translate(-9.72 -7.74)" fill="#fff"/><path d="M117.46,206.55a1.42,1.42,0,0,0-.1-.57.81.81,0,0,0-.29-.36.66.66,0,0,0-.4-.13.77.77,0,0,0-.6.27,1.21,1.21,0,0,0-.24.81,1.17,1.17,0,0,0,.24.78.78.78,0,0,0,.6.28.69.69,0,0,0,.39-.12.91.91,0,0,0,.29-.37,1.32,1.32,0,0,0,.11-.59m-1.67-1.22v.1a1.79,1.79,0,0,1,.5-.43,1.25,1.25,0,0,1,.59-.13,1.31,1.31,0,0,1,.72.2,1.36,1.36,0,0,1,.53.58,2.14,2.14,0,0,1,.19.91,2.36,2.36,0,0,1-.11.72,1.59,1.59,0,0,1-.31.54,1.34,1.34,0,0,1-.45.34,1.39,1.39,0,0,1-.57.12,1.19,1.19,0,0,1-.62-.15,1.8,1.8,0,0,1-.47-.42V209c0,.37-.14.55-.41.55s-.27,0-.32-.14A.92.92,0,0,1,115,209v-3.62a.53.53,0,0,1,.11-.36.36.36,0,0,1,.29-.12.37.37,0,0,1,.29.12.48.48,0,0,1,.12.35" transform="translate(-9.72 -7.74)" fill="#fff"/><path d="M119.6,205.34v2.43a.54.54,0,0,1-.12.38.42.42,0,0,1-.31.13.46.46,0,0,1-.31-.13.61.61,0,0,1-.11-.38v-2.41a.56.56,0,0,1,.11-.37.42.42,0,0,1,.31-.13.39.39,0,0,1,.31.13.48.48,0,0,1,.12.35m-.42-.87a.44.44,0,0,1-.3-.11.35.35,0,0,1-.13-.3.38.38,0,0,1,.13-.3.48.48,0,0,1,.3-.11.43.43,0,0,1,.29.1.36.36,0,0,1,.13.31.38.38,0,0,1-.12.3.46.46,0,0,1-.3.11" transform="translate(-9.72 -7.74)" fill="#fff"/><path d="M122.35,207.89l-.75-1.22-.46.43v.67a.5.5,0,0,1-.13.38.45.45,0,0,1-.3.13.42.42,0,0,1-.31-.13.59.59,0,0,1-.11-.38v-3.59a.7.7,0,0,1,.11-.42.36.36,0,0,1,.31-.15.39.39,0,0,1,.31.13.57.57,0,0,1,.12.39v2l1-1a2.42,2.42,0,0,1,.27-.25.35.35,0,0,1,.23-.07.38.38,0,0,1,.27.1.33.33,0,0,1,.1.25c0,.12-.11.29-.34.49l-.46.41.88,1.36c.06.1.11.17.14.23a.42.42,0,0,1,0,.15.45.45,0,0,1-.11.31.4.4,0,0,1-.29.12.3.3,0,0,1-.24-.09,1.52,1.52,0,0,1-.24-.3" transform="translate(-9.72 -7.74)" fill="#fff"/><path d="M124.21,208.28a.44.44,0,0,1-.33-.13.4.4,0,0,1-.14-.34.42.42,0,0,1,.13-.32.45.45,0,0,1,.33-.14.51.51,0,0,1,.34.13.45.45,0,0,1,.14.33.43.43,0,0,1-.14.34.44.44,0,0,1-.33.13" transform="translate(-9.72 -7.74)" fill="#fff"/><path d="M128.46,207.24a.65.65,0,0,1-.1.33,1.12,1.12,0,0,1-.29.34,1.34,1.34,0,0,1-.49.26,2,2,0,0,1-.67.1,1.67,1.67,0,0,1-1.24-.45,1.71,1.71,0,0,1-.44-1.22,2,2,0,0,1,.2-.91,1.47,1.47,0,0,1,.59-.62,1.92,1.92,0,0,1,.92-.22,2,2,0,0,1,.61.1,1.62,1.62,0,0,1,.47.25,1,1,0,0,1,.29.32.6.6,0,0,1,.1.32.31.31,0,0,1-.11.25.4.4,0,0,1-.27.11.24.24,0,0,1-.18-.06.67.67,0,0,1-.16-.17,1.12,1.12,0,0,0-.33-.35.73.73,0,0,0-.43-.12.75.75,0,0,0-.61.29,1.21,1.21,0,0,0-.23.8,1.44,1.44,0,0,0,.06.43.84.84,0,0,0,.17.34.62.62,0,0,0,.27.21.82.82,0,0,0,.35.08.78.78,0,0,0,.44-.12,1,1,0,0,0,.32-.36,1.05,1.05,0,0,1,.17-.22.36.36,0,0,1,.23-.08.3.3,0,0,1,.25.12.38.38,0,0,1,.11.25" transform="translate(-9.72 -7.74)" fill="#fff"/><path d="M131.29,206.57a1.27,1.27,0,0,0-.23-.8.77.77,0,0,0-.62-.29.72.72,0,0,0-.44.13.78.78,0,0,0-.3.38,1.67,1.67,0,0,0-.1.58,1.42,1.42,0,0,0,.1.57.88.88,0,0,0,.29.38.77.77,0,0,0,.45.13.74.74,0,0,0,.62-.29,1.24,1.24,0,0,0,.23-.79m.85,0a2.17,2.17,0,0,1-.11.69,1.57,1.57,0,0,1-.35.55,1.68,1.68,0,0,1-.54.35,1.94,1.94,0,0,1-.7.12,1.75,1.75,0,0,1-.7-.13,1.44,1.44,0,0,1-.53-.35,1.4,1.4,0,0,1-.35-.54,1.92,1.92,0,0,1-.12-.69,2,2,0,0,1,.12-.7,1.66,1.66,0,0,1,.34-.54,1.53,1.53,0,0,1,.54-.35,2,2,0,0,1,.7-.12,1.94,1.94,0,0,1,.7.12,1.84,1.84,0,0,1,.55.35,1.64,1.64,0,0,1,.34.55,2.17,2.17,0,0,1,.11.69" transform="translate(-9.72 -7.74)" fill="#fff"/><path d="M135.4,206.63v1.12a.6.6,0,0,1-.12.4.46.46,0,0,1-.64,0,.6.6,0,0,1-.12-.4v-1.34a3.48,3.48,0,0,0,0-.5.45.45,0,0,0-.12-.28.36.36,0,0,0-.3-.11.56.56,0,0,0-.56.28,2.13,2.13,0,0,0-.13.81v1.14a.57.57,0,0,1-.12.39.42.42,0,0,1-.32.14.43.43,0,0,1-.32-.14.57.57,0,0,1-.12-.39v-2.41a.57.57,0,0,1,.11-.36.38.38,0,0,1,.29-.12.41.41,0,0,1,.3.12.39.39,0,0,1,.11.31v.08a1.52,1.52,0,0,1,.48-.38,1.31,1.31,0,0,1,.56-.12,1.22,1.22,0,0,1,.56.12,1.06,1.06,0,0,1,.38.38,1.46,1.46,0,0,1,.46-.38,1.26,1.26,0,0,1,.55-.12,1.31,1.31,0,0,1,.61.13.87.87,0,0,1,.37.39,1.8,1.8,0,0,1,.11.72v1.64a.6.6,0,0,1-.12.4.44.44,0,0,1-.32.13.42.42,0,0,1-.32-.14.57.57,0,0,1-.12-.39v-1.41a2.51,2.51,0,0,0,0-.44.42.42,0,0,0-.12-.27.4.4,0,0,0-.32-.11.55.55,0,0,0-.32.1.58.58,0,0,0-.23.26,1.88,1.88,0,0,0-.1.75" transform="translate(-9.72 -7.74)" fill="#fff"/><polygon points="85.93 198.63 85.93 198.62 85.93 198.63 85.93 198.63" fill="#fff"/><path d="M95.69,206.63h0c0-.07,0-.15,0-.22s0,.15,0,.22Z" transform="translate(-9.72 -7.74)" fill="#fff"/><path d="M96,207.41h0Z" transform="translate(-9.72 -7.74)" fill="#fff"/><path d="M96,207.36l0,0,0,0Z" transform="translate(-9.72 -7.74)" fill="#fff"/><path d="M95.77,206.93a2.5,2.5,0,0,0,.15.38,2.5,2.5,0,0,1-.15-.38Z" transform="translate(-9.72 -7.74)" fill="#fff"/><path d="M99,203.15a2.77,2.77,0,0,1,.42,0l0-.25a2.75,2.75,0,0,0-.89-.07l0-.13a.36.36,0,0,0,.28-.34.35.35,0,0,0-.35-.34.34.34,0,0,0-.35.34.36.36,0,0,0,.27.34l0,.15a3.68,3.68,0,0,0-1,.27l.08.23a5,5,0,0,1,.86-.2l.6,0Z" transform="translate(-9.72 -7.74)" fill="#fff"/><path d="M96,204.4h0l0,0-.1-.08-.17-.11a2.54,2.54,0,0,0-.46.66l0,0a.33.33,0,0,0-.25-.09h0a.18.18,0,0,1-.14-.05.21.21,0,0,0,0-.13.22.22,0,0,0-.23-.22.22.22,0,0,0-.22.22.21.21,0,0,0,.22.21h.06a.34.34,0,0,0,.27.11.14.14,0,0,1,.14,0,.18.18,0,0,1,0,.13h0a2.34,2.34,0,0,0-.1.86h.35a2.3,2.3,0,0,1,.12-.72,3,3,0,0,1,.4-.77Z" transform="translate(-9.72 -7.74)" fill="#fff"/><path d="M102,203.43a.22.22,0,0,0-.23.22.43.43,0,0,0,0,0,.36.36,0,0,0-.11.27.17.17,0,0,1,0,.14l-.1,0a2.57,2.57,0,0,0-.57-.57l-.25.26a4.06,4.06,0,0,1,.56.64,4.58,4.58,0,0,1,.38.66L102,205a6.33,6.33,0,0,0-.37-.71.27.27,0,0,0,.1-.06.3.3,0,0,0,.1-.25.2.2,0,0,1,0-.14.22.22,0,0,0,.14.05.22.22,0,0,0,0-.44Z" transform="translate(-9.72 -7.74)" fill="#fff"/><path d="M101.11,206.41a7.38,7.38,0,0,1-2.23.66,9.12,9.12,0,0,1-1.13.07,9.47,9.47,0,0,1-1.18-.07,6.9,6.9,0,0,1-.8-.14,2.5,2.5,0,0,0,.15.38h0l0,0,0,0h0a2.3,2.3,0,0,0,.35.51,1.89,1.89,0,0,0,1,.59h0a3.82,3.82,0,0,0,1.08.14,4.85,4.85,0,0,0,1.87-.38,3.07,3.07,0,0,0,1.07-.86,2.55,2.55,0,0,0,.35-.75,2.44,2.44,0,0,0,0-.59,4.39,4.39,0,0,1-.62.34Z" transform="translate(-9.72 -7.74)" fill="#fff"/><path d="M97.44,204.27a.91.91,0,1,1-.92.91.91.91,0,0,1,.92-.91Zm2.72,0a.57.57,0,1,1,0,1.13.57.57,0,1,1,0-1.13Zm-4,.21a3,3,0,0,0-.38.73,3.07,3.07,0,0,0-.11.8h0c0,.11,0,.22,0,.33h0v0c0,.07,0,.15,0,.22a8.91,8.91,0,0,0,3.15.17,7.37,7.37,0,0,0,2.14-.63,3.86,3.86,0,0,0,.7-.4,4.6,4.6,0,0,0-.58-1.18A2.4,2.4,0,0,0,99,203.33a4.81,4.81,0,0,0-.58,0,3.34,3.34,0,0,0-.83.19,3.14,3.14,0,0,0-1.16.66h0a2.56,2.56,0,0,0-.25.27Z" transform="translate(-9.72 -7.74)" fill="#fff"/></svg>