<svg id="Capa_1" data-name="Capa 1" xmlns="http://www.w3.org/2000/svg" viewBox="0 0 242.47 198.92"><path d="M252,31.19V218.75c-2.25,5.47-6.83,5.44-11.79,5.44q-110.67-.13-221.35-.07c-.94,0-1.89,0-2.84,0-2.82,0-4.37-1.72-5.51-4a10.9,10.9,0,0,1-1-5q0-90.33,0-180.66c0-6.41,2.68-9.16,9-9.15q111.39.21,222.77,0C246.27,25.27,250.3,25.82,252,31.19ZM38.57,124.51q0,22.72,0,45.45c0,4.12.92,7.67,5.31,9.49,2.7,1.12,4.08.52,4.07-2.33q0-5.56,0-11.13a24.55,24.55,0,0,1,1.35-9.28c2.06-5.19,5.42-9.31,11.27-9.69,6.83-.44,13.72-.21,20.58-.06a10.65,10.65,0,0,1,7.07,3.35c4.23,4,5.55,9.1,5.56,14.69,0,4.34,0,8.68-.05,13,0,1.32.22,2,1.8,1.87a7.75,7.75,0,0,0,6-3.34c1.5-2.15,1.68-4.54,1.68-7q0-45,0-89.95a13.72,13.72,0,0,0-.72-4.89,7.62,7.62,0,0,0-7-5.15c-16.41.12-32.82,0-49.23.06a6.17,6.17,0,0,0-3.73.9c-3.32,2.25-4,5.56-4,9.23Q38.59,102.14,38.57,124.51ZM174,92.35c13.73,0,27.46-.11,41.18.06,4.19.06,6.76-2.54,7.46-6.49a30.78,30.78,0,0,0,.09-9.19,8,8,0,0,0-8.22-7.18q-40.47.27-80.94,0a8.2,8.2,0,0,0-8.07,7.83c-.07,2.37-.07,4.74,0,7.1.07,4.06,2.74,8.1,8.07,8C147.05,92.14,160.54,92.35,174,92.35Zm.27,64.8c-13.72,0-27.44.11-41.16-.07-4.56-.05-7.12,2.76-7.53,6.95a45.54,45.54,0,0,0,0,8.5c.41,4.56,3.35,7.24,7.07,7.26q41.52.19,83,0a6.41,6.41,0,0,0,5.56-3.17c2.55-4.08,1.89-8.51,1.41-12.84-.55-4.85-3.42-6.74-7.67-6.69C201.43,157.24,187.86,157.15,174.3,157.15ZM174,135.87c13.72,0,27.45,0,41.17,0,3.75,0,6-1.13,7.2-5.29a24.16,24.16,0,0,0,.05-11.71c-.76-3.5-4.25-5.81-7.89-5.8q-40.45.15-80.92,0c-3.06,0-6.83,2.27-7.67,5.51s-.51,6.43-.44,9.63c.1,4.34,2.81,7.79,7.8,7.71C146.91,135.73,160.47,135.87,174,135.87Z" transform="translate(-9.49 -25.26)" fill="#a1a1a1"/><path d="M70.85,136.89c-6.74-.7-12.14-3.67-15.75-9.57-5.94-9.74-6.21-19.87-1.5-30a20.48,20.48,0,0,1,11-10.72,15,15,0,0,1,10.46-.8,19.85,19.85,0,0,1,11.56,9c5.86,10,6.18,20.27,1.18,30.52-2.51,5.14-6.41,9.23-12.4,10.71C73.9,136.31,72.48,137,70.85,136.89Z" transform="translate(-9.49 -25.26)" fill="#a1a1a1"/></svg>