<svg id="Capa_1" data-name="Capa 1" xmlns="http://www.w3.org/2000/svg" viewBox="0 0 214.92 208.78"><path d="M192.08,168.55l-1.51.36-4.19-12.12L179.54,159c-.93-7.25-3.19-27.06-1.73-37.14,1.06-7.3-6.65-22.91-15.86-35.2C156.64,77.7,152,71,144.5,67.08l-9.87-59a3.52,3.52,0,0,0-4-2.85L3,25.9a3.47,3.47,0,0,0-2.91,4v0h0l12.84,76.7a3.51,3.51,0,0,0,4,2.86l62.65-10.2a7.27,7.27,0,0,0,4.24,3,22.5,22.5,0,0,0,5,1.06c-3.76,10.89-5.21,22.51,5,21.24.54-.07,1-.16,1.56-.25-1,9.67.45,18.29,8.94,15.71a19.22,19.22,0,0,0,10.49-7.35c2.53,11.93,6.94,24.71,15,26.82a3.82,3.82,0,0,0,.46.21c6.16,2.4,10.29,8.26,12,11l-6.06,1.91,1.92,8.66-5,1.18,3.73,26.31h72.42l-17.11-40.21Z" transform="translate(0 0.02)" fill="#162da3"/><path d="M132.64,73.7s-27.74,19.4-31.11,31.76-6.3,33.22,6.3,29.39,13.84-14.94,17.27-22.74,16.63-14.37,16.63-14.37,10.11,15.35,19.79,12,17.15-10,6.21-18.93S145.89,65.9,132.64,73.7Z" transform="translate(0 0.02)" fill="#e4a78f"/><path d="M133.46,61.79S101.88,76.6,96.29,88.53s-12.41,32.53,1,30.85,16.7-12.71,21.58-20,19.42-11.66,19.42-11.66,7.48,17.31,17.88,15.62,19.2-7.08,9.73-18.08S148.29,56.26,133.46,61.79Z" transform="translate(0 0.02)" fill="#f8ba93"/><path d="M145.29,60.64s-35-.15-45.33,8.19-25.49,24-12.63,28.26S108,92.77,115.6,88.28s22.64-2.21,22.64-2.21-.9,18.79,9.21,21.71,31.88-3.27,24.39-15.64C162.46,76.64,157.53,65.43,145.29,60.64Z" transform="translate(0 0.02)" fill="#f8ba93"/><path d="M96.88,117.45c8.49-2.5,10.61-13.35,9.39-18.41C105.38,95.4,102,87.93,102,81.46a24.39,24.39,0,0,0-5.66,7.07c-3.69,7.8-7.84,19.32-6.5,25.88,1.22,2.35,3.36,4.16,7.14,3Z" transform="translate(0 0.02)" fill="#f8ba93"/><path d="M165.9,85.26c-9.47-11-17.61-29-32.44-23.47,0,0-20.62,9.67-31.51,19.67.06,6.47,3.43,13.94,4.32,17.58,1.22,5.06-.9,15.91-9.39,18.41-3.78,1.12-5.92-.69-7.14-3,.7,3.47,2.94,5.55,7.59,5,13.46-1.68,16.7-12.71,21.58-20s19.38-11.73,19.38-11.73,7.48,17.31,17.88,15.62S175.37,96.26,165.9,85.26Z" transform="translate(0 0.02)" fill="#f8ba93"/><path d="M116.81,117.26s8.76,34.12,16.93,37.3S146.5,167,146.5,167l36.92-10.48s-3.91-27.4-2.1-39.88c2-13.19-24.7-53.39-37.25-52.39S103.66,93.33,116.81,117.26Z" transform="translate(0 0.02)" fill="#fac59d"/><path d="M145.29,60.64s-35-.15-45.33,8.19c-9.3,7.43-22.43,20.85-15.8,26.59a86.89,86.89,0,0,0,9.13,0c-.47,1.24-.93,2.51-1.35,3.78a18.76,18.76,0,0,0,8.1-.12,5.75,5.75,0,0,1,4.33.63,20.51,20.51,0,0,0-2.84,5.74c-1.8,6.6-3.47,15.61-2.73,22,.49-2.64,1.61-6,4.75-7.43,5.37-2.37,7.79-5.1,9.44-3.36s.52,8,3.23,13.3c5.11-5.09,6.44-12.32,8.88-17.87,2.62-5.93,14.68-13.31,14.68-13.31S157.49,65.43,145.29,60.64Z" transform="translate(0 0.02)" fill="#e4a78f"/><path d="M128.64,82.26s11.63-23.78,16-24.12,7.77,20.6,7,24.06c-.48,2.12-4,3.31-6,4.42-3,1.7-5.63,2.88-4.06,4.17,2.91,2.41,4.73,3.29,4.2,4.36-.7,1.44-2.83.3-3.77,3.79s2.53,7.26,5.69,12.5-7.6-2.89-10.91-9S128.64,82.26,128.64,82.26Z" transform="translate(0 0.02)" fill="#e4a78f"/><path d="M175.94,98.2c.26,7.71,0,18.4-2.72,24.74-4.64,10.76-2.42,26.09-9.64,31.59-4.78,3.65-13.45,6.32-19.37,8.78A29.61,29.61,0,0,1,146.5,167l36.92-10.48s-3.91-27.4-2.1-39.88c.61-4.15-1.64-11-5.38-18.42Z" transform="translate(0 0.02)" fill="#e6b591"/><polygon points="139.63 167.45 189.89 151.63 195.15 166.8 142.44 180.16 139.63 167.45 139.63 167.45" fill="#fff"/><path d="M195.14,166.78l-3.51-10.14c-.73,2.6-2.7,6-8,7.33-7.28,1.84-32.51,8.51-42.33,11.11l1.11,5.06,52.71-13.36Z" transform="translate(0 0.02)" fill="#e0e0e0"/><polygon points="136.53 177.29 195.59 163.39 214.92 208.78 140.99 208.78 136.53 177.29 136.53 177.29" fill="#0089fc"/><path d="M150.68,184.32a4.34,4.34,0,0,1-3.56,5h0a4.39,4.39,0,0,1-5.05-3.57,4.34,4.34,0,0,1,3.54-5h.08a4.39,4.39,0,0,1,5,3.56Z" transform="translate(0 0.02)" fill="#ffd663"/><path d="M151,79.61h0l-9.69-57.86h0L138.14,2.9A3.51,3.51,0,0,0,134.81,0a4.21,4.21,0,0,0-.71,0L6.47,20.69h0a3.46,3.46,0,0,0-2.88,3.14v.87L6.72,43.55h0l9.71,57.86a3.51,3.51,0,0,0,4,2.85L148.08,83.61h0a3.47,3.47,0,0,0,2.88-4Z" transform="translate(0 0.02)" fill="#f1e7e7"/><path d="M28.89,31.71a3.86,3.86,0,0,1-1.44.5,2.66,2.66,0,0,1-3.2-2v-.34a2.8,2.8,0,0,1,2.14-3.33l.31-.05a3.17,3.17,0,0,1,1.37,0L28,27.1a2.88,2.88,0,0,0-1.17,0A2.09,2.09,0,0,0,25,29.36a2.2,2.2,0,0,0,.07.37,2.07,2.07,0,0,0,2.18,1.93,2,2,0,0,0,.35,0,3.16,3.16,0,0,0,1.14-.43Z" transform="translate(0 0.02)" fill="#fff"/><path d="M32.29,28.68,30.11,29l.33,2,2.43-.39.1.6-3.15.51-.92-5.49,3-.49.1.6-2.3.37L30,28.49l2.18-.36Z" transform="translate(0 0.02)" fill="#fff"/><path d="M33,25.62a10,10,0,0,1,1.53-.36,3.27,3.27,0,0,1,2.39.32A2.55,2.55,0,0,1,38,27.43a2.93,2.93,0,0,1-.45,2.28,3.54,3.54,0,0,1-2.31,1.2c-.52.08-1,.13-1.33.15Zm1.55,4.77a4.53,4.53,0,0,0,.74-.08,2.17,2.17,0,0,0,2.08-2.24,2.64,2.64,0,0,0-.08-.49,2,2,0,0,0-2.13-1.86,1.78,1.78,0,0,0-.51.1,4,4,0,0,0-.83.21Z" transform="translate(0 0.02)" fill="#fff"/><path d="M39.29,24.53l.55,3.27c.2,1.24.85,1.67,1.6,1.55s1.27-.76,1.07-2L42,24.08l.74-.12.53,3.22c.29,1.7-.5,2.54-1.72,2.74s-2.12-.32-2.41-2l-.55-3.25Z" transform="translate(0 0.02)" fill="#fff"/><path d="M44,23.77l.72-.11.83,4.93,2.39-.39.11.6-3.13.5Z" transform="translate(0 0.02)" fill="#fff"/><path d="M49.42,26.78l-.29,1.83-.75.12,1-5.83.88-.15L53.1,28l-.78.13-.89-1.64Zm1.75-.86-.82-1.5c-.18-.34-.32-.66-.46-1h0a5.58,5.58,0,0,1-.12,1l-.28,1.69Z" transform="translate(0 0.02)" fill="#fff"/><path d="M58.29,21.53a9.91,9.91,0,0,1,1.52-.37,3.32,3.32,0,0,1,2.39.32,2.59,2.59,0,0,1,1.09,1.86,2.93,2.93,0,0,1-.45,2.28,3.52,3.52,0,0,1-2.35,1.2,11.82,11.82,0,0,1-1.32.14Zm1.55,4.73a6,6,0,0,0,.74-.08,2.17,2.17,0,0,0,2.08-2.24,2.64,2.64,0,0,0-.08-.49,2,2,0,0,0-2.12-1.87,2.3,2.3,0,0,0-.51.1,4,4,0,0,0-.84.21Z" transform="translate(0 0.02)" fill="#fff"/><path d="M67.23,23,65,23.37l.33,2L67.82,25l.1.6-3.16.51-.93-5.53,3-.49.1.6L64.62,21l.29,1.75,2.18-.35Z" transform="translate(0 0.02)" fill="#fff"/><path d="M76.36,18.75l.93,5.51-.72.11-.93-5.53Z" transform="translate(0 0.02)" fill="#fff"/><path d="M77.64,18.61a11.52,11.52,0,0,1,1.52-.35,3.32,3.32,0,0,1,2.39.32,2.59,2.59,0,0,1,1.12,1.86,2.93,2.93,0,0,1-.45,2.28,3.52,3.52,0,0,1-2.35,1.2,11.82,11.82,0,0,1-1.32.14Zm1.54,4.78a6,6,0,0,0,.74-.08A2.17,2.17,0,0,0,82,21.07a2.64,2.64,0,0,0-.08-.49,2,2,0,0,0-2.12-1.87,2.3,2.3,0,0,0-.51.1,4,4,0,0,0-.84.21Z" transform="translate(0 0.02)" fill="#fff"/><path d="M86.57,20.11l-2.18.35.34,2,2.43-.39.1.6-3.16.51-.92-5.53,3-.49.1.6L84,18.13l.32,1.74,2.19-.35Z" transform="translate(0 0.02)" fill="#fff"/><path d="M88.2,22.51,87.29,17l.79-.13,2.27,2.51A15.62,15.62,0,0,1,91.65,21h0c-.19-.73-.32-1.4-.46-2.26l-.39-2.31.68-.11.93,5.52-.74.12-2.25-2.51c-.48-.54-.94-1.1-1.36-1.68h0c.16.69.29,1.36.44,2.27l.39,2.37Z" transform="translate(0 0.02)" fill="#fff"/><path d="M115.8,112.39S95.8,79.68,106,73s18-2.66,21.66,5.36,14.65,25.26,17.78,31.76S163,139.26,143.29,152,117.92,128.07,115.8,112.39Z" transform="translate(0 0.02)" fill="#fac59d"/><path d="M125.63,81.76s-4.86-12.35-14.34-8.43c-7.92,3.27-4,15.91-1.48,17,1.92.82,16.81-5.22,15.86-8.58Z" transform="translate(0 0.02)" fill="#fff3f3"/><path d="M100,99.09a18.76,18.76,0,0,1-8.1.12c-3.48,10.56-4.51,21.41,5.39,20.17a19.91,19.91,0,0,0,13-6.69c-.18-8-4.68-15-10.27-13.6Z" transform="translate(0 0.02)" fill="#f8ba93"/><path d="M113,116.68c-1.65-1.74-4.07,1-9.44,3.36-3.14,1.39-4.26,4.79-4.75,7.43.66,5.58,3.16,9.16,9,7.38a19.7,19.7,0,0,0,8.39-4.87c-2.71-5.25-1.71-11.69-3.23-13.3Z" transform="translate(0 0.02)" fill="#f8ba93"/><path d="M96.29,95.14a73.82,73.82,0,0,1-12.17.28,9,9,0,0,0,3.17,1.67c7.12,2.34,12.67.77,17.51-1.86-2.54-2.6-4.73-.61-8.47-.09Z" transform="translate(0 0.02)" fill="#f8ba93"/><path d="M50,198.82a1.28,1.28,0,0,0,.11.58.82.82,0,0,0,.29.37.76.76,0,0,0,.82,0,.69.69,0,0,0,.3-.35,1.52,1.52,0,0,0,.11-.6,1.38,1.38,0,0,0-.11-.57.78.78,0,0,0-.3-.37.7.7,0,0,0-.42-.13.67.67,0,0,0-.41.13.9.9,0,0,0-.29.38,1.35,1.35,0,0,0-.1.56Zm1.68,1.24V200a2.58,2.58,0,0,1-.34.32,1.4,1.4,0,0,1-.79.25,1.25,1.25,0,0,1-.57-.13,1.55,1.55,0,0,1-.45-.36,1.76,1.76,0,0,1-.29-.56,2.3,2.3,0,0,1-.1-.69,1.78,1.78,0,0,1,.39-1.23,1.28,1.28,0,0,1,1-.44,1.32,1.32,0,0,1,.62.12,1.73,1.73,0,0,1,.5.39V196.4a.63.63,0,0,1,.1-.4.39.39,0,0,1,.3-.13.39.39,0,0,1,.3.12.58.58,0,0,1,.1.36v3.71a.52.52,0,0,1-.11.36.35.35,0,0,1-.29.12.36.36,0,0,1-.29-.13.49.49,0,0,1-.11-.35Z" transform="translate(0 0.02)" fill="#fff"/><path d="M53.8,198.56h1.55a1,1,0,0,0-.23-.65.72.72,0,0,0-.54-.21.66.66,0,0,0-.53.22A1.09,1.09,0,0,0,53.8,198.56Zm1.67.48H53.8a1.08,1.08,0,0,0,.12.5.8.8,0,0,0,.3.33.88.88,0,0,0,.42.11,1.31,1.31,0,0,0,.28,0,1.15,1.15,0,0,0,.25-.12,1.12,1.12,0,0,0,.22-.16l.26-.23a.23.23,0,0,1,.18-.06.34.34,0,0,1,.22.07.3.3,0,0,1,.08.2A.6.6,0,0,1,56,200a1.1,1.1,0,0,1-.28.29,1.33,1.33,0,0,1-.46.23,2,2,0,0,1-1.91-.36,1.68,1.68,0,0,1-.46-1.26,2.31,2.31,0,0,1,.11-.69,1.67,1.67,0,0,1,.33-.54,1.33,1.33,0,0,1,.53-.35,2.06,2.06,0,0,1,.7-.12,1.7,1.7,0,0,1,.86.2,1.4,1.4,0,0,1,.54.54,1.29,1.29,0,0,1,.18.67c0,.21-.06.35-.19.41a1,1,0,0,1-.52.1Z" transform="translate(0 0.02)" fill="#fff"/><path d="M59.36,199.44a1,1,0,0,1-.17.59,1,1,0,0,1-.51.38,2.45,2.45,0,0,1-.81.13,1.94,1.94,0,0,1-.79-.14,1.14,1.14,0,0,1-.49-.35.69.69,0,0,1-.15-.41.31.31,0,0,1,.1-.24.3.3,0,0,1,.25-.1.27.27,0,0,1,.21.07.59.59,0,0,1,.13.18.92.92,0,0,0,.32.33,1,1,0,0,0,.5.11.68.68,0,0,0,.42-.11.29.29,0,0,0,.16-.26.35.35,0,0,0-.17-.32,2.31,2.31,0,0,0-.56-.19,4.32,4.32,0,0,1-.72-.23,1.14,1.14,0,0,1-.44-.31.74.74,0,0,1-.17-.48.84.84,0,0,1,.16-.48,1,1,0,0,1,.45-.35,1.63,1.63,0,0,1,.72-.14,2.46,2.46,0,0,1,.6.07,1.85,1.85,0,0,1,.44.18,1.27,1.27,0,0,1,.27.25.62.62,0,0,1,.09.27.31.31,0,0,1-.1.24.41.41,0,0,1-.28.09.34.34,0,0,1-.22-.07,1.1,1.1,0,0,1-.21-.22,1.1,1.1,0,0,0-.23-.2.75.75,0,0,0-.36-.07.85.85,0,0,0-.38.09.26.26,0,0,0-.16.25.26.26,0,0,0,.11.21.73.73,0,0,0,.31.14l.52.14a2.52,2.52,0,0,1,.65.23,1,1,0,0,1,.38.31.67.67,0,0,1,.13.41Z" transform="translate(0 0.02)" fill="#fff"/><path d="M60.66,197.6V200a.53.53,0,0,1-.12.38.43.43,0,0,1-.61,0h0a.57.57,0,0,1-.11-.38v-2.41a.56.56,0,0,1,.11-.37.37.37,0,0,1,.31-.13.4.4,0,0,1,.31.13A.44.44,0,0,1,60.66,197.6Zm-.42-.87a.51.51,0,0,1-.31-.11.39.39,0,0,1-.12-.3.42.42,0,0,1,.12-.3.51.51,0,0,1,.31-.11.43.43,0,0,1,.29.1.37.37,0,0,1,.13.31.34.34,0,0,1-.13.3.44.44,0,0,1-.29.11Z" transform="translate(0 0.02)" fill="#fff"/><path d="M61.93,198.8a1.18,1.18,0,0,0,.22.77.71.71,0,0,0,.59.27.83.83,0,0,0,.71-.46,1.12,1.12,0,0,0,.12-.54,1.2,1.2,0,0,0-.23-.8.76.76,0,0,0-.61-.29.69.69,0,0,0-.58.27,1.21,1.21,0,0,0-.22.78Zm2.47-1.06v2.44a3,3,0,0,1-.09.72,1.1,1.1,0,0,1-.29.5,1.2,1.2,0,0,1-.53.29,2.69,2.69,0,0,1-.8.09,2.66,2.66,0,0,1-.79-.12,1.35,1.35,0,0,1-.53-.31.56.56,0,0,1-.19-.4.35.35,0,0,1,.1-.25.41.41,0,0,1,.26-.09.42.42,0,0,1,.33.16l.14.17.16.14a.85.85,0,0,0,.22.09,1.41,1.41,0,0,0,.29,0,1.13,1.13,0,0,0,.51-.09.55.55,0,0,0,.26-.26,1.05,1.05,0,0,0,.08-.35v-.59a1.22,1.22,0,0,1-1.07.55,1.42,1.42,0,0,1-.75-.21,1.34,1.34,0,0,1-.49-.61,2.24,2.24,0,0,1-.17-.89,2.3,2.3,0,0,1,.1-.69,1.3,1.3,0,0,1,1.31-.93,1.33,1.33,0,0,1,.62.13,1.87,1.87,0,0,1,.5.43v-.11a.47.47,0,0,1,.11-.34.36.36,0,0,1,.28-.12.35.35,0,0,1,.32.17,1,1,0,0,1,.08.46Z" transform="translate(0 0.02)" fill="#fff"/><path d="M65.76,197.59v.1a1.48,1.48,0,0,1,.53-.43,1.43,1.43,0,0,1,.61-.14,1.31,1.31,0,0,1,.61.15.84.84,0,0,1,.39.4A.76.76,0,0,1,68,198a3.38,3.38,0,0,1,0,.45V200a.53.53,0,0,1-.12.38.43.43,0,0,1-.3.13.44.44,0,0,1-.31-.13.53.53,0,0,1-.12-.38v-1.4A1.4,1.4,0,0,0,67,198a.48.48,0,0,0-.47-.22.73.73,0,0,0-.69.5,2.76,2.76,0,0,0-.06.7v1a.53.53,0,0,1-.12.38.44.44,0,0,1-.31.13.43.43,0,0,1-.3-.13.56.56,0,0,1,0-.38v-2.4a.51.51,0,0,1,.1-.36.35.35,0,0,1,.29-.12.37.37,0,0,1,.21,0,.36.36,0,0,1,.14.16.58.58,0,0,1,.06.26Z" transform="translate(0 0.02)" fill="#fff"/><path d="M69.29,198.56h1.55a1,1,0,0,0-.24-.65.72.72,0,0,0-.54-.21.64.64,0,0,0-.52.22A1,1,0,0,0,69.29,198.56ZM71,199H69.29a1.08,1.08,0,0,0,.12.5.8.8,0,0,0,.3.33.88.88,0,0,0,.42.11h.28a1.15,1.15,0,0,0,.25-.12.83.83,0,0,0,.21-.16l.26-.23a.33.33,0,0,1,.19-.06.31.31,0,0,1,.21.07.25.25,0,0,1,.09.2.45.45,0,0,1-.1.27,1,1,0,0,1-.23.31,1.33,1.33,0,0,1-.46.23,2,2,0,0,1-1.91-.36,1.68,1.68,0,0,1-.46-1.26,2.31,2.31,0,0,1,.11-.69,1.67,1.67,0,0,1,.33-.54,1.33,1.33,0,0,1,.53-.35,2.06,2.06,0,0,1,.7-.12,1.7,1.7,0,0,1,.86.2,1.4,1.4,0,0,1,.54.54,1.29,1.29,0,0,1,.18.67.42.42,0,0,1-.19.41,1,1,0,0,1-.52.1Z" transform="translate(0 0.02)" fill="#fff"/><path d="M72.75,198.82a1.28,1.28,0,0,0,.11.58.78.78,0,0,0,.3.37.76.76,0,0,0,.82,0,.92.92,0,0,0,.3-.35,1.52,1.52,0,0,0,.11-.6,1.35,1.35,0,0,0-.1-.56.8.8,0,0,0-.31-.37.67.67,0,0,0-.41-.13.7.7,0,0,0-.42.13.9.9,0,0,0-.29.38,1.54,1.54,0,0,0-.1.56Zm1.68,1.24V200a1.72,1.72,0,0,1-.34.32,1.22,1.22,0,0,1-.36.18,1.25,1.25,0,0,1-.43.07,1.39,1.39,0,0,1-.56-.13,1.47,1.47,0,0,1-.46-.36,1.73,1.73,0,0,1-.28-.56,2.3,2.3,0,0,1-.1-.69,1.78,1.78,0,0,1,.39-1.23,1.28,1.28,0,0,1,1-.44,1.67,1.67,0,0,1,.62.12,1.69,1.69,0,0,1,.49.39V196.4a.64.64,0,0,1,.11-.4.39.39,0,0,1,.3-.13.39.39,0,0,1,.3.12.65.65,0,0,1,.1.36v3.71a.52.52,0,0,1-.11.36.38.38,0,0,1-.29.12.33.33,0,0,1-.29-.13.44.44,0,0,1-.12-.35Z" transform="translate(0 0.02)" fill="#fff"/><path d="M78,198.85a1.13,1.13,0,0,0,.24.77.76.76,0,0,0,.61.27.67.67,0,0,0,.55-.28,1.13,1.13,0,0,0,.24-.79,1.59,1.59,0,0,0-.1-.57.74.74,0,0,0-.28-.37.61.61,0,0,0-.41-.13.76.76,0,0,0-.44.13,1,1,0,0,0-.3.38,1.51,1.51,0,0,0-.11.59Zm0-2.5v1.29a2,2,0,0,1,.49-.38,1.38,1.38,0,0,1,1.85.61h0a2.12,2.12,0,0,1,.17.9,2.74,2.74,0,0,1-.09.7,1.93,1.93,0,0,1-.29.55,1.47,1.47,0,0,1-.46.36,1.34,1.34,0,0,1-.59.13,2.29,2.29,0,0,1-.37,0,1.48,1.48,0,0,1-.29-.12l-.21-.15L78,200v.09a.52.52,0,0,1-.11.36.42.42,0,0,1-.3.12.38.38,0,0,1-.29-.12.58.58,0,0,1-.1-.36v-3.67a.59.59,0,0,1,.1-.39.39.39,0,0,1,.29-.13.37.37,0,0,1,.31.13A.53.53,0,0,1,78,196.35Z" transform="translate(0 0.02)" fill="#fff"/><path d="M81.56,200.64l.08-.19-1-2.6a.75.75,0,0,1-.1-.33.33.33,0,0,1,.06-.19.28.28,0,0,1,.15-.15.39.39,0,0,1,.21-.06.36.36,0,0,1,.28.12,1,1,0,0,1,.16.33l.72,2.07.69-1.93a2.75,2.75,0,0,1,.15-.36.46.46,0,0,1,.13-.18.38.38,0,0,1,.21,0h.19a.32.32,0,0,1,.14.14.54.54,0,0,1,0,.18v.17a.29.29,0,0,1-.06.22l-1.12,2.86a3.28,3.28,0,0,1-.28.6,1,1,0,0,1-.36.33,1.41,1.41,0,0,1-.61.11,1.39,1.39,0,0,1-.57-.08.3.3,0,0,1-.19-.29.27.27,0,0,1,.09-.22.38.38,0,0,1,.27-.08h.27a.45.45,0,0,0,.23,0,.29.29,0,0,0,.16-.15,1.77,1.77,0,0,0,.15-.31Z" transform="translate(0 0.02)" fill="#fff"/><path d="M93.93,197.19h.21v-.25a1.52,1.52,0,0,1,.1-.63.61.61,0,0,1,.34-.33,1.69,1.69,0,0,1,.67-.11c.5,0,.74.12.74.36a.31.31,0,0,1-.07.2.27.27,0,0,1-.19.08.49.49,0,0,1-.17,0h-.21c-.15,0-.25,0-.29.13a.87.87,0,0,0,0,.36v.2h.21c.32,0,.49.1.49.29a.29.29,0,0,1-.13.27,1.09,1.09,0,0,1-.36,0H95V200a.53.53,0,0,1-.12.38.44.44,0,0,1-.31.13.43.43,0,0,1-.3-.13.53.53,0,0,1-.12-.38v-2.23h-.24a.43.43,0,0,1-.29-.08.27.27,0,0,1-.11-.22c0-.21.15-.31.43-.31" transform="translate(0 0.02)" fill="#fff"/><path d="M96.73,199.32V200a.58.58,0,0,1-.12.38.43.43,0,0,1-.61,0h0a.53.53,0,0,1-.12-.38v-2.34q0-.57.42-.57a.34.34,0,0,1,.3.13.77.77,0,0,1,.11.39,1.66,1.66,0,0,1,.31-.39.66.66,0,0,1,.43-.13,1.09,1.09,0,0,1,.53.13.42.42,0,0,1,.25.35.36.36,0,0,1-.11.26.37.37,0,0,1-.23.1l-.23-.06a.87.87,0,0,0-.32-.06.47.47,0,0,0-.3.1.7.7,0,0,0-.19.29,3.58,3.58,0,0,0-.09.45v.64" transform="translate(0 0.02)" fill="#fff"/><path d="M99,198.56h1.55a1,1,0,0,0-.23-.65.72.72,0,0,0-.54-.21.66.66,0,0,0-.53.22,1.09,1.09,0,0,0-.25.64m1.67.48H99a1.08,1.08,0,0,0,.12.5,1,1,0,0,0,.3.33.88.88,0,0,0,.42.11.66.66,0,0,0,.28,0,.8.8,0,0,0,.25-.11l.22-.16.26-.23a.23.23,0,0,1,.18-.06.34.34,0,0,1,.22.07.3.3,0,0,1,.08.2.62.62,0,0,1-.09.27,1.1,1.1,0,0,1-.28.29,1.33,1.33,0,0,1-.46.23,2,2,0,0,1-1.91-.36,1.68,1.68,0,0,1-.46-1.26,2.31,2.31,0,0,1,.11-.69,1.92,1.92,0,0,1,.33-.55,1.42,1.42,0,0,1,.53-.34,1.85,1.85,0,0,1,.7-.13,1.61,1.61,0,0,1,.86.21,1.4,1.4,0,0,1,.54.54,1.29,1.29,0,0,1,.18.67c0,.21-.06.35-.19.41a1.15,1.15,0,0,1-.52.1" transform="translate(0 0.02)" fill="#fff"/><path d="M102.54,198.56h1.54a1,1,0,0,0-.23-.65.72.72,0,0,0-.54-.21.66.66,0,0,0-.53.22,1,1,0,0,0-.24.64m1.67.48h-1.67a1.25,1.25,0,0,0,.11.5.89.89,0,0,0,.31.33.84.84,0,0,0,.41.11,1,1,0,0,0,.53-.15l.22-.16.26-.23a.33.33,0,0,1,.19-.06.38.38,0,0,1,.21.07.3.3,0,0,1,.08.2.62.62,0,0,1-.09.27,1.06,1.06,0,0,1-.27.29,1.53,1.53,0,0,1-.46.23,2,2,0,0,1-1.92-.36,1.68,1.68,0,0,1-.46-1.26,2,2,0,0,1,.12-.69,1.69,1.69,0,0,1,.32-.55,1.46,1.46,0,0,1,.54-.34,1.68,1.68,0,0,1,.7-.13,1.61,1.61,0,0,1,.86.21,1.52,1.52,0,0,1,.53.54,1.29,1.29,0,0,1,.18.67c0,.21-.06.35-.18.41a1.3,1.3,0,0,1-.52.1" transform="translate(0 0.02)" fill="#fff"/><path d="M107.75,198.81a1.4,1.4,0,0,0-.1-.57.79.79,0,0,0-.29-.36.66.66,0,0,0-.4-.13.77.77,0,0,0-.6.27,1.23,1.23,0,0,0-.24.81,1.15,1.15,0,0,0,.24.78.78.78,0,0,0,.6.28.67.67,0,0,0,.39-.12.82.82,0,0,0,.29-.37,1.35,1.35,0,0,0,.11-.59m-1.67-1.22v.1a1.87,1.87,0,0,1,.5-.43,1.21,1.21,0,0,1,.59-.13,1.39,1.39,0,0,1,1.25.78,2.22,2.22,0,0,1,.19.91,2.51,2.51,0,0,1-.11.72,1.62,1.62,0,0,1-.31.54,1.37,1.37,0,0,1-.45.34,1.39,1.39,0,0,1-.57.12,1.12,1.12,0,0,1-.62-.15,1.71,1.71,0,0,1-.47-.42v1.29c0,.37-.14.55-.41.55s-.27,0-.32-.14a1,1,0,0,1-.06-.41v-3.62a.52.52,0,0,1,.11-.36.35.35,0,0,1,.29-.12.38.38,0,0,1,.29.12.44.44,0,0,1,.12.35" transform="translate(0 0.02)" fill="#fff"/><path d="M109.89,197.6V200a.53.53,0,0,1-.12.38.43.43,0,0,1-.61,0h0A.59.59,0,0,1,109,200v-2.41a.56.56,0,0,1,.11-.37.44.44,0,0,1,.31-.13.37.37,0,0,1,.31.13.44.44,0,0,1,.12.35m-.42-.87a.46.46,0,0,1-.3-.11.34.34,0,0,1-.13-.3.39.39,0,0,1,.13-.3.46.46,0,0,1,.3-.11.43.43,0,0,1,.29.1.37.37,0,0,1,.13.31.39.39,0,0,1-.12.3.46.46,0,0,1-.3.11" transform="translate(0 0.02)" fill="#fff"/><path d="M112.64,200.15l-.75-1.22-.46.43V200a.52.52,0,0,1-.13.38.43.43,0,0,1-.3.13.44.44,0,0,1-.31-.13.57.57,0,0,1-.11-.38v-3.59a.68.68,0,0,1,.11-.42.35.35,0,0,1,.31-.15.37.37,0,0,1,.31.13.55.55,0,0,1,.12.39v2l1-1a2.16,2.16,0,0,1,.27-.25.39.39,0,0,1,.23-.07.38.38,0,0,1,.27.1.35.35,0,0,1,.1.25c0,.12-.11.29-.34.49l-.46.41.88,1.36c.06.1.11.17.14.23a.38.38,0,0,1,0,.15.51.51,0,0,1-.11.31.4.4,0,0,1-.29.12.3.3,0,0,1-.24-.09,1.76,1.76,0,0,1-.24-.3" transform="translate(0 0.02)" fill="#fff"/><path d="M114.5,200.54a.46.46,0,0,1-.33-.13.4.4,0,0,1-.14-.34.42.42,0,0,1,.13-.32.47.47,0,0,1,.33-.14.51.51,0,0,1,.34.13.47.47,0,0,1,.14.33.4.4,0,0,1-.14.34.46.46,0,0,1-.33.13" transform="translate(0 0.02)" fill="#fff"/><path d="M118.75,199.5a.64.64,0,0,1-.1.33,1.05,1.05,0,0,1-.29.34,1.29,1.29,0,0,1-.49.26,1.91,1.91,0,0,1-.67.1,1.66,1.66,0,0,1-1.24-.45,1.7,1.7,0,0,1-.44-1.22,1.89,1.89,0,0,1,.2-.91,1.47,1.47,0,0,1,.59-.62,2,2,0,0,1,.92-.22,2.11,2.11,0,0,1,.61.1,1.63,1.63,0,0,1,.47.25.89.89,0,0,1,.29.32.63.63,0,0,1,.1.32.33.33,0,0,1-.11.25.39.39,0,0,1-.27.11.23.23,0,0,1-.18-.06.65.65,0,0,1-.16-.17,1.1,1.1,0,0,0-.33-.35.8.8,0,0,0-1,.17,1.2,1.2,0,0,0-.23.8,1.54,1.54,0,0,0,.06.43.91.91,0,0,0,.17.34.62.62,0,0,0,.27.21.84.84,0,0,0,.79,0,1.22,1.22,0,0,0,.32-.36,1.18,1.18,0,0,1,.17-.22.4.4,0,0,1,.23-.08.3.3,0,0,1,.25.12.36.36,0,0,1,.11.25" transform="translate(0 0.02)" fill="#fff"/><path d="M121.58,198.83a1.27,1.27,0,0,0-.23-.8.75.75,0,0,0-.62-.29.69.69,0,0,0-.44.13.76.76,0,0,0-.3.38,1.65,1.65,0,0,0-.1.58,1.4,1.4,0,0,0,.1.57.9.9,0,0,0,.29.38.79.79,0,0,0,.45.13.75.75,0,0,0,.62-.29,1.24,1.24,0,0,0,.23-.79m.85,0a2.31,2.31,0,0,1-.11.69,1.77,1.77,0,0,1-.35.55,1.73,1.73,0,0,1-.54.35,2.06,2.06,0,0,1-.7.12,1.68,1.68,0,0,1-.7-.13,1.58,1.58,0,0,1-.53-.35,1.3,1.3,0,0,1-.35-.54,2,2,0,0,1-.12-.69,2.06,2.06,0,0,1,.12-.7,1.7,1.7,0,0,1,.34-.54,1.62,1.62,0,0,1,.54-.35,2.1,2.1,0,0,1,1.4,0,1.77,1.77,0,0,1,.55.35,1.74,1.74,0,0,1,.34.55,2.31,2.31,0,0,1,.11.69" transform="translate(0 0.02)" fill="#fff"/><path d="M125.69,198.89V200a.58.58,0,0,1-.12.4.47.47,0,0,1-.64,0,.58.58,0,0,1-.12-.4v-1.34a4.17,4.17,0,0,0,0-.5.5.5,0,0,0-.12-.28.38.38,0,0,0-.3-.11.55.55,0,0,0-.56.28,2,2,0,0,0-.13.81V200a.55.55,0,0,1-.12.39.44.44,0,0,1-.62,0l0,0a.55.55,0,0,1-.12-.39v-2.4a.52.52,0,0,1,.11-.36.38.38,0,0,1,.29-.12.42.42,0,0,1,.3.12.4.4,0,0,1,.11.31v.08a1.47,1.47,0,0,1,.48-.38,1.38,1.38,0,0,1,.56-.12,1.2,1.2,0,0,1,.56.12,1,1,0,0,1,.38.38,1.3,1.3,0,0,1,.46-.38,1.38,1.38,0,0,1,1.16,0,.87.87,0,0,1,.37.39,1.75,1.75,0,0,1,.11.72V200a.58.58,0,0,1-.12.4.42.42,0,0,1-.32.13.43.43,0,0,1-.32-.14.55.55,0,0,1-.12-.39v-1.4a3.23,3.23,0,0,0,0-.44.45.45,0,0,0-.12-.27.42.42,0,0,0-.32-.11.53.53,0,0,0-.32.1.58.58,0,0,0-.23.26,1.92,1.92,0,0,0-.1.75" transform="translate(0 0.02)" fill="#fff"/><polygon points="85.94 198.65 85.94 198.64 85.94 198.65 85.94 198.65" fill="#fff"/><path d="M86,198.89Z" transform="translate(0 0.02)" fill="#fff"/><path d="M86.29,199.67" transform="translate(0 0.02)" fill="#fff"/><path d="M86.29,199.62" transform="translate(0 0.02)" fill="#fff"/><path d="M86.06,199.19a2.5,2.5,0,0,0,.15.38A2.5,2.5,0,0,1,86.06,199.19Z" transform="translate(0 0.02)" fill="#fff"/><path d="M89.29,195.41h.42v-.25a2.66,2.66,0,0,0-.89-.07V195a.37.37,0,0,0,.28-.34.35.35,0,0,0-.35-.34.34.34,0,0,0-.35.33h0a.35.35,0,0,0,.27.34v.15a3.53,3.53,0,0,0-1,.27l.08.23a5.11,5.11,0,0,1,.86-.2h.68Z" transform="translate(0 0.02)" fill="#fff"/><path d="M86.29,196.66h0l-.1-.08-.17-.11a2.52,2.52,0,0,0-.46.66h0a.34.34,0,0,0-.25-.09h0a.17.17,0,0,1-.14,0,.29.29,0,0,0,0-.13.22.22,0,0,0-.22-.22h0a.22.22,0,0,0-.22.22h0a.21.21,0,0,0,.21.21H85a.32.32,0,0,0,.27.11.12.12,0,0,1,.14,0,.15.15,0,0,1,0,.13h0a2.28,2.28,0,0,0-.1.86h.35a2.22,2.22,0,0,1,.12-.72,3.32,3.32,0,0,1,.4-.77Z" transform="translate(0 0.02)" fill="#fff"/><path d="M92.29,195.69a.22.22,0,0,0-.23.21h0a.39.39,0,0,0-.11.27.17.17,0,0,1,0,.14h-.1a2.57,2.57,0,0,0-.57-.57L91,196a3.78,3.78,0,0,1,.56.64,5.38,5.38,0,0,1,.38.66l.32-.05a6.85,6.85,0,0,0-.37-.71.21.21,0,0,0,.1-.06.3.3,0,0,0,.1-.25.17.17,0,0,1,0-.14.24.24,0,0,0,.14,0,.22.22,0,0,0,0-.44h.05Z" transform="translate(0 0.02)" fill="#fff"/><path d="M91.4,198.67a7.26,7.26,0,0,1-2.23.66,8.47,8.47,0,0,1-1.13.07,9.34,9.34,0,0,1-1.18-.07,7,7,0,0,1-.8-.14,2.5,2.5,0,0,0,.15.38h0a2,2,0,0,0,.35.51,1.87,1.87,0,0,0,1,.59h0a3.56,3.56,0,0,0,1.08.14,4.81,4.81,0,0,0,1.87-.38,3.09,3.09,0,0,0,1.07-.86,2.57,2.57,0,0,0,.35-.75,2.91,2.91,0,0,0,0-.59,5.36,5.36,0,0,1-.62.34Z" transform="translate(0 0.02)" fill="#fff"/><path d="M87.73,196.53a.91.91,0,1,1-.92.91.91.91,0,0,1,.92-.91Zm2.72,0a.57.57,0,0,1,.15,1.13h-.15a.57.57,0,0,1-.65-.48.58.58,0,0,1,.49-.65h.16Zm-4,.21a2.82,2.82,0,0,0-.38.73,3.09,3.09,0,0,0-.11.8h0v.33h0v.22a9,9,0,0,0,3.15.17,7.32,7.32,0,0,0,2.14-.63,3.73,3.73,0,0,0,.7-.4,4.63,4.63,0,0,0-.58-1.18,2.4,2.4,0,0,0-2.08-1.19h-.58a3.44,3.44,0,0,0-.83.19,3,3,0,0,0-1.16.66h0a2.16,2.16,0,0,0-.25.27Z" transform="translate(0 0.02)" fill="#fff"/><path d="M56,15.66l5.83-.95a20.63,20.63,0,0,0,9.22-1.51l3-.47c3.34,1.08,6.31,0,9.23-1.51l1.94-.31a1.81,1.81,0,0,0,2.56,0,1.9,1.9,0,0,0,.35-.49l2-.32c.39.4.72.35,1-.16l1-.16c1.28,1.15,1.94,2.17.09,3.64-.49.39-.33,2,.93,2.61.42,2.18,0,4.39.72,6.65.88,2.71.58,5.77.78,8.67-.8.12-1.17-.39-1.49-.91A3.06,3.06,0,0,0,89.61,29a3.21,3.21,0,0,0-1-1.91c-1.6-1.63-4.23-2.51-4.32-5.32,0-.73-1.42-1.23-2.33-1.33s-.83,1-.74,1.37c.59,2.39-1.21,3.94-2.31,5.73l-1,.16a14.54,14.54,0,0,0-3.76-3.9c-1.09-.8-2.2-1.5-2-3.13.2-2.1-1.35-2.34-3.16-2-2.53.29-5.06.64-7.34-.78-.49-.3-1.19-.12-1,.42.68,1.64-.54,1.67-1.66,2a3,3,0,0,0-2.3,2.63c-1.57,1.52-1.85,3.46-2.13,5.38l-.46.07c-.21-.58,0-1.5-1-1.57-1.69-.12-2.1-1.48-2.61-2.46-1.46-2.77-2-2.92-4.17-.62-.45-2.35-3-2.36-4.56-3.41,2.67-1.59,5.35-3,8.65-3.31C52.34,16.79,54.38,16.87,56,15.66Z" transform="translate(0 0.02)" fill="#deedef"/><path d="M56,15.66c-1.65,1.21-3.69,1.13-5.55,1.29-3.3.29-6,1.72-8.65,3.31l-1.94.32a3.88,3.88,0,0,0-2.77,1.36c-1-1.21-1.5-.36-2.22.37-2.65,2.68-3,6.18-4.05,9.38-.63,2-1.16,1.87-2.48.84v-.67c-.08-1.65-.31-3.44-2-4.18-1.34-.6-2.45.73-3.48,1.56a4.54,4.54,0,0,1-2.44.91c.15-1.39,1.75-1.36,2.51-2.19,1.5-1.64,3.77-2.67,4.37-5a1.39,1.39,0,0,0-.58-1.76,1.26,1.26,0,0,0-1.69.4,6.94,6.94,0,0,1-4,2c-1.23.27-2.14.8-1.88,2.17-1-.62-2,.62-2.95,0a16.59,16.59,0,0,0-.48-2.2A1.15,1.15,0,0,0,14.35,23c-.55.07-1,.34-.91.88.34,2.12-1.16,1.46-2.29,1.35-.53-.06-1-.94-1.6,0C8,27.7,5.55,30,7,33.25c.33,1.43.44,2.92.78,4.32.71,3-.22,6.38,2.68,8.74.51.41,0,1.14-.18,1.71s-.68,1.12-.51,1.44c1.57,2.92.41,6.23,1.37,9.22l1,5.32q2.73,16.74,5.45,33.48c-1.49-.08-1.16-1.25-1.3-2-1.57-9.43-2.8-18.92-4.75-28.26-1-4.89-1.75-9.86-2.5-14.74-1.2-7.71-2.59-15.4-3.53-23.15-.34-2.84,2-5.4,5-6.28a68.32,68.32,0,0,1,11-1.86C29,20.27,36.61,19,44.09,17.48c3.19-.66,6.4-1.28,9.6-1.89C54.46,15.45,55.29,15.08,56,15.66Z" transform="translate(0 0.02)" fill="#eef2e9"/><path d="M83.23,11.22c-2.92,1.49-5.89,2.59-9.23,1.51A20.14,20.14,0,0,1,83.23,11.22Z" transform="translate(0 0.02)" fill="#eef2e9"/><path d="M71.08,13.2a20.63,20.63,0,0,1-9.22,1.51A20.07,20.07,0,0,1,71.08,13.2Z" transform="translate(0 0.02)" fill="#eef2e9"/><path d="M111.43,86.31l-.09-.5,3.9-.63.07.5A4,4,0,0,1,111.43,86.31Z" transform="translate(0 0.02)" fill="#f2f4ec"/><path d="M88.08,10.43a1.81,1.81,0,0,1-2.42.83,1.9,1.9,0,0,1-.49-.35A2.36,2.36,0,0,1,88.08,10.43Z" transform="translate(0 0.02)" fill="#eef2e9"/><path d="M146.65,64.08A1.53,1.53,0,0,1,146.2,62l.09-.12a1.39,1.39,0,0,1,.63,1.86A1.26,1.26,0,0,1,146.65,64.08Z" transform="translate(0 0.02)" fill="#f2f4ec"/><path d="M18.7,98.67l.74,1.24c-1.29.19-1.64-.56-1.77-1.52Z" transform="translate(0 0.02)" fill="#eef2e9"/><path d="M91,10c-.25.51-.58.56-1,.16C90.28,9.6,90.6,9.55,91,10Z" transform="translate(0 0.02)" fill="#eef2e9"/><path d="M41.8,62.85a18.21,18.21,0,0,1-9.08,1.33c-2.23-.29-4.57.42-6.86-.09-1-.22-2-.24-2.06-1.42v-.08c1-.29,2.2,0,3-1l.89.29c1-2.78,0-5.45-.31-8.16,5.9-.84,6-1,4.95-6.31a1.26,1.26,0,0,0,.45-2.23c-1.08-1-.85-2.38-1.44-3.42-1.08-1.89,1.16-3.53.24-5.41s.15-2.87,2.35-3a5,5,0,0,0,2.08-.5c1.81-1,2.73-.54,3.12,1.37.28,1.4.48,2.81.72,4.21a1,1,0,0,0,.08.47c.45,2.85.86,5.71,1.39,8.55a4.09,4.09,0,0,1-.5,3.2c-2,.26-2.11,1.86-2.53,3.18-.53,1.67.08,3.28.4,4.87.18.85-1.37,1.69,0,2.39,1,.51,2.07.08,3.1-.06.57-.07,1.13-.18,1.69-.27l.23,1.34C43,62.28,42.21,62.13,41.8,62.85Z" transform="translate(0 0.02)" fill="#f5f3cf"/><path d="M20.51,30.15A4.54,4.54,0,0,0,23,29.24c1-.83,2.14-2.16,3.48-1.56,1.65.74,1.88,2.53,2,4.18v.67l-1,.16c-.85-1.34-1.7-2.66-3.69-1.23-.91.49-3.22-.22-2.49,1.45.42,1,.84,2.54,2.25,3.16-.49.33-1,.88-.68,1.29,1.45,1.69,1,4.19,2.81,5.7h0c-2,0-1.5,2.17-2.78,3L26,45.73h0a.86.86,0,0,0,.94.77.51.51,0,0,0,.17,0h0c.3.87-.22,1.58-.59,2.32-.52,1.06-1.47,2.12.79,2.55.89.17,1.07,1.08-.16,1.53-.11-.58-.48-.82-1.12-.73l-2.6.53c-3.66.46-4.59,1.48-4.48,4.88,0,.88.56,1.74,0,2.63-1.16-.24-.26-2.16-1.9-2,0-1.42-.76-1.91-2.23-1.47a3,3,0,0,1,.52-2.61c1.11-1.46.7-2.9.26-4.3-.84-2.67,1.07-5.73-1.14-8.2-.07-.09.13-.43.25-.62.35-.53.15-.9-.16-1.41A13.11,13.11,0,0,1,13,33.2c1.35-1,2.17-2.86,4.6-1.79C18.25,31.68,20.2,31.87,20.51,30.15Zm-.21,7.12c.22-1.2-1-1.22-1.6-1.2-.85,0-.62.83-.79,1.46-.33,1.18.94,1.48.94,2.54a28.66,28.66,0,0,0,.28,4.9c.11.63.3,1.83,1.64,1.45,1-.27.9-.86.74-1.75C21.07,42.22,19.82,39.9,20.3,37.27Z" transform="translate(0 0.02)" fill="#f2f4ec"/><path d="M41.8,62.85c.41-.72,1.21-.57,1.87-.75l5.81-1c10.76-2,21.63-3.24,32.31-5.71,6.59-1.52,13.38-2.21,20.08-3.27-.13.41-.5.53-.89.64-1.71,0-3.15,1-4.79,1.2l-1.46.24-1.47.25-1.92.32-1,.17L79.21,56.76l-5.86,1-1,.17-10.7,1.74-1.44.25-1.47.24-2.9.46-.5.09-7.23,1.15Z" transform="translate(0 0.02)" fill="#d9d9d8"/><path d="M14.87,56.71c1.47-.44,2.22,0,2.23,1.47.1.6.19,1.19.29,1.79-2,.76-1.92,2.52-2.33,4h-3l-.87-5.35C13,59,14.56,58.86,14.87,56.71Z" transform="translate(0 0.02)" fill="#eff0de"/><path d="M19,60.18c.56-.89,0-1.75,0-2.63-.11-3.4.82-4.42,4.48-4.88.53,1.43,1.82,2.56,1.89,4.18a1,1,0,0,1-1.15-.57A2.27,2.27,0,0,0,21.29,55c-1,.45-1.48,1.46-.14,2.26.05,0,0,.33-.07.36-2.06.8-.41,1.63,0,2.35a27.83,27.83,0,0,0,1.82,2.75C18.82,63.37,19.44,63.52,19,60.18Z" transform="translate(0 0.02)" fill="#b7b7b2"/><path d="M22.87,62.76A29,29,0,0,1,21,60c-.38-.72-2-1.55,0-2.35.07,0,.12-.33.07-.36-1.34-.8-.88-1.81.14-2.26a2.28,2.28,0,0,1,2.93,1.24,1,1,0,0,0,1.15.57c.05.28.09.57.14.85-1.11.2-1.05,1.13-1,1.76a10.81,10.81,0,0,1-.67,3.13v.08Z" transform="translate(0 0.02)" fill="#d9d9d8"/><path d="M56,71c-.59.19-.94.52-.81,1.13-.77.78-1.45.41-1.94-.2s-1.34-.55-2.1-.49l-.24-1.35c1.39-.59,2.52-2.08,4.34-1.16C54.81,69.83,55.55,70.36,56,71Z" transform="translate(0 0.02)" fill="#878785"/><path d="M44.73,71.91c.11,1,.29,2.13-1.21,2.33-1.7.23-1.54-1.17-1.86-2.07s.31-1.5,1.24-1.7C44.22,70.18,44.52,71.06,44.73,71.91Z" transform="translate(0 0.02)" fill="#878785"/><path d="M54.78,86.78c-2.47.22-3.77-.18-2.31-2.56.15-.23.51-.49,0-.64s-1-.37-.28-.8c.51-.31,1.39-.2,1.3.43C53.29,84.62,54.69,85.4,54.78,86.78Z" transform="translate(0 0.02)" fill="#eef2e9"/><path d="M15.06,64c.41-1.52.32-3.28,2.33-4a4.19,4.19,0,0,0,.15.86C18.31,62.94,17.54,64,15.06,64Z" transform="translate(0 0.02)" fill="#f5f3cf"/><path d="M46.41,84.2a3.41,3.41,0,0,1,.6,2.12c.07.66-.5,1.27-.92.66-1.45-2.1-.45,1.41-1.45.27-.66-.6-.55-1.6-.65-2.65C45.57,85.24,45.57,85.24,46.41,84.2Z" transform="translate(0 0.02)" fill="#878785"/><path d="M25.5,87.55c2-.4,3.08.19,3.11,2.09a1.43,1.43,0,0,1-.3.79c-.06.08-.45,0-.62-.05-1.11-.59-1.28-.56-1.72.49A9.12,9.12,0,0,1,25.5,87.55Z" transform="translate(0 0.02)" fill="#707070"/><path d="M34.24,74.62c-.59-2.14,1.76-1.11,2.46-1.92.35-.42.64.09.78.43.37.93-.26,1.62-.85,2.2C35.33,76.6,35.23,74.33,34.24,74.62Z" transform="translate(0 0.02)" fill="#eff0de"/><path d="M28.53,81.27c-.5-1-.25-1.55.66-1.7.75-.12,1.59.05,1.37,1-.16.68.77,1.83-1,2C28.16,82.65,28.79,81.58,28.53,81.27Z" transform="translate(0 0.02)" fill="#707070"/><path d="M25,75.15c-.2.73,1.71,1.95.16,2.25-1.87.38-.18-1.62-.89-2.35-.24-.25-1.15-1.12.22-1.25S24.81,74.6,25,75.15Z" transform="translate(0 0.02)" fill="#707070"/><path d="M47.5,70.56l.39,1.83c0,.55.3,1.36-.67,1.37a2,2,0,0,1-1.78-1.23c-.32-.71-.37-1.47.76-1.73l.15-.08h.18L47,72.59h.3l-.18-1.85h.22Z" transform="translate(0 0.02)" fill="#d9d9d8"/><path d="M29.45,73.27c-.18.91-1.68.4-1.3,1.52.2.55.11,1.26,1.18.81.41-.18.57.18.38.51a1,1,0,0,1-1.26.46c-1.27-.41-1.31-1.48-1.2-2.44C27.39,73,28.37,73.12,29.45,73.27Z" transform="translate(0 0.02)" fill="#878785"/><path d="M35.7,80.37c.25-.51-1.12-1.43.78-1.57,3-.22.92,2.11,1.87,2.86a1.09,1.09,0,0,1-1.12-1C36.85,80,36.25,80.28,35.7,80.37Z" transform="translate(0 0.02)" fill="#eff0de"/><path d="M31.45,88.11c.3,1.19-1.23,1.25-1.54,2.07a4.6,4.6,0,0,1-.62-.55c.63-.84,0-2.23,1.14-2.69C31.23,86.59,31.24,87.59,31.45,88.11Z" transform="translate(0 0.02)" fill="#707070"/><path d="M26.16,84.1a1.78,1.78,0,0,1-1.8-.77,1,1,0,0,1,.79-1.18,1.38,1.38,0,0,1,.29,0c.65.09,1.77-.38,1.9.69C27.41,83.43,26.91,83.93,26.16,84.1Z" transform="translate(0 0.02)" fill="#878785"/><path d="M42.21,86c-.79.7,1.59,1.89-.14,2.18-2,.33-.18-1.56-.89-2.26-.32-.31-.74-1.2.39-1.3S41.92,85.49,42.21,86Z" transform="translate(0 0.02)" fill="#878785"/><path d="M33.52,89.34c.1-1.19-1.29-2.65,0-3.1,2.58-.89,1.55,1.08,1.47,2.19C34.34,88.28,34,88.79,33.52,89.34Z" transform="translate(0 0.02)" fill="#565656"/><path d="M44.74,81.51a11.42,11.42,0,0,0-1.13-2.3c-.38-.46-1.22-.8-.31-1.34s1.37.19,1.69.79S45.17,80.18,44.74,81.51Z" transform="translate(0 0.02)" fill="#d9d9d8"/><path d="M38.24,73c1.15-.28.42,2.35,2.06.64a7.49,7.49,0,0,1,.45.65c.23.44,0,.71-.47.76-.67.06-1.51.52-1.92-.31C38.09,74.14,37.79,73.48,38.24,73Z" transform="translate(0 0.02)" fill="#eff0de"/><path d="M34.24,74.62c-.44.77-.78,1.94-2,1.4-1-.42-1.32-1.39-.5-2.78C32.19,74.61,33,75.1,34.24,74.62Z" transform="translate(0 0.02)" fill="#eff0de"/><path d="M49.12,85.93c-.14.4-.11,1.35-.8.61A2.38,2.38,0,0,1,48,84c.33-.72,1.16-.58,1.86-.5.22.74-1,.39-.88,1S49.07,85.48,49.12,85.93Z" transform="translate(0 0.02)" fill="#878785"/><path d="M49.12,85.93A10.35,10.35,0,0,0,49,84.58c.51,0,1.1,0,1.16.53S49.61,85.81,49.12,85.93Z" transform="translate(0 0.02)" fill="#eef2e9"/><path d="M47.5,70.56l-.21.09h-.94l-.15.08c-.12-1.27.48-1.19,1.34-.64A.94.94,0,0,0,47.5,70.56Z" transform="translate(0 0.02)" fill="#707070"/><path d="M35.7,80.37c.55-.09,1.15-.41,1.53.25C36.51,81.51,36.07,81.11,35.7,80.37Z" transform="translate(0 0.02)" fill="#b7b7b2"/><path d="M51.14,86.74l-.15.37c-.09-.1-.23-.18-.25-.29s.08-.24.13-.36Z" transform="translate(0 0.02)" fill="#eef2e9"/><path d="M32.91,72.66h.17l-.2.2s-.1-.08-.09-.12S32.87,72.7,32.91,72.66Z" transform="translate(0 0.02)" fill="#eff0de"/><path d="M96.7,42l-.18,1.86c-1.67.1-3.39,1.13-5,.38-3.86-1.82-6.48-1.53-9.74,1.29a4.47,4.47,0,0,1-1.33.51,4.2,4.2,0,0,0-2.53,0c-.7.19-1.84-.65-2,.78l-.7.12c-.57-2,1.2-1.87,2.42-2.31,1.54-.54,4-.16,3.61-2.83,1.77-.66,3.22-3.18,2.23-3.44-1.36-.36-1.12-1-.78-1.58,1.72-2.77-1.83-2.52-2.48-3.91-.18-.38-.89-.47-1-.16-.4,1,.63,1.9.51,3a2.13,2.13,0,0,0,.07.44c-.78.32-2.16-1-2.39.82-1.8,1.42-.37,1.54.8,1.75l.55.36L79,40.29l-.06.23.11-.2,1.44-.26c1.08,0,1.38.42.68,1.28-1.57-.34-1.42,1.4-2.26,1.66-2.07.61-4,.54-4.66-1.89a4.46,4.46,0,0,1,1.14.24c.72.33,1.47.44,1.85-.33s-.61-.79-1.06-1.07l-3-1.89-.52,0-.06-.38c-.75-.52-1.41-1.24-2.53-1a55.69,55.69,0,0,1-8.45.9l-.06-.44c2.63-1.66,3.77-3.74,2.95-6.74-.42-1.51-1.77-3.76,1.71-4.24.18,0,.24-.54.45-.74,2-2,1.52-4.6,2.31-6.89,1.81-.3,3.36-.06,3.16,2-.16,1.63.95,2.33,2,3.13a14.54,14.54,0,0,1,3.76,3.9l.14.89c-.38.48-.63.94.24,1.46l-.23-1.46c.62-.12.9-.47.82-1.05,1.1-1.79,2.9-3.34,2.31-5.73-.09-.37-.2-1.49.74-1.37s2.3.6,2.33,1.33c.09,2.81,2.72,3.69,4.32,5.32a3.21,3.21,0,0,1,1,1.91,38.19,38.19,0,0,1,1.56,9.43c0,.65,0,1.83.62,1.79C93.83,40.06,94.84,41.93,96.7,42ZM81.07,28.53a.84.84,0,0,0-.34.95l-2,2c2.51.08,4.8-1.61,6.9.13a.51.51,0,0,0,.7-.17.31.31,0,0,0,.06-.13.92.92,0,0,0-.51-1.21l-.14-.05c-.87-.27-1.66-.58-1.68-1.6a2.12,2.12,0,0,0-2.22-1.64c-.76.05-.73,1-.72,1.7Zm4.21,4c-1.17.15-.94.92-1,1.43-.22,1,.8,1.21,1.45,1.44s1-.44,1-1c0-1-1.08-1.24-1.45-1.89Z" transform="translate(0 0.02)" fill="#ceeaeb"/><path d="M69,18.58c-.79,2.29-.26,4.92-2.31,6.89-.21.2-.27.71-.45.74-3.48.48-2.13,2.73-1.71,4.24.82,3-.32,5.08-3,6.74-4.46.68-3.75,1.12-4.48-3-.1-.58-.2-1.16-.29-1.74l-.29-1.8c-.87-2.42-.89-4.73.94-6.93.54-.66,0-.91-.72-.88A3,3,0,0,1,59,20.24c1.12-.35,2.34-.38,1.66-2-.23-.54.47-.72,1-.42C63.91,19.22,66.44,18.87,69,18.58Z" transform="translate(0 0.02)" fill="#d7ebec"/><path d="M56.49,30.68c.1.6.19,1.2.29,1.8-1.73.38,0,2.11-1.22,2.74-.7-.59-.25-2-1.78-1.79a2.74,2.74,0,0,1-2.8-.57c1.14-.7,2-1.67.8-2.67-1-.87-2.26-.38-3.21.41-.54.44-1,.82-1.7.48a1.39,1.39,0,0,1-.74-1.71A5.77,5.77,0,0,0,46,27.82h0c1.49-.36,2-1.22,1.55-2.56a.87.87,0,0,0-.63-.79l-.41.05-.18-.84c2.18-2.3,2.71-2.15,4.17.62.51,1,.92,2.34,2.61,2.46,1,.07.74,1,1,1.58.14.76-.66,1.16-.86,1.81s-.26,1.4.61,1.66,1.64.13,1.65-1Z" transform="translate(0 0.02)" fill="#f5f3cf"/><path d="M96.7,42c-1.86-.06-2.87-1.93-4.91-1.82-.59,0-.61-1.14-.62-1.79A38.34,38.34,0,0,0,89.61,29,3.06,3.06,0,0,1,93,30.45a1.46,1.46,0,0,0,1.49.91c1.46,1.11.58,2.87,1.2,4.32.75,1.74.56,3.93,1.6,5.75C97.46,41.73,97,41.9,96.7,42Z" transform="translate(0 0.02)" fill="#d7ebec"/><path d="M46.39,23.67l.18.84c-.16.82.87,1.88-.66,2.42-.56-.22-1-1-1.74,0-.36.51-1.21.47-1.07-.32.52-2.81-.7-4.7-3.21-6l1.94-.32C43.42,21.31,45.94,21.32,46.39,23.67Z" transform="translate(0 0.02)" fill="#d7ebec"/><path d="M56.49,30.68l-1,.13a7.18,7.18,0,0,0-.94-2.56c.28-1.92.56-3.86,2.13-5.38.7,0,1.26.22.72.88C55.6,26,55.62,28.26,56.49,30.68Z" transform="translate(0 0.02)" fill="#ceeaeb"/><path d="M54.58,28.25c.32.86,1,1.6.94,2.56,0,1.12-.79,1.24-1.65,1s-.84-.93-.61-1.66,1-1,.86-1.81Z" transform="translate(0 0.02)" fill="#eff0de"/><path d="M78.07,28.54l-.14-.89,1-.16c.08.58-.2.93-.82,1.05Z" transform="translate(0 0.02)" fill="#d7ebec"/><path d="M75.23,46.89l.7-.12a1.41,1.41,0,0,0,1.19.25c.17,1.08.54,1.95,2,2.08.73.07,1.29.15,1.23-.77l.08-.2-.09.2c-1.11-.81.15-1.53.16-2.3a4.47,4.47,0,0,0,1.33-.51c3.26-2.82,5.88-3.11,9.74-1.29,1.6.75,3.32-.28,5-.38-.36,1.81,1.24,3,1.62,4.65.2.85,2,.64,3.21.52h0c.17,1,.35,2.08.52,3.11h0c-6.7,1.06-13.49,1.75-20.08,3.27-10.68,2.47-21.55,3.76-32.31,5.71,0-.87-1.42-1.09-1.06-2.09,1-2.66-.39-5.13-.53-7.7l1.46-.24c1.25-1.29,3-1.73,4.58-2.57l11.15-1.83c.15.91.16,2,1.7,1.55.4.71,1.16,1.39,1.84.69,2-2,3.76-2.4,5.41-.65l.17-1.74c.49,2,1.93,4-.75,5.64a7.76,7.76,0,0,0-4,.21l-4.81.4c-.42,0-1,.35-.72.62.47.45-.22,1.54,1,1.48a10.89,10.89,0,0,0,1.44-.18h0c0,1.33.63,1.85,2.14,1.51s3.36-.56,5-.85c.56-.09,1.24-.19,1.1-.92s-.9-.4-1.4-.47l.42-.52.48-.41c1.37.5,2.17,2.19,4.08,1.54.46-.16,1.28-.21,1.35-.44.22-.75-.35-1-1.13-1-.52,0-.68-.56-1-.83C75.7,50.86,75.57,48.85,75.23,46.89Zm7.43,7c2-.34,2.27-.52,1.91-1.27-.55-1.15-.55-1.15.85-1.24.58,0,1.53.28,1.53-.56s-.79-1.19-1.75-1l-6.25,1c-.37.06-1,.21-.68.61.77.81,1.84,1.32,2.33,2.47.23.54,1.35.1,2.06,0Z" transform="translate(0 0.02)" fill="#deedef"/><path d="M46,27.82a5.75,5.75,0,0,1,.08,1.55,1.39,1.39,0,0,0,.74,1.71c.66.34,1.16,0,1.7-.48.95-.79,2.2-1.28,3.21-.41,1.17,1,.34,2-.8,2.67a2.74,2.74,0,0,0,2.8.57c1.53-.25,1.08,1.2,1.78,1.79,1.27-.63-.51-2.36,1.22-2.74.09.58.19,1.16.29,1.74.73,4.09,0,3.65,4.48,3l.06.44c-.56.94-1.43.91-2.47,1-1.27.08-2.88-.24-3.71,1.14-1,1.75,0,5.85,1.74,7.31-.69.07-1.41.43-2-.11l-.54-.38-.21-1.34s.16-.13.15-.15a1.7,1.7,0,0,0-.23-.3,1,1,0,0,0-.07-.44c.74-2-.63-3.94-.41-5.9.26-2.28-.71-2.84-2.9-2.28-.82-2.43-2.84-3.64-5.34-4.22-4-.91-4-.87-3.36,2.9.28,1.79-.3,3.11-2.39,3.59-.24-1.4-.44-2.81-.72-4.21C38.72,32.36,37.8,32,36,32.9a5,5,0,0,1-2.09.59c-2.2.09-3.31,1-2.35,3S30.23,40,31.31,41.9c.59,1,.36,2.41,1.44,3.42A1.25,1.25,0,0,1,33,47.08a1.21,1.21,0,0,1-.7.47c-.67-2.76-.89-2.83-3.51-1.43a7.71,7.71,0,0,1-1.63.44h0a.86.86,0,0,0-.84-.88.81.81,0,0,0-.31,0h0c-.15-.89-.29-1.78-.44-2.67h0a4.36,4.36,0,0,1,2.6.18,1.83,1.83,0,0,0,2-.88,1.19,1.19,0,0,0-.35-1.62,1.58,1.58,0,0,0-2,.08c-1.39.9-1.87.53-2.22-1.13-.26-1.22.16-3.36-2.24-3.62-1.41-.62-1.83-2.17-2.25-3.16-.73-1.67,1.58-1,2.49-1.45.93,1.13,1.82,2.36,3.69,1.23l1-.16c1.32,1,1.85,1.16,2.48-.84,1-3.2,1.4-6.7,4.05-9.38.72-.73,1.25-1.58,2.22-.37.1.59.2,1.17.28,1.76a5.71,5.71,0,0,0,3.29,4.9c2.32,1.31,2.88.91,4.2-.52C45.09,27.85,45.65,27.9,46,27.82Z" transform="translate(0 0.02)" fill="#eff0de"/><path d="M14.87,56.71c-.31,2.15-1.83,2.32-3.67,2-1-3,.2-6.3-1.37-9.22-.17-.32.34-1,.51-1.44s.69-1.3.18-1.71c-2.9-2.36-2-5.79-2.68-8.74-.34-1.4-.45-2.89-.78-4.32,2-.55,4,.17,6-.06a13,13,0,0,0,1.57,6.37c.31.51.51.88.16,1.41-.12.19-.32.53-.25.62,2.21,2.47.3,5.53,1.14,8.2.44,1.4.85,2.84-.26,4.3A3,3,0,0,0,14.87,56.71Z" transform="translate(0 0.02)" fill="#f4f5e7"/><path d="M13,33.2c-2,.23-4-.49-6,.06C5.57,30,8,27.71,9.6,25.2c.62-1,1.07-.09,1.6,0,1.13.11,2.63.77,2.29-1.35-.08-.54.36-.81.91-.88a1.15,1.15,0,0,1,1.38.66,16.59,16.59,0,0,1,.48,2.2L15.4,26c-.48.44-1.12.88-.06,1.34.11.43-.85.92-.24,1.15,1.16.44,2.4-.13,3.57-.37s.7-1.18.68-1.89c0,0,.15-.15.14-.16a2.09,2.09,0,0,0-.28-.24h0c-.26-1.37.65-1.9,1.88-2.17a6.94,6.94,0,0,0,4-2,1.26,1.26,0,0,1,1.69-.4,1.39,1.39,0,0,1,.61,1.8c-.6,2.34-2.87,3.37-4.37,5-.76.83-2.36.8-2.51,2.19-.31,1.72-2.26,1.53-2.88,1.26C15.2,30.34,14.38,32.23,13,33.2Z" transform="translate(0 0.02)" fill="#eff0de"/><path d="M46,27.82c-.4.08-1,0-1.16.26-1.32,1.43-1.88,1.83-4.2.52a5.71,5.71,0,0,1-3.29-4.9c-.08-.59-.18-1.17-.28-1.76a3.88,3.88,0,0,1,2.77-1.36c2.51,1.32,3.73,3.21,3.21,6-.14.79.71.83,1.07.32.72-1,1.18-.21,1.74,0l.15.88Z" transform="translate(0 0.02)" fill="#deedef"/><path d="M19.4,26.19c0,.71.49,1.66-.68,1.89s-2.41.81-3.57.37c-.61-.23.35-.72.24-1.15l.06-1.3.86-.16c1,.63,2-.61,3,0h0A1.51,1.51,0,0,0,19.4,26.19Z" transform="translate(0 0.02)" fill="#b7b7b2"/><path d="M142.39,80.76c.2-1.4,1.49-1,2.35-1.23C144.58,81,143.26,80.5,142.39,80.76Z" transform="translate(0 0.02)" fill="#d9d9d8"/><path d="M66.78,69.32c-.31.61-.36,1.89-1.37,1.34-.83-.46-2-1.2-1.61-2.65.39-1.29,1.89-1.09,2.34-1,1.19.25,1.28,1.29.64,2.3a.49.49,0,0,0-.11-.13s-.08,0-.13,0Z" transform="translate(0 0.02)" fill="#d9d9d8"/><path d="M75.49,75.1c-.87,0-1.41,1.34-2.38.66-.76-.54-.61-1.5-.64-2.3s.65-1.22,1.46-1.2,1,.57.69,1.25,0,1,.77,1C75.43,74.68,75.46,74.89,75.49,75.1Z" transform="translate(0 0.02)" fill="#878785"/><path d="M66,81.11c1.81-.42,2.58-.37,2.86,1.48s-1.82,0-1.58,1.19C65.77,83.24,66.83,81.89,66,81.11Z" transform="translate(0 0.02)" fill="#878785"/><path d="M98.54,78.64C96.32,79,95.71,78,96,76.25,98.93,75.3,98.16,77.48,98.54,78.64Z" transform="translate(0 0.02)" fill="#707070"/><path d="M85.69,71.29c-.39,1.27,1,1.09,1.52,1.55-.13.18-.26.37-.4.55-.49.61-1,1.28-1.93,1.07s-.46-1.11-.59-1.69C84.07,71.77,84.48,71.18,85.69,71.29Z" transform="translate(0 0.02)" fill="#d9d9d8"/><path d="M91.27,79.88c-.49-1.19-3.13-.16-2.55-2.11a1.68,1.68,0,0,1,1.73-.86C91.85,77.46,90.85,78.87,91.27,79.88Z" transform="translate(0 0.02)" fill="#707070"/><path d="M74.72,81.18a4,4,0,0,0-.36-1c-.3-.39-.31-.68.24-.82s.94,0,.88.63c0,.29.15.66,0,.88-.42.68,1.61,1.6-.09,1.91S75.69,81.28,74.72,81.18Z" transform="translate(0 0.02)" fill="#707070"/><path d="M60.82,85.27c-1.14.16-1.43-.55-1.65-1.27-.29-.93.63-.65,1-.78C61,83,61.63,83,61.77,84,61.87,84.74,61.42,85.07,60.82,85.27Z" transform="translate(0 0.02)" fill="#878785"/><path d="M101.38,74.85c.1.94-.26,2,.32,2.8.39.56.23.79-.38.91s-1.11-.09-.74-.66c.62-1-1.7-2.5.79-3.05v0Z" transform="translate(0 0.02)" fill="#707070"/><path d="M79.21,56.76,90.34,55c-2.31,1.35-5,1-7.48,1.64-1.18.28-2.39.4-3.6.6C79.24,57.05,79.22,56.91,79.21,56.76Z" transform="translate(0 0.02)" fill="#f2f4ec"/><path d="M61.7,59.63l10.7-1.74A27.88,27.88,0,0,1,61.7,59.63Z" transform="translate(0 0.02)" fill="#deedef"/><path d="M78.24,71.86c.8.12,1,.79,1.14,1.41s.1,1.42-.62,1.48c-1.22.1-.55-1.08-.91-1.61S77.36,72.18,78.24,71.86Z" transform="translate(0 0.02)" fill="#d9d9d8"/><path d="M67.12,77.14c-1.16-.53-.41-1.77-1.44-2.3-.48-.25.09-1,.58-1.16.66-.25.79.32.83.75C67.17,75.27,67.69,76.1,67.12,77.14Z" transform="translate(0 0.02)" fill="#878785"/><path d="M75.49,75.1a3.44,3.44,0,0,0-.1-.63c.83-.54.33-1.57,1-2.17C78.06,75,78.06,75,75.49,75.1Z" transform="translate(0 0.02)" fill="#d9d9d8"/><path d="M70.27,69.28c-.88-.13-.49-1.14-1.28-1.19s-1-.39-.71-1c.11-.27.18-.58.63-.53a1.1,1.1,0,0,1,1.08,1C70.07,68.08,70.17,68.65,70.27,69.28Z" transform="translate(0 0.02)" fill="#d9d9d8"/><path d="M79.21,56.76v.44c-2,.1-3.88,1.12-5.91.52Z" transform="translate(0 0.02)" fill="#deedef"/><path d="M91.34,54.79l1.92-.32a1.26,1.26,0,0,1-1.7.48Z" transform="translate(0 0.02)" fill="#f2f4ec"/><path d="M58.52,70.67c-.08-.6-.17-1.19-.25-1.79a1.09,1.09,0,0,1,.5,1.46A1.15,1.15,0,0,1,58.52,70.67Z" transform="translate(0 0.02)" fill="#b7b7b2"/><path d="M94.73,54.22,96.19,54a.84.84,0,0,1-1.08.5A.81.81,0,0,1,94.73,54.22Z" transform="translate(0 0.02)" fill="#f2f4ec"/><path d="M58.79,60.12l1.47-.24a.9.9,0,0,1-1.2.44A1.05,1.05,0,0,1,58.79,60.12Z" transform="translate(0 0.02)" fill="#deedef"/><path d="M55.39,60.67l.5-.09C55.76,60.85,55.6,60.88,55.39,60.67Z" transform="translate(0 0.02)" fill="#deedef"/><path d="M57.8,69.43c-.11.27-.25.3-.44.07A3.11,3.11,0,0,1,57.8,69.43Z" transform="translate(0 0.02)" fill="#d9d9d8"/><path d="M47.89,51.33c.14,2.57,1.49,5,.53,7.7-.36,1,1.09,1.22,1.06,2.09l-5.81,1c-.08-.45-.15-.89-.23-1.34.66-3-1-5.64-1.38-8.48L46,51.67Z" transform="translate(0 0.02)" fill="#eef2e9"/><path d="M42.06,52.28c.37,2.84,2,5.47,1.38,8.48-.56.09-1.12.2-1.69.27-1,.14-2.11.57-3.1.06-1.35-.7.2-1.54,0-2.39-.32-1.59-.93-3.2-.4-4.87.42-1.32.48-2.92,2.53-3.18C41.18,51.22,42,51.49,42.06,52.28Z" transform="translate(0 0.02)" fill="#f4f5e7"/><path d="M27.16,46.47A7.61,7.61,0,0,0,28.79,46c2.62-1.4,2.84-1.33,3.51,1.43,1,5.35,1,5.47-4.95,6.31l-.15-.9c1.23-.45,1-1.36.16-1.53-2.26-.43-1.31-1.49-.79-2.55C26.94,48.05,27.46,47.34,27.16,46.47Z" transform="translate(0 0.02)" fill="#eef2e9"/><path d="M42.06,52.28c0-.79-.88-1.06-1.26-1.63a4.09,4.09,0,0,0,.5-3.2c-.53-2.84-.94-5.7-1.39-8.55,2.6.26,3.64,1.71,3.06,4.27s0,3.66,2.17,3.55A6.56,6.56,0,0,1,46,51.65Z" transform="translate(0 0.02)" fill="#eff0de"/><path d="M45.14,46.72c-2.12.11-2.76-.94-2.17-3.55s-.46-4-3.06-4.27a1,1,0,0,0-.08-.47c2.09-.48,2.67-1.8,2.39-3.59a4.71,4.71,0,0,0,5.13,1l.51,3.1c-3.7,1.71-3.7,1.71-3.11,5.33Z" transform="translate(0 0.02)" fill="#d9d9d8"/><path d="M25.51,57.7c-.05-.28-.09-.57-.14-.85-.07-1.62-1.36-2.75-1.89-4.18l2.6-.53c.53,3.27,1.05,6.53,1.58,9.79l-.89-.29C25.55,60.56,25.88,59,25.51,57.7Z" transform="translate(0 0.02)" fill="#deedef"/><path d="M27.66,61.93c-.53-3.26-1-6.52-1.58-9.79a.86.86,0,0,1,1.12.73l.15.9C27.71,56.48,28.65,59.15,27.66,61.93Z" transform="translate(0 0.02)" fill="#f5f6e8"/><path d="M25.51,57.7c.37,1.33,0,2.86,1.26,3.94-.77.92-2,.66-3,1a10.81,10.81,0,0,0,.67-3.13C24.46,58.83,24.4,57.9,25.51,57.7Z" transform="translate(0 0.02)" fill="#b7b7b2"/><path d="M20.3,37.27c-.48,2.63.77,4.95,1.21,7.4.16.89.25,1.48-.74,1.75-1.34.38-1.53-.82-1.64-1.45a28.66,28.66,0,0,1-.28-4.9c0-1.06-1.27-1.36-.94-2.54.17-.63-.06-1.43.79-1.46C19.32,36.05,20.52,36.07,20.3,37.27Z" transform="translate(0 0.02)" fill="#b7b7b2"/><path d="M23.47,36.07c2.4.26,2,2.4,2.24,3.62.35,1.66.83,2,2.22,1.13a1.58,1.58,0,0,1,2-.08,1.19,1.19,0,0,1,.35,1.62,1.83,1.83,0,0,1-2,.88,4.36,4.36,0,0,0-2.6-.18c-1.8-1.51-1.36-4-2.81-5.7C22.44,37,23,36.4,23.47,36.07Z" transform="translate(0 0.02)" fill="#f4f5e7"/><path d="M25.6,43.06c.15.89.29,1.78.44,2.67L22.82,46C24.1,45.23,23.57,43.07,25.6,43.06Z" transform="translate(0 0.02)" fill="#f4f5e7"/><path d="M27.4,32.69c-1.87,1.13-2.76-.1-3.69-1.23C25.7,30,26.55,31.35,27.4,32.69Z" transform="translate(0 0.02)" fill="#eef2e9"/><path d="M26,45.73a.86.86,0,0,1,1.08.57l0,.17A.86.86,0,0,1,26,45.9Z" transform="translate(0 0.02)" fill="#eef2e9"/><path d="M46.53,70.7h.54l.18,1.85H47Z" transform="translate(0 0.02)" fill="#f2f4ec"/><path d="M57.17,47.06c-1.76-1.46-2.79-5.56-1.74-7.31.83-1.38,2.44-1.06,3.71-1.14,1-.07,1.91,0,2.47-1a55.69,55.69,0,0,0,8.45-.9c1.12-.25,1.78.47,2.53,1-2.64.57-.62,2.19-1,3.28-2.1-.93-2,.49-2.31,1.78,2.06-.94,3.77-.38,4.22,1.28.08.31.23,1-.21.87-1.53-.55-2,.5-2.82,1.26a1.74,1.74,0,0,1-1.34.33c-2.6-.69-2.59-.72-2.4,1.72-1.54.4-1.55-.64-1.7-1.55-.34-1.06-1.22-.7-2-.59Z" transform="translate(0 0.02)" fill="#f5f3cf"/><path d="M66.78,48.24c-.19-2.44-.2-2.41,2.4-1.72a1.74,1.74,0,0,0,1.34-.33c.8-.76,1.29-1.81,2.82-1.26.44.15.29-.56.21-.87-.45-1.66-2.16-2.22-4.22-1.28.28-1.29.21-2.71,2.31-1.78.93-.7,1.82-.87,2.62.1.64,2.43,2.59,2.5,4.66,1.89.84-.25.69-2,2.22-1.65a1.48,1.48,0,0,0,.12.41c.38,2.67-2.07,2.29-3.61,2.83-1.22.44-3,.3-2.42,2.31.34,2,.47,4,2.25,5.42.33.27.49.81,1,.83.78,0,1.35.28,1.13,1-.07.23-.89.28-1.35.44-1.91.65-2.71-1-4.08-1.54a1.26,1.26,0,0,0-.74-.89c2.68-1.61,1.24-3.68.75-5.64L74,48.28c-1.65-1.75-3.42-1.4-5.41.65C67.94,49.63,67.18,49,66.78,48.24Z" transform="translate(0 0.02)" fill="#b7b7b2"/><path d="M81.26,41.75a1.48,1.48,0,0,1-.12-.41c.7-.86.4-1.26-.68-1.28a6.85,6.85,0,0,0-.14-.89C81,38,80.5,37,79.8,36.05a2.13,2.13,0,0,1-.07-.44c.12-1-.91-1.92-.51-3,.12-.31.83-.22,1,.16.65,1.39,4.2,1.14,2.48,3.91-.34.55-.58,1.22.78,1.58C84.48,38.57,83,41.09,81.26,41.75Z" transform="translate(0 0.02)" fill="#d7ebec"/><path d="M84,28.46c0,1,.81,1.33,1.68,1.6a.94.94,0,0,1,.7,1.12l0,.14a.51.51,0,0,1-.63.36.38.38,0,0,1-.13-.06c-2.1-1.74-4.39-.05-6.9-.13l2-2a.84.84,0,0,0,.34-.95h0Z" transform="translate(0 0.02)" fill="#eef2e9"/><path d="M74.26,41.1c-.8-1-1.69-.8-2.62-.1.33-1.09-1.69-2.71,1-3.28l.06.38c.2.32.37.29.52-.05l3,1.89c.45.28,1.51.17,1.06,1.07s-1.13.66-1.85.33A4.68,4.68,0,0,0,74.26,41.1Z" transform="translate(0 0.02)" fill="#d9d9d8"/><path d="M80.46,46c0,.77-1.27,1.49-.16,2.3h0c.06.92-.5.84-1.23.77-1.42-.13-1.79-1-2-2.08.61-.12.94-.43.82-1A4.18,4.18,0,0,1,80.46,46Z" transform="translate(0 0.02)" fill="#d9d9d8"/><path d="M85.28,32.51c.37.65,1.5.89,1.44,1.92,0,.51-.35,1.2-1,1S84,35,84.23,33.94C84.34,33.43,84.11,32.66,85.28,32.51Z" transform="translate(0 0.02)" fill="#d7ebec"/><path d="M84,28.46l-2.94.06c0-.67,0-1.65.72-1.7A2.12,2.12,0,0,1,84,28.46Z" transform="translate(0 0.02)" fill="#d9d9d8"/><path d="M79.8,36.05c.7,1,1.23,1.94.52,3.12h0c-.11-1.62-.48-3-2.81-2.25h-.07C77.64,35.08,79,36.37,79.8,36.05Z" transform="translate(0 0.02)" fill="#d9d9d8"/><path d="M77.93,46c.12.6-.21.91-.82,1a1.39,1.39,0,0,1-1.18-.25C76.09,45.34,77.23,46.18,77.93,46Z" transform="translate(0 0.02)" fill="#b7b7b2"/><path d="M78.21,38.62c-1.17-.21-2.6-.33-.8-1.75h.07c.25.56.51,1.11.76,1.66Z" transform="translate(0 0.02)" fill="#d9d9d8"/><path d="M80.32,39.17a5.49,5.49,0,0,0,.14.89L79,40.32H79L78.76,39h0l1.5.22Z" transform="translate(0 0.02)" fill="#d9d9d8"/><path d="M78.08,28.54,78.31,30c-.87-.52-.62-1-.24-1.46Z" transform="translate(0 0.02)" fill="#d7ebec"/><path d="M81.07,28.53a.84.84,0,0,1-.34.95A.84.84,0,0,1,81.07,28.53Z" transform="translate(0 0.02)" fill="#d9d9d8"/><path d="M79,40.32l-.11.2.06-.23Z" transform="translate(0 0.02)" fill="#d9d9d8"/><path d="M78.76,39l-.55-.36h0l.55.37Z" transform="translate(0 0.02)" fill="#d9d9d8"/><path d="M73.17,38.05c-.15.34-.32.37-.52.05Z" transform="translate(0 0.02)" fill="#f5f3cf"/><path d="M46.06,27.81l-.15-.88c1.53-.54.5-1.6.66-2.42l.41-.05a.9.9,0,0,0,.63.79C48,26.59,47.55,27.45,46.06,27.81Z" transform="translate(0 0.02)" fill="#eff0de"/><path d="M47.61,25.25a.9.9,0,0,1-.63-.79A.87.87,0,0,1,47.61,25.25Z" transform="translate(0 0.02)" fill="#deedef"/><path d="M47.86,39l-.51-3.1c1.28-.59,2.35.39,3.57.31,2.19-.56,3.16,0,2.9,2.28-.22,2,1.15,3.85.41,5.9-.3-1-.06-2.1-1-3.4.27,1.65.52,2.82.63,4s.08,2.38.12,3.57c-1.54.84-3.33,1.28-4.58,2.57-.27-1.64-.53-3.27-.8-4.91,1.62-.64,1.64-.66.62-1.6-.42-.39-.52-.73-.15-1.16.78-.88-.39-.9-.64-1.33C48.2,41,48,40,47.86,39Z" transform="translate(0 0.02)" fill="#ceeaeb"/><path d="M48.55,46.18c.27,1.64.53,3.27.8,4.91l-1.46.24L46,51.65a6.56,6.56,0,0,0-.81-4.93l-.39-2.44c-.59-3.62-.59-3.62,3.11-5.33.17,1,.34,2.09.52,3.14C47.6,43.51,48.53,44.82,48.55,46.18Z" transform="translate(0 0.02)" fill="#d7ebec"/><path d="M73.29,54c.5.07,1.25-.29,1.4.47s-.54.83-1.1.92c-1.68.29-3.38.49-5,.85s-2.12-.18-2.14-1.51l.16-.23-.19.21c-.48.06-1,.15-1.44.18-1.19.06-.5-1-1-1.48-.29-.27.3-.58.72-.62l4.81-.4a2.66,2.66,0,0,0,.07.39C69.78,55.71,71.88,54,73.29,54Z" transform="translate(0 0.02)" fill="#b7b7b2"/><path d="M82.66,53.91c-.71.08-1.83.53-2.06,0-.49-1.15-1.56-1.66-2.33-2.47-.37-.4.31-.55.68-.61l6.25-1c1-.17,1.76.19,1.75,1s-1,.52-1.53.56c-1.4.09-1.4.09-.85,1.24C84.93,53.39,84.66,53.57,82.66,53.91Z" transform="translate(0 0.02)" fill="#b7b7b2"/><path d="M53.93,48.52A35.39,35.39,0,0,0,53.81,45c-.12-1.18-.36-2.36-.63-4,1,1.3.75,2.43,1,3.4a3.11,3.11,0,0,0,.07.44l.08.45.21,1.34.54.38c.63.54,1.35.18,2,.11,2-.32,4-.65,5.94-1,.75-.11,1.63-.47,2,.59Z" transform="translate(0 0.02)" fill="#d9d9d8"/><path d="M73.29,54c-1.41,0-3.51,1.71-3.72-1.22l4.14.7Z" transform="translate(0 0.02)" fill="#d9d9d8"/><path d="M73.71,53.48l-4.14-.7a.77.77,0,0,0-.07-.39,7.76,7.76,0,0,1,4-.21,1.26,1.26,0,0,1,.74.89Z" transform="translate(0 0.02)" fill="#9d9d9d"/><path d="M80.3,48.33l.09-.2-.08.2Z" transform="translate(0 0.02)" fill="#d9d9d8"/><path d="M50.92,36.16c-1.22.08-2.29-.9-3.57-.31a4.71,4.71,0,0,1-5.13-1c-.64-3.77-.62-3.81,3.36-2.9C48.08,32.52,50.1,33.73,50.92,36.16Z" transform="translate(0 0.02)" fill="#d7ebec"/><path d="M54.38,45.23l-.08-.45a1.7,1.7,0,0,1,.23.3Z" transform="translate(0 0.02)" fill="#ceeaeb"/><path d="M55.13,47l-.54-.38Z" transform="translate(0 0.02)" fill="#ceeaeb"/><path d="M15.45,26l-.06,1.34C14.33,26.84,15,26.4,15.45,26Z" transform="translate(0 0.02)" fill="#eef2e9"/><path d="M19.4,26.19a1.47,1.47,0,0,1-.14-.4,2.09,2.09,0,0,1,.28.24Z" transform="translate(0 0.02)" fill="#eef2e9"/><path d="M124.19,66.39c-.44-1.78.49-2,1.77-2.29,1.75-.33,1.29.9,1.55,1.63.52,1.43-.79,1.69-1.72,2C124.31,68.08,124.53,66.71,124.19,66.39Zm1.22-1.48a5.66,5.66,0,0,0,.27,1.15c.21.37.55.5,1,.14Z" transform="translate(0 0.02)" fill="#eff0de"/><path d="M119.28,66.65c.63,1,.79,1.84-.54,2.28-1,.33-1.53-.43-1.4-.94.25-1-.66-2.48,1-2.84S119.27,66.12,119.28,66.65Z" transform="translate(0 0.02)" fill="#707070"/><path d="M133.51,66.28c-.66-1.08-2.29-1.66-.86-2.91.33-.29,1-.83,1.47-.33C135.16,64.12,134.3,65.06,133.51,66.28Z" transform="translate(0 0.02)" fill="#878785"/><path d="M126,74.22c.15-1.32-1.85-3,1.31-3.55C126.38,71.75,127.82,73.29,126,74.22Z" transform="translate(0 0.02)" fill="#707070"/><path d="M66.78,69.32l-.24-.16h.13s.07.08.11.13Z" transform="translate(0 0.02)" fill="#eef2e9"/><path d="M78.79,38.94l-.55-.37c-.25-.55-.51-1.1-.76-1.66,2.33-.72,2.7.63,2.81,2.25Z" transform="translate(0 0.02)" fill="#ceeaeb"/><path d="M48.55,46.18c0-1.36-.95-2.67-.17-4.09.25.43,1.42.45.64,1.33-.37.43-.27.77.15,1.16C50.19,45.52,50.17,45.54,48.55,46.18Z" transform="translate(0 0.02)" fill="#d9d9d8"/><path d="M66.38,54.71l.19-.21-.16.23Z" transform="translate(0 0.02)" fill="#deedef"/><path d="M114.45,49.76a2,2,0,0,0,0-.85c0-.12,0-.21.15-.23.46-.06.92-.14,1.38-.22.14,0,.23,0,.24.17a2.26,2.26,0,0,0,.25.8Z" transform="translate(0 0.02)" fill="#fdfdfd"/><path d="M112.76,8.72l.85-.14a.33.33,0,0,1,.37.29l.15.9a.33.33,0,0,1-.27.39l-.85.14a.33.33,0,0,1-.37-.29l-.15-.91A.33.33,0,0,1,112.76,8.72Z" transform="translate(0 0.02)"/><path d="M120.2,7.52l.85-.13a.33.33,0,0,1,.37.28l.15.91a.33.33,0,0,1-.27.39l-.85.13a.33.33,0,0,1-.37-.28l-.15-.91A.34.34,0,0,1,120.2,7.52Z" transform="translate(0 0.02)"/><path d="M111.52,10.54l.86-.14a.33.33,0,0,1,.37.28l.14.91a.33.33,0,0,1-.26.39l-.86.13a.33.33,0,0,1-.37-.28l-.14-.91A.32.32,0,0,1,111.52,10.54Z" transform="translate(0 0.02)"/><path d="M120.33,10.4l-.14-.91a.32.32,0,0,0-.37-.28l-.86.13a.33.33,0,0,0-.26.39h0l.2,1.24,1.49-.24Z" transform="translate(0 0.02)"/><path d="M120.7,10.68a.33.33,0,0,1-.37-.28l.06.33Z" transform="translate(0 0.02)"/><path d="M110.29,12.35l.85-.13a.33.33,0,0,1,.37.28l.15.91a.32.32,0,0,1-.27.38l-.85.14a.33.33,0,0,1-.37-.28l-.15-.91A.33.33,0,0,1,110.29,12.35Z" transform="translate(0 0.02)"/><path d="M114.75,11.64l.86-.14a.33.33,0,0,1,.37.29l.14.9a.33.33,0,0,1-.26.39l-.86.14a.34.34,0,0,1-.37-.29l-.14-.91A.32.32,0,0,1,114.75,11.64Z" transform="translate(0 0.02)"/><path d="M119.1,12.22a.33.33,0,0,0,.37.28l1.17-.19-.25-1.58L118.9,11Z" transform="translate(0 0.02)"/><rect x="120.5" y="10.6" width="1.51" height="1.6" transform="translate(-0.28 19.36) rotate(-9.11)"/><path d="M123.05,10.31a.33.33,0,0,1,.37.28l.2,1.25-1.49.23-.26-1.57Z" transform="translate(0 0.02)"/><path d="M113.4,14.75l-.15-.91a.33.33,0,0,0-.37-.28l-.85.13a.33.33,0,0,0-.27.39h0l.2,1.24,1.49-.24Z" transform="translate(0 0.02)"/><path d="M117.86,14l-.14-.9a.33.33,0,0,0-.37-.29l-.86.14a.33.33,0,0,0-.26.38h0l.2,1.25,1.49-.24Z" transform="translate(0 0.02)"/><path d="M120.69,12.65l0-.34-.32,0A.33.33,0,0,1,120.69,12.65Z" transform="translate(0 0.02)"/><path d="M120.84,13.56a.33.33,0,0,0,.37.28l1.17-.19-.25-1.58-1.49.24Z" transform="translate(0 0.02)"/><path d="M123.81,13.08a.33.33,0,0,1-.26.39l-1.17.18-.25-1.58,1.49-.23Z" transform="translate(0 0.02)"/><path d="M112.16,16.57a.33.33,0,0,0,.37.28l.86-.14a.32.32,0,0,0,.26-.38l-.2-1.25-1.49.24Z" transform="translate(0 0.02)"/><path d="M116.36,16.24a.33.33,0,0,0,.27-.39l.05.34Z" transform="translate(0 0.02)"/><rect x="116.54" y="14.48" width="1.51" height="1.6" transform="translate(-0.94 18.78) rotate(-9.11)"/><path d="M121.09,15.14l-.14-.91a.33.33,0,0,0-.37-.29l-.86.14a.33.33,0,0,0-.26.39h0l.2,1.24,1.49-.24Z" transform="translate(0 0.02)"/><path d="M121.46,15.42a.33.33,0,0,1-.37-.28l.06.33Z" transform="translate(0 0.02)"/><path d="M114,16.61a.33.33,0,0,0-.26.39h0l.2,1.24,1.49-.24-.26-1.57Z" transform="translate(0 0.02)"/><rect x="115.31" y="16.3" width="1.51" height="1.6" transform="translate(-1.25 18.6) rotate(-9.11)"/><rect x="116.8" y="16.06" width="1.51" height="1.6" transform="translate(-1.19 18.84) rotate(-9.11)"/><rect x="119.77" y="15.58" width="1.51" height="1.6" transform="translate(-1.08 19.3) rotate(-9.11)"/><path d="M121.71,17l.86-.14a.33.33,0,0,0,.26-.38l-.14-.91a.34.34,0,0,0-.37-.29l-1.17.19.25,1.58Z" transform="translate(0 0.02)"/><path d="M112.67,19.73l-.15-.91a.33.33,0,0,0-.37-.29l-.85.14a.33.33,0,0,0-.26.39h0l.19,1.24,1.49-.24Z" transform="translate(0 0.02)"/><path d="M114.16,19.49a.33.33,0,0,0,.37.28l.85-.14a.33.33,0,0,0,.27-.38l-.2-1.25-1.49.24Z" transform="translate(0 0.02)"/><path d="M115.76,18l-.31.05,0,.34a.33.33,0,0,1,.26-.39Z" transform="translate(0 0.02)"/><path d="M117,18.1l-.06-.33-.31.05A.33.33,0,0,1,117,18.1Z" transform="translate(0 0.02)"/><path d="M117.13,19a.33.33,0,0,0,.37.28l.86-.13a.33.33,0,0,0,.26-.39l-.2-1.24-1.49.24Z" transform="translate(0 0.02)"/><path d="M120.11,18.53a.33.33,0,0,0,.37.29l.86-.14a.33.33,0,0,0,.26-.39l-.2-1.24-1.49.24Z" transform="translate(0 0.02)"/><path d="M121.71,17l-.31.05,0,.34a.33.33,0,0,1,.26-.39Z" transform="translate(0 0.02)"/><path d="M124.57,17.82l-.14-.91a.34.34,0,0,0-.37-.29l-.86.14a.33.33,0,0,0-.26.39h0l.2,1.24,1.49-.24Z" transform="translate(0 0.02)"/><path d="M111.17,21.93a.33.33,0,0,0,.26-.39l.06.34Z" transform="translate(0 0.02)"/><rect x="111.35" y="20.17" width="1.51" height="1.6" transform="translate(-1.91 18.03) rotate(-9.11)"/><path d="M116,19.53l.85-.13a.33.33,0,0,1,.37.28l.15.91a.32.32,0,0,1-.27.38l-.85.14a.33.33,0,0,1-.37-.28l-.15-.91A.33.33,0,0,1,116,19.53Z" transform="translate(0 0.02)"/><path d="M119,19.06l.86-.14a.33.33,0,0,1,.37.28l.14.91a.33.33,0,0,1-.26.39l-.86.13a.32.32,0,0,1-.37-.28l-.14-.91A.32.32,0,0,1,119,19.06Z" transform="translate(0 0.02)"/><rect x="123.26" y="18.26" width="1.51" height="1.6" transform="translate(-1.46 19.89) rotate(-9.11)"/><path d="M125.2,19.68a.33.33,0,0,1-.37-.28l0,.33Z" transform="translate(0 0.02)"/><path d="M99.9,23.74a.32.32,0,0,0-.26.38h0l.2,1.25,1.48-.24-.25-1.58Z" transform="translate(0 0.02)"/><rect x="101.19" y="23.42" width="1.51" height="1.6" transform="translate(-2.55 16.46) rotate(-9.11)"/><path d="M103.13,24.84l.85-.14a.33.33,0,0,0,.27-.39l-.15-.9a.33.33,0,0,0-.37-.29l-1.17.19.25,1.58Z" transform="translate(0 0.02)"/><path d="M106.71,22.64l-.86.14a.33.33,0,0,0-.26.39h0l.14.91a.33.33,0,0,0,.37.28l1.18-.19L107,22.59Z" transform="translate(0 0.02)"/><rect x="107.14" y="22.46" width="1.51" height="1.6" transform="translate(-2.32 17.39) rotate(-9.11)"/><rect x="108.63" y="22.23" width="1.51" height="1.6" transform="matrix(0.99, -0.16, 0.16, 0.99, -2.27, 17.62)"/><rect x="110.12" y="21.99" width="1.51" height="1.6" transform="matrix(0.99, -0.16, 0.16, 0.99, -2.21, 17.85)"/><rect x="111.6" y="21.75" width="1.51" height="1.6" transform="translate(-2.16 18.09) rotate(-9.11)"/><path d="M113.55,23.17a.32.32,0,0,1-.37-.29l0,.34Z" transform="translate(0 0.02)"/><path d="M117.38,22.55a.32.32,0,0,0,.26-.38l0,.33Z" transform="translate(0 0.02)"/><path d="M119.13,21.93,119,21a.33.33,0,0,0-.37-.28l-.85.13a.33.33,0,0,0-.27.39h0l.2,1.24,1.49-.24Z" transform="translate(0 0.02)"/><path d="M119.5,22.21a.33.33,0,0,1-.37-.28l.05.33Z" transform="translate(0 0.02)"/><path d="M123.33,21.6a.33.33,0,0,0,.26-.39l.06.34Z" transform="translate(0 0.02)"/><rect x="123.51" y="19.84" width="1.51" height="1.6" transform="translate(-1.7 19.95) rotate(-9.11)"/><rect x="125" y="19.6" width="1.51" height="1.6" transform="translate(-1.65 20.18) rotate(-9.11)"/><path d="M127.54,19.3a.33.33,0,0,1,.37.29l.2,1.24-1.49.24-.25-1.58Z" transform="translate(0 0.02)"/><path d="M132.64,18.49l.85-.14a.33.33,0,0,1,.37.29l.15.9a.33.33,0,0,1-.26.39l-.86.14a.34.34,0,0,1-.37-.29l-.14-.91A.32.32,0,0,1,132.64,18.49Z" transform="translate(0 0.02)"/><rect x="99.95" y="25.24" width="1.51" height="1.6" transform="translate(-2.85 16.29) rotate(-9.11)"/><path d="M101.64,25.08l-.32.05.06.33a.32.32,0,0,1,.26-.38Z" transform="translate(0 0.02)"/><path d="M101.89,26.66a.34.34,0,0,1-.37-.29l.06.34Z" transform="translate(0 0.02)"/><path d="M104.24,26.28a.33.33,0,0,0,.26-.39l0,.34Z" transform="translate(0 0.02)"/><path d="M106,25.66l-.15-.91a.33.33,0,0,0-.37-.29l-.85.14a.33.33,0,0,0-.27.39h0l.2,1.24L106,26Z" transform="translate(0 0.02)"/><path d="M107.33,24.51l0-.34-.32,0A.34.34,0,0,1,107.33,24.51Z" transform="translate(0 0.02)"/><path d="M106.36,25.94a.33.33,0,0,1-.37-.28L106,26Z" transform="translate(0 0.02)"/><path d="M107.48,25.42a.33.33,0,0,0,.37.28l.85-.14a.32.32,0,0,0,.26-.38l-.2-1.25-1.48.24Z" transform="translate(0 0.02)"/><path d="M109.08,23.88l-.32.05.06.34a.33.33,0,0,1,.26-.39Z" transform="translate(0 0.02)"/><path d="M111.79,23.79l-.05-.33-.32.05A.33.33,0,0,1,111.79,23.79Z" transform="translate(0 0.02)"/><path d="M111.94,24.7a.34.34,0,0,0,.37.29l1.17-.19-.25-1.58-1.49.24Z" transform="translate(0 0.02)"/><path d="M113.8,24.75l.85-.14a.33.33,0,0,0,.27-.39l-.15-.9a.33.33,0,0,0-.37-.29l-1.17.19.25,1.58Z" transform="translate(0 0.02)"/><path d="M116.14,24.37a.32.32,0,0,0,.26-.38l.06.33Z" transform="translate(0 0.02)"/><path d="M116.52,22.69a.33.33,0,0,0-.26.39h0l.2,1.24,1.49-.24-.26-1.58Z" transform="translate(0 0.02)"/><rect x="117.81" y="22.37" width="1.51" height="1.6" transform="translate(-2.18 19.08) rotate(-9.11)"/><path d="M119.75,23.79l.86-.13a.34.34,0,0,0,.26-.39l-.15-.91a.33.33,0,0,0-.37-.28l-1.17.18.25,1.58Z" transform="translate(0 0.02)"/><path d="M123.33,21.6l-.86.14a.32.32,0,0,0-.26.38h0l.15.91a.33.33,0,0,0,.37.29l1.17-.19-.25-1.58Z" transform="translate(0 0.02)"/><rect x="123.76" y="21.42" width="1.51" height="1.6" transform="translate(-1.95 20.01) rotate(-9.11)"/><path d="M125.45,21.26l-.32,0,.06.34a.33.33,0,0,1,.26-.39Z" transform="translate(0 0.02)"/><path d="M126.68,21.41l-.06-.34-.31.05A.33.33,0,0,1,126.68,21.41Z" transform="translate(0 0.02)"/><path d="M126.56,22.7a.33.33,0,0,0,.26-.38l.06.33Z" transform="translate(0 0.02)"/><path d="M125.7,22.84a.33.33,0,0,1-.37-.29l.06.34Z" transform="translate(0 0.02)"/><rect x="126.74" y="20.94" width="1.51" height="1.6" transform="translate(-1.84 20.47) rotate(-9.11)"/><path d="M129.91,20.54l.86-.13a.33.33,0,0,1,.37.28l.15.91A.33.33,0,0,1,131,22l-.85.13a.33.33,0,0,1-.37-.28l-.15-.91A.33.33,0,0,1,129.91,20.54Z" transform="translate(0 0.02)"/><path d="M134.38,19.83l.85-.14a.33.33,0,0,1,.37.29l.15.9a.33.33,0,0,1-.26.39l-.86.14a.33.33,0,0,1-.37-.29l-.14-.91A.32.32,0,0,1,134.38,19.83Z" transform="translate(0 0.02)"/><rect x="100.21" y="26.82" width="1.51" height="1.6" transform="translate(-3.1 16.35) rotate(-9.11)"/><rect x="101.69" y="26.58" width="1.51" height="1.6" transform="translate(-3.04 16.58) rotate(-9.11)"/><rect x="103.18" y="26.34" width="1.51" height="1.6" transform="translate(-2.99 16.81) rotate(-9.11)"/><rect x="104.67" y="26.1" width="1.51" height="1.6" transform="translate(-2.93 17.04) rotate(-9.11)"/><path d="M106.61,27.52l.86-.14a.33.33,0,0,0,.26-.38l-.15-.91a.33.33,0,0,0-.37-.29L106,26l.25,1.58Z" transform="translate(0 0.02)"/><path d="M110.19,25.33l-.86.13a.33.33,0,0,0-.26.39h0l.15.91a.33.33,0,0,0,.37.28l1.17-.19-.25-1.57Z" transform="translate(0 0.02)"/><path d="M111.08,26.8l.85-.13a.33.33,0,0,0,.26-.39l-.14-.91a.33.33,0,0,0-.37-.28l-1.17.19.25,1.57Z" transform="translate(0 0.02)"/><path d="M114.91,26.19a.33.33,0,0,0,.26-.39l0,.34Z" transform="translate(0 0.02)"/><path d="M115.29,24.51a.33.33,0,0,0-.27.38h0l.2,1.25,1.49-.24-.25-1.58Z" transform="translate(0 0.02)"/><rect x="116.58" y="24.19" width="1.51" height="1.6" transform="matrix(0.99, -0.16, 0.16, 0.99, -2.48, 18.9)"/><rect x="118.06" y="23.95" width="1.51" height="1.6" transform="matrix(0.99, -0.16, 0.16, 0.99, -2.42, 19.14)"/><path d="M119.75,23.79l-.32.05.06.34a.33.33,0,0,1,.26-.39Z" transform="translate(0 0.02)"/><path d="M120,25.37a.33.33,0,0,1-.37-.28l.06.33Z" transform="translate(0 0.02)"/><path d="M124,23.46l0-.33-.32.05A.33.33,0,0,1,124,23.46Z" transform="translate(0 0.02)"/><rect x="124.02" y="23" width="1.51" height="1.6" transform="translate(-2.2 20.07) rotate(-9.11)"/><rect x="125.5" y="22.76" width="1.51" height="1.6" transform="translate(-2.14 20.3) rotate(-9.11)"/><rect x="126.99" y="22.52" width="1.51" height="1.6" transform="translate(-2.08 20.53) rotate(-9.11)"/><path d="M128.93,23.94a.33.33,0,0,1-.37-.28l.06.33Z" transform="translate(0 0.02)"/><path d="M131.66,21.88l.85-.13a.33.33,0,0,1,.37.28l.15.91a.33.33,0,0,1-.27.39l-.85.13a.33.33,0,0,1-.37-.28l-.15-.91A.34.34,0,0,1,131.66,21.88Z" transform="translate(0 0.02)"/><path d="M100.54,29.77a.33.33,0,0,0,.37.28l1.17-.19-.25-1.57-1.49.23Z" transform="translate(0 0.02)"/><rect x="101.95" y="28.16" width="1.51" height="1.6" transform="translate(-3.29 16.64) rotate(-9.11)"/><path d="M103.63,28l-.31.05.05.33a.32.32,0,0,1,.26-.38Z" transform="translate(0 0.02)"/><path d="M104.86,28.14l0-.33-.32.05A.33.33,0,0,1,104.86,28.14Z" transform="translate(0 0.02)"/><path d="M105,29.05a.33.33,0,0,0,.37.29l.85-.14a.33.33,0,0,0,.26-.39l-.2-1.24-1.48.24Z" transform="translate(0 0.02)"/><path d="M106.61,27.52l-.32.05.06.34a.33.33,0,0,1,.26-.39Z" transform="translate(0 0.02)"/><path d="M113.42,26.43l-.86.13a.34.34,0,0,0-.26.39h0l.15.91a.33.33,0,0,0,.37.28L114,28l-.25-1.58Z" transform="translate(0 0.02)"/><rect x="113.85" y="26.25" width="1.51" height="1.6" transform="translate(-2.84 18.5) rotate(-9.11)"/><rect x="115.34" y="26.01" width="1.51" height="1.6" transform="translate(-2.78 18.73) rotate(-9.11)"/><path d="M117,25.85l-.32,0,.06.34a.33.33,0,0,1,.26-.39Z" transform="translate(0 0.02)"/><path d="M118.25,26l0-.34-.32.05A.33.33,0,0,1,118.25,26Z" transform="translate(0 0.02)"/><path d="M117.28,27.43a.33.33,0,0,1-.37-.29l0,.34Z" transform="translate(0 0.02)"/><path d="M118.4,26.9a.33.33,0,0,0,.37.29l1.17-.19-.25-1.58-1.49.24Z" transform="translate(0 0.02)"/><path d="M120.86,25.23a.34.34,0,0,1,.37.29l.2,1.24-1.49.24-.25-1.58Z" transform="translate(0 0.02)"/><path d="M121.75,26.71a.32.32,0,0,1-.37-.28l.05.33Z" transform="translate(0 0.02)"/><rect x="124.27" y="24.58" width="1.51" height="1.6" transform="translate(-2.44 20.13) rotate(-9.11)"/><path d="M126,24.42l-.32,0,0,.33a.33.33,0,0,1,.27-.38Z" transform="translate(0 0.02)"/><path d="M127.18,24.57l-.05-.34-.32.05A.33.33,0,0,1,127.18,24.57Z" transform="translate(0 0.02)"/><rect x="127.25" y="24.1" width="1.51" height="1.6" transform="translate(-2.33 20.59) rotate(-9.11)"/><path d="M129.79,23.8a.34.34,0,0,1,.37.29l.2,1.24-1.49.24L128.62,24Z" transform="translate(0 0.02)"/><path d="M134.51,24.67a.33.33,0,0,0,.26-.39l0,.34Z" transform="translate(0 0.02)"/><path d="M134.89,23a.32.32,0,0,0-.27.38h0l.2,1.25,1.49-.24-.25-1.58Z" transform="translate(0 0.02)"/><path d="M137.23,22.61a.33.33,0,0,1,.37.29l.2,1.24-1.49.24-.25-1.58Z" transform="translate(0 0.02)"/><path d="M102.14,30.2l-.06-.34-.31.06A.32.32,0,0,1,102.14,30.2Z" transform="translate(0 0.02)"/><rect x="102.2" y="29.74" width="1.51" height="1.6" transform="translate(-3.54 16.7) rotate(-9.11)"/><path d="M104.14,31.15a.33.33,0,0,1-.37-.28l0,.34Z" transform="translate(0 0.02)"/><path d="M106.86,29.1l.86-.14a.33.33,0,0,1,.37.29l.15.9a.34.34,0,0,1-.27.39l-.85.14a.33.33,0,0,1-.37-.29l-.15-.91A.33.33,0,0,1,106.86,29.1Z" transform="translate(0 0.02)"/><path d="M110.7,28.48l-.86.14a.33.33,0,0,0-.26.39h0l.14.91a.33.33,0,0,0,.37.28l1.18-.19L111,28.43Z" transform="translate(0 0.02)"/><path d="M112.18,28.25a.32.32,0,0,1,.37.28l.2,1.24-1.48.24L111,28.43Z" transform="translate(0 0.02)"/><path d="M113.07,29.72a.33.33,0,0,1-.37-.28l0,.33Z" transform="translate(0 0.02)"/><path d="M115.53,28.05l0-.33-.32.05A.33.33,0,0,1,115.53,28.05Z" transform="translate(0 0.02)"/><rect x="115.59" y="27.59" width="1.51" height="1.6" transform="translate(-3.03 18.79) rotate(-9.11)"/><path d="M118.14,27.29a.33.33,0,0,1,.37.29l.2,1.24-1.49.24L117,27.48Z" transform="translate(0 0.02)"/><path d="M120,27.34l0-.34-.32.05A.33.33,0,0,1,120,27.34Z" transform="translate(0 0.02)"/><rect x="120.06" y="26.87" width="1.51" height="1.6" transform="translate(-2.86 19.49) rotate(-9.11)"/><path d="M122,28.29l.85-.14a.32.32,0,0,0,.27-.38l-.15-.91a.33.33,0,0,0-.37-.28l-1.17.18.25,1.58Z" transform="translate(0 0.02)"/><rect x="124.52" y="26.16" width="1.51" height="1.6" transform="translate(-2.69 20.19) rotate(-9.11)"/><path d="M127.58,27.05a.33.33,0,0,0,.37.29l1.17-.19-.25-1.58-1.49.24Z" transform="translate(0 0.02)"/><path d="M130.56,26.58a.33.33,0,0,1-.27.38l-1.17.19-.25-1.58,1.49-.24Z" transform="translate(0 0.02)"/><path d="M134.51,24.67l-.86.13a.34.34,0,0,0-.26.39h0l.14.91a.33.33,0,0,0,.37.28l1.18-.18-.26-1.58Z" transform="translate(0 0.02)"/><rect x="134.94" y="24.49" width="1.51" height="1.6" transform="translate(-2.29 21.82) rotate(-9.11)"/><rect x="136.43" y="24.25" width="1.51" height="1.6" transform="translate(-2.24 22.05) rotate(-9.11)"/><path d="M102.54,32.69a.33.33,0,0,0,.37.28l1.17-.19-.26-1.57-1.48.23Z" transform="translate(0 0.02)"/><rect x="103.94" y="31.08" width="1.51" height="1.6" transform="translate(-3.73 16.99) rotate(-9.11)"/><path d="M105.88,32.49l.86-.13A.33.33,0,0,0,107,32l-.15-.91a.32.32,0,0,0-.37-.28l-1.17.19.26,1.58Z" transform="translate(0 0.02)"/><path d="M108.23,32.12a.33.33,0,0,0,.26-.39l.05.34Z" transform="translate(0 0.02)"/><path d="M110,31.49l-.15-.9a.33.33,0,0,0-.37-.29l-.85.14a.33.33,0,0,0-.27.38h0l.2,1.25,1.49-.24Z" transform="translate(0 0.02)"/><path d="M111.32,30.35l0-.34-.32,0A.33.33,0,0,1,111.32,30.35Z" transform="translate(0 0.02)"/><path d="M111.2,31.64a.32.32,0,0,0,.26-.38l.06.33Z" transform="translate(0 0.02)"/><path d="M110.35,31.78a.33.33,0,0,1-.37-.29l0,.34Z" transform="translate(0 0.02)"/><rect x="111.38" y="29.88" width="1.51" height="1.6" transform="translate(-3.45 18.15) rotate(-9.11)"/><path d="M113.93,29.59a.33.33,0,0,1,.37.28l.19,1.24-1.48.24-.26-1.58Z" transform="translate(0 0.02)"/><path d="M114.81,31.06a.33.33,0,0,1-.37-.28l0,.33Z" transform="translate(0 0.02)"/><path d="M115.93,30.54a.33.33,0,0,0,.37.29l1.17-.19-.25-1.58-1.49.24Z" transform="translate(0 0.02)"/><path d="M118.91,30.06a.34.34,0,0,1-.27.39l-1.17.19-.25-1.58,1.49-.24Z" transform="translate(0 0.02)"/><path d="M120.39,29.82a.33.33,0,0,0,.37.29l.86-.14a.33.33,0,0,0,.26-.38l-.2-1.25-1.49.24Z" transform="translate(0 0.02)"/><path d="M122,28.29l-.32.05.06.34a.33.33,0,0,1,.26-.39Z" transform="translate(0 0.02)"/><path d="M124.6,29.5a.34.34,0,0,0,.26-.39l0,.33Z" transform="translate(0 0.02)"/><rect x="124.78" y="27.74" width="1.51" height="1.6" transform="translate(-2.94 20.25) rotate(-9.11)"/><path d="M126.72,29.16a.33.33,0,0,1-.37-.29l.05.34Z" transform="translate(0 0.02)"/><path d="M130.93,26.86l.85-.14a.33.33,0,0,1,.37.29l.15.91a.33.33,0,0,1-.26.38l-.86.14a.33.33,0,0,1-.37-.29l-.15-.9A.33.33,0,0,1,130.93,26.86Z" transform="translate(0 0.02)"/><path d="M135.13,26.53l0-.33-.32.05A.33.33,0,0,1,135.13,26.53Z" transform="translate(0 0.02)"/><rect x="135.19" y="26.07" width="1.51" height="1.6" transform="matrix(0.99, -0.16, 0.16, 0.99, -2.54, 21.88)"/><rect x="136.68" y="25.83" width="1.51" height="1.6" transform="translate(-2.48 22.11) rotate(-9.11)"/><path d="M101.42,33.21l.85-.14a.33.33,0,0,1,.37.29l.15.91a.33.33,0,0,1-.26.38l-.86.14a.33.33,0,0,1-.37-.29l-.14-.9A.33.33,0,0,1,101.42,33.21Z" transform="translate(0 0.02)"/><path d="M107.37,32.26a.32.32,0,0,0-.26.38h0l.2,1.25,1.49-.24-.26-1.58Z" transform="translate(0 0.02)"/><rect x="108.66" y="31.94" width="1.51" height="1.6" transform="translate(-3.81 17.75) rotate(-9.11)"/><rect x="110.15" y="31.7" width="1.51" height="1.6" transform="translate(-3.75 17.98) rotate(-9.11)"/><rect x="111.64" y="31.46" width="1.51" height="1.6" transform="translate(-3.69 18.21) rotate(-9.11)"/><rect x="113.12" y="31.22" width="1.51" height="1.6" transform="translate(-3.64 18.45) rotate(-9.11)"/><path d="M115.67,30.93a.33.33,0,0,1,.37.28l.2,1.24-1.49.24-.26-1.58Z" transform="translate(0 0.02)"/><path d="M124.6,29.5l-.86.13a.33.33,0,0,0-.26.39h0l.14.91a.33.33,0,0,0,.37.28l1.17-.19-.25-1.58Z" transform="translate(0 0.02)"/><rect x="125.03" y="29.32" width="1.51" height="1.6" transform="translate(-3.18 20.31) rotate(-9.11)"/><rect x="126.52" y="29.08" width="1.51" height="1.6" transform="translate(-3.13 20.54) rotate(-9.11)"/><path d="M129.06,28.78a.33.33,0,0,1,.37.28l.2,1.25-1.49.24L127.89,29Z" transform="translate(0 0.02)"/><path d="M130,30.26a.32.32,0,0,1-.37-.29l0,.34Z" transform="translate(0 0.02)"/><path d="M132.67,28.2l.85-.14a.33.33,0,0,1,.37.29l.15.91a.33.33,0,0,1-.26.38l-.86.14a.33.33,0,0,1-.37-.28l-.14-.91A.33.33,0,0,1,132.67,28.2Z" transform="translate(0 0.02)"/><path d="M135.53,29a.33.33,0,0,0,.37.28l1.17-.18-.25-1.58-1.49.23Z" transform="translate(0 0.02)"/><path d="M138.5,28.54a.33.33,0,0,1-.26.39l-1.17.19-.25-1.58,1.48-.24Z" transform="translate(0 0.02)"/><path d="M103.16,34.55l.85-.14a.33.33,0,0,1,.37.29l.15.91a.32.32,0,0,1-.26.38l-.86.14a.33.33,0,0,1-.37-.28l-.14-.91A.33.33,0,0,1,103.16,34.55Z" transform="translate(0 0.02)"/><path d="M107.24,35.52a.33.33,0,0,0,.27-.39l0,.34Z" transform="translate(0 0.02)"/><rect x="107.42" y="33.76" width="1.51" height="1.6" transform="translate(-4.11 17.58) rotate(-9.11)"/><path d="M109.11,33.6l-.31,0,0,.33a.32.32,0,0,1,.26-.38Z" transform="translate(0 0.02)"/><path d="M109.36,35.18a.34.34,0,0,1-.37-.29l.06.34Z" transform="translate(0 0.02)"/><path d="M111.83,33.51l-.06-.34-.31,0A.33.33,0,0,1,111.83,33.51Z" transform="translate(0 0.02)"/><path d="M111.71,34.8a.33.33,0,0,0,.26-.39l0,.34Z" transform="translate(0 0.02)"/><rect x="111.89" y="33.04" width="1.51" height="1.6" transform="matrix(0.99, -0.16, 0.16, 0.99, -3.94, 18.27)"/><path d="M113.58,32.88l-.32,0,0,.34a.33.33,0,0,1,.27-.39Z" transform="translate(0 0.02)"/><path d="M114.8,33l0-.34-.32.05A.33.33,0,0,1,114.8,33Z" transform="translate(0 0.02)"/><path d="M114.68,34.32a.32.32,0,0,0,.27-.38l0,.33Z" transform="translate(0 0.02)"/><path d="M113.83,34.46a.33.33,0,0,1-.37-.28l.05.33Z" transform="translate(0 0.02)"/><rect x="114.86" y="32.56" width="1.51" height="1.6" transform="translate(-3.83 18.74) rotate(-9.11)"/><path d="M118,32.17l.86-.14a.33.33,0,0,1,.37.28l.14.91a.33.33,0,0,1-.26.39l-.86.13a.32.32,0,0,1-.37-.28l-.14-.91A.32.32,0,0,1,118,32.17Z" transform="translate(0 0.02)"/><path d="M128.19,30.88l-.05-.33-.32.05A.33.33,0,0,1,128.19,30.88Z" transform="translate(0 0.02)"/><path d="M128.08,32.18a.33.33,0,0,0,.26-.39l0,.34Z" transform="translate(0 0.02)"/><rect x="128.26" y="30.42" width="1.51" height="1.6" transform="translate(-3.32 20.83) rotate(-9.11)"/><path d="M130.8,30.12a.33.33,0,0,1,.37.28l.2,1.25-1.49.24-.25-1.58Z" transform="translate(0 0.02)"/><path d="M131.69,31.6a.33.33,0,0,1-.37-.29l.05.34Z" transform="translate(0 0.02)"/><path d="M101.92,36.37l.86-.14a.33.33,0,0,1,.37.29l.15.9a.33.33,0,0,1-.27.39l-.85.14a.33.33,0,0,1-.37-.29l-.15-.9A.33.33,0,0,1,101.92,36.37Z" transform="translate(0 0.02)"/><path d="M105.76,35.75l-.86.14a.33.33,0,0,0-.26.39h0l.14.91a.33.33,0,0,0,.37.28l1.18-.19-.26-1.58Z" transform="translate(0 0.02)"/><rect x="106.19" y="35.57" width="1.51" height="1.6" transform="translate(-4.41 17.4) rotate(-9.11)"/><rect x="107.68" y="35.34" width="1.51" height="1.6" transform="translate(-4.36 17.64) rotate(-9.11)"/><rect x="109.17" y="35.1" width="1.51" height="1.6" transform="translate(-4.3 17.87) rotate(-9.11)"/><rect x="110.65" y="34.86" width="1.51" height="1.6" transform="translate(-4.24 18.1) rotate(-9.11)"/><rect x="112.14" y="34.62" width="1.51" height="1.6" transform="translate(-4.19 18.33) rotate(-9.11)"/><rect x="113.63" y="34.38" width="1.51" height="1.6" transform="translate(-4.13 18.57) rotate(-9.11)"/><rect x="115.12" y="34.14" width="1.51" height="1.6" transform="translate(-4.07 18.8) rotate(-9.11)"/><path d="M117.06,35.56a.33.33,0,0,1-.37-.28l0,.33Z" transform="translate(0 0.02)"/><path d="M119.4,35.19a.33.33,0,0,0,.26-.39l.06.34Z" transform="translate(0 0.02)"/><path d="M119.78,33.51a.32.32,0,0,0-.26.38h0l.2,1.25,1.49-.24L121,33.32Z" transform="translate(0 0.02)"/><rect x="121.07" y="33.19" width="1.51" height="1.6" transform="translate(-3.85 19.73) rotate(-9.11)"/><path d="M123.61,32.89a.33.33,0,0,1,.37.29l.2,1.24-1.49.24-.25-1.58Z" transform="translate(0 0.02)"/><path d="M125.73,32.55a.33.33,0,0,0-.26.39h0l.2,1.24,1.49-.24-.25-1.58Z" transform="translate(0 0.02)"/><rect x="127.02" y="32.23" width="1.51" height="1.6" transform="translate(-3.62 20.66) rotate(-9.11)"/><rect x="128.51" y="32" width="1.51" height="1.6" transform="translate(-3.56 20.89) rotate(-9.11)"/><rect x="130" y="31.76" width="1.51" height="1.6" transform="translate(-3.51 21.12) rotate(-9.11)"/><path d="M132.54,31.46a.33.33,0,0,1,.37.29l.2,1.24-1.49.24-.25-1.58Z" transform="translate(0 0.02)"/><path d="M134.66,31.12l.86-.14a.34.34,0,0,1,.37.29l.14.91a.32.32,0,0,1-.26.38l-.85.14a.33.33,0,0,1-.37-.29l-.15-.9A.33.33,0,0,1,134.66,31.12Z" transform="translate(0 0.02)"/><path d="M137.64,30.64l.85-.13a.33.33,0,0,1,.37.28l.15.91a.34.34,0,0,1-.26.39l-.86.13a.33.33,0,0,1-.37-.28l-.14-.91A.33.33,0,0,1,137.64,30.64Z" transform="translate(0 0.02)"/><path d="M113.82,36.43l0-.34-.32,0A.33.33,0,0,1,113.82,36.43Z" transform="translate(0 0.02)"/><rect x="113.88" y="35.96" width="1.51" height="1.6" transform="translate(-4.38 18.63) rotate(-9.11)"/><rect x="115.37" y="35.72" width="1.51" height="1.6" transform="translate(-4.32 18.86) rotate(-9.11)"/><rect x="116.86" y="35.48" width="1.51" height="1.6" transform="translate(-4.26 19.09) rotate(-9.11)"/><rect x="118.35" y="35.25" width="1.51" height="1.6" transform="matrix(0.99, -0.16, 0.16, 0.99, -4.21, 19.32)"/><rect x="119.84" y="35.01" width="1.51" height="1.6" transform="translate(-4.15 19.56) rotate(-9.11)"/><rect x="121.32" y="34.77" width="1.51" height="1.6" transform="translate(-4.09 19.79) rotate(-9.11)"/><path d="M124.38,35.66a.33.33,0,0,1-.26.39l-1.17.19-.26-1.58,1.49-.24Z" transform="translate(0 0.02)"/><path d="M125.61,35.81a.33.33,0,0,0,.26-.38l0,.33Z" transform="translate(0 0.02)"/><rect x="125.79" y="34.05" width="1.51" height="1.6" transform="translate(-3.92 20.49) rotate(-9.11)"/><path d="M127.48,33.89l-.32,0,0,.34a.33.33,0,0,1,.27-.39Z" transform="translate(0 0.02)"/><path d="M131.68,33.56l-.06-.33-.31.05A.33.33,0,0,1,131.68,33.56Z" transform="translate(0 0.02)"/><rect x="131.74" y="33.1" width="1.51" height="1.6" transform="matrix(0.99, -0.16, 0.16, 0.99, -3.7, 21.42)"/><path d="M133.68,34.52a.33.33,0,0,1-.37-.29l.05.34Z" transform="translate(0 0.02)"/><path d="M137.78,33.52l-.15-.91a.34.34,0,0,0-.37-.29l-.86.14a.33.33,0,0,0-.26.39h0l.2,1.24,1.49-.24Z" transform="translate(0 0.02)"/><path d="M138.15,33.8a.32.32,0,0,1-.37-.28l.05.33Z" transform="translate(0 0.02)"/><rect x="114.14" y="37.54" width="1.51" height="1.6" transform="translate(-4.62 18.69) rotate(-9.11)"/><path d="M115.82,37.38l-.31,0,0,.34a.33.33,0,0,1,.26-.39Z" transform="translate(0 0.02)"/><path d="M117.05,37.53l0-.34-.32.05A.33.33,0,0,1,117.05,37.53Z" transform="translate(0 0.02)"/><path d="M117.19,38.44a.33.33,0,0,0,.37.28l1.18-.19L118.48,37l-1.48.24Z" transform="translate(0 0.02)"/><rect x="118.6" y="36.82" width="1.51" height="1.6" transform="translate(-4.45 19.38) rotate(-9.11)"/><rect x="120.09" y="36.59" width="1.51" height="1.6" transform="translate(-4.4 19.62) rotate(-9.11)"/><path d="M123.15,37.48a.33.33,0,0,1-.27.39l-1.17.19-.25-1.58,1.49-.24Z" transform="translate(0 0.02)"/><path d="M123.26,36.19l-.31.05,0,.33a.33.33,0,0,1,.26-.38Z" transform="translate(0 0.02)"/><path d="M125.61,35.81l-.86.14a.33.33,0,0,0-.26.38h0l.15.91a.32.32,0,0,0,.37.29l1.17-.19-.26-1.58Z" transform="translate(0 0.02)"/><rect x="126.04" y="35.63" width="1.51" height="1.6" transform="translate(-4.17 20.55) rotate(-9.11)"/><path d="M129.22,35.23l.85-.13a.33.33,0,0,1,.37.28l.15.91a.32.32,0,0,1-.26.38l-.86.14a.33.33,0,0,1-.37-.28l-.15-.91A.33.33,0,0,1,129.22,35.23Z" transform="translate(0 0.02)"/><rect x="131.99" y="34.68" width="1.51" height="1.6" transform="translate(-3.94 21.48) rotate(-9.11)"/><path d="M134.54,34.38a.33.33,0,0,1,.37.29l.2,1.24-1.49.24-.26-1.58Z" transform="translate(0 0.02)"/><rect x="136.46" y="33.96" width="1.51" height="1.6" transform="translate(-3.77 22.17) rotate(-9.11)"/><path d="M139,33.66a.33.33,0,0,1,.37.29l.2,1.24-1.49.24-.25-1.58Z" transform="translate(0 0.02)"/><rect x="114.39" y="39.12" width="1.51" height="1.6" transform="translate(-4.87 18.75) rotate(-9.11)"/><path d="M120.28,38.63l-.06-.34-.31.05A.34.34,0,0,1,120.28,38.63Z" transform="translate(0 0.02)"/><path d="M120.16,39.92a.32.32,0,0,0,.26-.38l.06.33Z" transform="translate(0 0.02)"/><rect x="120.34" y="38.16" width="1.51" height="1.6" transform="translate(-4.64 19.68) rotate(-9.11)"/><path d="M122,38l-.32.06.06.33A.33.33,0,0,1,122,38Z" transform="translate(0 0.02)"/><path d="M122.28,39.58a.33.33,0,0,1-.37-.28l.06.33Z" transform="translate(0 0.02)"/><path d="M126.23,37.68l0-.34-.32,0A.33.33,0,0,1,126.23,37.68Z" transform="translate(0 0.02)"/><path d="M126.11,39a.33.33,0,0,0,.27-.39l.05.34Z" transform="translate(0 0.02)"/><rect x="126.29" y="37.21" width="1.51" height="1.6" transform="translate(-4.42 20.61) rotate(-9.11)"/><path d="M128.23,38.63a.33.33,0,0,1-.37-.29l.06.34Z" transform="translate(0 0.02)"/><path d="M132.07,38a.34.34,0,0,0,.26-.39l0,.33Z" transform="translate(0 0.02)"/><rect x="132.25" y="36.26" width="1.51" height="1.6" transform="translate(-4.19 21.54) rotate(-9.11)"/><path d="M135.31,37.15a.34.34,0,0,1-.27.39l-1.17.19-.25-1.58,1.49-.24Z" transform="translate(0 0.02)"/><path d="M136.79,36.91a.33.33,0,0,0,.37.29l1.18-.19-.26-1.58-1.49.24Z" transform="translate(0 0.02)"/><path d="M139.77,36.44a.33.33,0,0,1-.26.38l-1.17.19-.26-1.58,1.49-.24Z" transform="translate(0 0.02)"/><path d="M114.72,42.07a.34.34,0,0,0,.37.29l.86-.14a.33.33,0,0,0,.26-.39l-.2-1.24-1.48.24Z" transform="translate(0 0.02)"/><path d="M118.67,40.16l-.85.14a.33.33,0,0,0-.26.39h0l.14.9a.33.33,0,0,0,.37.29l1.17-.19L119,40.11Z" transform="translate(0 0.02)"/><rect x="119.11" y="39.98" width="1.51" height="1.6" transform="translate(-4.95 19.5) rotate(-9.11)"/><rect x="120.59" y="39.74" width="1.51" height="1.6" transform="translate(-4.89 19.74) rotate(-9.11)"/><path d="M123.14,39.45a.33.33,0,0,1,.37.28l.2,1.25-1.49.23L122,39.63Z" transform="translate(0 0.02)"/><path d="M124.88,40.79a.33.33,0,0,0,.26-.39l.06.34Z" transform="translate(0 0.02)"/><path d="M124,40.92a.32.32,0,0,1-.37-.28l.06.34Z" transform="translate(0 0.02)"/><path d="M125.26,39.11a.32.32,0,0,0-.26.38h0l.2,1.25,1.48-.24-.25-1.58Z" transform="translate(0 0.02)"/><rect x="126.55" y="38.79" width="1.51" height="1.6" transform="translate(-4.66 20.67) rotate(-9.11)"/><rect x="128.04" y="38.55" width="1.51" height="1.6" transform="translate(-4.61 20.9) rotate(-9.11)"/><rect x="129.52" y="38.31" width="1.51" height="1.6" transform="translate(-4.55 21.13) rotate(-9.11)"/><rect x="131.01" y="38.07" width="1.51" height="1.6" transform="translate(-4.49 21.36) rotate(-9.11)"/><rect x="132.5" y="37.84" width="1.51" height="1.6" transform="translate(-4.44 21.6) rotate(-9.11)"/><path d="M134.19,37.68l-.32,0,0,.33a.32.32,0,0,1,.27-.38Z" transform="translate(0 0.02)"/><path d="M135.68,37.44l.85-.14a.33.33,0,0,1,.37.28l.15.91a.33.33,0,0,1-.27.39l-.85.14a.33.33,0,0,1-.37-.29l-.15-.91A.33.33,0,0,1,135.68,37.44Z" transform="translate(0 0.02)"/><path d="M116.2,43.8a.33.33,0,0,0,.27-.39l0,.34Z" transform="translate(0 0.02)"/><path d="M118,43.17l-.14-.91a.33.33,0,0,0-.37-.28l-.86.14a.33.33,0,0,0-.26.38h0l.2,1.25,1.49-.24Z" transform="translate(0 0.02)"/><path d="M119.3,42l-.06-.34-.31.05A.33.33,0,0,1,119.3,42Z" transform="translate(0 0.02)"/><path d="M119.44,42.93a.33.33,0,0,0,.37.29l.86-.14a.33.33,0,0,0,.26-.38l-.2-1.25-1.49.24Z" transform="translate(0 0.02)"/><path d="M121.05,41.4l-.32.05,0,.34a.34.34,0,0,1,.27-.39Z" transform="translate(0 0.02)"/><path d="M122.27,41.55l0-.34-.32,0A.33.33,0,0,1,122.27,41.55Z" transform="translate(0 0.02)"/><path d="M122.42,42.46a.33.33,0,0,0,.37.28l1.17-.19L123.71,41l-1.49.23Z" transform="translate(0 0.02)"/><rect x="123.82" y="40.85" width="1.51" height="1.6" transform="translate(-5.02 20.26) rotate(-9.11)"/><rect x="125.31" y="40.61" width="1.51" height="1.6" transform="translate(-4.97 20.49) rotate(-9.11)"/><rect x="126.8" y="40.37" width="1.51" height="1.6" transform="translate(-4.91 20.73) rotate(-9.11)"/><path d="M129.86,41.26a.33.33,0,0,1-.26.39l-1.18.19-.25-1.58,1.49-.24Z" transform="translate(0 0.02)"/><path d="M130,40l-.32.05.05.34A.33.33,0,0,1,130,40Z" transform="translate(0 0.02)"/><path d="M131.2,40.12l0-.34-.32,0A.33.33,0,0,1,131.2,40.12Z" transform="translate(0 0.02)"/><path d="M131.35,41a.33.33,0,0,0,.37.28l1.17-.19-.25-1.58-1.49.24Z" transform="translate(0 0.02)"/><path d="M134.32,40.55a.33.33,0,0,1-.26.39l-1.17.18-.25-1.58,1.48-.23Z" transform="translate(0 0.02)"/><path d="M115.35,43.93a.33.33,0,0,0-.26.39h0l.19,1.24,1.49-.23-.25-1.58Z" transform="translate(0 0.02)"/><path d="M118.21,44.75a.33.33,0,0,1-.27.39l-1.17.19-.25-1.58,1.49-.24Z" transform="translate(0 0.02)"/><path d="M121.3,43l.86-.14a.34.34,0,0,1,.37.29l.14.91a.33.33,0,0,1-.26.38l-.86.14a.33.33,0,0,1-.37-.29l-.14-.9A.33.33,0,0,1,121.3,43Z" transform="translate(0 0.02)"/><path d="M125.5,42.65l0-.33-.32,0A.33.33,0,0,1,125.5,42.65Z" transform="translate(0 0.02)"/><path d="M125.65,43.56a.33.33,0,0,0,.37.28l1.17-.18-.25-1.58-1.49.24Z" transform="translate(0 0.02)"/><rect x="127.05" y="41.95" width="1.51" height="1.6" transform="translate(-5.16 20.79) rotate(-9.11)"/><path d="M128.74,41.79l-.32.05.06.33a.33.33,0,0,1,.26-.38Z" transform="translate(0 0.02)"/><path d="M134.31,42.51a.32.32,0,0,0,.27-.38l0,.33Z" transform="translate(0 0.02)"/><path d="M136.06,41.89l-.14-.91a.33.33,0,0,0-.37-.28l-.86.13a.33.33,0,0,0-.26.39h0l.2,1.24,1.49-.23Z" transform="translate(0 0.02)"/><path d="M140.53,41.17l-.15-.9A.33.33,0,0,0,140,40l-.85.14a.32.32,0,0,0-.26.38h0l.19,1.25,1.49-.24Z" transform="translate(0 0.02)"/><rect x="115.4" y="45.44" width="1.51" height="1.6" transform="translate(-5.86 18.99) rotate(-9.11)"/><path d="M117.09,45.28l-.32,0,.06.33a.32.32,0,0,1,.26-.38Z" transform="translate(0 0.02)"/><path d="M120.07,44.8l.85-.14a.33.33,0,0,1,.37.29l.15.9a.33.33,0,0,1-.27.39l-.85.14a.33.33,0,0,1-.37-.29l-.15-.91A.33.33,0,0,1,120.07,44.8Z" transform="translate(0 0.02)"/><path d="M123.9,44.18l-.86.14a.33.33,0,0,0-.26.39h0l.14.91a.33.33,0,0,0,.37.28l1.18-.19-.26-1.58Z" transform="translate(0 0.02)"/><path d="M125.39,44a.33.33,0,0,1,.37.28l.19,1.24-1.48.24-.26-1.58Z" transform="translate(0 0.02)"/><path d="M127.24,44l0-.33-.32.05A.33.33,0,0,1,127.24,44Z" transform="translate(0 0.02)"/><rect x="127.31" y="43.53" width="1.51" height="1.6" transform="translate(-5.4 20.85) rotate(-9.11)"/><path d="M133.46,42.65a.33.33,0,0,0-.26.39h0l.2,1.24,1.48-.24-.25-1.58Z" transform="translate(0 0.02)"/><rect x="134.75" y="42.33" width="1.51" height="1.6" transform="matrix(0.99, -0.16, 0.16, 0.99, -5.12, 22.01)"/><path d="M139,43.38a.33.33,0,0,0,.26-.39l.06.34Z" transform="translate(0 0.02)"/><rect x="139.21" y="41.62" width="1.51" height="1.6" transform="translate(-4.95 22.71) rotate(-9.11)"/><path d="M115.74,48.39a.33.33,0,0,0,.37.28l.85-.13a.34.34,0,0,0,.27-.39l-.2-1.24-1.49.23Z" transform="translate(0 0.02)"/><path d="M118.83,46.62l.86-.14a.33.33,0,0,1,.37.28l.14.91a.33.33,0,0,1-.26.39l-.86.14a.34.34,0,0,1-.37-.29l-.14-.91A.32.32,0,0,1,118.83,46.62Z" transform="translate(0 0.02)"/><path d="M124.52,46.05l0-.34-.32,0A.33.33,0,0,1,124.52,46.05Z" transform="translate(0 0.02)"/><path d="M124.67,47a.33.33,0,0,0,.37.28l.85-.14a.32.32,0,0,0,.26-.38l-.2-1.25-1.48.24Z" transform="translate(0 0.02)"/><path d="M127.64,46.48a.33.33,0,0,0,.37.28l.86-.13a.33.33,0,0,0,.26-.39l-.2-1.24-1.49.24Z" transform="translate(0 0.02)"/><path d="M133.59,45.52a.33.33,0,0,0,.37.29l1.18-.19L134.88,44l-1.48.24Z" transform="translate(0 0.02)"/><path d="M136.57,45.05a.32.32,0,0,1-.26.38l-1.17.19L134.88,44l1.49-.24Z" transform="translate(0 0.02)"/><path d="M139,43.38l-.85.13a.34.34,0,0,0-.27.39h0l.15.91a.33.33,0,0,0,.37.28l1.17-.18-.25-1.58Z" transform="translate(0 0.02)"/><path d="M141,44.33a.34.34,0,0,1-.27.39l-1.17.19-.25-1.58,1.49-.24Z" transform="translate(0 0.02)"/><path d="M97.87,11.1a.33.33,0,0,0-.26.39l.2,1.24.25,1.58.26,1.58.25,1.58.25,1.58.26,1.58.19,1.24a.34.34,0,0,0,.38.29l9.78-1.57a.33.33,0,0,0,.26-.39l-.2-1.24-.25-1.58L109,15.8l-.25-1.58-.26-1.58-.25-1.58L108,9.82a.33.33,0,0,0-.37-.29ZM107,12.88l.26,1.58L107.5,16l.25,1.58L108,19a.2.2,0,0,1-.15.23l-7.07,1.13a.2.2,0,0,1-.22-.16l-.22-1.39-.25-1.58-.25-1.58-.26-1.58-.22-1.38a.18.18,0,0,1,.15-.22l7.08-1.14a.19.19,0,0,1,.21.16Z" transform="translate(0 0.02)"/><path d="M106,16.28l-.25-1.58-.2-1.25a.33.33,0,0,0-.37-.28l-3.83.61a.33.33,0,0,0-.27.39l.2,1.24.25,1.58.2,1.25a.34.34,0,0,0,.38.28l3.83-.61a.33.33,0,0,0,.26-.39Z" transform="translate(0 0.02)"/><path d="M124.66,6.81a.32.32,0,0,0-.26.38l.2,1.25.25,1.58.25,1.58.25,1.58.26,1.58.25,1.57.2,1.25a.33.33,0,0,0,.37.28l9.79-1.56a.33.33,0,0,0,.26-.39l-.2-1.25L136,13.09l-.26-1.58-.25-1.58-.25-1.58L135,6.77l-.2-1.25a.34.34,0,0,0-.38-.28Zm9.12,1.78.25,1.58.25,1.58.26,1.57.22,1.39a.18.18,0,0,1-.15.22l-7.08,1.14a.2.2,0,0,1-.21-.17l-.22-1.38-.26-1.58-.25-1.58-.25-1.58-.22-1.39a.19.19,0,0,1,.15-.22L133.34,7a.19.19,0,0,1,.22.16Z" transform="translate(0 0.02)"/><path d="M132.8,12l-.26-1.58-.2-1.24a.34.34,0,0,0-.37-.29l-3.83.62a.33.33,0,0,0-.26.39l.2,1.24.25,1.58.2,1.24a.33.33,0,0,0,.37.29l3.83-.61a.34.34,0,0,0,.27-.39Z" transform="translate(0 0.02)"/><path d="M102.43,39.53a.32.32,0,0,0-.26.38l.2,1.25.25,1.58.25,1.58.26,1.57.25,1.58.25,1.58.2,1.25a.33.33,0,0,0,.37.28L114,49a.32.32,0,0,0,.26-.38l-.2-1.25-.25-1.58-.25-1.58-.26-1.58L113,41.07l-.25-1.58-.2-1.25a.33.33,0,0,0-.37-.28Zm9.12,1.77.25,1.58.26,1.58.25,1.58.22,1.39a.19.19,0,0,1-.15.22l-7.08,1.13a.18.18,0,0,1-.21-.16l-.22-1.39-.26-1.57-.25-1.58-.25-1.58-.22-1.39a.19.19,0,0,1,.15-.22l7.07-1.14a.2.2,0,0,1,.22.17Z" transform="translate(0 0.02)"/><path d="M110.57,44.7l-.26-1.58-.2-1.24a.32.32,0,0,0-.37-.29l-3.83.62a.32.32,0,0,0-.26.38l.2,1.25.25,1.58.2,1.24a.33.33,0,0,0,.37.29l3.83-.62a.33.33,0,0,0,.27-.38Z" transform="translate(0 0.02)"/></svg>