<svg id="Capa_1" data-name="Capa 1" xmlns="http://www.w3.org/2000/svg" viewBox="0 0 163.53 184.32"><path d="M140.6,184.3c0-.58-.43-.86-.76-1.2q-34.74-36.3-69.46-72.6c-.36-.37-1.23-.51-.86-1.4a12.39,12.39,0,0,0,5,1q30.89,0,61.77,0c5.88,0,9.74-4,9.68-10.15-.07-8.91.28-17.82-.25-26.72,0-.91.81-2,0-2.65a9.55,9.55,0,0,0-2.6-1.14l-.11-.06c-.58-.28-.84-.15-.83.58,0,1.75,0,3.5,0,5.25,0,8.42,0,16.83,0,25.25,0,3.31-2.15,5.55-5.19,5.61-.36-.48-.87-.32-1.33-.32H74.92c-.46,0-1-.16-1.33.31-3.15.06-5.26-2.41-5.26-6.18V10.29c0-4.14,2.09-6.35,6-6.35q21.27,0,42.54,0a2.59,2.59,0,0,1,2,.91q11.25,11.82,22.57,23.57a2.47,2.47,0,0,1,.73,1.9c0,2.61,0,5.22,0,7.83,0,3,0,3,2.6,4.09.91.4,1.24.38,1.23-.82-.06-4.5,0-9,0-13.5.72.08,1.06.73,1.5,1.19l79,82.45c.44.46.77,1.12,1.51,1.18q0,35.22,0,70.45c0,1-.22,1.16-1.14,1.16Q183.76,184.27,140.6,184.3ZM127.86,63c.24-.17.33-.38.1-.61a.48.48,0,0,0-.82.07c-.64-.1-1.06-.77-1.82-.74,0,2.76,0,5.5,0,8.24a3.12,3.12,0,0,1-2.43,3.35c-2,.4-3.55-1.08-3.55-3.49q0-14.46,0-28.91c0-1.86.73-3,2.11-3.45s2.46,0,3.5,1.56c.25.37.39.46.8.27,1.25-.59,2.53-1.1,3.79-1.67a2.78,2.78,0,0,1,1.89-.24c2.58.68,5.25,1,7.64,2.35.9.49,1,0,1-.76,0-2.3-.06-4.6,0-6.89,0-1-.31-1.19-1.18-1.18-5.34,0-10.69,0-16,0-4.09,0-6.47-2.49-6.47-6.8,0-5.54,0-11.08,0-16.62,0-.85-.1-1.26-1.09-1.26q-20.62,0-41.25,0c-2.22,0-3.47,1.29-3.47,3.58q0,45.12,0,90.23c0,2.39,1.24,3.67,3.52,3.67H136.4q3.58,0,3.6-3.72c0-3.2,0-6.39,0-9.59q0-10.8,0-21.59c0-.37.19-.8-.35-1-1.88-.78-3.76-1.6-5.78-2.46,0,6.55,0,12.85,0,19.15,0,2.07-1.22,3.52-3,3.55s-3-1.37-3-3.58Q127.85,73.77,127.86,63ZM106.61,113.3a8.92,8.92,0,0,0,.57.7q8.85,9.27,17.72,18.52a15.22,15.22,0,0,0,3.53,2.93c3.31,1.84,6.87,1.62,9.13-.73q15.15-15.77,30.25-31.58a8.89,8.89,0,0,0,2.52-6.82c-.37-10.93-.78-21.86-1-32.79-.09-5.12-2.37-8.4-6.74-10.28-5.1-2.19-10.21-4.34-15.32-6.5-3.91-1.66-7.79-3.4-11.74-4.93-3.38-1.32-6.84-1.33-9.59,1.37a10.36,10.36,0,0,0-3.19,9.39c.65,3.74,3.17,6,6.41,7.34q9.51,4,19,8a1.33,1.33,0,0,1,1,1.46c0,10.39,0,20.79,0,31.18a12.59,12.59,0,0,1-5.36,10.4,12.13,12.13,0,0,1-7.56,2.31C126.45,113.28,116.67,113.3,106.61,113.3Zm42,39.18a6.16,6.16,0,0,0,4.79-2.08q14.61-15.28,29.22-30.54A6.8,6.8,0,0,0,184.6,115,11.37,11.37,0,0,0,177.93,105c-3.42-1.5-6.2-1-8.74,1.63q-14.5,15.09-29,30.23a6.6,6.6,0,0,0-1.7,3.12C137.19,145.68,142.49,152.4,148.64,152.48Z" transform="translate(-64.52 0)" fill="#dfdfdf"/><path d="M145.76,73.17a2.74,2.74,0,0,1,.1-.74,3.68,3.68,0,0,1,0-.94,3.68,3.68,0,0,1-.16-1,10,10,0,0,0-2.54-1.1l-.11-.06c-.58-.28-.84-.15-.83.58,0,1.75,0,3.5,0,5.25,0,8.42,0,16.83,0,25.25,0,3.31-2.15,5.55-5.19,5.61-.69,0-1.38.08-2.06.08H74.87c-.42,0-.85-.06-1.28-.09-3.15.06-5.26-2.41-5.26-6.18V10.29c0-4.14,2.09-6.35,6-6.35q21.27,0,42.54,0a2.59,2.59,0,0,1,2,.91q11.25,11.82,22.57,23.57a2.47,2.47,0,0,1,.73,1.9c0,2.61,0,5.22,0,7.83,0,3,0,3,2.6,4.09.91.4,1.24.38,1.23-.82-.06-4.5,0-9,0-13.5a5.58,5.58,0,0,0-1-1.4Q132.89,13.82,120.75,1.1a3.22,3.22,0,0,0-2.5-1.1q-22,0-44.08,0c-5.82,0-9.62,4-9.62,10.05q0,44.76,0,89.51c0,4.23,1.55,7.36,5,9.51a12.39,12.39,0,0,0,5,1q30.89,0,61.77,0c5.88,0,9.74-4,9.68-10.15C145.94,91,146.29,82.07,145.76,73.17Z" transform="translate(-64.52 0)" fill="#005eac"/><path d="M106.61,113.3c10.06,0,19.84,0,29.62,0a12.13,12.13,0,0,0,7.56-2.31,12.59,12.59,0,0,0,5.36-10.4c.07-10.39,0-20.79,0-31.18a1.33,1.33,0,0,0-1-1.46q-9.53-4-19-8c-3.24-1.38-5.76-3.6-6.41-7.34A10.36,10.36,0,0,1,126,43.19c2.75-2.7,6.21-2.69,9.59-1.37,3.95,1.53,7.83,3.27,11.74,4.93,5.11,2.16,10.22,4.31,15.32,6.5,4.37,1.88,6.65,5.16,6.74,10.28.2,10.93.61,21.86,1,32.79a8.89,8.89,0,0,1-2.52,6.82q-15.12,15.8-30.25,31.58c-2.26,2.35-5.82,2.57-9.13.73a15.22,15.22,0,0,1-3.53-2.93Q116,123.26,107.18,114A8.92,8.92,0,0,1,106.61,113.3Z" transform="translate(-64.52 0)" fill="#005eac"/><path d="M148.64,152.48c-6.15-.08-11.45-6.8-10.11-12.54a6.6,6.6,0,0,1,1.7-3.12q14.47-15.12,29-30.23c2.54-2.65,5.32-3.13,8.74-1.63A11.37,11.37,0,0,1,184.6,115a6.8,6.8,0,0,1-1.95,4.83Q168,135.12,153.43,150.4A6.16,6.16,0,0,1,148.64,152.48Z" transform="translate(-64.52 0)" fill="#005eac"/><path d="M137,106c-.69,0-1.38.08-2.06.08H74.87c-.42,0-.85-.06-1.28-.09.36-.47.87-.31,1.33-.31h60.76C136.14,105.69,136.65,105.53,137,106Z" transform="translate(-64.52 0)" fill="#e9f0f0"/><path d="M127.86,63l-.72-.54a.48.48,0,0,1,.82-.07C128.19,62.66,128.1,62.87,127.86,63Z" transform="translate(-64.52 0)" fill="#e9f0f0"/><path d="M82.73,62.6V84.34c0,2.29-1.18,3.76-3,3.74s-3-1.45-3-3.65V41c0-1.88.81-3.09,2.26-3.49a2.94,2.94,0,0,1,3.33,1.45,4.34,4.34,0,0,1,.4,2.35Z" transform="translate(-64.52 0)" fill="#dfdfdf"/><path d="M85.26,55.44c0-4.95,0-9.9,0-14.85a3.05,3.05,0,0,1,2.45-3.18A3,3,0,0,1,91,39.24a3.57,3.57,0,0,1,.24,1.58q0,14.58,0,29.17c0,2-1.21,3.39-2.9,3.43S85.28,72.08,85.27,70C85.25,65.17,85.26,60.3,85.26,55.44Z" transform="translate(-64.52 0)" fill="#dfdfdf"/><path d="M108.28,55.44c0,4.91,0,9.82,0,14.72a3,3,0,0,1-2,3.09,2.91,2.91,0,0,1-3.34-1.1,3.31,3.31,0,0,1-.58-2q0-14.72,0-29.44a3,3,0,0,1,3-3.31,3.08,3.08,0,0,1,3,3.35c0,4.91,0,9.82,0,14.72Z" transform="translate(-64.52 0)" fill="#dfdfdf"/><path d="M99.76,55.44c0,4.91,0,9.81,0,14.72a3,3,0,0,1-2,3.09,2.86,2.86,0,0,1-3.26-1,3.19,3.19,0,0,1-.67-2.13q0-14.79,0-29.57a3,3,0,1,1,6,0c0,5,0,9.91,0,14.86Z" transform="translate(-64.52 0)" fill="#dfdfdf"/><path d="M110.82,55.42c0-4.82,0-9.63,0-14.45,0-2.24,1.15-3.61,3-3.61s3,1.49,3,3.63q0,14.44,0,28.89c0,2.66-2.07,4.26-4.18,3.27a3.15,3.15,0,0,1-1.8-3.15C110.83,65.14,110.82,60.28,110.82,55.42Z" transform="translate(-64.52 0)" fill="#dfdfdf"/><path d="M108.87,80.26c1-.08,1.84-.61,2.83-.38A4,4,0,0,1,115,83.29a4.22,4.22,0,0,1-2.46,4.33,5.21,5.21,0,0,1-4.85-.23,3,3,0,0,1-1.29-1.46c-.28-.63-.41-1.25.28-1.64s1.14,0,1.48.6a2.73,2.73,0,0,0,1.59,1.5,2.07,2.07,0,0,0,2.56-1,2.67,2.67,0,0,0-.67-3.47,1.7,1.7,0,0,0-2.52.11,2.71,2.71,0,0,1-1.38.61,1,1,0,0,1-1.25-1,20.61,20.61,0,0,1,1-5.17,1.24,1.24,0,0,1,1.31-.7c1.55,0,3.09,0,4.64,0,.57,0,1.21.15,1.22.91s-.64,1-1.27,1a17.51,17.51,0,0,1-2.71,0c-1.16-.13-1.65.37-1.65,1.54A6.24,6.24,0,0,1,108.87,80.26Z" transform="translate(-64.52 0)" fill="#dfdfdf"/><path d="M125.36,81.89a9.44,9.44,0,0,1-.3,2.8,4.19,4.19,0,0,1-8.21.09,12.47,12.47,0,0,1,.06-6.13,3.83,3.83,0,0,1,3.67-3,4.1,4.1,0,0,1,4.22,2.68A11,11,0,0,1,125.36,81.89Zm-2.36-.3a8.65,8.65,0,0,0-.28-2.66,1.75,1.75,0,0,0-1.8-1.59,1.68,1.68,0,0,0-1.74,1.48,13.5,13.5,0,0,0,0,6,1.75,1.75,0,0,0,1.69,1.57,1.78,1.78,0,0,0,1.81-1.59A12.16,12.16,0,0,0,123,81.59Z" transform="translate(-64.52 0)" fill="#dfdfdf"/><path d="M88.29,85.94h4.29c.66,0,1.41,0,1.44.94s-.7,1-1.39,1H87c-.61,0-1.24,0-1.57-.67a1.64,1.64,0,0,1,.47-1.84,19.43,19.43,0,0,1,3.49-3.17,4.93,4.93,0,0,0,1.8-1.88,2,2,0,0,0-.55-2.71,2.17,2.17,0,0,0-2.91.82,7.73,7.73,0,0,1-.5,1.09c-.3.39-.63,1-1.21.7a1.4,1.4,0,0,1-.68-1.49,3.47,3.47,0,0,1,2.49-2.81,6,6,0,0,1,3.57-.05c2.54.73,3.25,3.69,1.5,5.78a22.65,22.65,0,0,1-2.56,2.25A7.59,7.59,0,0,0,88.29,85.94Z" transform="translate(-64.52 0)" fill="#dfdfdf"/><path d="M102.53,81.19c1.93,1.56,2.36,3.1,1.39,4.79a4.85,4.85,0,0,1-6.11,1.64,4.08,4.08,0,0,1-2.08-2.29,1,1,0,0,1,.48-1.47.94.94,0,0,1,1.38.56,6.36,6.36,0,0,0,.71,1.28,2,2,0,0,0,2.69.44,2,2,0,0,0,1-2.39,1.87,1.87,0,0,0-2.14-1.53,3.47,3.47,0,0,1-.64.06c-.56,0-1.22-.08-1.2-.88s.53-.85,1.11-.84c.21,0,.43,0,.64,0a1.72,1.72,0,0,0,1.71-1.37,1.46,1.46,0,0,0-.81-1.68,1.82,1.82,0,0,0-2.26.35,2.89,2.89,0,0,0-.5.78c-.29.66-.72,1-1.42.67s-.52-1-.34-1.54a2.13,2.13,0,0,1,.3-.58c1.17-1.55,4.55-2,6.08-.85C104.23,77.59,104.26,79.13,102.53,81.19Z" transform="translate(-64.52 0)" fill="#dfdfdf"/><path d="M123,81.59a12.16,12.16,0,0,1-.31,3.21,1.78,1.78,0,0,1-1.81,1.59,1.75,1.75,0,0,1-1.69-1.57,13.5,13.5,0,0,1,0-6,1.68,1.68,0,0,1,1.74-1.48,1.75,1.75,0,0,1,1.8,1.59A8.65,8.65,0,0,1,123,81.59Z" transform="translate(-64.52 0)" fill="#005eac"/><path d="M121.45,37.5c1.33-.43,2.46,0,3.5,1.56.25.37.39.46.8.27,1.25-.59,2.53-1.1,3.79-1.67a2.78,2.78,0,0,1,1.89-.24c2.58.68,5.25,1,7.64,2.35.9.49,1,0,1-.76,0-2.3-.06-4.6,0-6.89,0-1-.31-1.19-1.18-1.18-5.34,0-10.69,0-16,0-4.09,0-6.47-2.49-6.47-6.8,0-5.54,0-11.08,0-16.62,0-.85-.1-1.26-1.09-1.26q-20.62,0-41.25,0c-2.22,0-3.47,1.29-3.47,3.58q0,45.12,0,90.23c0,2.39,1.24,3.67,3.52,3.67H136.4q3.58,0,3.6-3.72c0-3.2,0-6.39,0-9.59q0-10.8,0-21.59c0-.37.19-.8-.35-1-1.88-.78-3.76-1.6-5.78-2.46,0,6.55,0,12.85,0,19.15,0,2.07-1.22,3.52-3,3.55s-3-1.37-3-3.58q0-10.73,0-21.46l-.72-.54c-.64-.1-1.06-.77-1.82-.74,0,2.76,0,5.5,0,8.24a3.12,3.12,0,0,1-2.43,3.35c-2,.4-3.55-1.08-3.55-3.49q0-14.46,0-28.91C119.34,39.09,120.07,38,121.45,37.5ZM110.82,55.42c0-4.82,0-9.63,0-14.45,0-2.24,1.15-3.61,3-3.61s3,1.49,3,3.63q0,14.44,0,28.89c0,2.66-2.07,4.26-4.18,3.27a3.15,3.15,0,0,1-1.8-3.15C110.83,65.14,110.82,60.28,110.82,55.42ZM102.3,40.68a3,3,0,0,1,3-3.31,3.08,3.08,0,0,1,3,3.35c0,4.91,0,9.82,0,14.72h0c0,4.91,0,9.82,0,14.72a3,3,0,0,1-2,3.09,2.91,2.91,0,0,1-3.34-1.1,3.31,3.31,0,0,1-.58-2Q102.3,55.41,102.3,40.68Zm-8.51-.13a3,3,0,1,1,6,0c0,5,0,9.91,0,14.86h0c0,4.91,0,9.81,0,14.72a3,3,0,0,1-2,3.09,2.86,2.86,0,0,1-3.26-1,3.19,3.19,0,0,1-.67-2.13Q93.78,55.33,93.79,40.55Zm-8.52,0a3.05,3.05,0,0,1,2.45-3.18A3,3,0,0,1,91,39.24a3.57,3.57,0,0,1,.24,1.58q0,14.58,0,29.17c0,2-1.21,3.39-2.9,3.43S85.28,72.08,85.27,70c0-4.86,0-9.73,0-14.59S85.24,45.54,85.27,40.59ZM79.73,88.08c-1.8,0-3-1.45-3-3.65V41c0-1.88.81-3.09,2.26-3.49a2.94,2.94,0,0,1,3.33,1.45,4.34,4.34,0,0,1,.4,2.35V84.34C82.73,86.63,81.55,88.1,79.73,88.08Z" transform="translate(-64.52 0)" fill="#005eac"/></svg>