<svg id="Capa_1" data-name="Capa 1" xmlns="http://www.w3.org/2000/svg" viewBox="0 0 901.23 890.9"><path d="M914.22,468.61q-1.76-17-3.52-34l-.06-8.61c-1.48-30.56-10.48-59.7-17.2-89.27q-8.62-23.46-17.24-46.93-11.81-23.16-23.6-46.34l-46.19-64.21-51.64-51L738.1,115.17l-4.85-4a620.12,620.12,0,0,0-133.6-68L565.32,34,556,32.82l-16.56-3.35-9.26-1.14-20.91-3.07-21.75-1.1c-8.54.88-17.07,1.52-25.48-1l-21.9,1.09-21.35.93c-51.55,7.89-102,19.41-149.17,42.51a9.54,9.54,0,0,1-4.44.71,2.43,2.43,0,0,1-1.29,2.07c-2.82,1.13-5.65,2.22-8.47,3.34-.49.27-1,.52-1.49.77s-.76.44-1.15.65c-1.53.83-3.1,1.66-4.71,2.43a20.43,20.43,0,0,1-7.21,3.06c-4.42,4.12-9,8-15.16,9.54-45.45,34.61-93.39,66.57-125.38,115.44l-13.91,18a2.66,2.66,0,0,1-1.67,2c-2.3,7.95-5.37,15.51-11.39,21.54L43,311.19q-4.36,12.71-8.71,25.42c-7.48,29.54-14.2,59.22-17.85,89.51.62,7.23.51,14.38-2.3,21.25q-.21,10.62-.4,21.23c.87,9.91,3.49,19.84-.32,29.7q-.21,6.45-.41,12.91,9.24,44.6,18.49,89.17c10.64,11.77,12.31,27.2,17.25,41.28l26.58,52.12c4,3.46,7,7.57,7.87,12.9L89,714.82,121.52,758l51.66,51,16.7,13.1,4.82,4a619,619,0,0,0,133.59,68,88.57,88.57,0,0,1,30.27,8.37l12.88,1.95,17.06,3.43,9.26,1.18L418.67,912l21.74,1.1c8.55-.88,17.09-1.52,25.5,1L487.76,913l21.4-1.11,12.77-1.12,56.14-11.24,21.53-5.58c4-4.51,9.81-3.95,15-5.2l49.29-21.06L702.24,847c28.91-21.11,58.07-41.92,83.06-67.72,3.54-6.94,7.8-13,16.77-13.19l25.53-34.51c5.95-15.79,18.12-27.64,27-41.58Q869.74,658,884.9,626q4.38-12.72,8.77-25.42c7.44-29.55,14.21-59.22,17.84-89.51-.61-7.23-.51-14.38,2.31-21.25Q914,479.22,914.22,468.61ZM410.44,179.3c-1.51-7.13,2.68-11.73,7.37-16.1,13.46-10.9,22-29.6,43.94-27.09,37.9.6,61.79,28.8,57.93,68.35a25.61,25.61,0,0,1,0,17.5,57.06,57.06,0,0,1,.24,25.18q2.91,76.77,0,153.54c1.77,8.7,2.31,17.29-2.57,25.33.44,3.64-.21,6.78-4,8.52-12.95,17.5-28.16,31.6-51.55,33.38-8.7,2.31-15.73-.92-22-6.53l-8.18-5.69a26.15,26.15,0,0,1-13.1-12.06c-2.33-.74-4.29-1.74-3.52-4.73-2.61-8-7.44-16-7.47-24-.25-63,.42-126,.8-189a52.61,52.61,0,0,1,0-25.13C406.31,193.31,406.05,186.09,410.44,179.3ZM737.29,528.08l-1.18,8.53c-20,77.57-65.26,135.91-136.46,174.44-1.91,3.27-5,4.34-8.58,4.38-38.65,22.31-80.44,31.91-125,30.17-31,1.25-61.42-1.48-90.34-13.72-40.54-11.79-75.71-32.36-104.92-62.65-6.41-4.17-13-8.22-12.56-17.25-14.5-2.63-18.51-15.87-25.57-25.56-15.16-20.81-27-43.46-33.58-68.47-5.39-7.65-6.56-16.59-7.95-25.46-10.9-39.7-12.65-79.49-1.28-119.42l1.29-12.5C214.3,314.49,268.43,254.06,350,213.28c3.76,19.57,2.84,37.46.62,55.41a35.07,35.07,0,0,1,0,21.12,50.49,50.49,0,0,1,.13,25.69,25.75,25.75,0,0,1,0,16.85c5.64,13.53-7.06,18.29-13,26.15-5.48,7.23-11.58,14-17.4,21-11.45,12.08-9.72,30.72-21.68,42.55.08,4.19.9,8.51.15,12.54-6.92,37.25-6.69,72.77,13.38,107.56,19.8,34.33,46.8,59.85,80.93,79l4,1.3c36.36,16.42,74.07,14.42,112.1,8l21.47-8c31.61-14.61,55.55-38.05,76.59-64.84l19.84-46.39c13.09-61.09.63-115.27-44.64-160.5-12-12-5.82-26.18-5.26-39.71a35.16,35.16,0,0,1,0-20.93,36.35,36.35,0,0,1,0-21.75,34.77,34.77,0,0,1,0-21c-.67-10.37-1.34-20.74-2.2-34,32.71,13.83,59.87,30.47,82.09,54.6A25.43,25.43,0,0,1,671,285.73a3.22,3.22,0,0,1,1.72,1.95c9.14,3.1,14.58,9.73,17.93,18.35,20.31,20.55,28.25,47.38,38.14,73.22,5.48,5.84,5,13.68,7.06,20.65C747.56,442.5,750.11,485.2,737.29,528.08Z" transform="translate(-12.99 -23.15)" fill="#010101"/></svg>