<?xml version="1.0" encoding="utf-8"?>
<!-- Generator: Adobe Illustrator 25.2.1, SVG Export Plug-In . SVG Version: 6.00 Build 0)  -->
<svg version="1.1" id="Capa_1" xmlns="http://www.w3.org/2000/svg" xmlns:xlink="http://www.w3.org/1999/xlink" x="0px" y="0px"
	 viewBox="0 0 85 85" style="enable-background:new 0 0 85 85;" xml:space="preserve">
<style type="text/css">
	.st0{fill:#F9F9F9;}
</style>
<path class="st0" d="M71.3,78.1L68.5,75c-0.1-0.1-11.4-12.3-22.1-11.6c-11.5,0.8-15.5,0.8-15.7,0.8c-0.8,0-1.5-0.7-1.5-1.5
	c0-0.8,0.7-1.5,1.5-1.5c0,0,4.1,0,15.5-0.8c8.8-0.6,17.5,6,21.7,9.9l-0.4-9.4h12.1l0.7-39.6H67.7c-0.8,0-1.5-0.7-1.5-1.5
	s0.7-1.5,1.5-1.5h15.6l-0.7,45.6H70.7L71.3,78.1z"/>
<path class="st0" d="M13.1,68.4l0.1-16.9L1.9,51.5V6.3h56.9v45.3h-23c-0.2,0-10.2-0.4-20,13.1L13.1,68.4z M4.9,48.5l11.3,0.1
	l-0.1,10.9c9.9-11.4,19.3-10.9,19.8-10.9l19.9,0V9.3H4.9V48.5z"/>
</svg>
