<svg id="Capa_1" data-name="Capa 1" xmlns="http://www.w3.org/2000/svg" viewBox="0 0 420.08 423.64"><path d="M261.43,81.79c0-12.35.16-24.32-.09-36.29-.09-4.19.77-6.2,5.42-5.64s10.6-1.87,13.53.9c3.21,3,1,9.14,1.07,13.9.19,9.49.37,19-.08,28.47-.21,4.61,1.52,6.57,5.62,7.58A67.69,67.69,0,0,1,297.24,94c3.59,1.54,4.23.24,4.21-3.09-.1-15.16.11-30.32-.14-45.48-.06-4.26.9-6.15,5.48-5.6s10.49-1.85,13.54.92,1,8.83,1,13.42c.16,14.32.2,28.65,0,43-.06,3.84,1.25,5.61,4.84,6.66,7,2,13.71,4.71,20.68,6.67,3.47,1,4.76,2.5,4.65,6.18-.27,9-.09,18-.09,27V453c0,6.74,0,6.74-6.66,6.74q-148.43,0-296.86.1c-4.72,0-6.53-.74-6.5-6.13q.35-84,0-167.92c0-4.8,1.15-6.43,6.05-6.08,6.13.44,12.34-.24,18.47.21,4.87.36,5.74-1.61,5.66-5.94-.24-13.16,0-26.32-.17-39.48-.06-3.79,1.14-5.1,4.83-4.7,4.9.54,11.25-2.09,14.38,1.16,2.88,3,.78,9.22.83,14,.12,10,.24,20-.06,30-.12,4.12,1.37,5.07,5.15,4.92,6.65-.25,13.33-.29,20,0,4,.18,5.07-1.11,5-5-.17-24.15-.08-48.31-.08-72.46V41.49c0-6.08,0-6.07,6-4.09Q192.07,59,256.72,80.55C258.1,81,259.53,81.29,261.43,81.79Zm70,202.06q0-75.45.07-150.91c0-3.62-.7-5.62-4.52-6.88Q236.71,96.18,146.59,65.94c-4.48-1.5-5.21-.37-5.2,4q.18,102.18,0,204.38c0,4.24.89,5.71,5.46,5.65,19.65-.27,39.31,0,59-.23,4.68-.06,5.75,1.4,5.74,5.87-.15,49.47,0,98.94-.19,148.41,0,4.44,1,5.91,5.72,5.88q54.23-.3,108.44,0c4.93,0,6-1.4,6-6.13C331.33,383.79,331.4,333.82,331.4,283.85ZM191.45,369.67c0-21.48-.09-43,.08-64.46,0-3.9-.67-5.5-5.09-5.48q-60,.25-119.93,0c-3.82,0-5.11.93-5.1,5q.23,64.95,0,129.92c0,4.24,1.29,5.23,5.36,5.22q59.7-.21,119.42,0c4.07,0,5.4-1,5.36-5.23C191.34,413,191.45,391.33,191.45,369.67Z" transform="translate(-41.37 -36.22)" fill="#646464"/><path d="M461.35,304.79v148.4c0,6.56,0,6.57-6.32,6.57-26.15,0-52.3-.09-78.45.1-4.16,0-5.73-1.14-5.24-5.31.56-4.73-2-10.84,1.13-13.91,2.9-2.83,8.89-.8,13.52-.83,16.82-.1,33.64-.16,50.46.05,4,.06,5-1.24,5-5.08q-.15-129.91,0-259.83c0-4.34-1.44-5.19-5.42-5.16-20,.19-40,0-60,.17-3.76,0-5.13-1.08-4.72-4.81.53-4.9-2.08-11.24,1.15-14.38,3-2.91,9.21-.83,14-.85,23.15-.08,46.3.09,69.45-.15,4.5,0,5.5,1.31,5.49,5.62Q461.23,230.09,461.35,304.79Z" transform="translate(-41.37 -36.22)" fill="#646464"/><path d="M236.39,179.87c-23.32,0-46.64-.08-69.95.08-3.89,0-5.42-1-5-5a51.2,51.2,0,0,0,0-10c-.46-4.35,1.39-5.38,5.39-5.16,5.48.31,11,.08,16.48.08,40.81,0,81.61.07,122.41-.1,4.52,0,6.35,1.13,5.79,5.78a33.43,33.43,0,0,0,0,8.48c.7,5.06-1.51,6-6.14,5.94C282.35,179.75,259.37,179.87,236.39,179.87Z" transform="translate(-41.37 -36.22)" fill="#646464"/><path d="M236.2,259.84c-23.31,0-46.63-.07-69.94.07-3.6,0-5.2-.79-4.86-4.68a69.4,69.4,0,0,0,0-11c-.27-3.58,1.15-4.5,4.56-4.47,16.49.15,33,.07,49.46.07,30.15,0,60.29.08,90.43-.09,4.24,0,6.16.85,5.61,5.45s1.88,10.6-.91,13.53c-3.05,3.18-9.15,1-13.9,1.05C276.51,259.92,256.35,259.84,236.2,259.84Z" transform="translate(-41.37 -36.22)" fill="#646464"/><path d="M271.16,299.82c-11.82,0-23.65-.09-35.46.06-3.19,0-4.52-.85-4.32-4.2a104.09,104.09,0,0,0,0-12c-.18-3.16,1.15-3.92,4.08-3.91q36,.13,71.93,0c3,0,4.22.81,4.05,3.94a104.09,104.09,0,0,0,0,12c.21,3.38-1.19,4.21-4.34,4.17C295.13,299.74,283.15,299.82,271.16,299.82Z" transform="translate(-41.37 -36.22)" fill="#646464"/><path d="M191.7,119.9c8.66,0,17.31.08,26,0,2.73,0,3.93.77,3.81,3.67-.18,4.32-.16,8.65,0,13,.09,2.67-1.05,3.41-3.55,3.4q-26.47-.09-52.94,0c-2.49,0-3.41-.76-3.57-3.4-1-16.62-1.11-16.61,15.31-16.61Z" transform="translate(-41.37 -36.22)" fill="#646464"/><path d="M97.12,339.81c-4.13,0-7.49-.27-10.78.07-4.15.43-5.16-1.37-4.91-5.13.28-4,.13-8,.06-12,0-2.11.81-3,2.94-3,8,.05,16,.07,24,0,2.45,0,3.28,1.08,3.08,3.33,0,.33,0,.66,0,1-.23,5,2,11.27-.85,14.53S101.21,339.25,97.12,339.81Z" transform="translate(-41.37 -36.22)" fill="#646464"/><path d="M156.38,319.83c3.5,0,7,.16,10.48-.06,3.31-.21,5,.67,4.64,4.35-.42,4.95,2,11.28-.89,14.52s-9.41.86-14.32,1.13c-3.48.2-7-.11-10.47.08-3.09.18-4.62-.64-4.4-4.09.25-4.15.16-8.32,0-12.48-.08-2.57.86-3.59,3.47-3.49C148.73,319.94,152.56,319.83,156.38,319.83Z" transform="translate(-41.37 -36.22)" fill="#646464"/><path d="M96,379.79c-3.66,0-7.32-.1-11,0-2.51.09-3.81-.74-3.51-3.41,0-.32,0-.66,0-1,.25-5-2-11.3.89-14.5s9.43-1,14.34-1c4.75,0,10.84-2.16,13.9,1,2.8,2.92.37,8.92.91,13.51s-1.27,5.89-5.57,5.45C102.67,379.53,99.32,379.8,96,379.79Z" transform="translate(-41.37 -36.22)" fill="#646464"/><path d="M157.78,359.82c3.7.35,9.69-2,12.6.85,3.14,3.07.56,9.17,1.12,13.9.48,4.13-1,5.53-5.22,5.31a198.14,198.14,0,0,0-19.95,0c-4.12.21-5.19-1.35-4.92-5.14a107,107,0,0,0,0-11.47c-.1-2.56.82-3.6,3.44-3.5C148.88,359.92,152.88,359.82,157.78,359.82Z" transform="translate(-41.37 -36.22)" fill="#646464"/><path d="M97.3,399.8c3.86.35,10.08-2.06,13.07.86,3.23,3.16.61,9.48,1.14,14.38.4,3.68-.88,5-4.69,4.82-7-.29-14-.26-20.95,0-3.6.13-4.64-1.2-4.43-4.6.24-4,.16-8,0-12-.09-2.54.79-3.62,3.43-3.52C88.72,399.91,92.55,399.8,97.3,399.8Z" transform="translate(-41.37 -36.22)" fill="#646464"/><path d="M157.12,399.79c4.08.56,10.55-2.23,13.5,1.17s.52,9.58.87,14.53c.23,3.15-.76,4.45-4.14,4.35-7.31-.21-14.64-.19-22,0-3.08.08-4.11-1-4-4a108.63,108.63,0,0,0,0-12c-.23-3.47,1.34-4.25,4.41-4.08C149.31,399.94,152.81,399.79,157.12,399.79Z" transform="translate(-41.37 -36.22)" fill="#646464"/></svg>