<svg id="Capa_1_Imagen" data-name="Capa 1 Imagen" xmlns="http://www.w3.org/2000/svg" viewBox="0 0 462.03 725.14"><path d="M11.79,525.77C10.94,494.65,16.27,464,26,434.3A265.89,265.89,0,0,1,102.91,317c3.69-3.29,5.52-4.35,9.69.85C129.11,338.38,149,354.2,172.42,365a151.44,151.44,0,0,0,38.91,12.25,155,155,0,0,0,52-.51c27.56-4.79,52-16.76,74-34.61A145.29,145.29,0,0,0,366,310.85c2.53-3.72,4.06-4.51,7.49-1.47,13.11,11.61,26.12,23.18,37.4,37.1a272.85,272.85,0,0,1,38.94,63.44,299.78,299.78,0,0,1,20.53,71.24c3.47,21.2,3.79,42.51,2.93,63.79-1.1,27.18-7.69,53-23.08,75a93.61,93.61,0,0,1-38.43,31.84,7,7,0,0,0-4.32,5.12c-3.67,14.87-9.22,28.81-17.42,41.42-12.74,19.61-29.84,33-50.33,41.76-16.51,7.08-18.49,10.94-34.52,13.73a138.26,138.26,0,0,1-15.73,1.57c-11.24.65-22.49,1.68-33.73,1-20.9-1.26-66.21-2.47-88.45-8.83-21.16-6-41.22-14.27-58.52-29C98,709.41,89.28,698,82.18,685.13c-5.74-10.42-9.52-21.64-13-33-1.58-5.17-6.42-6.41-10-8.75-20-13.28-32.23-32.69-39.85-56.12C13,567.47,11.41,547.05,11.79,525.77Zm84.52,43.76c.46,87.75,66,155.31,141.34,157.49,86.56,2.5,148.38-71.14,151.2-150.79,3.43-96.57-67.24-162.76-139.52-165.88C162.74,406.6,95.26,482.75,96.31,569.53Z" transform="translate(-11.7 -31.47)" fill="#fcfcfc"/><path d="M85.48,195.08C83.67,106.59,153.13,29,240.51,31.53c76.35,2.22,151.4,71.35,146.18,174.13-4,79.12-65.59,155.29-155.56,152.92C153.6,356.54,84.43,286.75,85.48,195.08Zm87.21-17.16c-.75-.75-1.39-1.38-2-2a18.67,18.67,0,0,1-1.89-2.09c-11.75-16.81-28-26-46.19-31.72-2.42-.76-6.29-2.32-7.81,2.35-7.5,23-11.15,46.6-7.47,70.85,3.77,24.88,12.53,47.56,27.45,67.34,16.14,21.39,35.92,36.9,60.14,45.71,18.68,6.81,37.73,8.38,57.34,6,16-2,30.87-7.37,45-15.36,15.8-8.95,28.93-21.46,40.35-36.33a128,128,0,0,0,20.7-39.78c5.91-18.89,8.85-38.4,7.11-58.78a164.49,164.49,0,0,0-15.55-56.72,9.65,9.65,0,0,0-7.25-5.75c-19.69-4.22-39.24-5.83-59.32-2.37-22.76,3.93-42.83,13.6-60.84,28.74-2.22,1.87-3.36,2.24-5.9.35-8.55-6.38-17.49-12.16-26.13-18.41-2.56-1.85-3.24-2.42-4.32,1.6C181.93,146.94,177.26,162.21,172.69,177.92Z" transform="translate(-11.7 -31.47)" fill="#fcfcfc"/><path d="M103.9,569.14c-.15-81.66,61.4-152.94,143.22-150.48,71.39,2.14,136.31,66.14,134.15,154.93-1.89,77.61-61,147.25-142.58,145.16C166,716.89,104.61,653,103.9,569.14ZM239.43,452.43c-9.12-.76-21.76,1.95-34,6.94-22.64,9.24-40.76,24.71-53.72,46.88a129.43,129.43,0,0,0-14,33.83c-1.3,5.19.25,7.23,4.73,6.33,10.17-2,20.52-2,30.77-3.24a244.84,244.84,0,0,0,37.07-6.94c19.44-5.43,38.8-7.14,58.39-1.48a236.83,236.83,0,0,0,38.42,8c10.62,1.23,21.26,2.64,32,2.81,9.08.14,9.07.9,7.52-8.67a10.42,10.42,0,0,0-.32-1.7c-7.7-22-18.38-41.72-35.84-56.72C290.8,461.45,268.75,452.33,239.43,452.43ZM224.29,635.18c-.19-6.9-.06-11.66-1.1-16.47-4.26-19.92-22.62-35.79-40.41-34.72-11.73.71-23.42,1.8-35.07,3.43-3.67.52-8.88-1-10.52,2.11-1.38,2.66.94,7.58,1.66,11.5.06.35.43.64.53,1,6.63,22.2,17.63,41.12,34.47,56.1a109.36,109.36,0,0,0,41.4,23.35c3.93,1.19,5.22-.52,5.65-4C222.72,662.75,223.62,647.93,224.29,635.18Zm79.08-51.25a54.83,54.83,0,0,0-9.53,1.12c-15.46,2.61-28.56,18.39-31.76,34.52-2.59,13-.26,25.91.38,38.77.36,7.1.3,14.56,2.75,21.55.71,2.06.63,2.48,3,1.85,22.77-6,41.61-18.61,56.64-38.17,11.65-15.14,19.75-31.89,23.23-51.38.75-4.22-1.18-4.35-3.13-4.55C331.09,586.27,317.23,585.14,303.37,583.93Z" transform="translate(-11.7 -31.47)" fill="#fcfcfc"/></svg>