<svg id="Capa_1" data-name="Capa 1" xmlns="http://www.w3.org/2000/svg" viewBox="0 0 201.01 136.81"><path d="M.17,128.36a23.24,23.24,0,0,1-.06-4V109.73l.48-.13H8.26v2.26c0,6.51,4.51,10.46,9.15,10.49,9.6.06,19.21,0,28.82,0h28.5c5.2,0,9.33-5,9.09-10.08a7.11,7.11,0,0,1,.15-2.56l7.73-.15a15,15,0,0,0,3.14,0h9.84a10.76,10.76,0,0,0,2.66,0h9.12a16.47,16.47,0,0,0,3.14,0h10.08a7.31,7.31,0,0,0,2.19,0h9.59a12.87,12.87,0,0,0,2.91,0h2.39l1.45,0h.48c.28.08.55.12.73-.21h.44c.77.08,1.55.19,2.33.23a1.89,1.89,0,0,0,1.36-.19c.95-.2,1.88.31,2.82,0a1.76,1.76,0,0,0,1.24,0h.2c2.89.13,5.78.11,8.67,0a7.24,7.24,0,0,0,2.18,0c3.84.1,7.68.09,11.52,0h1.28q4.8.17,9.6,0h2.66c2.09.1,4.17.1,6.26,0a.31.31,0,0,0,.19,0c0,5.1,0,10.2.06,15.3a10.05,10.05,0,0,1-1,5,7.73,7.73,0,0,1-3.08,3.67,11.83,11.83,0,0,1-6.37,1.3c-2.07-.15-4.14,0-6.22,0-6.92-.08-13.84-.06-20.77,0-5.11,0-10.22.18-15.33.22H131.65c-1.67,0-3.35-.2-5-.22H9.11a5.87,5.87,0,0,1-2.5-.15c-2.68-1.2-5.09-2.73-5.93-6C.62,128.41.46,128.16.17,128.36ZM153.68,132h34.74c2.54,0,3.53-1.1,3.52-3.86V116.48c0-2.78-1-3.87-3.54-3.86H118.82c-2.24,0-3.33,1-3.38,3.36-.08,4.15-.09,8.3,0,12.44.07,2.81,1,3.59,3.62,3.59Z" transform="translate(0.02 0)" fill="#6e869d"/><g id="Capa_2" data-name="Capa 2"><polygon points="38.44 111.48 27.55 105.88 21.95 107.1 21.26 118.79 29.85 120.72 38.44 117.61 38.44 111.48" fill="#2c2c2d"/></g><polygon points="72.13 118.03 60.53 122.55 43.98 122.47 45.58 114 49.78 112.82 57.16 109.55 54.59 116.52 59.47 111.64 62.7 105.5 66.73 107.22 71.21 112.03 72.13 118.03" fill="#2c2c2d"/><path d="M.17,128.36c.33-.2.45,0,.51.31.84,3.31,3.25,4.84,5.93,6a5.87,5.87,0,0,0,2.5.15H126.52c1.67,0,3.35.21,5,.22h15.81c5.11,0,10.22-.19,15.33-.22h20.77c2.08,0,4.15-.16,6.22,0a11.83,11.83,0,0,0,6.37-1.3,7.73,7.73,0,0,0,3.08-3.67,10.05,10.05,0,0,0,1-5c-.08-5.1,0-10.2-.06-15.3a.37.37,0,0,0,0-.21V32.71a4.54,4.54,0,0,0-.21-2.07,3.13,3.13,0,0,0,.22-1.51V9.3a9.8,9.8,0,0,0-5.28-8.25c-.55-.23-1.08-.51-1.62-.77C197.32.46,201,4.7,201,9.49V126.64c0,5.08-2.68,9-7,9.93a14.77,14.77,0,0,1-3.11.23H9.87c-4.65,0-7.72-2.1-9.27-6.31A8.14,8.14,0,0,1,.17,128.36Z" transform="translate(0.02 0)" fill="#65686b"/><path d="M8.25,109.62H4.89c-.11-.37-.21-.74-.32-1.11-.41-1.35-1.07-2.27-2.59-1.93a3.46,3.46,0,0,1-1.88-.25v-2.58a9.73,9.73,0,0,1,1.08,0c2.91.3,3.2-.71,4.16-3.25a4.3,4.3,0,0,1,1.23-2c.61-.5.55-.92.16-1.52a13.75,13.75,0,0,1-1.57-2.63c-1-2.7-1.38-3-4.1-3h-1c.09-.86-.27-1.76.23-2.58a7.56,7.56,0,0,1,1.9.18,1.68,1.68,0,0,0,2.1-1.14,1.55,1.55,0,0,0,.07-.43A2.18,2.18,0,0,1,4.92,86a12.28,12.28,0,0,0,1.54-2.36,1.59,1.59,0,0,0-.1-2.1c-.36-.46-1-.74-1-1.52,0-1.47-1.17-2-2-2.65A12.63,12.63,0,0,0,.1,76.24V73.66a16.68,16.68,0,0,1,2,0,2,2,0,0,0,2.19-1.11c.8-1.39,1.51-2.83,2.21-4.28a1.69,1.69,0,0,0-.19-1.48A21.28,21.28,0,0,1,5,64.17c-.55-1.55-1.25-2.79-3-2.71a4.82,4.82,0,0,1-1.88-.3V58.62c.8-.33,1.49.55,2.27.25a4,4,0,0,0,2.81-3.55,1.41,1.41,0,0,1,.4-.76A2.57,2.57,0,0,0,6,51.09a12.39,12.39,0,0,1-.75-1.32c-.87-1.84-1.5-4-4.12-3.39a2.38,2.38,0,0,1-1-.22V44.1a6.84,6.84,0,0,1,2.09-.48c1.62.14,2.23-1,2.78-2.25a5.56,5.56,0,0,1,1.29-2.08,1.54,1.54,0,0,0,.28-2.15L6.46,37a6,6,0,0,1-1.55-2.82,1.17,1.17,0,0,0-1.31-1H1.54c-.38,0-.84.14-1-.48h7c-.23.84.64,1.26.69,2,.09,1.33.89,1.62,1.89,1.63h5.14c.32,0,.74.11.9-.2.61-1.11,1.15-2.26,1.71-3.39h3.37c-.79.94-1.33,2.08-2.08,3a2.45,2.45,0,0,0-.45,2.5c.44,1.1.06,1.47-.83,1.68H16.45c-.48,0-.15-.73-.7-.82A42.19,42.19,0,0,0,10,38.84a1.39,1.39,0,0,0-1.28.69c-.94,1.23-1.47,2.73-2.44,3.95a2.23,2.23,0,0,0,.3,3.14l.14.11a2.92,2.92,0,0,1,1.07,1.94,4.55,4.55,0,0,0,.44,1.88V87.62C8.29,94.94,8.26,102.28,8.25,109.62Z" transform="translate(0.02 0)" fill="#cbd3d4"/><path d="M.1,91.28h1c2.72,0,3.1.35,4.1,3a13.75,13.75,0,0,0,1.57,2.63c.39.6.45,1-.16,1.52a4.3,4.3,0,0,0-1.23,2c-1,2.54-1.25,3.55-4.16,3.25a9.73,9.73,0,0,0-1.08,0C0,99.55.46,95.44.1,91.28Z" transform="translate(0.02 0)" fill="#d6dcde"/><path d="M.1,61.2A4.82,4.82,0,0,0,2,61.5c1.78-.08,2.48,1.16,3,2.71a21.28,21.28,0,0,0,1.3,2.62,1.69,1.69,0,0,1,.19,1.48c-.7,1.45-1.41,2.89-2.21,4.28a2,2,0,0,1-2.15,1.08,16.68,16.68,0,0,0-2,0Z" transform="translate(0.02 0)" fill="#d6dcde"/><path d="M.1,46.16c.35.08.72.29,1,.22,2.62-.6,3.25,1.55,4.12,3.39A12.39,12.39,0,0,0,6,51.09a2.55,2.55,0,0,1-.39,3.46,1.41,1.41,0,0,0-.4.76,4,4,0,0,1-2.81,3.55c-.78.3-1.47-.58-2.27-.25Z" transform="translate(0.02 0)" fill="#d6dcde"/><path d="M.1,76.24a12.63,12.63,0,0,1,3.26,1.14c.85.6,2,1.18,2,2.65,0,.78.64,1.06,1,1.52a1.59,1.59,0,0,1,.1,2.1,12.15,12.15,0,0,1-1.52,2.29,2.18,2.18,0,0,0-.56,1.37A1.69,1.69,0,0,1,2.64,89a2,2,0,0,1-.43-.07,7.56,7.56,0,0,0-1.9-.18C-.27,86.9.07,85,.14,83.23.25,80.89,0,78.55.1,76.24Z" transform="translate(0.02 0)" fill="#d6dcde"/><path d="M.11,32.63l.46.09c.13.62.59.47,1,.48h2a1.17,1.17,0,0,1,1.36.94s0,0,0,.06A6,6,0,0,0,6.46,37a1.53,1.53,0,0,1,0,2.16,1.19,1.19,0,0,1-.18.15,5.56,5.56,0,0,0-1.29,2.08c-.55,1.28-1.16,2.39-2.78,2.25a6.84,6.84,0,0,0-2.09.48c.08-2.33.21-4.66.2-7C.3,35.63,0,34.14.11,32.63Z" transform="translate(0.02 0)" fill="#d6dcde"/><path d="M.1,106.32a3.46,3.46,0,0,0,1.88.25c1.52-.34,2.18.58,2.59,1.93.11.37.21.74.32,1.11H.58l-.48.13Z" transform="translate(0.02 0)" fill="#d6dcde"/><path d="M14.05.12a5,5,0,0,1-2.67,0A7.49,7.49,0,0,1,14.05.12Z" transform="translate(0.02 0)" fill="#50ade4"/><path d="M9.46.14a3.21,3.21,0,0,1-1.71.1A2.3,2.3,0,0,1,9.46.14Z" transform="translate(0.02 0)" fill="#50ade4"/><path d="M78.74.15a1.65,1.65,0,0,1-1.47,0A2.18,2.18,0,0,1,78.74.15Z" transform="translate(0.02 0)" fill="#50ade4"/><path d="M38.1.14a.87.87,0,0,1-1,0A1.17,1.17,0,0,1,38.1.14Z" transform="translate(0.02 0)" fill="#50ade4"/><path d="M193,.22a.47.47,0,0,1-.52-.07A.38.38,0,0,1,193,.22Z" transform="translate(0.02 0)" fill="#50ade4"/><path d="M38.83.14A.17.17,0,0,1,38.6.2a.17.17,0,0,1-.06-.06Z" transform="translate(0.02 0)" fill="#50ade4"/><path d="M150.14,30.61l.66-.26v.29c-.19.27-.46.2-.71.19A.44.44,0,0,0,150.14,30.61Z" transform="translate(0.02 0)" fill="#65686b"/><path d="M16.46,40h39L74.2,40a12.27,12.27,0,0,0,3.59,1.16,9.7,9.7,0,0,1,5,8.52c.07,8.34,0,16.68,0,25,0,4.44,0,8.88.06,13.33V111c-.14,4.74-4.17,9.11-8.57,9.36-1,.06-1.33-.29-1.31-1.36a25.28,25.28,0,0,0-.11-5.29c-.91-4.54-3.48-7.43-7.68-8.59-.42-.12-1.16.06-1-.88A39.17,39.17,0,0,0,67.81,86.7a71,71,0,0,0-1.35-11.25,85.59,85.59,0,0,0-5.31-19.83A20.62,20.62,0,0,0,56,47.81c-1.84-1.57-3.89-2.42-6.26-1.58a2.42,2.42,0,0,1-1.41-.06A14.18,14.18,0,0,0,34.6,50.55c-3.6,3.78-5.5,8.53-6.82,13.61-2.34,9.06-2.73,18.36-2.59,27.7A38.58,38.58,0,0,0,26.78,103a.58.58,0,0,0,.2.61l.06.4c.21,1.32-.83,1-1.4,1.18a10.4,10.4,0,0,0-7.79,10.26v3.89c0,.86-.32,1.13-1.11,1a9.56,9.56,0,0,1-5.55-2.74C9.61,116,9,113.92,8.28,111.87V50.54a10.52,10.52,0,0,1,3.18-8A10.83,10.83,0,0,1,16.46,40Z" transform="translate(0.02 0)" fill="#50ade4"/><path d="M153.68,132H119.07c-2.65,0-3.55-.78-3.62-3.59-.1-4.14-.09-8.29,0-12.44,0-2.38,1.14-3.36,3.38-3.36h69.56c2.54,0,3.54,1.08,3.54,3.86v11.66c0,2.76-1,3.86-3.52,3.86H153.68Zm-14.22-14.58a1.16,1.16,0,0,0,0-.86c0-.41.06-.83.06-1.25,0-.27.13-.73-.28-.66s-1-.48-1.05.49v14c.05.44-.24,1.09.58,1,.34,0,.77.1.78-.47s0-.92-.09-1.37v-.48c.17-3.3.1-6.59,0-9.89Zm-5.58,7.34V128c0,2.2,0,2.2,2.11,2.19.73-.09,1.32-.33,1.3-1.29,0-1.2-.06-2.4-.1-3.6v-8c0-2.71,0-2.68-2.51-2.66-.66,0-.94.19-.93.92,0,2.89,0,5.78.06,8.67ZM148,115.14V118l.07,1.31c-.25,3.44-.11,6.9-.07,10.34,0,1,.95.35,1.45.49s.79-.09.78-.75c0-3.89,0-7.77,0-11.65v-2c0-.37.2-1-.38-1s-1.39-.63-1.79.4Zm-3.83,6.23c0,2.62,0,5.24-.07,7.86,0,.4-.12.92.52.93s.5-.54.49-.92c0-2.62,0-5.25-.07-7.87,0-2,.06-4,.08-5.93,0-.37,0-.83-.5-.82s-.51.41-.51.82Zm-3.68-2.58a16.66,16.66,0,0,0,0,3.6V129c0,.4-.28,1.15.38,1.1s1.61.62,2.16-.42V126c0-2.34-.05-4.68-.08-7v-1.26a20.16,20.16,0,0,1,.12-2.06c.07-.68-.11-1.28-.95-1.1s-1.84-.56-1.7,1.1C140.39,116.73,140.4,117.76,140.46,118.79Zm21.24,11.14c.46.09.87.17.87-.59V115.19c0-.74-.34-.77-.84-.59a.51.51,0,0,0-.57-.17c-.65,0-.78.4-.78,1,0,4.61.06,9.22,0,13.83,0,.79.26.9.85.67Zm-14.24-14.25c.09-.55.13-1.06-.62-1s-.45.56-.46.93a4.24,4.24,0,0,0,.05.9,16.57,16.57,0,0,0,0,3.59v1.34c0,2.66-.05,5.33-.08,8,0,.51.09.81.65.79s.5-.43.5-.81Q147.45,122.55,147.46,115.68Zm20.91,6.59h0v5.18c0,2.58,0,2.52,2.37,2.58,1,0,1.11-.36,1.09-1.27V117.12c0-2.74,0-2.71-2.54-2.67-.71,0-.89.28-.88,1-.06,2.26-.07,4.54-.07,6.82Zm-45.65.27h0v-6.08c0-1.85,0-1.77-1.72-1.87-1,0-1.16.37-1.15,1.33v12.16c0,2.13,0,2.08,2,2.1.78,0,.92-.28.91-1-.1-2.24-.07-4.44-.07-6.63Zm31.62-.26h0v5.82c0,2.33-.16,1.82,1.77,1.92.83,0,1.08-.2,1.07-1.13-.06-4.18,0-8.37,0-12.55,0-1.92,0-1.88-1.81-1.89-.79,0-1.05.24-1,1.1,0,2.24-.06,4.49-.06,6.73Zm23.07,0h0v-6.6c0-1-.21-1.3-1.12-1.22s-1.54-.18-1.51,1.24c.07,4.44,0,8.88,0,13.33,0,1,.46,1.06,1.1.95s1.6.55,1.55-1c-.1-2.22-.05-4.43-.05-6.71Zm5,0h0c0,2.24.06,4.49,0,6.73,0,1.12.51,1,1.17,1s1.17.07,1.15-1c-.07-4.53,0-9.06,0-13.59,0-.72-.12-1.09-.82-.93s-1.54-.48-1.49,1c0,2.22,0,4.5,0,6.79Zm-51.77.13h0v-6.87c0-.91-.4-.93-1-.93s-.93.07-.92.89v13.73c0,.9.36.92,1,1s.94-.26.92-1c0-2.28,0-4.53,0-6.77Zm34.49-.14v-6.85c0-.91-.41-.94-1-1s-1,0-1,.87v13.83c0,1,.53.81,1.08.85s.92-.08.9-.88c0-2.25,0-4.54,0-6.82Zm-39.71.13h0v-6.86c0-.61-.09-1-.77-.94s-.87.13-.87.85v13.86c0,.71.24.86.84.87s.81-.26.8-.91c0-2.29,0-4.58,0-6.87Zm48.56-.12h0v-6.73c0-.5.14-1.08-.63-1.11s-.72.46-.72,1v13.71c0,.57.08.84.71.85s.66-.39.66-.89Zm-14.11,0h0v-7c0-.56-.11-.91-.73-.84-.47,0-.82.07-.81.78v14c0,.78.35.77.87.81s.69-.35.69-.88q0-3.45,0-6.88Zm22.07.15h0v-7c0-.45.12-1-.61-1s-.57.46-.56.91V129c0,.45-.13,1,.62.93s.52-.61.53-1c0-2.16,0-4.36,0-6.55Zm-14-.14h0v-6.87c0-.4.13-.92-.52-.94s-.64.46-.64,1v13.6c0,.4-.22,1,.56,1s.58-.56.58-1v-6.8Zm-34.58.16h.1v-6.84c0-.42.2-1-.57-1s-.53.52-.53.91v13.69c0,.39-.15.92.5.94s.51-.61.51-1c0-2.24,0-4.47,0-6.71Zm19.15,0v-6.72c0-.42.24-1.11-.46-1.07s-.3.71-.31,1V129.1c0,.36-.22,1,.43,1s.35-.58.36-.94c-.07-2.2-.07-4.44-.07-6.68Zm-24.39-.07v-7c0-.38,0-.84-.52-.8s-.41.42-.42.76v13.87c0,.39-.15,1,.51.91s.44-.62.44-1c0-2.23,0-4.46,0-6.71Zm-2.19-.14h0v7c0,.34-.23.85.36.9s.5-.52.5-.91V115.54c0-.35.18-.86-.38-.91s-.5.53-.5.91c0,2.25,0,4.49,0,6.73Zm27,.09v6.73c0,.37-.29,1,.33,1s.39-.63.39-1v-13.6c0-.34.19-.89-.36-.92s-.39.55-.4.87c0,2.37.05,4.66.06,7Zm26.57-.06h0v-6.85c0-.39.18-.94-.49-.93s-.49.57-.49,1v13.7c0,.32-.2.81.43.83s.56-.43.56-.86Zm7.39-.13v-7c0-.29,0-.66-.38-.64s-.29.35-.32.59a3,3,0,0,0,0,.52V129c0,.36-.26,1,.36,1s.33-.69.33-1.08c0-2.25,0-4.49,0-6.74Zm.51.12h0v6.85c0,.29-.2.75.32.79s.37-.44.37-.73V115.34c0-.3.14-.81-.32-.82s-.39.54-.39.89q.08,3.45.08,6.88Z" transform="translate(0.02 0)" fill="#e9ebed"/><path d="M94.85,109.6a15,15,0,0,1-3.14,0,5.1,5.1,0,0,1,1.45-2.87,2.37,2.37,0,0,0,.13-3.17,17.75,17.75,0,0,1-1.74-2.86,2.87,2.87,0,0,0-3.06-1.92c-1.53.06-3.08.6-4.61,0V96.46a34.2,34.2,0,0,1,5.72-.26,1.68,1.68,0,0,0,1.52-.87A47.94,47.94,0,0,1,93.63,91a.86.86,0,0,0,0-1.07c-.7-1-.86-2.18-1.45-3.2-.36-.63-1.09-1-1.19-1.73s-.6-.93-1.26-1a58.05,58.05,0,0,0-5.9,0V81.65c1.23-.5,2.54-.29,3.81-.5a1.28,1.28,0,0,1,.58.11c.88.33,2.53-.09,2.8-1,.46-1.54,1.71-2.37,2.51-3.58a1.66,1.66,0,0,0,.26-1.62c-.51-1.65-1.65-2.93-2.35-4.47-.25-.55-.53-1.54-1.25-1.61a9.35,9.35,0,0,0-3.33-.27,3.27,3.27,0,0,1-3-.33V66.3h5.37a2.35,2.35,0,0,0,2.33-1.82c.27-1.29,1.34-1.9,1.63-3.07.06-.27.33,0,.51,0a13.64,13.64,0,0,0,.2,3.93,1.76,1.76,0,0,1-.63,1.2c-.45.44-.6,1.19-.28,1.52,1.11,1.17.93,3.06,2.11,4.13.6.54.72,1.84,1.8,1.57a13.42,13.42,0,0,1,4-.17c1.32.08,2.46-.12,3-1.51.5-1.22,1.57-2.19,1.41-3.69,3.46,0,6.93-.06,10.4-.07,3.06,0,6.13,0,9.2.07-.26.62-.79.49-1.25.49h-4.07v.29h1.82v.38h-3.74l-.28.48c2.26-1.08,2.41.55,2.77,1.9.07.24.08.51.16.75A1.48,1.48,0,0,0,122,74,39.66,39.66,0,0,1,126,74c1.34.09,2.4-.08,2.53-1.85,0-.22.24-.44.41-.62.83-.88,1.08-2.19,1.93-3.06.15-.15.25-.6.16-.7-.66-.78-.68-2-1.6-2.6.69-3.41-.26-5.31-3.38-6.78.09-1,.59-.83,1.13-.42.28.21.8.64.83.15.08-1.21,1.14-1.54,1.5-2.39a9.2,9.2,0,0,1,1.14-2.2,1.71,1.71,0,0,0-.57-2.35h0a.8.8,0,0,1-.4-.82h4.07a.53.53,0,0,0,.29.52,9.2,9.2,0,0,0,4.73.5c.46,0,.74-.48.77-1H140q.14.28.27,0h1.9c.08.19.17.19.26,0h.46l.39.26a2.39,2.39,0,0,0,.13-.21c-.34,1-1,2.23-.37,3.18.95,1.47,1.14,3.33,2.28,4.65a8.42,8.42,0,0,1-2.92,0c-.12-.56-1-.26-.89-.52.52-1.21-.53-1.79-.8-2.66A1.52,1.52,0,0,0,139.12,54c-1.56,0-3.12,0-4.68,0a1.34,1.34,0,0,0-1.33.68c-.77,1.3-1.57,2.58-2.31,3.9-1,1.76-.9,2.41.41,3.94.35.41.84.84.92,1.33.42,2.63,2.09,2.87,4.07,2.61a3.93,3.93,0,0,1,.84,0c.39,0,.57-.24.64-.62a5.23,5.23,0,0,0,4.52,2.7q.12.21.24,0h1.44c.08.37-.41.41-.42.86h10.92v.2H143.05a4,4,0,0,1,1.67,2.13c.63,1.68,1.13,2.25,2.76,2.26a17.52,17.52,0,0,1,2.51,0,3.53,3.53,0,0,0,4.14-2.66c.35-1,1.59-1.49,1.32-2.8h13c0,.64.29.79.82.78h9.92c.52,0,.85-.15.81-.79h6.25c-.11.72-.64.52-1,.53h-2.5v.28h2.53a4.88,4.88,0,0,1-1.82.27c-.34,0-.81-.17-1,.26-.85,2.18-2.57,4-2.25,6.64a7.84,7.84,0,0,0-4,.77c-.09-.75-.47-1.08-1.16-.83a3.41,3.41,0,0,1-2,0c-1.83-.43-2.66,0-3.42,1.83-.47,1.1-1.16,2-1.69,3.09s-1.16,1.41-.12,2.65a11.21,11.21,0,0,1,2.07,3.69A1.8,1.8,0,0,0,172,89.09l.07,0a19.82,19.82,0,0,1,4-.08,2.27,2.27,0,0,0,2.46-2.06,1.48,1.48,0,0,0,0-.21h2.89a3.71,3.71,0,0,1-.69,1.32c-.76,1.43-1.34,2.72,0,4.29.69.82,1.65,1.79,1.42,3.21l-1.39,1.61a32,32,0,0,1-2.54-4.34,2.45,2.45,0,0,0-2.12-1.47h-5.17c-.44,0-.91.09-.92.59,0,1.08-.83,1.74-1.15,2.64l-.66-.11c-.25-.33-.49-.33-.74,0h-.71c0-.89-.54-.79-1.06-.79h-6.55a55.73,55.73,0,0,1,6.46-.25,2.63,2.63,0,0,0,2.61-2.65,3.09,3.09,0,0,0-.08-.61c-.51-2-1.21-3.92-3.35-4.55a5.58,5.58,0,0,0,1.28-6.47c.72-.91,1.44-1.82,2.14-2.75a1.4,1.4,0,0,0,.09-1.58c-.7-1.1-1.1-2.42-1.85-3.43-.47-.63-.46-1.85-1.61-1.83h-6c-.3,0-.63-.08-.89.22a10.72,10.72,0,0,0-2.73,6.67q-5.89.16-11.79,0a6.21,6.21,0,0,0-.89-3.76c-.64-1.13-1.75-1.92-2-3.28-.05-.27-.24-.25-.46-.23-1.43.07-2.83-.25-4.24-.3-1.07,0-2.39-.13-3,1.15A25.61,25.61,0,0,1,131,73.28a5.33,5.33,0,0,0-.78,3.16q-6,.16-12,0c.29-2.14-1.1-3.63-1.74-5.42-.58-1.6-1.57-1.48-2.74-1.51-1.33,0-2.67.29-4-.43-.4-.21-1.33-.44-1.57.35a16.35,16.35,0,0,1-.88,1.78c-.39.89-.88,2-2.26,1.53,0,.68,1,1.08.55,1.53-.74.78-.26,1.44-.12,2.17-2.35,0-4.7,0-7,.07a4.75,4.75,0,0,0-4.61,3.89,7.55,7.55,0,0,0,.37,3.65.6.6,0,0,0-.26,1,14.57,14.57,0,0,1,1.28,2.56,2.51,2.51,0,0,0,2.63,1.6,17.92,17.92,0,0,1,2.93,0c1.46.2,2.67-.87,3.26-2.5h3.13c-.34.57-.64,1.16-1,1.71-1.22,1.78-1.22,1.78.15,3.44.28.33.51.71.76,1.07-.53.43-1.11,0-1.77.52h10v.22h-8.63c.56.16.57.41.21.78H104c0-2.24-.85-3.12-2.86-3.12H97.65a2.69,2.69,0,0,0-2.34,1.46c-.59.92-.53,2.18-1.56,2.89a1,1,0,0,0,0,1.48.87.87,0,0,0,.21.17c-1.4,4.28,1.15,7.73,5.38,7.35,2.1-.18,4.22,0,6.34,0a2.61,2.61,0,0,0,.28,1.73,11.53,11.53,0,0,1,1.4,3.22,10.76,10.76,0,0,1-2.66,0c-.8-1.78-1.39-3.88-3.94-2.77a.53.53,0,0,1-.35,0c-1.38-.59-2.79,0-4.18-.16a.31.31,0,0,0-.36.25h0C95.76,107.91,95.05,108.65,94.85,109.6Zm73.4-40c.37.8.91,1.39,1.21,2.2s1,2,2,2c1.71-.08,3.43,0,5.14-.1a1.7,1.7,0,0,0,1.82-1.55h0a3.27,3.27,0,0,1,1.6-2.55Zm-10.11-.47v.1H165v-.1Zm-45.41,0v.13h2.73v-.13Z" transform="translate(0.02 0)" fill="#cbd3d4"/><path d="M178.53,32.72h2.93c-.3,1.23.81,1.77,1.15,2.7a1.32,1.32,0,0,0,1.43.9H189c.88,0,1.71.09,1.72-1.3,0-.33.45-.68.72-1a1.73,1.73,0,0,0,.64-1.31h7.42c-.12.62-.59.48-1,.49h-3.72c-.51,0-.92.11-.84.77a2.73,2.73,0,0,1-1.2,2.49c-.38.32-.92.67-.62,1.38a18.27,18.27,0,0,0,3.73,5.87.83.83,0,0,0,.74.26c1.18-.09,2.37-.1,3.55-.14v2.6c-1,0-1.93.07-2.88,0a2.59,2.59,0,0,0-2.3,1.06c-.81.93-1.16,2.16-1.9,3.12a3.15,3.15,0,0,0,.2,4.23,2.23,2.23,0,0,1,.71,1.38,2.75,2.75,0,0,0,3,2.48l.27,0a1.66,1.66,0,0,1,1.29.15c.61.48,1.1.19,1.61-.18v3.12c-.82-.12-1.6-.94-2.48-.13-.16.15-.36,0-.53-.16-.8-.53-1.38-.14-1.85.55-.76,1.13-1.44,2.34-2.25,3.43s-1.58,2.22-.16,3.46c0,0,0,.16.08.24A18.34,18.34,0,0,0,195,72.87a1.64,1.64,0,0,0,1.64.82c1.16-.06,2.32,0,3.47,0v3.12a1.09,1.09,0,0,1-.36,0,25.51,25.51,0,0,0-4.19-.39.51.51,0,0,0-.63.33s0,0,0,.06a3.16,3.16,0,0,1-.32,1c-.94,1.43-1.35,3.19-2.46,4.53a.91.91,0,0,0,.2,1.26h0c1,.9,1.39,2.24,2.05,3.38.79,1.37,2,2.34,3,1.93a4,4,0,0,1,2.67-.13v2.77c-1.3-.3-2.62.24-3.91-.16a.47.47,0,0,0-.53.2c-.63,1-1.58,1.75-1.78,3a2,2,0,0,1-.63,1.35c-1.53,1.18-1.15,2.37,0,3.93a10.77,10.77,0,0,1,1.57,2.81c.25.81.62,1,1.26,1a14.48,14.48,0,0,0,4-.26v3.38c-1.34-.25-2.72-.09-4-.46a.47.47,0,0,0-.44.1c-.62,1.06-1.73,1.77-2,3.12h-2.66a5.52,5.52,0,0,1,1.06-2c1.35-1.63,1.4-2.25.41-4.1-.59-1.08-1.22-2.13-1.83-3.19a6.89,6.89,0,0,0-1-3.86c.88-.37.8-1.39,1.19-2.08a22.48,22.48,0,0,1,2.17-3.74,1,1,0,0,0-.07-1.21,16.3,16.3,0,0,1-1.26-2.46c-.18-.32-.3-.91-.52-1-1-.19-1.27-.93-1.47-1.8a6.07,6.07,0,0,0,.56-4.1c1.15-1.06,1.52-2.67,2.37-3.92,1-1.55,1.15-1.49-.13-2.85a5,5,0,0,1-1.59-2.9c-.09-.73-.74-1.14-1.57-1.35s-1.74,0-2.23-1a5.11,5.11,0,0,0,2.84-2.66c.1.13.18.73.34.19a19.05,19.05,0,0,1,2.32-3.94,2.87,2.87,0,0,0,0-3.13c-.22-.46-.57-.83-.8-1.28a6.83,6.83,0,0,1-1.1-2.23,1.12,1.12,0,0,0-1.15-1H183.7a1.08,1.08,0,0,0-1.19.85c-.23,1.5-1.35,2.29-2.1,3.37a3.68,3.68,0,0,1-1.92,0c-.07-.28-.36-.6-.16-.84.76-.92.74-2.31,1.74-3.11a1.63,1.63,0,0,0,.36-2.28l-.15-.17a2.12,2.12,0,0,1-.33-1.45,3.45,3.45,0,0,1,1.43,0c0,.22.11.5.33.49a1.44,1.44,0,0,1,1.73,1.07s0,.06,0,.09a.5.5,0,0,0,.59.39.52.52,0,0,0,.2-.09c1.36-1,2.88-.73,4.36-.65a2.27,2.27,0,0,0,2.48-1.55,9.44,9.44,0,0,1,2.37-3.8c.67-.55.5-1.3-.08-1.89A6.86,6.86,0,0,1,192,42a8.39,8.39,0,0,0-2.11-3.23c-.25-.21-.45-.41-.84-.29a4.86,4.86,0,0,1-3.5.06c-1.71-.73-3-.11-3.13,1.39H180a2.42,2.42,0,0,1,.44-1.4,1.3,1.3,0,0,0-.12-1.65A8.83,8.83,0,0,1,178.53,32.72Z" transform="translate(0.02 0)" fill="#cbd3d4"/><path d="M131.89,109.6a7.31,7.31,0,0,1-2.19,0c-1-1.23-1.11-3.72-3.56-2.76a.55.55,0,0,1-.47,0c-.94-.71-2-.44-3-.45-2,0-3,1.07-3,3.27a15,15,0,0,1-3.14,0c.45-1.85,1.93-3.12,2.41-5h5.83a6.28,6.28,0,0,0,3.25-.57c.31.14.44,0,.51-.32a5.48,5.48,0,0,0,2-4.67,2,2,0,0,0,0-2.73,31.72,31.72,0,0,1-2.23-4.19c-.31-.61-.66-1-1.32-.76a1.7,1.7,0,0,1-1,0c-1.24-.27-2.57.25-3.77-.47a.39.39,0,0,0-.32.11c-1,.94-2.25,1.63-2,3.39h-3.1a6.49,6.49,0,0,1,1.27-2.8c.33-.51,1.19-.83.61-1.67-.4-.6-.2-1.57-.84-1.9s-.54-.84-.57-1.37a10.76,10.76,0,0,1,2.66,0c0,1.74.82,2.57,2.38,2.56,1.38,0,2.75-1,4.14,0a.54.54,0,0,0,.33-.08,4.89,4.89,0,0,0,2-2.44h2.65a2.69,2.69,0,0,1-.84,2.51c-.43.34-1,1.29-.19,1.87a5.6,5.6,0,0,1,1.68,3,3.84,3.84,0,0,0,3.27,2.26c1.17.06,2.37-.38,3.51.18a7.63,7.63,0,0,0-1,2.6c-.41.28-.68-.68-.9-.26s-.32.33-.65.08c-1.13-.85-3.74.2-3.9,1.65a2.37,2.37,0,0,1-.93,1.67c-2,1.79-1.48,3.59-.26,5.29A3,3,0,0,1,131.89,109.6Z" transform="translate(0.02 0)" fill="#cbd3d4"/><path d="M131.89,109.6a3.06,3.06,0,0,0-.66-2.1c-1.22-1.7-1.77-3.5.26-5.29a2.35,2.35,0,0,0,1-1.66c.16-1.45,2.77-2.5,3.9-1.65.33.25.37.43.65-.08s.49.54.9.26A5.92,5.92,0,0,0,140,103.8c1.29,1.13,2.77.71,4.19.86-1,1-1.21,2.61-2.18,3.67a1.94,1.94,0,0,0-.48,1.28Zm10.57-4.41-.16-.13h-.11s0,.16,0,.16Z" transform="translate(0.02 0)" fill="#d6dcde"/><path d="M83.88,98.79c1.53.59,3.08,0,4.61,0a2.87,2.87,0,0,1,3.06,1.92,17.75,17.75,0,0,0,1.74,2.86,2.37,2.37,0,0,1-.13,3.17,5.1,5.1,0,0,0-1.45,2.87l-7.73.15v-.08l-.16-.24h-.09Z" transform="translate(0.02 0)" fill="#d6dcde"/><path d="M190.67,100.34c.61,1.06,1.24,2.11,1.83,3.19,1,1.85.94,2.47-.41,4.1a5.52,5.52,0,0,0-1.06,2q-4.8.16-9.6,0a3.84,3.84,0,0,0-.26-1.61c-1.58-2.78-1.67-3-.16-5.2l.8.76C185.05,106.42,189.7,104.74,190.67,100.34Z" transform="translate(0.02 0)" fill="#d6dcde"/><path d="M166.46,109.6c-2.89.1-5.78.12-8.67,0h-.2a1.76,1.76,0,0,1-1.24,0c-.62-1.43-2-2.11-2.93-3.15-.7-.74-.93-1.24.06-1.8h.43v.18c.07.5.43.69.77.92.22-.38-.08-.62,0-.9l1.19-.11h12.51C168.2,106.48,166.6,107.7,166.46,109.6Z" transform="translate(0.02 0)" fill="#d6dcde"/><path d="M118.89,104.65c-.48,1.83-2,3.1-2.41,5h-9.13a11.53,11.53,0,0,0-1.4-3.22,2.61,2.61,0,0,1-.28-1.73Z" transform="translate(0.02 0)" fill="#d6dcde"/><path d="M166.46,109.6c.1-1.9,1.7-3.12,1.93-5a10.58,10.58,0,0,0,2.49-.95h5.45a1.93,1.93,0,0,0,1.86-1.23c.49-.87.62-2.24,1.91-2.41a11.58,11.58,0,0,0,.87,2.69c-1.51,2.22-1.42,2.42.16,5.2a3.84,3.84,0,0,1,.26,1.61h-1.23a6.51,6.51,0,0,1-1.88-1.78,2.16,2.16,0,0,0-2.51-1.29c-.6.14-1.24,0-1.92.21a3,3,0,0,1-2.56-.15c-.25-.17-.49-.2-.62,0-.56,1.09-1.7,1.71-2,3A7.8,7.8,0,0,1,166.46,109.6Z" transform="translate(0.02 0)" fill="#cbd3d4"/><path d="M119.62,109.61c0-2.2,1-3.3,3-3.27,1,0,2.08-.26,3,.45a.55.55,0,0,0,.47,0c2.45-1,2.58,1.53,3.56,2.76Z" transform="translate(0.02 0)" fill="#d6dcde"/><path d="M168.68,109.61c.33-1.27,1.47-1.89,2-3,.13-.24.37-.21.62,0a3,3,0,0,0,2.56.15c.68-.21,1.32-.07,1.92-.21a2.16,2.16,0,0,1,2.51,1.29,6.51,6.51,0,0,0,1.88,1.78C176.36,109.7,172.52,109.71,168.68,109.61Z" transform="translate(0.02 0)" fill="#d6dcde"/><path d="M94.85,109.6c.2-1,.91-1.69,1-2.7a.31.31,0,0,1,.35-.26h0c1.39.15,2.8-.43,4.18.16a.53.53,0,0,0,.35,0c2.55-1.11,3.14,1,3.94,2.77Z" transform="translate(0.02 0)" fill="#d6dcde"/><path d="M193.69,109.61c.23-1.35,1.34-2.06,2-3.12a.47.47,0,0,1,.44-.1c1.33.37,2.71.21,4.05.46v2.59a.44.44,0,0,0-.17.16C197.9,109.71,195.8,109.71,193.69,109.61Z" transform="translate(0.02 0)" fill="#d6dcde"/><path d="M153.46,106.44c-.7-.74-.94-1.24.06-1.8l-1-.12a7.66,7.66,0,0,1-3,.14h-5.35c-1,1-1.18,2.61-2.18,3.67a1.94,1.94,0,0,0-.48,1.28,14.15,14.15,0,0,0,2.91,0c.68-.9.34-2.38,1.61-2.9a2.58,2.58,0,0,1,1.11-.38h0a2.58,2.58,0,0,0-1.11.38c-1.27.52-.93,2-1.61,2.9h2.39c.1-.7.79-1,1.1-1.5A.8.8,0,0,1,148,108a.8.8,0,0,0-.15.17c-.35.5-1,.8-1.1,1.5l1.45,0c-.1-.25-.75-.25-.18-.79-.46.45.08.54.18.79h.48c.2-.26.47-.21.73-.21a2.11,2.11,0,0,1,.78-1.4c.72-.58,1.49-.06,1.72,1.18-.89-1-1.55-.74-2.06.26a22.69,22.69,0,0,0,2.33.23,1.89,1.89,0,0,0,1.36-.19l-.06-.23.06.23c1-.2,1.88.31,2.82.06C155.77,108.16,154.46,107.44,153.46,106.44Zm-4.92,1a.62.62,0,0,0,.22-.74A.59.59,0,0,1,148.54,107.49Zm1.08-.34a7.64,7.64,0,0,0-.77.83,6,6,0,0,1,.77-.83c1.47-1.25,3.12-.73,3.66,1.26C152.74,106.45,151.09,105.9,149.62,107.15Z" transform="translate(0.02 0)" fill="#cbd3d4"/><path d="M149.46,109.45a2.11,2.11,0,0,1,.78-1.4c.67-.58,1.49-.06,1.72,1.18-.89-1-1.55-.78-2.06.26Z" transform="translate(0.02 0)" fill="#cbd3d4"/><path d="M148.71,109.66c.2-.26.47-.22.73-.21C149.26,109.78,149,109.74,148.71,109.66Z" transform="translate(0.02 0)" fill="#cbd3d4"/><path d="M157.63,109.55h0Z" transform="translate(0.02 0)" fill="#cbd3d4"/><path d="M2.75,109.61h0Z" transform="translate(0.02 0)" fill="#cbd3d4"/><path d="M.58,109.6h0Z" transform="translate(0.02 0)" fill="#cbd3d4"/><path d="M200,109.6a.44.44,0,0,1,.17-.16.37.37,0,0,1,0,.21A.26.26,0,0,1,200,109.6Z" transform="translate(0.02 0)" fill="#cbd3d4"/><path d="M200.14,58.61c-.51.37-1,.66-1.61.18a1.66,1.66,0,0,0-1.29-.15A2.75,2.75,0,0,1,194,56.47a2.51,2.51,0,0,1,0-.27,2.23,2.23,0,0,0-.71-1.38,3.15,3.15,0,0,1-.2-4.23c.74-1,1.09-2.19,1.9-3.12a2.59,2.59,0,0,1,2.3-1.06c1,.09,1.92,0,2.88,0Z" transform="translate(0.02 0)" fill="#d6dcde"/><path d="M200.12,73.65h-3.47a1.64,1.64,0,0,1-1.64-.82A18.34,18.34,0,0,1,193,69.1c0-.08,0-.2-.08-.24-1.42-1.24-.7-2.31.16-3.46s1.49-2.3,2.25-3.43c.47-.69,1.05-1.08,1.85-.55.17.11.37.31.53.16.88-.81,1.66,0,2.48.13C200.13,65.7,200.13,69.68,200.12,73.65Z" transform="translate(0.02 0)" fill="#d6dcde"/><path d="M200.14,103.47a14.48,14.48,0,0,1-4,.26c-.64,0-1-.22-1.26-1a10.77,10.77,0,0,0-1.57-2.81c-1.11-1.56-1.49-2.75,0-3.93a2,2,0,0,0,.63-1.35c.2-1.27,1.15-2,1.78-3a.47.47,0,0,1,.53-.2c1.29.4,2.61-.14,3.91.16C200.13,95.57,200.14,99.52,200.14,103.47Z" transform="translate(0.02 0)" fill="#d6dcde"/><path d="M200.14,88.69a4,4,0,0,0-2.67.13c-1,.41-2.26-.56-3-1.93-.66-1.14-1-2.48-2.05-3.38a.89.89,0,0,1-.21-1.25h0c1.11-1.34,1.52-3.1,2.46-4.53a3.16,3.16,0,0,0,.32-1,.5.5,0,0,1,.58-.4h.06a25.61,25.61,0,0,1,4.19.39,1.09,1.09,0,0,0,.36,0v2.07a2,2,0,0,0,0,2.6C200.15,83.86,200.15,86.27,200.14,88.69Z" transform="translate(0.02 0)" fill="#d6dcde"/><path d="M200.14,43.83a30.1,30.1,0,0,0-3.55.14.83.83,0,0,1-.74-.26,18.27,18.27,0,0,1-3.73-5.87c-.3-.71.24-1.06.62-1.38a2.73,2.73,0,0,0,1.2-2.49c-.08-.66.33-.78.84-.77h3.68c.37,0,.84.13,1-.49h.71Z" transform="translate(0.02 0)" fill="#d6dcde"/><path d="M200.15,81.44a2,2,0,0,1,0-2.6C200.14,79.7,200.15,80.55,200.15,81.44Z" transform="translate(0.02 0)" fill="#cbd3d4"/><path d="M43.38,39.94H17.89c.89-.21,1.27-.58.83-1.68a2.45,2.45,0,0,1,.45-2.5c.75-1,1.29-2.09,2.08-3h7.69c1.15,1.07,1.5,2.67,2.24,4a1.75,1.75,0,0,1,.13,1.79c-.44.82-.1,1.08.73,1.18S33.68,39,34.48,39A19.24,19.24,0,0,1,43.38,39.94Z" transform="translate(0.02 0)" fill="#d6dcde"/><path d="M16.46,40a10.83,10.83,0,0,0-5,2.59,10.5,10.5,0,0,0-3.23,8,4.32,4.32,0,0,1-.43-1.84,2.92,2.92,0,0,0-1.07-1.94,2.23,2.23,0,0,1-.5-3.11.44.44,0,0,1,.08-.11c1-1.22,1.5-2.72,2.44-3.95A1.39,1.39,0,0,1,10,38.91a42.19,42.19,0,0,1,5.73.24C16.31,39.23,16,39.94,16.46,40Z" transform="translate(0.02 0)" fill="#d6dcde"/><path d="M7.55,32.72H17.88c-.56,1.13-1.1,2.28-1.71,3.39-.16.31-.58.2-.9.2H10.13c-1,0-1.8-.3-1.89-1.63C8.19,34,7.32,33.55,7.55,32.72Z" transform="translate(0.02 0)" fill="#d6dcde"/><path d="M74.2,40,55.46,40H45.28a4.21,4.21,0,0,0,2.48-1.77c.87-1.09,1.84-2.08,2.8-3.08.59-.61,1.35-1.25,1.22-2.36h2.15c.36,1,1.35,1.71,1.25,3,0,.33.25.49.53.62,1,.43,1.1,1,.42,2s-.3,1.33.63,1.41a7.52,7.52,0,0,0,2.7-.76,12.11,12.11,0,0,1,4.16,0c1.34.11,2.56.84,4,.7.71-.07,1-.38.78-1a3.53,3.53,0,0,1,.47-2.79,23,23,0,0,1,2-3.15v-.1h8.22v.1c1.5,1.17,1.38,3.26,2.32,4.74a.72.72,0,0,1,0,.61c-.78,1-.81,2.63-2.12,3.24l-1.69-.69A5.38,5.38,0,0,0,74.2,40Z" transform="translate(0.02 0)" fill="#d6dcde"/><path d="M70.81,32.72a23,23,0,0,0-2,3.15,3.53,3.53,0,0,0-.47,2.79c.22.67-.07,1-.78,1-1.39.14-2.61-.59-4-.7a12.11,12.11,0,0,0-4.16,0,7.65,7.65,0,0,1-2.66.66c-.93-.08-1.22-.59-.63-1.41s.58-1.54-.42-2c-.28-.13-.56-.29-.53-.62.1-1.25-.89-2-1.25-3h3.38c.15.77.48,1.49.62,2.27a1.49,1.49,0,0,0,1.61,1.36h.11c1.62-.1,3.26-.06,4.89,0a1.78,1.78,0,0,0,1.53-.8,3.51,3.51,0,0,0,.85-2.81l.25-.11Z" transform="translate(0.02 0)" fill="#cbd3d4"/><path d="M66.94,32.72a3.49,3.49,0,0,1-.85,2.83,1.78,1.78,0,0,1-1.53.8c-1.63,0-3.27-.09-4.89,0A1.49,1.49,0,0,1,58,35.11S58,35,58,35c-.14-.78-.47-1.5-.62-2.27H58c.49.76,1,.76,1.45,0l2.65-.1h1.68Z" transform="translate(0.02 0)" fill="#d6dcde"/><path d="M44.63,30.55c1.2-1.21,2.61-1.19,4.48.07A27.93,27.93,0,0,1,44.63,30.55Z" transform="translate(0.02 0)" fill="#0073c0"/><path d="M50.35,32.73c-.06.6-.43.74-.91.73s-.72,0-.77.53h-.73v-.5c.27-.18.24-.48.25-.76Z" transform="translate(0.02 0)" fill="#d6dcde"/><path d="M59.46,32.72c-.48.76-1,.76-1.45,0Z" transform="translate(0.02 0)" fill="#cbd3d4"/><path d="M48.19,32.71a.84.84,0,0,1-.25.76c-.44,0-.49-.35-.46-.73v-.12Z" transform="translate(0.02 0)" fill="#cbd3d4"/><path d="M95.08,32.71l.72-.09h6.5l.24.09a.48.48,0,0,0,.47.48c1.5.11,1.61,1.74,2.43,2.58a2.12,2.12,0,0,1,.39,3,2.34,2.34,0,0,1-.31.32c-.29.33.19.64-.1.9-2.08,0-4.16.08-6.24,0a5.26,5.26,0,0,0-4.3,1.88,11.88,11.88,0,0,0-1.67-3.22c-.41-.69-.53-1-.07-1.76A13.52,13.52,0,0,0,95.08,32.71Z" transform="translate(0.02 0)" fill="#d6dcde"/><path d="M120.1,32.71l.71-.09,7.46.09c.07.2.1.46.23.57A3.78,3.78,0,0,1,130,35.74a.72.72,0,0,0,.24.42c1.12.83.78,1.89.39,2.93a2.5,2.5,0,0,0-.19.86h-12a2,2,0,0,0-.27-1.11,1.94,1.94,0,0,1,0-2.07C118.83,35.44,120.26,34.49,120.1,32.71Z" transform="translate(0.02 0)" fill="#d6dcde"/><path d="M95.08,32.71a13.51,13.51,0,0,1-1.94,4.18c-.46.75-.34,1.07.07,1.76a11.88,11.88,0,0,1,1.67,3.22l-1,2.22c-.19,0-.55-.08-.55-.13-.06-1.37-1.3-2-1.69-3.18-.29-.88-.72-1.88-1.89-1.87H84.46c-.59,0-.9.31-1.17.89a15,15,0,0,0-1.55,3.75v-.09c.09-.17.18-.36,0-.5s-.25,0-.34.17l-2.14-1.81c1.31-.61,1.34-2.22,2.12-3.24a.72.72,0,0,0,0-.61c-.94-1.48-.82-3.57-2.32-4.74l2.18-.1.73.1c.87,2.84,1.37,3.64,3.7,3.6H89a3.89,3.89,0,0,0,3.53-3.6l1.21-.1Z" transform="translate(0.02 0)" fill="#cbd3d4"/><path d="M120.1,32.71c.16,1.78-1.27,2.73-1.91,4.07a1.94,1.94,0,0,0,0,2.07,2,2,0,0,1,.27,1.11c-4.33.11-8.66.09-13,0,.29-.26-.19-.57.1-.9a2.1,2.1,0,0,0,.24-3,1.57,1.57,0,0,0-.32-.31c-.82-.84-.93-2.47-2.43-2.58a.48.48,0,0,1-.47-.48l3.12-.1,1.69.11v.9c0,1.83.81,2.69,2.45,2.69a26.88,26.88,0,0,1,3.59,0c1.84.26,3-1.22,3.57-3.63l.25-.1Z" transform="translate(0.02 0)" fill="#cbd3d4"/><path d="M130.46,40a2.5,2.5,0,0,1,.19-.86c.39-1,.73-2.1-.39-2.93a.72.72,0,0,1-.24-.42,3.76,3.76,0,0,0-1.56-2.46c-.13-.11-.16-.37-.23-.57l.72-.1h2.16l.73.11c.15,1.82,1.06,3.45,2.23,3.53a43.6,43.6,0,0,0,5.6,0c1-.06,1.21-.68.62-1.56-.2-.31-.52-.54-.52-1,.92-.07,1.32.74,1.79,1.32a2.82,2.82,0,0,0,3.4,1.1,1.57,1.57,0,0,1,.53,0c-.34,1-1,.88-1.68.93-.36,0-1-.25-1,.32a1.56,1.56,0,0,0,.6,1.58,4.43,4.43,0,0,0,1,.3c-.47.28-1.13-.15-1.24.65a12.53,12.53,0,0,1-3.12,0c-.72-.53-1.54-.27-2.3-.24-1.48.06-3-.33-4.44.24A13.58,13.58,0,0,1,130.46,40Z" transform="translate(0.02 0)" fill="#cbd3d4"/><path d="M107.35,32.72l-1.69-.11c.9-.56,1.42-1.56,2.94-.68,1.23.72,3.07.21,4.64.23h3c.37,0,.84-.16,1,.44l-.25.1Z" transform="translate(0.02 0)" fill="#4a5557"/><path d="M81.86,32.72l-.73-.1c.54-.49.82-1.84,1.87-.57.17.21.69.11,1,.11h8.49c.4,0,.92-.22,1.11.45l-1.21.1Z" transform="translate(0.02 0)" fill="#4a5557"/><path d="M79,32.62H70.77c.11-.43.42-.46.76-.45h6.71C78.57,32.16,78.88,32.19,79,32.62Z" transform="translate(0.02 0)" fill="#4a5557"/><path d="M129,32.61l-.72.1-7.46-.09c.1-.45.42-.45.75-.45h6.68C128.57,32.17,128.9,32.16,129,32.61Z" transform="translate(0.02 0)" fill="#4a5557"/><path d="M102.3,32.62H95.8c.76-.65,1.44-1.16,2.58-.62.8.39,1.87.12,2.82.17C101.6,32.2,102.11,32,102.3,32.62Z" transform="translate(0.02 0)" fill="#4a5557"/><path d="M66.94,32.72l-3.12-.1a3.2,3.2,0,0,1,3.37,0Z" transform="translate(0.02 0)" fill="#4a5557"/><path d="M157,32.73l18-.07c1,0,2,0,3,.06-.15.68-.68.47-1.08.47h-6.1a1.55,1.55,0,0,0-1.54.76c-1,1.85-2.53,3.63-1.14,6h-2.4a1.1,1.1,0,0,0-1.13-1.07h-5.78a1,1,0,0,0-1,.51,45.15,45.15,0,0,0-2.66,5,1.82,1.82,0,0,0,0,1.58c.66,1.65,2,2.9,2.42,4.71.11.44.58.52,1,.63,1.95.57,3.91-.1,5.86,0,.64,0,.78-.48.87-1a15.2,15.2,0,0,1,3.37-.07c.07.5-.24.74-.52,1.06a2.08,2.08,0,0,0-.44,2.33A10.24,10.24,0,0,0,170,57.07a1.25,1.25,0,0,1,.42,1.12,8.48,8.48,0,0,1-2.66,0c-.17-.42-.53-.32-.83-.32H156.83c-.31,0-.66-.1-.83.32a4.51,4.51,0,0,1-2.19,0,2.78,2.78,0,0,1,.55-2,10.24,10.24,0,0,0,1.3-2.3,2.53,2.53,0,0,0-.64-3.23,1.88,1.88,0,0,1-.57-.94c-.3-.92-.63-1.83-.95-2.74a6.34,6.34,0,0,0-.21-4.1,7.3,7.3,0,0,1,1.42-2.46,5,5,0,0,0,.25-5.13c-.44-.85-1.29-1.43-1.39-2.49h3.13c.41.9.8,1.81,1.25,2.69a1.56,1.56,0,0,0,1.69.9,25,25,0,0,1,3.24,0c1.54.1,2.71-.06,3.28-2.07.35-1.2,0-1.07-.72-1.06h-7.09C157.84,33.2,157.32,33.33,157,32.73Zm4.6,24.82H165c2,0,2,0,1.09-2-.52-1.12-1.16-1.84-2.5-1.7a28.32,28.32,0,0,1-4.32,0,1.79,1.79,0,0,0-1.87,1.27c-.2.47-.34,1-.55,1.43-.31.7-.08,1,.58,1Z" transform="translate(0.02 0)" fill="#cbd3d4"/><path d="M153.52,32.73c.1,1.06.95,1.64,1.39,2.49a5,5,0,0,1-.25,5.13,7.3,7.3,0,0,0-1.42,2.46A5,5,0,0,0,148.46,40h-5.27c.11-.8.77-.37,1.24-.65a4.43,4.43,0,0,1-1-.3,1.56,1.56,0,0,1-.6-1.58c0-.57.64-.29,1-.32.66,0,1.34,0,1.68-.93a1.57,1.57,0,0,0-.53,0,2.82,2.82,0,0,1-3.4-1.1c-.47-.58-.87-1.39-1.79-1.32h0l-.24-1,1-.09.7.15c.73,2,1.86,2.86,3.22,2.23a3.32,3.32,0,0,0,1.61-2.26v-.06h2.64Z" transform="translate(0.02 0)" fill="#d6dcde"/><path d="M168.19,40c-1.39-2.39.11-4.17,1.14-6a1.55,1.55,0,0,1,1.54-.76H177c.4,0,.93.21,1.08-.47h.48a8.73,8.73,0,0,0,1.77,4.13,1.29,1.29,0,0,1,.16,1.68A2.41,2.41,0,0,0,180,40Z" transform="translate(0.02 0)" fill="#d6dcde"/><path d="M192,32.72c.07.6-.31.94-.64,1.31s-.72.66-.72,1c0,1.39-.84,1.31-1.72,1.3H184a1.32,1.32,0,0,1-1.43-.9c-.34-.93-1.45-1.47-1.15-2.7Z" transform="translate(0.02 0)" fill="#d6dcde"/><path d="M157,32.73c.29.6.81.47,1.27.47h7.09c.75,0,1.07-.14.72,1.06-.57,2-1.74,2.17-3.28,2.07a25,25,0,0,0-3.24,0,1.56,1.56,0,0,1-1.69-.9c-.45-.88-.84-1.79-1.25-2.69Z" transform="translate(0.02 0)" fill="#d6dcde"/><path d="M139.31,30.67l-.67-.27c-.44.44-1,.15-1.48.19a2,2,0,0,1,1.18,2l.49.1h.72l1-.09C140.41,31.75,139.43,31.53,139.31,30.67Z" transform="translate(0.02 0)" fill="#4b4c4c"/><path d="M62.65,12.55a1.29,1.29,0,0,1,.9,1.16,1.84,1.84,0,0,1-1.37,1.73c-.47.12-1-.43-1.16-1.07C61,14,62.25,12.55,62.65,12.55Z" transform="translate(0.02 0)" fill="#0073c0"/><path d="M138.36,32.64l.49.1a1.06,1.06,0,0,0,1,1h0c0,.44.32.67.52,1,.59.88.4,1.5-.62,1.56a47.56,47.56,0,0,1-5.6,0c-1.17-.08-2.08-1.71-2.23-3.53Z" transform="translate(0.02 0)" fill="#d6dcde"/><path d="M79.2,41.31l2.14,1.81a.4.4,0,0,0,.36.33v.09a13,13,0,0,1,2.16,8.06,8.48,8.48,0,0,0,0,2.36V68.47q-.15,6.61,0,13.22V84a12.21,12.21,0,0,0,0,3.08h0c-.14,3.12-.12,6.23,0,9.35v2.32c0,3.55-.07,7.1-.11,10.66l-.89.26V88.06c0-4.45,0-8.89-.06-13.33,0-8.34.06-16.68,0-25a9.7,9.7,0,0,0-5-8.52c-.09-.19-.18-.39-.28-.58Z" transform="translate(0.02 0)" fill="#4a5557"/><path d="M77.51,40.62c.1.19.19.39.28.58A12.27,12.27,0,0,1,74.2,40,5.35,5.35,0,0,1,77.51,40.62Z" transform="translate(0.02 0)" fill="#6e869d"/><path d="M26.78,103c.24.14.25.36.2.61A.58.58,0,0,1,26.78,103Z" transform="translate(0.02 0)" fill="#2c2c2d"/><path d="M168.34,122.27v-6.85c0-.69.17-1,.88-1,2.54,0,2.54-.07,2.54,2.67v11.64c0,.91-.13,1.29-1.09,1.27-2.36-.06-2.36,0-2.37-2.58v-5.18Z" transform="translate(0.02 0)" fill="#4d4e4e"/><path d="M122.69,122.55v6.6c0,.76-.13,1-.91,1-2,0-2,0-2-2.1V115.89c0-1,.14-1.38,1.15-1.33,1.71.1,1.72,0,1.72,1.87v6.12Z" transform="translate(0.02 0)" fill="#4d4e4e"/><path d="M154.31,122.28v-6.73c0-.86.24-1.11,1-1.1,1.82,0,1.81,0,1.81,1.89v12.55c0,.93-.24,1.17-1.07,1.13-1.93-.1-1.77.41-1.77-1.92v-5.82Z" transform="translate(0.02 0)" fill="#4d4e4e"/><path d="M177.38,122.27V129c.05,1.52-.94.87-1.55,1s-1.11.07-1.1-.95c.06-4.45.08-8.89,0-13.33,0-1.42.71-1.18,1.51-1.24s1.16.24,1.12,1.22c-.07,2.2,0,4.4,0,6.6Z" transform="translate(0.02 0)" fill="#4d4e4e"/><path d="M182.39,122.28v-6.86c0-1.43.9-.82,1.49-1s.82.21.82.93c0,4.53-.06,9.06,0,13.59,0,1.09-.47,1-1.15,1s-1.22.12-1.17-1c.09-2.24,0-4.49,0-6.73Z" transform="translate(0.02 0)" fill="#4d4e4e"/><path d="M130.62,122.41v6.73c0,.78-.15,1.08-.92,1s-1,0-1-.95V115.46c0-.82.31-.9.92-.89s1.06,0,1,.93c-.05,2.29,0,4.58,0,6.87Z" transform="translate(0.02 0)" fill="#4d4e4e"/><path d="M165.12,122.27v6.85c0,.8-.28.93-.9.88s-1.09.14-1.08-.85V115.32c0-.82.39-.9,1-.87s1,.06,1,1C165.07,117.7,165.11,120,165.12,122.27Z" transform="translate(0.02 0)" fill="#4d4e4e"/><path d="M125.4,122.4v6.87c0,.65-.14.92-.8.91s-.84-.16-.84-.87V115.45c0-.72.29-.83.87-.85s.78.33.77.94Z" transform="translate(0.02 0)" fill="#4a5557"/><path d="M150.16,117.74c0,3.88,0,7.76.05,11.65,0,.66-.27.9-.78.75s-1.44.54-1.45-.49c0-3.44-.18-6.9.07-10.34C149.09,119.31,149.36,118.11,150.16,117.74Z" transform="translate(0.02 0)" fill="#4b4c4c"/><path d="M174,122.28v6.85c0,.5,0,.9-.66.89s-.71-.28-.71-.85V115.46c0-.56,0-1,.72-1s.63.61.63,1.11v6.73Z" transform="translate(0.02 0)" fill="#4a5557"/><path d="M159.85,122.27v6.85c0,.53,0,.94-.69.88s-.88,0-.87-.81v-14c0-.71.34-.73.81-.78.62-.07.74.28.73.84v7Z" transform="translate(0.02 0)" fill="#4b4c4c"/><path d="M181.92,122.42V129c0,.39.25,1-.53,1s-.62-.48-.62-.93v-13.7c0-.45,0-.88.56-.91s.61.51.61,1v7Z" transform="translate(0.02 0)" fill="#4a5557"/><path d="M167.92,122.28V129c0,.44.15,1-.58,1s-.56-.59-.56-1v-13.6c0-.49,0-1,.64-1s.51.54.52.94v6.87Z" transform="translate(0.02 0)" fill="#4a5557"/><path d="M133.34,122.44v6.71c0,.4.27,1-.51,1s-.5-.55-.5-.94V115.52c0-.39-.13-.88.53-.91s.57.56.57,1v6.84Z" transform="translate(0.02 0)" fill="#4a5557"/><path d="M146.4,120.05a16.57,16.57,0,0,1,0-3.59c.51,0,.55-.73,1-.78v13.68c0,.38.08.79-.5.81s-.66-.28-.65-.79c0-2.66,0-5.33.08-8a.73.73,0,0,0,.62-.78C147,120.15,146.74,120.06,146.4,120.05Z" transform="translate(0.02 0)" fill="#4b4c4c"/><path d="M161.23,129.93c-.59.23-.85.12-.85-.67V115.43c0-.6.13-1,.78-1,0,.47.09.94.09,1.41Q161.24,122.88,161.23,129.93Z" transform="translate(0.02 0)" fill="#4a5557"/><path d="M152.46,122.48v6.72c0,.36.14.92-.36.94s-.43-.61-.43-1V115.7c0-.33-.3-1,.31-1s.46.65.46,1.07C152.46,118,152.46,120.24,152.46,122.48Z" transform="translate(0.02 0)" fill="#65686b"/><path d="M128.1,122.41v6.74c0,.38.19,1-.44,1s-.51-.52-.51-.91V115.37c0-.34-.06-.73.42-.76s.51.42.52.8Z" transform="translate(0.02 0)" fill="#65686b"/><path d="M125.91,122.27v-6.72c0-.38-.17-1,.5-.91s.38.56.38.91v13.69c0,.39.18,1-.5.91s-.36-.56-.36-.9v-7Z" transform="translate(0.02 0)" fill="#4a5557"/><path d="M152.94,122.36v-6.87c0-.32-.2-.9.4-.87s.36.58.36.92v13.6c0,.36.27,1-.39,1s-.33-.67-.33-1C152.93,126.85,153,124.6,152.94,122.36Z" transform="translate(0.02 0)" fill="#4a5557"/><path d="M179.52,122.3v6.84c0,.43.08.89-.56.86s-.43-.51-.43-.83v-13.7c0-.38-.16-.94.49-1s.49.54.49.93v6.85Z" transform="translate(0.02 0)" fill="#4b4c4c"/><path d="M161.69,114.6c.5-.18.84-.15.84.59v14.15c0,.76-.41.68-.87.59Z" transform="translate(0.02 0)" fill="#4b4c4c"/><path d="M142.92,126v3.36l-.21.09.22.19c-.55,1-1.45.37-2.16.42s-.37-.7-.38-1.1v-4.24C141.2,125.24,141.74,126.38,142.92,126Z" transform="translate(0.02 0)" fill="#4b4c4c"/><path d="M142.92,126c-1.18.34-1.72-.8-2.55-1.28v-2.37c1.39.52,1.34.51,1.37-1,0-.93-.11-2,1.08-2.38C142.87,121.36,142.89,123.7,142.92,126Z" transform="translate(0.02 0)" fill="#4b4c4c"/><path d="M186.91,122.17v6.74c0,.39.21,1-.33,1.08s-.36-.64-.36-1V115.12c0-.18,0-.57.32-.59s.38.35.38.64v7Z" transform="translate(0.02 0)" fill="#4a5557"/><path d="M187.46,122.29v-6.85c0-.35-.16-.9.39-.89s.32.52.32.82V129.2c0,.29.18.78-.37.73s-.32-.5-.32-.79v-6.85Z" transform="translate(0.02 0)" fill="#4d4e4e"/><path d="M145,121.37c0,2.62.06,5.25.07,7.87,0,.38.18.93-.49.92s-.52-.53-.52-.93c0-2.62,0-5.24.07-7.86Z" transform="translate(0.02 0)" fill="#4a5557"/><path d="M140.46,118.79c.74-.5,1.34-1.39,2.4-1v1.26c-1.19.35-1.06,1.45-1.08,2.38,0,1.5,0,1.51-1.37,1A16.41,16.41,0,0,1,140.46,118.79Z" transform="translate(0.02 0)" fill="#4b4c4c"/><path d="M161.69,114.6v15.33h-.45V115.84c0-.47-.06-.94-.09-1.41A.51.51,0,0,1,161.69,114.6Z" transform="translate(0.02 0)" fill="#cbd3d4"/><path d="M137.17,125.26c0,1.2.07,2.4.1,3.6,0,1-.57,1.2-1.3,1.29.09-1.4.18-2.79-1.47-3.3-.11,0-.15-.36-.22-.55.72-.19,1.88.56,1.93-1.06Z" transform="translate(0.02 0)" fill="#4b4c4c"/><path d="M145,121.37h-.87l-.06-5.93c0-.41,0-.81.51-.82s.51.45.5.82C145.08,117.42,145.05,119.39,145,121.37Z" transform="translate(0.02 0)" fill="#4b4c4c"/><path d="M134.28,126.3h-.42v-1.52a7.39,7.39,0,0,1,2.32.48C136.16,126.86,135,126.11,134.28,126.3Z" transform="translate(0.02 0)" fill="#4d4e4e"/><path d="M148,115.14c.4.07,1-.23,1.15.37a1.41,1.41,0,0,1-.36,1.53c-.28.32-.54.65-.79,1Z" transform="translate(0.02 0)" fill="#4b4c4c"/><path d="M142,114.6c-.69.14-1.84-.56-1.7,1.1.08,1,.09,2.06.13,3.09.74-.5,1.34-1.39,2.4-1a20.16,20.16,0,0,1,.12-2.06C143,115.05,142.85,114.42,142,114.6Z" transform="translate(0.02 0)" fill="#4b4c4c"/><path d="M134.46,126.85c-.11,0-.15-.36-.22-.55h-.42V128c0,2.2,0,2.2,2.11,2.19C136.06,128.75,136.15,127.36,134.46,126.85Z" transform="translate(0.02 0)" fill="#4b4c4c"/><path d="M149.78,114.7c-.59.06-1.4-.59-1.8.44.4.07,1-.23,1.15.37a1.41,1.41,0,0,1-.36,1.53c-.28.32-.54.65-.79,1l.07,1.31c1,0,1.31-1.2,2.11-1.57v-2C150.14,115.33,150.36,114.65,149.78,114.7Z" transform="translate(0.02 0)" fill="#4b4c4c"/><path d="M133.89,124.76a7.39,7.39,0,0,1,2.32.48h1v-.76a14.43,14.43,0,0,1-3.34-.3Z" transform="translate(0.02 0)" fill="#4b4c4c"/><path d="M146.81,114.63c-.69,0-.45.56-.46.93a4.24,4.24,0,0,0,.05.9c.51,0,.55-.73,1-.78C147.52,115.13,147.56,114.62,146.81,114.63Z" transform="translate(0.02 0)" fill="#4b4c4c"/><path d="M139.46,128.35v-.48c-.52.08-.72-.74-1.28-.53v1.8h0c.05.44-.24,1.09.58,1,.34,0,.77.1.78-.47s0-.87-.09-1.31Z" transform="translate(0.02 0)" fill="#4b4c4c"/><path d="M138.85,118l0,0a.54.54,0,0,1,.61-.53,1.16,1.16,0,0,0,0-.86c-.54-.35-.14-1.68-1.27-1.42v.79a.57.57,0,0,1,.28.1.48.48,0,0,0-.28-.1v11.36c.56-.21.76.61,1.28.53.17-3.3.1-6.59,0-9.89Zm-.32-1.83a.26.26,0,0,0-.07-.11A.26.26,0,0,1,138.53,116.17Z" transform="translate(0.02 0)" fill="#4b4c4c"/><path d="M139.46,116.55c0-.41.06-.83.06-1.25,0-.27.13-.73-.28-.66s-1-.48-1.05.49C139.29,114.88,138.89,116.21,139.46,116.55Z" transform="translate(0.02 0)" fill="#4b4c4c"/><path d="M146.4,120.05v1.34a.73.73,0,0,0,.62-.78C147,120.15,146.74,120.06,146.4,120.05Z" transform="translate(0.02 0)" fill="#4b4c4c"/><path d="M138.85,118c0-.44.28-.55.62-.58V118Z" transform="translate(0.02 0)" fill="#4b4c4c"/><path d="M142.9,129.68l-.22-.19.21-.09Z" transform="translate(0.02 0)" fill="#65686b"/><path d="M119.86,86.66a10.76,10.76,0,0,0-2.66,0H98.62a5.13,5.13,0,0,1-4.48-2.6,7.55,7.55,0,0,1-.37-3.65,4.75,4.75,0,0,1,4.61-3.89c2.35,0,4.7,0,7-.07h12.78q6,.15,12,0,6.6.17,13.22,0,5.9.17,11.79,0c2,0,4,.13,6,0A5,5,0,0,1,166,79.14a5.58,5.58,0,0,1-1.28,6.47,5.31,5.31,0,0,1-3.48,1.06c-1.79,0-3.58,0-5.37,0h-36Z" transform="translate(0.02 0)" fill="#4b4c4c"/><path d="M143.18,40c1.76,0,3.52.08,5.27,0a5,5,0,0,1,4.79,2.81,6.34,6.34,0,0,1,.21,4.1,5.11,5.11,0,0,1-5.21,3.33,26.43,26.43,0,0,0-4.79.1,2.39,2.39,0,0,1-.13.21c0-.32-.2-.27-.39-.26H118.46a9.72,9.72,0,0,0-2.64,0h-10.1c-2,0-4-.11-6-.06a5.73,5.73,0,0,1-4.8-1.85l-1-2.21V44l1-2.22a5.26,5.26,0,0,1,4.3-1.88h6.24c4.33.1,8.66.12,13,0h12a14,14,0,0,0,2.89,0h6.74A12.78,12.78,0,0,0,143.18,40Z" transform="translate(0.02 0)" fill="#4d4e4e"/><path d="M153.76,58.17a4.51,4.51,0,0,0,2.19,0q5.87.21,11.74,0a8.48,8.48,0,0,0,2.66,0h7.42a.56.56,0,0,0,.75-.09,3.68,3.68,0,0,0,1.92,0c1.15,0,2.31.05,3.46.11a12.87,12.87,0,0,1,3.1.19c2.27.7,4.21,3.22,3,7A5.11,5.11,0,0,1,187.16,68l-.94.3h-44a5.23,5.23,0,0,1-4.52-2.7,6.61,6.61,0,0,1-.47-3.14c.38-2.73,2-4.08,5.21-4.45a8.42,8.42,0,0,0,2.92,0A81.18,81.18,0,0,0,153.76,58.17Z" transform="translate(0.02 0)" fill="#4b4c4c"/><path d="M118.89,104.65H105.67c-2.12,0-4.24-.19-6.34,0-4.23.38-6.78-3.07-5.38-7.35a5.27,5.27,0,0,1,5.36-2.84c1.15.06,2.31,0,3.47,0h17.1l5.35.11c3.09.06,4.52,1.28,5.29,4.56a5.48,5.48,0,0,1-2,4.67.5.5,0,0,0-.51.32,6.28,6.28,0,0,1-3.25.57C122.78,104.61,120.83,104.64,118.89,104.65Z" transform="translate(0.02 0)" fill="#4b4c4c"/><path d="M190.32,80.14a6.07,6.07,0,0,1-.56,4.1,4.92,4.92,0,0,1-4.51,2.38c-1.28,0-2.55,0-3.83,0h-2.89a5,5,0,0,1-4.47-4.7,5.4,5.4,0,0,1,2.12-4.77c1.26-.81,2.66-.7,4-.77,1.6,0,3.2.12,4.79,0A4.93,4.93,0,0,1,190.32,80.14Z" transform="translate(0.02 0)" fill="#4d4e4e"/><path d="M83.88,81.69q-.15-6.61,0-13.22a3.27,3.27,0,0,0,3,.33,9.35,9.35,0,0,1,3.33.27c.72.07,1,1.06,1.25,1.61.7,1.54,1.84,2.82,2.35,4.47a1.66,1.66,0,0,1-.26,1.62c-.8,1.21-2,2-2.51,3.58-.27.86-1.92,1.28-2.8,1a1.28,1.28,0,0,0-.58-.11C86.46,81.4,85.11,81.19,83.88,81.69Z" transform="translate(0.02 0)" fill="#d6dcde"/><path d="M94.38,60.44c0,.49-.4.74-.66,1.07-.18,0-.45-.27-.51,0-.29,1.17-1.36,1.78-1.63,3.07a2.35,2.35,0,0,1-2.33,1.82H83.88V54c1.73.14,3.44-.15,5.2.14A3.66,3.66,0,0,1,92,56.33,23.07,23.07,0,0,0,94.38,60.44Z" transform="translate(0.02 0)" fill="#d6dcde"/><path d="M83.92,87.11a12.21,12.21,0,0,1,0-3.08,58.05,58.05,0,0,1,5.9,0c.66.06,1.15.1,1.26,1s.83,1.1,1.19,1.73c.59,1,.75,2.25,1.45,3.2a.86.86,0,0,1,0,1.07,47.94,47.94,0,0,0-2.51,4.34,1.68,1.68,0,0,1-1.52.87A34.2,34.2,0,0,0,84,96.5c-.1-3.12-.12-6.23,0-9.35.18,0,.4,0,.44-.24a.08.08,0,0,0,0-.09C84,86.7,84,87,83.92,87.11Z" transform="translate(0.02 0)" fill="#d6dcde"/><path d="M181.46,86.67c1.28,0,2.55-.09,3.83,0a4.92,4.92,0,0,0,4.51-2.38c.2.87.48,1.61,1.47,1.8.22,0,.34.63.52,1a16.3,16.3,0,0,0,1.26,2.46,1,1,0,0,1,.07,1.21A22.48,22.48,0,0,0,191,94.45c-.39.69-.31,1.71-1.19,2.08-2.3-2.3-4.86-2.34-7.57-1,.23-1.42-.73-2.39-1.42-3.21-1.34-1.57-.76-2.86,0-4.29A3.65,3.65,0,0,0,181.46,86.67Z" transform="translate(0.02 0)" fill="#d6dcde"/><path d="M170.92,103.7a6.15,6.15,0,0,0,1.68-5,5.05,5.05,0,0,0-3.74-4.2c.32-.9,1.11-1.56,1.15-2.64,0-.5.48-.6.92-.59h5.17a2.45,2.45,0,0,1,2.12,1.47,32,32,0,0,0,2.54,4.34,9.34,9.34,0,0,0-.62,3c-1.29.17-1.42,1.54-1.91,2.41a1.93,1.93,0,0,1-1.86,1.23Z" transform="translate(0.02 0)" fill="#d6dcde"/><path d="M153.76,58.17q-4.2.21-8.4,0c-1.14-1.32-1.33-3.18-2.28-4.65-.61-1,0-2.14.37-3.18a26.43,26.43,0,0,1,4.79-.1,5.11,5.11,0,0,0,5.22-3.33c.32.91.65,1.82.95,2.74a1.88,1.88,0,0,0,.57.94,2.53,2.53,0,0,1,.64,3.23,10.24,10.24,0,0,1-1.3,2.3A2.79,2.79,0,0,0,153.76,58.17Z" transform="translate(0.02 0)" fill="#d6dcde"/><path d="M142.46,58.18c-3.26.37-4.83,1.72-5.21,4.45a6.61,6.61,0,0,0,.47,3.14c-.07.38-.25.62-.64.62a3.93,3.93,0,0,0-.84,0c-2,.26-3.65,0-4.07-2.61-.08-.49-.57-.92-.92-1.33-1.31-1.53-1.4-2.18-.41-3.94.74-1.32,1.54-2.6,2.31-3.9a1.34,1.34,0,0,1,1.33-.68h4.68A1.52,1.52,0,0,1,140.77,55c.27.87,1.32,1.45.8,2.66C141.46,57.92,142.32,57.62,142.46,58.18Z" transform="translate(0.02 0)" fill="#d6dcde"/><path d="M190.32,80.14A4.93,4.93,0,0,0,185,76.45c-1.59.08-3.19,0-4.79,0-.32-2.63,1.4-4.46,2.25-6.64.17-.43.64-.24,1-.26a4.83,4.83,0,0,0,1.77-.24h-2.53V69h2.5c.4,0,.93.19,1-.53l.94-.3c.49,1,1.49.79,2.23,1s1.48.62,1.57,1.35a5,5,0,0,0,1.59,2.9c1.28,1.36,1.17,1.3.13,2.85C191.84,77.47,191.46,79.08,190.32,80.14Z" transform="translate(0.02 0)" fill="#d6dcde"/><path d="M166.75,94.41h-7.7c-.05-.44-.33-.61-.67-.52-1.27.3-1.94-.36-2.5-1.51-.49-1-.92-3.36-.28-4s.34-1.13.33-1.72c1.79,0,3.58-.07,5.37,0a5.31,5.31,0,0,0,3.48-1.06c2.14.63,2.84,2.6,3.35,4.55a2.62,2.62,0,0,1-1.92,3.18,2.55,2.55,0,0,1-.61.08,55.73,55.73,0,0,0-6.46.25h6.55C166.21,93.62,166.8,93.55,166.75,94.41Z" transform="translate(0.02 0)" fill="#d6dcde"/><path d="M116.73,94.41h-9.86c.36-.37.35-.62-.21-.78h8.54v-.22h-10c.66-.5,1.24-.09,1.77-.52-.25-.36-.48-.74-.76-1.07-1.37-1.66-1.37-1.66-.15-3.44.37-.55.67-1.14,1-1.71h10.09c0,.53-.09,1,.57,1.37s.44,1.3.84,1.9c.58.84-.28,1.16-.61,1.67A6.52,6.52,0,0,0,116.73,94.41Z" transform="translate(0.02 0)" fill="#d6dcde"/><path d="M180.14,100.1a9.34,9.34,0,0,1,.62-3l1.39-1.61c2.71-1.35,5.27-1.31,7.57,1a6.89,6.89,0,0,1,1,3.86c-1,4.4-5.62,6.08-8.86,3.21l-.8-.76A11.18,11.18,0,0,1,180.14,100.1Z" transform="translate(0.02 0)" fill="#4d4e4e"/><path d="M176.18,77.18A5.4,5.4,0,0,0,174.06,82a5,5,0,0,0,4.47,4.7,2.28,2.28,0,0,1-2.26,2.28h-.21a19.82,19.82,0,0,0-4,.08,1.79,1.79,0,0,1-2.14-1.35.14.14,0,0,1,0-.07,11.21,11.21,0,0,0-2.07-3.69c-1-1.24-.36-1.7.12-2.65s1.22-2,1.69-3.09c.76-1.8,1.59-2.26,3.42-1.83a3.41,3.41,0,0,0,2,0C175.71,76.1,176.09,76.43,176.18,77.18Z" transform="translate(0.02 0)" fill="#d6dcde"/><path d="M166.06,79.09a5,5,0,0,0-4.86-2.64c-2,.08-4,0-6,0a10.72,10.72,0,0,1,2.73-6.67c.26-.3.59-.22.89-.22h6c1.15,0,1.14,1.2,1.61,1.83.75,1,1.15,2.33,1.85,3.43a1.4,1.4,0,0,1-.09,1.58C167.46,77.27,166.78,78.18,166.06,79.09Z" transform="translate(0.02 0)" fill="#d6dcde"/><path d="M143.46,76.4q-6.61.16-13.22,0a5.33,5.33,0,0,1,.78-3.16A25.61,25.61,0,0,0,132.88,70c.56-1.28,1.88-1.19,3-1.15,1.41,0,2.81.37,4.24.3.22,0,.41,0,.46.23.29,1.36,1.4,2.15,2,3.28A6.13,6.13,0,0,1,143.46,76.4Z" transform="translate(0.02 0)" fill="#d6dcde"/><path d="M120.56,58.15h-.47c-.11-.89-.24-1.77-.28-2.67a1.52,1.52,0,0,0-.73-1.5,1.87,1.87,0,0,1-1.14-2.4,1.83,1.83,0,0,1,.24-.46,1.92,1.92,0,0,0,.23-.84h5.3c0,.51.11.83.66.82h3c.55,0,.69-.31.66-.82h1.7a.8.8,0,0,0,.4.82,1.72,1.72,0,0,1,.59,2.35h0a9.2,9.2,0,0,0-1.14,2.2c-.36.85-1.42,1.18-1.5,2.39,0,.49-.55.06-.83-.15-.54-.41-1-.62-1.13.42l-.47-.08A7.63,7.63,0,0,0,120.56,58.15Z" transform="translate(0.02 0)" fill="#d6dcde"/><path d="M118.16,76.41h-12.7c-.14-.73-.62-1.39.12-2.17.43-.45-.5-.85-.55-1.53,1.38.49,1.87-.64,2.26-1.53a16.35,16.35,0,0,0,.88-1.78c.24-.79,1.17-.56,1.57-.35,1.3.72,2.64.41,4,.43,1.17,0,2.16-.09,2.74,1.51C117.06,72.78,118.46,74.27,118.16,76.41Z" transform="translate(0.02 0)" fill="#d6dcde"/><path d="M93.92,65.44a5.71,5.71,0,0,0,5.91,3,54.51,54.51,0,0,1,5.57.06c.16,1.5-.91,2.47-1.41,3.69-.56,1.39-1.7,1.59-3,1.51a13.42,13.42,0,0,0-4,.17c-1.08.27-1.2-1-1.8-1.57-1.18-1.07-1-3-2.11-4.13-.32-.33-.17-1.08.28-1.52A1.72,1.72,0,0,0,93.92,65.44Z" transform="translate(0.02 0)" fill="#d6dcde"/><path d="M125,68.49a5.18,5.18,0,0,0,4.48-3.39c.92.59.94,1.82,1.6,2.6.09.1,0,.55-.16.7-.85.87-1.1,2.18-1.93,3.06-.17.18-.4.4-.41.62-.13,1.77-1.19,1.94-2.53,1.85a39.66,39.66,0,0,0-4.08,0,1.48,1.48,0,0,1-1.58-1.27c-.08-.24-.09-.51-.16-.75-.36-1.35-.51-3-2.77-1.9l.28-.48h3.72v-.25h-1.8V69h4.07C124.21,69,124.74,69.11,125,68.49Z" transform="translate(0.02 0)" fill="#d6dcde"/><path d="M143.9,68.47h11.56c.27,1.31-1,1.79-1.32,2.8A3.53,3.53,0,0,1,150,73.93a17.52,17.52,0,0,0-2.51,0c-1.63,0-2.13-.58-2.76-2.26a4,4,0,0,0-1.67-2.13H154.4v-.2H143.46C143.46,68.88,144,68.84,143.9,68.47Z" transform="translate(0.02 0)" fill="#d6dcde"/><path d="M168.25,69.55H180a3.27,3.27,0,0,0-1.6,2.55,1.69,1.69,0,0,1-1.81,1.56h0c-1.71.13-3.43,0-5.14.1-.92,0-1.63-1.06-2-2S168.62,70.33,168.25,69.55Z" transform="translate(0.02 0)" fill="#d6dcde"/><path d="M104,94.41h-.52c0-.2-.06-.43-.31-.47s-.37.22-.41.47c-1.16,0-2.32.1-3.47,0a5.27,5.27,0,0,0-5.36,2.84,1.06,1.06,0,0,1-.37-1.44,1.2,1.2,0,0,1,.17-.21c1-.71,1-2,1.56-2.89a2.69,2.69,0,0,1,2.34-1.46h3.47C103.13,91.29,103.93,92.17,104,94.41Z" transform="translate(0.02 0)" fill="#d6dcde"/><path d="M94.14,84a5.13,5.13,0,0,0,4.48,2.6H104c-.59,1.63-1.8,2.7-3.26,2.5a17.92,17.92,0,0,0-2.93,0,2.51,2.51,0,0,1-2.63-1.6A14.57,14.57,0,0,0,93.88,85C93.6,84.63,93.64,84.25,94.14,84Z" transform="translate(0.02 0)" fill="#d6dcde"/><path d="M168.46,68.47H180c0,.64-.29.79-.81.79h-9.92C168.72,69.26,168.39,69.11,168.46,68.47Z" transform="translate(0.02 0)" fill="#d6dcde"/><path d="M133.79,50.27h5.79c0,.54-.31,1-.77,1a9.2,9.2,0,0,1-4.73-.5C133.87,50.7,133.82,50.49,133.79,50.27Z" transform="translate(0.02 0)" fill="#d6dcde"/><ellipse cx="161.58" cy="69.11" rx="4.83" ry="0.07" fill="#d6dcde"/><path d="M112.73,69.05h2.73v.13h-2.79Z" transform="translate(0.02 0)" fill="#d6dcde"/><path d="M168.2,94.41h-.74C167.71,94.08,168,94.08,168.2,94.41Z" transform="translate(0.02 0)" fill="#d6dcde"/><path d="M142.93,50.29c.19,0,.4-.06.39.26Z" transform="translate(0.02 0)" fill="#d6dcde"/><path d="M142.22,68.47h.24Q142.34,68.68,142.22,68.47Z" transform="translate(0.02 0)" fill="#d6dcde"/><path d="M140,50.28h.27Q140.18,50.55,140,50.28Z" transform="translate(0.02 0)" fill="#d6dcde"/><path d="M142.21,50.28h.25C142.38,50.47,142.29,50.47,142.21,50.28Z" transform="translate(0.02 0)" fill="#d6dcde"/><path d="M33.36,108.9c-.81-.42-.54-1.3-.86-2.26.75.76,1.3,1.32,1.86,1.87a.56.56,0,0,0,.66.19c.29-.16.09-.45,0-.68a11,11,0,0,0-.25-1.27,4.19,4.19,0,0,1,1.31-4.94c2.55-2.28,3-5.63,2.44-9.12a1.53,1.53,0,0,0-.73-1.11,14.54,14.54,0,0,1-5.55-8.32c-.57-1.93-1.12-3.87-1.69-5.8a15.29,15.29,0,0,1-.4-5,1.77,1.77,0,0,1,.39-1.06c2.26-2.78,4.73-5.27,8-6.57,1.18-.46,2.42-.77,3.56-1.32A11.35,11.35,0,0,0,46.92,59c.34-.57.49-.71,1-.1a38.15,38.15,0,0,0,7.15,6.87,22.68,22.68,0,0,1,2.54,2.36,8.41,8.41,0,0,1,2.27,8.45,45.37,45.37,0,0,1-3.7,10.6,11.92,11.92,0,0,1-3,3.8,2,2,0,0,0-.73,1.12,10.3,10.3,0,0,0,3.39,10.81,1.28,1.28,0,0,1,.45,1.62l-.35,1.24a16.81,16.81,0,0,0-1,3.81c-.08.44,0,.94-.52,1.18a27.45,27.45,0,0,1-4.78,1.37l-2.21.22A21.7,21.7,0,0,1,33.36,108.9Z" transform="translate(0.02 0)" fill="#fddbb3"/><path d="M168.19,40h14.19c1.16,0,2.31,0,3.47.09a5,5,0,0,1,4.61,5,4.88,4.88,0,0,1-4.62,5c-1.48.07-3,.1-4.43.14a3.45,3.45,0,0,0-1.43,0H168.67a15.2,15.2,0,0,0-3.37.07,5.19,5.19,0,0,1-4.22-7.48A4.79,4.79,0,0,1,165.79,40Z" transform="translate(0.02 0)" fill="#4d4e4e"/><path d="M168.67,50.26H180a2.12,2.12,0,0,0,.33,1.45,1.62,1.62,0,0,1,0,2.3.8.8,0,0,1-.17.15c-1,.8-1,2.19-1.74,3.11-.2.24.09.56.16.84a.56.56,0,0,1-.75.09l-.08-.18-.11.17h-7.23a1.25,1.25,0,0,0-.42-1.12,10.24,10.24,0,0,1-2.22-3.43,2.08,2.08,0,0,1,.44-2.33C168.46,51,168.74,50.76,168.67,50.26Z" transform="translate(0.02 0)" fill="#d6dcde"/><path d="M190,65.49c1.2-3.82-.74-6.34-3-7a12.87,12.87,0,0,0-3.1-.19c-1.15-.06-2.31-.08-3.46-.11.75-1.08,1.87-1.87,2.1-3.37a1.08,1.08,0,0,1,1.19-.85c1.92.05,3.84,0,5.76,0a1.11,1.11,0,0,1,1.29.91,1,1,0,0,1,0,.24,6.83,6.83,0,0,0,1.1,2.23c.23.45.58.82.8,1.28a2.87,2.87,0,0,1,0,3.13,19.05,19.05,0,0,0-2.32,3.94C190.19,66.22,190.11,65.62,190,65.49Z" transform="translate(0.02 0)" fill="#d6dcde"/><path d="M181.46,50.29c1.48,0,3-.07,4.43-.14a4.88,4.88,0,0,0,4.62-5,4.94,4.94,0,0,0-4.61-5.07c-1.16,0-2.31-.06-3.47-.09.17-1.5,1.42-2.12,3.13-1.39a4.81,4.81,0,0,0,3.5-.06c.39-.12.59.08.84.29A8.39,8.39,0,0,1,192,42.06a6.86,6.86,0,0,0,1.38,2.36c.58.59.75,1.34.08,1.89a9.44,9.44,0,0,0-2.37,3.8,2.27,2.27,0,0,1-2.48,1.55c-1.48-.08-3-.36-4.36.65a.5.5,0,0,1-.7-.1.52.52,0,0,1-.09-.2,1.45,1.45,0,0,0-1.65-1.2h0C181.52,50.79,181.46,50.55,181.46,50.29Z" transform="translate(0.02 0)" fill="#d6dcde"/><path d="M84,109.69c-.16,0-.16-.09-.16-.24h-.09l-.89.26V111c-.14,4.74-4.17,9.11-8.57,9.36-1,.06-1.31-.29-1.31-1.36a25.28,25.28,0,0,0-.11-5.29c-.91-4.54-3.48-7.43-7.68-8.59-.23-.06-.52-.05-.74-.13s-.35-.28-.26-.75c-.59.07-.16,1.06-.8,1.06.08.23.16.47.25.7.49,0,.79.33,1.11.67,1.86,2.06,3.74,4.06,5.6,6.06a3,3,0,0,1,.7,2.67,3.06,3.06,0,0,0-.72-2.52c-1.86-2-3.74-4-5.6-6.06-.32-.34-.62-.69-1.11-.68l-.77.32v.14c-.74,2.31-1.75,4.41-3.85,5.66l.25.26a4.73,4.73,0,0,1,2.21,4.12,4.77,4.77,0,0,0-2.14-4,13.26,13.26,0,0,1-3.86,3.56c-.32.21-.55.85-1,1.17-.23.19-.49.57-.8.15s-.56-.53-.2-1.09c.79-1.23,1.75-2.41,1.66-4.07a1.76,1.76,0,0,0-1,.56,5.15,5.15,0,0,0-1.71,3.57,5.17,5.17,0,0,1,1.64-3.71,1.64,1.64,0,0,1,1-.55l.68-.46v-1.65H55.6c-.52-.08-.4,1.33-1.21.61a27.45,27.45,0,0,1-4.78,1.37l-2.21.22a.66.66,0,0,1,0,.14A21.78,21.78,0,0,1,33.31,109a13.64,13.64,0,0,0,.11,4.37c.09.46.35,1-.17,1.27s-.71-.28-1-.56A22.34,22.34,0,0,1,27.47,106c-.23-.64.11-1.42-.49-1.92.21,1.32-.83,1-1.4,1.18a10.4,10.4,0,0,0-7.73,10.25v3.89c0,.86-.32,1.13-1.11,1a9.63,9.63,0,0,1-5.56-2.77C9.6,116.1,9,114,8.27,112c0,6.51,4.51,10.46,9.15,10.49,9.6.07,19.21,0,28.82,0v-.13H59.68A32.56,32.56,0,0,0,63,118.8a3.73,3.73,0,0,1,3.91-1.36c1.25.21,2-.69,2.57-1.52a2,2,0,0,0,.39-1.07,1.92,1.92,0,0,1-.39,1.2c-.61.84-1.32,1.74-2.57,1.53A3.72,3.72,0,0,0,63,118.93a31.25,31.25,0,0,1-3.28,3.62h5.8a.7.7,0,0,1,0-.14h9.22c5.2-.08,9.33-5,9.09-10.08a7.11,7.11,0,0,1,.15-2.56Zm-38,7.24v-.05a2,2,0,0,1-.25-1,2,2,0,0,0,.25.84,5.31,5.31,0,0,1,.67,2.81A5.14,5.14,0,0,0,46,116.93Zm1.76-2.6v0c.18-.21.37-.41.56-.61C48.16,113.92,48,114.12,47.79,114.33Z" transform="translate(0.02 0)" fill="#2c2c2d"/><path d="M55.65,110.12a15.77,15.77,0,0,1,1.81-3.42c-.41,1.21-.47,2.61-1.61,3.41h-.2Z" transform="translate(0.02 0)" fill="#fddbb3"/><path d="M141.79,94.55a5.76,5.76,0,0,0-3,2c-1.14-.56-2.34-.12-3.51-.18A3.84,3.84,0,0,1,132,94.11a5.6,5.6,0,0,0-1.68-3c-.78-.58-.24-1.53.19-1.87a2.69,2.69,0,0,0,.84-2.51h10.57a1.28,1.28,0,0,0,.55,1.31,2.21,2.21,0,0,1,.89,2.33,6,6,0,0,1-1.61,3.18C141.19,94.17,141.73,94.19,141.79,94.55Z" transform="translate(0.02 0)" fill="#d6dcde"/><path d="M130.46,99.06c-.77-3.28-2.2-4.5-5.29-4.56l-5.35-.11c-.26-1.76,1-2.45,2-3.39.08-.07.25-.15.32-.11,1.2.72,2.53.2,3.77.47a1.7,1.7,0,0,0,1,0c.66-.24,1,.15,1.32.76a31.72,31.72,0,0,0,2.23,4.19A2,2,0,0,1,130.46,99.06Z" transform="translate(0.02 0)" fill="#d6dcde"/><path d="M119.86,86.66h8.89a4.89,4.89,0,0,1-2,2.44c-.09.06-.26.12-.33.08-1.39-1-2.76,0-4.14,0C120.68,89.23,119.89,88.4,119.86,86.66Z" transform="translate(0.02 0)" fill="#d6dcde"/><path d="M128,104.05a.5.5,0,0,1,.51-.32C128.46,104,128.28,104.19,128,104.05Z" transform="translate(0.02 0)" fill="#6e869d"/><path d="M142.46,105.19l-.22.06v-.16c0-.06.08,0,.11,0Z" transform="translate(0.02 0)" fill="#cbd3d4"/><path d="M66.46,75.45a85.59,85.59,0,0,0-5.31-19.83A20.62,20.62,0,0,0,56,47.81c-1.84-1.57-3.89-2.42-6.26-1.58a2.42,2.42,0,0,1-1.41-.06A14.18,14.18,0,0,0,34.6,50.55c-3.6,3.78-5.5,8.53-6.82,13.61-2.34,9.06-2.73,18.36-2.59,27.7A38.58,38.58,0,0,0,26.78,103c.24.14.25.36.2.61l.06.4c.6.5.26,1.29.49,1.92A22.2,22.2,0,0,0,32.31,114c.28.29.53.8,1,.56s.26-.81.17-1.26a13.64,13.64,0,0,1-.11-4.37c-.81-.42-.54-1.3-.86-2.26.75.76,1.3,1.32,1.86,1.87a.56.56,0,0,0,.66.19c.29-.16.09-.45,0-.68a11,11,0,0,0-.25-1.27,4.19,4.19,0,0,1,1.31-4.94c2.55-2.28,3-5.63,2.44-9.12a1.53,1.53,0,0,0-.73-1.11,14.54,14.54,0,0,1-5.55-8.32c-.57-1.93-1.12-3.87-1.69-5.8a15.29,15.29,0,0,1-.4-5,1.77,1.77,0,0,1,.39-1.06c2.26-2.78,4.73-5.27,8-6.57,1.18-.46,2.42-.77,3.56-1.32A11.35,11.35,0,0,0,46.93,59c.34-.57.49-.71,1-.1a38.15,38.15,0,0,0,7.15,6.87,22.68,22.68,0,0,1,2.54,2.36,8.43,8.43,0,0,1,2.26,8.47,45.37,45.37,0,0,1-3.7,10.6,11.92,11.92,0,0,1-3,3.8,2,2,0,0,0-.73,1.12,10.3,10.3,0,0,0,3.39,10.81,1.28,1.28,0,0,1,.45,1.62c-.12.41-.23.83-.35,1.24a16.81,16.81,0,0,0-1,3.81c-.08.44,0,.94-.52,1.18.81.72.69-.69,1.21-.61a15.77,15.77,0,0,1,1.81-3.42c-.41,1.21-.47,2.61-1.61,3.41v1.66h0l-.68.46c.09,1.65-.87,2.84-1.66,4.06-.36.56,0,.8.2,1.1s.57,0,.8-.16c.4-.32.63-1,1-1.16a13.33,13.33,0,0,0,3.81-3.52l-.25-.26c2.11-1.25,3.12-3.37,3.86-5.71a.89.89,0,0,0,0-.23l.77-.31c-.09-.23-.17-.47-.25-.7.66,0,.23-1,.82-1.07a39.17,39.17,0,0,0,3.63-17.51A71.77,71.77,0,0,0,66.46,75.45Z" transform="translate(0.02 0)" fill="#491803"/><path d="M83.86,109.43l.16.24C83.85,109.68,83.83,109.55,83.86,109.43Z" transform="translate(0.02 0)" fill="#cbd3d4"/><path d="M152.54,104.46c.4-1.62,1.78-2.34,2.74-3.44.23-.26.5.1.69.32s.15.55-.06.9c-.55.9-1.61,1.3-2,2.37h-.43Z" transform="translate(0.02 0)" fill="#4b4c4c"/><path d="M155.92,104.7c1.28-1.33,1.68-1.34,2.2,0Z" transform="translate(0.02 0)" fill="#4b4c4c"/><path d="M154,104.79h.73c0,.28.26.52,0,.9C154.46,105.48,154.07,105.29,154,104.79Z" transform="translate(0.02 0)" fill="#cbd3d4"/><path d="M51.8,32.73a2.9,2.9,0,0,0-1.49,0,.81.81,0,0,1-.91.73c-.36,0-.76,0-.77.52h-.71v-.49c-.46,0-.46-.35-.46-.73l-2.41-.06v0l-.26-.11c-1.19.29-2.4,0-3.59.15v0H32.56v0H28.94c1.15,1.06,1.5,2.66,2.24,4a1.74,1.74,0,0,1,.13,1.81c-.44.82-.24,1,.73,1.18s1.64-.76,2.44-.76c3-.18,6-.2,8.9,1H45.3a4.21,4.21,0,0,0,2.48-1.77,38.53,38.53,0,0,1,2.8-3.08C51.17,34.48,51.93,33.84,51.8,32.73ZM41.61,34.8c0-.6-.37-1.14-.41-1.74C41.25,33.64,41.63,34.19,41.61,34.8Zm5.89-.61h0c-.07.11-.15.21-.22.31Zm-.24.33c-.07.08-.13.16-.2.23S47.19,34.6,47.26,34.52Zm-.24.27a1.62,1.62,0,0,1-.2.18C46.89,34.92,47,34.85,47,34.79Zm-.25.21-.2.13Zm-.41.2,0,0Zm-1.59-1.76a1.69,1.69,0,0,0-.09.76A1.56,1.56,0,0,1,44.77,33.44Zm3.89.52c.45.09,1.08-.23,1.37.1-.3-.27-.89,0-1.33-.07-.86,1.53-2.5,2.61-2.43,4.34l0,0C46.1,36.6,47.79,35.52,48.66,34Zm2.11-.2h-.08v-.1h.08Z" transform="translate(0.02 0)" fill="#cbd3d4"/><path d="M48.67,34h0Z" transform="translate(0.02 0)" fill="#cbd3d4"/><path d="M50.69,33.66h.08v.1h-.08Z" transform="translate(0.02 0)" fill="#e4e5e5"/><path d="M93.89,44.09v2.08c-.19,0-.53.06-.55.15-.25,1.39-1.51,2.12-1.87,3.46a2,2,0,0,1-2.27,1.61c-1.76,0-3.53.13-5.29.21a13,13,0,0,0-2.17-8.05,15,15,0,0,1,1.56-3.74c.27-.58.58-.89,1.17-.89h5.29c1.17,0,1.6,1,1.89,1.87C92,42,93.28,42.6,93.34,44A2.46,2.46,0,0,0,93.89,44.09Z" transform="translate(0.02 0)" fill="#d6dcde"/><path d="M81.86,32.72h10.6a3.89,3.89,0,0,1-3.53,3.6H85.59C83.23,36.36,82.73,35.55,81.86,32.72Z" transform="translate(0.02 0)" fill="#d6dcde"/><path d="M81.7,43.45a.4.4,0,0,1-.36-.33c.09-.12.19-.28.34-.17S81.79,43.28,81.7,43.45Z" transform="translate(0.02 0)" fill="#d6dcde"/><path d="M107.35,32.72H117c-.55,2.41-1.73,3.89-3.57,3.63a26.88,26.88,0,0,0-3.59,0c-1.64,0-2.43-.86-2.45-2.69C107.34,33.32,107.35,33,107.35,32.72Z" transform="translate(0.02 0)" fill="#d6dcde"/><path d="M140.06,40h-6.74c1.45-.57,3-.18,4.44-.24C138.52,39.68,139.34,39.42,140.06,40Z" transform="translate(0.02 0)" fill="#e9ebed"/><path d="M165.79,40a4.79,4.79,0,0,0-4.71,2.88,5.21,5.21,0,0,0,4.22,7.48c-.09.54-.23,1-.87,1-2-.1-3.91.57-5.86,0-.4-.11-.87-.19-1-.63-.43-1.81-1.76-3.06-2.42-4.71a1.82,1.82,0,0,1,0-1.58,45.15,45.15,0,0,1,2.66-5,1,1,0,0,1,1-.51h5.65a1.1,1.1,0,0,1,1.31.85A1.5,1.5,0,0,1,165.79,40Z" transform="translate(0.02 0)" fill="#d6dcde"/><path d="M161.63,57.55h-4.21c-.66,0-.89-.25-.58-1,.21-.46.35-1,.55-1.43a1.79,1.79,0,0,1,1.87-1.27,28.32,28.32,0,0,0,4.32,0c1.34-.14,2,.58,2.5,1.7.9,2,.91,2-1.09,2Z" transform="translate(0.02 0)" fill="#d6dcde"/><path d="M167.69,58.16q-5.87.21-11.74,0c.17-.42.52-.32.83-.32h10.08C167.16,57.84,167.52,57.74,167.69,58.16Z" transform="translate(0.02 0)" fill="#e4e5e5"/><path d="M137.18,30.62l-.46-.28-.25.3c.12,1.19-.67,1.44-1.47,1.51h-.57l.56,0c.8-.07,1.59-.32,1.47-1.51H79.3c-5.8,0-11.6.06-17.4.06a1.73,1.73,0,0,0,.24,1.94l1.64,0a3.2,3.2,0,0,1,3.37,0l3.62.11v-.1c.11-.45.42-.45.76-.45h6.71c.33,0,.64,0,.75.45v.1l2.18-.1c.54-.49.82-1.84,1.87-.57.13.21.65.11,1,.11H92.5c.4,0,.92-.22,1.11.45l1.44.09.72-.09c.76-.62,1.44-1.16,2.58-.62.82.39,1.87.12,2.82.17.4,0,.91-.22,1.1.45l.24.09,3.12-.1c.94-.56,1.42-1.56,2.94-.68,1.23.72,3.07.23,4.64.23h3c.38,0,.85-.16,1,.44l2.89.1.71-.09c.1-.45.42-.45.75-.45h6.67c.33,0,.66,0,.75.44h2.16c.18-.59.63-.44,1-.44.62,0,1.22,0,1.84,0l-1.83,0c-.39,0-.84-.15-1,.44l.73.11,6.48-.08A2,2,0,0,0,137.18,30.62Z" transform="translate(0.02 0)" fill="#4b4c4c"/><path d="M61.88,30.73l-1.31-.07a60.9,60.9,0,0,1-6.19-.13,1.9,1.9,0,0,1-1.37,0,14.15,14.15,0,0,1-3.38.07h-.54a27.93,27.93,0,0,1-4.48-.07l-.59.09H.11v2l.46.09H21.25l0,.06h20a30.79,30.79,0,0,0,3.59-.15l.05,0,.21.11h2.4v-.05l.73.15h2.16a3,3,0,0,1,1.45,0h7.67l2.65-.1A1.73,1.73,0,0,1,61.88,30.73Z" transform="translate(0.02 0)" fill="#4b4c4c"/><path d="M200,30.64c-3.36,0-6.72,0-10.1,0h-39c-.19.27-.46.19-.71.19-.5.59-1.2,1-1.42,1.82l4.81.08h3.51l18-.07c1,0,2,.06,3,.06h22.12A4.54,4.54,0,0,0,200,30.64Z" transform="translate(0.02 0)" fill="#4b4c4c"/><path d="M150.07,30.59h-4v.08h-6.76c.15.88,1.15,1.08,1.24,1.93l.71.13a35.39,35.39,0,0,1,4.83,0v-.08h2.62c.22-.84.92-1.23,1.36-1.84Z" transform="translate(0.02 0)" fill="#4b4c4c"/><path d="M141.25,32.75a35.39,35.39,0,0,1,4.83,0A3.31,3.31,0,0,1,144.46,35C143.11,35.61,142,34.76,141.25,32.75Z" transform="translate(0.02 0)" fill="#cbd3d4"/><path d="M139.81,33.72a1.06,1.06,0,0,1-1-1h.72Z" transform="translate(0.02 0)" fill="#cbd3d4"/><path d="M194.9,1.05c-.55-.23-1.08-.51-1.62-.77L193,.22a.47.47,0,0,1-.52-.07c-.44,0-.88,0-1.32,0H80.06a11.65,11.65,0,0,0-1.32,0,1.65,1.65,0,0,1-1.47,0H38.83a.17.17,0,0,1-.23.06.17.17,0,0,1-.06-.06H38.1a.87.87,0,0,1-1,0H14a5,5,0,0,1-2.67,0H9.47a3.21,3.21,0,0,1-1.71.1A9,9,0,0,0,.14,8.73C0,16,.14,23.3.14,30.59H44.05l.59-.09c1.2-1.21,2.61-1.19,4.48.07h.54A14.15,14.15,0,0,0,53,30.5a1.9,1.9,0,0,0,1.37,0,60.9,60.9,0,0,0,6.19.13l1.31.07c5.8,0,11.6-.06,17.4-.06h57.15l.27-.29.46.28c.49-.12,1,.22,1.46-.22h0l.72.27h6.78v-.06a2.66,2.66,0,0,1,.82-2.06c1.19-1.38,2.51-2.58,3.61-4a5,5,0,0,1,5-2.25c1.27.2,1.88-.8,2.36-1.8a2.13,2.13,0,0,0-.37-2.29,2.12,2.12,0,0,1,.38,2.3c-.48,1-1.09,2-2.36,1.8a5,5,0,0,0-5,2.25c-1.1,1.42-2.42,2.62-3.61,4a2.66,2.66,0,0,0-.82,2.06h4l.66-.26v.29h49.08a3.18,3.18,0,0,0,.29-1.52V9.3A9.8,9.8,0,0,0,194.9,1.05ZM145.26,26h-.09a4.5,4.5,0,0,1-4.4-4.6A4.5,4.5,0,0,0,145.18,26h.08c2.18.29,4-1.73,4.36-3.84C149.25,24.22,147.44,26.24,145.26,26Zm12-8c-1.94-2.07-3.87-4.14-5.77-6.24a1.64,1.64,0,0,0-.21-.24,2.62,2.62,0,0,1,.22.25c1.9,2.1,3.83,4.17,5.77,6.24Z" transform="translate(0.02 0)" fill="#0073c0"/><path d="M83.9,51.6c1.76-.08,3.53-.26,5.29-.21a2,2,0,0,0,2.27-1.61c.36-1.34,1.62-2.07,1.87-3.46,0-.09.36-.1.55-.15l1,2.21a23.41,23.41,0,0,0-1.8,3.7c-.2.56-.57,1.24-.13,1.69.82.83,1.1,2.08,1.92,2.83a2.47,2.47,0,0,1,.95,2.3l-1.43,1.54A23.07,23.07,0,0,1,92,56.33a3.66,3.66,0,0,0-2.91-2.23c-1.76-.29-3.47,0-5.2-.14A8.88,8.88,0,0,1,83.9,51.6Z" transform="translate(0.02 0)" fill="#cbd3d4"/><path d="M83.92,87.11c.09-.16.12-.41.38-.32a.08.08,0,0,1,0,.09c0,.29-.26.21-.44.24Z" transform="translate(0.02 0)" fill="#cbd3d4"/><path d="M141.79,94.55c-.06-.31-.6-.33,0-1a6,6,0,0,0,1.65-3.21,2.21,2.21,0,0,0-.89-2.33A1.28,1.28,0,0,1,142,86.7h2.9a3.06,3.06,0,0,0,2.61,2.23,12.45,12.45,0,0,0,3.34,0c1.32-.14,2.75-.27,2.94-2.22H156c0,.59.26,1.12-.33,1.72s-.21,3,.28,4,1.23,1.81,2.5,1.51c.34-.09.62.08.67.52H156.2a1,1,0,0,0-1.41,0l0,0h-1.29c.12-.73.83-.35,1.33-.78h-9.12c-.49,0-.89.08-.83.76a2.11,2.11,0,0,1-1.22,0q-.12-.22-.24,0Zm14-1.22a1.65,1.65,0,0,0-1.13-.17c-.84,0-1.62.08-1.64-1.24,0-.61-.6-.58-1-.58h-4.08c-1.36,0-2.17.76-3,2Z" transform="translate(0.02 0)" fill="#cbd3d4"/><path d="M153.76,86.67c-.19,2-1.62,2.08-2.94,2.22a12.45,12.45,0,0,1-3.34,0,3.06,3.06,0,0,1-2.61-2.23Z" transform="translate(0.02 0)" fill="#d6dcde"/><path d="M95.81,58.9a2.47,2.47,0,0,0-1-2.3c-.82-.75-1.1-2-1.92-2.83-.44-.45-.07-1.13.13-1.69a23.41,23.41,0,0,1,1.8-3.7,5.73,5.73,0,0,0,4.8,1.85c2,0,4,0,6,.06a1,1,0,0,0,.35.9,1.42,1.42,0,0,1,.21,1.87c-.71.91-.83,2.14-1.6,3-.36.4-.76,1.21-.61,1.56.22.52,1,.14,1.52.21a3.93,3.93,0,0,0,.84,0h0l-.21.31a6.13,6.13,0,0,1-2.26,0c-.39-.06-.78-.67-1.15,0l-5.28.12c0-.21-.11-.42-.36-.41s-.33.29-.33.54A1.62,1.62,0,0,1,95.81,58.9Z" transform="translate(0.02 0)" fill="#d6dcde"/><path d="M106.38,57.83a3.93,3.93,0,0,1-.84,0c-.53-.07-1.3.31-1.52-.21-.15-.35.25-1.16.61-1.56.77-.86.89-2.09,1.6-3a1.42,1.42,0,0,0-.21-1.87,1,1,0,0,1-.35-.9h.46a.57.57,0,0,0,1,0h.94c.17,1,.89,1.21,1.69,1.19a28.58,28.58,0,0,1,4.34,0c1.05.16,1.47-.14,1.68-1.14a9.72,9.72,0,0,1,2.64,0,1.92,1.92,0,0,1-.23.84,1.88,1.88,0,0,0,.44,2.62,2,2,0,0,0,.46.24,1.52,1.52,0,0,1,.73,1.5,21.77,21.77,0,0,0,.28,2.67,2.76,2.76,0,0,1-1.61,0c0-.1.39-.24.1-.29s-.87-.27-1.12.31a42.91,42.91,0,0,1-6,0c1-.76,2.23-.32,3.34-.33,3.44,0,2.34-.29,1.49-2.75a1.76,1.76,0,0,0-2-1.38,28.71,28.71,0,0,1-4.54.21c-.31,0-.72-.12-.91.16C108,55.36,106.65,56.16,106.38,57.83Z" transform="translate(0.02 0)" fill="#cbd3d4"/><path d="M115.77,50.28c-.21,1-.63,1.3-1.68,1.14a28.58,28.58,0,0,0-4.34,0c-.8,0-1.52-.14-1.69-1.19Z" transform="translate(0.02 0)" fill="#d6dcde"/><path d="M128,50.27c0,.51-.11.83-.66.82h-3c-.55,0-.69-.31-.66-.82Z" transform="translate(0.02 0)" fill="#cbd3d4"/><path d="M107.12,50.29a.57.57,0,0,1-1,0Z" transform="translate(0.02 0)" fill="#d6dcde"/><path d="M177.58,58.2l.11-.17.08.18h-.19Z" transform="translate(0.02 0)" fill="#cbd3d4"/><path d="M102.78,94.41c0-.25.09-.51.41-.47s.27.27.31.47Z" transform="translate(0.02 0)" fill="#cbd3d4"/><path d="M106.38,57.83c.27-1.67,1.66-2.47,2.48-3.72.19-.28.6-.14.91-.16a28.71,28.71,0,0,0,4.54-.21,1.76,1.76,0,0,1,2,1.38c.85,2.46,2,2.74-1.49,2.75-1.11,0-2.29-.43-3.34.33H111c-.34-.37-.69-1.15-1,0h-.5c0-.24-.12-.22-.21,0h-.71c0-.18,0-.44-.26-.43s-.2.27-.25.44h-.94c-.13-.39-.44-.33-.72-.34Z" transform="translate(0.02 0)" fill="#d6dcde"/><path d="M120.56,58.15a7.61,7.61,0,0,1,5.07.09A33,33,0,0,1,120.56,58.15Z" transform="translate(0.02 0)" fill="#cbd3d4"/><path d="M97.89,65c.49.24,1,.42.86,1.39A2.35,2.35,0,0,1,97.89,65Z" transform="translate(0.02 0)" fill="#65686b"/><path d="M117.46,58.18c.25-.58.75-.37,1.12-.31s0,.19-.1.29A1.43,1.43,0,0,1,117.46,58.18Z" transform="translate(0.02 0)" fill="#d6dcde"/><path d="M110,58.24c.29-1.19.64-.41,1,0C110.64,58.27,110.32,58.43,110,58.24Z" transform="translate(0.02 0)" fill="#cbd3d4"/><path d="M102.77,58.18c.37-.69.76-.08,1.15,0A1.44,1.44,0,0,1,102.77,58.18Z" transform="translate(0.02 0)" fill="#cbd3d4"/><path d="M106.39,57.84c.28,0,.59-.05.72.34a1,1,0,0,1-.93,0Z" transform="translate(0.02 0)" fill="#cbd3d4"/><path d="M108.05,58.18c0-.17,0-.44.25-.44s.22.25.26.43a.36.36,0,0,1-.51,0Z" transform="translate(0.02 0)" fill="#cbd3d4"/><path d="M96.8,58.43c0-.25,0-.52.33-.54s.31.2.36.41Z" transform="translate(0.02 0)" fill="#cbd3d4"/><path d="M109.27,58.18c.09-.21.16-.23.21,0h-.21Z" transform="translate(0.02 0)" fill="#cbd3d4"/><path d="M144.88,94.38c-.06-.68.34-.76.83-.76h9.12c-.5.43-1.21,0-1.33.78A77.46,77.46,0,0,1,144.88,94.38Z" transform="translate(0.02 0)" fill="#d6dcde"/><path d="M154.72,94.41a1,1,0,0,1,1.41,0l0,0Z" transform="translate(0.02 0)" fill="#d6dcde"/><path d="M143.46,94.41q.12-.22.24,0Z" transform="translate(0.02 0)" fill="#d6dcde"/><path d="M155.74,93.28H144.88c.8-1.24,1.61-2,3-2H152c.44,0,1,0,1,.58,0,1.32.8,1.26,1.64,1.24A1.61,1.61,0,0,1,155.74,93.28Z" transform="translate(0.02 0)" fill="#d6dcde"/><path d="M172.68,98.64a5.05,5.05,0,0,0-3.74-4.2l-.66-.11h-14.7c-2.87.12-5.75.16-8.62,0a2.11,2.11,0,0,1-1.22,0h-.24l-1.63.09a5.76,5.76,0,0,0-3,2,7.63,7.63,0,0,0-1,2.6,5.92,5.92,0,0,0,2.08,4.72c1.29,1.13,2.77.71,4.19.86,1.78,0,3.57.06,5.35,0a10.18,10.18,0,0,0,2.87-.08h1.72v.18h.73l1.19-.11a.46.46,0,0,0,.07-.07h2.1l0,.07h10.31a10.58,10.58,0,0,0,2.49-1C172.16,102.19,173,100.64,172.68,98.64Z" transform="translate(0.02 0)" fill="#4b4c4c"/><path d="M126.08,58.35l-.47-.08a33,33,0,0,1-5.07-.09h-.47a2.76,2.76,0,0,1-1.61,0,1.43,1.43,0,0,1-1,0,42.91,42.91,0,0,1-6,0H111c-.34,0-.66.19-1,0h-1.42a.36.36,0,0,1-.51,0h-.94a1,1,0,0,1-.93,0,6.13,6.13,0,0,1-2.26,0,1.44,1.44,0,0,1-1.15,0l-5.28.12-.69.13a1.64,1.64,0,0,1-1,.47l-1.43,1.54c0,.49-.4.74-.66,1.07a13.64,13.64,0,0,0,.2,3.93,5.7,5.7,0,0,0,5.89,3c1.85-.13,3.71.06,5.57.06,3.46-.07,6.93-.07,10.4-.07,3.06,0,6.13.07,9.2.07a5.18,5.18,0,0,0,4.48-3.39C130.15,61.72,129.2,59.82,126.08,58.35Z" transform="translate(0.02 0)" fill="#4b4c4c"/><path d="M134.75,114.61c-.66,0-.93.19-.93.92.05,2.31.06,4.62.06,6.92h0l-.05,3.85.8,3.38h2.06l.37-5.19h.21v-7.23C137.27,114.56,137.26,114.61,134.75,114.61Z" transform="translate(0.02 0)" fill="#4b4c4c"/><polygon points="199.91 30.65 0.16 30.59 0.13 32.62 200.19 32.71 199.91 30.65" fill="#4b4c4c"/><polygon points="139.54 115.3 138.17 114.7 138.26 129.93 139.54 129.67 139.54 115.3" fill="#4b4c4c"/><polygon points="140.43 115.13 140.48 128.73 142.88 128.24 142.81 115.11 140.43 115.13" fill="#4b4c4c"/><polygon points="148 115.14 148.24 129.4 149.82 115.55 148.57 114.7 148 115.14" fill="#4b4c4c"/><path d="M135.54,125.24l1.14,4.44A1.22,1.22,0,0,1,135,130C134,129.46,135.54,125.24,135.54,125.24Z" transform="translate(0.02 0)" fill="#4b4c4c"/><polygon points="146.42 114.86 147.43 115.11 147.42 118.79 146.27 118.43 146.42 114.86" fill="#4b4c4c"/><polygon points="70.79 30.53 30.12 30.6 38.24 19.79 52.75 17.22 63.57 19.26 70.79 30.53" fill="#0073c0"/></svg>