<svg id="Capa_9" data-name="Capa 9" xmlns="http://www.w3.org/2000/svg" viewBox="0 0 507.75 423.35"><path d="M348.93,444.45c-17.23-8.16-24.11-27.56-26.54-45.63-.41-3-1.27-6.12-.29-9s4-5.23,6.9-4.42c2.41.67,3.82,3.09,5.43,5A17.69,17.69,0,0,0,342.6,396c2.07.67,4.54.88,6.25-.48,2.34-1.87,2-5.49,1.52-8.47q-1.47-8.33-2.92-16.66a28,28,0,0,1-.6-9c.45-3,2-6,4.75-7.24s6.49-.23,7.58,2.59a26.59,26.59,0,0,1,.72,3.7c.29,1.22,1.1,2.49,2.33,2.64s2.3-.9,3-1.93c2.57-3.53,4-7.76,5.3-12s2.52-8.46,4.76-12.21,5.66-7,9.89-8,9.23.9,11,4.91.06,8.7-2,12.56A67.69,67.69,0,0,1,382.59,362a5.55,5.55,0,0,0-1.89,2.88c-.32,2.1,1.9,3.76,4,4.08,2.34.36,4.72-.28,7.09-.4s5.07.48,6.32,2.53c1.73,2.84-.27,6.47-2.43,9a57.86,57.86,0,0,1-15.23,12.6c-2.06,1.17-4.25,2.27-5.76,4.11s-2.12,4.7-.7,6.62,4.29,2.13,6.51,1.31,4.07-2.41,6.13-3.6c3.83-2.24,9.17-2.86,12.4.24a9.56,9.56,0,0,1,2.41,8.18,22,22,0,0,1-3.27,8.14A58.31,58.31,0,0,1,376.57,439c-8.95,4.9-17.61,7.29-27.64,5.43" transform="translate(-33.51 -23.07)" fill="#f5f5f5"/><path d="M351.66,432.4a270.86,270.86,0,0,1,5.74-30.57l1.92-7.93c.63-2.61,1.26-5.19,2-7.67a133.73,133.73,0,0,1,5.25-14c1.89-4.38,3.84-8.48,5.69-12.29s3.66-7.33,5.44-10.46a107,107,0,0,1,9.48-14.16c1.25-1.58,2.26-2.77,2.95-3.57.34-.38.6-.68.79-.91a2,2,0,0,1,.29-.29,1.88,1.88,0,0,1-.24.33c-.19.23-.44.54-.75.94-.67.82-1.65,2-2.87,3.63a114.84,114.84,0,0,0-9.31,14.23c-1.75,3.14-3.53,6.66-5.37,10.47S369,368,367.08,372.4a134.47,134.47,0,0,0-5.2,14c-.77,2.47-1.39,5-2,7.64L357.94,402a279.44,279.44,0,0,0-5.77,30.5" transform="translate(-33.51 -23.07)" fill="#e0e0e0"/><path d="M361.51,386.18A6.53,6.53,0,0,1,361,385c-.29-.79-.68-2-1.14-3.41-.93-2.9-2.07-7-3.31-11.41s-2.43-8.49-3.4-11.36c-.48-1.44-.88-2.6-1.16-3.4a7.07,7.07,0,0,1-.39-1.27,5.57,5.57,0,0,1,.59,1.19c.35.77.81,1.92,1.33,3.34,1.07,2.86,2.33,6.88,3.57,11.35s2.3,8.4,3.14,11.45c.39,1.37.72,2.53,1,3.46A5.67,5.67,0,0,1,361.51,386.18Z" transform="translate(-33.51 -23.07)" fill="#e0e0e0"/><path d="M398.64,372.52a7.56,7.56,0,0,1-1.49.45c-1,.25-2.38.61-4.1,1.11-3.45,1-8.16,2.48-13.29,4.38s-9.7,3.83-13,5.31c-1.64.73-2.95,1.36-3.86,1.79a8.72,8.72,0,0,1-1.43.62,7.41,7.41,0,0,1,1.34-.82c.87-.49,2.16-1.17,3.78-1.95,3.23-1.58,7.79-3.57,12.93-5.48A135,135,0,0,1,393,373.7c1.74-.46,3.16-.76,4.15-.95A10.05,10.05,0,0,1,398.64,372.52Z" transform="translate(-33.51 -23.07)" fill="#e0e0e0"/><path d="M352,431.62a2.61,2.61,0,0,1-.34-.43l-.89-1.27c-.77-1.11-1.84-2.75-3.13-4.79-2.6-4.08-6-9.83-9.67-16.23s-7-12.17-9.53-16.29c-1.22-2-2.23-3.66-3-4.88l-.8-1.34a2.49,2.49,0,0,1-.25-.48s.13.13.34.42l.89,1.28c.77,1.11,1.84,2.75,3.14,4.79,2.59,4.08,6,9.82,9.67,16.22s7,12.17,9.52,16.3c1.23,2,2.23,3.65,3,4.88l.81,1.33A2,2,0,0,1,352,431.62Z" transform="translate(-33.51 -23.07)" fill="#e0e0e0"/><path d="M400.19,406.57a1.86,1.86,0,0,1-.47.3l-1.39.74-5.16,2.69c-4.36,2.28-10.33,5.49-16.93,9s-12.62,6.72-17,8.9c-2.21,1.09-4,2-5.24,2.53l-1.45.65a2.32,2.32,0,0,1-.52.2,2.55,2.55,0,0,1,.47-.3l1.4-.74,5.16-2.7c4.35-2.27,10.33-5.48,16.93-9s12.62-6.72,17-8.9c2.2-1.09,4-2,5.24-2.53l1.44-.66A2.82,2.82,0,0,1,400.19,406.57Z" transform="translate(-33.51 -23.07)" fill="#e0e0e0"/><path d="M223.89,229.8s-11.88,1.65-5.21,27.68S231,296.91,231,296.91s.89,5.89-3.86,5.71-14.44-4-17.72,1.09c-3.41,5.32-.43,11.72,7,18.43s23.24,22,24.66,23.39,2.46,4.25-.8,4.64-26.38-2.32-27,8.73,23.2,26.33,25.77,28.05,3,3.06,2.4,4.56-8.26-.15-14.87-.66-14.36.08-14.19,6.48,12.68,22.6,49.19,34.64l17.28,4.47,12.77-12.58c25.7-28.59,28.51-48.86,25.48-54.5s-10.05-2.29-15.54,1.43-11.34,9-12.58,8-1.56-2.38-.18-5.15,14.47-27.87,8.43-37.15S272.5,341,269.47,342.3s-3.53-1.75-3-3.63,6.65-23,9.78-32.55,2.54-16.57-3.06-19.49c-5.4-2.81-11.89,5.35-15.92,7.87s-6.19-3-6.19-3-1.75-14.45-8.9-40.35-18.53-21.26-18.53-21.26" transform="translate(-33.51 -23.07)" fill="#ebebeb"/><path d="M278.86,440.74c-5.17-19-13.79-53-21.35-82.19S243.1,303,238,284l-6-22.57c-.7-2.65-1.25-4.72-1.63-6.14-.18-.69-.32-1.22-.41-1.6s-.13-.55-.13-.55.07.18.18.53l.47,1.59,1.73,6.11c1.5,5.31,3.62,13,6.2,22.53,5.18,19,12.1,45.4,19.65,74.53s16.11,63.16,21.19,82.22" transform="translate(-33.51 -23.07)" fill="#e0e0e0"/><path d="M222.76,309.65a6.07,6.07,0,0,1,1.14.61c.71.42,1.73,1.06,3,1.86,2.49,1.61,5.88,3.92,9.57,6.53l9.43,6.72,2.86,2a5.68,5.68,0,0,1,1,.79,6.07,6.07,0,0,1-1.14-.61c-.72-.42-1.73-1.06-3-1.87-2.47-1.63-5.83-4-9.52-6.6l-9.47-6.65-2.88-2A5.32,5.32,0,0,1,222.76,309.65Z" transform="translate(-33.51 -23.07)" fill="#e0e0e0"/><path d="M251.21,327.33c-.13-.08,4.32-7.27,9.93-16.06s10.28-15.85,10.41-15.77-4.32,7.28-9.94,16.07S251.34,327.41,251.21,327.33Z" transform="translate(-33.51 -23.07)" fill="#e0e0e0"/><path d="M260.79,372.61a5.27,5.27,0,0,1,.95-.92l2.69-2.36c2.28-2,5.4-4.76,8.74-7.94s6.28-6.15,8.38-8.32L284,350.5a6.57,6.57,0,0,1,1-.91,6.28,6.28,0,0,1-.81,1.05c-.54.65-1.35,1.58-2.36,2.7-2,2.24-4.93,5.27-8.29,8.45s-6.52,5.92-8.86,7.84c-1.18,1-2.14,1.72-2.82,2.23A6.11,6.11,0,0,1,260.79,372.61Z" transform="translate(-33.51 -23.07)" fill="#e0e0e0"/><path d="M231.54,362.28a5,5,0,0,1,1.18.29l3.17,1c2.66.85,6.33,2.06,10.37,3.42s7.69,2.64,10.32,3.59l3.11,1.14a5.07,5.07,0,0,1,1.11.49,4.61,4.61,0,0,1-1.18-.28l-3.16-1c-2.67-.85-6.34-2.06-10.38-3.43s-7.69-2.64-10.32-3.58l-3.11-1.15A4.8,4.8,0,0,1,231.54,362.28Z" transform="translate(-33.51 -23.07)" fill="#e0e0e0"/><path d="M234.92,403.33a7.94,7.94,0,0,1,1.51.38l4.06,1.24c3.42,1.07,8.13,2.58,13.33,4.29s9.89,3.27,13.28,4.44l4,1.41a9.66,9.66,0,0,1,1.45.58,7.94,7.94,0,0,1-1.51-.38L267,414.05c-3.42-1.07-8.14-2.58-13.34-4.29s-9.88-3.27-13.27-4.44l-4-1.41A9.18,9.18,0,0,1,234.92,403.33Z" transform="translate(-33.51 -23.07)" fill="#e0e0e0"/><path d="M271.73,415.12a10.86,10.86,0,0,1,1.17-1.19l3.31-3.11c2.79-2.63,6.64-6.28,10.76-10.43s7.78-8,10.4-10.8l3.1-3.32a10.62,10.62,0,0,1,1.19-1.18,8.86,8.86,0,0,1-1,1.32c-.68.83-1.7,2-3,3.44-2.55,2.88-6.15,6.78-10.29,10.93s-8,7.77-10.89,10.33c-1.44,1.27-2.61,2.3-3.43,3A9.54,9.54,0,0,1,271.73,415.12Z" transform="translate(-33.51 -23.07)" fill="#e0e0e0"/><path d="M172.29,74.63l-9.76-3s-2.55,8.2-11.12,5.69a8.28,8.28,0,0,1-6.07-7.43,9.15,9.15,0,0,1,3.16-7.68c2.51-2.22,6.91-3.57,13.12-.36l6.87-22-9.65-3-4,12.89S140.19,49,135.54,63.87c-4.45,14.27,7.31,21.58,12.79,23.29C152.52,88.46,167.1,91.9,172.29,74.63Z" transform="translate(-33.51 -23.07)" fill="#f5f5f5"/><rect x="161.33" y="24.38" width="10.26" height="9.58" transform="translate(283.16 83.53) rotate(-162.67)" fill="#f5f5f5"/><path d="M199.23,49.79l3.9-1a3.44,3.44,0,0,1,2.53-4.24,3.27,3.27,0,0,1,3.6,1.21,3.61,3.61,0,0,1,.55,3.23c-.37,1.27-1.56,2.65-4.32,2.88l2.33,8.81,3.86-1-1.36-5.16a7.79,7.79,0,0,0,3.47-8.8c-1.5-5.72-7-5.69-9.17-5.11C202.94,41,197.33,42.91,199.23,49.79Z" transform="translate(-33.51 -23.07)" fill="#ebebeb"/><rect x="208.7" y="61.89" width="4.06" height="3.79" transform="translate(-42.81 32.78) rotate(-14.78)" fill="#ebebeb"/><path d="M522,151l3.8,1.37a3.44,3.44,0,0,1,4.5-2,3.26,3.26,0,0,1,2.26,3,3.63,3.63,0,0,1-1.38,3c-1,.83-2.79,1.28-5.19-.1l-3.1,8.57,3.75,1.36,1.82-5a7.81,7.81,0,0,0,7.87-5.26c2-5.56-2.5-8.65-4.64-9.42C530.09,145.89,524.39,144.27,522,151Z" transform="translate(-33.51 -23.07)" fill="#ebebeb"/><rect x="521.5" y="167.16" width="4.06" height="3.79" transform="translate(55.37 -191.29) rotate(19.91)" fill="#ebebeb"/><path d="M118.75,194.52l8-3.1s-2.6-6.75,4.37-9.58a7,7,0,0,1,7.9,1.73A7.74,7.74,0,0,1,141,190.3c-.5,2.78-2.7,6-8.49,7.11l7,18.13,7.95-3.06-4.09-10.62s10-7.18,5.3-19.48C144.13,170.62,132.53,172,128,173.7,124.57,175,113.13,180.39,118.75,194.52Z" transform="translate(-33.51 -23.07)" fill="#f5f5f5"/><rect x="142.08" y="217.46" width="8.65" height="8.08" transform="translate(-103.35 44.36) rotate(-21.07)" fill="#f5f5f5"/><path d="M525.16,225l-5.7,2.19s1.85,4.79-3.09,6.79a5,5,0,0,1-5.6-1.22,5.47,5.47,0,0,1-1.38-4.77c.36-2,1.92-4.23,6-5l-4.95-12.85-5.64,2.17,2.9,7.53a11.81,11.81,0,0,0-3.76,13.8c3.21,8.33,11.43,7.39,14.63,6.16C521,238.84,529.14,235,525.16,225Z" transform="translate(-33.51 -23.07)" fill="#ebebeb"/><rect x="502.5" y="203.05" width="6.13" height="5.72" transform="translate(1017.84 193.23) rotate(158.93)" fill="#f5f5f5"/><path d="M541.26,446.16c0,.15-98.85.26-220.76.26-284.62,0-220.78-.11-220.78-.26s98.83-.26,220.78-.26S541.26,446,541.26,446.16Z" transform="translate(-33.51 -23.07)" fill="#263238"/><path d="M226.87,255.46c-.21,19.71-2,41.78-8.39,63.24-3.08,10.25-7,20.12-13.45,28.8-6.83,9.25-15.59,15.25-27.45,15.62-12.67.39-21.76-6-28.85-15.79-7.7-10.59-12.15-22.65-15.58-35.12a216.23,216.23,0,0,1-7.36-51.43c-.6-22.18.53-44.15,5.85-65.71,3.13-12.69,7.2-25.06,14.73-35.95,5.71-8.24,13-14.35,23.22-16.16,14-2.49,25,2.88,33.55,13.78,7.86,10,12.26,21.71,15.82,33.74C225,210.85,226.91,231.76,226.87,255.46Zm-38.68-2.68q0-45.75,0-91.52a11.91,11.91,0,0,0-1.62-6.56c-3-4.73-8.7-6.66-14.94-5-5.06,1.33-7.2,4.4-7.42,10.71,0,.79,0,1.58,0,2.38v168c0,4.41,0,8.82,0,13.23a12.09,12.09,0,0,0,2.57,8.13,12.83,12.83,0,0,0,14,3.57c4.68-1.65,7.41-5.81,7.41-11.35Q188.21,298.55,188.19,252.78Z" transform="translate(-33.51 -23.07)" fill="#025fa4"/><path d="M53.84,427.76c3.67,5.06,10.43,5.68,15.7,1.38s7.75-9.93,9.15-16.27c1.46-6.59.36-12.94-1.88-19.19a155,155,0,0,0-8.41-19.07A47.75,47.75,0,0,1,63,352q.14-98.19.12-196.37c0-2.75-.75-3.54-3.34-3.21-1.65.2-3.36-.07-5,.06-2.91.24-1.83-2-1.93-6.66a.19.19,0,0,1,.17-.19c14.84.1,29.68.3,44.51.34,1.91,0,2.31.6,2.31,2.39,0,72.43.06,144.85-.11,217.27,0,15-1.21,29.95-5.74,44.4a52.85,52.85,0,0,1-10,19c-8.68,10.12-27.48,15.08-40.68.92C38,424.32,33.74,418.12,33.52,410c-.36-13.59,8-26.32,26.48-21.64a7.26,7.26,0,0,1,3.78,2.36A26.56,26.56,0,0,1,70,411.36C69.05,419.23,62.54,425.62,53.84,427.76Z" transform="translate(-33.51 -23.07)" fill="#025fa4"/><path d="M355.5,300.25q0,22.37,0,44.72c0,8,6.12,13.32,14.18,12.66,10.28-.84,17.83-6,23.56-14.24,6.83-9.82,10.19-21,12.63-32.51a184,184,0,0,0,3.66-37.82c0-2,.44-2.91,2.57-2.58a11.65,11.65,0,0,0,2.64,0c.95-.06,1.22.37,1.2,1.25-.36,23.25-1.36,46.41-11.57,67.94-4.83,10.17-11.77,18.57-22.78,22.37-16.44,5.67-30.74,1.77-41.73-13.09-8.05-10.87-12.57-23.36-16-36.27-5.85-22-7.37-44.43-7-67.07.33-19.28,2.47-38.32,8-56.86,3-10.07,6.69-19.87,12.81-28.54,5.44-7.72,12.29-13.62,21.79-15.67,15.22-3.29,29.13,2.49,38.3,15.82,6.76,9.83,10.29,21,12.79,32.47,4.16,19.12,5.25,38.55,5.41,58.06,0,2.23-1.1,2.08-2.59,2.07-18.26-.17-36.51-.27-54.77-.52-2.45,0-3.23.42-3.21,3.08C355.58,270.44,355.5,285.34,355.5,300.25Zm0-98.41c0,13.85,0,27.69,0,41.54,0,1.81.39,2.4,2.3,2.38,6.34-.08,12.69,0,19,.14,1.9,0,2.57-.38,2.56-2.45-.07-27,0-54-.05-81a12.33,12.33,0,0,0-12.49-12c-7.71,0-11.31,3.77-11.32,11.72Q355.49,182,355.5,201.84Z" transform="translate(-33.51 -23.07)" fill="#025fa4"/><path d="M288.35,250.24q0,50-.06,100c0,2.29.48,3.23,2.85,2.85a19.7,19.7,0,0,1,3.17,0c4.79,0,5.34.73,4.57,5.62-.19,1.14-.79,1.18-1.63,1.18-10.32-.08-20.63-.13-30.95-.22-7.49-.06-15-.22-22.48-.18-2.87,0-3.22-.72-2-7,9.9.21,9.9,1.49,9.9-5.52q0-95,.05-190c0-2.45-.45-3.6-3.12-3.23a13.83,13.83,0,0,1-3.68-.18c-1.24-.16-3.14.76-3.58-.57a12.58,12.58,0,0,1-.05-5.5c.17-1.17,1.48-.62,2.26-.61q20.37.09,40.74.26a23.65,23.65,0,0,0,2.38.07c1.29-.12,1.76.42,1.63,1.67a16.3,16.3,0,0,0,0,1.85Z" transform="translate(-33.51 -23.07)" fill="#025fa4"/><path d="M104,81.55c0,12-10,21.51-22.51,21.44s-22.7-9.81-22.69-22c0-11.62,10.53-21.73,22.56-21.7C93.59,59.33,104.05,69.61,104,81.55Z" transform="translate(-33.51 -23.07)" fill="#025fa4"/><path d="M247.49,82.57c-.12-11.6,10.1-21.82,22-22,12.14-.15,23,9.95,23.13,21.44.11,12.6-9.43,22.16-22.19,22.25S247.62,94.78,247.49,82.57Z" transform="translate(-33.51 -23.07)" fill="#025fa4"/><path d="M162.89,413.73q-.1-20,0-39.94c0-1.87-.32-2.74-2.43-2.58a37.33,37.33,0,0,1-6.6-.1c-2.3-.23-2.74.71-2.71,2.82.12,8.37.05,16.75.05,25.9a19.07,19.07,0,0,0-8.94-6,33.72,33.72,0,0,0-22.79.59c-15,5.74-21,23.85-11.92,36.65,7.17,10.08,17.69,12.08,29.18,10.58a23.48,23.48,0,0,0,15.54-8.5,69.89,69.89,0,0,1,.5,8.16,76.62,76.62,0,0,1,10.82.3C162.38,432.37,162.94,423,162.89,413.73ZM149.16,428a16.55,16.55,0,0,1-12,6.8c-7.6.94-14.44-.69-19.05-7.46-4-5.87-3.76-14.76.32-20.72,6.16-9,22-10.12,29.45-2.13,3.46,3.71,3.67,8.2,3.34,12.54C151.3,421.07,151.51,424.75,149.16,428Z" transform="translate(-33.51 -23.07)" fill="#5386ec"/><path d="M357.13,397c-10-5-20.6-4.26-31,0A21.27,21.27,0,0,0,313,413.37c-2.26,14.93,4.24,23.52,15.43,27.59,10.47,3.81,21.16,3.16,31.81,1,5.84-1.19,4.6-.65,3.29-5.61-.41-1.55-1-2-2.66-1.44a29,29,0,0,1-6.85,1.42c-7.27.66-14.56,1-21.34-2.21a15.09,15.09,0,0,1-8.84-11.44c-.33-1.77.11-2.5,2.11-2.47,6.61.12,13.22,0,19.84,0v.15c6.7,0,13.4,0,20.1,0,1.53,0,2.29-.19,2.53-2.05A21.54,21.54,0,0,0,357.13,397Zm-2.09,17c-4.85-.14-9.71-.05-14.56-.05v-.14c-4.94,0-9.88-.06-14.82,0-1.69,0-1.86-.49-1.42-2a16.4,16.4,0,0,1,14-11.67,22.43,22.43,0,0,1,10.43,1,12.88,12.88,0,0,1,8.46,10.32C357.46,413.32,357.07,414.12,355,414.07Z" transform="translate(-33.51 -23.07)" fill="#5386ec"/><path d="M305.26,394.42a54.6,54.6,0,0,1-9.57-.26c-5.81,12.88-11.76,25.68-17.77,38.73a3.78,3.78,0,0,1-.54-.7c-4.78-12.24-10.85-23.9-16.17-35.89-.46-1-.78-2.08-2.35-2.05-2.73.05-5.46-.18-8.19-.22-3,0-3,0-1.68,2.62,7,13.94,14.08,27.83,20.92,41.84,1.36,2.77,3,3.46,6,3.75,6.22.61,8.93-2,11.61-8.94a169.92,169.92,0,0,1,17.77-34.18C308.12,394.89,307.8,394.31,305.26,394.42Z" transform="translate(-33.51 -23.07)" fill="#5386ec"/><path d="M406.94,394.42c-.34.05-.68.14-1,.22-5.7,1.25-10,4.45-13.16,10.16-.06-1.12-.07-1.52-.11-1.92-.27-2.5.95-5.8-.8-7.33s-4.89-.44-7.42-.61c-1.88-.12-2.55.47-2.23,2.39a58.87,58.87,0,0,1,.39,9.76c0,12,.06,24.08-.08,36.13a36,36,0,0,1,8.87-.19c2.14.19,2.89-.44,2.84-2.72-.14-7.67-.13-15.34,0-23,.11-7.17,4.23-12.52,10.85-14.19a15.13,15.13,0,0,1,7-.51c.89.19,1.63.29,1.83-1.09C414.91,394.76,413.66,393.45,406.94,394.42Z" transform="translate(-33.51 -23.07)" fill="#5386ec"/><path d="M213.2,395.23c.16-1.85-.56-2.44-2.37-2.47-7.94-.14-14.21,2.79-18.75,10.3-.11-1-.16-1.38-.2-1.78-.24-2.43.64-5.69-.92-7.06-2.31-2-7.46,1-9.82-1.54.56,6.45.78,12.91.73,19.38-.07,9.88,0,19.75-.08,29.62a53.34,53.34,0,0,1,8.85-.16c2.16.18,2.86-.49,2.81-2.74-.14-7.57-.12-15.15,0-22.73.11-10,8-16.39,18.56-14.62C214.17,400.47,213,397.51,213.2,395.23Z" transform="translate(-33.51 -23.07)" fill="#5386ec"/><path d="M234.81,394c-2.55,0-5.11.07-7.65-.11-1.84-.12-2.22.64-2.2,2.31,0,4,.13,8,.08,11.95-.13,10.45.05,20.9-.09,31.34,0,1.88.61,2.47,2.44,2.39,2.55-.11,5.11-.06,7.65.07,1.48.08,1.79-.54,1.79-1.84q0-22.06,0-44.12C236.84,394.46,236.26,394,234.81,394Z" transform="translate(-33.51 -23.07)" fill="#5386ec"/><path d="M230.74,386a8.08,8.08,0,0,1-4.07-.85c-1.79-1-3-2.34-3-4.56A4.92,4.92,0,0,1,227,376a9.38,9.38,0,0,1,6.93-.28c2.75.89,4.32,3,4.13,5.4-.18,2.23-2,4.11-4.67,4.68A22.57,22.57,0,0,1,230.74,386Z" transform="translate(-33.51 -23.07)" fill="#5386ec"/><path d="M385.89,176.1c-1,2,2.73,3.64,4.88,4.29a19.62,19.62,0,0,0,6.71.46c3-.16,6.07-.44,8.66-1.92a13.77,13.77,0,0,0,5.22-5.85,41.15,41.15,0,0,0,2.65-7.49S390.38,167.14,385.89,176.1Z" transform="translate(-33.51 -23.07)" fill="#e8505b"/><g opacity="0.4"><path d="M385.89,176.1c-1,2,2.73,3.64,4.88,4.29a19.62,19.62,0,0,0,6.71.46c3-.16,6.07-.44,8.66-1.92a13.77,13.77,0,0,0,5.22-5.85,41.15,41.15,0,0,0,2.65-7.49S390.38,167.14,385.89,176.1Z" transform="translate(-33.51 -23.07)"/></g><path d="M452.64,169.7A22.62,22.62,0,0,0,466,173.88c2.27,0,4.68-.46,6.35-2,.77-.71,1.35-1.61,2.14-2.29.54-.46,1.17-.81,1.68-1.3a2.15,2.15,0,0,0,.73-1.9,3.93,3.93,0,0,0-1.38-2.21c-2.71-1.54-5.95-1.48-9.07-1.41a31.21,31.21,0,0,0-9.15,1.79c-2.42.82-4.95,2-6.18,4.2" transform="translate(-33.51 -23.07)" fill="#e8505b"/><g opacity="0.4"><path d="M476.87,166.4a4.15,4.15,0,0,0-1.77-2c-2.71-1.54-5.56-1.68-8.68-1.61a31.21,31.21,0,0,0-9.15,1.79c-2.42.82-4.95,2-6.18,4.2l1.55.93A22.62,22.62,0,0,0,466,173.88c2.27,0,4.68-.46,6.35-2,.77-.71,1.35-1.61,2.14-2.29.54-.46,1.17-.81,1.68-1.3A2.15,2.15,0,0,0,476.87,166.4Z" transform="translate(-33.51 -23.07)"/></g><path d="M406.51,205.59l49.85.66a.65.65,0,0,0,.62-.84l-5.85-18.24s.86-9.11,2.06-20.08c1.8-16.65,4.21-37.58,4.24-37.52C454,120,433.9,118.39,433.9,118.39L411,119.75l-.8-1.35-6.6,3.07a30.13,30.13,0,0,0-4.14,2.34c-4.36,2.91-14.86,9.6-16.78,17.05-4.42,17.25,3.07,36.5,3.07,36.5l4.82-3.77a34.77,34.77,0,0,1,3.82-2.55L404,196.93a4.57,4.57,0,0,0-2.1,3.32c-.08,2.1,1,4.63,4.59,5.34" transform="translate(-33.51 -23.07)" fill="#e8505b"/><g opacity="0.3"><path d="M427.88,175.07c1.58-8.5.75-17.23-.09-25.84-2.77,7-2.67,15-5.6,21.94a9.4,9.4,0,0,0-.78,2.31,2.57,2.57,0,0,0,.67,2.26c.79.73,2,.34,3.05.21a11.94,11.94,0,0,0,2.75-.88" transform="translate(-33.51 -23.07)"/></g><g opacity="0.4"><path d="M409.52,194.75c4,1.39,8.26-1.2,12.49-1.66,2.8-.3,5.6.34,8.38.79a62.86,62.86,0,0,0,17,.42,6.47,6.47,0,0,0,2.5-.65,3,3,0,0,0,1.31-2.48c-9.42-1-18.83-1.54-28.25-2.51a17.64,17.64,0,0,0-7.06.23c-2.84.88-5,3.11-7,5.32" transform="translate(-33.51 -23.07)"/></g><path d="M475.44,163.11c-4.08-9.17-18.43-34.53-18.43-34.53L445.9,142.51l2.59,27.36s5.87-6.56,22.28-6.69a8,8,0,0,1,6.1,3.22Z" transform="translate(-33.51 -23.07)" fill="#e8505b"/><path d="M408.72,158.26a37.13,37.13,0,0,1-1.87-6,37.34,37.34,0,0,1-1.37-6.11,38.36,38.36,0,0,1,1.87,6A38.64,38.64,0,0,1,408.72,158.26Z" transform="translate(-33.51 -23.07)" fill="#263238"/><path d="M445.06,140.66a7.07,7.07,0,0,1,1,.87,30.62,30.62,0,0,1,2.47,2.72,26.28,26.28,0,0,1,5.31,10.86,20.51,20.51,0,0,1,.32,6.7c-.26,2.05-.65,3.85-.9,5.37s-.42,2.76-.5,3.62a9.12,9.12,0,0,1-.14,1.33,5.48,5.48,0,0,1-.07-1.34,32.36,32.36,0,0,1,.34-3.67c.21-1.53.56-3.35.79-5.36a20.69,20.69,0,0,0-.35-6.54,27.43,27.43,0,0,0-5.09-10.74C446.42,142,445,140.74,445.06,140.66Z" transform="translate(-33.51 -23.07)" fill="#263238"/><path d="M434.88,203.41a4.26,4.26,0,0,1-1.09.32,9.42,9.42,0,0,1-1.3.25c-.51.07-1.09.18-1.74.21a25.07,25.07,0,0,1-4.58,0,29.57,29.57,0,0,1-5.5-1.1,30.68,30.68,0,0,1-5.16-2.21,25.6,25.6,0,0,1-3.79-2.57c-.52-.4-.94-.82-1.32-1.17a11.52,11.52,0,0,1-.93-.94,4.32,4.32,0,0,1-.71-.88c.07-.07,1.15,1.13,3.19,2.7a28.77,28.77,0,0,0,3.79,2.44,31.79,31.79,0,0,0,5.08,2.13,31.34,31.34,0,0,0,5.4,1.12,29.65,29.65,0,0,0,4.5.14C433.29,203.69,434.86,203.31,434.88,203.41Z" transform="translate(-33.51 -23.07)" fill="#263238"/><path d="M450.27,197.71a3.48,3.48,0,0,1,.39,1.46,9,9,0,0,1-.27,3.64,6.32,6.32,0,0,1-2,3.1c-.73.61-1.29.8-1.32.75s.45-.38,1.07-1a7.08,7.08,0,0,0,1.71-3C450.65,200,450.08,197.72,450.27,197.71Z" transform="translate(-33.51 -23.07)" fill="#263238"/><path d="M447.56,201.23a5.42,5.42,0,0,1-2.14,5.52c-.11-.11.83-1.1,1.4-2.63S447.41,201.24,447.56,201.23Z" transform="translate(-33.51 -23.07)" fill="#263238"/><path d="M438.64,168.33a21.23,21.23,0,0,1-1.78,2.56,20.49,20.49,0,0,1-1.75,2.58,9.23,9.23,0,0,1,3.53-5.14Z" transform="translate(-33.51 -23.07)" fill="#263238"/><path d="M404.42,144.11a25.09,25.09,0,0,1-2.21-1.46,28.81,28.81,0,0,0-5.65-2.87,29.74,29.74,0,0,0-6.16-1.54c-1.61-.22-2.63-.26-2.63-.34a9,9,0,0,1,2.67,0,24.2,24.2,0,0,1,6.3,1.42,23.91,23.91,0,0,1,5.68,3.05A9.54,9.54,0,0,1,404.42,144.11Z" transform="translate(-33.51 -23.07)" fill="#263238"/><path d="M457,128.25A42.82,42.82,0,0,0,452,133a43,43,0,0,0-3.79,5.78,6.1,6.1,0,0,1,.69-1.94,19.86,19.86,0,0,1,2.71-4.18,19.62,19.62,0,0,1,3.65-3.37A6,6,0,0,1,457,128.25Z" transform="translate(-33.51 -23.07)" fill="#263238"/><path d="M436.43,120a1.7,1.7,0,0,1,.22.46,8.92,8.92,0,0,1,.47,1.4,11.78,11.78,0,0,1,0,5.42,13.34,13.34,0,0,1-4.08,6.89,13.85,13.85,0,0,1-9.2,3.28,15.63,15.63,0,0,1-9.29-3.11,17.83,17.83,0,0,1-5.11-6.19,18.75,18.75,0,0,1-1.7-5.15,13.1,13.1,0,0,1-.18-1.46,1.61,1.61,0,0,1,0-.52c.05,0,.11.7.39,1.94a20.39,20.39,0,0,0,1.83,5,17.72,17.72,0,0,0,5.07,6,15.3,15.3,0,0,0,9,3,13.52,13.52,0,0,0,8.89-3.12,13.09,13.09,0,0,0,4-6.62,12.2,12.2,0,0,0,.18-5.28C436.68,120.68,436.37,120,436.43,120Z" transform="translate(-33.51 -23.07)" fill="#263238"/><g opacity="0.3"><path d="M439.93,170.1c0-.5-.08-1.09-.52-1.34a1,1,0,0,0-.9,0,2.47,2.47,0,0,0-.73.6,12.27,12.27,0,0,0-2.67,4.27l4.9-.43C440,172.19,440,171.14,439.93,170.1Z" transform="translate(-33.51 -23.07)"/></g><g opacity="0.3"><path d="M456.2,159.79a16.19,16.19,0,0,0-3.55-7.6c2.11,6.92,1.4,10.83.21,15.57l.26-.66C454.48,164.33,456.58,162.59,456.2,159.79Z" transform="translate(-33.51 -23.07)"/></g><polygon points="412.9 369.18 409.9 414.03 390.4 413.8 387.33 367.17 412.9 369.18" fill="#263238"/><path d="M444,431.2v1.3s22,8.84,22.21,13l-43.66-.26.68-14.53A24.94,24.94,0,0,0,444,431.2Z" transform="translate(-33.51 -23.07)" fill="#e8505b"/><path d="M427.6,435.41a1.78,1.78,0,0,0-1.24,2,1.7,1.7,0,0,0,2,1.25,1.87,1.87,0,0,0,1.3-2.15,1.77,1.77,0,0,0-2.22-1.07" transform="translate(-33.51 -23.07)" fill="#fff"/><path d="M422.53,445.26l.16-3.49,41.79,1.52s1.94.86,1.71,2.23Z" transform="translate(-33.51 -23.07)" fill="#263238"/><path d="M444.13,432.62c0,.21-1.07.3-2.13,1s-1.61,1.57-1.81,1.49.13-1.32,1.42-2.12S444.18,432.42,444.13,432.62Z" transform="translate(-33.51 -23.07)" fill="#263238"/><path d="M448.7,434.54c.05.21-.88.56-1.61,1.46s-.94,1.85-1.15,1.84-.35-1.22.58-2.31S448.7,434.34,448.7,434.54Z" transform="translate(-33.51 -23.07)" fill="#263238"/><path d="M451.27,440c-.2,0-.49-1,.07-2.19s1.55-1.62,1.64-1.45-.53.8-1,1.77S451.48,440,451.27,440Z" transform="translate(-33.51 -23.07)" fill="#263238"/><path d="M442.85,64.24c1.13-2.8-.24-6.19-2.67-8a11.61,11.61,0,0,0-8.66-1.71,34.54,34.54,0,0,0-8.55,3,9.63,9.63,0,0,0-16.36,5.34,6.13,6.13,0,0,0-7.26,8.05l13.51,4.75,14.76,26A11.81,11.81,0,0,0,445,85.91a10.25,10.25,0,0,0,2.08-2.56,10.34,10.34,0,0,0,4.77-6.4C453.14,71.24,448.66,64.93,442.85,64.24Z" transform="translate(-33.51 -23.07)" fill="#263238"/><path d="M433.9,118.39c-.83-4.23-1.42-7.13-1.41-7.1s8-3.1,7.42-14.23c-.27-5.54-2.39-14.27-4.34-21.35-1.77-6.38-7.71-13.41-14-11.38l-19,9.3c-1.92.62-2.25,2.42-1.8,4.37l0,1,7.41,30.66,3.13,13.7a11.57,11.57,0,0,0,12.92,8.78h0A11.57,11.57,0,0,0,433.9,118.39Z" transform="translate(-33.51 -23.07)" fill="#ffbe9d"/><path d="M435.44,83.11a1.42,1.42,0,0,1-1,1.68,1.36,1.36,0,0,1-1.69-1,1.42,1.42,0,0,1,1-1.67A1.36,1.36,0,0,1,435.44,83.11Z" transform="translate(-33.51 -23.07)" fill="#263238"/><path d="M434.62,81c-.14.22-1.34-.33-2.83,0s-2.42,1.29-2.62,1.14,0-.42.41-.87a3.94,3.94,0,0,1,2.05-1.14,3.75,3.75,0,0,1,2.3.25C434.46,80.59,434.69,80.89,434.62,81Z" transform="translate(-33.51 -23.07)" fill="#263238"/><path d="M421,86.43a1.41,1.41,0,0,1-1,1.67,1.36,1.36,0,0,1-1.69-.94,1.43,1.43,0,0,1,1-1.68A1.36,1.36,0,0,1,421,86.43Z" transform="translate(-33.51 -23.07)" fill="#263238"/><path d="M420.24,84.51c-.13.22-1.34-.34-2.83,0s-2.42,1.28-2.62,1.14,0-.43.42-.87a3.8,3.8,0,0,1,2-1.14,3.75,3.75,0,0,1,2.3.24C420.08,84.12,420.31,84.41,420.24,84.51Z" transform="translate(-33.51 -23.07)" fill="#263238"/><path d="M427.77,93.92a9.92,9.92,0,0,1,2.32-1c.38-.12.72-.27.73-.54a2,2,0,0,0-.49-1.07L428.6,88.7c-2.42-3.79-4.26-6.93-4.11-7s2.24,2.9,4.67,6.69c.58.93,1.15,1.82,1.68,2.68a2.19,2.19,0,0,1,.51,1.45,1,1,0,0,1-.51.68,2.38,2.38,0,0,1-.62.23A10.07,10.07,0,0,1,427.77,93.92Z" transform="translate(-33.51 -23.07)" fill="#263238"/><path d="M432.49,111.29a28,28,0,0,1-15.24-.82s5.24,6.84,15.81,3.57Z" transform="translate(-33.51 -23.07)" fill="#eb996e"/><path d="M420.52,82.39c-.1.43-1.63.42-3.37.85s-3.12,1.08-3.39.74c-.13-.16.07-.58.6-1a5.74,5.74,0,0,1,2.44-1.21,5.86,5.86,0,0,1,2.71,0C420.2,81.91,420.56,82.19,420.52,82.39Z" transform="translate(-33.51 -23.07)" fill="#263238"/><path d="M434.05,76.26c-.23.4-1.52.3-3,.59s-2.64.79-3,.5c-.16-.15,0-.53.43-1a5.11,5.11,0,0,1,4.83-.88C433.91,75.75,434.16,76.06,434.05,76.26Z" transform="translate(-33.51 -23.07)" fill="#263238"/><path d="M407.2,66.47A7.54,7.54,0,0,0,417.41,72c1.59-.65,3.22-1.85,4.83-1.27s2.22,2.86,3.79,3.73c2.24,1.26,4.94-.91,7.5-.7,2,.17,3.51,1.71,5.06,3s3.7,2.28,5.44,1.34a22.1,22.1,0,0,0-1.77-4.82,7.46,7.46,0,0,0-3.66-3.46c-.87-.35-1.83-.47-2.67-.89-1.8-.93-2.61-3-3.93-4.58a8.24,8.24,0,0,0-7-2.8c-2.17.22-4.22,1.31-6.4,1.22-1.61-.07-3.15-.79-4.75-.76-3.14.05-5.49,2.8-7.23,5.41" transform="translate(-33.51 -23.07)" fill="#263238"/><path d="M417.74,68.76c-1.43-.11-4.38-.41-5.35-1.43a8.44,8.44,0,0,0-8-2.64,7,7,0,0,0-5,6.66,10,10,0,0,0-7.3,7.17A11.62,11.62,0,0,0,394.53,89a20.82,20.82,0,0,1,1.64,2.37,16.94,16.94,0,0,0-1.78,2.7c-2.28,5.06,3.92,7,3.92,7,0,3.4,3.15,3.38,5.16,3.37s3.12,5.36,4.69,5.15l-1.59-16.56a2.33,2.33,0,0,0,.73.13c3.79.07,2.8-7.11,1.58-9a21.38,21.38,0,0,0,2.84-4.58,15.51,15.51,0,0,0,.15-7.66C413.19,71.79,418.37,68.8,417.74,68.76Z" transform="translate(-33.51 -23.07)" fill="#263238"/><path d="M407.14,93.93A3.21,3.21,0,0,0,402,92.21c-1,.86-1.53,2.3-.93,4.72,1.62,6.43,7.75,3.48,7.71,3.3S407.83,96.59,407.14,93.93Z" transform="translate(-33.51 -23.07)" fill="#ffbe9d"/><path d="M406.19,98.28s-.1.11-.27.24a1.15,1.15,0,0,1-.83.23c-.74-.08-1.59-1-1.91-2.17a3.88,3.88,0,0,1-.09-1.68,1.32,1.32,0,0,1,.63-1.07.58.58,0,0,1,.74.14c.13.15.12.29.16.3s.11-.15,0-.4a.77.77,0,0,0-.35-.34.88.88,0,0,0-.66,0,1.62,1.62,0,0,0-.92,1.29,3.85,3.85,0,0,0,.06,1.9,3,3,0,0,0,2.33,2.37,1.24,1.24,0,0,0,1-.43C406.21,98.44,406.21,98.29,406.19,98.28Z" transform="translate(-33.51 -23.07)" fill="#eb996e"/><path d="M441.67,84.94s.58-.45,1.4-1.45a9.56,9.56,0,0,0,2-5,9.25,9.25,0,0,0-.36-3.71,7.86,7.86,0,0,0-2.29-3.55,9.37,9.37,0,0,0-9.19-1.79,8.19,8.19,0,0,0-.86.36c-.28.14-.53.3-.79.45l-.39.22V70a3.22,3.22,0,0,0-.81-2.1,5.07,5.07,0,0,0-1.85-1.32,6.83,6.83,0,0,0-4.29-.32c-2.76.63-5.1,1.89-7.31,2.15a7.06,7.06,0,0,1-5-1,3.89,3.89,0,0,1-1-1,1.83,1.83,0,0,1-.22-.43,5.46,5.46,0,0,0,1.31,1.27,7,7,0,0,0,4.83.81,16.94,16.94,0,0,0,3.36-1,29.74,29.74,0,0,1,3.9-1.28,8.38,8.38,0,0,1,2.26-.23,6.82,6.82,0,0,1,2.33.54,5.64,5.64,0,0,1,2,1.44,3.78,3.78,0,0,1,.94,2.44l-.4-.22c.27-.15.54-.32.84-.48s.6-.28.92-.38a9.82,9.82,0,0,1,9.69,1.92,8.34,8.34,0,0,1,2.37,3.78,9.53,9.53,0,0,1,.32,3.88,9.33,9.33,0,0,1-2.23,5.09,6.35,6.35,0,0,1-1.11,1C441.83,84.86,441.68,85,441.67,84.94Z" transform="translate(-33.51 -23.07)" fill="#455a64"/><path d="M440.36,62.33a7.83,7.83,0,0,0-2.07-.71,5.48,5.48,0,0,0-2.47.23,4.8,4.8,0,0,0-2.53,1.84L433,64l-.15-.4a7.53,7.53,0,0,0-6.1-4.53,9.72,9.72,0,0,0-5.86,1.7,25.89,25.89,0,0,1-4.65,2.4,7.36,7.36,0,0,1-3.52.42,5.37,5.37,0,0,1-.93-.26c-.2-.09-.3-.14-.3-.16s.45.13,1.26.21a7.68,7.68,0,0,0,3.37-.55,28.83,28.83,0,0,0,4.53-2.48,17.35,17.35,0,0,1,2.8-1.37,7.71,7.71,0,0,1,9.82,4.46l-.39,0a5.25,5.25,0,0,1,2.8-1.94,5.64,5.64,0,0,1,2.61-.13,4.75,4.75,0,0,1,1.57.6A2,2,0,0,1,440.36,62.33Z" transform="translate(-33.51 -23.07)" fill="#455a64"/><path d="M427.19,96.87a2.16,2.16,0,0,0-1.75-.51,2.59,2.59,0,0,0-1.69,1.23s0,0,0,0l-.06.08,0,0a1.22,1.22,0,0,0-.19.76,1.79,1.79,0,0,0,1,1.35,2.3,2.3,0,0,0,2.62-.38A1.87,1.87,0,0,0,427.19,96.87Z" transform="translate(-33.51 -23.07)" fill="#e8505b"/><path d="M427.69,100c-.07,0-.17-.29-.44-.71A3.11,3.11,0,0,0,424,97.79c-.49.07-.79.21-.83.14s.21-.31.74-.5a3,3,0,0,1,2.16.12,2.93,2.93,0,0,1,1.5,1.55C427.79,99.62,427.76,100,427.69,100Z" transform="translate(-33.51 -23.07)" fill="#263238"/><path d="M407.28,101.22c.05,0,.29.5-.09,1.26a2,2,0,0,1-3.78-.75,2.1,2.1,0,0,1,.41-1.38c.52-.66,1.11-.68,1.1-.62s-.44.23-.79.83a1.78,1.78,0,0,0-.24,1.12,1.6,1.6,0,0,0,.75,1.11,1.65,1.65,0,0,0,1.33.2,1.82,1.82,0,0,0,.91-.7C407.27,101.71,407.2,101.22,407.28,101.22Z" transform="translate(-33.51 -23.07)" fill="#e8505b"/><path d="M403.91,100.83s0,.34-.47.56a1.24,1.24,0,0,1-.83.08,1.32,1.32,0,0,1-.82-.65,1.28,1.28,0,0,1-.09-1,1.21,1.21,0,0,1,.52-.65c.41-.25.73-.15.72-.09s-.25.13-.5.38a1,1,0,0,0,.88,1.62C403.66,101,403.84,100.79,403.91,100.83Z" transform="translate(-33.51 -23.07)" fill="#e8505b"/><path d="M414.9,189.64s24.76,1.44,39.4,1.58c11.33.1,16.39-2.91,18.65-10.19,1.91-6.12-2.18-17.85-2.18-17.85-7.67,0-12.4,1.1-17.33,3.41l1.31,5.36-39.92,3.44Z" transform="translate(-33.51 -23.07)" fill="#ffbe9d"/><path d="M463.08,177.67a20.57,20.57,0,0,0-3.74-3.71,19.6,19.6,0,0,0-4.82-2.12,3.49,3.49,0,0,1,1.59.14,10.56,10.56,0,0,1,6.26,4.27A3.73,3.73,0,0,1,463.08,177.67Z" transform="translate(-33.51 -23.07)" fill="#eb996e"/><path d="M405.84,166.55h0s-7.66,1.84-13.28,5.6l6,16.27c2,5.33,8.11,8,13,5.19,7.53-4.31,10.19-16.87,10.19-16.87L430,140.86l-13.71-8.59-10.41,34.28" transform="translate(-33.51 -23.07)" fill="#ffbe9d"/><path d="M416.25,132.27l.56-11.8-3.06-12c-.17-.66-.26-1.48.28-1.89a1.46,1.46,0,0,1,1.85.06c.83.86,4.83,11.35,4.83,11.35s6.07-3.64,7.15-3.82,2.44,3.09,2.52,3.35a20.14,20.14,0,0,1,0,2.19s3.75.11,4.09.63a13.1,13.1,0,0,1,.43,3.18s1.59.51,1.84,1.71.77,3.18,0,3.62-2.33,1.3-2.33,1.3-.63,6.12-.8,6.68-3.68,4-3.68,4Z" transform="translate(-33.51 -23.07)" fill="#ffbe9d"/><path d="M403.5,193.85s.38.22,1.15.47a7.82,7.82,0,0,0,3.54.28,9.85,9.85,0,0,0,5.11-2.36,23.55,23.55,0,0,0,4.76-6,27,27,0,0,0,1.86-4.13,41.7,41.7,0,0,0,1.28-4.79c.78-3.37,1.63-7,2.53-10.86,1.8-7.71,3.82-16.33,6-25.62l0-.07.05-.05c.69-.68,1.38-1.37,2.07-2.09.34-.35.68-.72,1-1.09.15-.19.32-.38.45-.57s.12-.36.17-.61c.27-2,.48-4.07.7-6.16V130l.12-.06,1.91-1.07c.14-.09.36-.19.45-.27a.52.52,0,0,0,.18-.33,3.28,3.28,0,0,0,0-1,15.17,15.17,0,0,0-.45-2.17,2.62,2.62,0,0,0-1.59-1.28l-.17-.07v-.17c0-.58-.06-1.18-.13-1.77a8.1,8.1,0,0,0-.13-.88,2.07,2.07,0,0,0-.11-.37c0-.06,0,0-.07-.06a1.26,1.26,0,0,0-.16-.07,18.09,18.09,0,0,0-3.67-.41h-.26v-.26c0-.62.05-1.31,0-2a2.1,2.1,0,0,0-.24-.67c-.1-.24-.22-.47-.34-.71a8.85,8.85,0,0,0-.82-1.32,2.37,2.37,0,0,0-.5-.5.5.5,0,0,0-.54-.06,13.54,13.54,0,0,0-1.41.65c-1.86,1-3.68,2-5.45,3.09l-.27.15-.11-.28c-.94-2.37-1.88-4.71-2.8-7-.46-1.15-.91-2.3-1.37-3.43a1.4,1.4,0,0,0-1.1-1,1.11,1.11,0,0,0-1.3.48,1.16,1.16,0,0,0-.15.71c0,.22.14.56.21.83l.45,1.72c.3,1.15.6,2.28.89,3.4q.88,3.38,1.73,6.6v.08c-.2,4.1-.39,8-.57,11.79v.06L407.35,162l-2.57,8.25c-.3.93-.53,1.66-.69,2.17s-.26.73-.26.73.06-.26.19-.75l.63-2.18c.58-1.94,1.41-4.73,2.46-8.29,2.16-7.16,5.23-17.38,8.94-29.7v0q.25-5.62.53-11.8v.07q-.85-3.23-1.75-6.59l-.9-3.4-.45-1.72a6.75,6.75,0,0,1-.22-.91,1.66,1.66,0,0,1,.21-1,1.6,1.6,0,0,1,.81-.68,2.06,2.06,0,0,1,2,.44,2,2,0,0,1,.54.86c.46,1.13.91,2.28,1.38,3.43l2.8,7-.37-.13c1.79-1.06,3.6-2.12,5.49-3.11a14.39,14.39,0,0,1,1.48-.67,1,1,0,0,1,.5-.07,1,1,0,0,1,.48.19,2.62,2.62,0,0,1,.63.61,8.56,8.56,0,0,1,.87,1.4c.13.25.25.49.36.74a2.57,2.57,0,0,1,.28.85c0,.71,0,1.38,0,2l-.25-.27a17.77,17.77,0,0,1,3.82.44,1.83,1.83,0,0,1,.26.11.69.69,0,0,1,.25.26,2.17,2.17,0,0,1,.17.51c.07.32.1.63.14.93.07.61.11,1.21.13,1.81l-.18-.24a3.18,3.18,0,0,1,1.91,1.58,15.45,15.45,0,0,1,.48,2.32,3.53,3.53,0,0,1,0,1.21,1.13,1.13,0,0,1-.37.62,3.54,3.54,0,0,1-.51.3l-1.91,1.07.13-.19c-.23,2.09-.44,4.14-.72,6.17l-.06.39a1,1,0,0,1-.18.43,6.43,6.43,0,0,1-.5.62c-.33.38-.68.75-1,1.11-.7.72-1.39,1.41-2.08,2.09l.06-.12c-2.2,9.28-4.24,17.9-6.07,25.61-.91,3.85-1.77,7.48-2.57,10.84a41.25,41.25,0,0,1-1.33,4.82,26.21,26.21,0,0,1-1.9,4.17,23.62,23.62,0,0,1-4.87,6.06,10,10,0,0,1-5.25,2.34,7.8,7.8,0,0,1-3.59-.36,6,6,0,0,1-.85-.39A1.77,1.77,0,0,1,403.5,193.85Z" transform="translate(-33.51 -23.07)" fill="#eb996e"/><path d="M430.39,119.74c0,.07-.34.11-.87.13a10.05,10.05,0,0,0-2,.24,3.89,3.89,0,0,0-1.7.91c-.36.34-.52.63-.6.6s0-.39.33-.85a3.32,3.32,0,0,1,1.84-1.16,5.54,5.54,0,0,1,2.14-.1C430.07,119.58,430.39,119.67,430.39,119.74Z" transform="translate(-33.51 -23.07)" fill="#eb996e"/><path d="M427.46,119.85c-.14,0-.15-.36,0-.69s.33-.56.46-.51.15.36,0,.69S427.59,119.9,427.46,119.85Z" transform="translate(-33.51 -23.07)" fill="#eb996e"/><path d="M435.08,123.48a9.36,9.36,0,0,1-3,.41,2,2,0,0,0-1.65.8c-.27.4-.18.74-.26.76s-.32-.33-.07-.93a1.57,1.57,0,0,1,.71-.79,3,3,0,0,1,1.2-.36A8.3,8.3,0,0,1,435.08,123.48Z" transform="translate(-33.51 -23.07)" fill="#eb996e"/><path d="M434.41,127.08c.14,0,.23.74.18,1.65s-.19,1.63-.33,1.63-.23-.75-.19-1.66S434.26,127.07,434.41,127.08Z" transform="translate(-33.51 -23.07)" fill="#eb996e"/><path d="M438.57,154l.88-3.06a.85.85,0,0,1,1.41-.36l1.16,1.19.72-2.89a.84.84,0,0,1,1.57-.15l1.64,3.41Z" transform="translate(-33.51 -23.07)" fill="#e8505b"/><path d="M446,153.46a13.33,13.33,0,0,1-3.53,1.14,13.07,13.07,0,0,1-3.66.64,26.68,26.68,0,0,1,7.19-1.78Z" transform="translate(-33.51 -23.07)" fill="#e8505b"/><path d="M386.49,136.37s-.37.38-.89,1.19a10.06,10.06,0,0,0-1.35,3.77,26.74,26.74,0,0,0-.18,6c.11,2.27.29,4.75.57,7.35a128.79,128.79,0,0,0,2.11,13.22c.35,1.68.67,3,.9,4,.1.42.18.77.25,1.08s.08.37.08.37-.05-.12-.12-.36-.18-.66-.29-1.07c-.25-.93-.59-2.27-1-4a115.74,115.74,0,0,1-2.18-13.23c-.28-2.6-.45-5.09-.55-7.36a26.81,26.81,0,0,1,.22-6,10,10,0,0,1,1.44-3.8A5.8,5.8,0,0,1,386.49,136.37Z" transform="translate(-33.51 -23.07)" fill="#fff"/><path d="M407.54,122.77a1.09,1.09,0,0,1-.23.12l-.66.32c-.57.27-1.4.67-2.39,1.22a87.84,87.84,0,0,0-7.51,4.7c-2.86,2-5.39,3.82-7.24,5.14l-2.19,1.55-.61.42-.22.13a1.18,1.18,0,0,1,.2-.17l.58-.44,2.16-1.61c1.82-1.35,4.34-3.23,7.2-5.19a76.06,76.06,0,0,1,7.56-4.66c1-.53,1.84-.91,2.43-1.16l.68-.28A1.06,1.06,0,0,1,407.54,122.77Z" transform="translate(-33.51 -23.07)" fill="#fff"/><path d="M455.23,129.28l-.17-.13-.45-.39a18.68,18.68,0,0,0-1.75-1.31,36.22,36.22,0,0,0-6.43-3.25,64.68,64.68,0,0,0-6.85-2.28c-.89-.25-1.62-.43-2.12-.55l-.58-.15-.2-.07.21,0,.58.11c.51.1,1.25.26,2.14.49a55,55,0,0,1,6.9,2.23,32.88,32.88,0,0,1,6.43,3.32A12.42,12.42,0,0,1,455.23,129.28Z" transform="translate(-33.51 -23.07)" fill="#fff"/><path d="M407.82,205.61a1.53,1.53,0,0,1-.39-.13,8.61,8.61,0,0,1-1-.53,4.83,4.83,0,0,1-2.18-2.95,5.75,5.75,0,0,1,.39-3.66,5.33,5.33,0,0,1,.58-1c.16-.21.27-.31.28-.3a10.59,10.59,0,0,0-.72,1.33,5.85,5.85,0,0,0-.32,3.55,4.85,4.85,0,0,0,2,2.87C407.29,205.36,407.84,205.57,407.82,205.61Z" transform="translate(-33.51 -23.07)" fill="#fff"/><path d="M404.64,194.78a4.56,4.56,0,0,1,.47,1.26,4.62,4.62,0,0,1,.28,1.31,4.11,4.11,0,0,1-.48-1.25A4.37,4.37,0,0,1,404.64,194.78Z" transform="translate(-33.51 -23.07)" fill="#fff"/><path d="M418.16,419l30.5-.15-.55-105.46-.29-107.27-41.31-.52-7.42,14a50.16,50.16,0,0,0-5.72,18.14c-.52,4.85,3.11,20.65,4.38,24.67l11.37,36.07Z" transform="translate(-33.51 -23.07)" fill="#263238"/><path d="M456.77,206.25l33.52,91.37a42.14,42.14,0,0,1-4.13,35.7l-38.92,76L425.36,381.9l32.56-68-28.7-46.5,4.83-61,13.52-.22Z" transform="translate(-33.51 -23.07)" fill="#263238"/><path d="M445,236.86s0,.16,0,.47.05.79.08,1.38c.07,1.23.16,3,.28,5.29.23,4.63.55,11.28.95,19.49s.83,18,1.33,28.9c.24,5.44.5,11.15.77,17.07.19,3,.1,6,.13,9s0,6.16,0,9.3c0,25.13.08,47.88.11,64.38,0,8.21,0,14.87,0,19.5,0,2.29,0,4.07,0,5.31,0,.58,0,1,0,1.38s0,.47,0,.47,0-.16,0-.47l0-1.38c0-1.24,0-3-.06-5.31,0-4.63-.08-11.28-.14-19.5-.07-16.49-.16-39.24-.26-64.37q0-4.71,0-9.3c0-3.06.05-6.08-.14-9-.25-5.91-.5-11.62-.73-17.06-.46-10.88-.87-20.67-1.22-28.91s-.59-14.86-.78-19.49c-.08-2.28-.14-4.06-.18-5.3,0-.59,0-1,0-1.38S445,236.86,445,236.86Z" transform="translate(-33.51 -23.07)" fill="#263238"/><path d="M444.27,208.05a3.81,3.81,0,0,1,.22,1c.1.64.22,1.57.36,2.73.26,2.31.54,5.52.71,9.07s.16,6.77.11,9.1c0,1.16-.07,2.11-.12,2.76a3.38,3.38,0,0,1-.12,1,33.72,33.72,0,0,1-.13-3.76c0-2.32-.11-5.53-.26-9.07s-.39-6.75-.56-9.06A33.71,33.71,0,0,1,444.27,208.05Z" transform="translate(-33.51 -23.07)" fill="#263238"/><path d="M437.55,210.11c.06.07-.52.33-.67,1.14a1.27,1.27,0,0,0,.38,1.22,1.33,1.33,0,0,0,2.28-1,1.32,1.32,0,0,0-.67-1.09,2.43,2.43,0,0,0-1.31-.23s.1-.13.36-.21A1.7,1.7,0,0,1,439,210a1.66,1.66,0,0,1,1,1.4,1.79,1.79,0,0,1-3.09,1.41,1.66,1.66,0,0,1-.41-1.65,1.62,1.62,0,0,1,.64-.92C437.39,210.1,437.54,210.08,437.55,210.11Z" transform="translate(-33.51 -23.07)" fill="#263238"/><path d="M421.55,208.3a3,3,0,0,1,.27,1,9.11,9.11,0,0,1,.09,2.72,10.9,10.9,0,0,1-1.15,3.87,10.25,10.25,0,0,1-7.82,5.61,10.85,10.85,0,0,1-4-.15,9.44,9.44,0,0,1-2.54-.95,3.17,3.17,0,0,1-.82-.56A18.14,18.14,0,0,0,409,221a10.48,10.48,0,0,0,12.57-9A17.48,17.48,0,0,0,421.55,208.3Z" transform="translate(-33.51 -23.07)" fill="#455a64"/><path d="M460.79,217.06a4.15,4.15,0,0,1-1.92-.23,8.95,8.95,0,0,1-6.07-6.68,4,4,0,0,1,0-1.93c.1,0,.1.73.4,1.85a9.93,9.93,0,0,0,2.15,3.89,9.75,9.75,0,0,0,3.67,2.52C460.06,216.89,460.8,217,460.79,217.06Z" transform="translate(-33.51 -23.07)" fill="#263238"/><path d="M472.7,315.56a6.19,6.19,0,0,1-1.77,1.41,8.28,8.28,0,0,1-2.27,1,5.46,5.46,0,0,1-3.07-.08,8.94,8.94,0,0,1-4.28-3.4,8.22,8.22,0,0,1-1.17-1.92,11.62,11.62,0,0,1,1.46,1.69,9.54,9.54,0,0,0,4.15,3.14,6.43,6.43,0,0,0,5-.74A19.6,19.6,0,0,1,472.7,315.56Z" transform="translate(-33.51 -23.07)" fill="#263238"/><path d="M465.07,321.4a24.36,24.36,0,0,1-3.16-4,24.72,24.72,0,0,1-2.73-4.29,24.73,24.73,0,0,1,3.15,4A25.5,25.5,0,0,1,465.07,321.4Z" transform="translate(-33.51 -23.07)" fill="#263238"/><path d="M413.82,240.41c-.14.05-.49-.52-.8-1.29s-.44-1.42-.31-1.48.49.53.8,1.29S414,240.36,413.82,240.41Z" transform="translate(-33.51 -23.07)" fill="#263238"/><path d="M433.18,243.17c-.14,0-.26-.49-.26-1.1s.12-1.11.26-1.11.26.5.26,1.11S433.32,243.17,433.18,243.17Z" transform="translate(-33.51 -23.07)" fill="#263238"/><path d="M425.22,253.69c-.14,0-.3-.6-.35-1.37s0-1.39.16-1.4.31.6.36,1.37S425.37,253.68,425.22,253.69Z" transform="translate(-33.51 -23.07)" fill="#263238"/><path d="M410.68,261.43c-.12.09-.53-.28-1.07-.66s-1-.67-1-.81.67-.06,1.27.38S410.8,261.35,410.68,261.43Z" transform="translate(-33.51 -23.07)" fill="#263238"/><path d="M436.31,271.2c-.12-.08,0-.51.34-1s.65-.76.77-.69,0,.52-.34,1S436.43,271.28,436.31,271.2Z" transform="translate(-33.51 -23.07)" fill="#263238"/><path d="M420.46,274c-.15,0-.27-.83-.27-1.84s.12-1.85.27-1.85.26.83.26,1.85S420.6,274,420.46,274Z" transform="translate(-33.51 -23.07)" fill="#263238"/><path d="M415.31,285.19c-.08.11-.6-.12-1.16-.53s-.95-.83-.86-1,.6.12,1.16.53S415.4,285.07,415.31,285.19Z" transform="translate(-33.51 -23.07)" fill="#263238"/><path d="M431.34,289.09c.05.13-.27.4-.73.61s-.88.26-.93.13.26-.4.72-.61S431.28,289,431.34,289.09Z" transform="translate(-33.51 -23.07)" fill="#263238"/><path d="M420.46,307.35c-.13.06-.65-.71-1.16-1.73s-.82-1.9-.69-2,.65.71,1.16,1.73A4.41,4.41,0,0,1,420.46,307.35Z" transform="translate(-33.51 -23.07)" fill="#263238"/><path d="M438.16,305.69c-.13-.07.1-.74.51-1.51s.84-1.33,1-1.26-.1.74-.5,1.51S438.29,305.76,438.16,305.69Z" transform="translate(-33.51 -23.07)" fill="#263238"/><path d="M430.41,321.18c-.14,0-.13-.81-.29-1.75s-.39-1.69-.26-1.76.62.65.78,1.68S430.55,321.21,430.41,321.18Z" transform="translate(-33.51 -23.07)" fill="#263238"/><path d="M422.11,330c-.1.1-.6-.28-1.11-.84s-.84-1.09-.73-1.19.61.28,1.12.84S422.22,329.93,422.11,330Z" transform="translate(-33.51 -23.07)" fill="#263238"/><path d="M442.26,333.39c-.11-.1.26-.64.82-1.21s1.09-.94,1.19-.83-.27.64-.82,1.2S442.36,333.49,442.26,333.39Z" transform="translate(-33.51 -23.07)" fill="#263238"/><path d="M430.67,346.64c-.14,0-.14-.79,0-1.7s.36-1.65.51-1.63.14.78,0,1.7S430.81,346.66,430.67,346.64Z" transform="translate(-33.51 -23.07)" fill="#263238"/><path d="M422.88,353.07c-.13.07-.56-.45-1-1.15s-.65-1.35-.53-1.42.57.44,1,1.15S423,353,422.88,353.07Z" transform="translate(-33.51 -23.07)" fill="#263238"/><path d="M441.65,361.18c.09.12-.42.63-1.13,1.14s-1.36.83-1.45.71.43-.62,1.14-1.13S441.57,361.07,441.65,361.18Z" transform="translate(-33.51 -23.07)" fill="#263238"/><path d="M426,371.71c-.14,0,0-.85.13-1.85s.05-1.81.2-1.84.41.82.32,1.89S426.14,371.77,426,371.71Z" transform="translate(-33.51 -23.07)" fill="#263238"/><path d="M432.26,386.83c-.12.09-.54-.25-.94-.76s-.65-1-.54-1.09.54.25.94.76S432.37,386.74,432.26,386.83Z" transform="translate(-33.51 -23.07)" fill="#263238"/><path d="M425.43,397c-.11.08-.66-.51-1.22-1.33s-.92-1.54-.8-1.62.66.51,1.22,1.33S425.55,396.89,425.43,397Z" transform="translate(-33.51 -23.07)" fill="#263238"/><path d="M444.24,384.25c-.13-.06-.12-.43,0-.83s.38-.7.52-.65.12.42,0,.83S444.38,384.3,444.24,384.25Z" transform="translate(-33.51 -23.07)" fill="#263238"/><path d="M436,408.4c-.14-.07.11-.78.31-1.67s.27-1.64.42-1.65.3.8.09,1.76S436.07,408.47,436,408.4Z" transform="translate(-33.51 -23.07)" fill="#263238"/><path d="M441.34,253.85c-.13.06-.45-.34-.71-.9s-.37-1.06-.24-1.12.45.34.71.9S441.47,253.79,441.34,253.85Z" transform="translate(-33.51 -23.07)" fill="#263238"/><path d="M427.46,222.71c.08.12-.62.69-1.37,1.48s-1.26,1.54-1.39,1.47.21-1,1-1.82S427.39,222.59,427.46,222.71Z" transform="translate(-33.51 -23.07)" fill="#263238"/><path d="M439.82,222.34c-.15,0-.38-.57-.73-1.25s-.67-1.24-.56-1.33.65.34,1,1.09S440,222.31,439.82,222.34Z" transform="translate(-33.51 -23.07)" fill="#263238"/><path d="M401.32,232.5c-.13-.05,0-.72.31-1.48s.66-1.35.79-1.29,0,.71-.31,1.48S401.46,232.55,401.32,232.5Z" transform="translate(-33.51 -23.07)" fill="#263238"/><path d="M402.57,247.6c-.09.11-.66-.21-1.28-.72s-1-1-.94-1.12.67.21,1.28.72S402.66,247.49,402.57,247.6Z" transform="translate(-33.51 -23.07)" fill="#263238"/><path d="M427.83,210.72c-.13.05-.41-.32-.61-.83s-.26-1-.13-1,.41.31.61.82S428,210.67,427.83,210.72Z" transform="translate(-33.51 -23.07)" fill="#263238"/><path d="M452,218.1c-.14,0-.13-.63,0-1.34s.39-1.27.53-1.24.13.64,0,1.35S452.16,218.13,452,218.1Z" transform="translate(-33.51 -23.07)" fill="#263238"/><path d="M457.71,229.53c-.14-.06,0-.8.4-1.67s.75-1.52.89-1.47-.05.8-.41,1.67S457.84,229.58,457.71,229.53Z" transform="translate(-33.51 -23.07)" fill="#263238"/><path d="M453.65,238.75c-.13.06-.61-.63-1.06-1.54s-.73-1.72-.6-1.78.6.63,1.06,1.54S453.78,238.68,453.65,238.75Z" transform="translate(-33.51 -23.07)" fill="#263238"/><path d="M462.32,248c-.14-.05,0-.63.21-1.29s.57-1.16.71-1.11,0,.63-.22,1.29S462.45,248,462.32,248Z" transform="translate(-33.51 -23.07)" fill="#263238"/><path d="M454.57,257c-.12.07-.43-.2-.68-.6s-.36-.8-.24-.88.43.19.68.6S454.69,256.93,454.57,257Z" transform="translate(-33.51 -23.07)" fill="#263238"/><path d="M456.22,275.64c-.1.09-.72-.4-1.39-1.12s-1.11-1.37-1-1.47.72.41,1.39,1.12S456.33,275.54,456.22,275.64Z" transform="translate(-33.51 -23.07)" fill="#263238"/><path d="M466.37,264.93c-.11.09-.66-.41-1.22-1.13s-.92-1.36-.81-1.45.66.42,1.22,1.13S466.49,264.85,466.37,264.93Z" transform="translate(-33.51 -23.07)" fill="#263238"/><path d="M471.94,279.7c-.13-.06.1-.81.51-1.67s.84-1.52,1-1.46-.09.82-.5,1.68S472.07,279.77,471.94,279.7Z" transform="translate(-33.51 -23.07)" fill="#263238"/><path d="M460.1,291.86c-.12.07-.59-.48-1.23-1.07s-1.23-1-1.16-1.14.81.11,1.51.76S460.22,291.79,460.1,291.86Z" transform="translate(-33.51 -23.07)" fill="#263238"/><path d="M460.84,304.4c0,.14-.5.26-1.11.26s-1.1-.12-1.1-.26.49-.26,1.1-.26S460.84,304.25,460.84,304.4Z" transform="translate(-33.51 -23.07)" fill="#263238"/><path d="M473,300.89c-.13-.07.13-.7.32-1.48s.27-1.46.42-1.47.31.72.09,1.59S473.13,301,473,300.89Z" transform="translate(-33.51 -23.07)" fill="#263238"/><path d="M485.1,305.1c-.13,0-.5-.65-.82-1.57s-.47-1.69-.34-1.73.51.65.83,1.56S485.24,305.05,485.1,305.1Z" transform="translate(-33.51 -23.07)" fill="#263238"/><path d="M483.18,322.3c-.13-.07.18-.91.68-1.88s1-1.7,1.15-1.63-.18.91-.68,1.87S483.3,322.36,483.18,322.3Z" transform="translate(-33.51 -23.07)" fill="#263238"/><path d="M472.14,332.41c-.13,0-.54-.64-.92-1.55s-.57-1.69-.43-1.75.54.64.92,1.55S472.27,332.35,472.14,332.41Z" transform="translate(-33.51 -23.07)" fill="#263238"/><path d="M459.92,336.3c0,.14-.41.26-.92.26s-.93-.12-.93-.26.42-.26.93-.26S459.92,336.16,459.92,336.3Z" transform="translate(-33.51 -23.07)" fill="#263238"/><path d="M466.93,352.34c-.14,0-.42-.55-.62-1.31s-.26-1.42-.12-1.45.41.55.62,1.31S467.06,352.31,466.93,352.34Z" transform="translate(-33.51 -23.07)" fill="#263238"/><path d="M458.07,347c-.12-.08,0-.55.33-1.06s.66-.86.78-.79,0,.55-.33,1.06S458.2,347.07,458.07,347Z" transform="translate(-33.51 -23.07)" fill="#263238"/><path d="M457.89,364.7c-.14,0-.34-.67-.44-1.54s-.07-1.58.07-1.6.34.67.44,1.54S458,364.68,457.89,364.7Z" transform="translate(-33.51 -23.07)" fill="#263238"/><path d="M441.54,148.06a6.62,6.62,0,0,1,.51,1.85,2.82,2.82,0,0,1,0,1,1,1,0,0,1-.58.75,1,1,0,0,1-1-.1,3.17,3.17,0,0,1-.85-.78,6.51,6.51,0,0,1-.8-1.34,7.08,7.08,0,0,1-.61-1.89,3.07,3.07,0,0,1,0-1.17,1.07,1.07,0,0,1,.45-.72,1,1,0,0,1,1.1,0,3.13,3.13,0,0,1,.83.75A6.7,6.7,0,0,1,441.54,148.06Zm-1.1.38c-.36-.84-.72-1.68-1.07-2.53a.4.4,0,0,0-.13-.16.38.38,0,0,0-.47,0,.28.28,0,0,0-.08.38l0,.06,2,4.65c.05.13.1.25.16.37a.33.33,0,0,0,.16.19.38.38,0,0,0,.43-.06.33.33,0,0,0,.07-.4C441.16,150.13,440.8,149.29,440.44,148.44Z" transform="translate(-33.51 -23.07)" fill="#025fa4"/><path d="M438.78,154.86a.31.31,0,0,0,.45-.14.9.9,0,0,0,.06-.56,1,1,0,0,0-.28-.51,4.76,4.76,0,0,0-.46-.43,1.43,1.43,0,0,1-.41-.56q-1.15-2.72-2.3-5.44c0-.07-.07-.08-.13,0a.59.59,0,0,0-.14.06c-.08,0-.08,0-.13-.17h0l1.24-.52c.05,0,.07,0,.09,0l2.55,6a4.76,4.76,0,0,1,.36,1.29,1.59,1.59,0,0,1-.06.65.81.81,0,0,1-1.11.5.9.9,0,0,1-.5-.44.59.59,0,0,1,.47-.91.32.32,0,0,1,.14,0,.79.79,0,0,1,.41.5A.6.6,0,0,1,438.78,154.86Z" transform="translate(-33.51 -23.07)" fill="#025fa4"/><path d="M445.63,147.79c.17.42.35.83.52,1.24a.38.38,0,0,0,.54.19.93.93,0,0,0,.49-.68,2.8,2.8,0,0,0,0-1,5.78,5.78,0,0,0-.35-1.09c0-.06,0-.09,0-.1l.08,0s0,0,0,0a4.68,4.68,0,0,1,.48,2,1.2,1.2,0,0,1-.37.89,1,1,0,0,1-1.3.13,3.09,3.09,0,0,1-.87-.82,7.13,7.13,0,0,1-1-1.77,6.45,6.45,0,0,1-.45-1.67,3,3,0,0,1,0-.94,1.06,1.06,0,0,1,1.66-.7,2.61,2.61,0,0,1,.74.74,8.57,8.57,0,0,1,.83,1.55c0,.06,0,.07-.05.09l-1.52.62c-.07,0-.08,0,0,.13Zm-1.16-2.72.49,1.15c0,.05,0,.06.09,0l.53-.22c.05,0,.06,0,0-.1-.32-.74-.63-1.49-.95-2.24a.37.37,0,0,0-.49-.18.29.29,0,0,0-.17.45C444.16,144.34,444.32,144.7,444.47,145.07Z" transform="translate(-33.51 -23.07)" fill="#025fa4"/><path d="M443.18,147.2l1.17,2.77c0,.06.06.08.12,0l.08,0c.14-.05.16,0,.2.11s0,0,0,0l-.85.36-.63.25c-.08,0-.1,0-.14-.17.28-.11.3-.07.21-.26q-1.11-2.64-2.23-5.26c0-.07-.05-.1-.12-.06l-.1,0s-.08.06-.11,0a.69.69,0,0,1-.07-.15s0,0,.06,0l1.13-.47.07,0s.05,0,.06,0a.14.14,0,0,1,0,.06Z" transform="translate(-33.51 -23.07)" fill="#025fa4"/><path d="M436.1,144.69a.65.65,0,0,1-.37.86.67.67,0,0,1-.89-.34.68.68,0,0,1,1.26-.52Z" transform="translate(-33.51 -23.07)" fill="#025fa4"/><path d="M440.08,143a.68.68,0,0,1,.35-.87.7.7,0,0,1,.89.32.66.66,0,0,1-.35.88A.68.68,0,0,1,440.08,143Z" transform="translate(-33.51 -23.07)" fill="#025fa4"/><path d="M441.63,153.2c-.16-.37-.32-.74-.47-1.11,0-.05,0-.07-.1,0l-.18.07c-.07,0-.07,0,0,.11q.15.35.3.72a.51.51,0,0,0-.31-.06,1,1,0,0,0-.63.28.74.74,0,0,0,.1,1.16.87.87,0,0,0,.93-.05.73.73,0,0,0,.33-.42,1.12,1.12,0,0,1,.11.22A1.66,1.66,0,0,1,442,154,5.77,5.77,0,0,1,441.63,153.2Zm-.21.55a.51.51,0,0,1-.26.33.54.54,0,0,1-.61,0,.59.59,0,0,1-.24-.58.6.6,0,0,1,.79-.4.44.44,0,0,1,.24.31A.53.53,0,0,1,441.42,153.75Z" transform="translate(-33.51 -23.07)" fill="#5386ec"/><path d="M446.81,150.45a1.1,1.1,0,0,0-.86.37.62.62,0,0,0-.17.6.69.69,0,0,0,.75.59,1.82,1.82,0,0,0,.89-.35c.15-.1.12-.07,0-.19s-.05-.05-.09,0l-.18.12a1.22,1.22,0,0,1-.61.19.46.46,0,0,1-.38-.22s0-.07,0-.09l.55-.23h0l.56-.23s.06,0,0-.09A.66.66,0,0,0,446.81,150.45Zm.14.5-.4.17h0l-.41.17c-.05,0-.06,0-.07,0a.52.52,0,0,1,.25-.49.65.65,0,0,1,.3-.09.38.38,0,0,1,.36.19S447,150.93,447,151Z" transform="translate(-33.51 -23.07)" fill="#5386ec"/><path d="M445.34,151a1.69,1.69,0,0,1-.27.11c0,.42,0,.84,0,1.28l0,0c-.27-.28-.58-.53-.86-.8,0,0,0-.05-.09,0l-.23.09c-.09,0-.09,0,0,.09l1.07.91a.17.17,0,0,0,.21,0c.18-.06.22-.16.22-.39a4.47,4.47,0,0,1,.09-1.15C445.43,151,445.41,151,445.34,151Z" transform="translate(-33.51 -23.07)" fill="#5386ec"/><path d="M448.16,149.8h0a.59.59,0,0,0-.24.44l0-.05c0-.07,0-.17-.11-.2s-.14.05-.21.08-.07,0,0,.09a2.06,2.06,0,0,1,.12.26c.14.34.29.67.42,1l.25-.11c.06,0,.07,0,0-.1l-.27-.64a.42.42,0,0,1,.14-.52.52.52,0,0,1,.18-.1s.05,0,0-.05C448.38,149.71,448.33,149.69,448.16,149.8Z" transform="translate(-33.51 -23.07)" fill="#5386ec"/><path d="M442.8,152.09c0-.05,0-.06-.09,0a.61.61,0,0,0-.4.51l0-.05c0-.06,0-.16-.1-.18s-.2.11-.29.07a5.05,5.05,0,0,1,.24.53c.12.27.24.54.35.82l.24-.11c.06,0,.08,0,0-.11l-.27-.63a.44.44,0,0,1,.34-.62C442.89,152.23,442.82,152.16,442.8,152.09Z" transform="translate(-33.51 -23.07)" fill="#5386ec"/><path d="M443.39,151.81l-.22.08c-.05,0-.05.05,0,.09s.1.22.14.33l.37.87s0,.06.09,0a1.45,1.45,0,0,1,.22-.09s0,0,0-.07l-.51-1.22C443.45,151.79,443.43,151.79,443.39,151.81Z" transform="translate(-33.51 -23.07)" fill="#5386ec"/><path d="M443.18,151.63a.27.27,0,0,1-.12,0,.17.17,0,0,1-.14-.09.15.15,0,0,1,0-.17.31.31,0,0,1,.19-.09.15.15,0,0,1,.17.1.16.16,0,0,1-.07.19Z" transform="translate(-33.51 -23.07)" fill="#5386ec"/></svg>