<svg id="Capa_1" data-name="Capa 1" xmlns="http://www.w3.org/2000/svg" viewBox="0 0 512.69 505.9"><path d="M519.9,207.7c-1-3.8-4-6.1-8.3-6.2-1.1-.2-2.3-.4-3.5-.6l-.8-.2c-.5-.1-1-.2-1.6-.3-.8-.1-1.6-.3-2.4-.4l-24.9-3.6c-13.6-2-23.3-3.5-32.5-5-5.6-.9-11.2-1.7-16.6-2.5l-1.1-.2c-7.4-1-16.2-2.2-24.7-3.8-6.1-1-12.9-2-21.4-3.1l-3.7-.5c-6.4-.8-13-1.8-19.2-2.8-2.4-.4-4.7-.7-7.1-1.1s-4.6-.7-6.8-1c-2.3-5.1-4.8-10.3-7.1-15.3-1.3-2.7-2.5-5.3-3.8-8l-1.8-3.8c-2.6-5.5-5.3-11.1-7.9-16.6l-.2-.4c-2.7-5.6-5.4-11.3-8.1-17l-4.7-10c-4.7-10-9.6-20.2-14.4-30.4l-5.1-10.8c-.7-1.6-1.5-3.3-2.2-4.8-.5-1-1-2.1-1.5-3.2-.7-1.5-1.5-3.1-2.2-4.6s-1.5-3.1-2.2-4.7-1.5-3.2-2.3-4.9-1.5-3.2-2.3-4.9c-2.4-5.1-5-10.4-7.4-15.6a9.4,9.4,0,0,0-8.9-5.8h-.1a9.56,9.56,0,0,0-8.8,5.9c-1.7,3.7-3.4,7.3-5.1,10.9-.6,1.2-1.1,2.3-1.6,3.4s-1,2.2-1.6,3.4c-1.5,3.1-2.9,6.2-4.4,9.4s-2.9,6.2-4.4,9.3L230,73.2c-2.4,5.1-4.8,10.1-7.2,15.2s-4.7,10-7.1,15-4.8,10-7.1,15c-4,8.4-8,16.9-12,25.4-.8,1.6-1.5,3.2-2.2,4.7s-1.4,3.1-2.2,4.7c-.7,1.4-1.3,2.7-1.9,4.1s-1.2,2.7-1.9,4-1.1,2.3-1.7,3.5-1.1,2.3-1.6,3.5c-.8,1.6-1.5,3.2-2.2,4.7-.5,1.1-1,2.1-1.5,3.2a57.35,57.35,0,0,0-8,1.2,116.28,116.28,0,0,1-12.5,2.1l-8.2,1.1c-1.7.2-3.5.5-5.3.7s-3.6.5-5.3.7l-2.4.3c-4.4.6-9,1.2-13.4,2-8.3,1.3-15.5,2.4-23.6,3.6l-1.9.3c-14,2-25.1,3.6-35.5,5.3-5.1.9-10.6,1.7-16.2,2.4-3.4.4-6.9.9-10.3,1.4-4.2.6-8.4,1.3-12.6,1.9-3.3.5-6.5,1-9.7,1.5l-1.4.2a8.76,8.76,0,0,0-6.2,3.7,9.14,9.14,0,0,0-1.2,7.1,10.92,10.92,0,0,0,2.8,5c.3.4.7.7,1,1.1l.8.8.1.1c1.1,1.2,2.4,2.5,3.4,3.5,1.1,1.2,2.3,2.3,3.4,3.4.6.5,1.1,1.1,1.7,1.7l6.1,6.1c1.8,1.9,3.6,3.7,5.5,5.6s3.6,3.7,5.4,5.5c6.7,6.9,13.6,13.9,20.5,20.8,4.6,4.6,9.3,9.4,13.3,13.5l1.3,1.4,10.1,10.1c1.2,1.2,2.5,2.5,3.7,3.8s2.5,2.6,3.8,3.8c1.5,1.5,3,3,4.4,4.5s3,3,4.4,4.5c5.5,5.6,11.8,12,17.9,18,1.5,1.5,3,3,4.4,4.5,2.4,2.5,5,5.2,7.9,7.8.1.1.2.3.4.5l.3.3c-2.7,15.8-4.8,28.3-6.5,39.1-1.2,7-2.4,13.9-3.4,20.3-1.1,6.6-2.2,13.3-3.3,20-.7,4.6-1.5,9.2-2.3,13.7s-1.6,9.2-2.3,13.8l-3.5,21c-.9,5.5-1.8,11-2.7,16.4s-1.9,11-2.8,16.5c-.3,1.4-.5,2.8-.7,4.3s-.4,2.8-.7,4.2l-.6,3.8v1.1c0,1.2,0,4.9,3.1,7.4a7.9,7.9,0,0,0,7.9,1.1,13.82,13.82,0,0,0,2.4-1.1c2.1-1.3,4.3-2.5,6.7-3.8.9-.5,1.8-.9,2.6-1.4,1.9-1,3.9-2.1,6-3.2,4.3-2.4,8.6-4.8,12.9-7.1,2.5-1.4,5.1-2.8,7.6-4.2,1.2-.7,2.5-1.4,3.8-2.1s2.6-1.4,3.8-2.1l3.7-2c7.3-4,14.8-8.1,22-12.1l.4-.2c4.5-2.5,9.1-5,13.7-7.5s9.2-5,13.7-7.5l6.5-3.5c4.1-2.2,8.4-4.6,12.5-6.9l8.7-4.8c3.4-1.9,6.8-3.8,10.3-5.7,1.6-.9,3.2-1.7,4.8-2.6,2.9-1.6,5.7-3.1,8.5-4.7,2.4,1.4,5.1,2.9,8,4.4,1.8,1,3.8,2,5.6,3,2,1.1,4,2.2,6.1,3.3,4,2.2,8,4.4,11.9,6.6l9.9,5.4c3,1.7,6,3.4,9,5,2.5,1.4,5.1,2.8,7.7,4.2,3.2,1.8,6.6,3.6,9.8,5.5,8.4,4.7,17.3,9.6,26.3,14.5l1.7.9c3.6,1.9,7.2,3.9,10.8,5.9l6.6,3.6,8.7,4.8c1.7,1,3.4,1.9,5.2,2.8s3.4,1.8,5.1,2.8l1.2.7c5.1,2.8,10.4,5.7,15.4,8.5a9.86,9.86,0,0,0,4.9,1.4,9.41,9.41,0,0,0,4.3-1.1l.4-.2a8,8,0,0,0,3.4-8.7v-.3c-.3-1.7-.6-3.5-.9-5.3s-.6-3.6-.9-5.3c-.3-2-.7-4.1-1-6.1-.4-2.2-.7-4.4-1.1-6.6-.5-3-1-6-1.5-8.9s-1-5.9-1.5-8.9c-.6-3.7-1.3-7.5-1.9-11.2s-1.3-7.5-1.9-11.3c-.7-4.4-1.5-8.9-2.2-13.3s-1.5-8.9-2.2-13.4c-.6-3.5-1.2-7-1.7-10.4L406.5,400l-2.2-13.2c-2.8-17.5-5.9-35.3-8.2-48.8h0c4.2-4.1,8.3-8.3,12.3-12.4l3-3.1c3.2-3.4,6.6-6.7,9.8-9.9l3.2-3.2c2.1-2,4.2-4.1,6.2-6.1l.1-.1c2.9-2.8,5.7-5.6,8.6-8.6,1.2-1.3,2.5-2.6,3.8-3.9s2.6-2.6,3.8-3.9c2.2-2.2,4.5-4.5,6.7-6.8,3.4-3.4,6.8-6.9,10.3-10.3l2.7-2.7c.9-.9,1.7-1.8,2.7-2.7l4.3-4.3c.8-.7,1.5-1.5,2.2-2.2,3.5-3.3,6.9-6.8,10.2-10.2l2.3-2.4c1.1-1.1,2.2-2.2,3.3-3.4l3.3-3.3,7.3-7.3c3.4-3.4,7-7,10.5-10.6l.4-.4a15.93,15.93,0,0,0,1.3-1.3,39.67,39.67,0,0,1,2.9-2.9h0A8.16,8.16,0,0,0,519.9,207.7ZM273.5,57.5c.7,1.6,1.5,3.1,2.2,4.6.6,1.3,1.2,2.6,1.9,4l1.8,3.9,5.1,10.9c3.2,6.7,6.4,13.5,9.5,20.2s6.4,13.5,9.6,20.2c2.7,5.6,5.4,11.3,8.1,17s5.4,11.3,8.1,17l1.8,3.8c1.1,2.3,2.1,4.5,3.2,6.8,2.6,5.4,5.2,11,7.7,16.5a12.61,12.61,0,0,0,10.3,7.7c3.4.4,6.9,1,10.2,1.5l3.8.6c7,1.1,13.6,2.1,19.5,2.9l3.8.5c5.3.7,13.1,1.7,20.8,3.1,8.6,1.5,17.2,2.7,25.2,3.8,5.9.8,11.9,1.7,17.4,2.6,10.8,1.8,22.1,3.5,32.8,5l10.5,1.5c4.2.6,8.4,1.2,12.7,1.9-2.6,2.6-5.2,5.3-7.8,7.8l-7.4,7.4c-1.1,1.1-2.2,2.3-3.3,3.4s-2.2,2.3-3.3,3.4c-3.9,4-8,8.2-12.1,12.2-2.3,2.2-4.6,4.5-6.8,6.7l-.1.1c-1.7,1.8-3.3,3.5-5.1,5.2-4.4,4.3-8.8,8.8-13,13.1-1.4,1.4-2.7,2.8-4.1,4.2-1.2,1.3-2.5,2.6-3.8,3.9s-2.6,2.6-3.8,3.9c-2.8,2.9-5.6,5.7-8.4,8.5-1.3,1.4-2.6,2.7-4,4l-2.1,2.1c-2.1,2.2-4.3,4.4-6.5,6.6l-6.7,6.7-3,3.1c-4.7,4.9-8.5,8.7-12,12.1a12.66,12.66,0,0,0-4.1,12.4c3.2,18.7,5.9,34.6,8.2,48.7l2.2,13.2c.6,3.5,1.2,7,1.7,10.4s1.2,7,1.7,10.4c1.4,8.9,2.9,17.9,4.4,26.7.6,3.7,1.3,7.5,1.9,11.2s1.3,7.5,1.9,11.3c.5,3,1,6,1.5,8.9s1,5.9,1.5,8.9c.3,2,.7,4.1,1,6.1s.7,4.1,1,6.1c-2.3-1.3-4.6-2.5-7-3.8-1.7-1-3.4-1.9-5.1-2.8s-3.4-1.8-5.1-2.8l-8.7-4.8c-3.8-2.1-7.7-4.3-11.6-6.4-1.9-1.1-3.9-2.1-5.8-3.2l-7.7-4.2c-6.6-3.6-13.4-7.3-20.1-11.1-3.8-2.2-7.8-4.3-11.6-6.4-2-1.1-4-2.2-6.1-3.3-2.9-1.6-6-3.2-9-4.9l-9.9-5.4c-6.1-3.3-12.4-6.8-17.8-9.9-1.5-.9-3-1.6-4.4-2.4l-3.1-1.6c-2.7-1.4-5.3-2.8-7.6-4.3a8.67,8.67,0,0,0-5-1.6,9.76,9.76,0,0,0-4.4,1l-.2.1c-1,.5-1.9,1.1-2.8,1.6-2.7,1.5-5.2,2.9-7.8,4.3-5,2.7-10.2,5.6-15.2,8.4-4.4,2.5-8.9,4.9-13.4,7.4-2.6,1.4-5.2,2.8-7.7,4.2l-6.5,3.5c-6.7,3.8-13.5,7.5-20.2,11.1-2.4,1.3-4.8,2.6-7.2,4-7.4,4.1-15,8.3-22.4,12.3l-3.7,2c-1.3.7-2.5,1.4-3.8,2.1s-2.5,1.4-3.7,2.1c-6.7,3.6-13.8,7.6-20.6,11.3-1.9,1.1-3.8,2.1-5.6,3-.1.1-.3.1-.4.2.1-.3.1-.7.2-1,.9-5.5,1.8-11,2.8-16.5l2.7-16.5,3.5-21c.7-4.1,1.4-8.3,2.1-12.4.8-5,1.7-10.1,2.5-15.1,1.1-6.6,2.2-13.3,3.3-20,1.2-7,2.4-13.9,3.4-20.3,1.9-11.6,4.1-24.7,6.7-40v-.2c.2-1.6.9-6.4-3.1-10.1l-.6-.6-.3-.3a5.31,5.31,0,0,0-1.3-1.3c-2.5-2.2-4.8-4.6-7.3-7.2-1.5-1.6-3.1-3.3-4.7-4.8-6.1-6-12.3-12.3-17.7-17.8l-.2-.3c-3-3.1-5.8-5.9-8.7-8.9L93.6,280c-3.2-3.3-6.6-6.7-9.9-10l-1.3-1.4c-4.4-4.5-9-9.1-13.5-13.6-5.2-5.1-10.5-10.5-15.5-15.6-1.7-1.7-3.3-3.4-4.9-5-1.8-1.9-3.6-3.7-5.5-5.6s-3.6-3.7-5.5-5.6l-2.1-2.1L31.3,217l-4.1-4.1,14-2.1c1.7-.2,3.4-.5,5-.7s3.4-.5,5-.7c5.9-.8,11.5-1.6,16.6-2.4,11.6-1.9,23.3-3.7,37.1-5.6,7.2-1.1,14.4-2.1,23.7-3.7,5.9-.9,11-1.7,15.4-2.3,1.8-.3,3.6-.5,5.4-.8s3.5-.5,5.4-.8,4.2-.6,6.3-.9h.2c.9-.1,1.8-.3,2.7-.4,4.2-.6,8.4-1.2,12.6-2.2a47.9,47.9,0,0,1,7.7-1,10.45,10.45,0,0,0,9.1-6.5c1.4-3.1,2.9-6.2,4.4-9.3,1.1-2.3,2.2-4.6,3.3-7,.7-1.4,1.3-2.7,1.9-4.1s1.2-2.7,1.9-4l1.5-3.3c.9-2,1.9-4,2.8-6.1,4-8.4,8-16.9,12-25.4,2.3-5,4.7-10,7.1-15s4.8-10,7.1-15,4.8-10.1,7.2-15.2l7.2-15.3c1.5-3.1,2.9-6.2,4.4-9.4s2.9-6.2,4.4-9.3c.6-1.2,1.1-2.3,1.6-3.4s1-2.2,1.6-3.4v-.1c.4-1,.9-2,1.4-3,1.2,2.6,2.4,5.2,3.6,7.7l.1.1c.8,1.6,1.5,3.2,2.3,4.9s1.5,3.2,2.3,4.9A23.65,23.65,0,0,0,273.5,57.5Z" transform="translate(-7.46 -15.6)" fill="#feb536"/></svg>