<svg id="Capa_1" data-name="Capa 1" xmlns="http://www.w3.org/2000/svg" viewBox="0 0 245.58 219.38"><path d="M76,97.23c-.09-7.9,2.22-15,4.36-22.07A86.81,86.81,0,0,1,89.91,54.4,85.11,85.11,0,0,1,111,31.25a91,91,0,0,1,19.25-11.2,111,111,0,0,1,17.52-5.58,114.26,114.26,0,0,1,18.08-2.78,112.61,112.61,0,0,1,18.27.15,79.73,79.73,0,0,1,19.27,4,70.52,70.52,0,0,1,19.82,10.52,73.32,73.32,0,0,1,14.62,14.8,84.69,84.69,0,0,1,10,17.12c3.37,7.76,6.33,15.68,7.32,24.61a48.37,48.37,0,0,1-1.58,20.25,47.32,47.32,0,0,1-8.18,15.75c-3.73,4.52-8.16,7.64-12.75,10.47-5.86,3.62-11.38,8-15.76,14.57-3.06,4.62-5.53,9.63-6.24,15.66-.81,6.8-.58,13.58,1.83,20.06,1.32,3.54,1.76,7.56,2.24,11.49a57.58,57.58,0,0,1-.68,20.12,32.37,32.37,0,0,1-7.6,14.63,12.63,12.63,0,0,1-10,4.59c-27.22-.13-54.43,0-81.64.06-.63,0-1.25,0-1.87,0-.46-6.16,2.38-10.12,5.51-13.5,2.39-2.58,4.52-5.53,8.57-4.53a172.76,172.76,0,0,0,31.68,4.37c4.41.26,8.82.29,13.13-1.32A3.62,3.62,0,0,0,174,212.6a60.7,60.7,0,0,0,1.19-8.17c.19-1.88.92-3.54.85-5.49-.23-6.86.65-13.69.39-20.56-.07-1.69,0-3.19,1.25-4.31a4.41,4.41,0,0,0,1-3.59c-.16-1.89-.44-3.76-.55-5.66-.16-2.87-1.07-4.77-3.3-5.4a3.18,3.18,0,0,1-1.85-1.53c-.26-2.85-.92-5.57-1.42-8.34-.9-5-1.41-10.05-2.06-15.09-.39-3,.51-5,2.61-6.28,2.38-1.48,4.93-2.22,7.4-3.3,2.11-.92,4.36-1.52,5.44-4.61a1.07,1.07,0,0,1,1.09-.77c1.86,0,3.68-.65,5.56-.57,3.19.15,5.72-1.75,7.8-4.84,1.27,0,2.63-.36,3.43,1.61.19.48.7.58,1.15.69,1.77.41,3.52,1,5.3,1.31a61.34,61.34,0,0,0,13.72,1.14c-.44-.65-.66-1-.91-1.36-1.78-2.33-1.79-2.33.42-4.11a3.08,3.08,0,0,0,1.59-2.76,109.81,109.81,0,0,1,.75-16.74c.44-3.24-.18-5.3-2.44-6.56-.92-.51-.69-1.17,0-1.72a3.5,3.5,0,0,1,1-.53c.48-.16.57-.61.5-1.12s-.49-.38-.76-.38a119.48,119.48,0,0,0-18.23.74c-.68.09-1.58.1-1.83,1.3-.31,1.46-1.06,1.54-2,1.35-2.32-.48-4.64-1.19-7-.73a14.31,14.31,0,0,1-5.48-.38c-3-.58-6-1.3-8.63,1.81-1.75,2-3.75.72-4-2.49a13.35,13.35,0,0,0,7.36-4.73c2-2.29,2.59-6.76.94-9.38-1.45-2.3-2.41-5-3.73-7.34a7.64,7.64,0,0,0-1.12-1.6c-3.47-3.69-7.46-3.63-11.43-2.51-3.54,1-7.1,2.24-10.25,4.83-1.45-5.39-4.72-8.52-8-11.79a30,30,0,0,0-14.23-8.08c-12.31-3-23.23.7-32.37,12.67-4.24,5.55-7,12.22-8.92,19.48-1.78,6.85-3.81,12.92-8.88,16.74A16.83,16.83,0,0,1,76,97.23Z" transform="translate(-9.93 -11.39)" fill="#5386ec"/><path d="M76,97.23a16.83,16.83,0,0,0,9.23-3.78c5.07-3.82,7.1-9.89,8.88-16.74,1.88-7.26,4.68-13.93,8.92-19.48,9.14-12,20.06-15.71,32.37-12.67a30,30,0,0,1,14.23,8.08c3.27,3.27,6.54,6.4,8,11.8a33.93,33.93,0,0,1-.22,13.69c-.37,1.57-.77,2.45-2.31,2.13-2.81-.59-5.12.63-7,3.75a18.86,18.86,0,0,1-8.82,7.8,32.51,32.51,0,0,1-14.34,2.25,5,5,0,0,1-4.38-2.53,3.84,3.84,0,0,0-5.3-1.29c-1.87.92-2.11,3-2.3,5.15-.46,5.33.89,9.73,4,13.13.91,1,.82,1.67.19,2.78a8.42,8.42,0,0,1-6.66,4.71c-4.61.48-8.56,6.6-9.46,11.89a12.59,12.59,0,0,0-.93,4.74c-.25,7.34-.54,14.68-.79,22-.16,4.67-1.39,8.75-4.22,11.56-6.27,6.24-13.63,8.83-21.17,10.68-3.1.76-6.23,1.31-9.35,2-1.79.1-3.58.16-5.37.31-5.65.46-11.27.48-16.78-1.68A41.82,41.82,0,0,1,30.25,170a42.49,42.49,0,0,1-6.05-6.41,65.75,65.75,0,0,1-10-17.53A58.87,58.87,0,0,1,13,105.55c2.32-7.11,5.87-13.34,11.22-17.1,5.11-3.59,10.53-4,16.14-2.32,3.86,1.15,7.25,3.79,10.89,5.61,7.45,3.72,15.07,6.2,23.08,6C74.88,97.67,75.51,97.85,76,97.23Z" transform="translate(-9.93 -11.39)" fill="#030702"/><path d="M64.51,178.86c3.12-.65,6.25-1.2,9.35-2,7.54-1.85,14.9-4.44,21.17-10.68,2.83-2.81,4.06-6.89,4.22-11.56.25-7.34.54-14.68.79-22a12.59,12.59,0,0,1,.93-4.74l17.67,15.41c1.87,1.75,3.84,3.35,4.87,6.25.39,1.91.86,3.8,1.14,5.74a3.06,3.06,0,0,0,1.53,2.55c2.29,1.2,4,3.53,6,5.37,5,4.65,9.73,9.63,14.65,14.34,1.31,1.25,2.61,2.5,3.9,3.78.86.85,1.62,1.32,1.82-.79.26-2.86,1.32-5.21.21-8.67-1.95-6.07.25-11.12,4.86-13.85a28.48,28.48,0,0,1,9.35-1.81c2.11.05,3.93,1.33,5.93,1.67a3.23,3.23,0,0,0,1.86,1.53c2.23.63,3.14,2.53,3.3,5.4.11,1.9.39,3.77.55,5.66a4.41,4.41,0,0,1-1,3.59c-1.23,1.12-1.32,2.62-1.25,4.31.26,6.87-.62,13.7-.39,20.56.07,1.95-.66,3.61-.85,5.49A60.7,60.7,0,0,1,174,212.6a3.62,3.62,0,0,1-2.23,2.94c-4.31,1.61-8.72,1.58-13.13,1.32a172.76,172.76,0,0,1-31.68-4.37c-4-1-6.18,1.95-8.57,4.53-3.13,3.38-6,7.34-5.51,13.5l-68.92.16a6.34,6.34,0,0,1-.75-.07c0-.73.49-.89.81-1.23a82.72,82.72,0,0,0,12.47-16.74,59.24,59.24,0,0,0,6.9-20.75C64,187.61,64.14,183.21,64.51,178.86Z" transform="translate(-9.93 -11.39)" fill="#af340e"/><path d="M64.51,178.86c-.37,4.35-.53,8.75-1.17,13a59.24,59.24,0,0,1-6.9,20.75A82.72,82.72,0,0,1,44,229.38c-.32.34-.81.5-.81,1.23-7.28,0-14.56.09-21.84.16-1,0-1.43-.62-1.43-2,0-7.11.32-14.2,1-21.26A184.69,184.69,0,0,1,24.8,184c1-4.46,2.82-8.57,4.28-12.84.22-.65.73-.86,1.17-1.15a41.82,41.82,0,0,0,12.11,7.47c5.51,2.16,11.13,2.14,16.78,1.68C60.93,179,62.72,179,64.51,178.86Z" transform="translate(-9.93 -11.39)" fill="#5386ec"/><path d="M118.64,143.31,101,127.9c.9-5.29,4.85-11.41,9.46-11.89a8.42,8.42,0,0,0,6.66-4.71c.63-1.11.72-1.77-.19-2.78-3.07-3.4-4.42-7.8-4-13.13.19-2.19.43-4.23,2.3-5.15a3.84,3.84,0,0,1,5.3,1.29,5,5,0,0,0,4.38,2.53,32.51,32.51,0,0,0,14.34-2.25,18.86,18.86,0,0,0,8.82-7.8c1.91-3.12,4.22-4.34,7-3.75,1.54.32,1.94-.56,2.31-2.13a33.93,33.93,0,0,0,.22-13.69c3.15-2.6,6.71-3.83,10.25-4.84,4-1.12,8-1.18,11.43,2.51a7.64,7.64,0,0,1,1.12,1.6c1.32,2.37,2.28,5,3.73,7.34,1.65,2.62,1.05,7.09-.94,9.38a13.35,13.35,0,0,1-7.36,4.73c-.57-1.08-1.34-1.93-.34-3.52.68-1.09,1.12-2.85-.66-3.57-.43-.18-.49-.85-.65-1.4a27.74,27.74,0,0,1-.47-4.16c-.17-1.36-.12-3.22-1.65-3.31-3.55-.21-7.1-.29-10.64-.38-1.18,0-2,.74-1.77,2.41.34,2.65-1.42,5.43.32,8,.12.18,0,.64,0,1a27.12,27.12,0,0,1-.42,5.41c-.44.19-.89.61-1.31.54-1.6-.27-1.25.94-1,2.13l.14,1.93-.07.2.1.18c-.05,4.93.27,9.88-.23,14.79a56.15,56.15,0,0,1-4.42,20.13c-1.81,4.23-4.12,7.84-8.33,7.55-1.49-.1-3-.1-4.46-.15a44.34,44.34,0,0,1-6-3.24,1.19,1.19,0,0,0-1.07-.1c-5.14,2.38-9.9,5.51-13.05,11.78C119.57,142.08,119.37,143,118.64,143.31Z" transform="translate(-9.93 -11.39)" fill="#fac6a9"/><path d="M157.43,90.2c0-.64-.09-1.29-.14-1.93.92-.65,2.58-.19,2.3-2.67a27.12,27.12,0,0,0,.42-5.41c0-.33.12-.79,0-1-1.74-2.56,0-5.34-.32-8-.21-1.67.59-2.44,1.77-2.41,3.54.09,7.09.17,10.64.38,1.53.09,1.48,2,1.65,3.31a27.74,27.74,0,0,0,.47,4.16c.16.55.22,1.22.65,1.4,1.78.72,1.34,2.48.66,3.57-1,1.59-.23,2.44.34,3.52.3,3.21,2.3,4.54,4,2.49,2.63-3.11,5.66-2.39,8.63-1.81a14.31,14.31,0,0,0,5.48.38c2.37-.46,4.69.25,7,.73.92.19,1.67.11,2-1.35.25-1.2,1.15-1.21,1.83-1.3a119.48,119.48,0,0,1,18.23-.74c.27,0,.68-.21.76.38s0,1-.5,1.12a3.5,3.5,0,0,0-1,.53c-.69.55-.92,1.21,0,1.72,2.26,1.26,2.88,3.32,2.44,6.56a109.81,109.81,0,0,0-.75,16.74,3.08,3.08,0,0,1-1.59,2.76c-2.21,1.78-2.2,1.78-.42,4.11.25.33.47.71.91,1.36a61.34,61.34,0,0,1-13.72-1.14c-1.78-.31-3.53-.9-5.3-1.31-.45-.11-1-.21-1.15-.69-.8-2-2.16-1.56-3.43-1.61-.67-1.2-1.7-.9-2.58-1-5.52-.4-11-.73-16.56-1.08-2-.12-2.29-.75-1.71-3.24,1.1-4.68,3.68-8.28,5.19-12.67.46-1.35.91-2.77.21-3.89s-1.88-2-3.31-1.32c-1.58.73-2.36,2.23-2.87,4.19a26.54,26.54,0,0,1-5.4,10.72c-2.72,3.17-6,5.41-8.25,9.4-.47.86-1.32.4-1.69,1.25a9.24,9.24,0,0,0-1.29,0c-2.52.39-3.79-1.69-3.6-4.82a19.33,19.33,0,0,0-.23-6.3c.5-4.92.18-9.87.23-14.8A1.2,1.2,0,0,0,157.43,90.2Zm6,1c-1.24,0-2.48,0-3.72,0-1,0-1.46.54-1.44,1.92,0,2.48.07,5,0,7.43,0,1.55.49,2,1.57,2,1.8-.06,3.6,0,5.4,0,3.88,0,3.35.42,3.37-4.52C168.66,91.2,168.65,91.2,163.45,91.2ZM161.15,77c-.1,5.83-.1,5.83,4,5.7h.19c1.22.06,1.84-.71,1.86-2.36a16.2,16.2,0,0,1,.52-4.31c.57-1.94-.29-3.84-1.61-4.22-4-1.15-4.87-.23-5,5.1Z" transform="translate(-9.93 -11.39)" fill="#151515"/><path d="M162.35,116.48c.37-.85,1.22-.39,1.69-1.25,2.2-4,5.53-6.23,8.25-9.4a26.54,26.54,0,0,0,5.4-10.72c.51-2,1.29-3.46,2.87-4.19,1.43-.67,2.53.08,3.31,1.32s.25,2.54-.21,3.89c-1.51,4.39-4.09,8-5.19,12.67-.58,2.49-.24,3.12,1.71,3.24,5.52.35,11,.68,16.56,1.08.88.07,1.91-.23,2.58,1-2.08,3.09-4.61,5-7.8,4.84-1.88-.08-3.7.52-5.56.57a1.07,1.07,0,0,0-1.09.77c-1.08,3.09-3.33,3.69-5.44,4.61-2.47,1.08-5,1.82-7.4,3.3-2.1,1.31-3,3.29-2.61,6.28.65,5,1.16,10.13,2.06,15.09.5,2.77,1.16,5.49,1.42,8.34-2-.34-3.83-1.62-5.94-1.67a28.48,28.48,0,0,0-9.35,1.81c-.14-7.79-.42-15.57-.36-23.35,0-5.28.45-10.57,3.31-14.85C161.23,118.82,162.29,118.09,162.35,116.48Z" transform="translate(-9.93 -11.39)" fill="#fac6a9"/><path d="M162.35,116.48c-.06,1.61-1.12,2.34-1.79,3.35-2.86,4.28-3.27,9.57-3.31,14.85-.06,7.78.22,15.56.36,23.35-4.61,2.73-6.81,7.78-4.86,13.85,1.11,3.46.05,5.81-.21,8.67-.2,2.11-1,1.64-1.82.79-1.29-1.28-2.59-2.53-3.9-3.78-4.92-4.71-9.7-9.69-14.65-14.34-2-1.84-3.7-4.17-6-5.37a3.06,3.06,0,0,1-1.53-2.55c-.28-1.94-.75-3.83-1.14-5.74.33-.19.65-.39,1-.56,3.62-1.78,7.11-3.68,10.15-7.13,2.28-2.6,3.48-6.1,5.37-9,1.49,0,3,0,4.46.15,4.21.29,6.52-3.32,8.33-7.55a56.15,56.15,0,0,0,4.42-20.13,19.4,19.4,0,0,1,.23,6.31c-.19,3.13,1.08,5.21,3.6,4.82A9.24,9.24,0,0,1,162.35,116.48Z" transform="translate(-9.93 -11.39)" fill="#5386ec"/><path d="M140,132.9c-1.89,2.87-3.09,6.37-5.37,9-3,3.45-6.53,5.35-10.15,7.13-.34.17-.66.37-1,.56-1-2.9-3-4.5-4.87-6.25.73-.31.93-1.23,1.3-2,3.15-6.27,7.91-9.4,13.05-11.78a1.19,1.19,0,0,1,1.07.1A44.34,44.34,0,0,0,140,132.9Z" transform="translate(-9.93 -11.39)" fill="#091007"/><path d="M159.59,85.6c.28,2.48-1.38,2-2.3,2.67-.26-1.19-.61-2.4,1-2.13C158.7,86.21,159.15,85.79,159.59,85.6Z" transform="translate(-9.93 -11.39)" fill="#073043"/><path d="M157.43,90.2a1.2,1.2,0,0,1,0,.38l-.1-.18Z" transform="translate(-9.93 -11.39)" fill="#073043"/><path d="M163.45,91.21c5.2,0,5.21,0,5.2,6.8,0,4.94.51,4.5-3.37,4.52-1.8,0-3.6,0-5.4,0-1.08,0-1.61-.46-1.57-2,.05-2.47,0-5,0-7.43,0-1.38.41-2,1.44-1.92C161,91.25,162.21,91.21,163.45,91.21Z" transform="translate(-9.93 -11.39)" fill="#1993b7"/><path d="M161.15,77v-.09c.09-5.33,1-6.25,5-5.1,1.32.38,2.18,2.28,1.61,4.22a16.2,16.2,0,0,0-.52,4.31c0,1.65-.64,2.42-1.86,2.36h-.19C161.05,82.84,161.05,82.84,161.15,77Z" transform="translate(-9.93 -11.39)" fill="#1993b7"/></svg>