<svg id="Capa_1" data-name="Capa 1" xmlns="http://www.w3.org/2000/svg" viewBox="0 0 546.06 385.71"><path d="M67.77,271.47c2.42-26.58.68-53.22,1-79.83.08-5.29.21-9.51,7.3-8.65,3.28.4,4.46-1.8,4.41-4.85,0-2.56-.65-5.36.18-7.61,1-2.8.41-8.13,7.1-5,3.92,1.87,5.14-3.18,5.34-6.49.31-5.1.1-10.23.09-15.35,0-4.17,1.17-7.18,6.2-6.7,3.64.35,4.14-1.91,4.11-4.84q-.14-10.25,0-20.48c0-2.41-.88-6.08,2.58-6.24,4.12-.2,2.34,3.74,2.42,5.85.24,6.81.24,13.65,0,20.47-.12,3.73.94,5.74,5,5.26,5.34-.64,6.59,2.53,6.54,7-.06,5.12-.16,10.25,0,15.36.13,3.33,0,6.54,5.65,5,3.47-.95,6.6,2.25,7,6.45a39,39,0,0,1,0,6.39c-.25,3.94,1.15,6.25,5.43,5.83,4.86-.47,6.28,1.89,6.2,6.45-.19,11.09-.05,22.18,0,33.27-.58,4.61,1.22,6.72,6.08,6.49,5.52-.27,11.08-.28,16.6,0,4.89.25,7-1.41,6.79-6.56-.34-6.81-.14-13.64-.18-20.46.36-2.71-1.21-6.59,3.9-6.41,10,0,20-.12,30,.16,4.36.12,6.07-1.14,5.92-5.74-.3-9.17.09-18.35-.15-27.52-.15-5.85,2.36-8,8-7.88,12.57.22,25.15.34,37.72,0,6-.18,8.3,1.53,8.15,7.88-.39,16.42-.3,32.86-.1,49.28.25,20.33-3.48,16.76,17.7,17.3,5,.13,6.72-1.71,6.67-6.7-.21-18.35-.09-36.7-.08-55.05a36.6,36.6,0,0,1,.17-5.74c.72-4.6,2.37-6.36,7.75-4.4,11,4,21.22,9.47,32,13.73,4.74,1.86,10.45,1.89,13.76,6.73a30.58,30.58,0,0,0-3.55,4.3c-2.38,4.17-8.28,5.9-7.15,12.64.93,5.6,4.91,8.14,8.15,11.61-.13,1.72-.17,3.79,1.64,4.33,6,1.8,7.06,7,8.62,11.89-.45,1.36-.9,2.72-1.36,4.08-2.47-.74-4,1.05-5.59,2.28-8.93,6.84-13.2,16.58-16.47,26.92q-20.67-.18-41.28,1.61c-12.41,1.06-24.54,3-35.7,8.92-7.65.45-14.27,4-20.69,7.56-11.93,6.71-24.1,13-35.83,20.1-8.49,5.14-17,10.18-25,16.07-14.33.91-28.2,3.88-42.24,7.1-21.07,4.83-40.51,13.11-59.8,22.25,0-20.45,0-40.91-.12-61.36C68.91,275.9,69.73,273.42,67.77,271.47Zm34.64-118.09h-.15c0,1.48,0,3,0,4.44,0,2.32.56,4.32,3.25,4.62s4.9-1.11,5.25-3.55a54.66,54.66,0,0,0,.16-11.37c-.16-2.29-2.2-2.84-4.28-2.82s-3.88.68-4.18,3A43.33,43.33,0,0,0,102.41,153.38Zm214.72,33.68h0c0-1.48,0-3,0-4.45.05-2.52-.15-4.59-3.57-4.68-3.61-.1-4.25,1.83-4.16,4.78.11,3.39,0,6.78.07,10.17,0,2.61,1.74,3,3.86,3s3.77-.57,3.76-3.14C317.12,190.87,317.13,189,317.13,187.06ZM150.85,255.22c0-1.48,0-2.95,0-4.43,0-2.55-.57-4.72-3.68-4.82s-4,1.79-4,4.48c0,3.16.06,6.33,0,9.49,0,2.58,1,3.89,3.7,3.9,2.52,0,4.07-.75,4-3.56C150.8,258.6,150.83,256.91,150.85,255.22Zm81.84-50.59v-3.18c0-2.68-.13-5.35-3.73-5.42s-4,2.44-3.93,5.21c0,2.12,0,4.24,0,6.36,0,2.78-.32,6,3.72,6.05s3.94-3,3.93-5.84Zm-127.88,28.9c0-2,0-3.47,0-4.95.09-2.59-.31-4.66-3.67-4.47-3,.17-4,1.89-4,4.59,0,1.26-.05,2.53,0,3.79.11,3.68-1,8.94,4.23,9C107,241.57,103.85,236,104.81,233.53Z" transform="translate(-28.28 -77.95)" fill="#d7d1fc"/><path d="M345.29,177.85c-3.31-4.84-9-4.87-13.76-6.73-10.82-4.26-21.08-9.76-32-13.73-5.38-2-7-.2-7.75,4.4a36.6,36.6,0,0,0-.17,5.74c0,18.35-.13,36.7.08,55.05.05,5-1.63,6.83-6.67,6.7-21.18-.54-17.45,3-17.7-17.3-.2-16.42-.29-32.86.1-49.28.15-6.35-2.13-8.06-8.15-7.88-12.57.38-25.15.26-37.72,0-5.69-.09-8.2,2-8,7.88.24,9.17-.15,18.35.15,27.52.15,4.6-1.56,5.86-5.92,5.74-10-.28-20-.13-30-.16.6-8,6.23-13.75,9.71-20.36,8.57-16.27,21-29.79,33.8-42.72,13.93-14.06,30.36-24.8,48-34,12.93-6.76,26.79-10.12,40.46-14.56,25.17-8.18,50.45-7.82,75.61-2,10.31,2.4,20.91,5.13,30.56,10,8.21,4.16,15,10.29,21.3,16.88,12.87,13.38,22.07,29.4,32.12,44.81a8,8,0,0,1,1.51,4.74,10.07,10.07,0,0,1-3-.86c-7.21-4.9-10.29-4.1-9.83,6.29.74,17.22-.76,34.45,1.12,51.71,1.34,12.23-.34,13.34-12.19,13.35-9.17,0-18.33-.07-27.5,0-18.48.19-17.68.65-17.8-17.84,0-7.74,1.9-15.8-2.21-23.19Q397.12,174.08,395,160c.14-2.25.29-4.51.43-6.77l3.68-4-4-3.14c.61-5.75-2.89-7.9-7.74-8.87-5.81,1.43-7.46,4.81-4.87,10l2.79,12.59c-.56,12.16,1.1,24.58-4.23,36.19l-15.34,0c-3.3-1.38-2.45-5.55-5-7.44.84-6.87-.07-8.1-6.67-7.91C350.73,180.69,347.49,181.12,345.29,177.85ZM308.8,121.68c-3.89-.15-6.67.14-8.36,2.83-2.42,3.87-5.78,5.36-10.27,4.86-2.24-.25-4.39.27-4.83,3-.47,2.92,1.74,3.45,3.73,4.88,4.69,3.37,10.38.62,14.63,2.93,10.05,5.46,19.9,1.33,29.78.41,4.43-.42,8.49-6.6,7.92-11-.74-5.58-4.26-6.93-9.49-6.83C323.86,123,315.73,123.8,308.8,121.68ZM439,148.74c2.24.17,4.22-.68,6.24-1.3,1.82-.55,4.64.59,4.84-2.72.16-2.47-1.48-3.83-3.41-4.9-5-2.74-9.87-5.55-14.91-8.14-3.14-1.61-6.77-2.1-9.69-.06a38.36,38.36,0,0,1-11.15,5.76,5.67,5.67,0,0,0-3.87,5.91c.17,2,1.94,2.59,3.77,2.64C420.24,146.19,429.85,144.79,439,148.74Zm-13.8,52.13c-2,.19-4.32-.15-6.12.7-2.67,1.26-5.24,3.29-4.46,6.91.48,2.22,2.49,4.64,4.37,3.74,6.3-3,11.6-1,17.55,1.2,3.67,1.36,7.53-1.24,8.44-5.73.57-2.8-.4-5.42-3.83-5.26C435.75,202.68,430.59,201.39,425.16,200.87ZM375.91,94.58c-3.86.17-6.47-.07-8.91.48-3.54.8-5.62,3.39-4.81,7s4.09,3.22,6.73,2.42c4.07-1.23,7.91-1.26,11.66.82,2,1.1,4.1.94,6.21.9,3.18,0,5.48-1.56,5.62-4.8a5,5,0,0,0-4.65-5.18C383.36,95.85,379.13,93.87,375.91,94.58Z" transform="translate(-28.28 -77.95)" fill="#edebfb"/><path d="M551.22,416.19c-1,5.32,1.59,9.35,5.53,12.07,5.5,3.81,3.62,6.69-.18,10-8.17,7.15-18.63,7.75-28.47,9.78-12.65,2.6-25.7,3.13-38.3,5.57-23.39,4.54-47,4.9-70.57,6.23-24,1.35-48,1.56-72,2.75-21.09,1-42.17,1.41-63.17.62-22.57-.85-45.12-.22-67.66-1.1-21.61-.84-43.2-2.37-64.79-3.8-8-.53-16.18-.85-24-2.62-22.41-5.08-45.78-5-67.66-12.79a20.07,20.07,0,0,1-4.64-2c-8-5.42-8.1-6.88-1.06-13.95.4-.4.41-1.18.61-1.78,3-.8,6-1.81,9.08-2.34,2.41-.41,4-1.09,3.67-3.88l37-.22c1.73,2.65,3.54,5.24,5.16,7.95,7.55,12.62,33,21.23,45.5,14.86,10.22-5.21,19.29-12,24.17-23,.85.05,1.7.15,2.55.15q79,0,158.08.14c2.76,0,6-1.57,8.25,1.53a63.6,63.6,0,0,1-.05,7.69c-.58,4.64,1.2,6.73,5.88,6.25a9.69,9.69,0,0,0-1.54,5.25c-2.91,2.89-6.9,3.82-10.39,5.64-1.67.88-3.92,1.63-3.15,4s3.14,1.38,4.93,1.3c4,.13,7.93.2,11.89.41s5.54-1.32,4.53-5.25c.19-3.94-4.44-1.18-5.23-3.75,6.39.68,5.38-3.77,5.27-7.59l1.28-.64c2.18-.27,2.46-1.84,2.65-3.64.4-3.76.93-7.52,1.41-11.28l23.73.23c.56,3,1.22,6,1.66,9.09.39,2.69.4,5.5,3.93,6.12l1.26,8.86c-1.34,7.44-1.06,7.85,6.06,7.87,3.8,0,7.6-.1,11.4-.21,1.41,0,3.25.49,3.87-1.3.74-2.14-1.34-2.74-2.55-3.81-3.16-2.81-7.91-2.67-10.81-5.92L404,432.5c5.05-3.58,1.75-9,3-13.46l6.07-.35c5.33,9.42,12.44,16.68,22.44,21.51a34.67,34.67,0,0,0,28.74.87A43.93,43.93,0,0,0,488,418.63c9,.75,18,0,26.27-3.52,9-3.84,18.68-5,28-7.55a25.92,25.92,0,0,0,7.54-3.16C550.63,408.29,548.7,412.5,551.22,416.19Z" transform="translate(-28.28 -77.95)" fill="#d5d1f9"/><path d="M399.25,188.19c4.11,7.39,2.16,15.45,2.21,23.19.12,18.49-.68,18,17.8,17.84,9.17-.09,18.33,0,27.5,0,11.85,0,13.53-1.12,12.19-13.35-1.88-17.26-.38-34.49-1.12-51.71-.46-10.39,2.62-11.19,9.83-6.29a10.07,10.07,0,0,0,3,.86c13.1,4.71,25.27,11.63,38.58,15.91,4.52,1.45,5,6.29,4.33,10.82-1,6.51-1.7,13,.55,19.44.6,6.39-.86,12.64-1.27,19-.24,3.74,1.42,5.47,5.24,5.38,6.37-.14,12.74-.08,19.11-.11,15.33.37,14-2.54,14,14.26,0,2.11,0,4.21,0,6.32-2.06,1.89-1.21,4.38-1.22,6.61-.06,25.47,0,50.93-.07,76.4,0,2.23.82,4.71-1.17,6.64a5.27,5.27,0,0,1-2.58-3c.27-7.94.29-15.83-5.14-22.47,0-3-.16-6,0-8.94.19-4.09-1.72-5.26-5.67-5.81-19.55-2.72-39.21-3.4-57.8-12.65a299.74,299.74,0,0,0-49.32-19.63c-11.26-3.28-21.87-9.19-34.11-8.62-.1-2.34-.38-4.68-.27-7C394.89,230.15,398.65,209.3,399.25,188.19Zm47.18,59.91h-.07c0,1.28,0,2.56,0,3.84-.05,2.78.37,5.17,3.89,5.4,3.78.25,4.76-2.25,4.95-5.23a83.32,83.32,0,0,0,0-8.94c-.11-2.63-1.81-3.65-4.29-3.65s-4.22.79-4.43,3.48C446.32,244.69,446.43,246.4,446.43,248.1Zm77.63,6.72c1.62,3.34-2.58,9.66,4,9.67,6.09,0,3.91-6,3.88-9.59,0-3.29,2.31-8.82-3.92-8.82C521.15,246.07,526,252.07,524.06,254.82ZM486,198c0-3.32,0-4.79,0-6.27,0-2.62-.74-4.67-3.82-4.68s-3.89,2-3.88,4.62c0,3,0,5.91,0,8.86,0,1.7.7,2.88,2.52,3,1.65.1,3.83.65,4.56-1.15A12,12,0,0,0,486,198Z" transform="translate(-28.28 -77.95)" fill="#d6d1fc"/><path d="M67.66,419c.35,2.79-1.26,3.47-3.67,3.88-3.07.53-6.06,1.54-9.08,2.34C38.12,406.69,33.11,383.52,29.35,360c-5.07-31.73,8.39-56.8,29.44-78.78,3.05-3.19,4.89-7.52,9-9.73,2,1.95,1.15,4.43,1.16,6.68.09,20.45.09,40.91.12,61.36-1.23,1.46-2.53,2.86-3.65,4.4-8.8,12-12.09,26.19-15.27,40.2C46.6,399.6,47.19,410.38,67.66,419Z" transform="translate(-28.28 -77.95)" fill="#ecebfb"/><path d="M548.77,339.35c2-1.93,1.16-4.41,1.17-6.64.06-25.47,0-50.93.07-76.4,0-2.23-.84-4.72,1.22-6.61,5.52,1.17,5.69,6.75,7.21,10.3,6.55,15.35,11.94,31.17,14.1,47.88,3.05,23.56,2.55,46.9-4,69.88-3.34,11.62-6.82,23.21-13.49,33.5-1.13,1.74-1.51,4.05-3.78,4.93-2.52-3.69-.59-7.9-1.39-11.78,5.85-4.53,5.46-11.1,5.54-17.42C555.55,370.78,553.93,354.81,548.77,339.35Z" transform="translate(-28.28 -77.95)" fill="#ecebfb"/><path d="M173.75,202.25c0,6.82-.16,13.65.18,20.46.25,5.15-1.9,6.81-6.79,6.56-5.52-.28-11.08-.27-16.6,0-4.86.23-6.66-1.88-6.08-6.49,9.11-4.42,17.92-9.32,24.08-17.67C170,203.14,171.46,202.19,173.75,202.25Z" transform="translate(-28.28 -77.95)" fill="#edebfb"/><path d="M537.22,229.12c-6.37,0-12.74,0-19.11.11-3.82.09-5.48-1.64-5.24-5.38.41-6.33,1.87-12.58,1.27-19C523.54,211.32,532.72,218,537.22,229.12Z" transform="translate(-28.28 -77.95)" fill="#edebfb"/><path d="M67.66,419c-20.47-8.57-21.06-19.35-17.54-34.84,3.18-14,6.47-28.23,15.27-40.2,1.12-1.54,2.42-2.94,3.65-4.4,19.29-9.14,38.73-17.42,59.8-22.25,14-3.22,27.91-6.19,42.24-7.1,2.06,4.31,5,4.19,8.94,2.36,19.83-9.33,38.17-21.38,57.56-31.47,5.47-2.85,9.86-7.15,15.37-9.83,3.57-1.73.66-3.25-.35-4.79,11.16-5.93,23.29-7.86,35.7-8.92q20.61-1.76,41.28-1.61c-.81,3.51-1.63,7-2.44,10.53-3.36,2.63-7.27,2.56-11.29,2.54-6.41,0-12.9-.88-19.16,1.37l-2.48.11c-9.37.15-18.82.87-27.61,4-17.39,6.11-33.25,15.51-49.19,24.65-1.34.77-2.62,1.41-2.35,3.32s1.53,2.32,3.21,2c5.19,6,5.33,10.79.45,15.62l-3.9.31c-3.89-.35-8.3.54-9.74-4.89-1.35-5.15-4.32-4.8-8-2.17a17.19,17.19,0,0,0-6.81,8.29c8.79-1.43,16.5,2.61,24.51.31,9,.42,18.15,2.67,27-1.31l11.37-.64c8.19.06,16.44,1.21,24.49-1.31,12,1.81,23.21-3,34.9-3.78,2.69,3.81,8.25,2.58,11,6.27v.42c0,2.89,0,5.58-1.54,8.44-1.92,3.63,1.4,5.56,4.08,7.25,3.49,2.22,4-1,5.48-2.89,3.08-3.94,1.37-8.51,2.05-12.75.44-2.61-.24-5.43,1.51-7.78l11.38.12,2.55,1.17.18,11.54q-.12,41.83-.28,83.68c0,3.36.73,6.78-.53,10.08-2.26-3.09-5.49-1.52-8.25-1.52q-79-.17-158.08-.14c-.85,0-1.7-.1-2.54-.16,1.25-7.72,4.94-14.87,4.34-23.08-1.45-19.95-12.69-37.23-29.1-41.77-25.78-7.12-44.37,5-52.51,30.93-3.68,11.7-.5,22.87,2.43,34.08Zm216.76-79.54a2,2,0,0,0,.65,2.83c.12,1.81.43,3.4,2.81,3.39q9.89,0,19.76,0c2.7,0,3.12-1.62,2.89-3.8a1.17,1.17,0,0,0-.13-1.06c-.29-.72-.56-2.07-.87-2.08C301.15,338.41,292.72,337,284.42,339.41ZM99.64,340.47c-5,0-9.49-.28-13.9,0-10.84.81-18.09,7.23-23.46,16.06-2,3.22-2.15,6.1,3.26,5.88,6-.24,11.93,0,17.89-.11,1.44,0,4.15.74,3.63-2-1.15-6.19,3.31-8.88,7.08-11.77A15.22,15.22,0,0,0,99.64,340.47Zm93.53-11.75c-5.6,22-5.1,44-.06,65.89A296.26,296.26,0,0,1,193.17,328.72ZM68,388.69c-8-.19-8.61.6-6.84,7.85.54,2.24.93,4.54,1.63,6.73.43,1.32.75,3.2,2.59,3.17s2.23-1.78,2.71-3.12c1.14-3.16,2.15-6.36,3.14-9.57C72.3,390.1,70.57,388.65,68,388.69Z" transform="translate(-28.28 -77.95)" fill="#2286f1"/><path d="M327.13,266.45q1.23-5.28,2.45-10.55c3.27-10.34,7.54-20.08,16.47-26.92,1.61-1.23,3.12-3,5.59-2.28,2.31,11.81,4.19,23.73,7.06,35.4,2.63,10.68,2.47,21.81,5.78,32.34,0,4.6-.16,9.16,1.09,13.72.87,3.12.35,5.58-4.1,5.75-4.13.15-8.21,1.49-12.43,1.18l-2.55-1.17.12-2.71c.57-9.71-.18-19.33-1.79-30.55a83.34,83.34,0,0,0-9.66,30.57c0,.85,0,1.71-.05,2.57-1.75,2.35-1.07,5.17-1.51,7.78l-10.07-.05v-.42c0-2.75-.09-5.5,0-8.25C323.84,297.32,322.13,281.62,327.13,266.45Z" transform="translate(-28.28 -77.95)" fill="#045fa8"/><path d="M364.48,294.44c-3.31-10.53-3.15-21.66-5.78-32.34-2.87-11.67-4.75-23.59-7.06-35.4.46-1.36.91-2.72,1.36-4.08,5.14,1,8.31-.92,9.21-6.22l4.41,0c4.8,17.58,9.56,35.18,12.5,53.18,1.17,7.23,4.11,14.31,2.7,21.87L377,292.81c-.29-6.3,2.76-12.48.39-18.88-1.47-4-2.5-8.12-3.72-12.19q-5.19-17.38-10.39-34.76c-.42-1.38-.73-3.18-2.88-2.34a2.08,2.08,0,0,0-1.13,2.68c3.94,12.11,2.52,24.82,4.26,37.16,1.28,9.08-1.14,19.42,8,26.19.53.4.51,1.55.76,2.35Z" transform="translate(-28.28 -77.95)" fill="#e4dff2"/><path d="M252.6,266.43c1,1.54,3.92,3.06.35,4.79-5.51,2.68-9.9,7-15.37,9.83-19.39,10.09-37.73,22.14-57.56,31.47-3.9,1.83-6.88,2-8.94-2.36,8-5.89,16.51-10.93,25-16.07C207.81,287,220,280.7,231.91,274,238.33,270.39,245,266.88,252.6,266.43Z" transform="translate(-28.28 -77.95)" fill="#f7f7f9"/><path d="M362.21,216.4c-.9,5.3-4.07,7.21-9.21,6.22-1.56-4.91-2.59-10.09-8.62-11.89-1.81-.54-1.77-2.61-1.64-4.33,2.74,0,2.66-1.65,2.68-3.81.08-8.85,6.79-14.9,15.31-14.08,2.55,1.89,1.7,6.06,5,7.44C366.32,203.07,366,210,362.21,216.4Zm.66-8.92c.13-1.35-.38-2.38-1.58-2.31-1.88.1-3.81.65-4.19,2.93a2.17,2.17,0,0,0,2,2.68C361.29,210.9,362.26,209.21,362.87,207.48Z" transform="translate(-28.28 -77.95)" fill="#f0acae"/><path d="M360.73,188.51c-8.52-.82-15.23,5.23-15.31,14.08,0,2.16.06,3.83-2.68,3.81-3.24-3.47-7.22-6-8.15-11.61-1.13-6.74,4.77-8.47,7.15-12.64a30.58,30.58,0,0,1,3.55-4.3c2.2,3.27,5.44,2.84,8.77,2.75C360.66,180.41,361.57,181.64,360.73,188.51Z" transform="translate(-28.28 -77.95)" fill="#251d42"/><path d="M102.41,153.38a43.33,43.33,0,0,1,0-5.7c.3-2.3,2.06-3,4.18-3s4.12.53,4.28,2.82a54.66,54.66,0,0,1-.16,11.37c-.35,2.44-2.57,3.86-5.25,3.55s-3.26-2.3-3.25-4.62c0-1.48,0-3,0-4.44Z" transform="translate(-28.28 -77.95)" fill="#f7f7f9"/><path d="M317.13,187.06c0,1.91,0,3.81,0,5.72,0,2.57-1.58,3.15-3.76,3.14s-3.83-.43-3.86-3c0-3.39,0-6.78-.07-10.17-.09-3,.55-4.88,4.16-4.78,3.42.09,3.62,2.16,3.57,4.68,0,1.48,0,3,0,4.45Z" transform="translate(-28.28 -77.95)" fill="#fefefe"/><path d="M150.84,255.22c0,1.69,0,3.38,0,5.06.07,2.81-1.48,3.56-4,3.56-2.74,0-3.75-1.32-3.7-3.9.07-3.16,0-6.33,0-9.49,0-2.69,1-4.57,4-4.48s3.68,2.27,3.68,4.82C150.84,252.27,150.85,253.74,150.84,255.22Z" transform="translate(-28.28 -77.95)" fill="#fefefe"/><path d="M232.69,204.63v3.18c0,2.84.11,5.93-3.93,5.84s-3.7-3.27-3.72-6.05c0-2.12,0-4.24,0-6.36,0-2.77.39-5.28,3.93-5.21s3.74,2.74,3.73,5.42Z" transform="translate(-28.28 -77.95)" fill="#f7f7f9"/><path d="M104.81,233.53c-1,2.47,2.18,8-3.44,8-5.19-.07-4.12-5.33-4.23-9,0-1.26,0-2.53,0-3.79,0-2.7,1-4.42,4-4.59,3.36-.19,3.76,1.88,3.67,4.47C104.76,230.06,104.81,231.54,104.81,233.53Z" transform="translate(-28.28 -77.95)" fill="#f7f7f9"/><path d="M381.81,291.48c1.42-7.57-1.52-14.65-2.69-21.88-2.94-18-7.7-35.6-12.5-53.18,7-5.31,12.76-11.47,14.45-20.51,5.33-11.61,3.67-24,4.23-36.18,3.24-.69,6.48-1.13,9.67.23q2.14,14.11,4.28,28.23c-.6,21.11-4.36,42-5.39,63-.11,2.33.17,4.67.27,7a22.24,22.24,0,0,0,2.35,14.36c0,1.34,0,2.68-.05,4,1.31,7.2,2.44,14.44,4,21.58.77,3.51,0,7.79,3.91,10.13-1.17,1.9-3.6,1.59-5.1,2.91-2.52.15-5.18-.17-7.54.52-5.24,1.53-7.28-.43-6.86-5.52C385.3,301,383.82,296.19,381.81,291.48Z" transform="translate(-28.28 -77.95)" fill="#045fa8"/><path d="M308.8,121.68c6.93,2.12,15.06,1.28,23.11,1.12,5.23-.1,8.75,1.25,9.49,6.83.57,4.36-3.49,10.54-7.92,11-9.88.92-19.73,5-29.78-.41-4.25-2.31-9.94.44-14.63-2.93-2-1.43-4.2-2-3.73-4.88.44-2.73,2.59-3.25,4.83-3,4.49.5,7.85-1,10.27-4.86C302.13,121.82,304.91,121.53,308.8,121.68Z" transform="translate(-28.28 -77.95)" fill="#fefefe"/><path d="M439,148.74c-9.11-4-18.72-2.55-28.18-2.81-1.83-.05-3.6-.62-3.77-2.64a5.67,5.67,0,0,1,3.87-5.91A38.36,38.36,0,0,0,422,131.62c2.92-2,6.55-1.55,9.69.06,5,2.59,9.95,5.4,14.91,8.14,1.93,1.07,3.57,2.43,3.41,4.9-.2,3.31-3,2.17-4.84,2.72C443.18,148.06,441.2,148.91,439,148.74Z" transform="translate(-28.28 -77.95)" fill="#fefefe"/><path d="M425.16,200.87c5.43.52,10.59,1.81,15.95,1.56,3.43-.16,4.4,2.46,3.83,5.26-.91,4.49-4.77,7.09-8.44,5.73-5.95-2.22-11.25-4.2-17.55-1.2-1.88.9-3.89-1.52-4.37-3.74-.78-3.62,1.79-5.65,4.46-6.91C420.84,200.72,423.19,201.06,425.16,200.87Z" transform="translate(-28.28 -77.95)" fill="#fefefe"/><path d="M375.91,94.58c3.22-.71,7.45,1.27,11.85,1.68a5,5,0,0,1,4.65,5.18c-.14,3.24-2.44,4.75-5.62,4.8-2.11,0-4.24.2-6.21-.9-3.75-2.08-7.59-2-11.66-.82-2.64.8-5.91,1.36-6.73-2.42s1.27-6.24,4.81-7C369.44,94.51,372.05,94.75,375.91,94.58Z" transform="translate(-28.28 -77.95)" fill="#fefefe"/><path d="M381.07,195.91c-1.69,9-7.47,15.2-14.45,20.51l-4.41,0c3.75-6.37,4.11-13.33,3.52-20.45Z" transform="translate(-28.28 -77.95)" fill="#d5d1f9"/><path d="M395.12,146l4,3.14c-1.23,1.35-2.45,2.7-3.68,4,0-2.91-2.07-2.87-3.17-1.43-2.69,3.55-3.85,1.44-5.56-.78a31.25,31.25,0,0,0-4.17-3.85c-2.59-5.18-.94-8.56,4.87-10,.14,1.62.28,3.24.43,4.86-1.75.22-3.66.73-2.36,2.92,1.11,1.86,3,3,4.55,0Z" transform="translate(-28.28 -77.95)" fill="#2e307c"/><path d="M382.51,147.13a31.25,31.25,0,0,1,4.17,3.85c1.71,2.22,2.87,4.33,5.56.78,1.1-1.44,3.18-1.48,3.17,1.43-.14,2.26-.29,4.52-.43,6.77-3.2-1.36-6.44-.92-9.68-.23Z" transform="translate(-28.28 -77.95)" fill="#f0acae"/><path d="M395.12,146,390,145,387.81,142c-.15-1.62-.29-3.24-.43-4.86C392.23,138.11,395.73,140.26,395.12,146Z" transform="translate(-28.28 -77.95)" fill="#f0acae"/><path d="M396.48,272.59a22.24,22.24,0,0,1-2.35-14.36c12.24-.57,22.85,5.34,34.11,8.62a299.74,299.74,0,0,1,49.32,19.63c18.59,9.25,38.25,9.93,57.8,12.65,3.95.55,5.86,1.72,5.67,5.81-.14,3,0,6,0,8.94-2.76.12-5.52.27-8.28.34q-12.76.33-25.54.61c-2.1.05-4,.77-4.42,2.89-.49,2.39,1.56,3,3.36,3.83,2.71,1.17,5.29,2.63,8,3.79,5.2,2.25,11,3.73,11.5,11,.17,2.4,2.5,1.76,4.09,1.91,5.61.56,11-1.05,16.44-1.9a5.27,5.27,0,0,0,2.58,3c5.16,15.46,6.78,31.43,6.6,47.64-.08,6.32.31,12.89-5.54,17.42a26.18,26.18,0,0,1-7.54,3.15c-9.31,2.55-19,3.71-28,7.55C506,418.64,497,419.38,488,418.63c3.09-10.44,5.62-20.91,2.93-31.9-6-24.64-25-40.06-52.36-33.57-13.15,3.12-28.57,23.56-29.46,38.63-.56,9.37,1.76,18.07,4,26.9L407,419c-1.78-1.73-1.25-4-1.29-6.05-.25-13-.24-26-1.45-39-1.1-11.83-1.47-23.73-2.16-35.59,5.32,0,10.64.1,16,.07,1.63,0,3.83.18,3.66-2.34-.13-2-2.08-1.77-3.51-1.77-5.53,0-11.07.06-16.6.1-2.21-7.61-1.49-15.52-2.38-23.27,1.5-1.32,3.93-1,5.1-2.91l12.73-.23c11.85,2.7,19.35-4.86,27.17-11.58,4.61-4,3.85-7.88-1.89-10.21-2.94-1.19-5.94-2.25-8.95-3.28C421.29,278.88,409.52,273.46,396.48,272.59Z" transform="translate(-28.28 -77.95)" fill="#2286f1"/><path d="M402.13,338.43c.69,11.86,1.06,23.76,2.16,35.59,1.21,13,1.2,26,1.45,39,0,2.07-.49,4.32,1.29,6.05-1.27,4.42,2,9.88-3,13.45-3,.27-6.24-.66-8.81,1.76-3.53-.62-3.54-3.43-3.93-6.12-.44-3.05-1.1-6.06-1.66-9.09a26.18,26.18,0,0,0,.05-5.08c-3.42-19-6.85-38.06-10.49-57-1.08-5.63-2.8-11.13-4.23-16.69-4.89,18.64-6.08,37.32-7.7,55.94-.66,7.53-3.07,15-1.36,22.65-.48,3.76-1,7.52-1.41,11.28-.19,1.8-.47,3.37-2.65,3.64a9.37,9.37,0,0,0-2.34-.87c-9.13-.78-9.13-.77-9.13-9.89q0-44.82,0-89.64c0-2.25.86-4.74-1.1-6.7L349,315.09c4.22.31,8.3-1,12.43-1.18,4.45-.17,5-2.63,4.1-5.75-1.25-4.56-1.12-9.12-1.09-13.72l7.78-1.42c1.61.52,3.21.85,4.74-.21l4.82-1.34c2,4.72,3.48,9.51,3,14.75-.42,5.09,1.62,7,6.86,5.52,2.36-.69,5-.37,7.54-.52.89,7.75.17,15.66,2.38,23.26C401.81,335.8,402,337.11,402.13,338.43Z" transform="translate(-28.28 -77.95)" fill="#2a2a77"/><path d="M413.1,418.69c-2.2-8.83-4.52-17.53-4-26.9.89-15.07,16.31-35.51,29.46-38.63,27.32-6.49,46.32,8.93,52.36,33.57,2.69,11,.16,21.46-2.93,31.9a43.93,43.93,0,0,1-23.75,22.44,34.67,34.67,0,0,1-28.74-.87C425.54,435.37,418.43,428.11,413.1,418.69Zm69.17-20.61c.51-19.08-13.73-36.27-32.36-35.87-17.24.38-31.41,17-31.22,35.39.17,17.22,13.75,35.17,32.36,35.14C468.14,432.72,483.11,413.58,482.27,398.08Z" transform="translate(-28.28 -77.95)" fill="#251d42"/><path d="M104.7,418.73c-2.93-11.21-6.11-22.38-2.43-34.08,8.14-25.88,26.73-38,52.51-30.93,16.41,4.54,27.65,21.82,29.1,41.77.6,8.21-3.09,15.36-4.34,23.08-4.89,11-14,17.76-24.18,23-12.47,6.37-38-2.24-45.5-14.86C108.24,424,106.43,421.38,104.7,418.73ZM174,397.61c.64-18.88-13.81-35.79-32.11-35.37-19.36.45-31.48,16.61-31.53,35.53-.06,17.86,13.3,35.07,31.65,34.83C159.9,432.36,174,417,174,397.61Z" transform="translate(-28.28 -77.95)" fill="#251d42"/><path d="M365.89,418.81c-1.71-7.67.7-15.12,1.36-22.65,1.62-18.62,2.81-37.3,7.7-55.94,1.43,5.56,3.15,11.06,4.23,16.69,3.64,19,7.07,38,10.49,57a26.18,26.18,0,0,1-.05,5.08Z" transform="translate(-28.28 -77.95)" fill="#2286f1"/><path d="M404.44,439.74c2.9,3.25,7.65,3.11,10.81,5.92,1.21,1.07,3.29,1.67,2.55,3.81-.62,1.79-2.46,1.26-3.87,1.3-3.8.11-7.6.22-11.4.21-7.12,0-7.4-.43-6.06-7.87C399.31,442.41,403,443.7,404.44,439.74Z" transform="translate(-28.28 -77.95)" fill="#2e307c"/><path d="M349.22,326.63c2,2,1.1,4.45,1.1,6.7q.09,44.82,0,89.64c0,9.12,0,9.11,9.13,9.89a9.37,9.37,0,0,1,2.34.87l-1.28.64-6.31,0c-4.68.48-6.46-1.61-5.88-6.25a63.6,63.6,0,0,0,.05-7.69c1.26-3.31.51-6.73.53-10.09Q349.15,368.48,349.22,326.63Z" transform="translate(-28.28 -77.95)" fill="#251d42"/><path d="M355.28,442c.79,2.57,5.42-.19,5.23,3.75-1.84,2.93-4.39,4-7.91,3.85-2.81-.12-5.89-1.1-8.51,1-1.79.08-4.12,1.16-4.93-1.3s1.48-3.14,3.15-4c3.49-1.82,7.48-2.75,10.39-5.64C352.42,441.62,353.76,441.9,355.28,442Z" transform="translate(-28.28 -77.95)" fill="#2e307c"/><path d="M404.44,439.74c-1.45,4-5.13,2.67-8,3.37l-1.26-8.86c2.57-2.42,5.81-1.49,8.81-1.76Z" transform="translate(-28.28 -77.95)" fill="#f7f7f9"/><path d="M355.28,442c-1.52-.06-2.86-.34-2.58-2.37a9.69,9.69,0,0,1,1.54-5.25l6.31,0C360.66,438.19,361.67,442.64,355.28,442Z" transform="translate(-28.28 -77.95)" fill="#fefefe"/><path d="M344.09,450.55c2.62-2.09,5.7-1.11,8.51-1,3.52.16,6.07-.92,7.91-3.85,1,3.93-.69,5.44-4.53,5.25S348.06,450.68,344.09,450.55Z" transform="translate(-28.28 -77.95)" fill="#251d42"/><path d="M546.19,336.35c-5.46.85-10.83,2.46-16.44,1.9-1.59-.15-3.92.49-4.09-1.91-.53-7.27-6.3-8.75-11.5-11-2.7-1.16-5.28-2.62-8-3.79-1.8-.78-3.85-1.44-3.36-3.83.44-2.12,2.32-2.84,4.42-2.89q12.76-.29,25.54-.61c2.76-.07,5.52-.22,8.28-.34C546.48,320.52,546.46,328.41,546.19,336.35Z" transform="translate(-28.28 -77.95)" fill="#f7f7f9"/><path d="M446.43,248.1c0-1.7-.11-3.41,0-5.1.21-2.69,2-3.49,4.43-3.48s4.18,1,4.29,3.65a83.32,83.32,0,0,1,0,8.94c-.19,3-1.17,5.48-4.95,5.23-3.52-.23-3.94-2.62-3.89-5.4,0-1.28,0-2.56,0-3.84Z" transform="translate(-28.28 -77.95)" fill="#f7f7f9"/><path d="M524.06,254.82c1.89-2.75-2.91-8.75,3.92-8.74,6.23,0,3.9,5.53,3.92,8.82,0,3.59,2.21,9.61-3.88,9.59C521.48,264.48,525.68,258.16,524.06,254.82Z" transform="translate(-28.28 -77.95)" fill="#fefefe"/><path d="M486,198a12,12,0,0,1-.59,4.37c-.73,1.8-2.91,1.25-4.56,1.15-1.82-.11-2.51-1.29-2.52-3,0-2.95,0-5.91,0-8.86,0-2.65.83-4.63,3.88-4.62s3.84,2.06,3.82,4.68C486,193.21,486,194.68,486,198Z" transform="translate(-28.28 -77.95)" fill="#f7f7f9"/><path d="M312.53,314.84c-11.69.78-22.93,5.59-34.9,3.78-8.29-1.93-16.4-.5-24.49,1.31l-11.38.64c-4.76-1-9.6-.08-14.35-.49-2.93-.25-5.85,2.64-8.69-.05,4.88-4.83,4.74-9.65-.45-15.61-.07-2.37,1.74-3.3,3.4-4.11,16.53-8.08,32.5-17.51,50.77-21.48l2-.93.32.18c9,.19,17.23-3.78,25.94-5.16,4.23-.47,8.61-.42,12.66-1.54,4.55-1.26,5.55.35,5.2,4.36C317.38,288.91,314.84,301.86,312.53,314.84Z" transform="translate(-28.28 -77.95)" fill="#f7f7f9"/><path d="M99.64,340.47a15.22,15.22,0,0,1-5.5,8.08c-3.77,2.89-8.23,5.58-7.08,11.77.52,2.77-2.19,2-3.63,2-6,.12-11.93-.13-17.89.11-5.41.22-5.22-2.66-3.26-5.88,5.37-8.83,12.62-15.25,23.46-16.06C90.15,340.19,94.6,340.47,99.64,340.47Z" transform="translate(-28.28 -77.95)" fill="#f7f7f9"/><path d="M312.53,314.84c2.31-13,4.85-25.93,6-39.1.35-4-.65-5.62-5.2-4.36-4.05,1.12-8.43,1.07-12.66,1.54l-4-2.58c6.26-2.25,12.75-1.41,19.16-1.37,4,0,7.93.09,11.29-2.54-5,15.19-3.3,30.89-3.63,46.43-.06,2.75,0,5.5,0,8.25C320.78,317.42,315.22,318.65,312.53,314.84Z" transform="translate(-28.28 -77.95)" fill="#2e307c"/><path d="M272.44,278.83c-18.27,4-34.24,13.4-50.77,21.48-1.66.81-3.47,1.74-3.4,4.11-1.68.28-2.93,0-3.21-2s1-2.55,2.35-3.32c15.94-9.14,31.8-18.54,49.19-24.65,8.79-3.09,18.24-3.81,27.61-4-.58,2.66-2.86,1.82-4.57,2.39-5,1.66-11.37-.51-14.92,5.24l-.32-.18Z" transform="translate(-28.28 -77.95)" fill="#2e307c"/><path d="M323.53,321.53l10.07.05c-.68,4.24,1,8.81-2.05,12.75-1.49,1.89-2,5.11-5.48,2.89-2.68-1.69-6-3.62-4.08-7.25C323.5,327.11,323.5,324.42,323.53,321.53Z" transform="translate(-28.28 -77.95)" fill="#f0acae"/><path d="M193.17,328.72a296.26,296.26,0,0,0-.06,65.89C188.07,372.69,187.57,350.73,193.17,328.72Z" transform="translate(-28.28 -77.95)" fill="#045fa8"/><path d="M68,388.69c2.62,0,4.35,1.41,3.23,5.06-1,3.21-2,6.41-3.14,9.57-.48,1.34-1,3.08-2.71,3.12s-2.16-1.85-2.59-3.17c-.7-2.19-1.09-4.49-1.63-6.73C59.34,389.29,59.93,388.5,68,388.69Z" transform="translate(-28.28 -77.95)" fill="#251d42"/><path d="M214.8,321.88c-8,2.3-15.72-1.74-24.51-.31a17.19,17.19,0,0,1,6.81-8.29c3.66-2.63,6.63-3,8,2.17,1.44,5.43,5.85,4.54,9.74,4.89C214.81,320.85,214.81,321.37,214.8,321.88Z" transform="translate(-28.28 -77.95)" fill="#2e307c"/><path d="M310.53,341.83c.23,2.18-.19,3.81-2.89,3.8q-9.88,0-19.76,0c-2.38,0-2.69-1.58-2.81-3.39Z" transform="translate(-28.28 -77.95)" fill="#6244b5"/><path d="M274.72,278.08c3.55-5.75,9.92-3.58,14.92-5.24,1.71-.57,4,.27,4.57-2.39l2.48-.11,4,2.58C292,274.3,283.75,278.27,274.72,278.08Z" transform="translate(-28.28 -77.95)" fill="#251d42"/><path d="M310.53,341.83l-25.46.41a2,2,0,0,1-.66-2.83c8.66.45,17.46-1.65,26,1.36A1.17,1.17,0,0,1,310.53,341.83Z" transform="translate(-28.28 -77.95)" fill="#edebfb"/><path d="M214.8,321.88c0-.51,0-1,0-1.54l3.9-.31c2.84,2.69,5.76-.2,8.69.05,4.75.41,9.59-.48,14.35.49C233,324.55,223.83,322.3,214.8,321.88Z" transform="translate(-28.28 -77.95)" fill="#2a2a77"/><path d="M253.14,319.93c8.09-1.81,16.2-3.24,24.49-1.31C269.58,321.14,261.33,320,253.14,319.93Z" transform="translate(-28.28 -77.95)" fill="#2e307c"/><path d="M310.4,340.77c-8.53-3-17.33-.91-26-1.36,8.31-2.44,16.74-1,25.12-.72C309.84,338.7,310.11,340.05,310.4,340.77Z" transform="translate(-28.28 -77.95)" fill="#6244b5"/><path d="M346.61,311.21l-.12,2.71-11.38-.12c0-.86,0-1.72.05-2.57C339,312.21,342.79,311.06,346.61,311.21Z" transform="translate(-28.28 -77.95)" fill="#2e307c"/><path d="M346.61,311.21c-3.82-.15-7.64,1-11.45,0a83.34,83.34,0,0,1,9.66-30.57C346.43,291.88,347.18,301.5,346.61,311.21Z" transform="translate(-28.28 -77.95)" fill="#e4dff2"/><path d="M377,292.81c-1.53,1.06-3.13.73-4.74.21-.24-.8-.22-1.95-.75-2.35-9.12-6.77-6.7-17.11-8-26.19-1.74-12.34-.32-25.05-4.26-37.16a2.08,2.08,0,0,1,1.13-2.68c2.15-.84,2.46,1,2.88,2.34q5.22,17.37,10.39,34.76c1.22,4.07,2.25,8.21,3.72,12.19C379.76,280.33,376.71,286.51,377,292.81Z" transform="translate(-28.28 -77.95)" fill="#f53561"/><path d="M362.87,207.48c-.61,1.73-1.58,3.42-3.79,3.3a2.17,2.17,0,0,1-2-2.68c.38-2.28,2.31-2.83,4.19-2.93C362.49,205.1,363,206.13,362.87,207.48Z" transform="translate(-28.28 -77.95)" fill="#e4dff2"/><path d="M396.48,272.59c13,.87,24.81,6.29,36.94,10.42,3,1,6,2.09,8.95,3.28,5.74,2.33,6.5,6.24,1.89,10.21-7.82,6.72-15.32,14.28-27.17,11.58,3.56-1.41,3.31-3.95,1.8-6.67-3.51-6.3-7-12.6-10.69-18.79-2.61-4.37-6.5-6.66-11.77-6C396.44,275.27,396.46,273.93,396.48,272.59Zm34.95,27.91c3.11-1.61,7.13-3,9-6.85a4,4,0,0,0-2.35-5.6c-5.35-2-10.86-3.52-16.31-5.23a2.55,2.55,0,0,0-2.92.58c-.79,1,0,1.87.48,2.84,2.19,4.64,5.55,8.45,8.54,12.52C428.64,299.81,429.36,300.87,431.43,300.5Z" transform="translate(-28.28 -77.95)" fill="#2e307c"/><path d="M396.43,276.6c5.27-.64,9.16,1.65,11.77,6,3.69,6.19,7.18,12.49,10.69,18.79,1.51,2.72,1.76,5.26-1.8,6.67l-12.73.23c-3.93-2.34-3.14-6.62-3.91-10.13C398.87,291,397.74,283.8,396.43,276.6Z" transform="translate(-28.28 -77.95)" fill="#f7f7f9"/><path d="M387.81,142,390,145c-1.53,3-3.44,1.83-4.55,0C384.15,142.73,386.06,142.22,387.81,142Z" transform="translate(-28.28 -77.95)" fill="#6244b5"/><path d="M402.13,338.43c-.16-1.32-.32-2.63-.49-3.95,5.53,0,11.07-.1,16.6-.09,1.43,0,3.38-.27,3.51,1.77.17,2.52-2,2.33-3.66,2.34C412.77,338.53,407.45,338.46,402.13,338.43Z" transform="translate(-28.28 -77.95)" fill="#e4dff2"/><path d="M482.27,398.08c.84,15.5-14.13,34.64-31.22,34.66-18.61,0-32.19-17.92-32.36-35.14-.19-18.38,14-35,31.22-35.39C468.54,361.81,482.78,379,482.27,398.08Zm-16.74-2.53c.5-.12,2.75-.64,5-1.18,8.58-2.09,9.35-3.65,5.82-11.59-1.34-3-3-4.68-6.1-1.81s-6.41,6-9.59,9c-1.26,1.19-1.18,2.51-.5,4C460.9,395.64,462.14,396,465.53,395.55Zm-28.81.19c2.06.09,3.65.35,4.28-1.52a3.88,3.88,0,0,0-.79-4.14c-2.77-2.85-5.6-5.64-8.35-8.51-2.26-2.36-4.6-3.47-6.43.2-1.73,3.46-4.6,7.79-.21,10.64C428.57,394.59,433.21,394.8,436.72,395.74Zm16.07-12.25c0,1.49-.15,3.51,2.2,4.3,1.35.46,2.79.11,3.24-1.23,1.6-4.7,5-8.44,6.85-12.95,2.06-5-2.58-5.44-5.4-6.79-3.51-1.67-4.59.88-5.06,3.6C453.9,374.6,453.43,378.83,452.79,383.49Zm-4.08.92c-.84-5.32-1.58-10.33-2.44-15.32-.34-2-1.62-2.79-3.66-2.6-6.33.58-8.36,4.44-5.21,9.85,1.81,3.09,4.28,5.79,5.37,9.3.47,1.52,1.53,2.62,3.32,2.22A3.11,3.11,0,0,0,448.71,384.41Zm16.82,16.65c-2.27.21-4.91-.7-5.78,1.86-.73,2.17,1.56,3.27,2.95,4.4,2.78,2.25,5.58,4.33,7.65,7.4,1.47,2.18,3.42,1.88,4.9-.68,4.89-8.39,3.82-10.76-5.65-12.14C468.15,401.69,466.72,401.31,465.53,401.06Zm-24.27,2.42c-.41-2-2.1-2.43-3.81-2.3a59.63,59.63,0,0,0-8.74,1.19c-2.38.54-5.42,1-5.31,4.37a11.31,11.31,0,0,0,4.26,8.77c3,2.13,3.85-1.88,5.51-3.47,1.83-1.74,3.79-3.34,5.75-4.93C440.09,406.17,441.3,405.33,441.26,403.48Zm4.24,3.73c-.41.22-1.46.42-1.81,1-2.54,4.39-5.58,8.65-7.15,13.39-.94,2.82,2,5.26,5.1,6s4.57-.65,4.89-4c.41-4.22,1.36-8.37,2.13-12.55C449.07,408.88,448.5,407.37,445.5,407.21Zm10.89,0c-3.15.05-3.78,1.55-3.57,3.44.5,4.63,1.08,9.25,1.77,13.85.43,2.85,2.52,4.52,4.92,3,2.22-1.42,6.92-2,5.15-6.37-1.65-4.09-4.1-7.86-6.23-11.75C457.8,408.22,457,407.21,456.39,407.2Z" transform="translate(-28.28 -77.95)" fill="#6244b5"/><path d="M174,397.61c.07,19.41-14.07,34.75-32,35-18.35.24-31.71-17-31.65-34.83,0-18.92,12.17-35.08,31.53-35.53C160.16,361.82,174.61,378.73,174,397.61Zm-17.8-2c1.55-.37,4-.92,6.5-1.55,7.71-2,8.82-4.81,5-12.12-1.55-2.94-3.35-3.81-5.92-1.34-3.19,3.06-6.27,6.23-9.41,9.35a3.19,3.19,0,0,0-.8,4C152.27,395.59,153.61,396,156.17,395.64Zm-27.79.06c1.72.14,3.33.44,4.14-1.27a3.81,3.81,0,0,0-1-4.65c-2.7-2.69-5.31-5.48-8.1-8.07-1.29-1.2-2.64-3.43-4.8-1.8-2.74,2.06-3.41,5.28-3.74,8.53-.22,2.14.28,3.87,2.58,4.48C121.18,393.91,124.9,394.82,128.38,395.7Zm16.1-12.52c0,1.66-.21,3.7,2.06,4.58a2.53,2.53,0,0,0,3.3-1.15c2.37-4.26,5-8.42,6.85-12.89,2.32-5.59-3.29-5.37-6-6.85-3.38-1.84-3.88,1.25-4.29,3.48C145.63,374.51,145.13,378.72,144.48,383.18Zm-4.25,1.9c-.87-5.82-1.54-10.88-2.42-15.9-.4-2.27-1.85-3-4.25-2.48-5.71,1.3-7.32,4.71-4.45,9.84q2.65,4.72,5.29,9.46c.79,1.43,1.85,2.41,3.61,1.79A3,3,0,0,0,140.23,385.08Zm29.53,21.45c.27-2.46-.47-3.64-1.81-3.81-4.77-.63-9.58-1.44-14.37-1.37-2.83,0-3.3,2.21-1.18,4.39,3.19,3.29,7.53,5.36,10,9.49a1.87,1.87,0,0,0,3.22.1C167.33,412.23,168.66,408.92,169.76,406.53Zm-30,6.69c.78-3.43.6-5.09-1.42-5.78s-3.17.57-4,2.17c-2,3.71-4.53,7.24-6,11.17-1.57,4.26,2,5.82,5.2,7.15,3.87,1.63,4.14-1,4.52-3.8C138.57,419.94,139.33,415.78,139.74,413.22Zm4.66-.12c.58,3.16,1.2,7.13,2.07,11,1.11,5,2.91,5.37,7.16,2.2,3.06-2.28,4.07-4.37,1.42-7.76-1.79-2.3-2.82-5.18-4.28-7.75-1-1.79-1.84-4.21-4.6-3.42C143.61,408.15,144.6,410.49,144.4,413.1Zm-16.19-12c-3.13.4-6.29.66-9.38,1.26-2.14.41-4.15,1.41-3.86,4.16.37,3.43,1.65,6.85,4.16,8.91s3.17-1.56,4.59-2.83c2.19-2,4.44-3.9,6.7-5.8,1.28-1.08,3.12-2,2.22-4C131.84,401,129.91,401.13,128.21,401.12Z" transform="translate(-28.28 -77.95)" fill="#6244b5"/><path d="M272.44,278.83l2-.93Z" transform="translate(-28.28 -77.95)" fill="#251d42"/><path d="M431.43,300.5c-2.07.37-2.79-.69-3.56-1.74-3-4.07-6.35-7.88-8.54-12.52-.45-1-1.27-1.86-.48-2.84a2.55,2.55,0,0,1,2.92-.58c5.45,1.71,11,3.27,16.31,5.23a4,4,0,0,1,2.35,5.6C438.56,297.53,434.54,298.89,431.43,300.5Z" transform="translate(-28.28 -77.95)" fill="#e4dff2"/><path d="M465.53,395.55c-3.39.43-4.63.09-5.38-1.59-.68-1.52-.76-2.84.5-4,3.18-3,6.4-6,9.59-9s4.76-1.22,6.1,1.81c3.53,7.94,2.76,9.5-5.82,11.59C468.28,394.91,466,395.43,465.53,395.55Z" transform="translate(-28.28 -77.95)" fill="#251d42"/><path d="M436.72,395.74c-3.51-.94-8.15-1.15-11.5-3.33-4.39-2.85-1.52-7.18.21-10.64,1.83-3.67,4.17-2.56,6.43-.2,2.75,2.87,5.58,5.66,8.35,8.51a3.88,3.88,0,0,1,.79,4.14C440.37,396.09,438.78,395.83,436.72,395.74Z" transform="translate(-28.28 -77.95)" fill="#251d42"/><path d="M452.79,383.49c.64-4.66,1.11-8.89,1.83-13.07.47-2.72,1.55-5.27,5.06-3.6,2.82,1.35,7.46,1.77,5.4,6.79-1.85,4.51-5.25,8.25-6.85,12.95-.45,1.34-1.89,1.69-3.24,1.23C452.64,387,452.76,385,452.79,383.49Z" transform="translate(-28.28 -77.95)" fill="#251d42"/><path d="M448.71,384.41a3.11,3.11,0,0,1-2.62,3.45c-1.79.4-2.85-.7-3.32-2.22-1.09-3.51-3.56-6.21-5.37-9.3-3.15-5.41-1.12-9.27,5.21-9.85,2-.19,3.32.64,3.66,2.6C447.13,374.08,447.87,379.09,448.71,384.41Z" transform="translate(-28.28 -77.95)" fill="#251d42"/><path d="M465.53,401.06c1.19.25,2.62.63,4.07.84,9.47,1.38,10.54,3.75,5.65,12.14-1.48,2.56-3.43,2.86-4.9.68-2.07-3.07-4.87-5.15-7.65-7.4-1.39-1.13-3.68-2.23-2.95-4.4C460.62,400.36,463.26,401.27,465.53,401.06Z" transform="translate(-28.28 -77.95)" fill="#251d42"/><path d="M441.26,403.48c0,1.85-1.17,2.69-2.34,3.63-2,1.59-3.92,3.19-5.75,4.93-1.66,1.59-2.47,5.6-5.51,3.47a11.31,11.31,0,0,1-4.26-8.77c-.11-3.35,2.93-3.83,5.31-4.37a59.63,59.63,0,0,1,8.74-1.19C439.16,401.05,440.85,401.46,441.26,403.48Z" transform="translate(-28.28 -77.95)" fill="#251d42"/><path d="M445.5,407.21c3,.16,3.57,1.67,3.16,3.94-.77,4.18-1.72,8.33-2.13,12.55-.32,3.31-1.75,4.76-4.89,4s-6-3.22-5.1-6c1.57-4.74,4.61-9,7.15-13.39C444,407.63,445.09,407.43,445.5,407.21Z" transform="translate(-28.28 -77.95)" fill="#251d42"/><path d="M456.39,407.2c.63,0,1.41,1,2,2.15,2.13,3.89,4.58,7.66,6.23,11.75,1.77,4.42-2.93,4.95-5.15,6.37-2.4,1.54-4.49-.13-4.92-3-.69-4.6-1.27-9.22-1.77-13.85C452.61,408.75,453.24,407.25,456.39,407.2Z" transform="translate(-28.28 -77.95)" fill="#251d42"/><path d="M156.17,395.64c-2.56.33-3.9-.05-4.68-1.63a3.19,3.19,0,0,1,.8-4c3.14-3.12,6.22-6.29,9.41-9.35,2.57-2.47,4.37-1.6,5.92,1.34,3.87,7.31,2.76,10.16-5,12.12C160.2,394.72,157.72,395.27,156.17,395.64Z" transform="translate(-28.28 -77.95)" fill="#251d42"/><path d="M128.38,395.7c-3.48-.88-7.2-1.79-10.89-2.78-2.3-.61-2.8-2.34-2.58-4.48.33-3.25,1-6.47,3.74-8.53,2.16-1.63,3.51.6,4.8,1.8,2.79,2.59,5.4,5.38,8.1,8.07a3.81,3.81,0,0,1,1,4.65C131.71,396.14,130.1,395.84,128.38,395.7Z" transform="translate(-28.28 -77.95)" fill="#251d42"/><path d="M144.48,383.18c.65-4.46,1.15-8.67,1.92-12.83.41-2.23.91-5.32,4.29-3.48,2.71,1.48,8.32,1.26,6,6.85-1.85,4.47-4.48,8.63-6.85,12.89a2.53,2.53,0,0,1-3.3,1.15C144.27,386.88,144.43,384.84,144.48,383.18Z" transform="translate(-28.28 -77.95)" fill="#251d42"/><path d="M140.23,385.08a3,3,0,0,1-2.22,2.71c-1.76.62-2.82-.36-3.61-1.79q-2.64-4.72-5.29-9.46c-2.87-5.13-1.26-8.54,4.45-9.84,2.4-.55,3.85.21,4.25,2.48C138.69,374.2,139.36,379.26,140.23,385.08Z" transform="translate(-28.28 -77.95)" fill="#251d42"/><path d="M169.76,406.53c-1.1,2.39-2.43,5.7-4.14,8.8a1.87,1.87,0,0,1-3.22-.1c-2.47-4.13-6.81-6.2-10-9.49-2.12-2.18-1.65-4.35,1.18-4.39,4.79-.07,9.6.74,14.37,1.37C169.29,402.89,170,404.07,169.76,406.53Z" transform="translate(-28.28 -77.95)" fill="#251d42"/><path d="M139.74,413.22c-.41,2.56-1.17,6.72-1.73,10.91-.38,2.76-.65,5.43-4.52,3.8-3.16-1.33-6.77-2.89-5.2-7.15,1.45-3.93,3.94-7.46,6-11.17.88-1.6,2-2.86,4-2.17S140.52,409.79,139.74,413.22Z" transform="translate(-28.28 -77.95)" fill="#251d42"/><path d="M144.4,413.1c.2-2.61-.79-5,1.77-5.69,2.76-.79,3.58,1.63,4.6,3.42,1.46,2.57,2.49,5.45,4.28,7.75,2.65,3.39,1.64,5.48-1.42,7.76-4.25,3.17-6,2.78-7.16-2.2C145.6,420.23,145,416.26,144.4,413.1Z" transform="translate(-28.28 -77.95)" fill="#251d42"/><path d="M128.21,401.11c1.7,0,3.63-.12,4.43,1.7.9,2-.94,2.93-2.22,4-2.26,1.9-4.51,3.82-6.7,5.8-1.42,1.27-2.2,4.79-4.59,2.83s-3.79-5.48-4.16-8.91c-.29-2.75,1.72-3.75,3.86-4.16C121.92,401.78,125.08,401.52,128.21,401.11Z" transform="translate(-28.28 -77.95)" fill="#251d42"/></svg>