<svg id="Capa_1" data-name="Capa 1" xmlns="http://www.w3.org/2000/svg" viewBox="0 0 386.6 386.6"><g id="Capa_1-2" data-name="Capa 1"><g id="Capa_2" data-name="Capa 2"><circle cx="193.3" cy="193.3" r="193.3" fill="#0087f5"/></g></g><path d="M308.1,273.5c-66,0-132.1-.1-198.1.2-7.8,0-10.4-1.8-9.6-9.7,3.5-33-4.1-64.6-14.6-95.4-3.4-10-6.8-20.1-9.9-30.2-1.6-4.9-.6-7.3,5.1-8.6q93.45-21.9,186.8-44.4c4.4-1,6.1-.5,7.2,4.2,5.2,21.8,15.3,42.2,19.2,64.4,1.5,8.6,5.6,12,14,10.3C308.1,200.8,308.1,237.1,308.1,273.5Zm-104.3-8.4c16,0,32.1.2,48.1-.1,11.5-.2,24.6,3.9,31.1-10.8a2.48,2.48,0,0,1,1.8-1c13.6-3.7,13.9-14,12.9-25.3a71.72,71.72,0,0,1,.1-16.7c1.3-9.1-2.8-13.9-11.1-15.6-7.5-1.6-12.1-5.9-14.6-13.1s-7.7-9.8-15.4-9.7c-34.5.3-69.1.1-103.6.1-8,0-14.2,2.5-17,10.7-2.3,6.8-6.9,10.8-14.2,12.2-7.8,1.4-11.8,5.8-11,14.6a140.28,140.28,0,0,1,0,25.1c-.7,8.1,1.4,13.4,9.8,15.3a10.44,10.44,0,0,1,8.1,7.2c1.9,6,6.3,7.3,12.2,7.2C161.9,264.9,182.9,265.1,203.8,265.1ZM98.9,183.3c.5-.1,1.1-.1,1.6-.2,0-2.8.4-5.6-.1-8.3-1.6-9,2.2-11.2,10.7-10.6,10.8.8,21.6-.1,32.4.3,6.1.2,9.2-.4,9-8.2-.2-9.8,3.9-17.6,12-25,20.8-19,59-3.3,63.2,26.9.7,4.8,1.8,6.4,6.8,6.3,15.7-.3,31.4-.4,47.1,0,5.5.1,6.7-1.7,5.1-6.6-2.9-9.1-8.4-17.4-9.4-27-.9-8.9-6.1-12-14-12-7.5,0-12.9-2.9-18-8.6s-11.7-8.3-20.4-6c-32.6,8.5-65.4,16.5-98.3,23.7-8.5,1.9-12.3,6-13.1,13.6-.9,8.5-4.9,13.8-12.8,17.2-5,2.1-8.1,6.4-5.1,12.8C97.3,175.2,97.9,179.4,98.9,183.3Z" transform="translate(-6.5 -4.6)" fill="#f7f8f9"/><path d="M203.9,256.7c-21.1-1.4-36.2-15.5-36.2-37.7-.1-21.9,15.8-38,37.2-37.7,21,.3,36.1,16.1,36.1,37.7C241,240.9,225.3,256.9,203.9,256.7Z" transform="translate(-6.5 -4.6)" fill="#fcfcfc"/><path d="M137,210.6c6.9,1.4,12.3,3.7,11.6,11.3-.8,8-7.2,9.8-13.5,9.3s-10-5-9.1-11.5C126.8,213.4,131.3,210.4,137,210.6Z" transform="translate(-6.5 -4.6)" fill="#fdfeff"/><path d="M271.3,210.5c7.2.4,12.5,4.7,13.1,9.9.7,5.8-5.1,10.3-11,10.8-6.7.6-12.5-3.7-13-10S266.5,212.6,271.3,210.5Z" transform="translate(-6.5 -4.6)" fill="#f9f9f9"/><path d="M255.4,157.3c-5.7-.7-10.1-3.6-10.2-10.3s3.8-10.3,10.4-10.2c6.8.1,12.5,2.4,12.4,10.5C267.8,154.9,261.9,156.3,255.4,157.3Z" transform="translate(-6.5 -4.6)" fill="#fcfcfc"/></svg>