<svg id="Capa_1" data-name="Capa 1" xmlns="http://www.w3.org/2000/svg" viewBox="0 0 386.6 386.6"><g id="Capa_1-2" data-name="Capa 1"><g id="Capa_2" data-name="Capa 2"><circle cx="193.3" cy="193.3" r="193.3" fill="#0087f5"/></g><polyline points="194.9 135.6 194.9 193.8 141.6 215.5" fill="none" stroke="#fff" stroke-linecap="round" stroke-linejoin="round" stroke-width="17"/></g><g id="Capa_3-2" data-name="Capa 3"><path d="M271.6,70.9C250.9,58.8,221.4,49,182.3,53.2,94.2,62.5,62.7,153.9,62.6,170c0,0-11.8,64,29.9,111s84.2,51.6,126.8,50.4c0,0,51.7-4,87.8-46,0,0,40.1-40.7,34.3-110.8" transform="translate(-6.5 -4.6)" fill="none" stroke="#fff" stroke-linecap="round" stroke-miterlimit="10" stroke-width="16"/><path d="M309.7,105c-12.4-22.5-25-53.6-28.5-77.9L265.9,67.2l-37.4,21C253.1,88.1,285.6,96,309.7,105Z" transform="translate(-6.5 -4.6)" fill="#fff"/></g></svg>