<svg id="Capa_1" data-name="Capa 1" xmlns="http://www.w3.org/2000/svg" viewBox="0 0 386.6 386.6"><g id="Capa_2" data-name="Capa 2"><circle cx="193.3" cy="193.3" r="193.3" fill="#0087f5"/></g><path d="M314.1,174.1c-2.7.5-3.8-.8-4.5-3.6-7.8-27.4-15.9-54.9-23.9-82.3-2.2-7.7-4.5-15.4-6.8-23.5C207.7,92.5,136.9,120,66,147.6a25.49,25.49,0,0,0,.8,2.8c7.9,27.2,15.8,54.3,23.6,81.5a16.07,16.07,0,0,1,.6,4.9c-.6,18.4-1.3,36.7-1.9,55,0,1.1-.1,2.1-.1,3.3H311.9c1.5-40.4,2.9-80.4,4.4-120.7A6.37,6.37,0,0,0,314.1,174.1ZM95.6,174c-1.8-.1-2.4.6-2.4,2.6-.2,9-.6,18-.9,26.9,0,.9-.1,1.8-.1,2.7a1.09,1.09,0,0,1-.5.1c-5.1-17.7-10.3-35.4-15.5-53.4,65.8-25.6,131.5-51.1,197.6-76.8,9.5,32.7,18.9,65.1,28.5,97.8H265c.6-2,1.2-4,2-6,1.1-2.7,1.9-5.7,3.6-7.7a103.78,103.78,0,0,1,9.9-10c2.5-2.3,3.1-3.5,2.2-6.7-2.7-9.2-5.5-18.4-8.2-27.6-.8-2.6-2.2-3.8-4.8-3.8-8.4-.1-16.1-2.1-22.7-7.9a3.84,3.84,0,0,0-5.9.6c-1.5,2-1.2,4.5.8,6.4,5.4,4.9,11.7,8.3,18.7,8.8,5.6.4,8,2.9,9,8.6a85.68,85.68,0,0,0,3.9,13.1c.6,1.9.2,2.8-1.1,4.3a110,110,0,0,0-10.3,12.3c-1.7,2.6-2.6,6.2-3.2,9.4-.4,1.9.6,4,1,6.2a9.44,9.44,0,0,1-1.4.1c-16.5,0-32.9,0-49.3.1a3.56,3.56,0,0,1-3.7-2c-2.6-4.2-6.8-5.4-11.1-6-2.8-.4-5.8-.6-8.5-1.2-3.5-.8-5.5-3.1-5.6-6.5a7.53,7.53,0,0,1,5.1-7.4,80.65,80.65,0,0,1,10.9-2.1,1.7,1.7,0,0,0,.1.7l.2-.2c1-7,1-6.2-4.6-6.2a35.63,35.63,0,0,0-5.2.7c-.7-2.5-1.4-4.9-2.1-7.6-1.7.6-3.2,1.1-4.8,1.7.7,2.9,1.3,5.4,2,8a30.13,30.13,0,0,0-2.8,2.2,14.26,14.26,0,0,0-5.2,13.6c.8,5.4,3.9,8.7,8.6,9.9,3.2.8,6.5,1.1,9.8,1.6a2.85,2.85,0,0,1,1.4.6H112c1.2-1,1.7-1.5,2.3-2,4.8-3.7,9.4-7.7,12.2-13.4a39,39,0,0,0,2.9-10.1c.4-2.1-1.1-3.6-3.2-3.8a3.63,3.63,0,0,0-4.4,3c-1.1,7.5-5.8,11.8-10.9,16.1a23.26,23.26,0,0,1-3.7,2.7c-2.9,1.6-4.3,3.8-3.2,7.7C100.8,174.1,98.2,174.1,95.6,174ZM304.1,286.1H97.5c1.2-34.4,2.5-68.7,3.7-103H307.8C306.6,217.5,305.4,251.7,304.1,286.1Z" transform="translate(-6.5 -4.6)" fill="#fff" stroke="#fff" stroke-linecap="round" stroke-linejoin="round" stroke-width="4"/><path d="M118.2,255.1c7.1,3.1,13.3,7.5,17.2,14.9,1.7,3.1,4.3,4.1,6.4,2.6s2.4-4.4.5-7.7c-.5-.9-1.1-1.8-1.7-2.7a42.35,42.35,0,0,0-16.2-13.9c-1.4-.7-1.9-1.5-1.9-3.3.3-6.7.6-13.5.7-20.2,0-1.8.6-2.4,2.2-3.1a108.69,108.69,0,0,0,12.9-7.2,19.25,19.25,0,0,0,7.2-9.5c1-2.8.3-5.2-1.7-6.2-2.2-1.1-4.1.2-5.7,2.8-1.4,2.4-3,4.9-5.1,6.3a100.42,100.42,0,0,1-13.1,6.6c-3.7,1.5-4.4,2.1-4.6,6.4-.2,4.7-.3,9.4-.5,14s-.3,9.3-.5,14C114.3,252.9,114.7,253.6,118.2,255.1Z" transform="translate(-6.5 -4.6)" fill="#fff" stroke="#fff" stroke-linecap="round" stroke-linejoin="round" stroke-width="4"/><path d="M281.9,248.2c-4.1,2.6-8.4,5.1-12.1,8.3-3.2,2.9-5.7,6.6-8.2,10.2a4.46,4.46,0,0,0,1,6,3.71,3.71,0,0,0,5.5-1.1c5-8.4,12-13.5,20.4-16.8a4.74,4.74,0,0,0,3.1-4.7c.1-5.1.4-10.1.5-15.2s.4-9.9.6-14.9c.1-3.5-.8-4.5-3.7-5.6a70.49,70.49,0,0,1-9.8-4.2c-3.5-1.9-6.5-4.5-8-8.8-.9-2.7-3-3.7-5.3-2.8s-3.2,3.4-2.3,6.1a22.78,22.78,0,0,0,3.2,6.2c4.1,5.5,9.8,8.5,15.8,10.8,1.5.6,2,1.3,1.9,3.1-.3,6.7-.6,13.5-.7,20.2C283.8,246.7,283.2,247.3,281.9,248.2Z" transform="translate(-6.5 -4.6)" fill="#fff" stroke="#fff" stroke-linecap="round" stroke-linejoin="round" stroke-width="4"/><path d="M203.1,253.6a15.58,15.58,0,0,1-8,.7c-2.6-.4-5.2-1.8-7.9-2.8a26,26,0,0,1-1,2.5c-1.4,2.5-.5,3.9,1.8,4.7,2.9.9,5.8,1.7,9,2.7-.1,2.4-.2,5.1-.3,7.8h5.2c.1-3,.2-5.7.3-8.4,1.6-.6,2.9-1,4.1-1.6,9.7-4.5,11.7-18.1,3.6-24.9a54.59,54.59,0,0,0-7-4.3c-2.1-1.2-4.3-2.1-6.1-3.7a8,8,0,0,1-2.4-4.5c-.6-4.2,2.1-7.9,6.3-7.9,3.9,0,7.7,1,12,1.6.4-1.1,1.1-2.9,2-5.3-3.4-1.1-6.6-2.1-10.1-3.2.1-2.2.2-4.8.3-7.5h-5.1c-.1,2.9-.2,5.5-.3,8.1-1.5.6-2.8,1-4.1,1.6-4.6,2.1-7.4,5.8-8.1,11.3s1.3,9.5,5.3,12.2c2.2,1.6,4.8,2.6,7.1,4,2.1,1.3,4.4,2.5,6.1,4.3C209.5,245,208.1,251.7,203.1,253.6Z" transform="translate(-6.5 -4.6)" fill="#fff" stroke="#fff" stroke-linecap="round" stroke-linejoin="round" stroke-width="4"/></svg>