<svg id="Capa_1" data-name="Capa 1" xmlns="http://www.w3.org/2000/svg" xmlns:xlink="http://www.w3.org/1999/xlink" viewBox="0 0 227.9 184.32"><defs><clipPath id="clip-path" transform="translate(2.03 -32.44)"><polygon points="-1.81 32.44 226.56 32.44 224.69 216.76 -3.69 216.76 -1.81 32.44" fill="none"/></clipPath><clipPath id="clip-path-2" transform="translate(2.03 -32.44)"><path d="M82.5,154.43s-6.67-1.07-15.32-3.39c-5.61-1.5-6.93-3.65-7.18-4.95l.82.29.5.17v0l.06,0,.31.09c1,.34,2.15.69,3.39,1,1.62.46,3.41.91,5.29,1.3s3.7.69,5.35.92c1.25.16,2.4.29,3.43.38l3.35,4.11m-21.18-8-.46-.15-.88-.3a2.29,2.29,0,0,1,.06-1l1.31-8c0,.4,0,.8,0,1.22-.06,2.45-.06,5.2,0,8.19" fill="none"/></clipPath></defs><polygon points="107.28 142.41 102.79 159.36 121.45 159.36 115.75 142.41 107.28 142.41 107.28 142.41" fill="#a3860d"/><polygon points="102.44 166.22 94.54 184.32 129.82 184.32 122.08 166.22 102.44 166.22 102.44 166.22" fill="#a3860d"/><polygon points="11.18 178.15 3.19 178.27 51.32 107.01 54.76 107.01 11.18 178.15 11.18 178.15" fill="#a3860d"/><polygon points="214.13 179.16 222.11 179.27 175.43 108.01 171.98 108.01 214.13 179.16 214.13 179.16" fill="#a3860d"/><polygon points="227.06 106.87 209.2 106.87 209.51 68.08 227.37 68.08 227.06 106.87 227.06 106.87" fill="#ebebeb"/><polygon points="226.98 106.87 218.05 106.87 218.44 68.08 227.37 68.08 226.98 106.87 226.98 106.87" fill="#e0e0df"/><polygon points="217.86 68.08 211.55 68.08 211.62 61.45 217.93 61.45 217.86 68.08 217.86 68.08" fill="#ebebeb"/><polygon points="217.86 68.08 216.36 68.08 216.42 61.45 217.93 61.45 217.86 68.08 217.86 68.08" fill="#e0e0df"/><polygon points="227.89 68.08 208.98 68.08 208.99 67.69 227.9 67.69 227.89 68.08 227.89 68.08" fill="#e0e0df"/><polygon points="214.48 74.78 212.97 74.78 213.01 70.97 214.52 70.97 214.48 74.78 214.48 74.78" fill="#fff"/><path d="M216.33,108.71s-2,.07-4.46.07-4.47,0-4.47-.07,2-.07,4.47-.07,4.46,0,4.46.07Z" transform="translate(2.03 -32.44)" fill="#e0e0df"/><polygon points="223.49 74.78 221.98 74.78 222.02 70.97 223.53 70.97 223.49 74.78 223.49 74.78" fill="#f5f4f4"/><path d="M225.34,108.71s-2,.07-4.47.07-4.46,0-4.46-.07,2-.07,4.47-.07,4.46,0,4.46.07Z" transform="translate(2.03 -32.44)" fill="#ebebeb"/><polygon points="223.41 82.33 221.9 82.33 221.94 78.52 223.45 78.52 223.41 82.33 223.41 82.33" fill="#f5f4f4"/><path d="M225.26,116.26s-2,.07-4.46.07-4.47,0-4.47-.07,2-.07,4.47-.07,4.46,0,4.46.07Z" transform="translate(2.03 -32.44)" fill="#ebebeb"/><polygon points="223.33 90.11 221.82 90.11 221.86 86.3 223.37 86.3 223.33 90.11 223.33 90.11" fill="#f5f4f4"/><path d="M225.18,124s-2,.07-4.46.07-4.47,0-4.46-.07,2-.07,4.46-.07,4.46,0,4.46.07Z" transform="translate(2.03 -32.44)" fill="#ebebeb"/><polygon points="223.25 97.88 221.74 97.88 221.78 94.08 223.29 94.08 223.25 97.88 223.25 97.88" fill="#f5f4f4"/><path d="M225.1,131.82s-2,.07-4.46.07-4.46,0-4.46-.07,2-.07,4.46-.07,4.46,0,4.46.07Z" transform="translate(2.03 -32.44)" fill="#ebebeb"/><polygon points="214.41 82.44 212.89 82.44 212.93 78.64 214.44 78.64 214.41 82.44 214.41 82.44" fill="#fff"/><path d="M216.26,116.38s-2,.07-4.47.07-4.46,0-4.46-.07,2-.08,4.46-.08,4.47,0,4.47.08Z" transform="translate(2.03 -32.44)" fill="#e0e0df"/><polygon points="214.33 90.11 212.81 90.11 212.85 86.31 214.37 86.31 214.33 90.11 214.33 90.11" fill="#fff"/><path d="M216.18,124s-2,.08-4.47.08-4.46,0-4.46-.08,2-.07,4.46-.07,4.47,0,4.47.07Z" transform="translate(2.03 -32.44)" fill="#e0e0df"/><polygon points="214.25 97.77 212.74 97.77 212.78 93.97 214.29 93.97 214.25 97.77 214.25 97.77" fill="#fff"/><path d="M216.1,131.71s-2,.07-4.47.07-4.46,0-4.46-.07,2-.07,4.47-.07,4.46,0,4.46.07Z" transform="translate(2.03 -32.44)" fill="#e0e0df"/><polyline points="67.05 106.8 47.18 106.8 48.19 7.4 68.06 7.4 67.05 106.8" fill="#f5f4f4"/><polyline points="67.05 106.55 57.12 106.55 58.13 7.4 68.06 7.4 67.05 106.55" fill="#ebebeb"/><polygon points="57.48 7.4 50.46 7.4 50.54 0 57.55 0 57.48 7.4 57.48 7.4" fill="#f5f4f4"/><polygon points="57.48 7.4 55.8 7.4 55.88 0 57.55 0 57.48 7.4 57.48 7.4" fill="#ebebeb"/><polyline points="46.54 7.4 46.54 6.97 68.64 6.97 68.64 7.4" fill="#e0e0df"/><polygon points="53.72 14.88 52.04 14.88 52.08 10.63 53.76 10.63 53.72 14.88 53.72 14.88" fill="#fbfbfb"/><path d="M56,49s-2.23.08-5,.08-5,0-5-.08,2.23-.08,5-.08,5,0,5,.08Z" transform="translate(2.03 -32.44)" fill="#e0e0df"/><polygon points="63.74 14.88 62.06 14.88 62.1 10.63 63.78 10.63 63.74 14.88 63.74 14.88" fill="#e0e0df"/><path d="M66,49s-2.22.08-5,.08-5,0-5-.08,2.23-.08,5-.08,5,0,5,.08Z" transform="translate(2.03 -32.44)" fill="#e0e0df"/><polygon points="63.65 23.31 61.97 23.31 62.01 19.07 63.7 19.07 63.65 23.31 63.65 23.31" fill="#e0e0df"/><path d="M65.94,57.42s-2.23.08-5,.08-5,0-5-.08,2.22-.08,5-.08,5,0,5,.08Z" transform="translate(2.03 -32.44)" fill="#e0e0df"/><polygon points="63.56 32 61.88 32 61.93 27.75 63.61 27.75 63.56 32 63.56 32" fill="#e0e0df"/><path d="M65.85,66.11s-2.22.08-5,.08-5,0-5-.08,2.22-.08,5-.08,5,0,5,.08Z" transform="translate(2.03 -32.44)" fill="#e0e0df"/><polygon points="63.48 40.69 61.79 40.69 61.84 36.44 63.52 36.44 63.48 40.69 63.48 40.69" fill="#e0e0df"/><path d="M65.76,74.79s-2.22.09-5,.09-5,0-5-.09,2.22-.08,5-.08,5,0,5,.08Z" transform="translate(2.03 -32.44)" fill="#e0e0df"/><polygon points="63.39 49.12 61.71 49.12 61.75 44.88 63.43 44.88 63.39 49.12 63.39 49.12" fill="#e0e0df"/><path d="M65.68,83.23s-2.23.08-5,.08-5,0-5-.08,2.23-.08,5-.08,5,0,5,.08Z" transform="translate(2.03 -32.44)" fill="#e0e0df"/><polygon points="63.3 57.6 61.62 57.6 61.67 53.35 63.35 53.35 63.3 57.6 63.3 57.6" fill="#e0e0df"/><polygon points="63.22 66.18 61.53 66.18 61.58 61.93 63.26 61.93 63.22 66.18 63.22 66.18" fill="#e0e0df"/><path d="M65.59,91.71s-2.22.08-5,.08-5,0-5-.08,2.22-.09,5-.09,5,0,5,.09Z" transform="translate(2.03 -32.44)" fill="#e0e0df"/><polygon points="53.63 23.44 51.95 23.44 51.99 19.19 53.68 19.19 53.63 23.44 53.63 23.44" fill="#fbfbfb"/><path d="M55.92,57.55s-2.23.08-5,.08-5,0-5-.08,2.22-.08,5-.08,5,0,5,.08Z" transform="translate(2.03 -32.44)" fill="#e0e0df"/><polygon points="53.55 32 51.87 32 51.91 27.75 53.59 27.75 53.55 32 53.55 32" fill="#fbfbfb"/><path d="M55.83,66.11s-2.22.08-5,.08-5,0-5-.08,2.22-.08,5-.08,5,0,5,.08Z" transform="translate(2.03 -32.44)" fill="#e0e0df"/><polygon points="53.46 40.56 51.78 40.56 51.82 36.32 53.5 36.32 53.46 40.56 53.46 40.56" fill="#fbfbfb"/><path d="M55.74,74.67s-2.22.08-5,.08-5,0-5-.08,2.23-.08,5-.08,5,0,5,.08Z" transform="translate(2.03 -32.44)" fill="#e0e0df"/><polygon points="53.37 49.12 51.69 49.12 51.73 44.88 53.41 44.88 53.37 49.12 53.37 49.12" fill="#fbfbfb"/><path d="M55.66,83.23s-2.23.08-5,.08-5,0-5-.08,2.22-.08,5-.08,5,0,5,.08Z" transform="translate(2.03 -32.44)" fill="#e0e0df"/><polygon points="53.28 57.69 51.6 57.69 51.65 53.44 53.33 53.44 53.28 57.69 53.28 57.69" fill="#fbfbfb"/><path d="M55.57,91.79s-2.22.09-5,.09-5,0-5-.09,2.22-.08,5-.08,5,0,5,.08Z" transform="translate(2.03 -32.44)" fill="#e0e0df"/><polygon points="53.2 66.25 51.52 66.25 51.56 62 53.24 62 53.2 66.25 53.2 66.25" fill="#fbfbfb"/><polygon points="29.5 107.01 9.63 107.01 10.4 31.59 30.26 31.59 29.5 107.01 29.5 107.01" fill="#f5f4f4"/><polygon points="29.5 106.8 19.57 106.8 20.33 31.59 30.26 31.59 29.5 106.8 29.5 106.8" fill="#ebebeb"/><polygon points="19.68 31.59 12.67 31.59 12.74 24.19 19.76 24.19 19.68 31.59 19.68 31.59" fill="#f5f4f4"/><polygon points="19.68 31.59 18.01 31.59 18.09 24.19 19.76 24.19 19.68 31.59 19.68 31.59" fill="#ebebeb"/><polyline points="8.74 31.59 8.75 31.16 30.85 31.16 30.84 31.59" fill="#e0e0df"/><polygon points="15.93 39.07 14.24 39.07 14.29 34.82 15.97 34.82 15.93 39.07 15.93 39.07" fill="#fbfbfb"/><path d="M18.21,73.18s-2.22.08-5,.08-5,0-5-.08,2.22-.08,5-.08,5,0,5,.08Z" transform="translate(2.03 -32.44)" fill="#e0e0df"/><polygon points="25.94 39.07 24.26 39.07 24.3 34.82 25.99 34.82 25.94 39.07 25.94 39.07" fill="#e0e0df"/><path d="M28.23,73.18s-2.23.08-5,.08-5,0-5-.08,2.22-.08,5-.08,5,0,5,.08Z" transform="translate(2.03 -32.44)" fill="#e0e0df"/><polygon points="25.86 47.5 24.18 47.5 24.22 43.26 25.9 43.26 25.86 47.5 25.86 47.5" fill="#e0e0df"/><path d="M28.14,81.61s-2.22.08-5,.08-5,0-5-.08,2.23-.08,5-.08,5,0,5,.08Z" transform="translate(2.03 -32.44)" fill="#e0e0df"/><polygon points="25.77 56.19 24.09 56.19 24.13 51.94 25.81 51.94 25.77 56.19 25.77 56.19" fill="#e0e0df"/><path d="M28.06,90.3s-2.23.08-5,.08-5,0-5-.08,2.23-.08,5-.08,5,0,5,.08Z" transform="translate(2.03 -32.44)" fill="#e0e0df"/><polygon points="25.68 64.88 24 64.88 24.04 60.63 25.72 60.63 25.68 64.88 25.68 64.88" fill="#e0e0df"/><path d="M28,99s-2.23.09-5,.09-5,0-5-.09,2.22-.08,5-.08,5,0,5,.08Z" transform="translate(2.03 -32.44)" fill="#e0e0df"/><polygon points="25.59 73.31 23.91 73.31 23.96 69.07 25.64 69.07 25.59 73.31 25.59 73.31" fill="#e0e0df"/><path d="M27.88,107.42s-2.22.08-5,.08-5,0-5-.08,2.22-.08,5-.08,5,0,5,.08Z" transform="translate(2.03 -32.44)" fill="#e0e0df"/><polygon points="25.51 81.78 23.83 81.78 23.87 77.54 25.55 77.54 25.51 81.78 25.51 81.78" fill="#e0e0df"/><polygon points="25.42 90.37 23.74 90.37 23.78 86.12 25.46 86.12 25.42 90.37 25.42 90.37" fill="#e0e0df"/><path d="M27.79,115.89s-2.22.09-5,.09-5,0-5-.09,2.23-.08,5-.08,5,0,5,.08Z" transform="translate(2.03 -32.44)" fill="#e0e0df"/><polygon points="15.84 47.63 14.16 47.63 14.2 43.38 15.88 43.38 15.84 47.63 15.84 47.63" fill="#fbfbfb"/><path d="M18.12,81.74s-2.22.08-5,.08-5,0-5-.08,2.23-.08,5-.08,5,0,5,.08Z" transform="translate(2.03 -32.44)" fill="#e0e0df"/><polygon points="15.75 56.19 14.07 56.19 14.11 51.94 15.79 51.94 15.75 56.19 15.75 56.19" fill="#fbfbfb"/><path d="M18,90.3s-2.23.08-5,.08-5,0-5-.08,2.22-.08,5-.08,5,0,5,.08Z" transform="translate(2.03 -32.44)" fill="#e0e0df"/><polygon points="15.66 64.75 13.98 64.75 14.03 60.51 15.71 60.51 15.66 64.75 15.66 64.75" fill="#fbfbfb"/><path d="M18,98.86s-2.22.08-5,.08-5,0-5-.08,2.22-.08,5-.08,5,0,5,.08Z" transform="translate(2.03 -32.44)" fill="#e0e0df"/><polygon points="15.58 73.31 13.9 73.31 13.94 69.07 15.62 69.07 15.58 73.31 15.58 73.31" fill="#fbfbfb"/><path d="M17.86,107.42s-2.22.08-5,.08-5,0-5-.08,2.23-.08,5-.08,5,0,5,.08Z" transform="translate(2.03 -32.44)" fill="#e0e0df"/><polygon points="15.49 81.87 13.81 81.87 13.85 77.63 15.53 77.63 15.49 81.87 15.49 81.87" fill="#fbfbfb"/><path d="M17.78,116s-2.23.08-5,.08-5,0-5-.08,2.23-.08,5-.08,5,0,5,.08Z" transform="translate(2.03 -32.44)" fill="#e0e0df"/><polygon points="15.4 90.44 13.72 90.44 13.77 86.19 15.45 86.19 15.4 90.44 15.4 90.44" fill="#fbfbfb"/><polygon points="190.08 66.65 174.95 66.65 175.54 9.21 190.67 9.21 190.08 66.65 190.08 66.65" fill="#f5f4f4"/><polygon points="190.09 66.49 182.52 66.49 183.1 9.21 190.67 9.21 190.09 66.49 190.09 66.49" fill="#ebebeb"/><polygon points="182.61 9.21 177.27 9.21 177.32 3.57 182.67 3.57 182.61 9.21 182.61 9.21" fill="#f5f4f4"/><polygon points="182.61 9.21 181.34 9.21 181.39 3.57 182.67 3.57 182.61 9.21 182.61 9.21" fill="#ebebeb"/><polyline points="174.28 9.21 174.28 8.88 191.12 8.88 191.11 9.21" fill="#e0e0df"/><polygon points="179.75 14.9 178.47 14.9 178.5 11.66 179.78 11.66 179.75 14.9 179.75 14.9" fill="#fbfbfb"/><path d="M181,48.61s-1.7.06-3.79.06-3.78,0-3.78-.06,1.7-.06,3.78-.06,3.79,0,3.79.06Z" transform="translate(2.03 -32.44)" fill="#e0e0df"/><polygon points="187.38 14.9 186.1 14.9 186.13 11.66 187.41 11.66 187.38 14.9 187.38 14.9" fill="#e0e0df"/><path d="M188.64,48.61s-1.7.06-3.79.06-3.78,0-3.78-.06,1.7-.06,3.79-.06,3.78,0,3.78.06Z" transform="translate(2.03 -32.44)" fill="#e0e0df"/><polygon points="187.31 21.32 186.03 21.32 186.07 18.09 187.35 18.09 187.31 21.32 187.31 21.32" fill="#e0e0df"/><path d="M188.57,55s-1.69.06-3.78.06S181,55.07,181,55s1.69-.07,3.78-.07,3.78,0,3.78.07Z" transform="translate(2.03 -32.44)" fill="#e0e0df"/><polygon points="187.25 27.94 185.97 27.94 186 24.7 187.28 24.7 187.25 27.94 187.25 27.94" fill="#e0e0df"/><path d="M188.5,61.65s-1.69.06-3.78.06-3.78,0-3.78-.06,1.69-.06,3.78-.06,3.78,0,3.78.06Z" transform="translate(2.03 -32.44)" fill="#e0e0df"/><polygon points="187.18 34.56 185.9 34.56 185.93 31.32 187.21 31.32 187.18 34.56 187.18 34.56" fill="#e0e0df"/><path d="M188.44,68.27s-1.7.06-3.79.06-3.78,0-3.78-.06,1.7-.06,3.79-.06,3.78,0,3.78.06Z" transform="translate(2.03 -32.44)" fill="#e0e0df"/><polygon points="187.11 40.98 185.83 40.98 185.87 37.75 187.15 37.75 187.11 40.98 187.11 40.98" fill="#e0e0df"/><path d="M188.37,74.7s-1.69.06-3.78.06-3.78,0-3.78-.06,1.69-.06,3.78-.06,3.78,0,3.78.06Z" transform="translate(2.03 -32.44)" fill="#e0e0df"/><polygon points="187.05 47.44 185.77 47.44 185.8 44.2 187.08 44.2 187.05 47.44 187.05 47.44" fill="#e0e0df"/><polygon points="186.98 53.98 185.7 53.98 185.73 50.74 187.01 50.74 186.98 53.98 186.98 53.98" fill="#e0e0df"/><path d="M188.31,81.15s-1.7.06-3.79.06-3.78,0-3.78-.06,1.7-.06,3.78-.06,3.79,0,3.79.06Z" transform="translate(2.03 -32.44)" fill="#e0e0df"/><polygon points="179.68 21.42 178.4 21.42 178.43 18.19 179.71 18.19 179.68 21.42 179.68 21.42" fill="#fbfbfb"/><path d="M180.94,55.13s-1.69.07-3.78.07-3.79,0-3.79-.07,1.7-.06,3.79-.06,3.78,0,3.78.06Z" transform="translate(2.03 -32.44)" fill="#e0e0df"/><polygon points="179.62 27.94 178.33 27.94 178.37 24.71 179.65 24.71 179.62 27.94 179.62 27.94" fill="#fbfbfb"/><path d="M180.87,61.65s-1.69.07-3.78.07-3.78,0-3.78-.07,1.69-.06,3.78-.06,3.78,0,3.78.06Z" transform="translate(2.03 -32.44)" fill="#e0e0df"/><polygon points="179.55 34.46 178.27 34.46 178.3 31.23 179.58 31.23 179.55 34.46 179.55 34.46" fill="#fbfbfb"/><path d="M180.81,68.18s-1.7.06-3.79.06-3.78,0-3.78-.06,1.7-.07,3.79-.07,3.78,0,3.78.07Z" transform="translate(2.03 -32.44)" fill="#e0e0df"/><polygon points="179.48 40.98 178.2 40.98 178.24 37.75 179.52 37.75 179.48 40.98 179.48 40.98" fill="#fbfbfb"/><path d="M180.74,74.7s-1.69.06-3.78.06-3.78,0-3.78-.06,1.69-.06,3.78-.06,3.78,0,3.78.06Z" transform="translate(2.03 -32.44)" fill="#e0e0df"/><polygon points="179.42 47.51 178.13 47.51 178.17 44.27 179.45 44.27 179.42 47.51 179.42 47.51" fill="#fbfbfb"/><path d="M180.67,81.22s-1.69.06-3.78.06-3.78,0-3.78-.06,1.69-.06,3.78-.06,3.79,0,3.78.06Z" transform="translate(2.03 -32.44)" fill="#e0e0df"/><polygon points="179.35 54.03 178.07 54.03 178.1 50.79 179.38 50.79 179.35 54.03 179.35 54.03" fill="#fbfbfb"/><polygon points="207.15 106.87 188.69 106.87 189.4 36.76 207.86 36.76 207.15 106.87 207.15 106.87" fill="#f5f4f4"/><polygon points="207.15 106.68 197.92 106.68 198.63 36.76 207.86 36.76 207.15 106.68 207.15 106.68" fill="#ebebeb"/><polygon points="198.03 36.76 191.51 36.76 191.58 29.88 198.1 29.88 198.03 36.76 198.03 36.76" fill="#f5f4f4"/><polygon points="198.03 36.76 196.47 36.76 196.54 29.88 198.1 29.88 198.03 36.76 198.03 36.76" fill="#ebebeb"/><polyline points="187.86 36.76 187.86 36.36 208.41 36.36 208.4 36.76" fill="#e0e0df"/><polygon points="194.53 43.71 192.97 43.71 193.01 39.76 194.57 39.76 194.53 43.71 194.53 43.71" fill="#fbfbfb"/><path d="M196.52,77.7s-2.07.08-4.62.08-4.62,0-4.62-.08,2.07-.07,4.62-.07,4.62,0,4.62.07Z" transform="translate(2.03 -32.44)" fill="#e0e0df"/><polygon points="203.85 43.71 202.28 43.71 202.33 39.76 203.89 39.76 203.85 43.71 203.85 43.71" fill="#e0e0df"/><path d="M205.83,77.7s-2.07.08-4.62.08-4.61,0-4.61-.08,2.07-.07,4.62-.07,4.61,0,4.61.07Z" transform="translate(2.03 -32.44)" fill="#e0e0df"/><polygon points="203.77 51.55 202.21 51.55 202.25 47.6 203.81 47.6 203.77 51.55 203.77 51.55" fill="#e0e0df"/><path d="M205.75,85.54s-2.07.08-4.62.08-4.61,0-4.61-.08,2.07-.07,4.62-.07,4.61,0,4.61.07Z" transform="translate(2.03 -32.44)" fill="#e0e0df"/><polygon points="203.69 59.63 202.12 59.63 202.16 55.68 203.73 55.68 203.69 59.63 203.69 59.63" fill="#e0e0df"/><path d="M205.67,93.62s-2.07.08-4.62.08-4.61,0-4.61-.08,2.06-.08,4.61-.08,4.62,0,4.62.08Z" transform="translate(2.03 -32.44)" fill="#e0e0df"/><polygon points="203.6 67.7 202.04 67.7 202.08 63.76 203.65 63.76 203.6 67.7 203.6 67.7" fill="#e0e0df"/><path d="M205.59,101.7s-2.07.07-4.62.07-4.62,0-4.62-.07,2.07-.08,4.62-.08,4.62,0,4.62.08Z" transform="translate(2.03 -32.44)" fill="#e0e0df"/><polygon points="203.53 75.55 201.96 75.55 202 71.6 203.56 71.6 203.53 75.55 203.53 75.55" fill="#e0e0df"/><path d="M205.51,109.54s-2.07.08-4.62.08-4.62,0-4.62-.08,2.07-.08,4.62-.08,4.62,0,4.62.08Z" transform="translate(2.03 -32.44)" fill="#e0e0df"/><polygon points="203.44 83.42 201.88 83.42 201.92 79.48 203.49 79.48 203.44 83.42 203.44 83.42" fill="#e0e0df"/><polygon points="203.36 91.41 201.8 91.41 201.84 87.46 203.4 87.46 203.36 91.41 203.36 91.41" fill="#e0e0df"/><path d="M205.43,117.42s-2.07.07-4.62.07-4.62,0-4.62-.07,2.07-.08,4.62-.08,4.62,0,4.62.08Z" transform="translate(2.03 -32.44)" fill="#e0e0df"/><polygon points="194.45 51.67 192.89 51.67 192.93 47.72 194.5 47.72 194.45 51.67 194.45 51.67" fill="#fbfbfb"/><path d="M196.44,85.66s-2.07.08-4.62.08-4.62,0-4.62-.08,2.07-.07,4.62-.07,4.62,0,4.62.07Z" transform="translate(2.03 -32.44)" fill="#e0e0df"/><polygon points="194.37 59.63 192.81 59.63 192.85 55.68 194.41 55.68 194.37 59.63 194.37 59.63" fill="#fbfbfb"/><path d="M196.36,93.62s-2.07.08-4.62.08-4.62,0-4.62-.08,2.07-.07,4.62-.07,4.62,0,4.62.07Z" transform="translate(2.03 -32.44)" fill="#e0e0df"/><polygon points="194.29 67.59 192.73 67.59 192.77 63.64 194.33 63.64 194.29 67.59 194.29 67.59" fill="#fbfbfb"/><path d="M196.28,101.58s-2.07.08-4.62.08-4.62,0-4.62-.08,2.07-.07,4.62-.07,4.62,0,4.62.07Z" transform="translate(2.03 -32.44)" fill="#e0e0df"/><polygon points="194.21 75.55 192.65 75.55 192.69 71.6 194.25 71.6 194.21 75.55 194.21 75.55" fill="#fbfbfb"/><path d="M196.19,109.54s-2.06.08-4.61.08-4.62,0-4.62-.08,2.07-.08,4.62-.08,4.61,0,4.61.08Z" transform="translate(2.03 -32.44)" fill="#e0e0df"/><polygon points="194.13 83.51 192.57 83.51 192.61 79.56 194.17 79.56 194.13 83.51 194.13 83.51" fill="#fbfbfb"/><path d="M196.11,117.5s-2.06.07-4.61.07-4.62,0-4.62-.07,2.07-.08,4.62-.08,4.61,0,4.61.08Z" transform="translate(2.03 -32.44)" fill="#e0e0df"/><polygon points="194.05 91.47 192.49 91.47 192.53 87.52 194.09 87.52 194.05 91.47 194.05 91.47" fill="#fbfbfb"/><polyline points="189.13 106.87 157.44 106.87 157.94 56.78 189.64 56.78 189.13 106.87" fill="#ebebeb"/><polygon points="174.78 56.78 174.27 106.87 189.13 106.87 189.64 56.78 174.78 56.78 174.78 56.78" fill="#e0e0df"/><polygon points="167.29 71.86 164.44 71.86 164.52 63.56 167.37 63.56 167.29 71.86 167.29 71.86" fill="#f5f4f4"/><polygon points="166.96 104.33 164.11 104.33 164.19 96.03 167.04 96.03 166.96 104.33 166.96 104.33" fill="#f5f4f4"/><path d="M172.57,107.56c0,.09-3.77.17-8.42.17s-8.42-.08-8.42-.17,3.77-.17,8.42-.17,8.42.08,8.42.17Z" transform="translate(2.03 -32.44)" fill="#f5f4f4"/><polygon points="167.12 88.22 164.27 88.22 164.35 79.92 167.21 79.92 167.12 88.22 167.12 88.22" fill="#f5f4f4"/><path d="M172.4,123.91c0,.1-3.77.17-8.42.17s-8.42-.07-8.42-.17,3.77-.16,8.42-.16,8.42.07,8.42.16Z" transform="translate(2.03 -32.44)" fill="#f5f4f4"/><polygon points="180.63 71.86 177.78 71.86 177.87 63.56 180.72 63.56 180.63 71.86 180.63 71.86" fill="#f5f4f4"/><polygon points="186.82 71.86 183.97 71.86 184.05 63.56 186.9 63.56 186.82 71.86 186.82 71.86" fill="#f5f4f4"/><polygon points="180.47 87.6 177.62 87.6 177.71 79.31 180.56 79.31 180.47 87.6 180.47 87.6" fill="#f5f4f4"/><polygon points="186.66 87.6 183.81 87.6 183.89 79.31 186.74 79.31 186.66 87.6 186.66 87.6" fill="#f5f4f4"/><polygon points="180.31 103.34 177.46 103.34 177.55 95.05 180.4 95.05 180.31 103.34 180.31 103.34" fill="#f5f4f4"/><polygon points="186.5 103.34 183.65 103.34 183.73 95.05 186.58 95.05 186.5 103.34 186.5 103.34" fill="#f5f4f4"/><polygon points="192.02 56.85 155.56 56.85 155.58 55.04 192.04 55.04 192.02 56.85 192.02 56.85" fill="#e0e0df"/><path d="M187.83,89.46c0,.09-7.08.17-15.82.17s-15.82-.08-15.82-.17,7.08-.17,15.82-.17,15.83.08,15.82.17Z" transform="translate(2.03 -32.44)" fill="#ebebeb"/><polygon points="62.07 106.7 32.85 106.7 33.28 51.36 62.51 51.36 62.07 106.7 62.07 106.7" fill="#ebebeb"/><polygon points="61.95 106.7 47.33 106.7 47.9 51.36 62.51 51.36 61.95 106.7 61.95 106.7" fill="#e0e0df"/><polygon points="46.94 51.36 36.62 51.36 36.73 40.47 47.05 40.47 46.94 51.36 46.94 51.36" fill="#ebebeb"/><polygon points="46.94 51.36 44.48 51.36 44.59 40.47 47.05 40.47 46.94 51.36 46.94 51.36" fill="#e0e0df"/><polygon points="63.37 51.36 30.84 51.36 30.85 50.73 63.37 50.73 63.37 51.36 63.37 51.36" fill="#e0e0df"/><polygon points="41.41 62.36 38.94 62.36 39 56.11 41.48 56.11 41.41 62.36 41.41 62.36" fill="#fff"/><path d="M45.73,97.26c0,.06-3.27.12-7.31.12s-7.3-.06-7.3-.12,3.27-.12,7.31-.12,7.3,0,7.3.12Z" transform="translate(2.03 -32.44)" fill="#e0e0df"/><polygon points="56.15 62.36 53.68 62.36 53.74 56.11 56.22 56.11 56.15 62.36 56.15 62.36" fill="#f5f4f4"/><path d="M60.47,97.26c0,.06-3.27.12-7.3.12s-7.31-.06-7.31-.12,3.27-.12,7.31-.12,7.3,0,7.3.12Z" transform="translate(2.03 -32.44)" fill="#ebebeb"/><polygon points="56.03 74.77 53.55 74.77 53.62 68.52 56.09 68.52 56.03 74.77 56.03 74.77" fill="#f5f4f4"/><path d="M60.35,109.66c0,.07-3.28.12-7.31.12s-7.31,0-7.31-.12,3.28-.11,7.31-.11,7.31,0,7.31.11Z" transform="translate(2.03 -32.44)" fill="#ebebeb"/><polygon points="55.9 87.55 53.42 87.55 53.49 81.3 55.96 81.3 55.9 87.55 55.9 87.55" fill="#f5f4f4"/><path d="M60.22,122.45c0,.06-3.28.12-7.31.12s-7.31-.06-7.31-.12,3.28-.12,7.31-.12,7.31,0,7.31.12Z" transform="translate(2.03 -32.44)" fill="#ebebeb"/><polygon points="55.77 100.33 53.29 100.33 53.36 94.08 55.83 94.08 55.77 100.33 55.77 100.33" fill="#f5f4f4"/><path d="M60.09,135.23c0,.07-3.28.12-7.31.12s-7.31,0-7.31-.12,3.28-.12,7.31-.12,7.31,0,7.31.12Z" transform="translate(2.03 -32.44)" fill="#ebebeb"/><polygon points="41.28 74.96 38.81 74.96 38.87 68.71 41.35 68.71 41.28 74.96 41.28 74.96" fill="#fff"/><path d="M45.6,109.85c0,.07-3.27.12-7.3.12s-7.31,0-7.31-.12,3.27-.11,7.31-.11,7.3.05,7.3.11Z" transform="translate(2.03 -32.44)" fill="#e0e0df"/><polygon points="41.16 87.56 38.68 87.56 38.75 81.31 41.22 81.31 41.16 87.56 41.16 87.56" fill="#fff"/><path d="M45.48,122.45c0,.07-3.28.12-7.31.12s-7.31,0-7.31-.12,3.27-.12,7.31-.12,7.31.06,7.31.12Z" transform="translate(2.03 -32.44)" fill="#e0e0df"/><polygon points="41.03 100.15 38.55 100.15 38.62 93.91 41.09 93.91 41.03 100.15 41.03 100.15" fill="#fff"/><path d="M45.35,135.05c0,.07-3.28.12-7.31.12s-7.31,0-7.31-.12,3.28-.12,7.31-.12,7.31,0,7.31.12Z" transform="translate(2.03 -32.44)" fill="#e0e0df"/><polyline points="91.59 78.51 67.1 78.51 67.47 32.33 91.96 32.33 91.59 78.51" fill="#ebebeb"/><polyline points="91.49 78.51 79.24 78.51 79.71 32.33 91.96 32.33 91.49 78.51" fill="#e0e0df"/><polygon points="78.91 32.33 70.26 32.33 70.36 23.23 79 23.23 78.91 32.33 78.91 32.33" fill="#ebebeb"/><polygon points="78.91 32.33 76.85 32.33 76.94 23.23 79 23.23 78.91 32.33 78.91 32.33" fill="#e0e0df"/><polygon points="92.67 32.33 65.43 32.33 65.43 31.8 92.68 31.8 92.67 32.33 92.67 32.33" fill="#e0e0df"/><polygon points="74.28 41.51 72.21 41.51 72.26 36.29 74.33 36.29 74.28 41.51 74.28 41.51" fill="#fff"/><path d="M77.57,76s-2.74.1-6.12.1-6.12,0-6.12-.1,2.74-.1,6.12-.1,6.12,0,6.12.1Z" transform="translate(2.03 -32.44)" fill="#e0e0df"/><polygon points="86.63 41.51 84.56 41.51 84.61 36.29 86.69 36.29 86.63 41.51 86.63 41.51" fill="#f5f4f4"/><path d="M89.92,76s-2.74.1-6.12.1-6.12,0-6.12-.1,2.74-.1,6.12-.1,6.12,0,6.12.1Z" transform="translate(2.03 -32.44)" fill="#ebebeb"/><polygon points="86.53 51.86 84.45 51.86 84.51 46.65 86.58 46.65 86.53 51.86 86.53 51.86" fill="#f5f4f4"/><path d="M89.82,86.35c0,.06-2.75.1-6.13.1s-6.12,0-6.12-.1,2.74-.1,6.13-.1,6.12,0,6.12.1Z" transform="translate(2.03 -32.44)" fill="#ebebeb"/><polyline points="86.42 62.53 84.34 62.53 84.4 57.31 86.47 57.31 86.42 62.53" fill="#f5f4f4"/><path d="M89.71,97s-2.74.1-6.12.1-6.13-.05-6.13-.1,2.75-.1,6.13-.1,6.12,0,6.12.1" transform="translate(2.03 -32.44)" fill="#ebebeb"/><polyline points="86.31 73.2 84.24 73.2 84.29 67.98 86.36 67.98 86.31 73.2" fill="#f5f4f4"/><path d="M89.6,107.69s-2.74.1-6.12.1-6.12-.05-6.12-.1,2.74-.1,6.12-.1,6.12,0,6.12.1" transform="translate(2.03 -32.44)" fill="#ebebeb"/><polygon points="74.17 52.02 72.1 52.02 72.15 46.8 74.23 46.8 74.17 52.02 74.17 52.02" fill="#fff"/><path d="M77.46,86.51s-2.74.1-6.12.1-6.12,0-6.12-.1,2.74-.1,6.12-.1,6.12,0,6.12.1Z" transform="translate(2.03 -32.44)" fill="#e0e0df"/><polygon points="74.07 62.53 71.99 62.53 72.05 57.32 74.12 57.32 74.07 62.53 74.07 62.53" fill="#fff"/><path d="M77.36,97c0,.06-2.74.1-6.13.1s-6.12,0-6.12-.1,2.74-.1,6.13-.1,6.12,0,6.12.1" transform="translate(2.03 -32.44)" fill="#e0e0df"/><polygon points="73.96 73.05 71.89 73.05 71.94 67.83 74.01 67.83 73.96 73.05 73.96 73.05" fill="#fff"/><path d="M77.25,107.54s-2.74.1-6.12.1-6.12,0-6.12-.1,2.74-.1,6.12-.1,6.12,0,6.12.1Z" transform="translate(2.03 -32.44)" fill="#e0e0df"/><polyline points="164.07 99.19 139.58 99.19 140.2 27.5 164.69 27.5 164.07 99.19" fill="#ebebeb"/><polyline points="163.96 99.19 151.71 99.19 152.44 27.5 164.69 27.5 163.96 99.19" fill="#e0e0df"/><polygon points="151.64 27.5 143 27.5 143.09 18.41 151.74 18.41 151.64 27.5 151.64 27.5" fill="#ebebeb"/><polygon points="151.64 27.5 149.58 27.5 149.67 18.41 151.74 18.41 151.64 27.5 151.64 27.5" fill="#e0e0df"/><polygon points="165.41 27.5 139.47 27.5 139.47 26.97 165.41 26.97 165.41 27.5 165.41 27.5" fill="#e0e0df"/><polygon points="147.01 36.69 144.94 36.69 144.99 31.47 147.06 31.47 147.01 36.69 147.01 36.69" fill="#fff"/><path d="M150.3,71.17c0,.06-2.74.1-6.12.1s-6.12,0-6.12-.1,2.74-.1,6.12-.1,6.12.05,6.12.1Z" transform="translate(2.03 -32.44)" fill="#e0e0df"/><polygon points="159.36 36.69 157.29 36.69 157.34 31.47 159.42 31.47 159.36 36.69 159.36 36.69" fill="#f5f4f4"/><path d="M162.65,71.17c0,.06-2.74.1-6.12.1s-6.12,0-6.12-.1,2.74-.1,6.12-.1,6.12.05,6.12.1Z" transform="translate(2.03 -32.44)" fill="#ebebeb"/><polygon points="159.26 47.04 157.19 47.04 157.24 41.82 159.31 41.82 159.26 47.04 159.26 47.04" fill="#f5f4f4"/><path d="M162.55,81.53s-2.74.1-6.12.1-6.13,0-6.13-.1,2.75-.1,6.13-.1,6.12,0,6.12.1Z" transform="translate(2.03 -32.44)" fill="#ebebeb"/><polygon points="159.15 57.71 157.08 57.71 157.13 52.49 159.2 52.49 159.15 57.71 159.15 57.71" fill="#f5f4f4"/><path d="M162.44,92.2s-2.74.1-6.12.1-6.12,0-6.12-.1,2.74-.1,6.12-.1,6.12,0,6.12.1Z" transform="translate(2.03 -32.44)" fill="#ebebeb"/><polygon points="159.04 68.38 156.97 68.38 157.02 63.16 159.09 63.16 159.04 68.38 159.04 68.38" fill="#f5f4f4"/><path d="M162.33,102.87s-2.74.1-6.12.1-6.12,0-6.12-.1,2.74-.1,6.12-.1,6.12,0,6.12.1Z" transform="translate(2.03 -32.44)" fill="#ebebeb"/><polygon points="146.91 47.2 144.83 47.2 144.89 41.98 146.96 41.98 146.91 47.2 146.91 47.2" fill="#fff"/><path d="M150.2,81.69s-2.75.1-6.13.1-6.12-.05-6.12-.1,2.74-.1,6.12-.1,6.13,0,6.13.1Z" transform="translate(2.03 -32.44)" fill="#e0e0df"/><polygon points="146.8 57.71 144.73 57.71 144.78 52.5 146.85 52.5 146.8 57.71 146.8 57.71" fill="#fff"/><path d="M150.09,92.2c0,.06-2.74.1-6.12.1s-6.13,0-6.13-.1,2.75-.1,6.13-.1,6.12.05,6.12.1Z" transform="translate(2.03 -32.44)" fill="#e0e0df"/><polygon points="146.69 68.22 144.62 68.22 144.67 63.01 146.75 63.01 146.69 68.22 146.69 68.22" fill="#fff"/><path d="M150,102.71c0,.06-2.74.1-6.12.1s-6.12,0-6.12-.1,2.74-.09,6.12-.09,6.12,0,6.12.09Z" transform="translate(2.03 -32.44)" fill="#e0e0df"/><path d="M123.81,61.45c.18-1.55-1.49-2.84-2.75-3a5.45,5.45,0,0,1-1.8-.2c-1.23-.57-1.7-2.66-2.9-3.32a2.77,2.77,0,0,0-2.82.52,6.55,6.55,0,0,1-2.73,1.38c-.85.07-1.77-.34-2.52.2-.56.41-.86,1.24-1.37,1.74a2.71,2.71,0,0,1-1.78.62,4.16,4.16,0,0,0-1.83.39,2,2,0,0,0-.94,1.92l21.44-.28Z" transform="translate(2.03 -32.44)" fill="#ebebeb"/><path d="M225.59,46.94c.18-1.56-1.49-2.84-2.76-3a5.66,5.66,0,0,1-1.79-.2c-1.23-.57-1.71-2.66-2.91-3.32a2.77,2.77,0,0,0-2.82.52,6.55,6.55,0,0,1-2.73,1.38c-.85.07-1.77-.34-2.52.2-.55.41-.85,1.24-1.37,1.73a2.65,2.65,0,0,1-1.78.63,4,4,0,0,0-1.83.39,2,2,0,0,0-.93,1.92l21.44-.28Z" transform="translate(2.03 -32.44)" fill="#ebebeb"/><path d="M92.3,41.8c.18-1.56-1.49-2.84-2.75-3a5.36,5.36,0,0,1-1.79-.2c-1.24-.56-1.71-2.65-2.91-3.32a2.79,2.79,0,0,0-2.82.52A6.43,6.43,0,0,1,79.3,37.2c-.85.08-1.77-.34-2.52.21-.56.4-.85,1.24-1.37,1.73a2.75,2.75,0,0,1-1.78.63,3.9,3.9,0,0,0-1.83.39,2,2,0,0,0-.93,1.91L92.3,41.8Z" transform="translate(2.03 -32.44)" fill="#f5f4f4"/><g clip-path="url(#clip-path)"><path d="M163.7,41.43c.13-1.12-1.08-2-2-2.15a3.74,3.74,0,0,1-1.29-.14c-.89-.41-1.23-1.92-2.1-2.4a2,2,0,0,0-2,.38,4.73,4.73,0,0,1-2,1c-.61.05-1.27-.25-1.81.14s-.62.9-1,1.25a2,2,0,0,1-1.29.46,2.78,2.78,0,0,0-1.32.28,1.44,1.44,0,0,0-.67,1.38l15.47-.2Z" transform="translate(2.03 -32.44)" fill="#f5f4f4"/><path d="M13.45,49.54c.13-1.12-1.07-2-2-2.15a3.77,3.77,0,0,1-1.3-.14c-.89-.41-1.23-1.92-2.09-2.4a2,2,0,0,0-2,.38,4.73,4.73,0,0,1-2,1c-.61.05-1.28-.25-1.82.14s-.62.9-1,1.25A2,2,0,0,1,0,48.08a2.76,2.76,0,0,0-1.32.28A1.46,1.46,0,0,0-2,49.74l15.47-.2Z" transform="translate(2.03 -32.44)" fill="#f5f4f4"/></g><path d="M217.84,139.31c0,.06-48.1.11-107.42.11S3,139.37,3,139.31s48.09-.1,107.43-.1,107.42,0,107.42.1" transform="translate(2.03 -32.44)" fill="#263238"/><path d="M141,146.37s-1.67-2-2.28,10.33c-.58,11.67-1.42,28.5.85,35.73a3.7,3.7,0,0,0,1.28,1.89,5,5,0,0,0,2,.88c2,.37,10.09.16,10.09.16s4.57,0,4.68-4.51c.1-3.71.12-11.78.12-11.78L141,146.37" transform="translate(2.03 -32.44)" fill="#263238"/><path d="M146.3,195.41a28.19,28.19,0,0,1-3.47-.21,5,5,0,0,1-2-.88,3.7,3.7,0,0,1-1.28-1.89,44.34,44.34,0,0,1-1.39-10.67c3.65-.41,7-.86,9.85-1.27l-1.21,2v0c-.16,4-.34,8.36-.46,12.9" transform="translate(2.03 -32.44)" fill="#1b2328"/><path d="M163.87,154.75s1.71-2.05,2.07,10.32c.34,11.68.84,28.51-1.58,35.73a3.83,3.83,0,0,1-1.32,1.89,4.84,4.84,0,0,1-2,.88c-2,.38-10.1.17-10.1.17s-4.57,0-4.59-4.51c0-3.71.52-16.71.52-16.71l17-27.77" transform="translate(2.03 -32.44)" fill="#263238"/><path d="M163.87,154.75l-.08.13-.23.39-.91,1.51c-.8,1.33-2,3.25-3.46,5.7-3,4.88-7.23,11.83-12.28,20.09v0c-.16,4.08-.33,8.47-.46,13.07,0,1.15-.05,2.32-.05,3.49a8.46,8.46,0,0,0,.05.87,3.1,3.1,0,0,0,.08.42,2,2,0,0,0,.1.41,4.1,4.1,0,0,0,.81,1.41,4.82,4.82,0,0,0,2.71,1.36,9.47,9.47,0,0,0,1.52.1l1.54,0c1.78,0,3.54,0,5.27,0a19.65,19.65,0,0,0,2.56-.19,4.78,4.78,0,0,0,2.29-1.14,3.77,3.77,0,0,0,.77-1.13,10,10,0,0,0,.44-1.37,13.77,13.77,0,0,0,.34-1.41l.15-.71c.05-.23.08-.47.12-.71.33-1.89.49-3.78.64-5.61.26-3.68.33-7.19.35-10.47s0-6.34-.09-9.13c-.15-5.58-.19-10.11-.59-13.19a11.54,11.54,0,0,0-.78-3.43c-.16-.35-.4-.55-.58-.52a.36.36,0,0,0-.24.11.14.14,0,0,1,0-.06.37.37,0,0,1,.19-.08c.19,0,.44.17.61.53a11.64,11.64,0,0,1,.82,3.44c.42,3.08.48,7.61.64,13.19.07,2.79.12,5.85.12,9.13s-.08,6.8-.33,10.49c-.15,1.84-.31,3.73-.64,5.64l-.12.71-.15.72c-.1.47-.2,1-.34,1.42a10.09,10.09,0,0,1-.46,1.41,4,4,0,0,1-.81,1.19,4.84,4.84,0,0,1-2.37,1.18,20.4,20.4,0,0,1-2.59.21c-1.73,0-3.49,0-5.27,0l-1.55,0a8.86,8.86,0,0,1-1.54-.1,4.89,4.89,0,0,1-2.79-1.41,4.16,4.16,0,0,1-.86-1.49,3.15,3.15,0,0,1-.11-.44c0-.15-.07-.29-.09-.44s-.05-.6-.05-.9c0-1.18,0-2.34.06-3.49.13-4.61.31-9,.47-13.08v0l12.34-20.06c1.5-2.42,2.68-4.34,3.49-5.66l.93-1.49c.11-.16.19-.29.24-.38l.09-.12" transform="translate(2.03 -32.44)" fill="#455b65"/><path d="M80,143.65s1.71-2,2.07,10.33c.33,11.68.83,28.51-1.58,35.73a3.83,3.83,0,0,1-1.32,1.89,4.89,4.89,0,0,1-2,.88c-2,.38-10.09.17-10.09.17s-4.57,0-4.6-4.51c0-3.71.12-11.78.12-11.78L80,143.65" transform="translate(2.03 -32.44)" fill="#263238"/><path d="M73.65,192.69c0-4.23-.11-8.27-.19-12.07,2.48.37,5.34.76,8.43,1.13a37.28,37.28,0,0,1-1.41,8,3.83,3.83,0,0,1-1.32,1.89,4.89,4.89,0,0,1-2,.88,24.76,24.76,0,0,1-3.47.21" transform="translate(2.03 -32.44)" fill="#1b2328"/><path d="M56.9,152s-1.67-2-2.28,10.33c-.57,11.67-1.42,28.51.85,35.73A3.76,3.76,0,0,0,56.75,200a4.92,4.92,0,0,0,2,.88c2,.38,10.09.16,10.09.16s4.57,0,4.69-4.51c.09-3.71-.19-16.71-.19-16.71L56.9,152" transform="translate(2.03 -32.44)" fill="#263238"/><path d="M56.9,152l.08.13c.06.09.14.21.24.38l.9,1.49,3.38,5.66c2.9,4.88,7,11.81,11.93,20.06v.05c.09,4.08.18,8.47.21,13.07,0,1.15,0,2.32,0,3.5,0,.29,0,.6-.07.9a3.48,3.48,0,0,1-.1.44,3,3,0,0,1-.11.43,4.7,4.7,0,0,1-.89,1.5,5.2,5.2,0,0,1-2.82,1.41,10.17,10.17,0,0,1-1.55.1l-1.55,0c-1.77,0-3.53,0-5.27,0a20.37,20.37,0,0,1-2.58-.2,4.68,4.68,0,0,1-2.34-1.19,3.9,3.9,0,0,1-.8-1.18,10.33,10.33,0,0,1-.42-1.41,14,14,0,0,1-.31-1.43l-.14-.71c0-.24-.07-.48-.1-.72-.3-1.9-.42-3.79-.53-5.63-.18-3.69-.17-7.21-.12-10.49s.18-6.34.3-9.14c.28-5.57.43-10.1.91-13.19a12,12,0,0,1,.89-3.44c.18-.35.44-.56.62-.52a.37.37,0,0,1,.19.08.17.17,0,0,1,0,.05.38.38,0,0,0-.24-.11c-.18,0-.42.17-.59.53a12,12,0,0,0-.85,3.42c-.46,3.09-.59,7.61-.85,13.19-.12,2.79-.23,5.85-.28,9.13s-.05,6.79.13,10.47c.12,1.84.24,3.72.53,5.62,0,.23.07.47.1.71l.14.7a13.27,13.27,0,0,0,.31,1.42,12.07,12.07,0,0,0,.41,1.37,3.69,3.69,0,0,0,.76,1.12,4.47,4.47,0,0,0,2.26,1.14,19.64,19.64,0,0,0,2.56.2c1.73.05,3.49,0,5.26,0l1.55,0a9.48,9.48,0,0,0,1.52-.09,4.9,4.9,0,0,0,2.73-1.36,4,4,0,0,0,.84-1.42,1.77,1.77,0,0,0,.12-.41c0-.14.07-.28.09-.42s.06-.57.06-.87c0-1.17,0-2.33,0-3.48,0-4.61-.12-9-.2-13.07l0,.05c-4.88-8.26-9-15.21-11.87-20.1l-3.35-5.69-.88-1.51c-.1-.17-.17-.3-.23-.39a1.38,1.38,0,0,1-.07-.14" transform="translate(2.03 -32.44)" fill="#455b65"/><path d="M166.58,114.2s-.53,2.09-1.59,2.31-9.37.53-9.37.53l-.83,2h-1.57l-1.06-8,1,.24a1.1,1.1,0,0,1,.74.73,1,1,0,0,0,.83.74l11.88,1.49Z" transform="translate(2.03 -32.44)" fill="#263238"/><path d="M166.23,114.52a1.27,1.27,0,0,0,1-1.47c-.25-2.29-1.21-6.75-4.91-7.41a21.27,21.27,0,0,0-6.9-.22c-.58.09-.87.72-.94,1.41-.35,3.15-.14,7.07.62,7.55s8.43.39,11.13.14Z" transform="translate(2.03 -32.44)" fill="#d26c64"/><path d="M161.36,105.66a1.25,1.25,0,0,1,.22.31c.12.21.3.52.51.91a24.86,24.86,0,0,1,1.38,3.22,25.77,25.77,0,0,1,.95,3.44c.09.45.16.82.19,1.08a1.72,1.72,0,0,1,0,.4s-.14-.55-.35-1.44-.54-2.1-1-3.4-.95-2.42-1.33-3.22-.64-1.28-.62-1.3Z" transform="translate(2.03 -32.44)" fill="#263238"/><path d="M53.71,114.7s.49,2.09,1.54,2.3,9.37.53,9.37.53l.79,2H67l1.22-8-1,.24a1.16,1.16,0,0,0-.75.73,1.08,1.08,0,0,1-.85.74l-11.91,1.5Z" transform="translate(2.03 -32.44)" fill="#263238"/><path d="M54.06,115a1.25,1.25,0,0,1-1-1.47c.3-2.29,1.35-6.75,5-7.41a21,21,0,0,1,6.91-.21c.58.09.85.71.92,1.4.28,3.16,0,7.07-.78,7.55s-8.44.39-11.13.14Z" transform="translate(2.03 -32.44)" fill="#d26c64"/><path d="M59.1,106.15a13.37,13.37,0,0,1-.64,1.3A34.47,34.47,0,0,0,56,114.07a14.49,14.49,0,0,1-.37,1.44,1.72,1.72,0,0,1,0-.4c0-.26.11-.63.21-1.08a28,28,0,0,1,1-3.44,25.11,25.11,0,0,1,1.46-3.22c.21-.39.39-.7.52-.91a1.7,1.7,0,0,1,.22-.31Z" transform="translate(2.03 -32.44)" fill="#263238"/><path d="M112.05,80.13c3.76.08,19.27.17,23.75,0s6.09,1,8.23,4.14,6.73,17.54,9.35,29.48a137.62,137.62,0,0,1,7.86,17.89s5.57,8.16,5.83,11.28-.52,22.14-2,27.5-2.53,6.75-8.18,8.65c0,0-24.91,4.59-44.32,4.07l-1.67,0c-19.72,1.07-46.83-4.11-46.83-4.11-5.61-1.9-6.61-3.29-8-8.65s-1.77-24.39-1.45-27.5,6.06-11.28,6.06-11.28a139.19,139.19,0,0,1,8.22-17.89c2.86-11.94,7.75-26.37,10-29.48s3.84-4.32,8.31-4.14,19.6.08,23.37,0h1.53" transform="translate(2.03 -32.44)" fill="#d26c64"/><path d="M139.79,82a24.18,24.18,0,0,0-2.21-3.82c-.79-1.12-1.1-1.08-1.79-1-.87.1-2.94,1.41-3,1.91s-.18,2.11-.18,2.11l1.38,0s-.29-1.52.12-1.83c.61-.45.84-.58,1.33-.33s1.08,2.24,1.08,2.24l3.32.75Z" transform="translate(2.03 -32.44)" fill="#e0e0df"/><path d="M83.44,80.19l-.06.06-.21.17c-.17.15-.43.38-.74.71a14.17,14.17,0,0,0-2.21,3.23c-.19.38-.39.78-.58,1.2l-.57,1.35c-.4.92-.8,1.92-1.23,3C77,92,76.07,94.33,75.15,96.8a112.06,112.06,0,0,0-4.07,12.94c-.4,1.71-.68,3.1-.86,4.06-.09.47-.15.85-.2,1.12l-.06.29q0,.09,0,.09a.82.82,0,0,1,0-.1c0-.08,0-.17,0-.29l.17-1.12c.16-1,.42-2.37.81-4.08a104.68,104.68,0,0,1,4-13c.92-2.48,1.85-4.8,2.71-6.91.42-1.06.84-2.06,1.24-3,.2-.47.4-.91.58-1.35s.4-.82.6-1.2a13.14,13.14,0,0,1,2.26-3.21,5.27,5.27,0,0,1,1.06-.88Z" transform="translate(2.03 -32.44)" fill="#263238"/><path d="M110.76,86.58s-11.7,0-17.81,0c-.93,0-2.12,0-3.42,0-4.55-.06-10.39-.11-10.8.88-.23.57-2.4,5.63-4.47,11.48-2.5,7.06-4.93,15.18-4.33,17l39.19-.71h41.43a9.36,9.36,0,0,0-.35-4.66c-.83-3-6.35-21.45-7.33-22.71s-17.69-1.12-32.11-1.35" transform="translate(2.03 -32.44)" fill="#263238"/><path d="M110.74,87.71s-11.24,0-17.1.05c-4,0-12.52-.05-13.72,1.44a141.83,141.83,0,0,0-7.67,19.56,4.41,4.41,0,0,0,4.27,5.58H149a8.46,8.46,0,0,0-.33-4.33c-.8-2.78-6.09-19.11-7.13-20.15-1.76-1.78-16.9-1.94-30.75-2.15" transform="translate(2.03 -32.44)" fill="#455b65"/><path d="M149,114.44l-72.7-.1a4.85,4.85,0,0,1-2.06-.66v0a4.71,4.71,0,0,0,2.32.68h72.34l.09.1" transform="translate(2.03 -32.44)" fill="#1b2328"/><path d="M148.86,114.34H76.52a4.71,4.71,0,0,1-2.32-.68c.2-.34,3.47-6.06,5.46-6.34.88-.13,8.32-.25,17.69-.35h0a1.2,1.2,0,0,1,1,.58h0a1.29,1.29,0,0,1,1-.6c6.78-.07,14.35-.13,21.08-.18h0a1,1,0,0,1,.76.37h0a1,1,0,0,1,.77-.37c8.54-.06,15.49-.09,17.35-.09h.49c1.59.06,8.11,6.76,9,7.67" transform="translate(2.03 -32.44)" fill="#303f46"/><path d="M84.53,134.35s-2.69,0-2.56,3.93c.07,2.16-.75,12.85,5.52,14.36s46.91.52,46.91.52,3.06-.16,3.92-5.61l.6-9.44s-.19-2.51-1.9-2.83-52.49-.93-52.49-.93Z" transform="translate(2.03 -32.44)" fill="#e0e0df"/><path d="M84.53,134.35h1.1l3.15,0,11.71.13,17.68.24,10.61.18,5.66.14,1.45,0,.73,0,.37,0a2.54,2.54,0,0,1,.37.1,2.27,2.27,0,0,1,1.16,1.13,4.79,4.79,0,0,1,.49,1.7h0c-.2,3-.4,6.2-.61,9.44h0a12.21,12.21,0,0,1-.67,2.52,6.08,6.08,0,0,1-1.41,2.18,3.68,3.68,0,0,1-1.61.94,3.38,3.38,0,0,1-.89.07l-.87,0-3.46.07-6.77.11c-4.44.05-8.72.09-12.79.09s-8,0-11.58-.11c-.9,0-1.79-.05-2.67-.08s-1.73,0-2.57-.11-1.66-.07-2.47-.16-1.59-.11-2.35-.26a6,6,0,0,1-2.19-.68,5.49,5.49,0,0,1-1.73-1.49,10.38,10.38,0,0,1-1.83-4.11,23.51,23.51,0,0,1-.55-4c-.07-1.26-.06-2.41,0-3.44,0-.52,0-1,0-1.47,0-.22,0-.45.07-.66s.08-.41.14-.6a3,3,0,0,1,1-1.56,2.39,2.39,0,0,1,1-.42,1.33,1.33,0,0,1,.35,0,1.45,1.45,0,0,0-.34.06,2.56,2.56,0,0,0-1,.44,2.93,2.93,0,0,0-1,1.54c-.06.18-.09.39-.14.59s0,.43-.06.66c0,.45,0,.94,0,1.46,0,1,0,2.18.07,3.43a22.93,22.93,0,0,0,.55,4,10.45,10.45,0,0,0,1.82,4.06,5.76,5.76,0,0,0,1.7,1.45,5.91,5.91,0,0,0,2.16.66c.75.14,1.54.18,2.34.26s1.63.1,2.47.15,1.7.08,2.57.1,1.76.07,2.67.08c3.62.08,7.49.09,11.57.09s8.35,0,12.79-.11l6.77-.11,3.46-.07.87,0a4.1,4.1,0,0,0,.86-.06,3.65,3.65,0,0,0,1.53-.9,5.9,5.9,0,0,0,1.36-2.11,12.2,12.2,0,0,0,.66-2.47h0c.21-3.24.41-6.43.6-9.43v0a4.6,4.6,0,0,0-.46-1.62,2.1,2.1,0,0,0-1.07-1,3.37,3.37,0,0,0-.34-.09l-.36,0c-.24,0-.48,0-.72,0l-1.45-.06-5.66-.14-10.6-.2-17.68-.29-11.72-.18-3.14-.06-.82,0Z" transform="translate(2.03 -32.44)" fill="#263238"/><path d="M86.22,136.7a2.41,2.41,0,0,0-2.32,2.9c.11,1.58-.71,9.33,5.09,10.43s41.49.67,41.49.67,4.46-.26,5.45-4l.58-7.3a1.61,1.61,0,0,0-1.4-1.8c-1.57-.23-48.89-.94-48.89-.94Z" transform="translate(2.03 -32.44)" fill="#263238"/><path d="M131.38,136.7c-.08.21-1.45,14.92-1.45,14.92H132l1.7-14.92Z" transform="translate(2.03 -32.44)" fill="#e0e0df"/><path d="M124.52,136.69c-.06.22-.6,15-.6,15l2-.17.86-15-2.31.19Z" transform="translate(2.03 -32.44)" fill="#e0e0df"/><path d="M118.24,136.76c-.07.22-.61,15-.61,15l2.42-.2.49-15-2.3.19Z" transform="translate(2.03 -32.44)" fill="#e0e0df"/><path d="M89.36,136.1c.07.22,1.15,14.92,1.15,14.92H88.45l-1.4-14.92Z" transform="translate(2.03 -32.44)" fill="#e0e0df"/><path d="M96.22,136.09c.06.22.3,15,.3,15l-2-.17-.55-15,2.3.19Z" transform="translate(2.03 -32.44)" fill="#e0e0df"/><path d="M102.5,136.16c.06.22.3,15,.3,15l-2.41-.19-.19-15,2.3.18Z" transform="translate(2.03 -32.44)" fill="#e0e0df"/><path d="M103.3,136.5c.23.47,4.56,4.05,4.56,4.05h5.32l4.23-4.05Z" transform="translate(2.03 -32.44)" fill="#e0e0df"/><polygon points="109.32 106.08 110.31 118.72 114.27 118.72 115.52 106.08 109.32 106.08 109.32 106.08" fill="#e0e0df"/><path d="M86.77,163.37a1.61,1.61,0,0,0-1.44,1.81c.15,2.9.56,8.35,1.57,9.34,1.4,1.37,41.8,2.8,45.64.07,1.76-1.25,2.28-6.33,2.43-9a1.44,1.44,0,0,0-1.26-1.64l-46.94-.6Z" transform="translate(2.03 -32.44)" fill="#455b65"/><path d="M86.77,163.37l.29,0,.86,0,3.3,0,12.15.06,18,.16,10.64.12h1.74a1.27,1.27,0,0,1,.42.09,1.57,1.57,0,0,1,.69.55,2,2,0,0,1,.35.9,2.71,2.71,0,0,1,0,.49l0,.43c0,.57-.08,1.14-.15,1.71a27.08,27.08,0,0,1-.56,3.44A12.58,12.58,0,0,1,134,173a5.18,5.18,0,0,1-.88,1.55,2.54,2.54,0,0,1-.7.53,4.73,4.73,0,0,1-.73.28,13.27,13.27,0,0,1-1.46.33c-1,.17-1.93.27-2.89.36-1.9.18-3.78.27-5.63.33-3.7.13-7.26.13-10.65.09-6.78-.1-12.89-.36-18-.78-1.28-.1-2.49-.22-3.64-.37-.58-.08-1.14-.16-1.68-.28l-.4-.1a1.36,1.36,0,0,1-.42-.18,1.93,1.93,0,0,1-.5-.81,9.41,9.41,0,0,1-.45-1.71c-.11-.56-.19-1.1-.25-1.62-.13-1-.21-2-.28-2.84s-.1-1.62-.12-2.28a2.42,2.42,0,0,1,.07-.94,1.79,1.79,0,0,1,.35-.66,1.42,1.42,0,0,1,.78-.48.9.9,0,0,1,.22,0h.08s-.1,0-.29.07a1.32,1.32,0,0,0-.71.5,2,2,0,0,0-.35,1.5c0,.65.1,1.41.18,2.26s.17,1.8.32,2.82c.07.51.15,1,.26,1.59a10.37,10.37,0,0,0,.45,1.63,1.9,1.9,0,0,0,.4.66,3.22,3.22,0,0,0,.72.22c.53.1,1.08.18,1.66.25,1.14.13,2.35.23,3.63.32,5.11.36,11.21.58,18,.64,3.39,0,6.94,0,10.63-.12,1.84-.07,3.71-.16,5.61-.34,1-.09,1.9-.19,2.85-.36a11.33,11.33,0,0,0,1.4-.32,4.28,4.28,0,0,0,.66-.24,2,2,0,0,0,.54-.42,4.61,4.61,0,0,0,.77-1.34,14,14,0,0,0,.49-1.59,27,27,0,0,0,.55-3.34q.09-.84.15-1.68l0-.42a2,2,0,0,0,0-.35,1.37,1.37,0,0,0-.23-.6,1.08,1.08,0,0,0-.46-.37,1.27,1.27,0,0,0-.28-.06h-.34l-1.39,0-10.63-.16-18-.29-12.14-.26-3.3-.1-.86,0a.85.85,0,0,1-.29,0Z" transform="translate(2.03 -32.44)" fill="#263238"/><path d="M166,149.56l-.22.23-.66.66c-.29.29-.69.59-1.13,1-.23.2-.49.36-.76.56a8.63,8.63,0,0,1-.89.6,20.56,20.56,0,0,1-4.87,2.24,36.59,36.59,0,0,1-6.81,1.4c-2.55.29-5.34.41-8.34.54s-6.21.26-9.59.36c-6.75.21-14.17.31-22,.28s-15.21-.21-22-.48A137.08,137.08,0,0,1,71,155.32a67.35,67.35,0,0,1-11.79-3l-1.79-.7c-.53-.2-1-.41-1.31-.56l-.8-.36-.27-.13.28.11.8.34c.36.14.79.34,1.31.54l1.81.68a68.71,68.71,0,0,0,11.78,3,143.15,143.15,0,0,0,17.85,1.56c6.75.25,14.17.42,22,.46s15.2-.07,22-.26c3.38-.1,6.58-.22,9.58-.34s5.8-.24,8.34-.52a36.51,36.51,0,0,0,6.79-1.36,21.43,21.43,0,0,0,4.87-2.2c.32-.18.61-.4.89-.59s.53-.36.76-.55c.45-.38.85-.68,1.14-1l.67-.65.23-.21" transform="translate(2.03 -32.44)" fill="#263238"/><path d="M84.19,150.55H83.1c-.71,0-1.72-.06-3-.15s-2.75-.24-4.4-.46-3.46-.53-5.35-.92-3.67-.84-5.29-1.3-3-.92-4.26-1.34-2.17-.78-2.83-1.06l-.76-.31a2.42,2.42,0,0,1-.27-.12,1.07,1.07,0,0,1,.28.08l.77.28c.67.24,1.64.58,2.85,1s2.65.84,4.26,1.29,3.4.89,5.29,1.28,3.69.7,5.33.93,3.14.4,4.39.51,2.27.18,3,.22l.81.05a1.07,1.07,0,0,1,.28,0" transform="translate(2.03 -32.44)" fill="#263238"/><path d="M64.48,127.46a.78.78,0,0,0-1,.45,20.65,20.65,0,0,0-2,7c-.28,4.11-.11,11.58-.11,11.58s12.13,3.4,17.17,3.49c0,0-1.46-10.38-2.69-14.3-1.06-3.34-9-7.16-11.4-8.23" transform="translate(2.03 -32.44)" fill="#f5f4f4"/><path d="M64.48,127.46l.13.05.35.15c.32.14.78.35,1.37.64A46.64,46.64,0,0,1,71.27,131a20.46,20.46,0,0,1,3.19,2.46,6.32,6.32,0,0,1,1.4,1.93,24.47,24.47,0,0,1,.7,2.59c.41,1.79.77,3.71,1.11,5.71s.67,4.09,1,6.25l0,.13h-.11a31.31,31.31,0,0,1-4.3-.49c-2.34-.4-4.6-.91-6.76-1.43s-4.21-1-6.12-1.58l-.06,0v-.07c-.06-3-.06-5.82,0-8.3,0-1.24.07-2.41.15-3.49A18.56,18.56,0,0,1,62,131.8,22.12,22.12,0,0,1,63.41,128a.87.87,0,0,1,.76-.57.58.58,0,0,1,.31.08s0,0-.08,0a.72.72,0,0,0-.23,0,.82.82,0,0,0-.72.56,23.16,23.16,0,0,0-1.37,3.85,17.72,17.72,0,0,0-.49,2.89c-.08,1.08-.12,2.24-.14,3.48-.05,2.48,0,5.27,0,8.29l-.06-.08c1.91.52,4,1.05,6.11,1.56s4.42,1,6.76,1.42a31,31,0,0,0,4.28.49l-.09.13c-.31-2.16-.63-4.25-1-6.25s-.69-3.91-1.1-5.7a22.7,22.7,0,0,0-.69-2.56,6,6,0,0,0-1.35-1.88,20.1,20.1,0,0,0-3.16-2.47,52.32,52.32,0,0,0-4.9-2.78L65,127.7l-.35-.17c-.08,0-.12-.06-.12-.07" transform="translate(2.03 -32.44)" fill="#263238"/><path d="M70.14,115a5.4,5.4,0,0,1-.27.5l-.77,1.34c-.65,1.14-1.5,2.73-2.41,4.53S65,124.81,64.41,126c-.27.57-.5,1-.68,1.41a3.92,3.92,0,0,1-.27.5,3.31,3.31,0,0,1,.21-.54c.14-.34.36-.84.63-1.44.55-1.21,1.33-2.87,2.24-4.67s1.78-3.39,2.46-4.5c.33-.56.61-1,.82-1.31a3.11,3.11,0,0,1,.32-.45Z" transform="translate(2.03 -32.44)" fill="#263238"/><path d="M82.7,135l-.09-.17-.23-.51c-.1-.22-.21-.5-.33-.83s-.27-.69-.4-1.11c-.29-.84-.55-1.87-.82-3s-.48-2.44-.66-3.81-.27-2.67-.34-3.86-.07-2.27,0-3.18c0-.45,0-.86,0-1.21s0-.67,0-.92l0-.58c0-.14,0-.21,0-.21a.67.67,0,0,1,0,.21c0,.16,0,.35,0,.58s0,.56,0,.92,0,.76,0,1.21c0,.91,0,2,.09,3.16s.19,2.49.36,3.85.4,2.63.64,3.78.51,2.17.78,3c.12.42.25.8.37,1.13s.21.61.3.83l.2.53c0,.12.07.19.06.19Z" transform="translate(2.03 -32.44)" fill="#263238"/><g clip-path="url(#clip-path-2)"><polygon points="62.01 104.54 84.71 104.54 84.53 121.98 61.83 121.98 62.01 104.54" fill="#b35042"/></g><path d="M79.15,150.32c-1-.09-2.18-.22-3.43-.38-1.65-.23-3.46-.53-5.35-.92s-3.67-.84-5.29-1.3c-1.24-.35-2.38-.7-3.39-1,1.82.5,3.77,1,5.81,1.49s4.42,1,6.76,1.43c1.19.2,2.36.38,3.51.46l1.37.24v0m-17.83-3.77-.5-.17-.82-.29c0-.05,0-.1,0-.15l.88.3.46.15v.16" transform="translate(2.03 -32.44)" fill="#1b2328"/><path d="M61.72,146.49l-.25-.07v-.09a1,1,0,0,0,.25.16" transform="translate(2.03 -32.44)" fill="#ababab"/><path d="M77.77,150.06c-1.15-.08-2.32-.26-3.51-.46-2.34-.4-4.6-.91-6.76-1.43s-4-1-5.81-1.49l-.31-.09-.06,0v-.18c-.06-3-.06-5.74,0-8.19,0-.42,0-.82,0-1.22l0-.22s-.21,5.84,0,9.48a.14.14,0,0,0,0,.09v.09l.25.07c1.88.93,12.28,2.88,16,3.57" transform="translate(2.03 -32.44)" fill="#1b2328"/><path d="M69.1,135.11a3.26,3.26,0,0,1-2.93,3.47,3.19,3.19,0,0,1-2.86-3.47,3.26,3.26,0,0,1,2.93-3.46,3.18,3.18,0,0,1,2.86,3.46Z" transform="translate(2.03 -32.44)" fill="#f5f4f4"/><path d="M69.1,135.11s0-.31-.11-.83a3.53,3.53,0,0,0-1-1.86,2.58,2.58,0,0,0-1.19-.63,2.53,2.53,0,0,0-2.19.62,2.84,2.84,0,0,0-.6.72,3.92,3.92,0,0,0-.57,2,3.84,3.84,0,0,0,.53,2,3,3,0,0,0,.58.72,2.61,2.61,0,0,0,.71.46,2.32,2.32,0,0,0,1.48.15,2.61,2.61,0,0,0,1.2-.62A3.61,3.61,0,0,0,69,136c.12-.53.11-.84.13-.84a.82.82,0,0,1,0,.23A3.7,3.7,0,0,1,69,136a3.61,3.61,0,0,1-1.07,2,2.72,2.72,0,0,1-1.25.68,2.51,2.51,0,0,1-1.56-.15,2.65,2.65,0,0,1-.75-.48,3.06,3.06,0,0,1-.62-.75,3.93,3.93,0,0,1-.56-2.12,4.13,4.13,0,0,1,.6-2.11,3.13,3.13,0,0,1,.64-.75,2.73,2.73,0,0,1,.76-.49,2.58,2.58,0,0,1,1.56-.14,2.69,2.69,0,0,1,1.24.68,3.61,3.61,0,0,1,1,2,3.29,3.29,0,0,1,0,.63.72.72,0,0,1,0,.22Z" transform="translate(2.03 -32.44)" fill="#263238"/><path d="M66.21,135a2.76,2.76,0,0,1,2.45,1.75,3.74,3.74,0,0,0,.36-1.62,3.09,3.09,0,0,0-2.78-3.37,3.17,3.17,0,0,0-2.85,3.37,3.88,3.88,0,0,0,.34,1.62A2.82,2.82,0,0,1,66.21,135Z" transform="translate(2.03 -32.44)" fill="#e0e0df"/><path d="M67.46,135a1.4,1.4,0,0,1-1.26,1.49A1.37,1.37,0,0,1,65,135a1.4,1.4,0,0,1,1.27-1.49A1.37,1.37,0,0,1,67.46,135Z" transform="translate(2.03 -32.44)" fill="#fff"/><path d="M67.46,135a2.41,2.41,0,0,1-.07-.36,1.53,1.53,0,0,0-.45-.77,1,1,0,0,0-1.11-.18,1.42,1.42,0,0,0-.78,1.31,1.4,1.4,0,0,0,.75,1.31,1,1,0,0,0,1.12-.18,1.62,1.62,0,0,0,.46-.78,3.35,3.35,0,0,1,.08-.35.81.81,0,0,1,0,.37,1.57,1.57,0,0,1-.46.88,1.16,1.16,0,0,1-1.25.25,1.6,1.6,0,0,1-.87-1.5,1.65,1.65,0,0,1,.9-1.5,1.15,1.15,0,0,1,1.25.25,1.6,1.6,0,0,1,.44.87.92.92,0,0,1,0,.38Z" transform="translate(2.03 -32.44)" fill="#263238"/><path d="M67.33,132.65c-.07.13-.34.07-.73.06a2.5,2.5,0,0,0-1.38.36,3.19,3.19,0,0,0-1,1.17c-.22.39-.33.69-.46.69s-.23-.37-.13-1a2.88,2.88,0,0,1,1.2-1.84,2,2,0,0,1,1.94-.15c.46.23.64.56.58.67Z" transform="translate(2.03 -32.44)" fill="#fff"/><path d="M71.91,142.68a4.16,4.16,0,0,1,3.7,2.65,6,6,0,0,0,.55-2.46c0-2.81-1.85-5.09-4.2-5.09s-4.28,2.28-4.31,5.09a5.82,5.82,0,0,0,.5,2.46,4.27,4.27,0,0,1,3.76-2.65Z" transform="translate(2.03 -32.44)" fill="#e0e0df"/><path d="M73.74,142.71a2.06,2.06,0,0,1-1.86,2.19,2,2,0,0,1-1.81-2.19,2.07,2.07,0,0,1,1.86-2.2,2,2,0,0,1,1.81,2.2Z" transform="translate(2.03 -32.44)" fill="#fff"/><path d="M73.74,142.71s0-.2-.09-.53A2.14,2.14,0,0,0,73,141a1.53,1.53,0,0,0-1.66-.29,2.16,2.16,0,0,0-1.17,2,2.11,2.11,0,0,0,1.13,2,1.54,1.54,0,0,0,1.67-.29,2.26,2.26,0,0,0,.68-1.16c.08-.33.08-.53.1-.52s0,0,0,.14a2.41,2.41,0,0,1,0,.4,2.3,2.3,0,0,1-.67,1.26,1.65,1.65,0,0,1-1.81.35,1.82,1.82,0,0,1-.88-.8A2.54,2.54,0,0,1,70,142.7a2.63,2.63,0,0,1,.39-1.35,2,2,0,0,1,.91-.8,1.61,1.61,0,0,1,1.79.35,2.25,2.25,0,0,1,.65,1.26,1.55,1.55,0,0,1,0,.4c0,.1,0,.15,0,.15Z" transform="translate(2.03 -32.44)" fill="#263238"/><path d="M76.16,142.87s0-.45-.16-1.23a5.13,5.13,0,0,0-1.52-2.76,4,4,0,0,0-1.75-.93,3.54,3.54,0,0,0-2.2.23,3.82,3.82,0,0,0-1.06.68,4.64,4.64,0,0,0-.89,1.06,5.78,5.78,0,0,0-.84,3,5.62,5.62,0,0,0,.78,2.95,4.2,4.2,0,0,0,.87,1.07,3.85,3.85,0,0,0,1,.68,3.57,3.57,0,0,0,2.19.22,3.83,3.83,0,0,0,1.77-.93A5.26,5.26,0,0,0,76,144.11c.17-.78.15-1.24.18-1.24a2.73,2.73,0,0,1,0,.33,3,3,0,0,1,0,.39c0,.16,0,.34-.08.54A5.39,5.39,0,0,1,74.47,147a3.94,3.94,0,0,1-1.82,1,3.61,3.61,0,0,1-2.27-.22,3.75,3.75,0,0,1-1.09-.7,4.28,4.28,0,0,1-.91-1.1,5.9,5.9,0,0,1-.82-3.08,6,6,0,0,1,.88-3.07,4.56,4.56,0,0,1,.93-1.1,3.94,3.94,0,0,1,1.11-.71,3.68,3.68,0,0,1,2.27-.21,4,4,0,0,1,1.81,1,5.21,5.21,0,0,1,1.51,2.86,4.29,4.29,0,0,1,.08.53c0,.16,0,.29,0,.4s0,.32,0,.32Z" transform="translate(2.03 -32.44)" fill="#263238"/><path d="M73.55,139.26c-.07.13-.45,0-1-.09a3.39,3.39,0,0,0-2.16.48,4.38,4.38,0,0,0-1.55,1.88c-.29.61-.4,1.08-.53,1.07s-.24-.52,0-1.35A4.16,4.16,0,0,1,70,138.71a3,3,0,0,1,2.71-.27c.67.29,1,.71.89.82Z" transform="translate(2.03 -32.44)" fill="#fff"/><path d="M74.6,140.06c-.2.17-.39.26-.44.21s0-.29.17-.53.35-.36.46-.23,0,.39-.19.55Z" transform="translate(2.03 -32.44)" fill="#fff"/><path d="M77.39,132.27c-1.08-1.09-9.47-4.56-9.21-4.56h0c2.21,0,4.35-8,4.35-8l.69.19,5.9,12-1.73.45" transform="translate(2.03 -32.44)" fill="#dd9691"/><path d="M137.27,150.86a.94.94,0,0,1,.27,0l.77-.05,2.81-.18a82.47,82.47,0,0,0,9.26-1.2,75.09,75.09,0,0,0,9.11-2.37c1.15-.38,2.07-.7,2.71-.94l.74-.26.26-.08a1,1,0,0,1-.25.12l-.73.3c-.63.26-1.55.61-2.7,1a67.85,67.85,0,0,1-9.12,2.43,72.55,72.55,0,0,1-9.27,1.14c-1.19.06-2.16.1-2.82.11h-1" transform="translate(2.03 -32.44)" fill="#263238"/><path d="M156,128.33a.78.78,0,0,1,1,.45,20.47,20.47,0,0,1,1.8,7c.19,4.11-.12,11.58-.12,11.58s-12.21,3.4-17.24,3.49c0,0,1.66-10.38,3-14.31,1.12-3.33,9.18-7.15,11.56-8.22" transform="translate(2.03 -32.44)" fill="#f5f4f4"/><path d="M156,128.33l-.12.07-.36.17-1.36.67a52,52,0,0,0-5,2.78,20.15,20.15,0,0,0-3.2,2.47,6.12,6.12,0,0,0-1.4,1.88,24.94,24.94,0,0,0-.73,2.56c-.45,1.79-.83,3.7-1.22,5.7s-.75,4.09-1.1,6.25l-.08-.13a31.21,31.21,0,0,0,4.28-.49c2.35-.4,4.62-.91,6.79-1.42s4.23-1,6.15-1.57l-.06.09c.12-3,.19-5.81.19-8.29,0-1.24,0-2.41-.07-3.48a16.65,16.65,0,0,0-.43-2.89,22.54,22.54,0,0,0-1.29-3.85.82.82,0,0,0-.71-.57.67.67,0,0,0-.23,0l-.08,0a.63.63,0,0,1,.31-.08.84.84,0,0,1,.75.57,20.89,20.89,0,0,1,1.34,3.84,17,17,0,0,1,.46,2.92c.06,1.08.08,2.24.09,3.48,0,2.49-.06,5.28-.17,8.31v.07l-.06,0c-1.92.53-4,1.06-6.15,1.58s-4.44,1-6.79,1.43a31.45,31.45,0,0,1-4.31.49h-.11l0-.13c.35-2.16.73-4.25,1.11-6.25s.78-3.92,1.23-5.71a24.47,24.47,0,0,1,.75-2.59,6.41,6.41,0,0,1,1.44-1.93,20.11,20.11,0,0,1,3.24-2.46,46.54,46.54,0,0,1,5-2.73c.6-.29,1.07-.5,1.38-.64l.36-.15.13,0" transform="translate(2.03 -32.44)" fill="#263238"/><path d="M150.46,115a3.54,3.54,0,0,1,.33.48c.2.32.49.8.82,1.39.67,1.19,1.53,2.9,2.42,4.81s1.64,3.69,2.18,5c.26.61.47,1.13.63,1.52a4.17,4.17,0,0,1,.22.57,3.41,3.41,0,0,1-.28-.53c-.17-.39-.4-.89-.68-1.49-.57-1.26-1.35-3-2.23-4.93s-1.72-3.62-2.36-4.83c-.32-.61-.59-1.09-.78-1.43a3.84,3.84,0,0,1-.27-.53Z" transform="translate(2.03 -32.44)" fill="#263238"/><path d="M137.67,135.87s0-.08.06-.2l.23-.57c.1-.24.21-.54.34-.89.06-.18.13-.37.2-.56s.13-.42.2-.65c.3-.9.58-2,.87-3.22s.53-2.59.75-4a66,66,0,0,0,.68-7.47q0-.72,0-1.29c0-.38,0-.71,0-1v-.62a2,2,0,0,1,0-.22.68.68,0,0,1,0,.22c0,.16,0,.37,0,.62s0,.59,0,1,0,.82,0,1.3a58.84,58.84,0,0,1-.62,7.5c-.23,1.45-.49,2.82-.77,4.05s-.6,2.33-.91,3.22l-.22.65c-.07.19-.15.38-.21.56-.14.35-.26.65-.37.88s-.19.4-.25.55a1.85,1.85,0,0,1-.1.18Z" transform="translate(2.03 -32.44)" fill="#263238"/><path d="M137.46,155.75l3.5-4.54s1.43-.2,3.48-.53l1.37-.21.67-.12a70.71,70.71,0,0,0,11-2.49l.85-.27.47-.13.06,0v0l.7-.23.67-.24c0,1.19-.93,3.73-7.33,5.43-8.7,2.31-15.4,3.38-15.4,3.38m21.36-8.5c.11-3,.17-5.74.17-8.19,0-.22,0-.45,0-.68l1.14,7.9a2.07,2.07,0,0,1,.07.51l-.7.24-.67.22" transform="translate(2.03 -32.44)" fill="#b35042"/><path d="M157.43,147.86l.26-.11.59-.16-.85.27m1.39-.45v-.16l.67-.22.7-.24v.15l-.67.24-.7.23" transform="translate(2.03 -32.44)" fill="#1b2328"/><path d="M158.42,147.35a.94.94,0,0,0,.25-.23v.17l-.24.06" transform="translate(2.03 -32.44)" fill="#ababab"/><path d="M144.44,150.68l2-.33-.67.12-1.37.21m13.25-2.93a3.67,3.67,0,0,0,.73-.4l.24-.06v-.17a.44.44,0,0,0,.07-.2c.17-3.66.2-8.83.2-8.83l0,.29c0,.23,0,.46,0,.68,0,2.45-.06,5.2-.17,8.19v.19l-.06,0-.47.13-.59.16" transform="translate(2.03 -32.44)" fill="#1b2328"/><path d="M151.26,136a3.18,3.18,0,0,0,2.86,3.47,3.26,3.26,0,0,0,2.93-3.47,3.19,3.19,0,0,0-2.86-3.47,3.27,3.27,0,0,0-2.93,3.47Z" transform="translate(2.03 -32.44)" fill="#f5f4f4"/><path d="M151.26,136a1.19,1.19,0,0,1,0-.22,2.34,2.34,0,0,1,.07-.63,3.57,3.57,0,0,1,1.07-2,2.69,2.69,0,0,1,1.24-.68,2.5,2.5,0,0,1,1.56.14,2.73,2.73,0,0,1,.75.48,3.15,3.15,0,0,1,.63.76,4.13,4.13,0,0,1,0,4.22,3.19,3.19,0,0,1-.64.76,2.84,2.84,0,0,1-.76.48,2.54,2.54,0,0,1-1.57.15,2.8,2.8,0,0,1-1.23-.68,3.6,3.6,0,0,1-1-2,3.5,3.5,0,0,1-.06-.64,2,2,0,0,1,0-.22s0,.31.12.84a3.5,3.5,0,0,0,1,1.86,2.53,2.53,0,0,0,1.18.62,2.4,2.4,0,0,0,1.48-.15,2.66,2.66,0,0,0,.72-.46,3.28,3.28,0,0,0,.6-.72,3.94,3.94,0,0,0,0-4,3,3,0,0,0-.59-.71,2.35,2.35,0,0,0-.7-.46,2.41,2.41,0,0,0-1.48-.16,2.67,2.67,0,0,0-1.2.63,3.57,3.57,0,0,0-1.08,1.86c-.12.52-.11.83-.13.83Z" transform="translate(2.03 -32.44)" fill="#263238"/><path d="M154.16,135.83a2.83,2.83,0,0,0-2.49,1.75,4,4,0,0,1-.33-1.62,3.17,3.17,0,0,1,2.85-3.37A3.08,3.08,0,0,1,157,136a3.89,3.89,0,0,1-.36,1.62,2.76,2.76,0,0,0-2.45-1.75Z" transform="translate(2.03 -32.44)" fill="#e0e0df"/><path d="M152.91,135.87a1.37,1.37,0,0,0,1.23,1.49,1.41,1.41,0,0,0,1.27-1.49,1.38,1.38,0,0,0-1.24-1.5,1.41,1.41,0,0,0-1.26,1.5Z" transform="translate(2.03 -32.44)" fill="#fff"/><path d="M152.91,135.87a.87.87,0,0,1,0-.38,1.58,1.58,0,0,1,.46-.87,1.15,1.15,0,0,1,1.25-.25,1.58,1.58,0,0,1,.86,1.5,1.6,1.6,0,0,1-.89,1.49,1.13,1.13,0,0,1-1.25-.24,1.62,1.62,0,0,1-.44-.88.88.88,0,0,1,0-.37,2.43,2.43,0,0,1,.07.35,1.51,1.51,0,0,0,.45.78,1,1,0,0,0,1.11.18,1.42,1.42,0,0,0,.78-1.31,1.4,1.4,0,0,0-.75-1.31,1,1,0,0,0-1.12.18,1.49,1.49,0,0,0-.46.77,3.24,3.24,0,0,1-.08.36Z" transform="translate(2.03 -32.44)" fill="#263238"/><path d="M153.09,133.52c-.06-.11.12-.44.59-.67a2,2,0,0,1,1.93.15,2.74,2.74,0,0,1,1.16,1.84c.1.59,0,.95-.14.95s-.23-.29-.44-.68a3.12,3.12,0,0,0-1-1.17,2.46,2.46,0,0,0-1.38-.36c-.38,0-.66.07-.72-.06Z" transform="translate(2.03 -32.44)" fill="#fff"/><path d="M148.31,143.55a4.27,4.27,0,0,0-3.76,2.64,5.74,5.74,0,0,1-.5-2.45c0-2.81,2-5.1,4.31-5.1s4.23,2.29,4.2,5.1a5.91,5.91,0,0,1-.55,2.45,4.17,4.17,0,0,0-3.7-2.64Z" transform="translate(2.03 -32.44)" fill="#e0e0df"/><path d="M146.47,143.57a2,2,0,0,0,1.81,2.2,2.06,2.06,0,0,0,1.86-2.2,2,2,0,0,0-1.81-2.19,2.06,2.06,0,0,0-1.86,2.19Z" transform="translate(2.03 -32.44)" fill="#fff"/><path d="M146.47,143.57a.66.66,0,0,1,0-.14,2.41,2.41,0,0,1,0-.4,2.29,2.29,0,0,1,.68-1.26,1.63,1.63,0,0,1,1.8-.35,1.91,1.91,0,0,1,.89.79,2.65,2.65,0,0,1,0,2.72,2,2,0,0,1-.9.8,1.66,1.66,0,0,1-1.8-.35,2.28,2.28,0,0,1-.65-1.26,1.6,1.6,0,0,1,0-.41.79.79,0,0,1,0-.14s0,.2.09.53a2.18,2.18,0,0,0,.66,1.16,1.53,1.53,0,0,0,1.66.28,2.14,2.14,0,0,0,1.17-2,2.1,2.1,0,0,0-1.13-2,1.54,1.54,0,0,0-1.67.29,2.26,2.26,0,0,0-.68,1.16c-.08.33-.08.52-.1.52Z" transform="translate(2.03 -32.44)" fill="#263238"/><path d="M144.05,143.74a1.37,1.37,0,0,1,0-.33,1.94,1.94,0,0,1,0-.39,3.8,3.8,0,0,1,.08-.53,5.42,5.42,0,0,1,1.57-2.86,4,4,0,0,1,1.83-1,3.67,3.67,0,0,1,2.27.21,3.85,3.85,0,0,1,1.09.71,4.11,4.11,0,0,1,.91,1.1,5.86,5.86,0,0,1,.82,3.07,6,6,0,0,1-.88,3.07,4.65,4.65,0,0,1-.93,1.11,4.13,4.13,0,0,1-1.11.7,3.64,3.64,0,0,1-2.28.21,3.82,3.82,0,0,1-1.8-1,5.15,5.15,0,0,1-1.51-2.85,4.16,4.16,0,0,1-.08-.54,2.89,2.89,0,0,1,0-.39,1.64,1.64,0,0,1,0-.33,8.87,8.87,0,0,0,.15,1.23,5.23,5.23,0,0,0,1.53,2.76,3.71,3.71,0,0,0,1.75.93,3.6,3.6,0,0,0,2.2-.22,3.86,3.86,0,0,0,1.06-.69,4.43,4.43,0,0,0,.89-1.06,5.78,5.78,0,0,0,.06-5.9,4.15,4.15,0,0,0-.87-1.06,3.43,3.43,0,0,0-1-.68,3.5,3.5,0,0,0-2.19-.23,3.83,3.83,0,0,0-1.77.93,5.29,5.29,0,0,0-1.58,2.76,8.76,8.76,0,0,0-.18,1.23Z" transform="translate(2.03 -32.44)" fill="#263238"/><path d="M146.73,140.12c-.06-.11.24-.52.91-.81a2.91,2.91,0,0,1,2.7.27,4,4,0,0,1,1.67,2.54c.17.83,0,1.34-.07,1.34s-.23-.45-.51-1.07a4.37,4.37,0,0,0-1.51-1.87,3.3,3.3,0,0,0-2.15-.48c-.59.06-1,.22-1,.08Z" transform="translate(2.03 -32.44)" fill="#fff"/><path d="M145.66,140.93c-.2-.16-.29-.42-.17-.56s.32,0,.45.24.2.47.16.52-.24,0-.44-.2Z" transform="translate(2.03 -32.44)" fill="#fff"/><path d="M143,133.14l-1.71-.45,6.14-12,.69-.19s2,8,4.18,8h0c.26,0-8.2,3.47-9.31,4.56" transform="translate(2.03 -32.44)" fill="#dd9691"/><path d="M83.61,131.65l-.81-6.51s1.32-.54,1.07-1.71A16.39,16.39,0,0,0,92.54,126h.81c5.83,0,23.53,1.29,23.53,1.29l2.14,3.59h-5.88c-9.83,0-28.65.09-29.53.78" transform="translate(2.03 -32.44)" fill="#dd9691"/><path d="M143.42,170.31l.08-7.91,17.61-2.31s-.94,6.42-3,7.48-14.71,2.74-14.71,2.74" transform="translate(2.03 -32.44)" fill="#b35042"/><path d="M160.15,160.21a30.66,30.66,0,0,1-1.64,5.26c-.63,1.07-1.28,1.41-3.26,1.87-1.61.37-3,.53-3,.53l.5-6.68,7.41-1Z" transform="translate(2.03 -32.44)" fill="#fff"/><path d="M159.17,164a1,1,0,0,1,0,.2,5.3,5.3,0,0,1-.19.56,4.29,4.29,0,0,1-1.18,1.65,5.4,5.4,0,0,1-2.55,1c-1,.19-2.1.35-3.25.53-2.31.36-4.4.67-5.91.89l-1.79.24-.49.06h-.17l.16,0,.49-.1,1.79-.31c1.5-.25,3.59-.59,5.9-1,1.15-.18,2.25-.33,3.25-.51a5.54,5.54,0,0,0,2.5-1,4.42,4.42,0,0,0,1.19-1.57c.21-.45.26-.72.28-.72Z" transform="translate(2.03 -32.44)" fill="#263238"/><path d="M77.63,171.46S65,169.78,63,168.72s-2.83-7.48-2.83-7.48l17.57,2.32-.08,7.9" transform="translate(2.03 -32.44)" fill="#b35042"/><path d="M61.1,161.37a29.74,29.74,0,0,0,1.53,5.26c.62,1.07,1.26,1.41,3.23,1.87a30.13,30.13,0,0,0,3,.53l-.37-6.69-7.39-1Z" transform="translate(2.03 -32.44)" fill="#fff"/><path d="M62,165.15s.07.27.27.72a4.26,4.26,0,0,0,1.16,1.56,5.31,5.31,0,0,0,2.48,1c1,.17,2.09.33,3.24.51,2.3.36,4.38.69,5.88,1l1.78.31.49.09.16,0s-.06,0-.17,0l-.49-.06L75,170c-1.51-.22-3.6-.53-5.9-.89-1.15-.18-2.24-.34-3.24-.53a5.3,5.3,0,0,1-2.52-1,4.26,4.26,0,0,1-1.15-1.66,3.89,3.89,0,0,1-.17-.55c0-.13,0-.2,0-.2Z" transform="translate(2.03 -32.44)" fill="#263238"/><path d="M133.32,173.38c0,.06-10.52.1-23.49.1s-23.49,0-23.49-.1,10.52-.11,23.49-.11,23.49,0,23.49.11Z" transform="translate(2.03 -32.44)" fill="#263238"/><path d="M130.73,174.94c0,.06-8.91.11-19.89.11S91,175,91,174.94s8.9-.1,19.89-.1,19.88,0,19.88.1Z" transform="translate(2.03 -32.44)" fill="#263238"/><path d="M134.11,171.66c0,.06-10.69.11-23.88.11s-23.87-.05-23.87-.11,10.69-.1,23.88-.1,23.87.05,23.87.1Z" transform="translate(2.03 -32.44)" fill="#263238"/><path d="M134.49,170c0,.06-10.77.11-24.06.11S86.38,170,86.38,170s10.77-.11,24.06-.11,24.05,0,24.05.11Z" transform="translate(2.03 -32.44)" fill="#263238"/><path d="M134.51,168.24c0,.06-10.78.1-24.06.1s-24,0-24-.1,10.77-.11,24-.11,24.06.05,24.06.11Z" transform="translate(2.03 -32.44)" fill="#263238"/><path d="M134.91,166.52c0,.06-10.86.11-24.25.11s-24.25,0-24.25-.11,10.86-.1,24.25-.1,24.25.05,24.25.1Z" transform="translate(2.03 -32.44)" fill="#263238"/><path d="M134.93,164.81c0,.06-10.86.11-24.25.11s-24.25,0-24.25-.11,10.86-.11,24.25-.11,24.25.05,24.25.11Z" transform="translate(2.03 -32.44)" fill="#263238"/><path d="M83.93,160.46c-15.37,0-22.84-7-23.63-7.77A68.46,68.46,0,0,0,71,155.32a137.08,137.08,0,0,0,17.87,1.61c6.74.27,14.16.44,22,.48h2.69c6.81,0,13.31-.11,19.27-.29l4.09-.13h1.38s-37.74,3.41-54.13,3.46h-.16m29.69-3.26H110.8c-7.79,0-15.21-.21-22-.46l-1.94-.08c10.67.26,32.25.32,43.73.33-5.33.14-11,.21-17,.21m-38.35-1.42c-1.5-.17-2.92-.38-4.28-.6A70.63,70.63,0,0,1,61.46,153a116.53,116.53,0,0,0,13.81,2.82" transform="translate(2.03 -32.44)" fill="#b35042"/><path d="M113.48,157.42h-2.69c-7.79,0-15.21-.21-22-.48A137.08,137.08,0,0,1,71,155.32a68.46,68.46,0,0,1-10.67-2.63l-.07-.07,1.23.34A70.63,70.63,0,0,0,71,155.18c1.36.22,2.78.43,4.28.6,2.08.29,4.27.54,6.51.69,1.08.07,2.85.13,5.12.19l1.94.08c6.75.25,14.17.42,22,.46h2.82c6,0,11.68-.07,17-.21h6.21l-4.09.13c-6,.18-12.46.28-19.27.29" transform="translate(2.03 -32.44)" fill="#1b2328"/><polygon points="107.38 104.66 110.82 107.46 113.86 107.46 117.34 104.66 107.38 104.66 107.38 104.66" fill="#fff"/><path d="M105.76,87.73c.15,0,.55,3,2.58,3s7,0,7,0l0-3.76-9.59.81Z" transform="translate(2.03 -32.44)" fill="#263238"/><path d="M117.61,87.73c-.14,0,0,3-2.08,3s-5.85,0-5.85,0L108,86.92l9.57.81Z" transform="translate(2.03 -32.44)" fill="#263238"/><path d="M116.68,91.73a.82.82,0,0,1,.7.43,12.33,12.33,0,0,1,1.45,2.94,1.15,1.15,0,0,1-.89,1.32c-.55.08-11.25,0-12.36,0a.69.69,0,0,1-.2,0c-.29-.08-1-.37-1-1a16.77,16.77,0,0,1,1.34-3.16.89.89,0,0,1,.77-.51Z" transform="translate(2.03 -32.44)" fill="#263238"/><polygon points="114.02 59.55 113.29 59.55 113.31 57.98 114.03 57.98 114.02 59.55 114.02 59.55" fill="#263238"/><path d="M81.18,82a24.37,24.37,0,0,1,2.28-3.82c.81-1.12,1.12-1.08,1.82-1,.86.1,2.9,1.41,3,1.91s.14,2.11.14,2.11l-1.38,0s.32-1.52-.09-1.83c-.6-.45-.82-.58-1.31-.33s-1.13,2.24-1.13,2.24L81.18,82Z" transform="translate(2.03 -32.44)" fill="#e0e0df"/><path d="M141.24,82c0,.06-13.59.11-30.35.11S80.55,82.07,80.55,82s13.58-.11,30.35-.11,30.34,0,30.34.11Z" transform="translate(2.03 -32.44)" fill="#263238"/><path d="M165.63,169.65l-.28.09-.82.25-3.18.92-2.29.67-2.74.68-3.16.79c-.56.15-1.13.27-1.73.39l-1.82.38-3.92.82-4.26.74-2.25.38c-.76.13-1.54.22-2.33.33l-4.86.65a215.43,215.43,0,0,1-21.72,1.3l-5.71,0c-1.88-.05-3.72-.15-5.54-.22s-3.6-.22-5.34-.35-3.46-.23-5.12-.45l-4.85-.55c-1.58-.18-3.1-.44-4.57-.65L77,175.45l-1-.16-1-.19L71,174.38,69.15,174c-.6-.11-1.17-.25-1.73-.37l-3.15-.7c-1-.22-1.91-.4-2.75-.62l-2.29-.59-3.17-.83-.82-.22-.28-.08.28.06.83.2,3.18.79,2.29.57c.84.21,1.76.39,2.75.61l3.15.68c.56.12,1.14.25,1.73.36l1.82.33,3.92.71,1,.19,1,.15,2.17.32c1.47.2,3,.46,4.57.64l4.85.54c1.66.21,3.37.29,5.11.44s3.52.29,5.34.34,3.66.17,5.54.22l5.71,0a215.75,215.75,0,0,0,21.7-1.27l4.86-.65c.78-.11,1.56-.19,2.32-.32l2.25-.38,4.26-.72,3.92-.8,1.82-.38c.6-.12,1.17-.24,1.73-.38l3.16-.77,2.75-.67,2.29-.65,3.18-.89.82-.22.29-.07Z" transform="translate(2.03 -32.44)" fill="#263238"/><path d="M114.39,106h-7.48c-.59,0-1-.63-1-1.42v0c0-1.26.41-4.82,1.28-5.77s3.62-1,4-1h.07a5.17,5.17,0,0,1,3,1c.86.95,1.18,4.51,1.17,5.77v0c0,.79-.49,1.42-1.07,1.42" transform="translate(2.03 -32.44)" fill="#303f46"/><path d="M133,106h-7.48c-.58,0-1-.63-1-1.42v0c0-1.26.41-4.82,1.29-5.77s3.61-1,4-1h.07a5.17,5.17,0,0,1,3,1c.86.95,1.19,4.51,1.17,5.77v0c0,.79-.48,1.42-1.07,1.42" transform="translate(2.03 -32.44)" fill="#303f46"/><path d="M97.5,103.79c0-1.89-.47-7.25-1.76-8.68-1-1.1-3.39-1.43-4.57-1.52h-.11c-.62,0-4.8.16-6.06,1.52s-1.92,6.79-1.94,8.68v.06c0,1.18.69,2.13,1.56,2.13H95.89c.87,0,1.59-1,1.61-2.13v-.06" transform="translate(2.03 -32.44)" fill="#263238"/><path d="M77.51,115s.64-5.06,1.66-6.63c1.81-2.75,11.29-1.76,11.29-1.76s9.07-.72,10.36,1.12,2,7.08,2,7.08L77.51,115Z" transform="translate(2.03 -32.44)" fill="#263238"/><path d="M139.44,103.79c0-1.89-.47-7.25-1.76-8.68-1-1.1-3.39-1.43-4.57-1.52H133c-.62,0-4.8.16-6.06,1.52S125,101.9,125,103.79v.06c0,1.18.69,2.13,1.57,2.13h11.26c.88,0,1.6-1,1.61-2.13v-.06Z" transform="translate(2.03 -32.44)" fill="#263238"/><path d="M119.56,114.66s.64-5,1.67-6.57c1.8-2.73,11.29-1.75,11.29-1.75s9.07-.71,10.35,1.11,2,7,2,7l-25.32.19Z" transform="translate(2.03 -32.44)" fill="#263238"/><path d="M83,88.19a72.39,72.39,0,0,1,10-.55c2.62,0,4.58.07,4.58.07v0l-4,0A93.69,93.69,0,0,0,83,88.19" transform="translate(2.03 -32.44)" fill="#687074"/><path d="M81.22,105.41c-3.8,0-7.53-.17-7.53-.17s4.42-12.8,6.16-15.87c.31-.54,1.52-.92,3.18-1.18a93.69,93.69,0,0,1,10.61-.43l4,0c-.14.28-1.64,3.18-3.33,6.5a11.72,11.72,0,0,0-3.15-.64h-.11c-.62,0-4.8.16-6.06,1.52s-1.92,6.79-1.94,8.68v.06a2.48,2.48,0,0,0,.47,1.54c-.75,0-1.53,0-2.31,0" transform="translate(2.03 -32.44)" fill="#7d8c93"/><path d="M83.53,105.39a2.48,2.48,0,0,1-.47-1.54v-.06c0-1.89.62-7.25,1.94-8.68s5.44-1.51,6.06-1.52h.11a11.72,11.72,0,0,1,3.15.64c-2.25,4.39-4.84,9.51-5.14,10.3-.22.56-2.72.79-5.65.86" transform="translate(2.03 -32.44)" fill="#687074"/><path d="M137.36,95.63s-.14,0-.22-.26a.78.78,0,0,1,0-.18.49.49,0,0,1,0-.24,1,1,0,0,1,.21-.45c.38-.54.82-.76.84-.71s-.36.35-.71.84a1.34,1.34,0,0,0-.18.36.61.61,0,0,0,0,.33c0,.2.11.28.1.31Z" transform="translate(2.03 -32.44)" fill="#704539"/><path d="M147.74,109.27a11.17,11.17,0,0,0-.81-.93,11.32,11.32,0,0,0-1-.62,1.46,1.46,0,0,1,1.11.45,1.91,1.91,0,0,1,.71,1.1Z" transform="translate(2.03 -32.44)" fill="#263238"/><path d="M79.29,114.8s.37-3.27.91-3.91a8.74,8.74,0,0,1,3.62-2.41,15.32,15.32,0,0,1,3.3-.93l6,0s5.39.74,6.54,2a4.58,4.58,0,0,1,.85,1.93c.15,1,.49,3,.49,3l-21.76.24Z" transform="translate(2.03 -32.44)" fill="#379de2"/><path d="M87.29,107.78V96.43c-.08-3,1.29-5.49,3.75-5.54h.23c2.29.12,4.11,2.32,4.17,5.07,0,2.55.09,5.38,0,6.75a3.14,3.14,0,0,1-2.54,3.15s0,1.72,0,2.55a2.78,2.78,0,0,1-5,.26l-.54-.9Z" transform="translate(2.03 -32.44)" fill="#e8b99f"/><path d="M92.92,105.77a5,5,0,0,1-3-1.24,2.94,2.94,0,0,0,3,2v-.78Z" transform="translate(2.03 -32.44)" fill="#dc9271"/><path d="M94.7,98.31a.37.37,0,0,1-.34.39.34.34,0,0,1-.33-.38.37.37,0,0,1,.34-.39.35.35,0,0,1,.33.38Z" transform="translate(2.03 -32.44)" fill="#263238"/><path d="M94.88,97.1c0,.05-.29-.19-.65-.21s-.64.19-.68.13,0-.11.15-.21a.82.82,0,0,1,.55-.17.76.76,0,0,1,.51.23c.11.11.14.2.12.23Z" transform="translate(2.03 -32.44)" fill="#263238"/><path d="M91.41,98.23a.39.39,0,0,1-.34.4.35.35,0,0,1-.33-.39.37.37,0,0,1,.34-.39.35.35,0,0,1,.33.38Z" transform="translate(2.03 -32.44)" fill="#263238"/><path d="M91.32,97s-.29-.19-.65-.2S90,97,90,97s0-.12.15-.22a.88.88,0,0,1,.55-.17.87.87,0,0,1,.51.23c.11.11.14.21.12.23Z" transform="translate(2.03 -32.44)" fill="#263238"/><path d="M92.47,100.43a1.94,1.94,0,0,1,.6-.1c.09,0,.18,0,.2-.1a.71.71,0,0,0,0-.33c-.07-.28-.15-.56-.23-.86a16.82,16.82,0,0,1-.52-2.25A16.69,16.69,0,0,1,93.13,99l.23.86a.81.81,0,0,1,0,.44.28.28,0,0,1-.16.16h-.16a2.25,2.25,0,0,1-.6,0Z" transform="translate(2.03 -32.44)" fill="#263238"/><path d="M91.5,95.67c-.06.1-.4,0-.83-.06s-.79,0-.83-.09.06-.15.22-.23a1.11,1.11,0,0,1,.64-.12,1.17,1.17,0,0,1,.62.23c.14.11.2.21.18.27Z" transform="translate(2.03 -32.44)" fill="#263238"/><path d="M95,95.82c-.07.09-.37,0-.72,0s-.66,0-.73-.06,0-.15.16-.24a1,1,0,0,1,.6-.14,1,1,0,0,1,.57.21c.12.11.16.21.12.26Z" transform="translate(2.03 -32.44)" fill="#263238"/><path d="M87.39,98.43s-1.59-.65-1.63,1.28,1.6,1.56,1.6,1.5,0-2.78,0-2.78Z" transform="translate(2.03 -32.44)" fill="#e8b99f"/><path d="M86.88,100.48s0,0-.08,0a.21.21,0,0,1-.21,0,.92.92,0,0,1-.31-.76,1.46,1.46,0,0,1,.09-.48c0-.14.13-.24.22-.25a.13.13,0,0,1,.16.09c0,.05,0,.09,0,.1s0,0,0-.12a.19.19,0,0,0-.06-.12.17.17,0,0,0-.15,0c-.13,0-.24.15-.3.3a1.3,1.3,0,0,0-.11.54.89.89,0,0,0,.4.84.27.27,0,0,0,.26-.05s.06-.09,0-.09Z" transform="translate(2.03 -32.44)" fill="#dc9271"/><path d="M98.73,93.32a.47.47,0,0,0-.18-.27,1,1,0,0,0-.6-.12,2.93,2.93,0,0,1-1.47-.47,1.66,1.66,0,0,0,.44-.36,1.37,1.37,0,0,0,.32-1.2.27.27,0,0,0-.13-.19c-.1,0-.19.08-.27.18a.84.84,0,0,1-.83.41,1.29,1.29,0,0,1-.61-.23l0,0-.24-.3h0a5.54,5.54,0,0,0-1.64-1.51,4.63,4.63,0,0,0-2.93-.31,2.48,2.48,0,0,0-1.71,2,1.48,1.48,0,0,0-1.72-.21h0a2.59,2.59,0,0,0-1.2,1.81l0,.12a2.85,2.85,0,0,1-.87,1,.26.26,0,0,0-.14.17A.22.22,0,0,0,85,94a1.1,1.1,0,0,0,.5.26,3.49,3.49,0,0,1-.22.53.6.6,0,0,0-.1.46.24.24,0,0,0,.27.15.8.8,0,0,0,.3-.16c-.08.2-.15.4-.22.6a1.31,1.31,0,0,0,.68,0c.12.71.19,2,.33,2.53.43,0,.54,0,.75.05s.16.7.53.54c.19-.08.49-.92.56-1.15a13.34,13.34,0,0,0,.49-4.67,2.87,2.87,0,0,1,.93-.78,2,2,0,0,1,2-.12,5,5,0,0,1,1.11,1.39,3.15,3.15,0,0,0,2.47,1.49c.07.86.07,2.26.09,3.06l.6-1.59h0a2.39,2.39,0,0,0,.13-.28v0h0a4.43,4.43,0,0,1,.2-.45h0c.36.38.9-.19.62-.66a1,1,0,0,0-.19-.25.59.59,0,0,0,.62.21.64.64,0,0,0,.38-.61.53.53,0,0,0-.26-.43,1.28,1.28,0,0,0,.85-.21.54.54,0,0,0,.29-.55Z" transform="translate(2.03 -32.44)" fill="#263238"/><path d="M98.73,93.32a.5.5,0,0,1,0,.11.45.45,0,0,1-.12.31,1.25,1.25,0,0,1-1,.38l0-.07a.56.56,0,0,1,.26.36.69.69,0,0,1-.11.52.54.54,0,0,1-.45.26.66.66,0,0,1-.49-.24l.05-.08a.87.87,0,0,1,.24.32.59.59,0,0,1,0,.47.56.56,0,0,1-.32.32.4.4,0,0,1-.42-.12l.08,0-.19.45v0h0v0h0l-.14.32-.09.2v-.23h0l.1,0c-.18.5-.38,1-.59,1.6l-.11.29v-.32c0-.94,0-2-.1-3l.06.08a3.09,3.09,0,0,1-1.68-.63,4.46,4.46,0,0,1-.72-.72c-.22-.28-.4-.59-.6-.89a2,2,0,0,0-.71-.7,1.54,1.54,0,0,0-1-.13,2.9,2.9,0,0,0-1.79,1.07l0-.08A13.31,13.31,0,0,1,88.68,97a6.81,6.81,0,0,1-.66,1.9c-.07.15-.31.33-.49.12s-.13-.35-.21-.44-.49-.06-.78-.09h-.06l0-.07a5.66,5.66,0,0,1-.14-.84c-.07-.58-.11-1.15-.2-1.7l.11.08a1.36,1.36,0,0,1-.72,0l-.11,0,0-.12c.07-.2.14-.4.22-.6l.12.13a.65.65,0,0,1-.41.18.34.34,0,0,1-.23-.13.36.36,0,0,1-.07-.3,2.25,2.25,0,0,1,.17-.45l.17-.4.06.14a1.3,1.3,0,0,1-.53-.28.49.49,0,0,1-.12-.15.34.34,0,0,1,0-.26,1,1,0,0,1,.25-.21,2.8,2.8,0,0,0,.73-.87v0a4.72,4.72,0,0,1,.45-1.19,1.9,1.9,0,0,1,.84-.82h0l0,0h0a1.56,1.56,0,0,1,1.8.24l-.13.06a2.64,2.64,0,0,1,1.36-2,2.45,2.45,0,0,1,1-.27,4.65,4.65,0,0,1,1,0,3.85,3.85,0,0,1,1.77.63,6.84,6.84,0,0,1,1.28,1.3l-.1.08h0l.11-.07h0l0,0,.26.33h0a1.2,1.2,0,0,0,.5.2.74.74,0,0,0,.49,0,1.06,1.06,0,0,0,.39-.34.51.51,0,0,1,.22-.19c.12,0,.22.09.24.18a1.39,1.39,0,0,1-.15,1.07,1.61,1.61,0,0,1-.62.6v-.08a3.26,3.26,0,0,0,1.74.5.55.55,0,0,1,.42.23.33.33,0,0,1,.07.17s0-.06-.08-.16a.59.59,0,0,0-.41-.2,3.13,3.13,0,0,1-1.78-.46l-.06,0,.06,0a1.56,1.56,0,0,0,.59-.58,1.28,1.28,0,0,0,.13-1c0-.08-.07-.13-.13-.12a.48.48,0,0,0-.16.16,1.21,1.21,0,0,1-.43.38.87.87,0,0,1-.55,0,1.19,1.19,0,0,1-.54-.22h0l-.26-.33,0,0h0l.1-.06h0l.15.37-.24-.29a7.27,7.27,0,0,0-1.27-1.27,3.76,3.76,0,0,0-1.72-.59,3.25,3.25,0,0,0-1.91.24A2.46,2.46,0,0,0,88.93,91l0,.17L88.8,91a1.4,1.4,0,0,0-1.63-.2h0a1.69,1.69,0,0,0-.76.74A4.25,4.25,0,0,0,86,92.7v0h0a2.86,2.86,0,0,1-.79.93,1.19,1.19,0,0,0-.19.16v0a.16.16,0,0,0,.06.08,1.11,1.11,0,0,0,.47.24l.11,0,0,.11-.18.43a2.45,2.45,0,0,0-.15.38.16.16,0,0,0,.14.19.47.47,0,0,0,.31-.15l.24-.18-.11.32c-.08.19-.15.39-.22.59l-.07-.14a1.27,1.27,0,0,0,.64,0l.1,0v.12c.09.57.14,1.14.2,1.71a5.76,5.76,0,0,0,.14.8l-.08-.07c.14,0,.28,0,.43,0a.93.93,0,0,1,.23,0l.12,0a.47.47,0,0,1,.12.09c.13.16.14.37.21.45s0,0,.11,0,.07,0,.11-.12a6.54,6.54,0,0,0,.63-1.82,13.16,13.16,0,0,0,.27-3.78v0l0,0a3,3,0,0,1,1.89-1.12,1.66,1.66,0,0,1,1,.14,2.08,2.08,0,0,1,.77.76,10.38,10.38,0,0,0,.6.88,4.11,4.11,0,0,0,.68.7,2.9,2.9,0,0,0,1.61.61h.06v.07c.08,1.1.06,2.13.08,3.06l-.11,0,.6-1.59.09-.25,0,.27h0l-.11,0,.14-.31v0h0v0h0l.2-.45,0-.07,0,.05a.31.31,0,0,0,.33.11.43.43,0,0,0,.25-.26.59.59,0,0,0-.21-.66l.06-.08a.49.49,0,0,0,.82,0,.56.56,0,0,0,.1-.45.46.46,0,0,0-.22-.31L97.43,94l.17,0a1.25,1.25,0,0,0,1-.34.5.5,0,0,0,.13-.39Z" transform="translate(2.03 -32.44)" fill="#455b65"/><path d="M89.59,91.3a3.2,3.2,0,0,0-.24.25,2.33,2.33,0,0,0-.38.94,5.11,5.11,0,0,0-.08.72c0,.26,0,.54,0,.84s0,.6,0,.93a4.36,4.36,0,0,1-.06.49,1,1,0,0,1-.18.47.32.32,0,0,1-.33.13.49.49,0,0,1-.3-.21,1.54,1.54,0,0,1-.21-.72h0a2.7,2.7,0,0,1-.29.59.75.75,0,0,1-.47.29.34.34,0,0,1-.24-.06.39.39,0,0,1-.17-.19.55.55,0,0,1,0-.25.31.31,0,0,1,.08-.22l0,0a1.49,1.49,0,0,1-.51.45l-.16.07-.06,0,0,0a.78.78,0,0,0,.16-.08,1.6,1.6,0,0,0,.5-.45l0,0a.42.42,0,0,0,0,.42.34.34,0,0,0,.15.18.4.4,0,0,0,.22,0,.68.68,0,0,0,.43-.28,2.85,2.85,0,0,0,.29-.58l0-.09,0,.1a1.67,1.67,0,0,0,.2.69.45.45,0,0,0,.27.18.25.25,0,0,0,.28-.11,1.06,1.06,0,0,0,.16-.44,2.65,2.65,0,0,0,.07-.48c0-.32,0-.63,0-.92s0-.58,0-.84a5.26,5.26,0,0,1,.08-.73,2.18,2.18,0,0,1,.41-.94.94.94,0,0,1,.25-.24Z" transform="translate(2.03 -32.44)" fill="#455b65"/><path d="M96.86,94.16l0,0-.06,0-.1.07-.15.09a1.81,1.81,0,0,1-1,.2,2.34,2.34,0,0,1-1.41-.65,5.15,5.15,0,0,1-1.19-1.71c-.17-.34-.3-.7-.45-1a3.83,3.83,0,0,0-.51-.87,1.58,1.58,0,0,0-.67-.51,1.2,1.2,0,0,0-.36,0,.88.88,0,0,0-.33.07,1.25,1.25,0,0,0-.5.35,1.58,1.58,0,0,0-.28.41,2.68,2.68,0,0,0-.13.42v0l0-.08a1.45,1.45,0,0,1,.09-.32,1.89,1.89,0,0,1,.27-.43,1.53,1.53,0,0,1,.51-.37,1,1,0,0,1,.34-.07.83.83,0,0,1,.38,0,1.58,1.58,0,0,1,.69.51,4,4,0,0,1,.53.88c.15.33.28.69.44,1a5.34,5.34,0,0,0,1.18,1.69,2.4,2.4,0,0,0,1.39.66,1.86,1.86,0,0,0,1-.18c.23-.12.33-.22.34-.21Z" transform="translate(2.03 -32.44)" fill="#455b65"/><path d="M97.1,92.91s0,0-.09.07a1.09,1.09,0,0,1-.25.15,1.86,1.86,0,0,1-.4.15,2.72,2.72,0,0,1-.51.08,2.78,2.78,0,0,1-.52,0,2.69,2.69,0,0,1-.4-.13,1.3,1.3,0,0,1-.25-.14L94.59,93s.13.07.36.15a1.8,1.8,0,0,0,.39.12,2.78,2.78,0,0,0,.51,0,2.08,2.08,0,0,0,.5-.07,2.54,2.54,0,0,0,.39-.13c.22-.1.35-.19.36-.18Z" transform="translate(2.03 -32.44)" fill="#455b65"/><path d="M92.43,101.75c0-.07-.41.11-.8-.16s-.51-.77-.56-.75,0,.14,0,.35a1.2,1.2,0,0,0,.44.64.75.75,0,0,0,.66.1c.17-.06.25-.15.24-.18Z" transform="translate(2.03 -32.44)" fill="#263238"/><path d="M81.91,114.79a10.63,10.63,0,0,1,0-2.76,5,5,0,0,1,.1,1.37,5.23,5.23,0,0,1-.08,1.39Z" transform="translate(2.03 -32.44)" fill="#263238"/><path d="M98.49,111.35a7.63,7.63,0,0,1,.05,1.64,7,7,0,0,1-.12,1.63,7.69,7.69,0,0,1,0-1.64,7,7,0,0,1,.12-1.63Z" transform="translate(2.03 -32.44)" fill="#263238"/><polygon points="83.47 76.83 92.37 82.58 99.41 82.58 86.24 74.9 83.47 76.83 83.47 76.83" fill="#455b65"/><path d="M135.91,90.67a1.87,1.87,0,0,1,2.58,0,1.12,1.12,0,0,1,1.52.76l1.64.57a1.67,1.67,0,0,1,.78.45.83.83,0,0,1,.07,1,1.18,1.18,0,0,1,.27,1.76.86.86,0,0,1-.17,1.09,8.35,8.35,0,0,1,.93,2.31,1.82,1.82,0,0,1,0,1.06c-.13.33-.51.54-.74.31a1.08,1.08,0,0,1,0,1c.28,0,.33.56.12.79a.91.91,0,0,1-.81.2,1.13,1.13,0,0,0-.83.1.29.29,0,0,0,.08.22,1.59,1.59,0,0,1,.13,1.91l-.1.15a2.49,2.49,0,0,1-.87.62,3.65,3.65,0,0,1-1.76.31c.16.57-1.08,1.69-2.32.39a21.52,21.52,0,0,1-7.36.58,1,1,0,0,1-1-.56.89.89,0,0,1-.86-.42,3.69,3.69,0,0,1-.46-1,2.05,2.05,0,0,1-1.1-1.94,2.71,2.71,0,0,1-.67-1.85,1.62,1.62,0,0,1-.58-2.06,10.34,10.34,0,0,1,1-2.69c-.44-.15-.56-.89-.34-1.38a2.63,2.63,0,0,1,1-1c-.34.08-.6-.44-.49-.84a1.46,1.46,0,0,1,.74-.84,5.52,5.52,0,0,1,1.43-.63,3.37,3.37,0,0,1,1.58-1.7c2.31-1.08,3.89-1.27,6.56,1.44" transform="translate(2.03 -32.44)" fill="#263238"/><path d="M137.31,95.1c.07-.56.19-1.1-.27-1.23l-4.6-2.13c-1.5-.41-2.76,1.69-3.06,3.51a37.59,37.59,0,0,0-.64,6.06,4.58,4.58,0,0,0,2.27,4.15l-.19,1.86a9.33,9.33,0,0,0,.72,3.74c1.7-.23,4.75-4.39,4.75-4.39l1-11.57Z" transform="translate(2.03 -32.44)" fill="#ae7361"/><path d="M131.51,100.14a2,2,0,0,0-.56-.21c-.09,0-.17-.06-.18-.13a.59.59,0,0,1,.1-.31l.36-.79a15.64,15.64,0,0,0,.83-2.06,15.16,15.16,0,0,0-1,2l-.35.79a.78.78,0,0,0-.09.41.26.26,0,0,0,.13.18.65.65,0,0,0,.15,0,2,2,0,0,0,.58.09Z" transform="translate(2.03 -32.44)" fill="#263238"/><path d="M131,105.46a7.37,7.37,0,0,0,3.24-1,3.42,3.42,0,0,1-3.33,1.88l.09-.92Z" transform="translate(2.03 -32.44)" fill="#704539"/><path d="M133.36,95.55c0,.12.38.12.79.24s.72.3.79.21,0-.17-.14-.3a1.25,1.25,0,0,0-.57-.33,1,1,0,0,0-.63,0c-.16,0-.25.13-.24.18Z" transform="translate(2.03 -32.44)" fill="#263238"/><path d="M130,95.18c.05.1.3,0,.6.08s.53.14.6,0,0-.15-.1-.26a.8.8,0,0,0-.47-.22.68.68,0,0,0-.49.12c-.12.08-.16.18-.14.23Z" transform="translate(2.03 -32.44)" fill="#263238"/><path d="M128.12,96.62a2.3,2.3,0,0,1,.52-1.28,6.26,6.26,0,0,0,.52-.51,5.34,5.34,0,0,0,.49-1.6A2.11,2.11,0,0,1,131,91.78a9.93,9.93,0,0,0,1.51-.33c.34-.18.62-.53,1-.69.7-.3,1.44.18,2,.69a2.23,2.23,0,0,1-.62,1.57,1.7,1.7,0,0,1-1.38.74c-.4,0-.86-.15-1.16.16s-.26,1-.53,1.37c-.39.56-1.17.26-1.71.58a2.76,2.76,0,0,0-.87,1.29c-.24.48-.63,1-1.09.91a7,7,0,0,1,0-1.45Z" transform="translate(2.03 -32.44)" fill="#263238"/><path d="M134.41,92.45a8,8,0,0,1,3.37,1,1.73,1.73,0,0,1,.8.78,2.29,2.29,0,0,1,.1,1.08,12.72,12.72,0,0,1-1,3.55l-1.26.75c-.9-.35-.34-2.22-.23-3.17a2.38,2.38,0,0,1-.95-2.09,2.69,2.69,0,0,1-.8-2Z" transform="translate(2.03 -32.44)" fill="#263238"/><path d="M136.44,99.25c.08-.66.76-.72,1.21-.34a1.39,1.39,0,0,1,.33,1.29c-.23,1.85-1.73,1.22-1.73,1.17s.09-1.36.19-2.12Z" transform="translate(2.03 -32.44)" fill="#ae7361"/><path d="M136.81,100.74l.06.06a.28.28,0,0,0,.21,0c.17,0,.34-.34.39-.67a1.45,1.45,0,0,0,0-.47c0-.15-.09-.25-.17-.28a.12.12,0,0,0-.17.06s0,.09,0,.09,0,0,0-.11a.21.21,0,0,1,.08-.11.16.16,0,0,1,.15,0c.12,0,.21.18.25.33a1.53,1.53,0,0,1,0,.53c-.06.37-.26.7-.49.74a.25.25,0,0,1-.24-.09s0-.1,0-.1Z" transform="translate(2.03 -32.44)" fill="#704539"/><path d="M136.92,101.54v.1a.44.44,0,0,0,.17.21.89.89,0,0,0,.37.13h.25a1,1,0,0,0,.28-.07v0a1,1,0,0,0,.36.72.66.66,0,0,0,.82,0h0a.34.34,0,0,0,.19.18.43.43,0,0,0,.25,0,.53.53,0,0,0,.22-.18.76.76,0,0,0,.1-.3,1.09,1.09,0,0,0-.12-.64,2.71,2.71,0,0,0-.38-.51v0a.66.66,0,0,0,.27-.42,1,1,0,0,0,0-.55,1.4,1.4,0,0,0-.24-.49,3.36,3.36,0,0,0-.34-.41v0a.71.71,0,0,0,.19-.52,1.11,1.11,0,0,0-.13-.57,2.15,2.15,0,0,0-.71-.7v0a1.49,1.49,0,0,0-.16-1.16,1,1,0,0,0-.85-.47l0,0a1.23,1.23,0,0,0-.14-.93.85.85,0,0,0-.63-.44l0,0a1.11,1.11,0,0,0-.29-.84.78.78,0,0,0-.63-.28v0a1.13,1.13,0,0,0-.09-.49,1.55,1.55,0,0,0-.21-.36.86.86,0,0,0-.51-.32h-.21a1,1,0,0,0-.15,0l-.09,0h0l.09,0a.57.57,0,0,1,.15,0,.33.33,0,0,1,.1,0H135a.82.82,0,0,1,.49.32,1.55,1.55,0,0,1,.21.36,1.19,1.19,0,0,1,.08.47v0h0a.74.74,0,0,1,.6.27,1,1,0,0,1,.28.81v0h0a.85.85,0,0,1,.6.43,1.2,1.2,0,0,1,.13.88v0h0a.91.91,0,0,1,.81.44,1.37,1.37,0,0,1,.15,1.11v0l0,0a2.13,2.13,0,0,1,.69.68,1.11,1.11,0,0,1,.13.54.76.76,0,0,1-.18.48l0,0,0,0a2.27,2.27,0,0,1,.57.87,1.19,1.19,0,0,1,0,.53.61.61,0,0,1-.25.38l0,0,0,0a2.66,2.66,0,0,1,.37.51,1,1,0,0,1,.12.6.5.5,0,0,1-.29.44.31.31,0,0,1-.4-.15v0l0,0a.66.66,0,0,1-.79,0,1,1,0,0,1-.35-.69v0h0a.9.9,0,0,1-.27.07h-.24a.81.81,0,0,1-.38-.12.37.37,0,0,1-.16-.2c0-.06,0-.09,0-.09Z" transform="translate(2.03 -32.44)" fill="#455b65"/><path d="M143,100.08a.46.46,0,0,0,.07-.11,1,1,0,0,0,.11-.36,1.08,1.08,0,0,0-.09-.59.82.82,0,0,0-.53-.48v0a1.44,1.44,0,0,0-.07-.93,1.13,1.13,0,0,0-.27-.41,2.29,2.29,0,0,0-.41-.28.77.77,0,0,1-.19-.17.62.62,0,0,1-.13-.24c0-.18-.06-.4-.13-.6a.93.93,0,0,0-.91-.64l0,0a1.75,1.75,0,0,0-.24-1.26,1.18,1.18,0,0,0-1-.55l0,0a1.47,1.47,0,0,0-.49-1.35,1,1,0,0,0-1.12,0h0a1.43,1.43,0,0,0-.51-.45,1.84,1.84,0,0,0-.55-.2,2.2,2.2,0,0,0-.92,0,1.57,1.57,0,0,0-.57.22l-.13.1-.05,0,.18-.13a2.05,2.05,0,0,1,.57-.2,2.2,2.2,0,0,1,.92,0,2.09,2.09,0,0,1,.53.21,1.47,1.47,0,0,1,.5.44h0a.93.93,0,0,1,1.08,0,1.41,1.41,0,0,1,.46,1.3v0h0a1.12,1.12,0,0,1,1,.54,1.66,1.66,0,0,1,.23,1.21v0h0a.88.88,0,0,1,.86.62c.07.18.08.4.14.59a.72.72,0,0,0,.14.26.79.79,0,0,0,.2.17,2.33,2.33,0,0,1,.4.27,1.09,1.09,0,0,1,.27.4,1.41,1.41,0,0,1,.07.9v0h0a.79.79,0,0,1,.51.45,1.14,1.14,0,0,1,0,.94.58.58,0,0,1-.06.11Z" transform="translate(2.03 -32.44)" fill="#455b65"/><path d="M128.1,99.25a.19.19,0,0,0,0-.15.51.51,0,0,0-.08-.17.7.7,0,0,0-.19-.13,1,1,0,0,1-.23-.14.6.6,0,0,1-.15-.32,1.22,1.22,0,0,1,0-.43c0-.15.05-.31.06-.48a5.55,5.55,0,0,0-.12-1.12,1.86,1.86,0,0,1,0-.62.71.71,0,0,1,.32-.49,1.94,1.94,0,0,1,.56-.18.74.74,0,0,0,.29-.13.64.64,0,0,0,.21-.27,4.6,4.6,0,0,0,.22-.72,1.26,1.26,0,0,1,.13-.34.44.44,0,0,1,.25-.22,1.57,1.57,0,0,1,.43,0,.59.59,0,0,0,.23,0,.46.46,0,0,0,.18-.16,2.07,2.07,0,0,0,.2-.46,1.18,1.18,0,0,1,.22-.4.87.87,0,0,1,.71-.33.91.91,0,0,1,.64.34l0,0v0a1.56,1.56,0,0,1,1-.87,1.15,1.15,0,0,1,.52,0,1.33,1.33,0,0,1,.42.18,1.37,1.37,0,0,1,.42.54,1.3,1.3,0,0,1,.06.19l0,0v0a1.84,1.84,0,0,0-.06-.18,1.19,1.19,0,0,0-.42-.56,1,1,0,0,0-.42-.19,1.1,1.1,0,0,0-.54,0,1.58,1.58,0,0,0-1,.89h0a.92.92,0,0,0-.67-.36.89.89,0,0,0-.74.34,1.14,1.14,0,0,0-.23.42,2.53,2.53,0,0,1-.19.44.42.42,0,0,1-.38.19,1.33,1.33,0,0,0-.44,0,.52.52,0,0,0-.27.24,1.22,1.22,0,0,0-.14.36,3.69,3.69,0,0,1-.22.71.65.65,0,0,1-.2.26.93.93,0,0,1-.27.12,1.9,1.9,0,0,0-.57.18.58.58,0,0,0-.22.22.91.91,0,0,0-.12.31,1.92,1.92,0,0,0,0,.63,6.78,6.78,0,0,1,.13,1.11c0,.17,0,.33-.06.49a1.29,1.29,0,0,0,0,.44.65.65,0,0,0,.17.33.66.66,0,0,0,.24.14A.59.59,0,0,1,128,99a.37.37,0,0,1,.08.15.35.35,0,0,1,0,.15Z" transform="translate(2.03 -32.44)" fill="#455b65"/><path d="M125.3,96.09v0a.46.46,0,0,0,0-.1c0-.09.11-.22.19-.39s.18-.38.31-.61a1.6,1.6,0,0,1,.57-.62c.13-.07.28-.11.43-.18a1.27,1.27,0,0,0,.23-.12.66.66,0,0,0,.17-.23c.09-.19.11-.41.18-.6a.48.48,0,0,1,.17-.24.77.77,0,0,1,.26-.12,1.57,1.57,0,0,0,.28-.1.51.51,0,0,0,.23-.25,3.22,3.22,0,0,0,.19-.71,1,1,0,0,1,.13-.33.41.41,0,0,1,.26-.17c.2,0,.42.07.65,0a.49.49,0,0,0,.31-.16,1.73,1.73,0,0,0,.22-.31,3,3,0,0,1,.19-.3.56.56,0,0,1,.25-.21.73.73,0,0,1,.58,0,1.12,1.12,0,0,0,.59.12,1.42,1.42,0,0,0,.53-.24,2.83,2.83,0,0,1,.48-.26,1.31,1.31,0,0,1,.92,0,1.74,1.74,0,0,1,.66.48,2.13,2.13,0,0,1,.33.57,2.88,2.88,0,0,1,.14.42.52.52,0,0,1,0,.11v0l0-.12a2.38,2.38,0,0,0-.12-.42,2.12,2.12,0,0,0-.34-.58,1.64,1.64,0,0,0-.65-.5,1.39,1.39,0,0,0-.95-.05,2.33,2.33,0,0,0-.49.26,1.43,1.43,0,0,1-.52.23,1.16,1.16,0,0,1-.56-.12l-.3-.09a.59.59,0,0,0-.32,0,.71.71,0,0,0-.26.23,2.7,2.7,0,0,0-.2.31,1.27,1.27,0,0,1-.21.29.43.43,0,0,1-.29.15c-.21,0-.42-.08-.65,0a.44.44,0,0,0-.29.2,1.07,1.07,0,0,0-.14.35,2.67,2.67,0,0,1-.18.7.45.45,0,0,1-.21.22,1.25,1.25,0,0,1-.27.1.93.93,0,0,0-.27.12.58.58,0,0,0-.19.27c-.07.2-.09.42-.17.59a.66.66,0,0,1-.38.34c-.15.07-.3.11-.43.18a1.6,1.6,0,0,0-.58.64c-.13.24-.22.45-.3.62l-.18.39,0,.11v0Z" transform="translate(2.03 -32.44)" fill="#455b65"/><path d="M127.09,94.29h0a.12.12,0,0,0-.08,0,.41.41,0,0,0-.18.32,1.36,1.36,0,0,0,0,.28,1.67,1.67,0,0,1,0,.32.77.77,0,0,1-.14.34c-.06.1-.15.21-.22.34a.6.6,0,0,0-.07.46c0,.16.12.31.16.47a.9.9,0,0,1-.08.51c-.08.16-.17.32-.25.5a1.63,1.63,0,0,0-.07.3.85.85,0,0,0,0,.32,3.43,3.43,0,0,0,.25.55,1,1,0,0,1,.12.61,3,3,0,0,1-.23.61,1.21,1.21,0,0,0-.08.34.8.8,0,0,0,0,.34,2.86,2.86,0,0,0,.29.55,1.64,1.64,0,0,1,.24.56c0,.19,0,.4.11.59a1,1,0,0,0,.14.25.91.91,0,0,0,.21.15.7.7,0,0,1,.21.11.65.65,0,0,1,.17.16,1.92,1.92,0,0,1,.23.42,4.08,4.08,0,0,0,.18.42,1.12,1.12,0,0,0,.51.52.92.92,0,0,0,.82,0l.1-.06a1,1,0,0,1-.42.12,1,1,0,0,1-.49-.12,1.1,1.1,0,0,1-.49-.51q-.09-.19-.18-.42a1.78,1.78,0,0,0-.23-.43.77.77,0,0,0-.18-.18l-.21-.11a.9.9,0,0,1-.2-.14.73.73,0,0,1-.13-.23,4.77,4.77,0,0,1-.11-.59,1.61,1.61,0,0,0-.24-.57,3.09,3.09,0,0,1-.29-.54,1.13,1.13,0,0,1,0-.32,1.16,1.16,0,0,1,.08-.32,3.07,3.07,0,0,0,.24-.62,1,1,0,0,0,0-.34,1.66,1.66,0,0,0-.12-.31,3.76,3.76,0,0,1-.25-.54,1,1,0,0,1,0-.29,1.15,1.15,0,0,1,.07-.28c.07-.18.17-.34.24-.51a.78.78,0,0,0,.08-.54c0-.18-.12-.32-.16-.47a.58.58,0,0,1,.07-.43c.07-.13.15-.23.22-.34a1,1,0,0,0,.14-.35,1.23,1.23,0,0,0,0-.34,1.26,1.26,0,0,1,0-.27.45.45,0,0,1,.16-.31c.07,0,.11,0,.11,0Z" transform="translate(2.03 -32.44)" fill="#455b65"/><path d="M132.58,100.86a.2.2,0,0,0-.26-.16l-1,.34-.11,0a3.24,3.24,0,0,0,.16.7.62.62,0,0,0,.4.39.63.63,0,0,0,.42-.08,1,1,0,0,0,.47-.55,1.76,1.76,0,0,0-.08-.68Z" transform="translate(2.03 -32.44)" fill="#704539"/><path d="M137.86,101.32a.78.78,0,0,1,.22.18,1.35,1.35,0,0,1,.33.78,1.64,1.64,0,0,1-.06.61,1.68,1.68,0,0,1-.33.58,1.22,1.22,0,0,1-.57.38,1,1,0,0,1-.69,0,1.21,1.21,0,0,1-.56-.49,1.54,1.54,0,0,1-.24-.72,1.63,1.63,0,0,1,.4-1.2,1.11,1.11,0,0,1,.37-.24,1.09,1.09,0,0,1,.32-.07.47.47,0,0,1,.19,0,.14.14,0,0,1,.07,0,.9.9,0,0,0-.26,0,1.09,1.09,0,0,0-.31.08,1,1,0,0,0-.35.24,1.59,1.59,0,0,0-.15,1.84,1.21,1.21,0,0,0,.54.46.94.94,0,0,0,.66,0,1.15,1.15,0,0,0,.54-.35,1.51,1.51,0,0,0,.32-.56,1.52,1.52,0,0,0,.06-.59,1.35,1.35,0,0,0-.29-.76,2,2,0,0,0-.21-.2Z" transform="translate(2.03 -32.44)" fill="#e0e0df"/><path d="M133.34,98.5a.4.4,0,0,0,.28.45.34.34,0,0,0,.39-.32.4.4,0,0,0-.28-.45.34.34,0,0,0-.39.32Z" transform="translate(2.03 -32.44)" fill="#263238"/><path d="M130,98.09a.4.4,0,0,0,.28.45.34.34,0,0,0,.39-.31.39.39,0,0,0-.28-.45.34.34,0,0,0-.39.31Z" transform="translate(2.03 -32.44)" fill="#263238"/><path d="M129.9,96.59c0,.06.3-.12.63,0s.53.36.57.31,0-.13-.08-.26a.78.78,0,0,0-.45-.32.7.7,0,0,0-.51.11c-.12.09-.17.18-.16.21Z" transform="translate(2.03 -32.44)" fill="#263238"/><path d="M133,97.2c0,.07.34-.17.74-.13s.67.32.72.26,0-.14-.13-.27a.89.89,0,0,0-.57-.29.85.85,0,0,0-.6.18c-.13.11-.18.22-.16.25Z" transform="translate(2.03 -32.44)" fill="#263238"/><path d="M131.56,102s0,0,.1.1a.51.51,0,0,0,.35.07.87.87,0,0,0,.5-.26.82.82,0,0,0,.19-.33,1,1,0,0,0,0-.42,2.23,2.23,0,0,0-.09-.39.34.34,0,0,0-.13-.18.32.32,0,0,0-.18,0l-.5.19a2.31,2.31,0,0,0-.46.21,1.68,1.68,0,0,0,.48-.12l.5-.17c.11,0,.15,0,.19.09a2.22,2.22,0,0,1,.09.37.78.78,0,0,1-.17.64.88.88,0,0,1-.45.26.58.58,0,0,1-.33,0c-.07,0-.11-.07-.11-.06Z" transform="translate(2.03 -32.44)" fill="#263238"/><path d="M146.59,103.43s1.44,4.58,1.7,5.47.62,2.23.79,2.88a.5.5,0,0,1-.32.61c-1.76.48-8,1.21-8,1.21l-1-4.64-.76-2,1.14.15,6,.71-1.94-2.55,2.44-1.8Z" transform="translate(2.03 -32.44)" fill="#379de2"/><path d="M122.06,114.22s.33-3.18.8-3.81a7.63,7.63,0,0,1,3.18-2.35,23.93,23.93,0,0,1,4.78-1.18,3.74,3.74,0,0,0,5.47-.21s3.34-.13,4.75.65a20.41,20.41,0,0,0-.33,3.71,18.74,18.74,0,0,1-.08,3l-18.57.22Z" transform="translate(2.03 -32.44)" fill="#379de2"/><path d="M141.14,110.82a8.32,8.32,0,0,1-.17,1.7,8.11,8.11,0,0,1-.34,1.67,8.32,8.32,0,0,1,.17-1.7,8.11,8.11,0,0,1,.34-1.67Z" transform="translate(2.03 -32.44)" fill="#263238"/><path d="M125.57,114.21a8.38,8.38,0,0,1-.49-2.89,8.34,8.34,0,0,1,.29,1.43,8.25,8.25,0,0,1,.2,1.46Z" transform="translate(2.03 -32.44)" fill="#263238"/><path d="M138.57,93.84l.83.8s1,.09,1.18.34,1,2.71,1,2.71l-1.67,2a6.34,6.34,0,0,1-1.86-1,1.66,1.66,0,0,1-.16-1V96l-.11.16s0,.8-.4.77l-.14-.06V95.61a1.28,1.28,0,0,1-.12-.68,1.68,1.68,0,0,1,.5-.75l.4-.35a.35.35,0,0,1,.48,0Z" transform="translate(2.03 -32.44)" fill="#ae7361"/><polygon points="147.96 69.17 143.66 65.25 141.96 67.08 146.2 72.77 148.62 71.17 147.96 69.17 147.96 69.17" fill="#ae7361"/><path d="M139.52,95.09a4.36,4.36,0,0,1-.91.13h0a2,2,0,0,0-.36.36,2.5,2.5,0,0,0-.18.24.43.43,0,0,0-.11.25h0v.89l0-.07c0,.06.12.07.19,0a.85.85,0,0,0,.17-.33,1,1,0,0,0,.07-.32v-.06l0,0,.52-.42.13.08s0,0,0,0h.16l0,.09a.56.56,0,0,0,.29.39l.07,0,0,.08a4.79,4.79,0,0,0,0,1.45,4.06,4.06,0,0,0,.14.53s-.15-.14-.23-.5a4.56,4.56,0,0,1,0-1.51l.06.1a.65.65,0,0,1-.41-.51l.1.07a.37.37,0,0,1-.15,0,.2.2,0,0,1-.16-.18l.13.08-.51.43,0-.09a1.67,1.67,0,0,1-.08.4,1.62,1.62,0,0,1-.22.41.34.34,0,0,1-.22.12.32.32,0,0,1-.22-.12l0,0v0c0-.31,0-.61,0-.89h0a.67.67,0,0,1,.16-.36,2.51,2.51,0,0,1,.19-.24,2,2,0,0,1,.41-.37h0a4.25,4.25,0,0,1,.92,0Z" transform="translate(2.03 -32.44)" fill="#704539"/><path d="M137.91,96a.79.79,0,0,1,0,.4,1,1,0,0,1-.17.43.4.4,0,0,1-.52.15l0,0V96.9c0-.18,0-.37,0-.57a3.37,3.37,0,0,1,.07-.66.91.91,0,0,1,.16-.23l.16-.18c.1-.12.21-.23.31-.33l.15-.15a.51.51,0,0,1,.19-.13,1.07,1.07,0,0,1,.34.07,1.91,1.91,0,0,1,.59.28,2.47,2.47,0,0,1-.62-.13,1,1,0,0,0-.29,0l-.12.1-.14.15-.29.33-.16.18a.77.77,0,0,0-.12.17,3.34,3.34,0,0,0-.06.58c0,.19,0,.38,0,.56l0-.08a.28.28,0,0,0,.35-.1.88.88,0,0,0,.17-.35,2.81,2.81,0,0,1,.07-.37Z" transform="translate(2.03 -32.44)" fill="#704539"/><path d="M138.2,94.74s-.06-.17,0-.36.09-.33.14-.32.06.17,0,.36-.09.33-.14.32Z" transform="translate(2.03 -32.44)" fill="#704539"/><path d="M138.23,97.86s.1-.3.15-.67,0-.67,0-.69.21.28.15.72-.29.69-.32.64Z" transform="translate(2.03 -32.44)" fill="#704539"/><path d="M139.59,97.92s-.23-.26-.57-.38-.64,0-.66,0,.06-.1.18-.15a.79.79,0,0,1,.53,0c.42.16.57.57.52.58Z" transform="translate(2.03 -32.44)" fill="#704539"/><polygon points="140.54 73.82 130.32 81.74 134.34 81.23 143.17 74.15 140.54 73.82 140.54 73.82" fill="#455b65"/><path d="M124.87,110.46a3.92,3.92,0,0,1-.18,1.61l-.31.61.35,1.51-3,0-.38-2.16,2.33-2,1-.19.24.59Z" transform="translate(2.03 -32.44)" fill="#ae7361"/><path d="M118.75,115.16l-.75-.33a7.9,7.9,0,0,1,7.63-5.18,7.32,7.32,0,0,1,6.94,4.68l-.73.42a6.53,6.53,0,0,0-6.22-4.14,7.16,7.16,0,0,0-6.87,4.55Z" transform="translate(2.03 -32.44)" fill="#263238"/><path d="M120.2,110.1a1.65,1.65,0,0,0-.59,1.12,6.08,6.08,0,0,0,1,2.21c.13,0,.06.29.56,0,0,0,.17.93,1.17.48,0,0,.62.56.81-.35,0,0,.84.19.87-.64s0-2.69,0-2.69a1.92,1.92,0,0,0,1,0c.29-.16.14-.75,0-1.1s-.77-.45-.77-.45a1.14,1.14,0,0,0-.31-.24c-.11,0-.47.16-.47.16s-.81-.48-1.09.05c0,0-.91-.24-1.14.35a1,1,0,0,0-.79.59l-.31.48Z" transform="translate(2.03 -32.44)" fill="#ae7361"/><path d="M124.24,110.28s-.13,0-.29-.1a1.24,1.24,0,0,1-.44-.71,1.12,1.12,0,0,1,.12-.89c.14-.18.29-.16.29-.14s-.11.07-.2.24a1.14,1.14,0,0,0,0,.73,1.58,1.58,0,0,0,.34.65c.13.13.23.19.22.22Z" transform="translate(2.03 -32.44)" fill="#704539"/><path d="M122.51,108.76c.06,0,.15,1.07.33,2.38s.39,2.36.34,2.38a10,10,0,0,1-.51-2.34,11.47,11.47,0,0,1-.16-2.42Z" transform="translate(2.03 -32.44)" fill="#704539"/><path d="M121.35,109.27c.05,0,.12,1,.39,2.3s.61,2.22.56,2.25a10.25,10.25,0,0,1-1-4.55Z" transform="translate(2.03 -32.44)" fill="#704539"/><path d="M120.34,110s.14.8.38,1.75.52,1.69.47,1.72a4.58,4.58,0,0,1-.64-1.65,5.33,5.33,0,0,1-.21-1.82Z" transform="translate(2.03 -32.44)" fill="#704539"/><path d="M123.53,108.63s.06-.06.2-.12a.52.52,0,0,1,.28-.08,1,1,0,0,1,.33.24h0a1.61,1.61,0,0,1,.55.18.67.67,0,0,1,.27.28,2.46,2.46,0,0,1,.13.41,1.55,1.55,0,0,1,0,.49.62.62,0,0,1-.12.26.45.45,0,0,1-.23.11,2.51,2.51,0,0,1-.9-.06l.1-.1c0,.45,0,.93,0,1.42,0,.25,0,.5,0,.75v.39a1.3,1.3,0,0,1,0,.42.63.63,0,0,1-.42.43,1,1,0,0,1-.51,0l.1-.08a.7.7,0,0,1-.38.57.58.58,0,0,1-.56-.17h.08a1.12,1.12,0,0,1-.78.09.85.85,0,0,1-.5-.64l.11.06a1.46,1.46,0,0,1-.31.14.23.23,0,0,1-.19,0c-.06-.05-.08-.1-.1-.11s-.15-.17-.21-.26a1.35,1.35,0,0,1-.15-.26,7.12,7.12,0,0,1-.43-.91,3.46,3.46,0,0,1-.21-.62c0-.16,0-.24,0-.24s0,.08.06.22a5.18,5.18,0,0,0,.23.6c.12.25.27.55.46.87a1.65,1.65,0,0,0,.15.25.62.62,0,0,0,.17.21c.13.11.1.14.21.11a.9.9,0,0,0,.26-.13l.08,0,0,.11a.69.69,0,0,0,.4.5,1,1,0,0,0,.67-.09l0,0,0,0a.47.47,0,0,0,.42.13c.13,0,.21-.22.25-.42l0-.1.08,0a.61.61,0,0,0,.74-.33,4.23,4.23,0,0,0,0-.73c0-.26,0-.51,0-.75,0-.49,0-1,0-1.42v-.12l.1,0a2,2,0,0,0,.84.07c.27,0,.26-.37.2-.64a3.44,3.44,0,0,0-.11-.38.52.52,0,0,0-.21-.23,1.73,1.73,0,0,0-.51-.2h0a1.18,1.18,0,0,0-.29-.24.7.7,0,0,0-.25,0,1,1,0,0,1-.21.07Z" transform="translate(2.03 -32.44)" fill="#704539"/><polygon points="116.15 74.4 115.43 74.4 115.44 73.54 116.16 73.54 116.15 74.4 116.15 74.4" fill="#263238"/><polygon points="110.24 74.4 109.53 74.4 109.53 73.54 110.25 73.54 110.24 74.4 110.24 74.4" fill="#263238"/></svg>