<?xml version="1.0" encoding="utf-8"?>
<!-- Generator: Adobe Illustrator 25.2.1, SVG Export Plug-In . SVG Version: 6.00 Build 0)  -->
<svg version="1.1" id="Capa_1" xmlns="http://www.w3.org/2000/svg" xmlns:xlink="http://www.w3.org/1999/xlink" x="0px" y="0px"
	 viewBox="0 0 18.1 18.3" style="enable-background:new 0 0 18.1 18.3;" xml:space="preserve">
<style type="text/css">
	.st0{fill:#21D821;}
</style>
<g>
	<path class="st0" d="M14.2,11.9c0,0.8-0.4,1.4-1.2,1.8c-0.7,0.3-1.3,0.3-2,0.1c-1.3-0.3-2.5-1-3.5-1.8C7.2,12,7,11.8,6.9,11.7
		c-0.2-0.2-0.5-0.4-0.7-0.6c-0.7-0.6-1.3-1.3-1.7-2.1C4.1,8.1,3.8,7.3,3.9,6.4c0-0.8,0.4-1.4,1-1.9C5.3,4.2,5.7,4.3,6,4.7
		C6.3,5,6.5,5.5,6.7,5.9c0.1,0.2,0.2,0.4,0.2,0.6c0.1,0.6-0.1,1-0.6,1.4C6,8.2,6,8.5,6.2,8.8c0.3,0.6,0.8,1,1.3,1.4
		c0.6,0.5,1.2,1,1.9,1.4c0.2,0.1,0.4,0.2,0.6,0.3c0.5,0.1,0.8-0.1,1.1-0.4c0.2-0.2,0.3-0.4,0.5-0.7c0.2-0.3,0.5-0.4,0.9-0.2
		c0.5,0.3,0.9,0.6,1.4,0.8C14,11.7,14.1,11.8,14.2,11.9z"/>
</g>
</svg>
