<svg id="Capa_1" data-name="Capa 1" xmlns="http://www.w3.org/2000/svg" viewBox="0 0 722.37 726.04"><path d="M389,376.63c1,10.8-.31,23.59-1.17,36.3-2.36,35-7.51,69.6-19.89,102.67-7.14,19.09-16.25,37.13-31.42,51.39-20.32,19.1-51.29,23.14-75,7.14-13.63-9.21-23-22.06-30.47-36.38-13.05-25.13-20.85-52-26-79.75a456.8,456.8,0,0,1-6.2-50.43c-.58-8,.24-16-.91-23.82-1.72-11.64.19-23.14.31-34.68.19-19.11,2.51-38.08,5.59-57a322.09,322.09,0,0,1,15.16-58c6.91-19.11,16.09-36.81,31.32-50.82,20.28-18.65,50.76-22.07,74.07-7.26,17.32,11,28.21,27.58,36.47,45.84a284.42,284.42,0,0,1,18.58,57,381.93,381.93,0,0,1,6.73,41.79A480,480,0,0,1,389,376.63ZM271,374.53q0,88,0,175.92a16.65,16.65,0,0,0,.5,5.39c3.79,10.9,14.25,16.89,26,15.07C308.7,569.17,316,560.29,316,548.28q0-173.17,0-346.35a22.31,22.31,0,0,0-3.31-11.66c-5.12-8.6-13.26-10.47-22.53-10.27-11.77.24-19.18,7.43-19.18,19.11Z" transform="translate(-23.68 -10.03)" fill="#fcfcfc"/><path d="M62.54,706.28c6.51,11.06,22.62,8.86,30.06,1.53,17.32-17,21.11-37.54,14.65-60.45-3.69-13.05-9.3-25.31-15.62-37.24C82.8,593.46,78.9,575.92,78.94,557q.42-182.18.13-364.35c0-7.45.87-6.47-6.73-6.57-1.67,0-3.33,0-5,0-8.28-.13-6.85,1.09-7.36-7-.3-4.81,1.1-6.17,6-6.07,16,.34,32,.4,48,0,10.66-.24,21.21,1.4,31.83,1.07,2.74-.09,3.53,1.09,3.31,3.55-.1,1.16,0,2.34,0,3.5,0,137.44.29,274.88-.24,412.32C148.72,622,146,650.62,136.13,678c-4.58,12.66-10.59,24.46-20.49,33.95-8.25,7.9-18,12.12-29.23,14.17-16.85,3.08-30.63-3-42.34-13.94-9.27-8.69-16.62-19.07-19.38-32-3.34-15.59,1.47-36,16.34-45.37,10.39-6.51,29.29-8,39.58,1.37,6.29,5.7,9.06,13.51,10.94,21.67,2.29,9.93,2.59,19.69-2.8,28.72S76.43,702.79,65.53,705A15.52,15.52,0,0,0,62.54,706.28Z" transform="translate(-23.68 -10.03)" fill="#fcfcfc"/><path d="M632,466c0,28,.24,56-.11,84-.15,12.58,10.77,25.27,27.47,23.4,24.14-2.71,38.87-16.57,49.73-36.61s16.6-41.62,20-64a369,369,0,0,0,4.14-40.8c.24-6.26.83-12.56.69-18.84-.07-3.41,1.2-4.47,4.34-4.08a11.59,11.59,0,0,0,3,0c3.62-.53,4.86.74,4.84,4.6-.08,13.92-.91,27.78-1.94,41.67a285.11,285.11,0,0,1-9.22,55.82c-6.36,22.89-15.83,44.17-34.55,59.9C689.62,580,677,584.59,663,586.06c-15.94,1.68-30.22-1.89-43.24-11.14-10-7.13-17.4-16.6-23.7-26.92-10.61-17.38-17.51-36.33-23.12-55.84-4.36-15.18-7.2-30.66-9.69-46.18-1.8-11.21-2.09-22.64-3.28-34-1.73-16.43-.75-32.89-1-49.33-.26-20.53,2-40.84,4.77-61.16a330.26,330.26,0,0,1,16.3-65.3c6.12-17.18,14.43-33.34,27.07-46.63,10.3-10.82,23-17.83,38.26-19.59,31.19-3.61,53.33,10.34,69.41,35.75,10.13,16,15.81,33.88,20.07,52.18a388.68,388.68,0,0,1,8.19,52.54C745,330.63,746,350.77,746,371c0,3.74-.75,5.17-4.89,5.11-18.32-.23-36.7.71-55-.34-16.47-.94-32.9-.17-49.34-.84-4.05-.16-5,1.21-4.94,5.05C632,408.63,632,437.29,632,466Zm0-187.51c0,26.15.1,52.3-.1,78.46,0,4.23,1.22,5.3,5.32,5.2,11.65-.27,23.32-.22,35,0,3.53.06,4.89-.65,4.88-4.6-.13-50.81-.07-101.62-.11-152.42,0-9.26-7.25-18.95-16.07-21.56-14.65-4.32-29.92,2.41-29.15,21C632.74,229.1,632,253.78,632,278.44Z" transform="translate(-23.68 -10.03)" fill="#fcfcfc"/><path d="M505,370.85q0,94.22-.1,188.42c0,4.52,1.08,6.27,5.74,5.77,3.62-.39,7.33.06,11-.11,2.67-.13,3.33,1,3.43,3.48.38,9.55.47,9.55-8.83,9.55-13.82,0-27.68.5-41.47-.13-18.28-.83-36.55-.89-54.82-.81-3.06,0-4.05-.91-4-4,.31-11.25-1.27-8.91,8.78-9C436,563.84,436,564,436,552.92q0-178.68.1-357.35c0-5-.92-7.21-6.4-6.65-3.71.37-7.47-1.31-11.32-.92-1.69.18-2.43-.73-2.35-2.39,0-.33,0-.67,0-1-.57-10.12.47-11,10.61-8.84a24.06,24.06,0,0,0,5,.27c22.66,0,45.32.13,68-.1,4.36,0,5.55,1,5.54,5.49Q504.88,276.14,505,370.85Z" transform="translate(-23.68 -10.03)" fill="#fcfcfc"/><path d="M246.05,653.61c0-17.61.15-33.76-.11-49.9-.06-4.07,1.2-5.12,5-4.83a80.12,80.12,0,0,0,12.49,0c3.69-.3,4.74.8,4.71,4.61C268,627.64,268,651.8,268,676c0,13.83-.07,27.66,0,41.48,0,3.77.59,7.53,1,11.29.23,2.25-.38,3.35-2.95,3.24-4.49-.18-9-.09-13.49,0-2.16,0-3.77-.65-3.51-3.06.42-3.86-1-7.47-1.27-12.36-4.74,5.46-9.8,9.45-15.84,12-21.38,8.9-52.14,6.29-68.11-15.39-12.22-16.58-10.33-43,3.92-57.46s31.66-18.6,51.32-15.8C229.28,641.28,238.42,644.46,246.05,653.61Zm0,33.39c0-3.75.13-6.75,0-9.74-.33-6.28-2.64-12-7.33-16C228,652,215.35,649.78,202,653.6c-13,3.74-20.46,12.59-23.21,26.23-2.48,12.34,2.73,28.23,14.24,34.66a39.52,39.52,0,0,0,31.5,3.64c8.92-2.55,15.85-7,19.82-15.84C246.76,697,245.63,691.6,246.05,687Z" transform="translate(-23.68 -10.03)" fill="#fcfcfc"/><path d="M157.07,52c-.83,24.93-19.56,41.2-42.66,40.68-25.79-.57-42.88-17.45-43-41.67-.09-22.72,20.12-41.23,43.4-41C137.08,10.28,157.06,29.93,157.07,52Z" transform="translate(-23.68 -10.03)" fill="#fcfcfc"/><path d="M513,54.88c1.18,19.94-19,40.77-42.56,40.35-21.77-.39-43.87-18.65-42.7-43.15.95-19.78,19.89-40,42.24-39.84S513.78,31.49,513,54.88Z" transform="translate(-23.68 -10.03)" fill="#fcfcfc"/><path d="M613.88,691.93h-37c-5.46,0-5.66.52-4.43,6.07,2.92,13.06,12.14,19.59,24.06,22.81,15,4,30,2.41,44.76-1.22,3.86-1,4.63-.05,5.81,3.19,3.64,9.93,2,8.07-6.1,10a122.74,122.74,0,0,1-35.29,3.07c-15.48-.76-30.14-4.46-42-14.95-7.82-6.91-12-16.09-12.75-26.71s1-20.65,6.91-29.58c7.68-11.65,18.76-18.7,32.33-21.25,15.38-2.89,30.8-3.09,45.06,4.68,12.47,6.8,19.41,17.59,20.68,31.84a44.23,44.23,0,0,1,.26,8.56c-.35,3.49-1.83,3.49-4.36,3.48C639.19,691.9,626.53,691.93,613.88,691.93Zm-10.79-12c9.47,0,18.94-.05,28.41,0,2.32,0,3.91-.25,3.48-3.15-1-6.81-3.39-12.7-9.24-17-6.86-5-14.53-6.08-22.71-5.94-15.37.26-25.74,8.88-30.18,21.92-1.14,3.36-.87,4.27,2.83,4.18C584.81,679.8,594,679.94,603.09,679.94Z" transform="translate(-23.68 -10.03)" fill="#fcfcfc"/><path d="M485.31,715.58c10.51-22.73,21.11-45.42,31.44-68.23,1.55-3.42,3.35-4.67,7-4.48,5.81.29,11.65.07,17.79.07-2.37,7.25-6.61,13.29-9.95,19.75-11.61,22.45-23.43,44.79-35,67.24-1.16,2.24-2.44,3.13-4.94,3-6-.21-13.09,1.78-17.65-.81-4.13-2.34-5.51-9.55-8.06-14.64q-17.69-35.24-35.36-70.5c-2.52-5-2.49-5.16,3-5s10.81,1.51,16.29,1c2.09-.21,2.81,1.17,3.52,2.79,10.17,23.07,22,45.4,31,69C484.45,715,484.84,715.17,485.31,715.58Z" transform="translate(-23.68 -10.03)" fill="#fcfcfc"/><path d="M702,661.15c3.92-5.17,8-9.75,13.38-13a36.65,36.65,0,0,1,23.56-5.26c2.32.23,3.24.66,3.1,3.11a87.62,87.62,0,0,0,0,10c.16,2.91-1.07,3.16-3.59,2.79-17.07-2.51-33.07,8.13-33.39,26.71-.26,15-.2,30,0,45,.06,3.84-1.06,4.88-4.73,4.59a80,80,0,0,0-12.48,0c-3.82.29-5-.78-5-4.83.21-24,0-48,.17-71.94,0-3.68-.76-7.19-1.08-10.78-.21-2.37.25-3.72,3.14-3.56,4.31.23,8.66.18,13,0,3.19-.13,4,1.4,3.92,4.26C701.86,652.49,702,656.82,702,661.15Z" transform="translate(-23.68 -10.03)" fill="#fcfcfc"/><path d="M323,659.17c5.83-8.81,12.48-14.68,21.66-17.55C349.84,640,355,640,360.27,639.9c2.25,0,3,.84,2.76,2.93a6.68,6.68,0,0,0,0,1c.25,11.82.22,11.45-11.51,12.21-13.72.88-25.44,10.94-25.48,25.87,0,15.32-.1,30.64.07,46,0,3.28-.89,4.35-4.16,4.13a83.85,83.85,0,0,0-12.48,0c-4.18.36-5.63-.64-5.57-5.29.3-21.47.23-43,.07-64.43,0-5.75-1.23-11.47-1-17.28.09-2.39.78-3.34,3.15-3.07a34,34,0,0,0,3.5,0c13.33,0,13.33,0,13.41,13.47C323,656.25,323,657.08,323,659.17Z" transform="translate(-23.68 -10.03)" fill="#fcfcfc"/><path d="M408,687.62c0,13.47-.1,26.94.06,40.41,0,3.59-.93,5.17-4.77,5-4.8-.27-9.64-.15-14.46,0-2.75.06-3.86-1-3.86-3.81q.08-41.65,0-83.31c0-3.16,1.37-4,4.24-3.93,4.65.13,9.32.22,14,0,3.68-.2,4.95,1.08,4.9,4.82C407.91,660.35,408,674,408,687.62Z" transform="translate(-23.68 -10.03)" fill="#fcfcfc"/><path d="M396.15,626.94c-1.76-.06-4,.14-6.24-.89-3.53-1.62-6.29-3.49-7-7.79-.79-5,2.12-8.21,5.74-10a17.15,17.15,0,0,1,14.78-.15c5,2.32,7.29,6.13,6.52,10.41-.69,3.81-5.42,7.86-9.83,8.35A40,40,0,0,1,396.15,626.94Z" transform="translate(-23.68 -10.03)" fill="#fcfcfc"/></svg>