<svg id="Capa_1" data-name="Capa 1" xmlns="http://www.w3.org/2000/svg" viewBox="0 0 383.48 559.46"><path d="M402.71,371.94a219.11,219.11,0,0,0-17-55,208.83,208.83,0,0,0-32.32-49c-9.36-10.73-20.16-19.66-31.05-28.61-2.86-2.36-4.12-1.71-6.2,1.14a116,116,0,0,1-23.87,24.1c-18.3,13.78-38.55,23-61.43,26.71a138,138,0,0,1-43.12.39,132.93,132.93,0,0,1-32.3-9.45,135,135,0,0,1-49.64-36.39c-3.46-4-5-3.19-8-.65a215.28,215.28,0,0,0-29.87,30,202.88,202.88,0,0,0-34,60.54c-8.07,22.93-12.49,46.59-11.79,70.61-.32,16.42,1,32.17,6.3,47.4,6.31,18.07,16.52,33.05,33.09,43.29,2.92,1.81,6.94,2.76,8.25,6.76,2.88,8.81,6.05,17.45,10.81,25.49a92,92,0,0,0,22.09,25.81c14.31,11.33,31,17.68,48.57,22.35,18.45,4.91,37.25,5.84,56.08,6.81,10.13.52,20.27-.27,30.4-.77,4.75-.23,9.57-.52,14.18-1.21,14.45-2.16,28.76-5.16,42.46-10.59,17-6.78,31.2-17.11,41.78-32.22a100,100,0,0,0,14.42-32,5.49,5.49,0,0,1,3.61-3.95A76.55,76.55,0,0,0,386,479c12.77-17,18.25-36.89,19.16-57.87C405.86,404.74,405.59,388.29,402.71,371.94Z" transform="translate(-22 -25)" fill="#fcfcfc"/><path d="M204.09,277.37c74.6,1.87,126-57,129.16-118.4C337.36,80.14,275.34,26.73,212,25.05,139.38,23.11,81.75,83,83.23,151.19,82.34,221.93,139.76,275.76,204.09,277.37ZM107.44,112.45c1.33-3.84,4.36-2.73,6.27-2.19,15.09,4.33,28.65,11.32,38.42,24.3.9,1.19,1.92,2.25,3.42,4.06h0c3.67-12.12,7-23.34,10.45-34.55,1.55-5.06,1.58-5,5.86-2.17,6.7,4.45,13.59,8.69,20.22,13.28,1.85,1.31,2.83,1.24,4.56-.13a106.72,106.72,0,0,1,50.85-22.39c14.55-2.2,28.71-.85,43.2.52,10.26,1,13.29,7.37,16.22,14.61a118.32,118.32,0,0,1,8.58,35.48c1.85,24.07-3.94,46-16.45,66.22a106.57,106.57,0,0,1-77.52,49.14c-16.28,1.8-32.09.58-47.59-4.66-20.13-6.77-36.49-18.79-49.88-35.3-12.37-15.27-19.61-32.77-22.7-52C98.35,148.14,101.33,130.09,107.44,112.45Z" transform="translate(-22 -25)" fill="#fcfcfc"/><path d="M168.54,217.72c4.08,2.4,8.84,3.24,13.22,4.29a114.65,114.65,0,0,0,35.15,3.27c3.75-.94,10,.31,16.17-1.21s12.54-2.43,17.82-6.78c2.83-2.31,4.35-4.47,2.31-7.74s-4.76-2.86-8.05-1.37c-8,3.64-16.45,6.16-25.41,6-6.83-.14-13.64.1-20.5-.75-9.44-1.21-18.88-2-27.47-6.65-3-1.6-5.1-.39-6.65,2.13C163.32,211.83,164.76,215.5,168.54,217.72Z" transform="translate(-22 -25)" fill="#fcfcfc"/></svg>