<?xml version="1.0" encoding="utf-8"?>
<!-- Generator: Adobe Illustrator 25.2.1, SVG Export Plug-In . SVG Version: 6.00 Build 0)  -->
<svg version="1.1" id="Capa_1" xmlns="http://www.w3.org/2000/svg" xmlns:xlink="http://www.w3.org/1999/xlink" x="0px" y="0px"
	 viewBox="0 0 391 397" style="enable-background:new 0 0 391 397;" xml:space="preserve">
<g id="Capa_2">
	<g>
		<path
		style="fill:#0288F2;"
		 class="st0" d="M325.4,144.6c-2.2-6.9-11.8-10.6-18.1-9.5c-3.2,0.5-6.5,1.1-9.4,2.5c-4.9,2.4-6.4,0.2-7.7-4
			c-3-9.6-6.3-19.1-13.6-26.6c-12.3-12.5-27.8-17.5-44.7-17.8c-27.3-0.5-54.6-0.6-81.9,0.1c-13.7,0.4-24.8,7.6-34,17.9
			c-7.8,8.7-12.2,19.2-16.6,29.6c-1.1,2.5-2.5,2.6-4,2.1c-3.7-1.4-7.6-1.6-11.4-2.5c-5.1-1.2-16.9,2.6-19.8,9
			c-2.9,6.3-3.6,12.7-2.9,19.2c0.9,9,9.4,16.6,18.3,16.4c4.6-0.1,4.1,2.4,3,4.9c-4.4,9.9-4.8,20.3-4.5,30.9c0.2,7,0.1,14,0,21
			c-0.2,8.5,3.6,16.2,10.3,19.4c7.9,3.7,8.2,8.8,7.7,15.4c0,0.7-0.1,1.3,0,2c1,11,6.8,19.9,19.8,19.4c4.7-0.2,9.4-0.4,14,0.1
			c5.4,0.6,8.5-2.1,11.4-6.1c3.5-5,5.2-10.3,5-16.5c-0.3-9.5-0.1-9.5,9.6-9.5c10.8,0,21.7,0,32.5,0c17.5,0,35,0.1,52.5-0.1
			c3.6,0,4.6,1,4.3,4.5c-0.3,3.5-0.4,7,0,10.5c1.3,9.9,4.2,13.9,13,15c7.2,0.9,14.6,0.4,22,0.1c6.1-0.3,12.5-6.5,14.2-12.4
			c1.2-4.4,0.6-8.9,0.8-13.3c0.1-2.9-0.5-5.7,3.8-6.8c1.7-0.4,3.8-2.5,5.5-4.5c5.3-6.3,6.8-13.9,8.6-21.5c0.6-2.4-0.9-3.9-2.9-4.4
			c-2.2-0.6-3.7,0.2-4.1,2.9c-0.7,4.3-1.5,8.7-3,12.8c-2.3,6.4-6.5,10.4-14.2,10.3c-30.8-0.2-61.6-0.1-92.4-0.1
			c-31.1,0-62.3,0-93.4,0c-4.9,0-9.3-0.9-12.9-4.8c-3.1-3.3-4.8-6.8-4.6-11.4c0.6-19.6-1.6-39.3,5.8-58.6
			c7.9-20.7,13.3-42.4,24.6-61.7c8.3-14.2,20.9-22.2,37.8-22.3c22.8-0.1,45.6,0,68.5-0.1c8.8,0,17.5,0.2,26.1,2.2
			c14.8,3.4,26.4,11.3,32,26c7.3,19.6,14,39.4,21.3,59c1.5,3.9,2.8,7.9,4.4,11.9c0.8,2.1,2.3,4.1,4.5,3.2c2.1-0.8,3.3-2.9,2.1-5.6
			c-1.2-2.6-1.7-5.6-3.1-8.1c-1.7-3.1-0.6-3.5,2.3-3.6c5.5-0.2,9.8-2.5,12.9-7.4C330.3,164.1,328.6,154.6,325.4,144.6z M252.5,264.6
			c0-2.5,1.8-2.3,3.5-2.3c4.6,0,9.3,0,13.9,0c0-0.1,0-0.2,0-0.3c4.1,0,8.3,0.3,12.4-0.1c3.7-0.3,4.6,1.1,4.3,4.5
			c-0.3,3.3-0.2,6.6,0,9.9c0.3,4.6-2.7,6.9-6.3,7.5c-7.4,1.1-14.8,0.8-22.3,0.3c-3.2-0.3-4.4-2.2-4.9-4.6
			C252,274.6,252.5,269.6,252.5,264.6z M117.2,262.3c1.3,0,2.7,0,4,0c0,0,0,0.1,0,0.1c4.6,0,9.3,0,13.9,0c1.4,0,3.4-0.3,3.4,1.9
			c0,6.7,1.2,13.6-3.5,19.6c-1.3,1.7-2.6,2.8-4.8,2.7c-5.3-0.1-10.6,0.1-15.9-0.1c-6.3-0.2-9.7-3.6-10.2-9.8
			C102.8,262.3,102.8,262.3,117.2,262.3z M92.9,151.9c-1.7,4.6-3.3,9.3-4.9,14c-1.6,4.7-6.9,8.5-11.3,7.8c-4.2-0.7-7.5-5.4-7.5-10.9
			c0-1.3,0-2.7,0-4c-1.5-15,7.3-16,17.4-14.6c0.7,0.1,1.3,0.3,1.9,0.4C95.1,145.9,95.1,146,92.9,151.9z M318.4,169.9
			c-2,2.7-4.3,4.3-7.5,3.8c-3.3-0.4-6.3-1.5-7.5-5.4c-2-6.4-4.3-12.8-6.9-19c-1.1-2.8-0.5-4,2.2-4.6c0.3-0.1,0.6-0.2,1-0.3
			c14.2-4.7,21.4-2.7,20.5,15.2C320,162.6,321,166.4,318.4,169.9z"/>
		<path class="st0" d="M257.6,181c9.8-0.1,17.6-7.5,12.4-18.7c-4.3-9.1-7.5-18.6-10.9-28.1c-4.5-12.3-14.5-21.3-28.4-20.4
			c-8.8,0.6-17.7,0.2-26.5,0.1c-2.8,0-6,0.1-6,3.4c-0.1,3.8,3.4,3.7,6.3,3.7c9.7,0,19.3,0.3,29-0.1c9.1-0.4,14.6,4.5,17.9,12
			c4.6,10.5,8.5,21.4,12.6,32.1c2.5,6.6,0.9,8.7-6.2,8.7c-21,0-42,0-63,0s-42,0-63,0c-7.5,0-8.9-1.9-6.7-8.9
			c3.6-11.4,9.6-21.7,14.8-32.3c3.2-6.6,8.2-10.3,15.3-11.6c2.5-0.4,4.3-1.7,3.8-4.2c-0.5-2.3-2.7-3.6-5.1-2.8
			c-6.9,2.3-13.8,5.3-17.7,11.6c-7.8,12.7-13.6,26.5-18.8,40.5c-0.7,2-0.6,4,0.4,6.2c2.7,5.8,6.6,8.6,13.4,8.6c33.3,0,66.6,0,99.9,0
			C240,181,248.8,181.1,257.6,181z"/>
		<path class="st0" d="M120.2,237c3.8,0,7.7,0,11.5,0c4.5,0,9,0,13.5,0c2.7,0,5-0.6,7.4-2c6.8-3.7,8.7-14,6.8-22.3
			c-2.1-9.1-6.8-13.6-14.4-13.8c-8.6-0.1-17.3-0.1-26,0c-7.1,0.1-14.8,6.2-14.1,14.4c0.2,2.8,0,5.7,0,8.5
			C105,231.5,110.5,237,120.2,237z M127.3,206.8c5.8,0.1,11.7,0,17.5,0c1.2,0,2.6-0.2,3.4,0.3c6.5,4.5,3.3,11.2,3.5,17
			c0.2,4.1-3.1,5.5-6.8,5.6c-4.3,0.1-8.7,0-13,0c-4.2,0-8.3,0.1-12.5,0c-4.9-0.1-7-2.2-7.1-7.1C112.2,206.3,111.3,206.5,127.3,206.8
			z"/>
		<path class="st0" d="M244.2,237c3.8,0,7.6,0,11.5,0c4.7,0,9.3,0.2,14,0c5.7-0.3,10-2.7,12.6-8.3c2.2-4.8,1.7-9.6,1.7-14.5
			c-0.1-8.3-7-15.1-15.4-15.2c-8.3-0.1-16.6-0.1-24.9,0c-8.7,0.1-14.6,6.1-14.7,14.9c0,2.7,0,5.3,0,8C229,231.3,234.7,237,244.2,237
			z M251,206.8c1.7,0,3.3,0,5,0c4.6,0,9.3,0,13.9,0c3.8,0,5.9,2,6,5.8c0.1,3,0,6,0,9c0,6.4-1.6,8.1-7.8,8.1c-8,0.1-15.9,0.1-23.9,0
			c-5.6,0-7.8-2.2-7.9-7.8C236,206.3,235.8,206.5,251,206.8z"/>
		<path class="st0" d="M213,196.1c-12.6-0.2-25.3,0-37.9-0.1c-2,0-3.9,0.4-5.8,0.9c-1.5,0.4-2.3,1.2-2.4,2.7
			c-0.1,1.7,0.5,2.7,2.1,3.5c1.6,0.8,3.1,0.8,4.8,0.8c6.7,0,13.3,0,20,0c6.5,0,13,0,19.5,0c3.2,0,7.6,0.7,7.7-3.8
			C220.9,195.3,216.1,196.1,213,196.1z"/>
	</g>
</g>
</svg>
