<svg id="Capa_1" data-name="Capa 1" xmlns="http://www.w3.org/2000/svg" viewBox="0 0 397 397"><path d="M-5.9,198q0-96.9-.1-193.8C-6,.9-5.5,0-2,0Q192.4.15,386.7,0c3.8,0,4.3,1,4.3,4.4q-.15,194.1,0,388.2c0,3.5-.5,4.4-4.3,4.4Q192.3,396.85-2,397c-3.6,0-4-.9-4-4.2Q-5.85,295.45-5.9,198Zm14.8,6.6c-.2,7.7,1.4,21,4.1,34.2a186.43,186.43,0,0,0,24.3,61.8c9.9,15.9,21.5,30.5,35.7,42.9a201.5,201.5,0,0,0,20.9,16.2A179,179,0,0,0,154,385.4a187,187,0,0,0,57.8,3.6,191.71,191.71,0,0,0,45.6-10.1,176.25,176.25,0,0,0,59.5-35.8,191.24,191.24,0,0,0,46.9-64.8c11.2-25,16-51.3,16.8-78.4a151.28,151.28,0,0,0-2-28.5,216.53,216.53,0,0,0-10.7-41.9,192.1,192.1,0,0,0-37.2-61A184,184,0,0,0,262.8,21,173.57,173.57,0,0,0,207.9,8.3,182.57,182.57,0,0,0,58.4,69.1a192,192,0,0,0-33,51.1C14.4,145.3,9,171.5,8.9,204.6Z" transform="translate(6)" fill="#fefefe"/><path d="M8.9,204.6c.1-33.2,5.5-59.3,16.4-84.4a192.88,192.88,0,0,1,33-51.1A181.91,181.91,0,0,1,208,8.3,173.57,173.57,0,0,1,262.9,21,188.29,188.29,0,0,1,368,129.5a211.27,211.27,0,0,1,10.7,41.9,151.28,151.28,0,0,1,2,28.5c-.9,27.1-5.6,53.4-16.8,78.4A191.24,191.24,0,0,1,317,343.1a178.21,178.21,0,0,1-59.5,35.8A187,187,0,0,1,211.9,389a181.1,181.1,0,0,1-57.8-3.6A177.31,177.31,0,0,1,94,359.7a216.24,216.24,0,0,1-20.9-16.2c-14.2-12.4-25.8-26.9-35.7-42.9a186.43,186.43,0,0,1-24.3-61.8C10.3,225.6,8.7,212.3,8.9,204.6Zm10-1.3c-.4,7.8,1.2,19.7,3.5,31.4,7.8,38.9,25.9,72,55.1,99.2a167.65,167.65,0,0,0,39.8,27.8q48.3,24,101.9,16.5c35.4-5,65.8-20.1,92.1-43.6,18.8-16.7,32.9-37.1,43.1-60.3a183.72,183.72,0,0,0,14.5-96.5,180.08,180.08,0,0,0-23.3-71.3c-16.1-27.8-37.9-50-65.8-65.8C245.2,21.1,207.9,14,168.5,20.2,116.8,28.3,77,55.4,48.3,98.8,28.4,129,19.2,162.8,18.9,203.3Z" transform="translate(6)" fill="#0288f2"/><path d="M18.9,203.3c.3-40.4,9.4-74.2,29.4-104.5C77,55.4,116.8,28.3,168.7,20.1c39.5-6.2,76.7.9,111.3,20.5,27.9,15.8,49.7,38,65.8,65.8a181.69,181.69,0,0,1,23.3,71.3,183.72,183.72,0,0,1-14.5,96.5c-10.2,23.1-24.4,43.5-43.1,60.3-26.3,23.5-56.7,38.6-92.1,43.6q-53.7,7.5-101.9-16.5a168.53,168.53,0,0,1-39.8-27.8c-29.2-27.1-47.3-60.3-55.1-99.2C20.1,222.9,18.5,211,18.9,203.3Zm173.2,51.6H98.7c-4.9,0-9.3-.9-12.9-4.8-3.1-3.3-4.8-6.8-4.6-11.4.6-19.6-1.6-39.3,5.8-58.6,7.9-20.7,13.3-42.4,24.6-61.7,8.3-14.2,20.9-22.2,37.8-22.3,22.8-.1,45.6,0,68.5-.1,8.8,0,17.5.2,26.1,2.2,14.8,3.4,26.4,11.3,32,26,7.3,19.6,14,39.4,21.3,59,1.5,3.9,2.8,7.9,4.4,11.9.8,2.1,2.3,4.1,4.5,3.2s3.3-2.9,2.1-5.6-1.7-5.6-3.1-8.1c-1.7-3.1-.6-3.5,2.3-3.6a15,15,0,0,0,12.9-7.4c6.2-9.5,4.4-19.1,1.2-29.1-2.2-6.9-11.8-10.6-18.1-9.5a33.48,33.48,0,0,0-9.4,2.5c-4.9,2.4-6.4.2-7.7-4-3-9.6-6.3-19.1-13.6-26.6C260.5,94.4,245,89.4,228.1,89.1c-27.3-.5-54.6-.6-81.9.1-13.7.4-24.8,7.6-34,17.9-7.8,8.7-12.2,19.2-16.6,29.6-1.1,2.5-2.5,2.6-4,2.1-3.7-1.4-7.6-1.6-11.4-2.5-5.1-1.2-16.9,2.6-19.8,9a35.68,35.68,0,0,0-2.9,19.2c.9,9,9.4,16.6,18.3,16.4,4.6-.1,4.1,2.4,3,4.9-4.4,9.9-4.8,20.3-4.5,30.9.2,7,.1,14,0,21-.2,8.5,3.6,16.2,10.3,19.4,7.9,3.7,8.2,8.8,7.7,15.4a13.35,13.35,0,0,0,0,2c1,11,6.8,19.9,19.8,19.4a93.37,93.37,0,0,1,14,.1c5.4.6,8.5-2.1,11.4-6.1a26.21,26.21,0,0,0,5-16.5c-.3-9.5-.1-9.5,9.6-9.5h32.5c17.5,0,35,.1,52.5-.1,3.6,0,4.6,1,4.3,4.5a52.63,52.63,0,0,0,0,10.5c1.3,9.9,4.2,13.9,13,15,7.2.9,14.6.4,22,.1,6.1-.3,12.5-6.5,14.2-12.4,1.2-4.4.6-8.9.8-13.3.1-2.9-.5-5.7,3.8-6.8,1.7-.4,3.8-2.5,5.5-4.5,5.3-6.3,6.8-13.9,8.6-21.5.6-2.4-.9-3.9-2.9-4.4-2.2-.6-3.7.2-4.1,2.9a70,70,0,0,1-3,12.8c-2.3,6.4-6.5,10.4-14.2,10.3C253.7,254.7,222.9,254.9,192.1,254.9Zm-1.4-81h-63c-7.5,0-8.9-1.9-6.7-8.9,3.6-11.4,9.6-21.7,14.8-32.3a19.91,19.91,0,0,1,15.3-11.6c2.5-.4,4.3-1.7,3.8-4.2a3.79,3.79,0,0,0-5.1-2.8c-6.9,2.3-13.8,5.3-17.7,11.6-7.8,12.7-13.6,26.5-18.8,40.5a8,8,0,0,0,.4,6.2c2.7,5.8,6.6,8.6,13.4,8.6H227c8.8,0,17.7.1,26.5,0,9.8-.1,17.6-7.5,12.4-18.7-4.3-9.1-7.5-18.6-10.9-28.1-4.5-12.3-14.5-21.3-28.4-20.4-8.8.6-17.7.2-26.5.1-2.8,0-6,.1-6,3.4-.1,3.8,3.4,3.7,6.3,3.7,9.7,0,19.3.3,29-.1,9.1-.4,14.6,4.5,17.9,12,4.6,10.5,8.5,21.4,12.6,32.1,2.5,6.6.9,8.7-6.2,8.7C232.7,173.9,211.7,173.9,190.7,173.9Zm-63,63.1h13.5a14,14,0,0,0,7.4-2c6.8-3.7,8.7-14,6.8-22.3-2.1-9.1-6.8-13.6-14.4-13.8-8.6-.1-17.3-.1-26,0-7.1.1-14.8,6.2-14.1,14.4.2,2.8,0,5.7,0,8.5,0,9.6,5.5,15.1,15.3,15.1C120,237,123.9,237,127.7,237Zm124,0c4.7,0,9.3.2,14,0,5.7-.3,10-2.7,12.6-8.3,2.2-4.8,1.7-9.6,1.7-14.5A15.56,15.56,0,0,0,264.6,199q-12.45-.15-24.9,0c-8.7.1-14.6,6.1-14.7,14.9v8c.1,9.5,5.8,15.2,15.3,15.2C244,237,247.9,237,251.7,237Zm-62-33h19.5c3.2,0,7.6.7,7.7-3.8,0-4.9-4.7-4-7.9-4.1-12.6-.2-25.3,0-37.9-.1a22.64,22.64,0,0,0-5.8.9,2.78,2.78,0,0,0-2.4,2.7,3.25,3.25,0,0,0,2.1,3.5,10,10,0,0,0,4.8.8C176.4,204,183.1,204,189.7,204Z" transform="translate(6)" fill="#e1fa11"/><path d="M321.4,144.6c-2.2-6.9-11.8-10.6-18.1-9.5a33.48,33.48,0,0,0-9.4,2.5c-4.9,2.4-6.4.2-7.7-4-3-9.6-6.3-19.1-13.6-26.6-12.3-12.5-27.8-17.5-44.7-17.8-27.3-.5-54.6-.6-81.9.1-13.7.4-24.8,7.6-34,17.9-7.8,8.7-12.2,19.2-16.6,29.6-1.1,2.5-2.5,2.6-4,2.1-3.7-1.4-7.6-1.6-11.4-2.5-5.1-1.2-16.9,2.6-19.8,9a35.68,35.68,0,0,0-2.9,19.2c.9,9,9.4,16.6,18.3,16.4,4.6-.1,4.1,2.4,3,4.9-4.4,9.9-4.8,20.3-4.5,30.9.2,7,.1,14,0,21-.2,8.5,3.6,16.2,10.3,19.4,7.9,3.7,8.2,8.8,7.7,15.4a13.35,13.35,0,0,0,0,2c1,11,6.8,19.9,19.8,19.4a93.37,93.37,0,0,1,14,.1c5.4.6,8.5-2.1,11.4-6.1a26.21,26.21,0,0,0,5-16.5c-.3-9.5-.1-9.5,9.6-9.5h32.5c17.5,0,35,.1,52.5-.1,3.6,0,4.6,1,4.3,4.5a52.63,52.63,0,0,0,0,10.5c1.3,9.9,4.2,13.9,13,15,7.2.9,14.6.4,22,.1,6.1-.3,12.5-6.5,14.2-12.4,1.2-4.4.6-8.9.8-13.3.1-2.9-.5-5.7,3.8-6.8,1.7-.4,3.8-2.5,5.5-4.5,5.3-6.3,6.8-13.9,8.6-21.5.6-2.4-.9-3.9-2.9-4.4-2.2-.6-3.7.2-4.1,2.9a70,70,0,0,1-3,12.8c-2.3,6.4-6.5,10.4-14.2,10.3-30.8-.2-61.6-.1-92.4-.1H99.1c-4.9,0-9.3-.9-12.9-4.8-3.1-3.3-4.8-6.8-4.6-11.4.6-19.6-1.6-39.3,5.8-58.6,7.9-20.7,13.3-42.4,24.6-61.7,8.3-14.2,20.9-22.2,37.8-22.3,22.8-.1,45.6,0,68.5-.1,8.8,0,17.5.2,26.1,2.2,14.8,3.4,26.4,11.3,32,26,7.3,19.6,14,39.4,21.3,59,1.5,3.9,2.8,7.9,4.4,11.9.8,2.1,2.3,4.1,4.5,3.2s3.3-2.9,2.1-5.6-1.7-5.6-3.1-8.1c-1.7-3.1-.6-3.5,2.3-3.6a15,15,0,0,0,12.9-7.4C326.3,164.1,324.6,154.6,321.4,144.6Zm-72.9,120c0-2.5,1.8-2.3,3.5-2.3h13.9V262c4.1,0,8.3.3,12.4-.1,3.7-.3,4.6,1.1,4.3,4.5a65.43,65.43,0,0,0,0,9.9c.3,4.6-2.7,6.9-6.3,7.5-7.4,1.1-14.8.8-22.3.3-3.2-.3-4.4-2.2-4.9-4.6C248,274.6,248.5,269.6,248.5,264.6Zm-135.3-2.3h4v.1h13.9c1.4,0,3.4-.3,3.4,1.9,0,6.7,1.2,13.6-3.5,19.6-1.3,1.7-2.6,2.8-4.8,2.7-5.3-.1-10.6.1-15.9-.1-6.3-.2-9.7-3.6-10.2-9.8C98.8,262.3,98.8,262.3,113.2,262.3ZM88.9,151.9c-1.7,4.6-3.3,9.3-4.9,14s-6.9,8.5-11.3,7.8c-4.2-.7-7.5-5.4-7.5-10.9v-4c-1.5-15,7.3-16,17.4-14.6.7.1,1.3.3,1.9.4C91.1,145.9,91.1,146,88.9,151.9Zm225.5,18c-2,2.7-4.3,4.3-7.5,3.8s-6.3-1.5-7.5-5.4c-2-6.4-4.3-12.8-6.9-19-1.1-2.8-.5-4,2.2-4.6.3-.1.6-.2,1-.3,14.2-4.7,21.4-2.7,20.5,15.2C316,162.6,317,166.4,314.4,169.9Z" transform="translate(6)" fill="#0288f2"/><path d="M253.6,181c9.8-.1,17.6-7.5,12.4-18.7-4.3-9.1-7.5-18.6-10.9-28.1-4.5-12.3-14.5-21.3-28.4-20.4-8.8.6-17.7.2-26.5.1-2.8,0-6,.1-6,3.4-.1,3.8,3.4,3.7,6.3,3.7,9.7,0,19.3.3,29-.1,9.1-.4,14.6,4.5,17.9,12,4.6,10.5,8.5,21.4,12.6,32.1,2.5,6.6.9,8.7-6.2,8.7h-126c-7.5,0-8.9-1.9-6.7-8.9,3.6-11.4,9.6-21.7,14.8-32.3a19.91,19.91,0,0,1,15.3-11.6c2.5-.4,4.3-1.7,3.8-4.2a3.79,3.79,0,0,0-5.1-2.8c-6.9,2.3-13.8,5.3-17.7,11.6-7.8,12.7-13.6,26.5-18.8,40.5a8,8,0,0,0,.4,6.2c2.7,5.8,6.6,8.6,13.4,8.6h99.9C236,181,244.8,181.1,253.6,181Z" transform="translate(6)" fill="#0288f2"/><path d="M116.2,237h25a14,14,0,0,0,7.4-2c6.8-3.7,8.7-14,6.8-22.3-2.1-9.1-6.8-13.6-14.4-13.8-8.6-.1-17.3-.1-26,0-7.1.1-14.8,6.2-14.1,14.4.2,2.8,0,5.7,0,8.5C101,231.5,106.5,237,116.2,237Zm7.1-30.2c5.8.1,11.7,0,17.5,0,1.2,0,2.6-.2,3.4.3,6.5,4.5,3.3,11.2,3.5,17,.2,4.1-3.1,5.5-6.8,5.6-4.3.1-8.7,0-13,0s-8.3.1-12.5,0c-4.9-.1-7-2.2-7.1-7.1C108.2,206.3,107.3,206.5,123.3,206.8Z" transform="translate(6)" fill="#0288f2"/><path d="M240.2,237h11.5c4.7,0,9.3.2,14,0,5.7-.3,10-2.7,12.6-8.3,2.2-4.8,1.7-9.6,1.7-14.5A15.56,15.56,0,0,0,264.6,199q-12.45-.15-24.9,0c-8.7.1-14.6,6.1-14.7,14.9v8C225,231.3,230.7,237,240.2,237Zm6.8-30.2h18.9c3.8,0,5.9,2,6,5.8.1,3,0,6,0,9,0,6.4-1.6,8.1-7.8,8.1-8,.1-15.9.1-23.9,0-5.6,0-7.8-2.2-7.9-7.8C232,206.3,231.8,206.5,247,206.8Z" transform="translate(6)" fill="#0288f2"/><path d="M209,196.1c-12.6-.2-25.3,0-37.9-.1a22.64,22.64,0,0,0-5.8.9,2.78,2.78,0,0,0-2.4,2.7,3.25,3.25,0,0,0,2.1,3.5,10,10,0,0,0,4.8.8h39.5c3.2,0,7.6.7,7.7-3.8C216.9,195.3,212.1,196.1,209,196.1Z" transform="translate(6)" fill="#0288f2"/><path d="M131.2,262.4H117.3v-.1h-4c-14.4,0-14.4,0-13.2,14.4.6,6.3,3.9,9.7,10.2,9.8,5.3.2,10.6-.1,15.9.1,2.3.1,3.5-1,4.8-2.7,4.7-6,3.4-12.9,3.5-19.6C134.6,262.1,132.6,262.4,131.2,262.4Z" transform="translate(6)" fill="#e1fa11"/><path d="M278.4,261.9c-4.1.3-8.3.1-12.4.1v.3H252.1c-1.7,0-3.5-.2-3.5,2.3,0,5-.5,10,.6,14.9.5,2.4,1.7,4.4,4.9,4.6a97.78,97.78,0,0,0,22.3-.3c3.7-.5,6.6-2.8,6.3-7.5a65.43,65.43,0,0,1,0-9.9C283,263.1,282,261.6,278.4,261.9Z" transform="translate(6)" fill="#e1fa11"/><path d="M84.6,144.7a16.25,16.25,0,0,0-1.9-.4c-10.1-1.4-19-.4-17.4,14.6v4c0,5.5,3.3,10.2,7.5,10.9s9.7-3.1,11.3-7.8,3.2-9.4,4.9-14C91.1,146,91.1,145.9,84.6,144.7Z" transform="translate(6)" fill="#e1fa11"/><path d="M316.2,159.8c.9-17.9-6.3-19.9-20.5-15.2-.3.1-.6.2-1,.3-2.7.6-3.4,1.7-2.2,4.6,2.5,6.2,4.8,12.6,6.9,19,1.2,3.9,4.2,4.9,7.5,5.4s5.5-1.2,7.5-3.8C317,166.4,316,162.6,316.2,159.8Z" transform="translate(6)" fill="#e1fa11"/><path d="M144.2,207.2c-.8-.6-2.3-.3-3.4-.3-5.8,0-11.7.1-17.5,0-16-.3-15.2-.5-15,15.9,0,4.9,2.2,6.9,7.1,7.1,4.2.1,8.3,0,12.5,0h13c3.7,0,7-1.5,6.8-5.6C147.5,218.4,150.8,211.6,144.2,207.2Z" transform="translate(6)" fill="#e1fa11"/><path d="M264.1,229.7c6.2-.1,7.8-1.8,7.8-8.1,0-3,.1-6,0-9-.1-3.8-2.2-5.8-6-5.8H247c-15.2-.3-14.9-.5-14.7,15.1.1,5.6,2.3,7.7,7.9,7.8C248.2,229.8,256.1,229.8,264.1,229.7Z" transform="translate(6)" fill="#e1fa11"/></svg>