<?xml version="1.0" encoding="utf-8"?>
<!-- Generator: Adobe Illustrator 25.2.1, SVG Export Plug-In . SVG Version: 6.00 Build 0)  -->
<svg version="1.1" id="Capa_1" xmlns="http://www.w3.org/2000/svg" xmlns:xlink="http://www.w3.org/1999/xlink" x="0px" y="0px"
	 viewBox="0 0 396.9 396.9" style="enable-background:new 0 0 396.9 396.9;" xml:space="preserve">
<style type="text/css">
	.st0{fill:#FCFBFA;}
</style>
<g>
	<path class="st0" d="M170.8,185.8c-2.6,0-4.6,2-4.6,4.5c0,2.5,2.1,4.5,4.6,4.5h53.7c2.6,0,4.6-2,4.6-4.5c0-2.5-2.1-4.5-4.6-4.5
		H170.8z"/>
	<path class="st0" d="M269.5,169.7c6,0,10.4-1.8,13.2-5.2c4-5,2.5-11.1,2.3-11.8l-0.2-0.6c-0.1-0.2-8.7-21.5-14.5-36.8
		C263.6,97.4,247.7,95,247,95h-0.3h-40.8c-2.6,0-4.6,2-4.6,4.5c0,2.4,2.1,4.5,4.6,4.5H246c1.8,0.3,11.2,2.8,15.7,14.6
		c5.4,14.3,13.3,33.7,14.4,36.7c0.1,0.7,0.3,2.6-0.7,4c-1.1,1.4-3.9,1.7-5.9,1.8c-13.5,0-135.9,0-145,0c-1.3-0.3-4.9-1.7-4.2-5.3
		c1-5.7,11.9-28.1,18.4-41.1c0.9-1.2,7-9.5,16.5-10.6c2.6-0.3,4.4-2.5,4-5s-2.6-4.2-5.1-4c-14.8,1.7-23,14.3-23.4,14.9l-0.2,0.3
		c-1.8,3.5-17.9,34.9-19.5,43.9c-1.6,9.4,6.3,14.4,12,15.7l0.4,0.1h0.4C125.3,169.7,255.4,169.6,269.5,169.7
		C269.4,169.7,269.5,169.7,269.5,169.7z"/>
	<path class="st0" d="M347.9,137c-1-5.8-3-13-9.8-16.8c-6.7-3.6-16.2-3-29.7,2.1l-7.8-21.3l-0.1-0.1c-0.6-1.3-13.2-31.1-55.7-33.1
		c-39.8-1.9-100.9,0-101.4,0h-0.4c-1.1,0.1-28,4-43.6,34.2c-3.2,6.4-6.5,13.6-9.4,20.8c-3.8-1.4-19.7-6.6-31-0.6
		c-5.4,2.9-8.7,7.9-9.8,14.7l-0.1,0.3v17.2l0.2,0.7c0.3,1.1,3.9,10.8,12.7,14c1.8,0.7,3.7,1,5.6,1c2,0,4-0.3,6.1-1.1
		c-1.1,3.6-1.8,6.1-2,6.9c-0.8,1.9-4.1,10-4.1,15.2v46.5l0.1,0.6c0.2,0.8,5,17.9,21.7,20.2h-1.3v18.3v0.3
		c0.9,5.7,5.6,16.5,17.1,17.1c3.7,0.1,7.9,0.2,11.9,0.2c7.6,0,14.4-0.2,14.9-0.2l1.8-0.1l1.3-1.2c0.9-0.9,9.2-8.8,9.7-18.5
		c0.4-6.7,0.1-13,0-15.3c3,0,6,0,9.2,0c32,0,70.3-0.1,100.2-0.2V274c-0.1,5.6,2.3,16.5,12.7,17.6c3.1,0.3,7.6,0.4,12.1,0.4
		c8.5,0,17.1-0.4,17.7-0.4h0.9l0.8-0.3c1.2-0.6,12.5-5.7,12.5-14.6v-18.5h-0.4c2.1-0.4,4.6-1.3,6.9-3c7.6-5.1,12.3-15.1,14-29.7
		c0.3-2.4-1.6-4.7-4.1-5c-2.6-0.3-4.8,1.5-5.1,4c-1.7,14.7-6.3,20.7-9.8,23.2c-3.8,2.6-7.3,1.9-7.4,1.9l-0.6-0.1h-0.6
		c-2,0-196.8,0.9-211.6,0c-10.4-0.7-14.4-10.8-15.2-13.2V191c0-2.6,2-8.6,3.6-12l0.2-0.6c0.1-0.4,12.7-45,27.1-72.7
		c12.7-24.8,33.9-28.9,36.3-29.3c4.5-0.1,62.4-1.8,100.4,0c35.9,1.7,46.8,25.8,47.5,27.3l30.3,82.5c0.9,2.3,3.5,3.5,5.9,2.8
		c2.5-0.9,3.7-3.4,2.8-5.7l-5-13.8c1.2,0.2,2.3,0.3,3.6,0.3c1.9,0,3.8-0.3,5.6-1c8.8-3.2,12.3-12.9,12.7-14l0.2-0.7V137L347.9,137z
		 M263.4,258.9c18.6-0.1,32.6-0.1,38.1-0.1V277c0,1.9-3.5,4.5-6.3,6c-4,0.2-19.9,0.8-27.3,0c-4.5-0.4-4.5-8.5-4.5-8.6L263.4,258.9z
		 M97.3,258.9c7.7,0.1,21.4,0.2,38.1,0.2c0.1,1.5,0.3,8,0,14.9c-0.2,4.3-3.6,8.9-5.7,11.4c-4.5,0.1-15.9,0.3-24,0
		c-6.1-0.2-7.9-7.6-8.3-9.2v-17.3H97.3z M77,158.7c-1.1-0.2-2.2-0.1-3.2,0.6c-3.4,1.9-6.1,2.4-8.5,1.5c-3.6-1.3-6-5.6-6.9-7.8v-14.9
		c0.8-3.9,2.5-6.4,5.3-7.9c6.7-3.6,18.6-0.6,23.1,1.1C82.8,141.2,79.5,150.9,77,158.7z M338.7,152.9c-0.9,2.1-3.4,6.4-6.9,7.7
		c-2.3,0.9-5.1,0.3-8.5-1.5c-0.4-0.2-1-0.4-1.5-0.6l-10.3-27.9c13.2-5,19.2-4.3,22-2.8c2.6,1.4,4.1,4.4,5.1,10V152.9z"/>
	<path class="st0" d="M251.7,231.8h31.1c8.7,0,15.8-6.8,15.8-15.3v-12.6c0-8.4-7-15.3-15.8-15.3h-31.1c-8.7,0-15.8,6.8-15.8,15.3
		v12.6C236,224.9,243.1,231.8,251.7,231.8z M245.2,204c0-3.4,2.9-6.3,6.5-6.3h31.1c3.6,0,6.5,2.9,6.5,6.3v12.6
		c0,3.4-2.9,6.3-6.5,6.3h-31.1c-3.6,0-6.5-2.9-6.5-6.3V204z"/>
	<path class="st0" d="M112.9,188.7c-8.7,0-15.8,6.8-15.8,15.3v12.6c0,8.4,7,15.3,15.8,15.3h31.2c8.7,0,15.8-6.8,15.8-15.3V204
		c0-8.4-7-15.3-15.8-15.3H112.9z M150.5,204v12.6c0,3.4-2.9,6.3-6.5,6.3H113c-3.6,0-6.5-2.9-6.5-6.3V204c0-3.4,2.9-6.3,6.5-6.3h31.1
		C147.6,197.7,150.5,200.5,150.5,204z"/>
</g>
</svg>
