<?xml version="1.0" encoding="utf-8"?>
<!-- Generator: Adobe Illustrator 25.2.1, SVG Export Plug-In . SVG Version: 6.00 Build 0)  -->
<svg version="1.1" id="Capa_1" xmlns="http://www.w3.org/2000/svg" xmlns:xlink="http://www.w3.org/1999/xlink" x="0px" y="0px"
	 viewBox="0 0 379 378" style="enable-background:new 0 0 379 378;" xml:space="preserve">
<style type="text/css">
	.st0{fill:#FCFCFC;}
</style>
<g>
	<path class="st0" d="M0.2,374.9c4.1-1.6,2-5.5,2.8-8.2c2.2-7.3,1.9-15.3,5.1-22.5c7.3-16.4,12.7-33.7,24.4-47.9
		c11.7-14.2,26.2-23.6,44.8-26.3c11.2-1.7,22.4-2.5,33.7-2.9c0.3,0,0.7,0.1,1,0c8.6-4.6,11.8,1.5,15,7.6
		c5.3,10.2,13.3,18.3,20.4,27.1c6.8,8.4,14.2,16.4,21.4,24.4c0.9,1.1,1.9,3,3.3,2.6c1.4-0.4,1.6-2.4,2-4c2-8.3,4-16.5,6.5-24.7
		c0.6-2.1,0.1-3.2-1.2-4.2c-5.2-4-4.8-10.3-6.2-15.8c-0.3-1,0.6-1.8,1.8-1.7c9.1,1.2,18.2,0.3,27.3,0.5c2.7,0,3.2,1.2,2.7,3.3
		c-1.4,5.2-0.5,11.2-6.2,14.8c-2.5,1.6,0,4.5,0.6,6.3c2.3,7.4,4,14.9,5.7,22.4c0.7,2.9,1.6,4.7,4.5,1.3
		c15.8-18.4,33.4-35.4,45.3-56.8c3.1-5.7,6-4.1,10.2-3.7c6.8,0.8,13.8,0.9,20.6,1.5c16.3,1.4,32.4,3.7,46.1,13.9
		c10.8,8,18.6,18.4,25.1,29.9c8,14,11.4,29.3,13.1,45.1c0.8,7,1.6,14,1.9,21c-122.6,0-245.1,0-367.7,0
		C2.2,377.9-0.8,378.9,0.2,374.9z"/>
	<path class="st0" d="M281,119.7c0,3.8,0.1,6.3,0,8.8c-0.2,2.6,0.3,4.8,2.5,6.5c2.8,2.2,3.1,5.7,3.4,8.8c1.7,13.8-1,26.8-7.8,39
		c-2.4,4.3-7.3,6-9.2,11c-4.9,13.5-12.1,26-21,37.3c-12.5,16-27.2,29.3-47.7,34.3c-16.4,4-31.3,0.5-45.5-8.2
		c-17.5-10.8-29.7-26.2-39.9-43.7c-4-6.8-7.1-14-10.1-21.2c-0.4-0.9-0.8-2-1.5-2.4c-8-4.8-10.2-13-13.5-21c-4-9.8-2.8-19.1-1.1-28.7
		c0.3-1.7,0.8-3.5,2.4-4.6c6-4,3.8-10.7,5-16.2c3-14.6,3.5-29.8,10.7-43.4c11.1-20.9,28.7-33.3,50.9-39.7c12.7-3.6,25.7-5.1,38.9-4
		c20.2,1.7,39.4,6.5,55.4,20.2C267.6,65,275.8,81.1,279,100C280.2,107,281.4,113.9,281,119.7z"/>
</g>
</svg>
