<svg id="Capa_1" data-name="Capa 1" xmlns="http://www.w3.org/2000/svg" viewBox="0 0 918.18 916.08"><path d="M9.22,807.17V758.22c2.3-4.4,2.61-9.35,3.93-14l6.72-14.83q2.77-4.51,5.54-9l4.93-7.05c5.93-6.87,11.79-13.8,18.2-20.27,11.44-11.55,24.36-21.34,37-31.52l10.16-7.1,4.46-3.11L132,631.62a52.8,52.8,0,0,0,10.26-5.83l3.75-2.17a25.57,25.57,0,0,0,8.11-4.36,151.45,151.45,0,0,0,17-8.76,4.59,4.59,0,0,0,2.94-1.34l16-7.75c4.67-1.33,8.87-3.72,13.13-5.95.76-.07,1.51-.16,1.91-.94a82,82,0,0,0,13-5.5L257,573.37a11.15,11.15,0,0,0,6-2.18,31.45,31.45,0,0,0,13.19-6.73,4.42,4.42,0,0,0,2.75-2.14,37.68,37.68,0,0,0,11-11.93,61,61,0,0,0,8-45.94,30.61,30.61,0,0,0-2.7-11.08,12.24,12.24,0,0,0-2.06-5.6,4.87,4.87,0,0,0-1.69-3.94c-8-8-15.08-16.88-22.44-25.47a26.74,26.74,0,0,0-5-6.38,35.16,35.16,0,0,0-5.43-7.61q-4.77-7.19-9.56-14.37l0-.33-.3-.17-9.72-16c-.61-2.69-2.33-4.79-3.73-7.06l-5.14-9.56a59,59,0,0,0-5.44-11.33l-5.78-13c.2-1.22-.54-2.08-1.14-3q-3.48-9-7-17.92l-8.46-26.95q-2.22-9-4.42-18.06-1.11-5-2.23-10-2.77-21.51-5.56-43l-.24-3.9q-.08-7.49-.16-15t.07-15c.29-3.65.58-7.29.86-10.94q2.22-16.47,4.43-32.93l5.71-23a19.08,19.08,0,0,0,2.21-7l2.31-5.93a46.31,46.31,0,0,0,3.85-10q3.54-7.44,7.07-14.88l-.12.1.81-1.32a12.42,12.42,0,0,0,2.91-5c2.06-3.29,4.58-6.3,6-10Q236,85,247.11,72.12l2.26-2.24,6.76-6.54,3.78-3.51q9.6-7.28,19.19-14.56L286,40.86a30.2,30.2,0,0,0,8-4.76c10.51-5.05,21.18-9.72,32.07-13.89l12-3.67,15.95-3.66,14-2.18a261.61,261.61,0,0,1,75.89,2,13,13,0,0,0,6,1.15l24,6.88c9.81,3.68,19.37,8,28.86,12.39A241.53,241.53,0,0,1,533.2,55.41q7.74,6.86,15.47,13.72l.81.8q6.76,7.74,13.54,15.46c7.29,9.31,13.44,19.37,19.36,29.58,5,9.78,8.91,20,13.14,30.16q2.6,8.33,5.17,16.64l2.26,10,3.6,20c.12.64.23,1.28.35,1.92l1.47,15.16.54,7.85c.23,16,.06,32-1.12,47.92-.09,1-.19,1.94-.28,2.92l-1.68,13.06a17.12,17.12,0,0,0-1.11,7q-2.38,11.48-4.78,23l-.25,2c-.25.66-.5,1.32-.74,2l-.29,2.45a2.67,2.67,0,0,0-.85,2.54l-.41,1.46-10.59,33.53a79.7,79.7,0,0,0-5.25,13.59L577,378.44a10.34,10.34,0,0,0-2.2,5.15l-7.86,15.93-15.43,27.21-4.94,7.81a26.86,26.86,0,0,0-5,7.54c-10.12,13.28-20,26.73-31.65,38.79a15.59,15.59,0,0,0-4.59,8.5c-3.24,9.77-5.55,19.71-5.49,30.08-.91,10.4,0,20.52,4.86,30q8,18.78,28,23l16,5.71,3.76,1.31-6.16,7-5.47,5.45-9.56,9.33a25.15,25.15,0,0,0-5.64,5.64l-7,7.09-9.69,9.43-6.06,6.07a66.83,66.83,0,0,0-9,8.9,28.82,28.82,0,0,0-6.06,6,59.63,59.63,0,0,0-9,9,28,28,0,0,0-6,6,56.05,56.05,0,0,0-9.08,8.94l-7.32,7.11a50,50,0,0,0-7.79,7.8,41.44,41.44,0,0,0-7,7,26,26,0,0,0-6.88,6.68,41.43,41.43,0,0,0-7.84,9.37,4.7,4.7,0,0,0-2,3.06,63.42,63.42,0,0,0-9.94,19.92c-3.78,9.76-6.28,19.89-8.91,30l-4.41,14.89a280.44,280.44,0,0,0-8.73,30q-2.28,7.44-4.57,14.88c-1.47,5-3.52,9.89-4.32,15.11l-1.88,6c-.92,2.62-2.13,5.17-2.18,8l-4.78,16c-.11.66-.21,1.32-.32,2l-.78,2c-.28.73-1.1,1.34-.49,2.26l-1.41,3.73c-.15.77-.31,1.55-.47,2.33-5.76,14.71-6.91,29.88-4.24,45.35.45,2.56.08,3.21-2.54,3-3.61-.24-7.26-.07-10.89-.08-5-1-10-.67-15.08-.49-3.8-.17-7.6-.32-11.4-.5L277,921.27c-13-1.38-25.95-2.67-39-3.22l-21-2.7c-4.29-.64-8.55-1.59-12.93-1.47l-15-2.63-3.93-.36-2.07-.64a31.83,31.83,0,0,0-8.94-1.33l-31-6.48-10-2.37-2-.75-2-.25-16-4.85-28-10.05c-10.46-5-21-9.76-30.93-15.9a39.28,39.28,0,0,0-7.91-5.35l-7.13-5.63A1.58,1.58,0,0,0,37.7,856l-2.42-2.16a11.5,11.5,0,0,0-3.87-3.79l-7.1-8.44q-2.58-3.75-5.18-7.49C14.36,825.69,12.14,816.31,9.22,807.17Z" transform="translate(-9.22 -10.84)"/><path d="M924.38,561.38l-3,6-9.11,10.89a30.74,30.74,0,0,0-6,6.11q-4.41,4.49-8.84,9c-1.15.67-2.1,2.36-3.72.77a165.46,165.46,0,0,0-15-15,165.68,165.68,0,0,0-15-15,167,167,0,0,0-15-15,165.46,165.46,0,0,0-15-15,165.68,165.68,0,0,0-15-15,167,167,0,0,0-15-15,166.76,166.76,0,0,0-15-15,168.3,168.3,0,0,0-15-15c-4.84-5.67-4.84-5.66.57-11.13,3-3.07,6.12-6.09,9.07-9.23,6.06-6.47,12.69-12.1,21.18-15.17l11.93-2.48a72.9,72.9,0,0,1,17,2.28c10.25,3.55,17.56,11.08,25,18.48q27.45,27.52,54.87,55.07c13.3,13.45,17.4,29.22,11.33,47.36A10.63,10.63,0,0,0,924.38,561.38Z" transform="translate(-9.22 -10.84)"/><path d="M475.81,922.13a7.12,7.12,0,0,0-4,1.06c-3,.81-6,1.45-8.9,2.45a20.68,20.68,0,0,1-19.12-2.5c-4.9-4.22-6.93-9.73-7.16-16q1.08-4.51,2.18-9,2.9-9.47,5.78-19c.1-.66.21-1.32.31-2,1.59-4.25,3.22-8.48,3.83-13a53.23,53.23,0,0,0,4.13-14q2.42-8,4.82-16c2.88-9.28,6.09-18.47,8.11-28q2.82-9.46,5.63-18.94,4.13-14,8.24-28c1.86-5.3,3.06-10.94,7.62-14.86l1.61-1.61a137.88,137.88,0,0,0,13.72-13.52l1.12-1.12a159.12,159.12,0,0,0,14-13.84l1-1a166,166,0,0,0,14-14l1-1c4.85-3.77,9-8.29,13.08-12.8a7.18,7.18,0,0,0,3.09-3.08l13.07-13,.82-.8a166,166,0,0,0,14.41-14.16l.6-.6q7.18-7.2,14.39-14.39l.6-.6a161,161,0,0,0,14.8-14.64,181.69,181.69,0,0,0,15-14.87,177.85,177.85,0,0,0,14.87-14.83l.37-.26a134.69,134.69,0,0,0,13.87-13.68,3.76,3.76,0,0,0,2.12-2.06l13.92-14a174.18,174.18,0,0,0,15.35-15c4-3.9,8.12-7.72,12-11.74,1.68-1.72,2.76-1.67,4.41,0,3.9,4,8,7.82,12,11.72l.95,1a119.42,119.42,0,0,0,13,13l2,2a139.61,139.61,0,0,0,14,14l1,1c4,5.43,9,9.82,13.88,14.3l.85.84a368.27,368.27,0,0,0,28.14,27.74,3.54,3.54,0,0,0,2.1,2.08,142.14,142.14,0,0,0,14,14.12l1,.87a117.5,117.5,0,0,0,14.06,14l.93,1c3.13,3.25,6.26,6.51,9.41,9.74,1.12,1.15,2.59,2.13,1.27,4q-24,23.67-48.08,47.36-25.21,24.87-50.37,49.81-24.06,23.9-48,47.89a11.9,11.9,0,0,0-4,4,99,99,0,0,0-11,10.92,10.25,10.25,0,0,0-4.13,4c-10.9,10.73-21.66,21.6-32.74,32.14-7.35,7-13.23,16-24.06,18.55l-13,3.71c-10.59,2.93-21.24,5.67-31.6,9.38l-2.36.48L556,898.74c-2.23-.11-4.17,1-6.23,1.58l-32.07,9.51A64.22,64.22,0,0,0,503.77,914l-20.95,6.09A17.8,17.8,0,0,0,475.81,922.13Zm44-140.92a21.83,21.83,0,0,0-5.8-5.49c-1.33,4.68-2.57,9.06-3.82,13.43-1.64,5-3.46,9.86-4.33,15-3.81,10.8-6.7,21.87-9.67,32.92-.67,1.62-1.58,3.17-1.38,5q-1.87,5.64-3.76,11.27c-.67,2,0,3.39,1.52,4.81,4.45,4.29,8.84,8.64,13.1,13.11,1.57,1.65,3.06,2.32,5.24,1.52,2.61-1,5.28-1.79,7.93-2.67,8.49-1.87,16.71-4.64,25-7.28,7.05-2.11,14.29-3.61,21.15-6.38,8-1.46,15.49-4.3,24-6.87l-9.2-8.48a11.55,11.55,0,0,1-3.79-8.1,46,46,0,0,0-.39-10.93c-.5-10.11-1-20.22-1.45-30.33-.08-1.85-.67-2.46-2.61-2.62-12.9-1.07-25.77-2.52-38.72-2.93C528.13,785.35,523,785.79,519.78,781.21Z" transform="translate(-9.22 -10.84)"/><path d="M801.06,539.54l11.31,11.28a10.8,10.8,0,0,0,3.68,3.71l11.3,11.28a10.86,10.86,0,0,0,3.68,3.7l11.31,11.28A10.8,10.8,0,0,0,846,584.5l11.31,11.28a16.85,16.85,0,0,0,4.74,4.74l10.25,10.24a10.71,10.71,0,0,0,3.68,3.71c3.92,2.92,2.67,5.14-.56,7.84-4.52,3.79-8.61,8.08-12.89,12.16a11.78,11.78,0,0,0-4,3.86c-3.79,2-5.42,6.72-9.94,7.78a33.94,33.94,0,0,0-6.85-6.85l-7-7a45.43,45.43,0,0,0-8-8l-8.14-8.14a34.2,34.2,0,0,0-6.85-6.85q-4.07-4.06-8.14-8.14a33.94,33.94,0,0,0-6.85-6.85l-8.14-8.13a32.55,32.55,0,0,0-6.61-6.65l-7.26-7.22a47,47,0,0,0-7.73-7.77l-7.26-7.22a47.35,47.35,0,0,0-7.73-7.77l-7.25-7.21L737,534.56l-8.37-8.34a37.21,37.21,0,0,0-6.62-6.65c-4.54-5.15-4.52-5.13.65-9.94,1.78-1.65,3.46-3.39,5.18-5.09l.8-.82A169.65,169.65,0,0,0,743.8,489.6l0,0c3.62-4.67,6-1.1,8.64,1.25a10.71,10.71,0,0,0,3.68,3.71l11.31,11.28a16.72,16.72,0,0,0,4.74,4.74l10.24,10.25a10.86,10.86,0,0,0,3.68,3.7l11.31,11.28A10.8,10.8,0,0,0,801.06,539.54Z" transform="translate(-9.22 -10.84)"/></svg>