<?xml version="1.0" encoding="utf-8"?>
<!-- Generator: Adobe Illustrator 25.2.1, SVG Export Plug-In . SVG Version: 6.00 Build 0)  -->
<svg version="1.1" xmlns="http://www.w3.org/2000/svg" xmlns:xlink="http://www.w3.org/1999/xlink" x="0px" y="0px"
	 viewBox="0 0 485 456" style="enable-background:new 0 0 485 456;" xml:space="preserve">
<g id="Capa_1">
</g>
<g id="Capa_2">
	<path d="M402.3,168.3c-2.9-41.2-20-75.9-54-102.3c-12.7-9.9-26.2-17.4-40.2-23.4c-1.1-0.6-2.3-1.2-3.5-1.8
		c-64.2-30.7-119.8,1.4-119.8,1.4l0,0c-2.1,0.9-4.2,1.8-6.2,2.7c-17.8,8.4-33.8,20.1-47.4,35C91.3,123.7,84,175.6,99.4,231.6
		c12.1,43.8,35,81.7,64.3,115.6c22.6,26.1,46.9,50.6,70.7,75.7c8.1,8.6,17.2,9.2,25.7,0.5c18.7-19.2,37.8-38.1,55.4-58.3
		c12.5-14.4,22.4-31.1,34.2-46.3C384,274.5,406.3,225.5,402.3,168.3z M247.1,251.9c-41.8-0.3-73.9-31.5-73.7-71.7
		c0.1-40.1,32.6-71.5,74.1-71.7c42-0.2,75,32.1,74.5,72.9C321.4,221.6,289,252.2,247.1,251.9z"/>
</g>
</svg>
