<?xml version="1.0" encoding="utf-8"?>
<!-- Generator: Adobe Illustrator 25.2.1, SVG Export Plug-In . SVG Version: 6.00 Build 0)  -->
<svg version="1.1" id="Capa_1" xmlns="http://www.w3.org/2000/svg" xmlns:xlink="http://www.w3.org/1999/xlink" x="0px" y="0px"
	 viewBox="0 0 396.9 396.9" style="enable-background:new 0 0 396.9 396.9;" xml:space="preserve">
<style type="text/css">
	.st0{fill:#FFFFFF;}
</style>
<g>
	<path class="st0" d="M258.1,196.4c22.2,5.7,42.3,14.5,60.4,28.7c21.4,16.9,35.7,38.3,46,62.8c2.5,5.9,3.8,12.4,6.7,18.1
		c3.8,7.7,2.3,13-3.7,19.1c-16.9,17.2-37.2,29.5-58.3,40.2c-17.6,8.9-36.6,14.5-55.9,19.5c-23.5,6.1-47,7.3-70.8,6.2
		c-26.8-1.2-53.2-7.3-77.5-17.9c-27-11.8-53.5-25.6-74.2-47.7c-9.3-9.9-10-14.4-4.8-26.9c9.1-21.9,19.2-43.2,35.7-60.7
		c19.7-20.9,44.2-33.6,71.9-40.4c0.8-0.2,1.5-0.6,3.7-1.4c-5.7-8.1-11-15.7-16.4-23.3c-16.2-22.5-24.6-47.7-23.1-75.4
		c1.4-26.2,12.7-48.1,33.7-63.9c10.9-8.2,22.8-15.8,35.4-20.6c17.7-6.7,36.8-5.3,55.3-1.8c14.7,2.7,26.6,10.8,38.2,19.9
		c19.2,15.1,32.6,33.7,36.8,58c3.2,18.4,0.5,36-6.8,53.5c-7.6,18.1-17,34.7-30.1,49.3C259.1,192.8,258.8,194.7,258.1,196.4z
		 M207.3,370.3c20.9-1.4,49.6-4.4,77.4-16.2c22.1-9.4,41.9-21.7,60.8-35.8c2.9-2.2,5.6-8.7,4.4-11.5c-6.7-15.5-13.3-31.4-22.4-45.5
		c-10.6-16.4-26.4-28.2-44.6-35.6c-11.9-4.8-24.6-8.3-37.3-10.5c-10.2-1.8-15-7.6-10.2-17.1c4.6-9,9.9-17.8,15.7-26.2
		c11.7-17,20.5-34.7,25.7-55.3c3.2-13,0.1-23.3-2.3-34.5c-2.5-11.6-10.6-19.9-18.7-28.5c-8.5-9.1-18.6-16.6-29.2-19.5
		c-27.2-7.6-54.6-7.5-78.5,11.5c-18.8,14.9-31.6,32.7-31.5,58.1c0.1,21.5,9.8,39.2,19.5,57.2c1.2,2.2,2.4,4.3,3.8,6.3
		c7.3,11,15.2,21.6,21.6,33c3.5,6.3-1.7,13.6-8.4,14.9c-10.8,2.1-21.6,4.3-32.1,7.4c-23.4,7-41.4,21.8-54.8,41.7
		C59.2,274.4,54.2,286,48,296.7c-6.7,11.5-6.4,13.6,4.8,21.5c0.9,0.7,1.8,1.5,2.6,2.3c18.3,17.7,40.9,28.6,64.1,37.2
		C144.8,367,171.6,370.8,207.3,370.3z"/>
</g>
</svg>
