<svg id="Capa_1" data-name="Capa 1" xmlns="http://www.w3.org/2000/svg" viewBox="0 0 218.45 211.14"><path d="M151.09,110.55c-1.19,4.57-2.3,9.18-5.47,13-.18.07-.38.12-.56.2a36.14,36.14,0,0,1-10.51,2.68c-.82,0-1.06-.14-1.09-1a14.14,14.14,0,0,0-4-9.49c-3.13-3.27-7.25-4.45-11.76-4.45-2.74,0-5.06.89-6.25,3.62a4.85,4.85,0,0,0-3.69-3.33,15.68,15.68,0,0,0-12.26,2.62,13.68,13.68,0,0,0-5.85,11c0,.92-.37,1-1.18,1a38,38,0,0,1-6.5-1.39,34,34,0,0,0-4-1.31,24.54,24.54,0,0,1-4.63-9.83c-.51-2-1-3.91-1.49-5.86-.06-.57-.12-1.14-.17-1.72Q70.88,98,70.13,89.72l-.24-1.35a10.13,10.13,0,0,0-.3-3.63c.11-.19.22-.39,0-.59.13-1-.3-2.1.1-3.13,1.1-2.93,2.22-5.86,3.06-8.79,1.2-4.29,2.35-8.54,1.71-13.11a35.66,35.66,0,0,1,.84-13.91,17.34,17.34,0,0,1,5.1-9.07c3.72-3.34,8.26-4.21,13.21-3.85,1.82.12,3.57.68,5.37.9,3,.37,6.1.71,9.16.84A101.25,101.25,0,0,0,123,33.81c2.7-.28,5.36-1,8.11-.82,6.32.35,11.21,2.93,14.11,8.34a24,24,0,0,1,2.49,13.35c-.27,3.63-.06,7.06,1.82,10.3.66,1.12,1.16,2.31,1.77,3.46.27.49.28,1.11.79,1.49l.56,1.35a30,30,0,0,1,1.05,4.6l-.27,5.58a4,4,0,0,0-.22,2.12c-.13,1.53-.25,3.07-.37,4.61s-.32,3.24-.47,4.88c-.39,4.67-.8,9.35-1.14,14A12.11,12.11,0,0,0,151.09,110.55Z" transform="translate(-2.57 -5.26)" fill="#eec1a7"/><path d="M167.38,162c6.92,1.87,13.83,3.85,20.79,5.6a53,53,0,0,1,9.91,3.18c6.67,3.19,11.8,7.81,14.21,14.64,1.47,4.14,2.47,8.43,3.68,12.69,1.65,5.76,3.27,11.53,4.94,17.28.26.85.09,1-.86,1H127.39a13.2,13.2,0,0,1-1.42-.05.8.8,0,0,1,.31-.56q3.42-3.84,6.82-7.71c.82-1,1.59-2,2.44-2.86s2-2,2.93-3c2-2.39,4.14-4.69,6.2-7,2.92-3.3,5.85-6.54,8.77-9.81,3.29-3.67,6.56-7.38,9.88-11,.52-.57.42-.85-.06-1.34-1.85-1.95-3.64-3.9-5.5-5.86-.51-.53-.26-.67.3-.89q4.24-1.71,8.48-3.51C166.83,162.52,167.3,162.49,167.38,162Z" transform="translate(-2.57 -5.26)" fill="#22262c"/><path d="M97.8,216.28H3.3c-.74,0-.83-.18-.65-.81,2.73-9.58,5.38-19.18,8.18-28.75a24.28,24.28,0,0,1,10.61-13.66,38.94,38.94,0,0,1,13-5.24c5-1.11,10-2.43,15-3.65L56,162.58c.21.4.67.4,1,.53l9.39,3.46c-.58.3-.63.82-1,1.16-1.86,1.72-3.48,3.63-5.2,5.46-.38.42-.33.64,0,1,1.67,1.79,3.31,3.61,4.93,5.44,3.4,3.82,6.83,7.58,10.2,11.45,2.41,2.81,5,5.54,7.42,8.31l10.68,12C95,213,96.37,214.64,97.8,216.28Z" transform="translate(-2.57 -5.26)" fill="#22262c"/><path d="M120.67,199.9l-4.61,7.73q-1.87,3.1-3.78,6.21c-.16.28-.37.51-.6.83l-9.71-15a4.72,4.72,0,0,0,.27-.61c1.39-5.86,2.67-11.76,4.23-17.57a3.9,3.9,0,0,0-1.19-4.44c-2-1.84-3.58-4-5.62-5.86-.21-.5-.83-.79-.86-1.39,1-1.28,2.08-2.57,3.14-3.84l9.47-11.52c.3,0,.37.24.51.4l11.62,14.17c.37.45.71.92,1.06,1.38l-1,1.3c-.06,0-.15,0-.19.07-2,2.18-4,4.39-6.07,6.51a2.14,2.14,0,0,0-.66,2.21C118,187,119.31,193.43,120.67,199.9Z" transform="translate(-2.57 -5.26)" fill="#16a1d8"/><path d="M77.91,123.71A34,34,0,0,1,82,125a38,38,0,0,0,6.5,1.39c.81.08,1.13,0,1.18-1a13.68,13.68,0,0,1,5.85-11,15.68,15.68,0,0,1,12.26-2.62,4.85,4.85,0,0,1,3.68,3.39c1.19-2.73,3.51-3.62,6.25-3.62,4.51,0,8.63,1.18,11.76,4.45a14.12,14.12,0,0,1,4,9.49c0,.82.27,1,1.09,1a36.46,36.46,0,0,0,10.51-2.68c.18-.08.38-.14.56-.2A39.86,39.86,0,0,1,133.33,134c-.29.17-.56.35-.84.53a62.05,62.05,0,0,1-12.68,5.3,29,29,0,0,1-7.89,1.46,33.51,33.51,0,0,1-9.75-1.89,68.42,68.42,0,0,1-11.25-4.88c-2-1.29-4-2.45-5.85-3.91A39.1,39.1,0,0,1,77.91,123.71Zm51.36,3.74a11.33,11.33,0,0,0-2.84-8.09c-3.77-4.24-10-4.66-14.12-2.93a1.73,1.73,0,0,1-1.73.07,12.58,12.58,0,0,0-12.94,1.83c-4.33,3.85-4.63,9-2.93,13.66a1.78,1.78,0,0,0,.64.84,35.12,35.12,0,0,0,9.92,4.88,1.32,1.32,0,0,0,.87.12,4.45,4.45,0,0,0,2.63-4.51,5.63,5.63,0,0,1,.12-3.67c.53-1.25,1.2-1.58,3.11-1.55a2.37,2.37,0,0,1,2.53,1.66,5.38,5.38,0,0,1,0,3.5,2.81,2.81,0,0,0,.73,2.93,9.24,9.24,0,0,0,1.85,1.62,1.44,1.44,0,0,0,1.21.19,25.52,25.52,0,0,0,8.71-4.14,2.36,2.36,0,0,0,.74-.89A13.86,13.86,0,0,0,129.27,127.45Z" transform="translate(-2.57 -5.26)" fill="#22262c"/><path d="M90.91,134.48a68.42,68.42,0,0,0,11.25,4.88,33.51,33.51,0,0,0,9.75,1.89,29,29,0,0,0,7.89-1.46,62.05,62.05,0,0,0,12.68-5.3v8.73a1.58,1.58,0,0,1-1,1.65c-4.41,2.16-8.77,4.41-13.2,6.56-1.7.83-3.39,1.66-5.07,2.53-.48.24-.74.75-1.3.88-.14-.16-.21-.41-.5-.4.08-.49-.16-.75-.61-1q-8.2-4-16.39-8.05c-.84-.41-1.64-.89-2.51-1.24a1.38,1.38,0,0,1-1-1.46C90.92,140,90.9,137.23,90.91,134.48Z" transform="translate(-2.57 -5.26)" fill="#eec1a7"/><path d="M64.91,76.06c.25,2.38.5,4.75.76,7.13.07.64.17,1.26.25,1.89a.59.59,0,0,0,.15.57l.09,1.16.09.27s0,.09.06.12a2,2,0,0,0,.2,1.33,9.23,9.23,0,0,0,.62,3.08V92a4,4,0,0,0,.06,1c.6,2.34,1.14,4.7,1.71,7-2.86.26-4.45-1.6-5.69-3.49-2.54-3.9-3.49-8.28-4.25-12.73a19.81,19.81,0,0,1-.41-3.91A3.91,3.91,0,0,1,62,76.56a11.65,11.65,0,0,1,2.21,0C64.91,76.74,64.91,76.45,64.91,76.06Z" transform="translate(-2.57 -5.26)" fill="#eec1a7"/><path d="M158.34,76.06c.26.51.75.54,1.28.55a3.8,3.8,0,0,1,3.83,3.76,3.67,3.67,0,0,1,0,.66,52.92,52.92,0,0,1-2,9.65c-.9,2.93-1.95,5.77-4.43,7.92a5.11,5.11,0,0,1-3.07,1.45c.38-1.69.79-3.37,1.15-5.07.79-3.62,1.72-7.21,2.2-10.89.22-1.54.42-3.07.64-4.62A21.73,21.73,0,0,0,158.34,76.06Z" transform="translate(-2.57 -5.26)" fill="#eec1a7"/><path d="M98.76,169.85c0,.6.65.88.87,1.39a12.39,12.39,0,0,0-1,1.53c-.32.72-.72.83-1.37.4-.26-.16-.53-.28-.79-.43-2.93-1.65-5.86-3.29-8.78-5-2.14-1.23-4.2-2.56-6.37-3.7a19,19,0,0,0-3.9-2l-1.17-1.64-.83-1.5c1.11.06,1.82.9,2.71,1.36,3.29,1.69,6.53,3.46,9.75,5.27,2.93,1.67,5.95,3.24,8.9,4.88,1,.52,1.4.4,1.75-.51C98.54,169.85,98.68,169.85,98.76,169.85Z" transform="translate(-2.57 -5.26)" fill="#eec1a7"/><path d="M123.51,171.7l1-1.3c.15.18.3.34.44.52.44.58.83.68,1.58.26,4.44-2.49,8.93-4.93,13.42-7.36a11.19,11.19,0,0,0,2.41-1.35,1.12,1.12,0,0,1,1-.28,16.51,16.51,0,0,1-1.77,3,2.4,2.4,0,0,0-1.28.51c-2.26,1.27-4.49,2.56-6.73,3.83-2.51,1.43-5,2.83-7.53,4.28-.56.32-.88.25-1.23-.27S124,172.33,123.51,171.7Z" transform="translate(-2.57 -5.26)" fill="#eec1a7"/><path d="M158.63,73.35a11.16,11.16,0,0,1-1.69-1.61,1.63,1.63,0,0,0-2.16-.57,2.71,2.71,0,0,1-2.11.11L152.13,70a3.68,3.68,0,0,0,3,.17,2.45,2.45,0,0,1,2.53.83,14.57,14.57,0,0,0,1.24,1.12Z" transform="translate(-2.57 -5.26)" fill="#22262c"/><path d="M166.28,161.6c-6.09-1.6-12.18-3.21-18.25-4.88-.81-.22-1.21-.12-1.41.62.5.72.08,1.47-1.12,2l-2,2.92a16.27,16.27,0,0,1-1.77,3.05c-2.06,3.46-4.12,6.87-6.2,10.3q-5.61,9.26-11.26,18.54c-1.17,1.93-2.36,3.83-3.54,5.79l-4.61,7.73q-1.83,3.1-3.78,6.21c-.16.28-.37.51-.6.83l-9.75-15-13-19.89L77.92,163c-.18-.28-.32-.56-.48-.84l-1.17-1.64c-1.69.16-2.53-1-3.44-2L56,162.61c.21.4.67.4,1,.53l9.39,3.46c-.56.3-.61.82-1,1.16-1.86,1.72-3.48,3.63-5.2,5.46-.41.42-.36.64,0,1,1.67,1.79,3.3,3.61,4.93,5.43,3.38,3.83,6.87,7.56,10.2,11.46,2.41,2.81,4.95,5.54,7.42,8.31q5.36,6,10.68,12c1.45,1.59,2.87,3.24,4.3,4.88l1.24.06h25.52c.44,0,1-.05,1.41-.05,0-.25.15-.39.31-.56q3.45-3.81,6.82-7.71c.82-.91,1.46-1.87,2.44-2.86s2.05-2,2.93-3c2-2.39,4.14-4.68,6.2-7,2.85-3.29,5.85-6.53,8.77-9.8,3.29-3.68,6.56-7.39,9.88-11.05.52-.57.42-.85-.06-1.34-1.85-1.95-3.64-3.9-5.5-5.85-.51-.54-.26-.68.3-.9q4.24-1.72,8.48-3.51c.33-.14.83-.17.88-.68C167,161.85,166.66,161.71,166.28,161.6Z" transform="translate(-2.57 -5.26)" fill="#020202"/><path d="M76.26,160.44,75.43,159a1.25,1.25,0,0,0-.2-.38,1.39,1.39,0,0,0-1.94-.26,2.52,2.52,0,0,1-.47.13C73.73,159.46,74.57,160.6,76.26,160.44Z" transform="translate(-2.57 -5.26)" fill="#020202"/><path d="M146.58,157.32a5.67,5.67,0,0,0-1.12,2C146.66,158.78,147.09,158,146.58,157.32Z" transform="translate(-2.57 -5.26)" fill="#020202"/><path d="M158.89,72.05a.32.32,0,0,1,.13-.41C159.05,71.79,159.08,72,158.89,72.05Z" transform="translate(-2.57 -5.26)" fill="#22262c"/><path d="M158.36,75.45v-.08l0-.07.06.12Z" transform="translate(-2.57 -5.26)" fill="#eec1a7"/><path d="M158.37,74.87a.33.33,0,0,1,0-.14h.07Z" transform="translate(-2.57 -5.26)" fill="#eec1a7"/><path d="M153.21,83.54c1.18-1.14,2.35-2.29,3.57-3.39.31-.29.6-.73,1.17-.66-.22,1.54-.42,3.08-.64,4.62a48.12,48.12,0,0,0-3.66,3.34l-.81.7C153,86.61,153.08,85.08,153.21,83.54Z" transform="translate(-2.57 -5.26)" fill="#22262c"/><path d="M153.7,75.84a2.73,2.73,0,0,1,1.47,3.08c-.15,1-.39,2.15-1.74,2.51Z" transform="translate(-2.57 -5.26)" fill="#22262c"/><path d="M67.17,91.61c.45-.07.77-.31.77-.75,0-1.29,1-1.9,2-2.52l.24,1.35c-.6.55-1.19,1.08-1.78,1.64a1.93,1.93,0,0,1-1.17.66Z" transform="translate(-2.57 -5.26)" fill="#22262c"/><path d="M69.6,84.71a3.63,3.63,0,0,1-1.85,0c-.76-.2-1.08.61-1.64.9a.58.58,0,0,1-.15-.56c.41,0,.52-.37.77-.56s.77-.61,1.27-.28a1.46,1.46,0,0,0,1.6-.13A.5.5,0,0,1,69.6,84.71Z" transform="translate(-2.57 -5.26)" fill="#22262c"/><path d="M77.43,162a19,19,0,0,1,3.9,2c2.17,1.14,4.23,2.47,6.37,3.7,2.92,1.67,5.85,3.31,8.78,5,.26.15.53.27.79.44.65.43,1,.31,1.37-.4a11.79,11.79,0,0,1,1-1.54c2,1.83,3.61,4,5.61,5.86a3.9,3.9,0,0,1,1.19,4.44c-1.56,5.86-2.84,11.71-4.23,17.57a3.33,3.33,0,0,1-.27.61l-13-19.85q-5.47-8.43-11-16.86A9.13,9.13,0,0,1,77.43,162Z" transform="translate(-2.57 -5.26)" fill="#fefefe"/><path d="M123.51,171.7c.46.63,1,1.22,1.39,1.88s.67.59,1.23.27c2.5-1.45,5-2.85,7.53-4.28,2.24-1.27,4.47-2.56,6.73-3.83a2.4,2.4,0,0,1,1.28-.51c-2.06,3.44-4.12,6.83-6.2,10.3q-5.61,9.28-11.26,18.54c-1.17,2-2.36,3.86-3.54,5.79-1.36-6.47-2.69-12.94-4.08-19.4a2.14,2.14,0,0,1,.67-2.22c2.07-2.12,4-4.33,6.06-6.51Z" transform="translate(-2.57 -5.26)" fill="#fefefe"/><path d="M129.27,127.45a13.85,13.85,0,0,1-1.42,5.53,2.39,2.39,0,0,1-.75.89,25.39,25.39,0,0,1-8.7,4.14,1.43,1.43,0,0,1-1.21-.19,9.58,9.58,0,0,1-1.86-1.62,2.83,2.83,0,0,1-.73-2.93,5.25,5.25,0,0,0,0-3.5,2.35,2.35,0,0,0-2.52-1.66c-2,0-2.59.3-3.11,1.55a5.63,5.63,0,0,0-.12,3.67,4.45,4.45,0,0,1-2.63,4.51,1.31,1.31,0,0,1-.87-.12,35.12,35.12,0,0,1-9.92-4.88,1.72,1.72,0,0,1-.64-.84c-1.73-4.66-1.43-9.82,2.92-13.66a12.59,12.59,0,0,1,12.94-1.83,1.75,1.75,0,0,0,1.74-.07c4.12-1.74,10.35-1.32,14.12,2.93A11.32,11.32,0,0,1,129.27,127.45Z" transform="translate(-2.57 -5.26)" fill="#eec1a7"/><path d="M66.2,86.81l.09.27Z" transform="translate(-2.57 -5.26)" fill="#22262c"/><path d="M152.84,88.18c-.16,1.64-.32,3.26-.47,4.88-.39,4.67-.8,9.35-1.14,14a12.16,12.16,0,0,0-.14,3.51l.48-1.75q1.19-4.39,2.39-8.78c.38-1.69.79-3.37,1.15-5.07.79-3.62,1.72-7.21,2.2-10.89a44.67,44.67,0,0,0-3.66,3.37Z" transform="translate(-2.57 -5.26)" fill="#22262c"/><path d="M68,90.9c0-1.29,1-1.9,2-2.52a10.13,10.13,0,0,0-.3-3.63,3.86,3.86,0,0,1-1.85,0c-.76-.2-1.08.61-1.64.9l.09,1.16.1.31a.08.08,0,0,0,0,.12c0,.44-.1.89.2,1.29a3.93,3.93,0,0,0,.62.3l.11,0A1.36,1.36,0,0,0,69,88.11a1.21,1.21,0,0,0,0-1,1.19,1.19,0,0,1,0,1.08l0,.11a1.36,1.36,0,0,1-1.82.61,3.93,3.93,0,0,1-.62-.3,9.23,9.23,0,0,0,.62,3.08C67.63,91.58,68,91.34,68,90.9Z" transform="translate(-2.57 -5.26)" fill="#22262c"/><path d="M157,71.78a1.63,1.63,0,0,0-2.16-.57,2.68,2.68,0,0,1-2.13.07,31,31,0,0,1,1,4.56,2.73,2.73,0,0,1,1.47,3.08c-.15,1-.39,2.15-1.74,2.51a4,4,0,0,0-.22,2.11c1.18-1.14,2.35-2.29,3.57-3.39.31-.29.6-.73,1.17-.66a22,22,0,0,0,.39-3.43v-.69l0-.07v-.43a.33.33,0,0,1,0-.14h.07l.2-1.34A11.68,11.68,0,0,1,157,71.78Z" transform="translate(-2.57 -5.26)" fill="#22262c"/><path d="M142.61,15.94c-1,0-1.63.49-1.62,1.32a1.46,1.46,0,0,0,1.53,1.31,1.43,1.43,0,0,0,1.38-1.28,1.29,1.29,0,0,0-1.21-1.35Z" transform="translate(-2.57 -5.26)" fill="#22262c"/><polygon points="126.82 12 138.97 9.77 143.6 12 144.44 22 137.56 25.28 129.46 19.36 126.82 12" fill="#22262c"/><path d="M159.61,43A50.88,50.88,0,0,0,155,28.33a36.61,36.61,0,0,0-7.94-10.89,1.32,1.32,0,0,0-.62-.57,12.64,12.64,0,0,0-2.82-2.33,2.14,2.14,0,0,0-1-.8,42.14,42.14,0,0,0-14.14-6.38,65,65,0,0,0-13.88-1.95,36.52,36.52,0,0,0-7.09.06,54.17,54.17,0,0,0-18.21,5.87c-4.24,2.35-7.72,5.41-8.9,10.16a.68.68,0,0,1-.56.56,20.62,20.62,0,0,0-5.26,2.44c-4.1,2.59-7,5.94-7.86,10.66a176.26,176.26,0,0,0-2.12,23.72c-.22,5.73.07,11.46.36,17.18.25,2.38.5,4.75.76,7.13.07.64.17,1.26.25,1.9a.42.42,0,0,0,.12,0c.25,2.37.62,5.24,1.14,7.72l0,.24c.6,2.34,1.14,4.69,1.71,7,.42,1.27.83,2.54,1.25,3.81a23.08,23.08,0,0,0,1.58,4.17c-.06-.57-.12-1.14-.17-1.72q-.74-8.28-1.48-16.59l-.06.05c-.18-2.23-.42-5.46-.54-8.05A2.52,2.52,0,0,1,69.7,81c1.1-2.93,2.22-5.86,3.06-8.79,1.2-4.29,2.35-8.54,1.71-13.1a35.7,35.7,0,0,1,.84-13.92,17.41,17.41,0,0,1,5.09-9c3.72-3.34,8.26-4.21,13.21-3.85,1.82.12,3.57.68,5.37.9,3,.37,6.1.71,9.16.84A101.25,101.25,0,0,0,123,33.81c2.7-.28,5.36-1,8.11-.82,6.32.35,11.21,2.93,14.11,8.34a24,24,0,0,1,2.49,13.35c-.27,3.63-.06,7.06,1.82,10.3.66,1.12,1.16,2.31,1.77,3.46a5.65,5.65,0,0,0,.63,1.31,34.32,34.32,0,0,1,1.48,14.78c-1.38,12.3,2.64,5.73,2.64,5.73l2.68-18.34.14.13a.32.32,0,0,1,.13-.41,90.46,90.46,0,0,0,1.37-11.82A77.88,77.88,0,0,0,159.61,43ZM143.9,17.29a1.43,1.43,0,0,1-1.38,1.28h0A1.46,1.46,0,0,1,141,17.26c0-.83.6-1.33,1.62-1.32a1.28,1.28,0,0,1,1.31,1.25Z" transform="translate(-2.57 -5.26)" fill="#22262c"/></svg>