<?xml version="1.0" encoding="utf-8"?>
<!-- Generator: Adobe Illustrator 25.2.1, SVG Export Plug-In . SVG Version: 6.00 Build 0)  -->
<svg version="1.1" id="Capa_1" xmlns="http://www.w3.org/2000/svg" xmlns:xlink="http://www.w3.org/1999/xlink" x="0px" y="0px"
	 viewBox="0 0 396.9 396.9" style="enable-background:new 0 0 396.9 396.9;" xml:space="preserve">
<style type="text/css">
	.st0{fill:#FFFFFF;}
</style>
<g>
	<path class="st0" d="M389.9,185.5c-0.2-24.3-0.5-48.5-0.8-72.8c-0.2-17.2-7.7-29.3-22.8-34.1c-11.5-3.6-16.3-10.6-18-22.2
		c-3.6-25.6-16.6-44.2-42.7-51.4c-13.8-3.8-27.7-2.2-41.3,1.6c-81.6,22.3-163.1,44.9-244.8,67c-8,2.2-10.5,6-10.5,14.2
		c0.4,45.7,0.2,91.4,0.2,137.1l2.3,0c0,31.8-0.1,63.5,0,95.3c0.1,15.7,0.6,31.5,0.6,47.2c0,6.2,2.8,8,8.5,8
		c14.4,0.1,28.9,0.7,43.3,0.9c43.1,0.7,86.2,1.5,129.3,1.8c47.5,0.3,95.1,0.1,142.6,0.1c15.8,0,29.4-5.3,39.9-17.3
		c10.9-12.5,14.8-27.6,14.7-43.8C390.5,273.3,390.3,229.4,389.9,185.5z M97.1,69c58.7-16,117.4-32.1,176.2-47.8
		c7.1-1.9,14.9-2.6,22.2-1.9c20.2,1.9,30.6,15.2,36,33.5c5.3,17.9,4.7,18.4-14.1,18.7c-75.1,0.9-150.2,2-225.3,3.1
		c-2.7,0-5.5,0-8.2,0L83.5,73C88,71.6,92.5,70.2,97.1,69z M373.4,330.3c-3.7,20.1-16.8,31.9-37.7,32.1c-44.4,0.4-88.9,0.1-133.3-0.3
		c-53.7-0.5-107.4-1.6-161.1-2.3c-12.9-0.2-13.2-0.2-13.4-13.4c-0.6-65.6-1.1-131.2-1.8-196.8c-0.2-16.3-0.5-32.5-1.1-48.8
		c-0.2-5.5,1.4-8.1,5.4-9.1c0.2-0.5,0.6-0.8,1-1c9.2-3.5,19.5-2.9,29.1-2.6c9.8,0.3,19.6,0.1,29.4,0c10.7-0.1,21.3-0.1,32,0
		c2.6,0,5.2,0.1,7.9,0.1c0.2-0.2,0.3-0.3,0.5-0.3c3.3-0.8,6.5-0.2,9.8,0.2c2.4-0.3,4.9-0.5,7.3-0.6c5-0.3,10-0.3,15-0.3
		c7.2,0.1,14.4,0.5,21.7,0.5c0-0.3,0-0.5,0-0.8c48.3,0,96.6-0.2,144.9,0.2c9.1,0.1,18.5,1.8,27.4,4.3c12.8,3.6,16.9,10.1,17.1,23.4
		c0.2,23.2,0.3,46.5,0.5,69.7c0.3,42.9,0.7,85.8,1,128.6C374.9,319,374.4,324.7,373.4,330.3z"/>
	<path class="st0" d="M356.1,275.2c-3.9-0.2-7.7-0.1-11.6-0.1c-11,0-22,0-33.6,0c0-4.3,0-7.4,0-10.4c0-12.1,0.1-24.3-0.1-36.4
		c-0.1-5.7-3.3-9.3-9-9.6c-5.5-0.3-8.6,3-9.7,8.1c-0.5,2.2-0.3,4.6-0.3,6.9c0,13.4,0,26.8,0,41.4c-15,0-28.9,0-42.8,0
		c-6.4,0-11.4,1.8-11.7,9.3c-0.2,6.3,4,9.8,12,9.9c6.7,0.1,13.4,0,20.1,0c7.4,0,14.7,0,22.3,0c0,4.2,0,7,0,9.8c0,11.1,0,22.2,0,33.3
		c0,6.4,2.2,11.3,9.5,11.6c6.2,0.3,9.4-3.5,9.6-11.3c0.1-4.6,0-9.3,0-13.9c0-9.7,0-19.3,0-29.5c4.4,0,7.5,0,10.5,0
		c11.4,0,22.7,0.1,34.1-0.1c5.9-0.1,10.1-3.1,10.3-9.3C366,278.7,362.2,275.5,356.1,275.2z"/>
</g>
</svg>
