<svg id="Capa_1_Imagen" data-name="Capa 1 Imagen" xmlns="http://www.w3.org/2000/svg" viewBox="0 0 584.93 376.88"><path d="M149.58,109.61c-.14-17.42-.35-34.84-.49-52.26-.12-16-8.34-27.17-21.11-28.68-1.76,1.11-3.74,0-5.51.84-24.9.5-49.8-.58-74.7-.39l-.86,0c.33-.15.59-.53.69-1.35-7.59.43-15.12-.82-22.8,1-8.41,2-16.11,11.4-16.26,22.32A2.8,2.8,0,0,0,8.46,53c.1,8.06.27,16.13.22,24.2a17.37,17.37,0,0,0-.9-3.7,5.45,5.45,0,0,0-.35,1.39q-.15,47.37-.25,94.74a46,46,0,0,1,0,10.88c-.18,12.94-.48,25.87-.52,38.8-.09,27.56.07,55.11-.15,82.66,0,4.13.54,8.42-.23,12.54a9,9,0,0,1,.29,1.63c.13,1.78-.11,3.51-.11,5.29a3.59,3.59,0,0,1-.57,2c.6,8.93,0,17.87-.32,26.8a3.81,3.81,0,0,1,.57,2.11v1.58a3.88,3.88,0,0,1-.27,1.41c0,.14,0,.28,0,.42,0,.8.12,1.59.18,2.39,0,.1,0,.2,0,.3,0,.47,0,.94,0,1.41a4.54,4.54,0,0,1-.08.81c3,9.83,8.78,15.92,17.15,18.45a13.56,13.56,0,0,1,6.23.35c4.91,0,9.82.12,14.74-.05,3.74-.92,7.5-.54,11.26-.18,15.3-.71,30.61-.19,45.92-.28,5.54,0,11.08-.44,16.62.32,3,.53,6.12.07,9.17.06,10.24-.27,18.75-10.59,20-23.76.82-8.33.27-16.62.32-24.92.12-18.64.16-37.28.23-55.92-.63-1.36-1.92-1.38-2.81-2.19-2.07-.87-3.43-4.55-6.23-2.44a5.17,5.17,0,0,0-.1,2.38c.3,11,.48,22.08-.07,33.13a13.41,13.41,0,0,1-.72,1.35,8,8,0,0,0-1,2.1c-.76,4.75-.36,9.56-.35,14.33,0,8.4-3.48,13.9-9,17.83-1.48,1.06-3.19,1.54-4.67,2.63-.37.3-.75.58-1.13.87-12.31.87-24.65.23-37,.37-3-.07-6-.06-9-.05,3.3,0,6.59,0,9.89-.22a1.32,1.32,0,0,0,0-1.64c-4.55-2.3-9.28-.78-13.93-1.09-1.2,0-2.41-.07-3.62,0-8.51.12-17-.26-25.53,0-3.3,0-6.6-.07-9.9,0-4.7.17-8.31-2.38-11.59-6.38-2.89-3.53-3-8.36-4.4-12.59a157.1,157.1,0,0,1,0-29.89c.11-10.32,1.16-20.59.9-30.93a24.5,24.5,0,0,0-1.75-6.56c-3.34-8.08-3.44-16.45-1.69-25.08.94-4.63,3.22-8.75,3.26-13.7a7.29,7.29,0,0,0-.32-1.61,9.13,9.13,0,0,0-.65-1.46c-.73-6.21-.19-12.46-.33-18.69.23-5.92-.57-11.89.54-17.77.77-5.95-.45-12,.78-18A139.49,139.49,0,0,0,17.49,142c-.86-4-4.36-5.83-5.29-10.09,4.51,3.3,4.77,3.12,5.61-3.47-.35-3.55-1.86-6.55-3.27-9.46-1.62-3.32-.76-4.83,1.76-5.87.76-2.06.36-4.39.94-6.49.2-2.7-.46-5.52.6-8.11,1.25-6.53.25-13.18.67-19.74.65-10,3-18.78,11.4-22.79a6.63,6.63,0,0,0,2.22-2c1.28-1.14,2.76-.92,4.2-.92,15.09,0,30.18,0,45.27-.19a7.26,7.26,0,0,0-1.14.38c.82,2.95,1,3.47,4.88,3.54,10.71.19,21.45,1.07,32.15-.46,11.5-1.64,19.33,6.75,19.71,21.16.06,2.24-.41,4.77,1.53,6.33a3.44,3.44,0,0,0,1.05-1.59c-.34,15.18-.12,30.45-.19,45.7a18.78,18.78,0,0,1-.47,5.4c-.29,2.41-.58,4.82.41,7.12,3.45,2.38,6.15.42,8.7-2.35.37-1.44-.37-2.73-.34-4.12,0-1.67,0-3.34,0-5-.05-2.88.11-5.76-.13-8.63-.79-12.61-.09-25.25-.4-37.94.07-.07.22-.07.23-.08v.5c0,6.15-.1,12.31,0,18.46.09,4.28-.66,8.64.63,12.83l.46.54C150.2,113.3,149.59,111.32,149.58,109.61ZM74.49,345c-3.48,0-7,0-10.43-.11C67.54,344.89,71,345,74.49,345ZM35.56,29.38c-.23,0-.28.19-.16.45.27.58-.49-.17,0-.52l1.29,0C36.33,29.29,36,29.33,35.56,29.38Zm6.78-.24c.92,0,1.84,0,2.75-.07a4.52,4.52,0,0,1,.77.1C44.69,29.18,43.51,29.16,42.34,29.14ZM92,52.67l2.51-.05c.74,0,1.48,0,2.22.05C95.13,52.69,93.55,52.68,92,52.67Zm13.2-.17c4.51-.2,8.9-.49,13-.43C114,52.2,109.63,52.37,105.17,52.5Zm34.7,26.18a9,9,0,0,1,.06-2.27C139.91,77.16,139.9,77.92,139.87,78.68Z" transform="translate(-5.35 -3.65)" fill="#253044"/><path d="M8.24,103.63v0Z" transform="translate(-5.35 -3.65)" fill="#253044"/><path d="M8.24,101.22v0Z" transform="translate(-5.35 -3.65)" fill="#253044"/><path d="M104.66,378.94a2.69,2.69,0,0,0-1.31-.46c-2.1-.09-4.21,0-6.31-.05H74.54c-10.71.19-21.42-.15-32.13.41-5,.26-10,.81-15-.53a7.87,7.87,0,0,0-4.38-.18c-3.87-1-6.92-3.56-9.84-6.95a50.79,50.79,0,0,1-7-11.31,3.24,3.24,0,0,1-.67,2c0,4.84.11,9.68-.09,14.51-.13,3.28.35,4.19,3.19,4.17,32.11-.17,64.23-.11,96.35-.11A1.22,1.22,0,0,0,104.66,378.94Z" transform="translate(-5.35 -3.65)" fill="#fcfcfc"/><path d="M6.45,321.28v.12a2.77,2.77,0,0,1-1,2.34V350a3.44,3.44,0,0,1,.69,2.24v.19a13.53,13.53,0,0,0,0-1.56c.21-8.05.51-16.1.5-24.15A33.28,33.28,0,0,0,6.45,321.28Z" transform="translate(-5.35 -3.65)" fill="#e8e9eb"/><path d="M178.11,3.65c-.26,3.51-2.2,4.46-5.69,2.73.53-2,2.58-1.14,3.3-2.73Z" transform="translate(-5.35 -3.65)" fill="#eaeaf0"/><path d="M589.5,332.43a4.07,4.07,0,0,0,.78,0v18l-.31.16-.34,0A29.58,29.58,0,0,1,589.5,332.43Z" transform="translate(-5.35 -3.65)" fill="#c9ccce"/><path d="M126.42,379.55a2.13,2.13,0,0,0,0,.87H116.05a1.15,1.15,0,0,1,.39-1.5C119.76,379.13,123.13,378.31,126.42,379.55Z" transform="translate(-5.35 -3.65)" fill="#c3c6cc"/><path d="M104.91,380.42a2.55,2.55,0,0,0,0-.87c1.91-1.88,4-1.15,6.07-.64a1.21,1.21,0,0,1,.32,1.51Z" transform="translate(-5.35 -3.65)" fill="#c5c8cd"/><path d="M111.27,380.42a3,3,0,0,0,0-.79c1.57-1.67,3.13-1.66,4.7,0a3,3,0,0,0,0,.79Z" transform="translate(-5.35 -3.65)" fill="#f4f5f6"/><path d="M506.71,185.37c12.16,0,19.06,9.49,24.64,21.42.46,1,1.08,1.85,1.62,2.77,4.26,8.13,8.26,16.4,9.58,26.22a3,3,0,0,1-3.51.45,2.22,2.22,0,0,1-.82-1c-1.51-7.52-4.86-14-7.89-20.56a155.34,155.34,0,0,0-10.42-19.38c-.81-1.22-1.52-2.58-2.87-3-1.95-.64-4-.27-5.95-.87-4.31-.79-8.67-.39-13-1.18-3.06-.56-3.9,1.07-3.51,5.67.58,6.74,1,13.49,1.37,20.25-.46,5.46.54,10.81.82,16.22.3,5.63,3.61,3.86,6.2,3.78a50.09,50.09,0,0,1,6.93,0c1.06.41,2.51.25,2.43,2.46-3.74,2.34-7.84,3-11.89,3.23-9.67.57-19.15,3.05-28.74,4.28-1,.13-2.09.34-3,2.64,24.85-1.84,49.13-6,73.58-6.89a2.78,2.78,0,0,1,2.42,1.39c3.38,5.64,8.55,9.17,11.47,15.36,2.62,6.3,3.4,13.26,4.61,20.08.37,2.1.25,4.68,1.54,6.1,5.79,6.4,4.28,15.21,5.17,23.25.08,7.71.22,15.42-1,23-.75,3.23-.16,7.73-4.51,7.59a5.64,5.64,0,0,1-3.85-1.89c-1.84-2.78-2.51-6.15-3.14-9.58-1.33-7.18-3.4-13.92-7.22-19.72-4.49-6.83-10.32-7.79-16.56-5.93-9.38,2.8-15.19,10.93-19,21.61-.87,2.43-1.48,5-2.13,7.53-1.49,5.81-4.77,8.84-9.46,9q-19.68.52-39.36,0c-5-.14-7.65-3.24-8.95-9.45-.88-4.18-1.81-8.34-3-12.41-4.69-16.31-16.09-21.6-28-12.94-6.4,4.63-10.26,11.85-12.87,20.29-.62,2-1.09,4.11-1.74,6.11-1.72,5.32-4.85,8.39-9.42,8.46-15,.22-29.95.17-44.93,0-1.76,0-3.91.07-4-3.35,1.9-1.43,3.9-.27,5.83-.29,8.35-.07,16.7-.17,25.05,0,3.6.09,5.66-1.63,6.77-5.93,1.68-6.49,3.9-12.74,5.58-19.23a17.78,17.78,0,0,1,4.87-8.9c9-8.28,18.81-14.24,29.69-17.39a9,9,0,0,1,3.35-.57c-6.12-.86-13.18,0-20.23.76-1.88-4.11-2.89-8.79-5.26-12.59.24-2.1,1.67-2.88,2.83-3.92,7.66-6.88,15.37-13.67,23.67-19.31,3.44-2.33,5.47-5.67,7-10.3,4.79-14.72,11.63-28,19.26-40.66a7.86,7.86,0,0,0,.77-1.14c3.29-8.33,9.13-11.15,16-11.41,5-.18,9.93-1.7,15-.5,4.58,1.08,9.22-.76,13.85-.68C503.7,185.24,505.27,184.82,506.71,185.37Z" transform="translate(-5.35 -3.65)" fill="#0062cf"/><path d="M309.41,150.39c-2.32,6.87-5.6,8.65-11.07,4.41-2-1.53-4.94,0-7.75-1-4.33-1.46-5.61-5.62-6.31-9s.45-7.65-1.65-11.2c-.26-.44.8-2.3,1.42-3.34.72-1.19,1.15-2.36.24-3.55-2.3-3-.45-4.69,1.23-6.44,1-1.06,2.31-1.88,3-3.19,1.31-2.43,2.55-2.71,4.61-1.29,3.14,2.16,5.27.77,5.05-3.77-.32-6.66,5.34-6.71,7-11,.09-.23,1.09-.22,1.47.07,2.54,2,4.71,3,6.79-1.18.64-1.28,2.49.08,3.54,1.1,1.91,1.84,3.18,2.68,4.18-1.35.74-3,3-5.43.55-8.86-.78-1.08.4-2.48,1.25-3.26a23.89,23.89,0,0,0,4.73-5.29c1.25-2.11,2.52-1,3.8-.07,1.69,1.27,3.3,2.36,4.51-.9.84-2.26,2.23-1.95,3.63-.76a5.12,5.12,0,0,1,.93.93c2.35,3.23,5.27-1.3,7.4.67,1.89,1.76,1,6.69,4.83,6.85,1.88.07,2.26,1.95,1.32,4-.61,1.36-1.83,2.4-1.53,5.15,2.67-3.63,5.14-3.77,7.74-.69.45.54,1.85.25,2.64-.17,1.83-1,3.27-1.17,4.24,1.53,1.15,3.19,3.56-.62,5.2,1.48s3.5,2.11,4.59-1.23c.52-1.58,1.58-1.58,2.66-.81a8.24,8.24,0,0,1,1.66,1.36c2.42,2.92,5.27-1,7.47.58,2,1.5.93,6.52,4.74,7,2.39.28,2.23,2.86,1,4.93-1.46,2.39-2.15,4.28,1.07,5.14a3.16,3.16,0,0,1,2.21,3.15,2.94,2.94,0,0,1-2,3.24c-2.64,1.06-2.48,3.61-1.89,6.09.69,2.88,0,3.91-2.34,4.14-1.69.16-4.36.18-3.81,3.45s2.94,2.63,4.94,1.88a8.3,8.3,0,0,1,1.14-.43c1-.19,2.53.24,2.21,1.21-2.06,6.22,9.44,4.1,4.49,11.8-1.11,1.72-.76,2.67.78,3.79,3.88,2.8,4,4.21.43,7.07-3.4,2.75-.52,6-.8,9a3,3,0,0,1-2.48,2.16c-2.41.2-3.74,2-4.68,4.57-1.22,3.42-3.36,4-5.89,2.43a10.49,10.49,0,0,0-6.87-1.44c-3.24.34-6-1.84-8.8-3.68-.94-4.56,2.27-6.65,3.73-10-1.84,1.26-3.11,3.76-5.44,3.56a2.69,2.69,0,0,1-1.8-1.65c-.6-4.62,1.64-7.81,3.6-11.09,1-1.71,2.44-3,3.46-4.67-.12-.43-.31-.47-.59-.21-4.79,4.63-5.23,4.42-6.51-3.12a12.5,12.5,0,0,0-.57-2.4,88.25,88.25,0,0,1,.41,12.8c-.06,4.67-1.73,8.65-3.5,12.55-.83,1.83-1.55,3.91-3.39,4.63-4.45-2.51-9.19-1.79-13.84-2-1.37-2-.2-3.76.35-5.54a207.29,207.29,0,0,0,5.68-20.75,13.53,13.53,0,0,0,.32-6.58c-1.3,6.48-3.55,11.73-5,17.37a69.67,69.67,0,0,1-7,16.74c-1.84,3.29-3.8,3.49-6.39,1.26-3.41-2.93-5.49-6.35-5.14-12,.25-4,.94-8,1-12.12-1.37,4-1.91,8.24-2.83,12.37-.83,3.71-2.09,4.44-4.59,2.43-2.78-2.25-5.56-4.62-6.6-9,.36-3.27,1.27-6.85-2.66-7.82C313.07,150.36,311.26,146.2,309.41,150.39Z" transform="translate(-5.35 -3.65)" fill="#64a3fd"/><path d="M501.94,185.48c-11.95,2.13-24.16-1.06-36,2.94a6.64,6.64,0,0,0-3.91,3c-9.75,16.1-19.27,32.38-24.78,51.7-1.23,4.35-4.56,5.76-7.4,7.78-9,6.38-17.26,14-25.71,21.37-.11.22-.22.43-.34.64a3.74,3.74,0,0,1-2.31.83,12.59,12.59,0,0,0-4.73.7c-7.52.46-15,.85-22.35,3.71-8.51,3.3-15.31,8.75-19.7,18.6a7.3,7.3,0,0,1-1.52,1.52c-2.4,1.29-4.4,3.91-7.31,3.59-9.48,0-18.94.11-28.41,0a5.13,5.13,0,0,1-4.24-2.62,15.87,15.87,0,0,1-1.24-3.73,16.09,16.09,0,0,1-.37-3,25.34,25.34,0,0,0-.42-5.78c-.59-4.57-2.25-8.26-5.42-10.82-1.16-.95-2.53-1.88-2.33-4.12,2.88-5.84,7.67-9,11.77-13.09,2.06-2.06,4.36-3.75,6.55-5.61a51,51,0,0,0,4.75-3.23,8.26,8.26,0,0,1,1.41-1.06c2-1,4.05-2,6.07-3.07,3.75-1.79,7.06-4.76,10.87-6.36.84.3,1.21,1.56,2.14,1.68,1.15,0,2.22-.64,3.36-.75,6.5-.15,12.92-1.83,19.44-1.22,12.24-2.28,24.48-.24,36.71.15,7.36.23,14.74.76,22.11,1.2,1.61.1,3.17.42,4.37-1.35,1.4-1.84,2.12-4.2,3-6.41.34-.87.7-1.74,1-2.61,3.72-8,7.83-15.65,11.55-23.63,2.23-3.5,4.42-7,6.7-10.48,1.63-2.48,1.29-3.63-1.29-4A172.6,172.6,0,0,0,433.48,190c-9-.35-18-.09-26.93-.09a19.59,19.59,0,0,1-3.9-.28c-1.65-.44-2.68-1.42-1.73-3.78a2.68,2.68,0,0,1,1.77-1.2c10-1.4,20-3,30.09-3.4a84,84,0,0,1,31-.27c1.82.3,3.68-.29,5.5.35L497,183.7C498.4,185.3,500.94,182,501.94,185.48Z" transform="translate(-5.35 -3.65)" fill="#007cfc"/><path d="M348.32,336.5c.87,2.44,2.64,1.82,4.15,1.82q21.88,0,43.77,0c5.67,0,8.09-2.18,9.85-9.17,2.11-8.39,4.89-16.33,10.54-21.88,7-6.87,14.71-10.92,23.56-5.73,5.06,3,8.05,8.56,9.92,15,1.31,4.51,2.3,9.19,3.33,13.82,1.23,5.53,3.33,7.91,7.91,7.94,13,.1,26,.13,39,0,5.19-.06,7.39-2.31,8.87-8.66,2.79-12,7.72-22,17-27.47,8.73-5.16,19.72-4.4,25.41,9.74a61,61,0,0,1,4.45,15.39c.39,3.2,1.67,5.93,2.52,8.88.43,2.77-.49,4.67-2.42,5.91-3,0-2.37-2.74-2.39-5-.09-9.36-1.57-18.18-6.3-25.75-2.73-4.37-6-7.4-10.67-7.57-6.32-.22-12.13,4.85-15.22,13.56a53.14,53.14,0,0,0-1,34.46c2.9,9.19,7.52,16.49,16.22,17.51.79.32,1.7.5,1.65,1.95a11.44,11.44,0,0,1-7.16,1,26.21,26.21,0,0,0-9.47,0c-9,.23-15.57-6.21-20.08-19.68-1.53-1.27-1.39-3.65-2.27-5.35-1.23-1.77-2.89-1.47-4.49-1.47-5.71,0-11.41,0-17.11.05a8.18,8.18,0,0,0-7.59,4.47c-1.84,3.22-4.36,4.77-7.54,4.5-3.71-.31-6.94,1.94-10.4,3-2.46.76-2,2.63-.82,4.4,2.34,3.38,5.47,5.15,8.8,6.5,1.25.51,3.08.09,3.36,2.64a3.71,3.71,0,0,1-3.22.9,61.65,61.65,0,0,0-14.24,0c-2.11.45-3.82-.89-5.59-2-.68-.78-2.16.31-2.33-1.21-.2-1.72,1.2-2.39,2.08-3.31,12.74-13.23,13.54-43,1.53-57.29-5.19-6.18-12.57-6.46-18-.5-4.22,4.66-6.77,10.68-7.86,17.53-2.1,13.24-1.22,25.8,6.21,36.53,2.71,3.92,6.06,6.37,10.2,7.07,1,.17,2.14.21,2.84,1.44-2.22,2.46-4.88,1.87-7.48,1.74a26,26,0,0,0-9.47,0c-6.28.32-11.33-2.79-15-9.08-2.19-3.78-4.46-6.28-8.52-5.32-3.32.79-4.23-3.18-5.88-5.58-5.95-6-12.1-4.06-18.29-.72a20.07,20.07,0,0,1-19.86,4,1.88,1.88,0,0,1-1.93,0c-3.64-2.36-7.14-3.5-11.14-.6-2,1.45-4-.85-5.62-2.56-2.85-2.94-6.05-4.68-9.79-4.66-2.47,0-3.38,1.34-2.49,4.42,2.51,8.66,6.86,14.8,14.29,16.92,1.14.32,2.84-.25,3,2.26a5.62,5.62,0,0,1-4,.91,68.87,68.87,0,0,0-14.21-.09c-9.33-1.07-14.09-9-17.64-18.67-1.84-2.77-2.46-6.18-3.11-9.57-.26-2-.42-4,.64-5.75a4.37,4.37,0,0,1,2.59-1.07c5.28-.84,5.28-.84,6.53-7.56C310.34,317,310.34,317,320.5,317c5.15,0,10.3,0,15.45,0,2,0,4.16.27,5.41,2.44C344.35,324.71,347.23,330,348.32,336.5Z" transform="translate(-5.35 -3.65)" fill="#1b2e35"/><path d="M322.38,253.67c-6.33,5.69-12.75,11.2-18.49,17.86-1.09,2.73-2.71,5-3.89,7.7-.84,1.87-1.32,4-2.72,5.46-1.83.5-1.72,2.83-2.53,4.29-1.33,2.72-1.95,5.85-3.13,8.65-1.12,2.11-2.9,3.53-3.84,5.83-1,5.57.36,11.71-2.63,16.79-.82,1.4-.85,4.27-2.45,4s-1.14-2.94-1.42-4.63c-.56-3.35-.48-6.89-2.07-11-.94,3.74-.53,6.66-.51,9.52,0,1.44.7,3.27-.53,4.14s-2.08-1-3.61-1.66c2.29,4.25,2.44,8.13-.25,11.76-4.26.36-8.58,1.85-12.67-1,5.6-2.33,5.6-2.33,5.6-10.56v-43c0-2.17-.21-4.38,1.79-5.58,1.26-.75,1.38-2.28,1.38-3.85,0-5-.1-10,0-15,.06-2.55-1.16-3.95-2.4-5.44-6.53-7.82-8.89-17.31-6.21-28.11,1.66-6.68-1.18-11.91-2.36-17.7-.38-1.89-1.68-3.69-.44-5.6s2.9-.62,4.41-.23c3.22.86,6.5,1.41,9.68,2.46,4.86,1.6,8.73-.66,12.36-4.29,2.9,5.08,2.68,11.12,3.26,16.91-1.57,2.66-5-2.84-5.68,1.69-.36,2.48.85,5.42,1.27,8.22,2.23-.06,2.44-2.12,2.83-4,.44-2.21.35-4.69,2-6.32a17.33,17.33,0,0,1,13.93,3c1.24,3.38,1.22,7.65,4.83,9.34,1.12.53.92,2.94,1,4.59.08,2.81-.12,5.63.19,8.43.25,2.25.93,4.84,2.78,4.88,5.61.1,7.28,6,10.25,10.05A7.63,7.63,0,0,1,322.38,253.67Z" transform="translate(-5.35 -3.65)" fill="#e4e4e5"/><path d="M566.52,307.47c-.34-4.29-.76-8.58-1-12.88-.16-3-.7-5.48-3-7.09-1.92-1.37-2.23-3.91-2.6-6.4-1.16-7.64-2.12-15.36-4.72-22.53-.93-3.23-2.1-6.37-2.88-9.67-.83-3.51-2.33-6.21-5-7.78-.79-1-1.92-1.79-1.61-3.58,1.3-1.47.76-3.43.77-5.18q0-26.49,0-53c0-2.47-.33-5,2.26-6.14,1.43-.62.87-2.6.88-4,.05-6.66,0-13.33.06-20,0-1.17-.53-3.08,1.06-3.13,1,0,1.43,1.53,1.25,2.7-.87,5.85,1.56,8.47,5.67,9.82a39.75,39.75,0,0,1,4.76,2.45c3.42,1.67,6.25,3.79,5.55,9.36-.25,2,.48,3.32,2.23,3.07,3.92-.57,4.18,2.35,4.16,6.17-.08,22,0,44,0,66,0,3.19-.35,6.54,3.59,6.56,1.33,0,1.18,1.93,1.18,3.23,0,3.83.09,7.66,0,11.49-.09,3.11,0,5.86,2.66,7.55,1.66,1.05,1.31,3.43,1.31,5.42,0,14.66.14,29.32-.08,44-.06,4.16.42,7,4.1,7.51-1.34,1.7-2.9,1.42-4.49.79-2.5-2.93-5.23-5-8.89-4.31-2.37.42-3.4-1.51-3.5-4.18a11.37,11.37,0,0,0-2.28-7.18C565.91,314,567.39,310.39,566.52,307.47Z" transform="translate(-5.35 -3.65)" fill="#e5e5e5"/><path d="M541,81.84c.08,2.64.89,5.11.82,7.84-.16,7.23-4.37,12.85-10.22,12.89-14.42.09-28.84,0-43.26.06-3.74,0-6.07-2-6.79-6.6s1.23-8,5.35-9.2c1.92-.57,2.86-1.29,3.23-4,1.41-10.06,5.09-14.08,13.24-15.27a9.09,9.09,0,0,0,5.07-2.48c7.91-7.42,14.45-6.3,20.53,3.46.69,1.12,1.31,2,2.49,2.12.3,2.38-.85,3.66-2.28,4.72-1.45.61-3,.41-4.58,1,1.08.73,2.25.65,3.26,1.26,3.83,2.48,7.72,4.59,12.19,3.37A1.39,1.39,0,0,1,541,81.84Z" transform="translate(-5.35 -3.65)" fill="#eee"/><path d="M317.93,157.39c1.45,3.93,4.1,6.42,6.77,8.9,1.69,1.57,2.6,1.83,3.08-1.45.67-4.54,1.76-9,2.8-13.43.27-1.14.67-3,2.08-2.25,1,.53.5,2,.32,3.1-.77,4.86-1.64,9.7-1.41,14.73.14,3.15,4.61,9.91,7,10.26,1.48.21,2-1.39,2.64-2.57,5.55-9.54,8.19-20.71,11.25-31.65.46-1.68.18-4.95,2.14-4.5s1.11,3.5.87,5.26c-1.22,8.69-3.81,16.87-6.43,25-.49,1.52-.91,3.08-1.37,4.63a2.4,2.4,0,0,1-.2,2.31c-4,5.94-2.23,11.49.45,17.23,1.26,2.68,2.09,3,3.68.55a152.34,152.34,0,0,0,8.1-14.65c.63-1.23,1-2.75,2.14-3.44a39.75,39.75,0,0,0,5-29.51c-.27-1.3-.53-3.48,1.12-3.59,1.39-.09.94,1.95,1.22,3.15.64,2.8.45,5.91,1.77,8.51,1.51-.47,2.14-2.1,3.17-3.07s2.14-3,3.28-1.64c1.35,1.62-.45,2.93-1.32,3.93a27.74,27.74,0,0,0-6.44,11.15c-.24.92-.33,1.91-.49,2.88.16,1.13-.66,2.07-.44,3.29a4.78,4.78,0,0,1,1.88-1.86,14.21,14.21,0,0,0,4.15-3.67c.75-.84,1.48-3,2.77-1.12.93,1.36-.15,2.28-1,3.16a22.31,22.31,0,0,0-4.24,7.61c-6.62,10.33-12.84,21-16.64,33.51-1.66,5.49-2.75,11-1.86,16.94-1.44,4.92-4.63,8.17-7.23,12a7.39,7.39,0,0,1-1.38,1.41c-1.67,1.17-3.4,1.62-5.23.61-3.46-5.33-8-9.1-12.42-13-6.19-6.09-12.32-12.28-18.64-18.16a39.69,39.69,0,0,0-4.54-4.62,2.86,2.86,0,0,1-.74-3.43c.64-1.41,1.73-1.33,2.75-.83,1.33.65,2.63,1.39,4,2,3.58,3.86,7.82,6.49,11.7,9.79a27.7,27.7,0,0,1,5,5.43c3.21,2.6,6.48,5.11,9.63,7.84,2.05,1.78,3,1.68,3.07-1.83.1-5.11.19-10.26.66-15.33,1.07-11.57-3.52-19.94-9.46-27.64-3.94-4.07-8.86-6.58-12.06-11.84l-9.41-17.17c.19-1.35-1.49-2.82,0-4,1.12-.88,1.77,1,2.71,1.34a31.08,31.08,0,0,1,2.85,1.5C313.91,153.15,317.32,154.46,317.93,157.39Z" transform="translate(-5.35 -3.65)" fill="#a5adaf"/><path d="M139.92,140.55c3.06.7,5.36-1.78,8-3a1.11,1.11,0,0,1,.88-.7c3.78-.24,7.05-2.61,10.43-4.29,9.8-4.9,19.48-10.17,29.21-15.28,5.72-3,9.44-8.63,12.57-15,.68-1.4,1.11-3,2.55-3.56a3.52,3.52,0,0,1,.75,2.26c-1.21,7.74-2.32,15.48-1.13,23.4.14,4.82,2.33,9.29,1.55,14.27-3.47,3.56-7.82,4.76-11.84,6.78-18.58,9.36-37.36,18-57.08,22.87-3.09.76-6.16,2-9.39,1.68a4.58,4.58,0,0,1-1.71-2.56c-1.51-5.82-1-11.79-.83-17.73.49-3,2-4.37,4.42-4.59,3.49-.31,6.58-2.19,9.49-4.54a2.31,2.31,0,0,1,1.11-.49A1.64,1.64,0,0,1,139.92,140.55Z" transform="translate(-5.35 -3.65)" fill="#fcc53c"/><path d="M537,370.39c-6.83.73-11.05-4.87-14.29-10.81-7.9-14.44-7.16-37.42,2.46-51,6.35-9,18-8.2,23.78,2.75a50,50,0,0,1,5.69,27.23c-.11,1.49,0,2.7,1.45,2.87.48,1.58-.76,2.43-1,3.71a25.24,25.24,0,0,1-2.94,8.34c-1.86,6.29-4.84,11.45-9.34,15.19a2.7,2.7,0,0,1-2.52.8C539.31,370.64,537.93,369.38,537,370.39Z" transform="translate(-5.35 -3.65)" fill="#4c5b60"/><path d="M435.4,370.53c-9.3-.52-15.76-6.65-18.92-17.87-3.6-12.79-3.51-25.39,1.69-37.46,3.29-7.67,7.85-13.37,15.61-12.78,7.36.55,11.7,6.62,14.23,14,5.29,15.5,5.35,30.91-2.95,45.29a17.12,17.12,0,0,1-4.85,5.74c-2.67,1.85.37,1.86.49,2.8Z" transform="translate(-5.35 -3.65)" fill="#4c5b60"/><path d="M126.45,169.53c7.3-2.11,14.64-4,21.89-6.37,17.55-5.69,34.36-14.09,51.15-22.52,1.59-.79,3.24-1.39,4.86-2.08,1.23-.43,1.7.76,2,1.76a65.05,65.05,0,0,0,11.75,21.41,3.7,3.7,0,0,1,.8,2.2c-.41,1.25-1.1,1.34-1.95.74a30.26,30.26,0,0,0-23.8-1.33c-12.51,3.91-25,7.84-37.21,13.12-4.47,1.93-9.19,2.93-13.42,5.73a24,24,0,0,1-4.29,1.44,8.74,8.74,0,0,1-4.48-.22C127.94,180.13,125.55,175.58,126.45,169.53Z" transform="translate(-5.35 -3.65)" fill="#fdaf23"/><path d="M353.18,225.78c-1.77-5.31-.6-10.43.75-15.48,3.41-12.76,9.49-23.58,15.95-34.1a2.53,2.53,0,0,1,2.35-1.54c3.64,1.2,6.87,4.46,11,3,1.89-.68,3.49,1.09,5.12,2.1,1.37.85,3.34,1.63,3.73-.52,1.11-6.2,4.93-6.77,8.76-7.66,0,2.92.05,5.83,0,8.75,0,1.92.25,3.54,1.8,4.4l-1,.9c-5.18,2.84-11,3.21-16.06,6.53C380.8,195,376.76,199.42,373,204c-5.33,6.46-11.16,12.24-16.19,19.11C355.83,224.41,354.91,226,353.18,225.78Z" transform="translate(-5.35 -3.65)" fill="#e5e5e6"/><path d="M310.33,79.6c-3.71,0-7.42-.09-11.13,0a9.37,9.37,0,0,1-5-1.25c-2.86-1.62-3.41-6.15-.7-7.94,2.88-1.88,4-4.81,5.34-8.08C301,57,314.76,50,318.46,53.13A57.42,57.42,0,0,1,330.2,66.77c3.12,5.12-1.22,12.35-7.15,12.82H310.33Z" transform="translate(-5.35 -3.65)" fill="#eee"/><path d="M469.3,181.37l-36.52-.08c1.8-.85,2.55-2.3,2.4-4.87-.2-3.8-.06-7.62-.05-11.43,0-2.93-.57-6.24,3-6.7.78-.1,1-1.13.92-1.94-.61-5.3,2.19-4.88,4.92-4.82,4.09.09,8.18.08,12.27,0,2.18,0,2.65,1.45,3.72,3.72,3.31,7,1.87,14.44,2.2,21.7.12,2.51,1,3.51,3,3.58C466.53,180.59,468.06,179.94,469.3,181.37Z" transform="translate(-5.35 -3.65)" fill="#e5e6e6"/><path d="M310.13,201.67c-1.62.85-2.68-.5-3.85-1.51-.79-.69-1.74-1.15-2.28.29-.41,1.09.3,1.77,1,2.26,1.73,1.15,3.41,2.38,4.15,4.87-2.13,2.27-3.4,5.71-6.11,7.2-4.66-2.08-9.51-2.78-14.39-3.26l0,0c-2-5.39-2.44-11.25-3.24-17,.51-.95,1.63-2.42,1.44-2.77-3.06-5.73,2.06-6.67,3.52-9.68.4-.83,1.21-1.52,2.05-.94,2,1.39,3.85,2.4,5.29-1a1.25,1.25,0,0,1,1.43-.19,5.26,5.26,0,0,0,6.56,1.59c1-.41,1.59,1,1.83,2.16s.44,2.62,1.72,3c2.4.75,3.07,2.26,1.41,4.93-1,1.64-.42,2.8,1,3.36,1.88.75,1.85,2.49,1.57,4.42A2.74,2.74,0,0,1,310.13,201.67Z" transform="translate(-5.35 -3.65)" fill="#64a3fd"/><path d="M301.75,16.07c7.74.05,14.7,8.44,14.4,18.14-.35,11.63-5.58,18.4-14.69,18.5C293,52.8,287.73,46,287.12,34.86,286.55,24.58,293.66,16,301.75,16.07Z" transform="translate(-5.35 -3.65)" fill="#fab821"/><path d="M545.74,237.54c.32,1.15,1.83,1.31,1.54,3-1.15,1.51-3,.89-4.23,2.05-4.26,2.32-8.86.92-13.27,1.58-5.19.77-10.51,1-15.77,1.47-10.36.9-20.68,2.47-31,3.65-4.59.53-9.26-.05-13.78,1.44-1.34.45-2.06-.11-2.2-1.79s0-2.75,1.45-3.57c2.41-1.35,5-.86,7.42-1.28,12.11-2.07,24.26-3.77,36.4-5.59,2.25-2.21,5.08-1.56,7.58-2,3.36-.55,6.76-1.12,10.17-1.34,1.93-.07,3.89.27,5.8-.39a2.39,2.39,0,0,1,2.46.56l4.34.2c1-.48,1.57.48,2.26,1Z" transform="translate(-5.35 -3.65)" fill="#017bfb"/><path d="M159.15,254.6a72.58,72.58,0,0,1-6.47,14.92c-2.6-.81-2-3.61-2-5.69-.18-6.8-.21-13.63,0-20.43.17-6-1-11.91-.59-17.89,4.65-9.53,4.59-19.12.61-29-1.24-3.08-.92-6.76-.35-10.2a13.38,13.38,0,0,1,6.65-7.42c1.47-.66,2.48-2.29,3.94-3a2.12,2.12,0,0,1,2.28.51c1.6,3.73-.59,6.24-1.83,9.07a25.52,25.52,0,0,0-1.67,3.05,16.65,16.65,0,0,0-.36,4.68C159.47,213.65,159.8,234.13,159.15,254.6Z" transform="translate(-5.35 -3.65)" fill="#f9ada6"/><path d="M337.23,371.35c-3.74-1.33-7.64-2-10.86-5.25-4-4-6.32-9.31-7.93-15.19-.8-2.93.28-4.32,2.72-4.47a14,14,0,0,1,11.7,5c1.47,1.64,3.22,4.23,5.11,2.4,5-4.79,8.81-.58,13,1.74C347.68,362.63,344,369.15,337.23,371.35Z" transform="translate(-5.35 -3.65)" fill="#34454c"/><path d="M463.75,371.34c-3.89-1.44-7.85-2.6-11.14-5.87a12.71,12.71,0,0,1-2.45-3.17c-2.27-4.27-1.91-4.81,2-6,4.46-1.34,8.72-3.5,13.49-3.06,2,.18,3.27-2.26,4.14-4.21,1.51-3.37,3.86-4.5,6.57-4.55,6.48-.12,13,0,19.43.07-.64,2.49-2.39,2.15-3.86,2.26a58.13,58.13,0,0,1-6.6,0c-3.24-.87-5,1.36-6.32,4.67-3,8.49-6.69,16.13-14.08,19.59A4.34,4.34,0,0,1,463.75,371.34Z" transform="translate(-5.35 -3.65)" fill="#34454b"/><path d="M261.64,331.4l13.54,0c2.38-2.13,5.09-1.25,7.7-1.34a30.56,30.56,0,0,1,6.82.31c2.67,1.09,2.95,4.82,4.76,6.86a6.9,6.9,0,0,1,.2,2.4c-.12,5.79.06,6,4.51,4.63.73,3.09,1.47,6.18,2.2,9.27-1.13-1.48-2.6-1.26-4.06-1.36-11-.76-21.93-.65-32.89-.51-3.16,0-4.69-1-4.4-5.33.24-3.63,0-7.3.05-11C260.07,333.71,259.79,331.88,261.64,331.4Z" transform="translate(-5.35 -3.65)" fill="#929a9d"/><path d="M159.15,254.6c-1.32-1.2-.92-3-.92-4.57q0-29.29,0-58.6c1.05-.19,2.13-.26,2.79-1.54,1.38-1.39,2.22-3.84,4.45-3.53a7.71,7.71,0,0,1,1.81,4.93c-.67,1.32-.63,2.12.88,1.85a2.46,2.46,0,0,1,1,2.28c-.21,1.88-1.21,3.4-1.54,5.22a16.84,16.84,0,0,0-.22,6.17c-.22,2.93-1.73,5.05-2.91,7.38a119.29,119.29,0,0,0-.16,18.9c.11,2.47.13,4.95.23,7.41A68.86,68.86,0,0,1,159.15,254.6Z" transform="translate(-5.35 -3.65)" fill="#faa9a2"/><path d="M420.43,66.6c-2.39,0-4.77,0-7.15,0a3.38,3.38,0,0,1-3.4-2.81c-.51-1.82,1.16-2.34,1.61-3.48,2.18-5.46,5.73-8.36,10.25-9.79.25-.08.47-.31.72-.42,3.58-1.51,11.58,6.72,11,11.42-.42,3.68-2.62,4.81-5.13,5S423.08,66.6,420.43,66.6Z" transform="translate(-5.35 -3.65)" fill="#eee"/><path d="M205.16,98.45c-1-4.61,2.5-6,4-8.87.3-2.56,1.72-2.31,3.17-2,10,4.55,15.15,14.42,18.86,26.19,4.4,14,6.54,28.28,4.14,43.19-1.13,7-5,10.54-10.34,10.54-1.49-.85-3.39-.9-4.09-3.3a2,2,0,0,1,1.71-1.65c2.13-.21,4.43,1.33,6.38-.94A8.21,8.21,0,0,0,232,156c3.28-21-.75-40-11.35-56.35-5.66-8.75-8.74-7.88-13.47,1.66-.62.69-1.28,2-2.15.92S204.39,99.7,205.16,98.45Z" transform="translate(-5.35 -3.65)" fill="#faf9f7"/><path d="M151.07,224.58c1.09,13.9.74,27.84.78,41.78,0,1.16,0,2.35.83,3.16-1.05,2.62-3,3.87-5,5.13-1.1,0-2.3.35-3-1.16.51-11.6,1-23.19-.17-34.77-.94-2.71.18-4.85,1.5-6.63a13.73,13.73,0,0,0,2.44-6.49C149.16,224.6,149.93,223.86,151.07,224.58Z" transform="translate(-5.35 -3.65)" fill="#f9b0a9"/><path d="M552.12,353.48c.76-3.05,1.53-6.11,2.29-9.17,2,2,4.4,1.9,6.78,1.78,1.3-.06,2.76.08,3.17-2.07.39-2-.05-3.58-1.59-4.56a1.78,1.78,0,0,1-1.08-1.82c4.52,1,2.4-4.17,3.69-6.18a20.17,20.17,0,0,1,17,0l4.74,0c.83.22,1.81-.1,2.38,1q.07,9.07.13,18.14c-1.17,1.59-2.71.95-4.09,1q-14.17.09-28.35,0C555.31,351.53,553.5,351.54,552.12,353.48Z" transform="translate(-5.35 -3.65)" fill="#939a9e"/><path d="M544.89,236.55l-2.26-1L533,209.56c1.77-4.74.36-9.77.84-14.62.15-1.48-.7-4,1.2-4s1.07,2.59,1.14,4.08c.12,2.49.1,5,0,7.48-.14,4.49-.47,8.75,5,8.42,2.21-.14,3,2.4,3.07,5.36C544.37,223,543.3,229.87,544.89,236.55Z" transform="translate(-5.35 -3.65)" fill="#e5e7e7"/><path d="M164.57,240.5c-2.43-9.23-2-18.58-.78-28,3.65-.23,7.49-1.46,10.3,3C170.4,223.52,168.76,232.78,164.57,240.5Z" transform="translate(-5.35 -3.65)" fill="#faa69f"/><path d="M220.16,247.31c6.44,0,11.05,5.36,11.13,13,.08,7-6,14.9-11.31,14.67-5.13-.21-10.63-7.85-10.53-14.63C209.56,252.87,214.14,247.31,220.16,247.31Z" transform="translate(-5.35 -3.65)" fill="#efa12c"/><path d="M162.8,176.59l-2.17.1c-1.55.91-3.15,1.64-4.7,2.56-2.35.82-4.77,1.38-7,2.73a4,4,0,0,1-1.14.29c-1.85-.22-3.91,1.48-5.51-1,1.63-2.64,4.23-2.3,6.4-3.27,13.22-6,26.82-10.34,40.37-14.91,1.42-.48,2.78-1.12,4.1.21-5.42,4.16-11.73,5.25-17.57,8-1.22.56-2.5.92-3.75,1.37-1.37,1.85-3.27,2-5,2.52-.83.34-1.64.75-2.46,1.14A3.41,3.41,0,0,1,162.8,176.59Z" transform="translate(-5.35 -3.65)" fill="#ea8619"/><path d="M166.15,174.53c1.72-1.48,3.8-1.21,5.69-1.86-.47,2.73-.86,4.53,1.53,7.24a116.8,116.8,0,0,1,8,10.32,4.93,4.93,0,0,1,.53,5.46c-2.09,2.95-5.18,4-7.63,6.19a1.51,1.51,0,0,1-1-.11c-.78-1.13-1.64-2.17-2.5-3.21.12-3.47,2.43-4.91,4.15-6.8.92-1,.51-1-.22-1.19-.63-1-.64-2.27-1.13-3.29-.58-.79-1.14-.34-1.7,0s-1.29.79-2,.35a4.05,4.05,0,0,1-.5-5.23c.57-.92.38-1.38-.28-1.88a15.08,15.08,0,0,1-1.12-2.92C167.59,176.39,166.69,175.62,166.15,174.53Z" transform="translate(-5.35 -3.65)" fill="#fb9784"/><path d="M198.12,49.73c-.8,7.08-5.06,9.65-9.65,5.83-2.31-2.69-1.79-5.41-.07-8.15a21.45,21.45,0,0,1,2.42-8.18c.51-1,.84-2.79,2.25-1.87,1.16.76.8,2.15.54,3.48a37.74,37.74,0,0,0-.39,3.85C194.94,46.23,199.19,43.9,198.12,49.73Z" transform="translate(-5.35 -3.65)" fill="#7cb4d6"/><path d="M173.33,201.48a3.22,3.22,0,0,0,.76,0c3.43,1.4,6.56,3.22,7.34,8.31-1,2.69-1.84,5.47-4.9,4.67-3.83-1.4-6.9-4.27-9.59-7.87a6.3,6.3,0,0,1,0-6.18,2.55,2.55,0,0,1,2.61-.73C170.78,200.37,172.08,200.84,173.33,201.48Z" transform="translate(-5.35 -3.65)" fill="#e52926"/><path d="M540.18,81.6c-4.86,2.89-8.79-.33-12.78-3.09-.45-1.89.79-2.69,1.56-3.79l2.48-4.06,2.37,0c.37,3.68,2,.87,3.12,1,2,1,3.66-1.63,5.64-.91.08,3.18-2.48,3.38-3.86,5.46.84.23,1.8-.31,2.37.6.78,1.4,2,.73,3,1C543.82,80.71,541.31,80,540.18,81.6Z" transform="translate(-5.35 -3.65)" fill="#a9c9f9"/><path d="M187,351.74c.28-2.35.63-4.45,2.33-5.62,1.86-1.28,2.56.58,3.4,2a2.3,2.3,0,0,0,2,1.13c2.94.35,3.67,2.34,2,5.33a8.28,8.28,0,0,1-1.65,2.08c-1.69,1.56-3.63,3.82-5.63,2.31S187.44,354.27,187,351.74Z" transform="translate(-5.35 -3.65)" fill="#fa4642"/><path d="M128,28.67c-1.41,1.77-3.19.64-4.79,1-.84.69-1.79.46-2.7.46q-35.08,0-70.17,0c-.91,0-1.86.24-2.7-.47H35c4.13-2,8.53.27,12.61-1.84l5.61.06c11.08.67,22.17.09,33.26.31,1.43,0,2.9-.38,4.3.38Z" transform="translate(-5.35 -3.65)" fill="#1b273c"/><path d="M479,351.54c-.21-4.9,1.47-7.17,5.48-6.18a3.15,3.15,0,0,0,3.08,1.62c4.29,0,8.6.42,12.86-.59.47,2.06.95,4.13,1.42,6.19A176.13,176.13,0,0,0,479,351.54Z" transform="translate(-5.35 -3.65)" fill="#959c9f"/><path d="M181.43,209.79c-1.7-3.81-5-5.41-7.34-8.31,2-3.17,4.95-4.48,7.85-5.79C185.61,200.46,185.5,203.39,181.43,209.79Z" transform="translate(-5.35 -3.65)" fill="#f9433f"/><path d="M310.13,201.67l3.17-2.21c4.71,4.32,9.85,8.06,12.88,14.7.32.69.53,1.46.8,2.2-4.74-3.77-9.49-7.49-14.18-11.34C311.76,204.17,310.36,203.61,310.13,201.67Z" transform="translate(-5.35 -3.65)" fill="#dcdde9"/><path d="M370.79,351.57c2.88-3.88,12.91-6.35,16-3.74a7.58,7.58,0,0,1,2.27,4.46Z" transform="translate(-5.35 -3.65)" fill="#969da1"/><path d="M188.4,47.41c.06,2.71-1.16,5.45.07,8.15-1.94.52-4.1,3.07-5.77.18-1.44-2.51-.84-5.89-.39-8.72S185.51,44.36,188.4,47.41Z" transform="translate(-5.35 -3.65)" fill="#7bb4d6"/><path d="M272.06,169.8a203,203,0,0,1-29.45-7.89C245.55,160.46,268.87,166.66,272.06,169.8Z" transform="translate(-5.35 -3.65)" fill="#fbfbfc"/><path d="M8.54,51.16l.12,1.5c.58,13,.61,26,0,38.93V130.4H7.78V73.47c0-6.25-.08-12.51-.08-18.76C7.71,53.46,7.37,52,8.54,51.16Z" transform="translate(-5.35 -3.65)" fill="#101a31"/><path d="M470.15,132.52c-5,.85-10,.74-14.68-2.07-.68-.41-1.69-.34-1.51-1.68a1.45,1.45,0,0,1,1.57-1.19c3,0,6,0,9.06,0C466,130.08,469.44,128.83,470.15,132.52Z" transform="translate(-5.35 -3.65)" fill="#a9c6f2"/><path d="M318.82,167.56c4,4,9.21,6,12.06,11.84C324.36,180,320.14,175.82,318.82,167.56Z" transform="translate(-5.35 -3.65)" fill="#6ca6f2"/><path d="M501.94,185.48c-1.42-1.63-3.44-.62-5-1.78,3.24.26,4.53-1.6,4.23-5.67-.23-3.13-.05-6.31-.19-9.46-.05-1.21-.39-2.52.95-2.6,1.12-.06,1.53,1.2,1.54,2.44a108.07,108.07,0,0,1,0,11c-.32,3.47.81,5.14,3.23,6Z" transform="translate(-5.35 -3.65)" fill="#e7e7e8"/><path d="M166.94,206.59c3.61,1.83,6.42,5.21,9.59,7.88l-2.44,1c-3.16-2.5-7-1.45-10.3-3C165.71,211.28,165.92,208.59,166.94,206.59Z" transform="translate(-5.35 -3.65)" fill="#fb9684"/><path d="M541.08,76.78c-1.36.49-2.7,1.32-4.41.46,1.15-3.43,4.52-3.64,5.9-6.52,1.94-.22,3.77-1.69,6.06-.76A14.51,14.51,0,0,1,541.08,76.78Z" transform="translate(-5.35 -3.65)" fill="#8ca6d0"/><path d="M205.16,98.45l.29,3.23,1.14-1.13c1.65,1.75.72,3.93.64,6-.16,4.22-.89,8.57,2,12a31.51,31.51,0,0,1-4.55,4,5.85,5.85,0,0,1-1.32-3.56c-.53-6.14.33-12.25.28-18.39l-.09-1.9Z" transform="translate(-5.35 -3.65)" fill="#f5e7d5"/><path d="M90.77,28.55l-35.34.11a2.43,2.43,0,0,1-2.22-.8q17.85.08,35.69.16A7.73,7.73,0,0,1,90.77,28.55Z" transform="translate(-5.35 -3.65)" fill="#292d40"/><path d="M470.15,132.52c-1.49-2.28-5.21-.56-5.56-4.89,2.32.49,4.15-1.83,7.06-2-4,5-.07,4.66,2.24,5.79C472.56,133,471.3,132.49,470.15,132.52Z" transform="translate(-5.35 -3.65)" fill="#9aafd0"/><path d="M540.18,81.6c.68-2.28,2.85-2.16,3.91-3.83,1.9-.2,3.71-1.56,5.7-.68-.63,2.74-1.89,4.06-4.25,3.57-1.59-.34-3.09.47-4.56,1.17Z" transform="translate(-5.35 -3.65)" fill="#94a9cb"/><path d="M116,379.63h-4.7l-6.43-.08a5.66,5.66,0,0,1-.72-.28c0-.78.28-1.29.88-1.27,4.45.15,8.92-.58,13.35.38,2.91.49,5.93-.89,8.75.87a3.23,3.23,0,0,1-.72.3Z" transform="translate(-5.35 -3.65)" fill="#0b152c"/><path d="M148.75,136.81l-.88.7-.78-3c.82-1.78.21-3.73.4-5.59.23-4.29-.31-8.55-.29-12.84.19-.91.53-1.62,1.38-1.68l.12.24A190.67,190.67,0,0,0,148.75,136.81Z" transform="translate(-5.35 -3.65)" fill="#32374d"/><path d="M536.93,71.63c-.09.1-.23.18-.28.31-.61,1.57-1.31,3.86-2.81,3.17-2.07-1,.34-2.93,0-4.47C535,70.1,536.63,67.62,536.93,71.63Z" transform="translate(-5.35 -3.65)" fill="#7f9dd0"/><path d="M319,372.17a27,27,0,0,1,14.21.09Z" transform="translate(-5.35 -3.65)" fill="#020508"/><path d="M446.29,372.25a26.19,26.19,0,0,1,14.24,0C455.78,372.45,451,372.9,446.29,372.25Z" transform="translate(-5.35 -3.65)" fill="#020407"/><path d="M212.31,87.58l-3.17,2-1.83-.52c.36-1.66,1.74-1.86,2.61-2.77C211.09,85.07,211.78,86.33,212.31,87.58Z" transform="translate(-5.35 -3.65)" fill="#e3e2eb"/><path d="M198.12,49.73c.21-4.51-3.61-2.83-4.9-5C198.84,44.73,199.12,45,198.12,49.73Z" transform="translate(-5.35 -3.65)" fill="#afbad4"/><path d="M521.89,372.26a11.66,11.66,0,0,1,9.47,0Z" transform="translate(-5.35 -3.65)" fill="#000204"/><path d="M221.15,164.46c1.58.41,2.7,1.73,3.82,3-1.67.58-3.3.81-4.71-.87a3.53,3.53,0,0,1,.28-1.51A1.38,1.38,0,0,1,221.15,164.46Z" transform="translate(-5.35 -3.65)" fill="#ebdecc"/><path d="M418.45,372.27a11.54,11.54,0,0,1,9.47,0Z" transform="translate(-5.35 -3.65)" fill="#010306"/><path d="M7.18,169.6a19.63,19.63,0,0,1,0,10.88C7.17,176.85,7.18,173.23,7.18,169.6Z" transform="translate(-5.35 -3.65)" fill="#000106"/><path d="M221.07,165.55l-.81,1.09a3.81,3.81,0,0,1-3.3-2c.65-.14,1.34-.19,1.7-1.08a.83.83,0,0,1-.23-.78c.07-.27.14-.4.21-.4C220.67,162,220.39,164.35,221.07,165.55Z" transform="translate(-5.35 -3.65)" fill="#ecad43"/><path d="M354.3,47.09a3.07,3.07,0,0,1,.89,3.86C353.7,50.19,353.9,48.88,354.3,47.09Z" transform="translate(-5.35 -3.65)" fill="#fbf9ed"/><path d="M355.32,54.94c1.23.46,1.81,1.76,1.16,2.58-1.07,1.35-1-.65-1.35-1.26C355,56,355.23,55.45,355.32,54.94Z" transform="translate(-5.35 -3.65)" fill="#f7eec6"/><path d="M537,370.39c.91-1.38,2.15-.87,3.3-.92-.2,1.18-.73,1.86-1.74,1.78Z" transform="translate(-5.35 -3.65)" fill="#36474d"/><path d="M118,330.26c.85,4.28,2.54,8.36,2,13-4.33,3.06-8.9,1.65-13.36.92-2-.33-1.73-3.3-2.71-6.45-.12,6.65-3.05,7.47-6.54,7.11-3.88-.4-7.89,1.14-11.65-1.15l-14.27-.22c-1.53-1.27-1.38-3.67-2.28-5.57-.61,1.91.51,4.06-.88,5.56a179.41,179.41,0,0,1-26.23-.2c0-.6.06-1.2.1-1.8,1-1.37,1.16-2.66-.22-3.82-1.18-1.94-.82-4.09-.55-6.23,3.81-2.69,8.1-3.14,12.26-3.5,9.62-.83,19.14-3.19,28.84-3,8.49.18,16.87,1.92,25.33,2.36a27.24,27.24,0,0,0,7,1.41C116.1,328.75,117.27,328.77,118,330.26Z" transform="translate(-5.35 -3.65)" fill="#fcc63c"/><path d="M38.33,250.61c-3,8.35-9.09,11.41-15.52,13.73-2.45.88-4.24-1.09-6.09-2.63-6-13.32-6-26.86-1-40.63a32.89,32.89,0,0,0,1-4.78c3.69-10.68,7.84-21.09,10.89-32.12,1.22-4.41,2.15-8.92,3.33-13.33.84-3.12-.76-5.85-.66-8.82a2.28,2.28,0,0,1,1-1.73c1.22-.08,2.06,1,3,1.59a4.9,4.9,0,0,0,3.8,1.44c1.72,0,3.08-1.08,4.42-2.26a26,26,0,0,0,3.3-3,18.73,18.73,0,0,0,3.85-4.16,18.16,18.16,0,0,0,3.49-6.55c1.08-2.61.72-6,2.83-8.06a1.33,1.33,0,0,1,1,1c.23,3.17.68,6.36-.55,9.4.35,3.52-2.35,5.22-3.08,8.09-.1,2.84-1.82,4.08-3.4,5.46-1.22.59-2.56.6-3.79,1.16a6.16,6.16,0,0,0-3.44,3c-1.75,2.81-3.91,3.64-6.79,1.54,1.74,2.11,3.87,1.51,5.55,2.59.83,2.34-.51,4.06-1.09,6-.62,1.41-1.18,2.86-1.73,4.31-1,2.41-2,4.87-2.93,7.35A84.42,84.42,0,0,0,32.56,198a76.93,76.93,0,0,0-3.26,8.88c-1.07,3-2.18,6-3.1,9.16-1.38,3.16-2,6.67-3.14,10-.94,2.6-1.56,5.35-2.27,8.05s-1.61,5.48-2.12,8.33-.37,5.54,2.07,7.08c1.76,1.3,3.49.14,5.22-.12a12.66,12.66,0,0,0,3.2-.66c1-.36,2.08-.78,3.12-1.13a30.12,30.12,0,0,0,3.13-1,6.59,6.59,0,0,1,2.7-.66,1.73,1.73,0,0,1,1,.69A5.27,5.27,0,0,1,38.33,250.61Z" transform="translate(-5.35 -3.65)" fill="#fc9684"/><path d="M137.67,308.4c-.06-11.41-.37-22.84,0-34.24a19.09,19.09,0,0,0-3.86-12.84c-.81-1.06-1.76-2.05-1.86-3.69a21.08,21.08,0,0,1-1.19-7.73c0-8.79,0-17.57,0-26.35.25-4.7,3.06-6.9,5.79-9,1.36-1.06,2.77-.84,3.35,1.54-.29,8.3-.84,16.61.29,24.88.11,5.18-2.57,10.19-.56,15.48.79,4.1,1.25,8.2-.14,12.27-1.58,2.77,0,5.7-.25,8.58-.3,3.76-.07,7.58-.07,11.38-.46,6.26.95,12.64-.81,18.82Z" transform="translate(-5.35 -3.65)" fill="#f7b8b1"/><path d="M139.08,268.64c-.19-4.08.71-8.26-.73-12.22.45-5.57,2.09-10.69,3.8-15.77.48-1.41.74-3.29,2.51-3.15,1.66.92,1.63,2.75,1.63,4.61q0,13.38,0,26.75c0,1.86.05,3.7-1.61,4.63l-5.51-4.09c-.25-.13-.35-.28-.29-.46S139,268.64,139.08,268.64Z" transform="translate(-5.35 -3.65)" fill="#f8b4ad"/><path d="M80.31,353.6c6.15,3,7.26,12.71.72,16.83a4.35,4.35,0,0,1-3.94.15c-2.91-.73-4.62-2.83-4.88-6.64-.33-4.86.93-8.56,4.79-10.36A10.81,10.81,0,0,1,80.31,353.6Z" transform="translate(-5.35 -3.65)" fill="#f8f9f6"/><path d="M59.6,44.38c-.49-2.81-.05-4.24,2.7-4.2,11.65.19,23.3.15,35,.07,2.38,0,3.63.73,2.81,4-1.4,2-3.31,1.09-5,1.36-10.18,0-20.36,0-30.54,0C62.82,45.59,61,46.09,59.6,44.38Z" transform="translate(-5.35 -3.65)" fill="#eee"/><path d="M80.15,53.67c-11.1-1-22.22-.29-33.33-.38-5.27,0-10.59-.82-15.83.7.23-3.66,2.51-2.3,3.95-2.31,19.87-.08,39.74,0,59.6,0,.2,1.54-.7,1.34-1.43,1.46-1.37.23-2.81-.5-4.12.51Z" transform="translate(-5.35 -3.65)" fill="#191d30"/><path d="M118.39,378.38c-4.73.6-9.55-1.07-14.23.89l-6.48-.06a169.16,169.16,0,0,0-23,0c-14.81,0-29.62,0-44.43,0a17.24,17.24,0,0,1-3.47-.75c.4-.66.91-.57,1.44-.35l16.34,0a41.9,41.9,0,0,1,10,0,26.48,26.48,0,0,1,4.27-.73q28.09-.07,56.19,0C116.21,377.45,117.48,377,118.39,378.38Z" transform="translate(-5.35 -3.65)" fill="#32374e"/><path d="M17.29,128.29c-1.49-3.64-3-7.26-4.47-10.94-.48-1.25-1.64-2.57-.62-4,1.22-1.75,2.37-.07,3.52.48a2.83,2.83,0,0,1,.83.42c.57.37,1.18.62,1.76,1a6,6,0,0,1,2.68,5c-.47,3.44.46,7.24-1.61,10.29-.91.81-1.55.24-2.13-.66A1.75,1.75,0,0,1,17.29,128.29Z" transform="translate(-5.35 -3.65)" fill="#efb6b0"/><path d="M47.62,29.64h75.57c-1,1.52-2.45,1-3.71,1q-34.08,0-68.14,0C50.07,30.61,48.66,31.17,47.62,29.64Z" transform="translate(-5.35 -3.65)" fill="#2c3448"/><path d="M16.66,98.57c1.86,2.93,5.16,4,6.35,7.8,1.29,3.52,1.62,7,.09,10.61-1.47,1.82-2.3.25-3.12-1-1.08-1.65-1.76-3.64-2.73-5.38a7.46,7.46,0,0,1-.81-4C16.4,103.94,15.19,101.2,16.66,98.57Z" transform="translate(-5.35 -3.65)" fill="#efb3ad"/><path d="M17.29,128.29l.24,1.49c.72,2.24,1.62,4.25,3.76,4.7.81,3-.76,5.35-1.26,8-1.67.84-2.39-1.14-3.53-1.88-2.29-2-3.86-4.81-5.55-7.5-.73-1.16-1.24-2.41-.24-3.4.78-.77,1.6.11,2.37.89C16.41,134,16.44,133.94,17.29,128.29Z" transform="translate(-5.35 -3.65)" fill="#efb5ae"/><path d="M148.58,114.4l-.9,1.36q-.9,0-1-1.11c.19-12-.51-24,.35-36,.24-.83.5-2.47,1.3-.87.55,1.1.27,2.89.27,4.37C148.64,92.88,148.6,103.64,148.58,114.4Z" transform="translate(-5.35 -3.65)" fill="#222c42"/><path d="M85.74,343.67c4.47-.08,8.93-.27,13.4-.21,2.15,0,3.6-.37,3.44-3.68a12.72,12.72,0,0,1,.64-3.33c.22-1,.47-2,1.54-1.69.78.23,1,1.16.88,2-1.12,7.25,2.57,7.09,6.48,6.79,2.62-.2,5.25-.19,7.88-.27.18.24.35.49.52.74-1,2.25-2.81,1.4-4.28,1.42-7.9.09-15.81,0-23.71,0-2.19-.37-4.56.9-6.6-1.05A5.42,5.42,0,0,1,85.74,343.67Z" transform="translate(-5.35 -3.65)" fill="#df8e21"/><path d="M139,102.39l0-18.67q.12-6,.25-12a.37.37,0,0,1,.26-.24c.12,0,.24.1.36.15.71,1.9.34,3.92.34,5.87q.06,25.34,0,50.66c0,1.8.33,3.65-.34,5.38l0,7-.79-.22C138.43,127.69,138.59,115,139,102.39Z" transform="translate(-5.35 -3.65)" fill="#0e1323"/><path d="M16.5,140.59c1.43-.22,2.15,1.4,3.26,2,1.56.76,2.57,1.85,1.58,4.13L18,143.2c-1.14,1.3-.58,2.87-.59,4.22-.09,14.53-.11,29.06-.18,43.59,0,1.45.35,3-.48,4.31-1.58-1.61-.74-3.86-1-5.83v-3.65c.48-8.74.08-17.52.8-26.25A154.42,154.42,0,0,0,16.5,140.59Z" transform="translate(-5.35 -3.65)" fill="#f8a99b"/><path d="M140,133.54q0-30.94,0-61.91c1,1,.77,2.38.77,3.67q0,27.28,0,54.57C140.71,131.16,140.93,132.56,140,133.54Z" transform="translate(-5.35 -3.65)" fill="#2b3448"/><path d="M89,53.61c1.5-2.25,4.06.27,5.55-2h25.34A166.75,166.75,0,0,1,89,53.61Z" transform="translate(-5.35 -3.65)" fill="#17253a"/><path d="M99.33,45.68c-.8,1.2-1.9.94-2.93.94q-16.56,0-33.13,0c-1,0-2.14.26-2.92-1,4.54-1.1,9.12-.38,13.68-.47,7-.14,13.91,0,20.86,0C96.37,45.37,97.92,44.62,99.33,45.68Z" transform="translate(-5.35 -3.65)" fill="#2b3549"/><path d="M123.21,345.48c-.79,1.21-1.89,1-2.93,1H87.93c-1,0-2.14.25-2.91-1,2.44-1.06,5-.23,7.44-.5,9,0,17.92,0,26.89,0C120.63,345,122,344.53,123.21,345.48Z" transform="translate(-5.35 -3.65)" fill="#2b3446"/><path d="M95.35,45.57l-35,.08-.75-1.27,35.76.31c.26.2.35.4.26.59S95.44,45.57,95.35,45.57Z" transform="translate(-5.35 -3.65)" fill="#0c0f1a"/><path d="M147.07,78.62l0,37a7.29,7.29,0,0,1,0,5c-.87-.81-.81-2-.81-3.15V81.78C146.28,80.63,146.21,79.44,147.07,78.62Z" transform="translate(-5.35 -3.65)" fill="#293249"/><path d="M8.63,91.59q0-19.47,0-38.93a3.46,3.46,0,0,1,.77,2.66V88.94A3.42,3.42,0,0,1,8.63,91.59Z" transform="translate(-5.35 -3.65)" fill="#2f354b"/><path d="M123.21,345.48l-31-.06c-.28-.23-.36-.44-.26-.64s.2-.29.3-.29c8,0,16,0,24-.07,1.43,0,2.87-.29,4.3-.44l2.66.56C123.21,344.85,123.22,345.17,123.21,345.48Z" transform="translate(-5.35 -3.65)" fill="#1f161b"/><path d="M92.23,344.49a5.79,5.79,0,0,0,0,.93l-7.17,0H63.67v-1.07H85.93Z" transform="translate(-5.35 -3.65)" fill="#1d242e"/><path d="M139.18,271.5c1.14,1.33.71,3.08.72,4.67q.06,13.33,0,26.68c0,1.57.44,3.34-.79,4.61-.83-6.29-.16-12.63-.37-18.94C139,282.85,138.22,277.14,139.18,271.5Z" transform="translate(-5.35 -3.65)" fill="#293449"/><path d="M15.89,293.43c.43,10.33.3,20.65.06,31a2.8,2.8,0,0,1-.95-2.53V296A3.21,3.21,0,0,1,15.89,293.43Z" transform="translate(-5.35 -3.65)" fill="#151d32"/><path d="M68.31,343.44c-.24-1.78-.5-3.55-.7-5.34-.14-1.27.07-2.38,1.3-2.52s1.63.65,1.77,2c.2,1.95.52,3.89.79,5.83Z" transform="translate(-5.35 -3.65)" fill="#f8b127"/><path d="M16.59,159.59l-.11,26.84c-2.23-2.72-.87-5.87-.69-8.88C16.26,171.58,14.8,165.47,16.59,159.59Z" transform="translate(-5.35 -3.65)" fill="#151f37"/><path d="M15.79,177.55c.35,2.94-.76,6.07.69,8.88v3.28c-.7,1.85,0,3.88-.47,5.75a.63.63,0,0,1-1,.08C15.44,189.56,14,183.44,15.79,177.55Z" transform="translate(-5.35 -3.65)" fill="#2c324e"/><path d="M139.18,271.5q-.06,8.46-.11,16.92c-.24.52-.48.49-.72,0,0-5.62-.09-11.24-.07-16.87,0-1-.5-2.39.8-2.91a4.78,4.78,0,0,0,.09.76C139.17,270.1,139.17,270.8,139.18,271.5Z" transform="translate(-5.35 -3.65)" fill="#07081e"/><path d="M15,195.54h.7c.63.73.43,1.7.47,2.59-.19,5.79.41,11.61-.35,17.38-1.78-4.7-.42-9.69-.8-14.52C14.87,199.19,15,197.36,15,195.54Z" transform="translate(-5.35 -3.65)" fill="#343946"/><path d="M138.35,288.42a3.47,3.47,0,0,0,.72,0q0,9.52,0,19h-.8A172.94,172.94,0,0,1,138.35,288.42Z" transform="translate(-5.35 -3.65)" fill="#122137"/><path d="M15.82,215.51l0-18c.2-.42.4-.44.61,0q0,9,0,18Z" transform="translate(-5.35 -3.65)" fill="#0e101b"/><path d="M147.09,120.58v-5a1,1,0,0,1,.59.14q0,6.87-.05,13.74l-.53.06Z" transform="translate(-5.35 -3.65)" fill="#0d1026"/><path d="M54.61,378.19h-10A13.93,13.93,0,0,1,54.61,378.19Z" transform="translate(-5.35 -3.65)" fill="#1f2b3f"/><path d="M16.44,106.64l.84,1.58c-.88,2,1.89,5.27-1.48,6.3a6,6,0,0,1-.08-.73C16.11,111.43,15.14,108.85,16.44,106.64Z" transform="translate(-5.35 -3.65)" fill="#1f2535"/><path d="M80.31,353.6a3,3,0,0,1-3.31,0C78.11,352,79.21,352,80.31,353.6Z" transform="translate(-5.35 -3.65)" fill="#111726"/><path d="M28.26,378.15l-1.44.35L23,378.13A4.6,4.6,0,0,1,28.26,378.15Z" transform="translate(-5.35 -3.65)" fill="#191e32"/><path d="M95.35,45.57c0-.29,0-.59,0-.88l4.7-.43c-.24.47-.49.94-.73,1.42Z" transform="translate(-5.35 -3.65)" fill="#0f1426"/><path d="M147.1,129.56a2.33,2.33,0,0,0,.53-.06c0,1.7.77,3.54-.54,5C147.09,132.86,147.1,131.21,147.1,129.56Z" transform="translate(-5.35 -3.65)" fill="#161b32"/><path d="M77.09,370.58l3.94-.15C79.75,371.93,78.43,371.88,77.09,370.58Z" transform="translate(-5.35 -3.65)" fill="#0d1320"/><path d="M74.72,379.24a67.06,67.06,0,0,1,23,0Z" transform="translate(-5.35 -3.65)" fill="#0d1027"/><path d="M294.18,337.85c-2.63-.9-2.52-4.32-3.77-6.48-2.25-3.66-2.28-8.29-3.46-12.42.2-5.49-.8-11,.15-16.48l3.91-5.24c1.59-1.22,3.09-.22,4.62.3a6.71,6.71,0,0,1,1.13.58c5,3.51,10.32,5.52,16.13,5q19,0,38,0c12.8.84,24.86-4.39,37.21-7.21a7.63,7.63,0,0,1,1.2-.39c4-.45,7.24-3.15,10.46-5.86,3.24-1.18,5.39-5.46,9.17-5.15,8.51-3.06,17-2.49,25.54.25a59.73,59.73,0,0,0-14.34,3.5c-8.33,3.23-15.69,8.63-22.83,14.65a14.79,14.79,0,0,0-4.55,7.88c-1.94,7.39-4.19,14.65-6.31,22-.9,3.09-2.33,4.84-5.27,4.79-9.39-.19-18.78,0-28.17-.11a28.13,28.13,0,0,1-4.67-.85,88.66,88.66,0,0,1-5.76-13c-1.42-3.71-3.63-5.45-6.92-5.4-6.75.1-13.5.15-20.25,0-3.05-.07-4.73,1.42-5.17,5.21-.17,1.48-.5,2.92-.75,4.38-1.8,10.52-1.8,10.52-10.38,10.92C297.31,339.89,295.71,339.23,294.18,337.85Z" transform="translate(-5.35 -3.65)" fill="#007bfc"/><path d="M509.75,237.44l-7-.05a2.72,2.72,0,0,1-.44-2.31c2.46-9.58,5.39-19,8.64-28.17,2.92-1.29,5.86-1,8.82-.28a3.55,3.55,0,0,1,1.59,1.53c.88,2.46,1,5.14,1.46,7.74a19.18,19.18,0,0,0,.46,3.64c.41,1.83.17,3.83.91,5.58a7.63,7.63,0,0,1,.59,3.62c-.88,2.38,1,5.27-.89,7.47C519.27,238.09,514.47,237,509.75,237.44Z" transform="translate(-5.35 -3.65)" fill="#b6b7bb"/><path d="M464,193.39c.72-2.26,2.37-2.49,3.93-2.66q9-1,18.09-1.82c2.24-.2,4.38.12,4.49,3.84.25,8.57,1.75,17.07,1,25.7-2.84,2.5-5.91,1.59-9,1-1.33-.79-1.74-2.19-1.82-4-.33-7.36-.35-7.36-5.83-9.52-.09-.12-.24-.24-.25-.38-.49-6.66-3.11-10.49-8.7-10.58A2.38,2.38,0,0,1,464,193.39Z" transform="translate(-5.35 -3.65)" fill="#bbc0c3"/><path d="M495,216.63c-.57-7.55-1.07-15.11-1.73-22.65-.33-3.77.47-5.81,3.82-5.12,4.77,1,9.7-.17,14.42,1.64.74,4.06-1.27,7.26-2.27,10.73-.76,2.64-.67,4.73,1,6.63-.45,4.78-3.1,7.92-5.54,11C502.43,221.76,496.55,220.16,495,216.63Z" transform="translate(-5.35 -3.65)" fill="#bbc0c3"/><path d="M479.81,240.22c-5.33,1.12-10.65,2.65-16,.27a65,65,0,0,1-10.55-2.18c-.89-1.05-1.84-1.92-3.18-1.62a5.54,5.54,0,0,1-2-3.4c.25-3.57,2.2-6,3.82-8.58,2.6-2.58,5.44-3.29,8.57-1.71,1.05,1.07,1.15,2.69,1.51,4.16.55,2.48-.54,4.72-.8,7.63,1.27-3,1.29-6.29,3.18-8.35,4,3.22,6.38-1.9,9.55-3,3.72.11,7.25.81,8.83,5.83A11.24,11.24,0,0,1,479.81,240.22Z" transform="translate(-5.35 -3.65)" fill="#4b5b60"/><path d="M522,288c-11.06,9-16.71,22.43-20.43,37.48-.87,3.53-2.28,5.13-5.37,5.08q-15.71-.28-31.4,0c-3.15.05-4.56-1.45-5.07-5.24-1.63-12.2-5.45-23.17-12.21-32.3-1.37-1.85-3.19-3.17-5.5-5.4,7.76,2.25,10.94,9.22,14.15,16a65.8,65.8,0,0,1,5.59,18c.58,3.71,2.1,5.06,5.22,5,9.4-.27,18.81-.19,28.22,0,2.55,0,3.79-1,4.5-4.14a67.68,67.68,0,0,1,16-30.84C517.58,289.55,519.51,288.1,522,288Z" transform="translate(-5.35 -3.65)" fill="#0150ae"/><path d="M479.81,240.22c.11-.3.23-.6.35-.89,3.89-9.93,2.08-13.93-6.72-14.83-.93-.84-2.26-.79-2.94-2.15-2.13-5.54-.05-10.21,1.95-14.9.55-1.14,1.09-2.28,2.4-1.92,7.2-.35,7.88.56,6.86,9.68a6.7,6.7,0,0,0,.36,3.3c4.34,2.79,6.58,6.93,5.27,13.22-.52,2.54,1,5.24-.49,7.65C484.6,241,482.19,240.42,479.81,240.22Z" transform="translate(-5.35 -3.65)" fill="#7b8589"/><path d="M520.16,194.41c3.73,3.68,5.61,9.1,8.15,13.87A165.37,165.37,0,0,1,537.77,230c.5,1.38,1.68,2.7.65,4.47a8,8,0,0,1-3.81.94c-4.64.59-5.17.08-6-5.66-.31-2.2-.84-4.25-2.29-5.59-2.63-2.43-3.3-5.74-3.22-9.61,0-2.41.44-5-1.38-6.91a7.19,7.19,0,0,1-1.13-1.9,14.77,14.77,0,0,1-.58-4.46,14.64,14.64,0,0,0-.39-2.8,9.69,9.69,0,0,1-.19-1.42A3.87,3.87,0,0,1,520.16,194.41Z" transform="translate(-5.35 -3.65)" fill="#ced2d4"/><path d="M495,216.63c3.5,3.39,8.13,2.74,10.86-1.38,1.58-2.4,3.37-4.58,4.1-7.68a.47.47,0,0,1,.75,0c-.36,7.44-3.61,13.68-5.41,20.53-.82,3.12-1.69,6.22-2.54,9.33-6.71,1.4-6.8,1.24-7.25-7.56C495.29,225.43,494.53,221.08,495,216.63Z" transform="translate(-5.35 -3.65)" fill="#95999e"/><path d="M510.72,207.53a4.84,4.84,0,0,0-.76,0c-2.63.21-3.18-1.33-2.3-4.21,1.32-4.27,2.58-8.57,3.86-12.86,2.23.07,4.49-.19,6.6,1,1.58,1.4.85,4.11,2,5.73l.12,1.42a22.13,22.13,0,0,0,.36,4.74c-.24,1.34.62,2.88-.46,4.08Z" transform="translate(-5.35 -3.65)" fill="#ced2d3"/><path d="M451.89,225.61l-3.51,8c-1.74,1.33-3.14.41-4.46-1.07A116,116,0,0,1,457.2,203.8c.73-.08,1.21.36,1.55,1.12.76,4,.44,8.25,1.52,12.21-.21,2.3-1.81,2.69-3.08,3.42A12.66,12.66,0,0,0,451.89,225.61Z" transform="translate(-5.35 -3.65)" fill="#95999d"/><path d="M441.35,241.39c.19-1.16,0-2.53,1.06-3.24a1.16,1.16,0,0,1,1,.36c.57,3.52,3.12,4.12,5.14,5.52a4.33,4.33,0,0,1-.57,3.46c0,3.35,2,2.88,3.64,3.1,4.64.64,9.14-1.93,13.82-1,.14,1.82-1,1.66-1.78,1.93-7.16,2.49-14.39,4.2-21.86,3.09-4.59-.68-2.62-4.31-2-7.31C441.08,245.64,441.3,243.55,441.35,241.39Z" transform="translate(-5.35 -3.65)" fill="#142933"/><path d="M448,247.49c0-1.37,0-2.75,0-4.12.16-1.12-.29-2.28.1-3.4.47-1.38,1.13-2.52,2.37-2.93.77-.21,1.55-.48,2.2.38,3.72.92,7.74.18,11.12,3.07.51,4.84-1.34,6.65-5.06,7.2S451.57,249.35,448,247.49Z" transform="translate(-5.35 -3.65)" fill="#027bf8"/><path d="M582.38,331.42l-17,0c1.15-7.94,1-16,1.14-24,.87,4,.86,8.32,4.27,10.94.71.55.42,3.39.39,5.17,0,2.55.57,3.43,2.8,3C577.46,326,580.83,326.39,582.38,331.42Z" transform="translate(-5.35 -3.65)" fill="#a8c9f9"/><path d="M486.85,239.38a29.55,29.55,0,0,1-.17-10.62c.94-4.79-3-6.83-4.61-10.25l9.42-.06c.27,4.73.63,9.44.8,14.17C492.52,239.18,492.33,239.35,486.85,239.38Z" transform="translate(-5.35 -3.65)" fill="#94999d"/><path d="M474.85,205.53a2.84,2.84,0,0,0-1.63,2,3.43,3.43,0,0,1-4.81-2.1,11.28,11.28,0,0,0-7.05-6.62,1.17,1.17,0,0,1-.07-1.35,8,8,0,0,1,2.72-4.09c1,.24,2.05.51,3.08.71C474.66,195.58,475,196.1,474.85,205.53Z" transform="translate(-5.35 -3.65)" fill="#1e2f36"/><path d="M561.69,337.64c3.18.62,4.56,2.69,4,6.9-.28,2-.89,3.46-2.39,2.81-2.91-1.28-7.16,3.53-8.87-3,0-1.48,1.26-1.77,1.64-2.88,1.36-1.36,1.82-3.42,2.55-5.27Z" transform="translate(-5.35 -3.65)" fill="#a7adb1"/><path d="M522,206.48c2.37,1.08,2.39,3.5,2.27,6.07-.21,4.49-.35,8.78,3.68,11.36,1.61,1,2.07,3.76,1.84,6.18-.32,3.44.72,4.86,3.53,4.44a33.51,33.51,0,0,1,5.11,0,2.81,2.81,0,0,1-.12.82l-2.14.14c-1.78,1.15-3.68.28-5.52.55-1.84-.25-3.71.5-5.54-.19-1-2.43-.82-5.07-.87-7.67-.26-.8-.53-1.59-.79-2.39a33.62,33.62,0,0,0-.48-6.42c-.39-1.44-.3-3-.69-4.45C522.15,212.08,520.47,209.36,522,206.48Z" transform="translate(-5.35 -3.65)" fill="#aeb1b5"/><path d="M543.05,242.55c.3-4.32,2.93-1,4.23-2.05,2.2-.45,3.69,1.3,4.37,3.31,1.59,4.74,3.92,9.27,3.59,14.76C551.43,252.93,546.59,248.53,543.05,242.55Z" transform="translate(-5.35 -3.65)" fill="#b9d0f1"/><path d="M408.92,284.42c-3.09,1.66-5.52,4.86-8.84,6a2.54,2.54,0,0,1-.32-2.32c1.89-4.91,2.57-10.35,4.34-15.31a.92.92,0,0,1,0-.52C407.46,275.21,409.1,279.24,408.92,284.42Z" transform="translate(-5.35 -3.65)" fill="#7589a8"/><path d="M450.26,237.57c-.57.9-1.15,1.79-1.72,2.68-2.05.55-3.8-.38-5.48-1.72a1.28,1.28,0,0,0-.65-.38c-.33-2.23.7-3.87,1.51-5.6l4.46,1.07c.73.88,2.07,1.09,2,2.85a.73.73,0,0,1,.16.77Q450.4,237.57,450.26,237.57Z" transform="translate(-5.35 -3.65)" fill="#ecb176"/><path d="M525.34,235.29l5.26.35c.26.19.35.37.26.55s-.17.28-.26.28c-6.12.4-12.14,2.31-18.32,2-.63-1.18-1.63-.88-2.52-1,3.31-1.38,6.76-.67,10.14-1a8.83,8.83,0,0,0,4.2-1.07A.81.81,0,0,1,525.34,235.29Z" transform="translate(-5.35 -3.65)" fill="#0163d0"/><path d="M441.35,241.39c1.87,2.94.67,4.64-1.52,5.93C440.16,245.27,439.45,242.8,441.35,241.39Z" transform="translate(-5.35 -3.65)" fill="#32597a"/><path d="M461.29,197.48l.1,1.1c-.07,2.89-.74,5.29-3.24,6.16l-.95-.94C458.42,201.54,459.41,199.05,461.29,197.48Z" transform="translate(-5.35 -3.65)" fill="#364554"/><path d="M520.17,197.27c-2.69-.78-1-4-2.06-5.73,1.49.06,1.46,1.82,2.06,2.87Z" transform="translate(-5.35 -3.65)" fill="#4b5765"/><path d="M317.93,157.39c-2.35-1-3.15-3.74-4.35-6s.63-1.69,1.36-2.12c.37.18.76.32,1.11.53C320.47,152.4,320.47,152.4,317.93,157.39Z" transform="translate(-5.35 -3.65)" fill="#edf4f7"/><path d="M374.25,141.09c-.33.16-.73.55-1,.46-1.88-.54-4.48-.51-5-3s1.11-1.76,2.22-.89c.78.61,1.57,1.19,2.39,1.72C373.41,139.75,374.52,139.4,374.25,141.09Z" transform="translate(-5.35 -3.65)" fill="#d3e9f8"/><path d="M370.54,168.68c-.62,2-1.31,3.89-3.57,4.29.27-2.27.37-4.42,2.13-5.72Z" transform="translate(-5.35 -3.65)" fill="#dbe1e2"/><path d="M406.57,188.6c16.27-.06,32.55-.41,48.76,2,1.17.17,2.74-.18,3.3,1.19.64,1.56-.89,2.53-1.59,3.61-2.66,4.13-5.41,8.17-8.13,12.24-4.1,1.33-6.39,4.72-7.54,9.78s-4.62,5.88-8.05,6.75c-3.47-1.75-5.41-4.83-5.62-9.64-.31-7-.36-7-5.75-8.13-3-2.38-6-4.64-9.85-2.7-3.31,1.68-5.58,4.19-5.37,9.09a37.7,37.7,0,0,1-.13,3.83c-.79,4.08-3.65,4.86-6.21,6.1-2.31-3.21-2-7.23-2.18-11.1a30.78,30.78,0,0,1,.39-7.24c4.15-5.39,9.84-7.8,14.24-11.75-3.52-.57-6.7.93-9,5.17a2.51,2.51,0,0,1-3.17,1.32,2,2,0,0,1-.88-2.35c.32-1.11,1.55-1.18,1.76-2.43-5-1.09-5.87-.56-5.76,3.47a2.78,2.78,0,0,1-.43,2c-1.2.69-2.26.07-2.67-1.22-1.1-3.47-2.93-3-5.16-2.1-1.57.65-3.27,1.64-5,.21-.35-3.28,1.86-3.86,3.41-5.15,5.16-2.28,10.41-3.45,15.91-2.54C403.4,189.23,405.05,189.52,406.57,188.6Z" transform="translate(-5.35 -3.65)" fill="#bbc0c3"/><path d="M382.5,196.48c1-.23,2-.45,3-.7,3.23-.79,7-3.92,8.4,3.16.06.33.91.41,1.4.6,2.36,4.44.05,8.92.09,13.38a4.81,4.81,0,0,1-1,2.08A85.67,85.67,0,0,0,380,229.49c-3.94,5.09-8.16,7.92-13.69,8-5.69,1.44-11.54,1.84-17.13,4l-3.06,1c-1.09-1.88.07-3.14.89-4.3a386,386,0,0,1,31.35-39.29C379.51,197.62,380.69,196.11,382.5,196.48Z" transform="translate(-5.35 -3.65)" fill="#cfd3d4"/><path d="M389.73,296.37a1.59,1.59,0,0,1-.7.16c-5.58,1.21-11.07,3.08-16.73,3.73-1-.37-1.21-1.15-.76-2.27a24,24,0,0,1,1.65-2.78c2.17-3.89,1.94-8.19-.53-10.7s-4.48-1-6.36,1.07A9.61,9.61,0,0,0,365,296.73c.87,1.53,2.85,2.09,2.59,4.62-3.73,1.36-7.44,3.49-11.26.49-1.53-1.21-3.27-2.4-2.49-5.36,6.93-17.42,20.24-20.28,33.54-22.93,3.11-.62,6.34-.24,9.52-.33a1.78,1.78,0,0,1,.22,1.32c-.67,1.15-1.86,1.17-3,2.31,3,2.85,3.45,6.65,2.54,11C395.67,292.43,393.24,295.05,389.73,296.37Z" transform="translate(-5.35 -3.65)" fill="#bdd6fc"/><path d="M434.37,238.36c-.74,6.26-4.09,3.51-6.89,3.32-8-.54-16.05-.82-24.08-1.2-7.76-.36-15.53-.59-23.28-1.14-3.45-.24-6.74,1.79-10.2.74a3.82,3.82,0,0,1,2.95-4c6.14-2.06,12.52-.15,18.7-1.84,1.77-.49,3.61-.65,5.36-1.31,2.92.15,5.69-1,8.53-1.63a14.88,14.88,0,0,0,4.15-.76,6.35,6.35,0,0,1,3,.12c1.68.85,3.4.33,5.11.29a23.87,23.87,0,0,0,5.2.29,11.42,11.42,0,0,1,1.17,0c1.56.2,3.11-.4,4.66,0,1.4,1.12,2.81,2.2,4.14,3.43C433.82,235.48,435.23,236.25,434.37,238.36Z" transform="translate(-5.35 -3.65)" fill="#657175"/><path d="M382.5,196.48c-13.51,12.75-24.81,28.34-35.92,44.18a6.22,6.22,0,0,0-.48,1.81c-1.09-.62-.83-1.88-.9-3l.12-.63a4,4,0,0,0,.65-2.37l7.21-10.71c7.85-9.16,15.68-18.35,23.56-27.46,2.43-2.81,5-5.36,8.2-6.82.85-.52.93.06.82.91C384.67,193.76,383.59,195.12,382.5,196.48Z" transform="translate(-5.35 -3.65)" fill="#187cf0"/><path d="M327.85,249.84l-.06-24.48c4.25,2.32,7.24,6.84,11,9.95.85.7.77,2,.77,3.14a42.21,42.21,0,0,0-5.47,8.07C332.12,247.87,330.14,249.32,327.85,249.84Z" transform="translate(-5.35 -3.65)" fill="#e4e5e5"/><path d="M389.73,296.37c1.3-1.62,3.09-2.44,4.25-4.37,3.46-5.74,2.87-10.77-2.45-16.07l5.38-1.54c1.38-1.47,3.24-.93,4.76-1.83a2.42,2.42,0,0,1,2.43.21c.42,6.51-2.47,11.83-4,17.63C397.05,293.54,393.87,296.26,389.73,296.37Z" transform="translate(-5.35 -3.65)" fill="#97acce"/><path d="M433.52,223.55c4-2,7.26-4.51,8.23-10.48.74-4.55,3.46-6.35,7.16-5.45q-5.58,11.52-11.17,23a4.26,4.26,0,0,1-4-1.88C432.75,227.08,432.31,225.36,433.52,223.55Z" transform="translate(-5.35 -3.65)" fill="#95999f"/><path d="M294.27,288.42c.52-1.6.17-4.07,2.45-4,.92,1,.8,3.06,2.22,3.61a2.6,2.6,0,0,1,.71,1,10.18,10.18,0,0,1,.37,2.42c.2,2.59-.13,5.63,2.63,6.44s5,0,6.64-2.92c.6-1.06,1-2.35,2.08-2.91a1.06,1.06,0,0,1,1.05.36c.05,1,.11,2,.16,3-1.49,5.94-5.42,8.48-9.89,6.56-2.35-1-4.5-2.54-6.85-3.53h0C292.36,295.89,293.58,292.09,294.27,288.42Z" transform="translate(-5.35 -3.65)" fill="#c0d8f8"/><path d="M371.47,299.49c6,.17,11.58-3.14,17.56-3-12.35,3.5-24.47,8.85-37.44,7.36-1.08,0-1.68-.71-1.86-2,.68-1.85,2-2.95,3.13-4.28.32-.37.64-.75,1-1.11,1.45,4.7,4.59,6.14,8.13,5.78,1.83-.18,3.9-.23,5.55-1.76C368.65,299.1,370,298.69,371.47,299.49Z" transform="translate(-5.35 -3.65)" fill="#8ba8cd"/><path d="M299.07,278.45c1.71-2.2,2.45-5.45,4.82-6.92-.15,2.47,1.75,2.53,2.77,3.53,3,2.92,5.2,6.3,5.25,11.32l-.48.32c-2.27-2.18-4.58-4.23-7.69-3.53a2.62,2.62,0,0,1-1.27-1.16C301.81,280.12,300.1,279.78,299.07,278.45Z" transform="translate(-5.35 -3.65)" fill="#bdd7f9"/><path d="M372.29,236.54l-2.36,3.55-20.77,1.37c5.32-4.54,11.59-3.87,17.53-5A7.44,7.44,0,0,1,372.29,236.54Z" transform="translate(-5.35 -3.65)" fill="#909ba4"/><path d="M385.76,192.41l-.82-.91c5.13-4,10.88-5.27,16.76-5.91-.56,1.45-1,2.86,1,2.94,1.29,0,2.58.05,3.88.07-4,2-8.26.84-12.36,1.8C391.39,191.06,388.52,191.33,385.76,192.41Z" transform="translate(-5.35 -3.65)" fill="#1d7ef0"/><path d="M295.84,298.49c1.39-.22,2.55.64,3.77,1.26,6.64,3.4,8.58,2.76,13-4.29.88.52.75,1.56.81,2.5a23.9,23.9,0,0,0,.4,3.59,3.61,3.61,0,0,1-.21,1.23,2.3,2.3,0,0,1-1.74,1.2C305.83,305.25,300.71,302.45,295.84,298.49Z" transform="translate(-5.35 -3.65)" fill="#8da8cb"/><path d="M334.13,246.52a8.23,8.23,0,0,1,5.47-8.07,7.2,7.2,0,0,0,5.59-1,1.64,1.64,0,0,1,0,2.07v0A36.77,36.77,0,0,1,334.13,246.52Z" transform="translate(-5.35 -3.65)" fill="#0d66d0"/><path d="M321.34,252.49c1.64-2.68.48-5.77.8-8.64.17-1.59.42-3.19,1.95-3.08s1,1.91,1.24,3.12c.44,2.29-1.35,5.53,1.74,6.73a10,10,0,0,1-4.69,3Z" transform="translate(-5.35 -3.65)" fill="#e8eaeb"/><path d="M329.47,289.08c1.49.77,4-.72,3.62,1.94-.43,2.87-2.12,6.6-4.45,6.8-2.89.26-2.71-4.19-2.81-6.57C325.69,287.6,328.58,290.53,329.47,289.08Z" transform="translate(-5.35 -3.65)" fill="#a4cef8"/><path d="M434.33,228.46l3.41,2.18-1,2c-2.74,1.23-5.35.54-7.92-.84a9.6,9.6,0,0,1-4.77.75C425.29,227.46,429.19,225.93,434.33,228.46Z" transform="translate(-5.35 -3.65)" fill="#1b2f37"/><path d="M316.53,300.57l30.3.08a1.28,1.28,0,0,1-.51,1.51,3.75,3.75,0,0,1-1.4.56c-8.28.31-16.56.1-24.84.12a5.21,5.21,0,0,1-3.08-.7A1.34,1.34,0,0,1,316.53,300.57Z" transform="translate(-5.35 -3.65)" fill="#1d4a77"/><path d="M428.84,231.75a12.74,12.74,0,0,1,7.92.84,15.31,15.31,0,0,1-2.39,5.77C433.64,234.68,429.71,235.24,428.84,231.75Z" transform="translate(-5.35 -3.65)" fill="#7e8f9f"/><path d="M346.81,301.47c0-.27,0-.55,0-.82,2.53.57,3.43-3.87,6-3.06-.38,1.89-.9,3.63-2.71,4C349,302.76,347.9,302.65,346.81,301.47Z" transform="translate(-5.35 -3.65)" fill="#2a4157"/><path d="M316.53,300.57c0,.29,0,.58.05.88-1.06,1.26-2.13,1-3.2,0-.94-1.17-.64-2.34,0-3.5C314.39,298.93,315.2,300.25,316.53,300.57Z" transform="translate(-5.35 -3.65)" fill="#354a5f"/><path d="M401.67,272.56a6.17,6.17,0,0,1-4.76,1.83l0-1.17C398.39,272,400.06,272.64,401.67,272.56Z" transform="translate(-5.35 -3.65)" fill="#b0cffa"/><path d="M312.42,292.48l-.71,0a5.54,5.54,0,0,1-.18-5.77l.38-.31A16.46,16.46,0,0,1,312.42,292.48Z" transform="translate(-5.35 -3.65)" fill="#bcd4f4"/><path d="M500.39,346.39c-.16,1-.48,2-1.46,2-4.22,0-8.44,0-12.66.05-1.69,0-1.82-1.47-1.82-3.06,3.75-.7,7.58.65,11.3-.77C497.4,344.76,499.33,343.81,500.39,346.39Z" transform="translate(-5.35 -3.65)" fill="#9ca3a7"/><path d="M294.18,337.85l4.91.72c0,1.88.05,3.77.08,5.66-.55,3.18-2.55,2.2-4.1,2.1-2-.12-1.5-2.21-1.57-3.75A8.74,8.74,0,0,1,294.18,337.85Z" transform="translate(-5.35 -3.65)" fill="#a4acb4"/><path d="M287.1,302.47c-.51,5.72.73,11.31.82,17-1.52,4-2.58,8.37-4.81,12l-7.93-.06c.39-1.45-2.38-3,.3-4.67.94-.6-.76-2.74-1.33-4.14s-2.09-3.13-.86-4.34c1.38-1.37,2,1.34,3,2.17.51.43.95,1,1.93,2.06-.93-4.67-.64-8.58-.66-12.48,0-1.36.13-2.86,1.47-3.05s1.6,1.39,1.86,2.65a63.56,63.56,0,0,1,1.44,14.5c2.55-5.41,4.61-10.08,4-15.95C286.16,306.25,285.75,304.12,287.1,302.47Z" transform="translate(-5.35 -3.65)" fill="#abc9f9"/><path d="M288.68,211.52c-.22,2.79-.53,5.57-.64,8.36-.1,2.56-1.41,2.6-2.94,2.91-1.93.41-1.72-1.11-2-2.56-.4-2.39-.92-4.76-1.45-7.12-.24-1.09-.93-2.18,0-3.18a2.12,2.12,0,0,1,2.61-.29c1.49.62,3,1.28,4.45,1.92Z" transform="translate(-5.35 -3.65)" fill="#faba26"/><path d="M283.07,227.28c0,2.29-.11,4.59,0,6.86.2,3.12-1,3.68-3.13,3.31-3.18-.56-3.66-1.89-1.64-5.12,1.21-1.93,2.59-3.69,3.9-5.53Z" transform="translate(-5.35 -3.65)" fill="#f9bc31"/><path d="M299.07,278.45c1.73.13,3.77-.39,3.93,3a19,19,0,0,1-4.66,7.06c-1.73.25-1.73.25-1.62-4Z" transform="translate(-5.35 -3.65)" fill="#f5f9fa"/><path d="M294.27,288.42c.66,3.33-.61,7.14,1.61,10.08L291,297.23C291.86,294.16,292.52,291,294.27,288.42Z" transform="translate(-5.35 -3.65)" fill="#93accc"/><path d="M529,74.72c.17,1.71-1.08,2.5-1.56,3.79L523,77.21C524.51,73.77,526.85,74.69,529,74.72Z" transform="translate(-5.35 -3.65)" fill="#90acd3"/><path d="M345.19,239.51v-2.07l.78-.95c.44.12,1.19,0,1,.84A3.19,3.19,0,0,1,345.19,239.51Z" transform="translate(-5.35 -3.65)" fill="#007cfc"/><path d="M133.77,154.59c-1.36,0-2.15,0-3,0-.65,0-1.37,0-1.7-.91-.45-1.2.24-1.79.88-2.41a13.67,13.67,0,0,1,4.54-3c15.21-6.1,30.37-12.39,45-20.45a107.63,107.63,0,0,0,11.14-7.57c1.43-1,2.92-2.23,4.3-.34s0,3.57-.93,5.18c-5.06,8.6-12.65,12.55-20.11,16.17A147.92,147.92,0,0,1,145.61,152C141.5,153,137.36,153.8,133.77,154.59Z" transform="translate(-5.35 -3.65)" fill="#fce09a"/><path d="M118.53,156.77c1.85-3,3.47-6.26,6.17-8.26.15,6.37-.27,12.78.77,19.1-1.27,4.26-4.68,3.46-7.19,4.81C116.21,167.15,115.31,161.9,118.53,156.77Z" transform="translate(-5.35 -3.65)" fill="#fb433e"/><path d="M218.75,162.48l-.09,1.1c-5.78-5.8-9.93-13.11-12.73-21.67-.4-1.23-.64-2.54-1.58-3.35q-1.14-7-2.29-14c1.32-1.22-.23-4.49,2.21-4.92l.95,3c1.47,2.33,1.34,5.26,1.87,7.93a88.1,88.1,0,0,0,5.16,17,40.43,40.43,0,0,0,5,10.11C218.2,159,219.27,160.38,218.75,162.48Z" transform="translate(-5.35 -3.65)" fill="#eb881d"/><path d="M119.14,172.75c.32-1.05-.34-3.23,1.42-2.69,2.23.67,3.36-1.4,4.91-2.45l1,1.92c.65,6,3.06,10.52,7.45,13.24a2,2,0,0,1-1,1.45C127.91,186.47,119.6,179.55,119.14,172.75Z" transform="translate(-5.35 -3.65)" fill="#f93d26"/><path d="M204.27,119.62c-1.22,1.3-.23,4.16-2.21,4.92a60.22,60.22,0,0,1,1.54-24C205,106.83,204.09,113.26,204.27,119.62Z" transform="translate(-5.35 -3.65)" fill="#e68819"/><path d="M139,102.39l.09,37.94-.38.07-.35-.21q.07-17,.17-34C138.58,104.9,138.24,103.53,139,102.39Z" transform="translate(-5.35 -3.65)" fill="#363639"/><path d="M527.48,336.2c.3-6.39,1.31-12.11,5.38-16.24,3.2-3.23,6.59-3.29,9.75-.08,7.27,7.38,7,25.75-.51,32.72-3.41,3.17-7.88,2.28-10.92-2.27C528.41,346.17,527.67,341.16,527.48,336.2Z" transform="translate(-5.35 -3.65)" fill="#b7bcbf"/><path d="M444.59,336.49A24.37,24.37,0,0,1,441.14,350c-3.92,6.23-10.16,6.1-13.65-.47a28.19,28.19,0,0,1-.8-25.44c3.71-8.46,10.52-8.65,15-.8C443.57,326.51,444.57,331.13,444.59,336.49Z" transform="translate(-5.35 -3.65)" fill="#b7bcbf"/><path d="M119.14,172.75c3.36,8.05,8.66,11.64,14.75,10h4.27c3.36,4.6,2.92,11.07,5.07,16.28a7,7,0,0,1-.43,6.5c-1.54,2.07-3.87,1.94-5.68,3.21A37.8,37.8,0,0,0,127.6,219c-1.23,1.83-2.42,5.26-5.3,2.84-4.76-10.32-5.92-22-8.14-33.43a19.47,19.47,0,0,0-.09,3.8c.07,22.12-.71,44.23-1.11,66.33-.28,16.06,1.15,31.84,1.73,47.76a85.23,85.23,0,0,1,0,12c-.49,4.69-2.17,6.43-5.92,6-14.11-1.65-28.22-3.52-42.39-3.82-7-.15-14,.16-20.93,2.1-1.39.39-2.81,1.26-4.19-.06C43.78,307,44,291.26,43.8,275.53c2.12,1.59.68,4.11,1,6.17a47.55,47.55,0,0,1,.1,6c-.56-17.95.58-35.91-.1-53.82-.83-21.7,2.77-42.31,8.18-62.65,1.21-4.56,2.82-9,3.22-13.85,3.94-2.16,6.87-6.65,11.25-7.8,1.59,2.43,1.94,5.74,3.67,8.07a21.15,21.15,0,0,0,5.6,6.27,11.14,11.14,0,0,0,3.6,2c.8.35,1.6.66,2.4,1a7.72,7.72,0,0,0,2.5.54,9.27,9.27,0,0,1,2.08.37c1.62.61,3.09-.07,4.55-.85a7.15,7.15,0,0,0,2.46-2.24,15,15,0,0,0,3-8.21,4.47,4.47,0,0,1,2.05-3.82c3-2.15,5.86-.21,8.7.56,3.55,1,7,2.37,10.54,3.59C117.32,162.18,117,167.54,119.14,172.75Z" transform="translate(-5.35 -3.65)" fill="#7ab3d5"/><path d="M142.15,205.43c.48-1.69,1.26-3.34.48-5.22-2.28-5.5-2.89-11.66-4.47-17.44l4.13-1.45c1.94,1,4-1.28,5.91.35a4,4,0,0,1,.14,1.5,18.72,18.72,0,0,0,.47,7.6c.24,7.31.33,14.61,0,21.91-.6,2.11-.56,4.62-2.32,6C142.31,215.67,142.13,210.6,142.15,205.43Z" transform="translate(-5.35 -3.65)" fill="#263044"/><path d="M301.18,47.22c-3.81.11-7-3.41-7.8-8.17-.44-2.79.32-3.81,2.43-3.22,3.84,1.06,7.65,2.26,11.47,3.36,1.68.47,1.28,1.61.71,2.9A8.18,8.18,0,0,1,301.18,47.22Z" transform="translate(-5.35 -3.65)" fill="#fcfbf6"/><path d="M307,28.51a1.79,1.79,0,0,1,2.09,1.65,2.14,2.14,0,0,1-1.86,2.56c-1.27.2-2-.54-2-2.18C305.28,29.11,306,28.57,307,28.51Z" transform="translate(-5.35 -3.65)" fill="#593d0b"/><path d="M299.14,29.71c-1.2,1.1-2.21.75-2.94-.77a2.48,2.48,0,0,1,.32-2.68c1-1.29,1.88-.46,2.71.41A3.39,3.39,0,0,1,299.14,29.71Z" transform="translate(-5.35 -3.65)" fill="#52462d"/><path d="M299.14,29.71l.09-3C300.42,27.75,301.44,28.81,299.14,29.71Z" transform="translate(-5.35 -3.65)" fill="#daac3e"/><path d="M530.6,236.47v-.83l5.56-.19C534.5,237.45,532.45,236.12,530.6,236.47Z" transform="translate(-5.35 -3.65)" fill="#0067d8"/><path d="M168.56,177.48c1.11.68.76,1.92.75,3a2.92,2.92,0,0,1-1.55,2.07c-2.54.52-4.14,4.77-7.29,2.93.68-3,3.38-5.21,2.34-8.93l1-1A18.33,18.33,0,0,0,168.56,177.48Z" transform="translate(-5.35 -3.65)" fill="#e4302b"/><path d="M151,185.74c-1-.78-.89-2.88-2.29-3.25a.48.48,0,0,1-.34-.45c0-.23,0-.35.11-.35,1.87-3.1,4.69-2.78,7.31-3.19,1-.61,1.79-.63,1.72,1.21C154.72,180.69,153.14,183.7,151,185.74Z" transform="translate(-5.35 -3.65)" fill="#e43128"/><path d="M160.47,185.52c2.92,0,4.48-4,7.41-3.91.1,2.39-1.18,3.59-2.58,4.68l-3.86,4.31a3.65,3.65,0,0,1-2.47-3.09Z" transform="translate(-5.35 -3.65)" fill="#f54540"/><path d="M159,187.51a5.9,5.9,0,0,1,2.47,3.09c-.77,2-1.52,4.21-3.19.83C158.13,190,157.72,188.52,159,187.51Z" transform="translate(-5.35 -3.65)" fill="#d8352f"/><path d="M157.5,179.71a1.77,1.77,0,0,0-1.72-1.21,4.55,4.55,0,0,1,4.85-1.81C159.92,178.23,159,179.45,157.5,179.71Z" transform="translate(-5.35 -3.65)" fill="#dc3f28"/><path d="M272.52,349.41c-1.44,0-2.9.12-4.33,0-2.43-.23-3.32-2.11-3.36-5,0-3.08,1.23-4,3.46-3.94a64.54,64.54,0,0,0,7.49,0c2.52-.21,3.53.86,3.46,4.18s-.69,5.14-3.56,4.87c-1.05-.1-2.11,0-3.16,0Z" transform="translate(-5.35 -3.65)" fill="#a8adb2"/><path d="M280.83,341.22c-.74-4.77,1.12-6,4.64-5.83,4.82.27,5.38.92,5.69,6.23s-2.09,5.84-5.38,5.88C282.25,347.54,280.05,346.38,280.83,341.22Z" transform="translate(-5.35 -3.65)" fill="#a8adb1"/><path d="M283.11,331.43c.83-4.48,1.95-8.78,4.81-12,1.08,3.88,2.27,7.74,2.49,11.91Z" transform="translate(-5.35 -3.65)" fill="#e0e3e5"/><path d="M270.5,338.6c-1.82-.76-5.07,1.18-5.08-2,0-3.78,3.33-2.09,5.12-2s5.16-2,5.1,1.91C275.58,340.31,272.18,337.52,270.5,338.6Z" transform="translate(-5.35 -3.65)" fill="#a6acb0"/><path d="M165.3,186.29c.25-2.1,2-2.86,2.58-4.68l1.43-1.09c1.16-.62,2.21-.72,3,1.38-2.73.58-3.78,2.34-2.2,5.54-.48,2-.72,4.38-3.16,3.89A15.19,15.19,0,0,1,165.3,186.29Z" transform="translate(-5.35 -3.65)" fill="#faa49d"/><path d="M174.13,186.54c1.17,1,.69,2.59.79,4-.43,3.35-2.57,4.77-4.55,6.37-.89.17-1.45-.35-1.8-1.32a2.31,2.31,0,0,0-.78-2c.57-3.09,2.89-4.28,4.36-6.39C172.73,186.54,173.32,186,174.13,186.54Z" transform="translate(-5.35 -3.65)" fill="#faa19a"/><path d="M172.56,187.57c-1.21,2.47-3.16,4-4.77,6-1,.23-1.41,2.1-2.93,1.48-.08-1.92,1.12-2.71,2.1-3.69,1.64-.55,1.72-3.09,3.16-3.9l1.6-.93C172.48,186.26,172.78,186.61,172.56,187.57Z" transform="translate(-5.35 -3.65)" fill="#ea705d"/><path d="M168.57,195.55l1.48.93c.62.57.51,1.43.57,2.22a2.4,2.4,0,0,1-.58,2.19l-3.1-.48C166.67,198.36,167.87,197.09,168.57,195.55Z" transform="translate(-5.35 -3.65)" fill="#f99583"/><path d="M209.32,119.44c-2.82-.64-3.74-2.83-3.47-6.27.34-4.19.5-8.41.74-12.62.37-1,.72-2.1,1.13-3.12,2-5.07,6.21-6.55,9.95-3.34a26.59,26.59,0,0,1,6.82,8.91c7.07,15.2,11.36,31.32,9.26,49.22-.48,4.12-.6,8.82-4.6,10.7-1.61-1.81-1.25-4.26-1.29-6.53-.1-6.8.26-13.64-.91-20.36.68-3.95,2.22-8-.75-11.59-.95-1.45-2.28-1.57-3.64-1.57C218.18,121.52,213.49,122,209.32,119.44Z" transform="translate(-5.35 -3.65)" fill="#ec8517"/><path d="M227.44,134.58c2.45,6.75,1.38,13.92,1.59,20.93.08,2.47.08,4.94.12,7.41-2,2.92-4.18.94-6.31.48-5.4-3.57-9-8.75-9.62-16.71,3.3-5.28,7.53-9.18,12-12.78A1.83,1.83,0,0,1,227.44,134.58Z" transform="translate(-5.35 -3.65)" fill="#e1660c"/><path d="M213.87,146.55c.09,6.35,3.9,9.92,6.76,14.17a33.83,33.83,0,0,0,2.21,2.68c-.65.13-1.32.22-1.69,1.06,0,.36-.05.73-.08,1.09l-2.32-3.07c-2.29-4.73-5.74-8.53-7.14-14C212.05,147.28,212.47,146,213.87,146.55Z" transform="translate(-5.35 -3.65)" fill="#f5dcba"/><path d="M142.15,205.43l4,13.36a2.34,2.34,0,0,1,.93,1.49c.29,1.21.64,2.4.92,3.62a3.71,3.71,0,0,0,.73,1.58v0c.44,2.35,1.16,4.5-1.23,6.33a9.15,9.15,0,0,0-2.83,5.72c-2.4,4.22-3.17,9.31-4.65,14-.52,1.65-.56,3.56-1.66,4.9-1.84-5.13.52-9.91.79-14.86.56-1,.28-2.43.8-3.28,4.86-7.91,2.16-15.32-.82-22.74-2.42-1.56-3.46,1.08-4.78,2.6-1.16,1.32-2.13,2.91-3.18,4.38-2.48,4.38-4.62,9.29-9.54,10-1.36-1.13-1.53-3.1-2.12-4.77.88-2.15,1.73-4.33,3.73-5.21a51.84,51.84,0,0,0,5.42-7C132.31,210.45,136.63,206.64,142.15,205.43Z" transform="translate(-5.35 -3.65)" fill="#fc9684"/><path d="M577.78,335.46h3.56c6.32,0,8.39,3.74,6.48,11.6-.42,1.74-1.33,2.35-2.63,2.35-5.28,0-10.55,0-15.83,0-1.93,0-2.77-1.1-3-3.57-.81-9.85-.46-10.4,7.43-10.4Z" transform="translate(-5.35 -3.65)" fill="#a8adb1"/><path d="M229,260.54c0,6.42-3.84,11-9.19,10.95-4.64,0-8.31-4.85-8.32-10.95s4-11.05,8.79-11S229.05,254.34,229,260.54Z" transform="translate(-5.35 -3.65)" fill="#fab723"/><path d="M148.72,225.48l-.94-1.19a15,15,0,0,1-.65-3.22,52.69,52.69,0,0,1,.62-7.43q0-12.09,0-24.17a17.51,17.51,0,0,1,0-6.88c.13-.31.27-.62.4-.92l.27,0a2.39,2.39,0,0,1,.23.8Q148.7,204,148.72,225.48Z" transform="translate(-5.35 -3.65)" fill="#f9ada6"/><path d="M168.56,177.48c-2.16,1.67-3.69.89-4.72-1.88l2.31-1.07C167.85,174.35,168.75,175.21,168.56,177.48Z" transform="translate(-5.35 -3.65)" fill="#f69a8c"/><path d="M170.18,198.43c0-.65-.09-1.3-.13-2,1.74-1.84,3.67-3.44,4.87-6L178,189l-7.16,9.46C170.62,198.88,170.39,198.86,170.18,198.43Z" transform="translate(-5.35 -3.65)" fill="#e8715d"/><path d="M170.18,198.43a4,4,0,0,0,.69,0c1.68-.11,2.67.66,2.46,3-1.25,1.19-2.37,1.17-3.29-.6C170.09,200.07,170.14,199.25,170.18,198.43Z" transform="translate(-5.35 -3.65)" fill="#fa9a8b"/><path d="M172.56,187.57l-.84-1.06c.82-1.44,1.64-3.17,2.41,0Z" transform="translate(-5.35 -3.65)" fill="#ee7d6a"/><path d="M213.87,146.55l-2.26,2a65.83,65.83,0,0,1-6.39-25.93c-.14-4.15,2.42-2.74,4.1-3.14l14.1,2.19a4.32,4.32,0,0,1,.91,2c.25,3,0,6,1.19,8.83a3.69,3.69,0,0,1-.24,2.23Q219.58,140.62,213.87,146.55Z" transform="translate(-5.35 -3.65)" fill="#fcfcfb"/><path d="M56.16,157.36c1.76.34,1.55,1.46,1.05,3.19A312.18,312.18,0,0,0,47.43,203a109.59,109.59,0,0,0-1.34,14.24c-.18,13.63,0,27.27-.1,40.91-.08,11.08-1.36,22.1-.92,33.23-1.38-5.19.39-10.7-1.27-15.82a96.48,96.48,0,0,0-5.47-24.92,5.45,5.45,0,0,1,.76-4.09c-.52-6,1.76-11.59,1.83-17.52.74-9.13,1.73-18.22,2.38-27.36.46-8.25,2.15-16.29,2.67-24.53,1.37-4.84,1.31-10.29,4-14.57l3.36-4.79Z" transform="translate(-5.35 -3.65)" fill="#5f98c5"/><path d="M73.08,67.82l2.39,0c1.51,2.06,1.14,4.63,1.2,7.07.19,7.26-.39,14.54.55,21.76a17.62,17.62,0,0,1-.11,4.87,19.62,19.62,0,0,0,2,14,7.52,7.52,0,0,1,1,4.14c-.93,5.12.8,10.67-1.56,15.57-4,1.42-4.88-3.12-6.66-5.69A13.38,13.38,0,0,1,70.32,125c-1.07-3.75,1.06-7,1-10.61.89-3.56.42-7.21.45-10.82.08-9.73,0-19.47,0-29.2C71.86,72.1,71.65,69.7,73.08,67.82Z" transform="translate(-5.35 -3.65)" fill="#63350d"/><path d="M62.05,113.72c-2.88-2-3.88-5.26-4.12-9.12.25-1.75-.33-3.49-.06-5.25-.15-1.53.86-2.37,1.42-3.4,2.41-4.45,3.9-8.8,3-14.65-.71-4.65,1.91-8.35,5.18-10.82a4.39,4.39,0,0,1,1.12,3c.12,9.69.66,19.38-.31,29a3,3,0,0,1-1.89,2.08c-2.16.51-2.74,2.22-2.21,4.73a9.44,9.44,0,0,1,.45,2.66C64.19,113.61,63.44,114.44,62.05,113.72Z" transform="translate(-5.35 -3.65)" fill="#6b3810"/><path d="M67.39,104q0-16.76.08-33.51c1.57-1.9,3.58-2.3,5.61-2.66,0,13.23,0,26.46,0,39.68a33.11,33.11,0,0,1-.89,8.28c-3.36-1.5-2.34-6-3.92-8.79-.2-.36-.38-.73-.56-1.11A3.56,3.56,0,0,1,67.39,104Z" transform="translate(-5.35 -3.65)" fill="#66360e"/><path d="M34.08,162.58a2.56,2.56,0,0,1-2.38-2,5.45,5.45,0,0,1-.79-1.56c-.8-11.35-.32-22.72-.25-34.08,0-2.13,1.54-4,1-6.37.05-3.63-1.86-6.52-2.4-9.93-.2-2.54-1.86-5.37.92-7.31,2.77,2.21,4.25,5.61,5.43,9.29,1,15.15.31,30.32.45,45.48C36.12,158.5,36.28,161.18,34.08,162.58Z" transform="translate(-5.35 -3.65)" fill="#e6a39c"/><path d="M42.84,161.57a4.81,4.81,0,0,1-4.77,3C36.91,163,36.83,161,36.82,159c0-10.73-.09-21.45,0-32.17,0-2.49-.28-5.53,2.67-6.16l3.4,8.6C44.48,133,44.12,137,44.13,141c0,5.15,0,10.31,0,15.46A8.88,8.88,0,0,1,42.84,161.57Z" transform="translate(-5.35 -3.65)" fill="#e29b94"/><path d="M85.81,60.84c2.72-2,5.54-3.45,8.77-3,1.37.81,1.84,2.35,1.86,4,.07,6.23.53,12.48-.32,18.68-2.73,3.44-5.27,0-7.9-.37a3.73,3.73,0,0,1-2.36-3C85.47,71.74,84.71,66.29,85.81,60.84Z" transform="translate(-5.35 -3.65)" fill="#5a310b"/><path d="M39.53,120.64c-1.8,1.16-1.46,3.29-1.46,5.23q0,19.35,0,38.68c-1.54,0-3.17.31-4-2,1-2,.81-4.14.81-6.3q0-20.24,0-40.47c0-1.75-.53-3.7.74-5.2C37.06,113.88,39,116.8,39.53,120.64Z" transform="translate(-5.35 -3.65)" fill="#e49f98"/><path d="M107.13,114.81c1.4,5.93,1.07,12.08,1.07,18.1,0,3.52-1.09,7.21-4.78,7.73-2.81,1-2.67-1.86-2.77-3.74a80.69,80.69,0,0,1,.13-13.64c.11-2,3.56-3.69.41-6.09a7.88,7.88,0,0,1,0-5.27,2.31,2.31,0,0,1,1.55-1.24,3.15,3.15,0,0,1,1.84.2C106.06,111.58,106.69,113.1,107.13,114.81Z" transform="translate(-5.35 -3.65)" fill="#351b0e"/><path d="M76.41,98c-2-10-.48-20.13-.94-30.18,1.58-.45,3.35.34,4.79-1.1,1.79,1,1.79,3.06,1.86,5,.11,3.11,0,6.23.22,9.33A51.88,51.88,0,0,0,81.08,92.3a7.21,7.21,0,0,1-.37,1.4,14,14,0,0,1-3.2,4.08A1.48,1.48,0,0,1,76.41,98Z" transform="translate(-5.35 -3.65)" fill="#61340c"/><path d="M22.14,117.62c1.52-3.6.47-7.51.87-11.25,1.35,1.36,2.75,2.68,3.19,5a18.47,18.47,0,0,1,1.21,6.73c0,9.29.05,18.59-.05,27.88,0,2.42.21,5.11-2,6.55-1.57-1.08-2.2-3.17-3.28-4.79-.26-8.29-.47-16.59,0-24.88C22.53,121.1,21,119.33,22.14,117.62Z" transform="translate(-5.35 -3.65)" fill="#edaea8"/><path d="M25.36,152.49c.9-1.8.77-3.81.78-5.8q0-17.67.06-35.36C28,113,29,115.32,30,117.64a307.7,307.7,0,0,1,0,37.93c-1,2.31-2,.66-3,0Z" transform="translate(-5.35 -3.65)" fill="#eaaaa4"/><path d="M70.71,125.48c2.15,3.53,3.43,8.07,7.15,9.79,3-.43,5.41,1.82,8.18,2.4,3.41.87,6.74,2.28,10.26,2.56a3.44,3.44,0,0,1,3,1.35l-2.14,7.18a6.93,6.93,0,0,1-3.21-.42c-.85-.33-1.69-.68-2.54-1-1.32-.62-2.67-1.14-4-1.71A26.12,26.12,0,0,1,85,144.34c-.77-.43-1.58-.75-2.37-1.13s-1.83-1.11-2.73-1.7c-1-.75-2-1.61-3-2.39a41.25,41.25,0,0,1-3.35-3.93c-1-.95-1.31-2.46-2.06-3.6l-.88-3.91A2.14,2.14,0,0,1,70.71,125.48Z" transform="translate(-5.35 -3.65)" fill="#fb9683"/><path d="M55.58,139.58c.29,3.23-1.21,5.95-1.63,9-3,.58-2.54-2.47-2.67-4.45-.38-5.91.35-11.82.25-17.74-.1-4,1.7-6.92,3.62-9.64.92-1.3,2.52-2.7,2.79.87-1,1.89.13,4.16-.72,6.07l0-.08c-1.12,2.53-.15,5.32-.6,7.94C55.87,134.12,57.09,137.14,55.58,139.58Z" transform="translate(-5.35 -3.65)" fill="#d98982"/><path d="M99.26,141.58l-3.11-.18C94.47,139,95,136,95,133.26c.05-4.15-.43-8.31.13-12.45,2.37-1.67,4.55-1,6.62.89q0,7.35,0,14.71c0,1.74-.35,3.75,1.69,4.23C102.17,141.91,100.61,141,99.26,141.58Z" transform="translate(-5.35 -3.65)" fill="#5a2c19"/><path d="M95.36,81.45q0-9.18,0-18.37c0-1.82.11-3.65-.78-5.26,3.88.4,5.87,3.25,6.25,7.91.43,5.22.9,10.51-2.43,14.78-.34,1.32-1,1.94-2.16,1.76A1.63,1.63,0,0,1,95.36,81.45Z" transform="translate(-5.35 -3.65)" fill="#5d2f14"/><path d="M82,81.72c-1.79-2-.76-4.59-1-6.91-.24-2.71.43-5.56-.8-8.13a11.42,11.42,0,0,1,5.55-5.84,47.45,47.45,0,0,1,.73,13.3c-.14,2.73.66,4.32,2.45,5.44-.94,1.33-2.34,1.74-3.45,2.74C84.3,82.79,83.08,83,82,81.72Z" transform="translate(-5.35 -3.65)" fill="#5c320b"/><path d="M29.31,156.55c0-11.24,0-22.48,0-33.72,0-1.74-.51-3.66.68-5.19l1.68.92c1.5,2.57-.11,5.14-.07,7.72.17,11.09.07,22.19.07,33.28C30.11,159.55,29.27,158.61,29.31,156.55Z" transform="translate(-5.35 -3.65)" fill="#e8a69f"/><path d="M42.84,161.57l.09-32.33c1,1.35,2.11,2.69,3.17,4,1.77,8.44,2.12,16.87-.07,25.29C45.32,160.16,44.44,161.47,42.84,161.57Z" transform="translate(-5.35 -3.65)" fill="#df948e"/><path d="M46,158.57q0-12.65.07-25.29l3,2.94c3.5,5.87,2.46,12.09.91,18.35C49,156.42,48,158.3,46,158.57Z" transform="translate(-5.35 -3.65)" fill="#dc908a"/><path d="M96.15,81.76l2.25-1.25c.26,1.06.52,2.11.77,3.17.75,4.42.43,8.9.48,13.35,0,2.53.79,4.83,1.31,7.21.36,6.27.05,6.87-3.66,7-1.13-.75-1.41-2.17-1.81-3.52-.56-3.42-.4-7-.91-10.4a9.6,9.6,0,0,1,.09-1.61,15.81,15.81,0,0,0,.36-4C95.26,88.34,94.28,84.8,96.15,81.76Z" transform="translate(-5.35 -3.65)" fill="#df968f"/><path d="M71.47,131.59a5.94,5.94,0,0,1,2.4,3c2.12,4.42,1,9.31,1.25,14a67.14,67.14,0,0,1-.09,8.86c-.16,1.66.07,3.82-2,4.15a5.64,5.64,0,0,1-2.35-3.06,71.89,71.89,0,0,1,0-18Z" transform="translate(-5.35 -3.65)" fill="#f1b6b0"/><path d="M70.71,125.48l-.12,2.2c-1.65-4.14-1.12-9.86-5.55-12,.79-1.38,1.87-1.17,3-.88-2-.65-2.87-2.55-3.56-4.72-.24-1.57-.18-3,1-4.08.91-.73,2-.52,3-.64,2.58,2.71,1.14,7.73,3.81,10.38C73.28,119.39,69.29,121.78,70.71,125.48Z" transform="translate(-5.35 -3.65)" fill="#f4bdb5"/><path d="M93.77,147.56c1.18.1,2.5-.37,3.35,1.2-.4,2.29.26,3.63,2.17,3.86-1.86,4.14-.76,10-4.73,12.93a1.31,1.31,0,0,1-1.44-1.29C92.55,158.66,91.62,153,93.77,147.56Z" transform="translate(-5.35 -3.65)" fill="#d88b86"/><path d="M50,154.57c-.28-6.12.72-12.33-.9-18.35,2.54-2.61.91-6.84,2.42-9.85,1.56,5.83.57,11.87.88,17.8.08,1.66-.67,3.87,1.54,4.39C52.71,150.64,52,153.3,50,154.57Z" transform="translate(-5.35 -3.65)" fill="#da8b85"/><path d="M70.67,140.52c.78,6,1.36,12,0,18a13.48,13.48,0,0,1-3.29-9Q69,145,70.67,140.52Z" transform="translate(-5.35 -3.65)" fill="#f2bbb5"/><path d="M98.57,97.68c.25-4.66-.7-9.4.6-14,2.26,2.6,3.33,6,4.22,9.56-.62,1.67-2.4,2-2.79,4C100,98,99.38,98.4,98.57,97.68Z" transform="translate(-5.35 -3.65)" fill="#dd948e"/><path d="M98.57,97.68a1.72,1.72,0,0,0,1.65-1.18,3.86,3.86,0,0,1,4.12-1.84c.9.66.52,1.73.55,2.67-.35,1.37-1.66,1.22-2.22,2.24-.9,1.51.16,2.22.79,3.12,1.47,2.74,3.27,5.41,1.43,9l-1.63-.24c-1.46-2.34-1.91-5.32-3.13-7.8A10.81,10.81,0,0,1,98.57,97.68Z" transform="translate(-5.35 -3.65)" fill="#e26a56"/><path d="M56.36,131.58c.4-2.65-.88-5.59.9-8,.14,6.3-.15,12.61.61,18.91.28,2.4,1,5.42-1.48,7.16l0-10.09A17.81,17.81,0,0,1,56.36,131.58Z" transform="translate(-5.35 -3.65)" fill="#eb8071"/><path d="M104.89,111.67a15.86,15.86,0,0,0-2.36-9.07,2.51,2.51,0,0,1,.87-2.26c.82,0,1.36.38,1.5,1.44.94,4.29,3.31,8.2,2.23,13Z" transform="translate(-5.35 -3.65)" fill="#d38680"/><path d="M30.22,101.32c-1.18,2.26-.86,4.83-.92,7.31-.8-1.69-1.65-3.34-2.39-5.07s-1.65-3.55,0-4.83C29,97.18,29.7,99.28,30.22,101.32Z" transform="translate(-5.35 -3.65)" fill="#eaaba5"/><path d="M65.19,110.48c1,2.66,3.26,3.59,5.09,5.31-1.85.15-3.53-.71-5.24-.07l-3-2a2.46,2.46,0,0,0,2.28-2.14A1.2,1.2,0,0,1,65.19,110.48Z" transform="translate(-5.35 -3.65)" fill="#df7c69"/><path d="M104.9,101.78l-1.47-1.06c-.86-.09-1.32-.87-1.78-1.64.38-2.62,2.17-1.15,3.24-1.75A3.33,3.33,0,0,1,104.9,101.78Z" transform="translate(-5.35 -3.65)" fill="#1b1a1a"/><path d="M104.34,94.66c-1.14,1.43-2.68,1.45-4.12,1.84-.83-4,1.92-2.47,3.17-3.26C103.71,93.71,104,94.18,104.34,94.66Z" transform="translate(-5.35 -3.65)" fill="#663918"/><path d="M57.87,99.35c.55,1.74,1.68,3.47.06,5.25A5.58,5.58,0,0,1,57.87,99.35Z" transform="translate(-5.35 -3.65)" fill="#6f3c13"/><path d="M57.22,123.67c.17-2-.69-4.26.72-6.07C57.82,119.65,58.45,121.83,57.22,123.67Z" transform="translate(-5.35 -3.65)" fill="#eb8173"/><path d="M123.23,222.53c-1.17,1.82-1.7,4.36-3.73,5.21-3.15-2.13-2.79-7-4.9-10-1.26,4.45-.34,9-.52,13.55-.17,4.32,0,8.66,0,13,.12-4-.51-8.1.47-12.1,1.5,6.51.56,13.16.65,19.73.31,21.64,4.13,42.67,6.74,63.91.42,3.42.5,6.92.67,10.38.08,1.59-.15,3.06-1.86,3-4-.46-8,.32-12-.69-9.12.34-18.12-2-27.25-1.8-11.89.28-23.65,2-35.39,4.11-1.56.29-3.14.37-4.71.54-1.49-2.93-1.07-5.93-.19-8.94,9.21-3.29,18.57-3.46,28.1-3.21,9.79.26,19.5,1.45,29.24,2.25,3.42.28,7,.14,10.2,1.27,3.79,1.31,4.64-1.19,4.84-4.63.56-9.31-.79-18.54-1-27.84-.2-9.54-1.6-18.91-.81-28.66.91-11.37-.13-23,.37-34.44.58-13.45.64-26.9.69-40.35,0-1.3-.14-2.69,1.36-4C117,196.37,118.74,210,123.23,222.53Z" transform="translate(-5.35 -3.65)" fill="#5e97c5"/><path d="M42,337.62c2-1,2,1.42,2.12,2.47.24,1.66-1.1,1.2-1.9,1.35C42.11,340.16,42,338.89,42,337.62Z" transform="translate(-5.35 -3.65)" fill="#fbc431"/><path d="M121.62,232.51c4-2.08,6-7.15,9.54-10,1.12,1.13.79,2.73.79,4.17q0,15.47,0,30.94C126.93,250.26,124.74,241.08,121.62,232.51Z" transform="translate(-5.35 -3.65)" fill="#f7bbb4"/><path d="M114.56,232.23v13.24h-.86q0-13.8,0-27.59c0-.11.16-.31.23-.3a4.2,4.2,0,0,1,.66.21Q114.59,225,114.56,232.23Z" transform="translate(-5.35 -3.65)" fill="#6092bd"/><path d="M108.76,328.54c4,.23,8-1,12,.69l-2.74,1C115,329.36,111.7,330.36,108.76,328.54Z" transform="translate(-5.35 -3.65)" fill="#6189ab"/><path d="M44.32,201.52c-.25,9.42-1.59,18.69-2.39,28-1.08,2-2.13,1.78-2.94-.23a11.87,11.87,0,0,1-.44-4.39q0-19.58,0-39.15a26.46,26.46,0,0,1,1.11-8.24l1.6-5.91a1.2,1.2,0,0,1,1.36-.29c1.57,1.58,1.41,3.86,1.39,6-.07,6.63.36,13.28-.31,19.91A6.84,6.84,0,0,0,44.32,201.52Z" transform="translate(-5.35 -3.65)" fill="#de948e"/><path d="M35.68,247.49a4.48,4.48,0,0,1-3.18,1c-1.41-1.71-1.26-4-1.24-6.09.16-15-.53-29.93.45-44.88l3.19-9c2.19.56,1.92,2.85,1.93,4.71.07,16.53,0,33.07,0,49.61A7.7,7.7,0,0,1,35.68,247.49Z" transform="translate(-5.35 -3.65)" fill="#e5a19a"/><path d="M31.71,197.54c1.29,1.48.76,3.43.76,5.17.05,15.27,0,30.53,0,45.8a4.51,4.51,0,0,1-3.18,1c-1.48-1.88-1.26-4.31-1.24-6.6.12-12.13-.47-24.27.45-36.38C29,203.22,30.69,200.56,31.71,197.54Z" transform="translate(-5.35 -3.65)" fill="#e8a7a0"/><path d="M35.68,247.49q0-26.88,0-53.76c0-1.75.52-3.7-.76-5.18,1.07-2.32,1.58-5.05,3.17-7,1.2,1.7.76,3.78.77,5.71q.06,18.88,0,37.76c0,5.13.76,10.21.43,15.35-.13,2.16-.09,4.32-1.21,6.14Z" transform="translate(-5.35 -3.65)" fill="#e29b95"/><path d="M28.53,206.54c1.29,1.47.75,3.42.76,5.16.05,12.61,0,25.21,0,37.82-.85,1.41-2.08.86-3.19,1-1.36-1.93-1.25-4.31-1.23-6.62.07-9.45-.36-18.91.46-28.34Q26.94,211,28.53,206.54Z" transform="translate(-5.35 -3.65)" fill="#ecada6"/><path d="M38.07,246.5v-65a6.11,6.11,0,0,1,1.59-4c0,16.18,0,32.37.05,48.55,0,1.51-1.21,5.08,2.22,3.46-.5,5.78-.92,11.57-2.84,17Z" transform="translate(-5.35 -3.65)" fill="#e09892"/><path d="M25.36,215.54c1.27,1.48.74,3.42.75,5.16.05,9.93,0,19.87,0,29.8-1.86.23-3.72,2.24-5.6,0a4.54,4.54,0,0,1,.64-1.39c1.2-2.63.64-5.51.66-8.27,0-5.11.05-10.22.35-15.32Z" transform="translate(-5.35 -3.65)" fill="#efb3ac"/><path d="M21.35,250.49l-.82,0c-3.91-1-3.41-4.8-2.93-8.14a81.84,81.84,0,0,1,2.23-8.85c1.38-.92,2.15.19,2.15,1.56C22,240.23,22.94,245.45,21.35,250.49Z" transform="translate(-5.35 -3.65)" fill="#f5bcb4"/><path d="M21.35,250.49c0-4.39,0-8.77,0-13.16,0-1.54.38-3.42-1.52-3.8.78-2.67,1.57-5.33,2.35-8,1.55,8,.66,16,.44,24C22.61,249.9,21.8,250.19,21.35,250.49Z" transform="translate(-5.35 -3.65)" fill="#f2b9b1"/><path d="M42,171.52a2.79,2.79,0,0,0-.76.11c-3.46,1.11-5.89-.65-8.06-4.1,1.61-1.12,2.46,0,3.28.61,2.41,1.75,4.24,1.19,5.66-1.78.86-1.8,1.92-3.2,3.82-2.72a2.93,2.93,0,0,1-.29,2.49C44.64,168.13,44.14,170.69,42,171.52Z" transform="translate(-5.35 -3.65)" fill="#ee6952"/><path d="M45.22,165.55l.74-1.91c1.09-1.74,2.64-.85,4-1.1a83.85,83.85,0,0,1-3.09,14c-2.25-.47-1.71-2.83-1.94-4.62C44.65,169.81,45.2,167.69,45.22,165.55Z" transform="translate(-5.35 -3.65)" fill="#d68883"/><path d="M29.31,156.55a5.8,5.8,0,0,0,2.39,3v1l-.87,1.12-3.78-6.09Z" transform="translate(-5.35 -3.65)" fill="#f09d90"/><path d="M56.36,131.58v8h-.78C55.9,136.92,54.79,134.05,56.36,131.58Z" transform="translate(-5.35 -3.65)" fill="#ec8f82"/><path d="M23.7,121.5c-1.58,6.26-.4,12.69-.74,19-.13,2.43.28,4.94-.88,7.17l-.74-1c.19-1.81-1.1-2.73-1.58-4.13-.51-2.8.78-5.31.86-8-1.48-.72-2.13-2-1.66-4,1.45-3.46-.05-7.6,1.6-11C22.09,119,22.55,121.13,23.7,121.5Z" transform="translate(-5.35 -3.65)" fill="#eeb2ac"/><path d="M16.47,197.51h-.61c0-.66-.1-1.32-.16-2,.43-1.91-.59-4.12.78-5.83.1,1.87.19,3.74.29,5.61Z" transform="translate(-5.35 -3.65)" fill="#010420"/><path d="M139.12,215.54c6.08,8,6.09,14.61,0,26A92.2,92.2,0,0,1,139.12,215.54Z" transform="translate(-5.35 -3.65)" fill="#f8b5ad"/><path d="M23.7,121.5c-1.43.35-2.05-1.38-3.14-1.92a10.16,10.16,0,0,0-3.15-4,8.2,8.2,0,0,1,.09-5.91c2.28,2,2.56,5.8,4.64,8C22.13,119.25,23.21,120.19,23.7,121.5Z" transform="translate(-5.35 -3.65)" fill="#e7dfdb"/><path d="M19,130.6l1.65,4c-2.69.41-3.05-.14-3.08-4.79Z" transform="translate(-5.35 -3.65)" fill="#f4ebe8"/><path d="M17.5,109.66l-.09,5.91a1.52,1.52,0,0,1-1.61-1c2.26-1.45.27-4.47,1.48-6.3C17.36,108.7,17.43,109.18,17.5,109.66Z" transform="translate(-5.35 -3.65)" fill="#eab3ad"/><path d="M374.61,333.29c-3.58,0-7.16.15-10.73.14-1.1,0-2.59.53-2.75-1.75-.15-2.1,1.26-2.29,2.37-2.67a20.29,20.29,0,0,0,8.24-5.82c.77-.84,2.09-1.5,1.87-3s-1.6-1.38-2.59-1.7c-.48-.16-.95-.38-2.38-.95,4.12-1.22,7.31-.79,10.48-.5A2,2,0,0,1,381,319.6c-1,4.24-.06,9-2.42,12.87-.7.38-1-.17-1.28-.84,0-.15-.07-.32-.11-.47-.4-1.65.49-4.92-1.89-4.25-2,.56-.94,3.26-.47,5.11A1.64,1.64,0,0,1,374.61,333.29Z" transform="translate(-5.35 -3.65)" fill="#1b2e36"/><path d="M346.81,301.47l3.34.11,1.44,2.32c-13.25.78-26.5.61-39.75.08l1.49-1.55c9.18-1,18.37-.14,27.55-.46,1.69-.06,3.42.47,5.06-.44Z" transform="translate(-5.35 -3.65)" fill="#48596d"/><path d="M293.31,328.68c-2.64-2.26-2.53-6.19-3.53-9.41-.47-1.5.67-1.91,1.66-1.93a28.13,28.13,0,0,1,5.07.28c-3.41,2.13-3.54,4.77-1.42,7.86C294.88,326.88,294.47,328.1,293.31,328.68Z" transform="translate(-5.35 -3.65)" fill="#183445"/><path d="M296.75,327.67a4.39,4.39,0,0,1,.73.33c1.73,1.22,4,2.82,3.28,5.36s-3.15,1-4.86.93a7.11,7.11,0,0,1-.23-2.76C295.81,330.15,295.68,328.64,296.75,327.67Z" transform="translate(-5.35 -3.65)" fill="#1e3c50"/><path d="M296.75,327.67l-.08,4.86c-2,1.22-2.8-.06-3.12-2.36l-.24-1.5a3,3,0,0,1,1.78-3.19Z" transform="translate(-5.35 -3.65)" fill="#b0babf"/><path d="M293.55,330.17c.78,1.34,1.36,3.08,3.12,2.36l-.77,1.76C294.27,333.68,292.56,333.14,293.55,330.17Z" transform="translate(-5.35 -3.65)" fill="#294a62"/><path d="M374.61,333.29c0-.22,0-.43,0-.64.8-1.45,1.87-1.83,3.17-1.25l.81,1.06C377.48,334.3,376,333.23,374.61,333.29Z" transform="translate(-5.35 -3.65)" fill="#2a4353"/><path d="M522,206.48c-.63,3.05.94,5.8.77,8.79.37,1.07,0,1.34-.8,1.22l-1-7.68a4.25,4.25,0,0,1,.16-3.44Z" transform="translate(-5.35 -3.65)" fill="#48515a"/><path d="M525.34,235.29l-1.24.09c.08-2.41-1.62-4.88.13-7.24C525.45,230.31,524.88,232.93,525.34,235.29Z" transform="translate(-5.35 -3.65)" fill="#373d43"/><path d="M523.36,219.57c0,2.06,1.69,4.09.08,6.18-1-1.92-.75-4.11-.82-6.23C522.88,219.21,523.13,219.2,523.36,219.57Z" transform="translate(-5.35 -3.65)" fill="#282d34"/><path d="M521.1,205.37c-.06,1.15-.11,2.29-.16,3.44l-.75-1.3,0-4.69c-.17-1-.77-2.14.74-2.22Z" transform="translate(-5.35 -3.65)" fill="#575e67"/><path d="M523.36,219.57l-.74,0a3.63,3.63,0,0,1-.66-3c.26-.41.53-.81.8-1.22A7.23,7.23,0,0,1,523.36,219.57Z" transform="translate(-5.35 -3.65)" fill="#4d555e"/><path d="M451.89,225.61c0-3.52,2.15-4.51,4.13-5.73l3.77-2.36c4.47-1,5.38,3.28,6.59,7.1-.24,1.8-1.37,1.33-2.28,1.42-1.19-.89-2.08-2.43-3.6-2.62C457.49,223.3,454.52,223.39,451.89,225.61Z" transform="translate(-5.35 -3.65)" fill="#7b8285"/><path d="M463.82,225.33c.81.08,1.66.41,2.28-.61,1.18-2.2,2.84-2.88,4.85-2.38,1.29-.1,2.22.42,2.49,2.16a45.87,45.87,0,0,1-3.35,3.34c-2.12,1.74-4.19,2.21-5.67-1.21a.57.57,0,0,1-.84-.21A1.3,1.3,0,0,1,463.82,225.33Z" transform="translate(-5.35 -3.65)" fill="#212f37"/><path d="M463.77,226.28a1,1,0,0,0,.65.35l-2.25,9.18c-.25,1-.62,1.94-1.62,1.41s-.79-1.56-.59-2.54c.48-2.38,1-4.74,1.48-7.11C461.86,226.11,462.62,225.62,463.77,226.28Z" transform="translate(-5.35 -3.65)" fill="#dfe4e4"/><path d="M463.77,226.28a3.13,3.13,0,0,0-2.33,1.29c-1.35-1-.74-2.72-.94-4.15,1.94-1.66,3.2-1.42,3.32,1.91C463.8,225.65,463.78,226,463.77,226.28Z" transform="translate(-5.35 -3.65)" fill="#25343c"/><path d="M450.26,237.57c0-.36.07-.73.11-1.1.77-.62,1-2.66,2.39-1.62.95.72.06,1.71-.08,2.58Z" transform="translate(-5.35 -3.65)" fill="#233239"/><path d="M471,222.34l-4.85,2.38c-.6-.24-1.44-.25-1.45-1.29,0-4.1-2.55-4.83-4.86-5.91-2.29-3.91-1.54-8.43-1.64-12.78l3.24-6.16c3.4-.69,6,.78,7,5,.79,3.33,3.12,2.87,4.83,4C472.08,212.38,469.35,216.84,471,222.34Z" transform="translate(-5.35 -3.65)" fill="#f9b471"/><path d="M520.9,200.6c-.25.74-.49,1.48-.74,2.22a3.61,3.61,0,0,1,.13-4.13C520.92,199.11,521,199.84,520.9,200.6Z" transform="translate(-5.35 -3.65)" fill="#5f676f"/><path d="M443.06,238.53a6.49,6.49,0,0,1,5.48,1.72,5.14,5.14,0,0,1-.53,3.13C444.78,245.94,444.78,245.94,443.06,238.53Z" transform="translate(-5.35 -3.65)" fill="#505d62"/><path d="M405.8,212.49c-.28-4.73,1.52-7.9,4.91-9.54,4-1.94,7.92-2.26,11.08,2.41,2.74,2.74,3.92,6.54,4.77,10.63.7,3.35.49,6.42-1.85,8.5s-4.95,4-8,1.59c-1.17-3.07.27-5.35,1.57-7.59,1-1.76,1.31-3.2-.55-4.33A5.24,5.24,0,0,1,416.5,213c-4.33-5-4.74-5-9.65-.36A.86.86,0,0,1,405.8,212.49Z" transform="translate(-5.35 -3.65)" fill="#1c2e36"/><path d="M417,225.57c5.54,1.1,11.38-1.88,7.95-11.81-1-2.84-2.09-5.6-3.14-8.4a20.88,20.88,0,0,0,2.74,0c3.18-.36,4.78,1.3,4.25,5.39-.73,5.65.85,9.86,4.74,12.77a9.71,9.71,0,0,0,.81,4.91c-3.68.29-7.74-.94-10.26,4l-1.14-.17c-1.68-1.52-3.73-1.06-5.59-1.66a2.87,2.87,0,0,1-1.11-1.64C416,227.71,415.94,226.45,417,225.57Z" transform="translate(-5.35 -3.65)" fill="#7b8489"/><path d="M405.8,232.31c-2.71,0-5.11,3.66-8,1.08-4.92-4.1-6.55-11.72-4-18.87l.83-1.19c1.24-1.9,2.65-3.14,4.69-1.84.16,3.78.17,7.59,1.62,11.07a13.4,13.4,0,0,1,7.57,5.57C408.62,230.57,407.18,231.41,405.8,232.31Z" transform="translate(-5.35 -3.65)" fill="#fbfbfb"/><path d="M399.25,211.49l-4.69,1.84c-.56-4.67,1.37-9.12.76-13.79l.09-1.94c1.23-2.68,2.81-2.69,4.62-1l.81,2c.77,2.27-.55,3.53-1.52,5Q399.29,207.52,399.25,211.49Z" transform="translate(-5.35 -3.65)" fill="#f5aba3"/><path d="M399.32,203.54c.51-1.65,1-3.31,1.52-5,1.33,0,2.15-1.1,3-2.2,3.73-5,5.8-5.86,12.32-4.41C409.87,195.52,405.21,200.85,399.32,203.54Z" transform="translate(-5.35 -3.65)" fill="#d0d1d2"/><path d="M408,228.41l-7.09-5.85a3,3,0,0,1,2.43-2.85,3.44,3.44,0,0,0,2.54-3.33,1,1,0,0,1,1,.08,13.73,13.73,0,0,1,2.41,6c-.45,2.94,1.89,2.7,2.89,4a2.91,2.91,0,0,1-2.28,3.51C409,229.88,408.48,229.17,408,228.41Z" transform="translate(-5.35 -3.65)" fill="#7c8286"/><path d="M400,196.63c-1.61-.17-3.21-.3-4.62,1-3.35-2.43-.77-3.83.75-4.75,1.07-.65,2.58-.46,3.85-.26s3.43-1.2,3.58,1.25C403.71,196,401.7,196.6,400,196.63Z" transform="translate(-5.35 -3.65)" fill="#d0d1d2"/><path d="M406.43,216.39l-.3,0h-.29c0-1.3,0-2.59,0-3.89h.67C408.14,213.82,407.63,215.11,406.43,216.39Z" transform="translate(-5.35 -3.65)" fill="#37464c"/><path d="M393.73,214.52c-.54,6.93.13,13.44,4,18.87-3.57,3.91-8,2.13-12.07,2.78-4.41.7-8.94.3-13.41.37l-5.6-.1c6,0,9.78-4.76,13.92-9.41S388.59,217.4,393.73,214.52Z" transform="translate(-5.35 -3.65)" fill="#bbc1c3"/><path d="M371.47,299.49a6.84,6.84,0,0,1-4,1c-3.57-1.71-5.31-5-4.73-9.71a10.57,10.57,0,0,1,6.32-8.76c2.1-1,3.6.47,4.9,2.14,1.78,2.29,2.13,5.09,1.6,8.22S372.84,297.12,371.47,299.49Z" transform="translate(-5.35 -3.65)" fill="#fcfdfc"/><path d="M387.53,284.6c-.29,5.39-1.12,8-4.76,8-3.47,0-3.74-3.13-4-6-.29-3.18,2.65-7.2,4.81-6.7A4.73,4.73,0,0,1,387.53,284.6Z" transform="translate(-5.35 -3.65)" fill="#fafbfc"/><path d="M406.43,216.39c.18-1.3.77-2.59,0-3.9,1.2-4.63,4.68-4.11,7.45-5.09,1.19-.43,1.48,1.1,1.84,2.1.55,1.53,1.05,3.36,2.42,3.71,3.81.95,3,3.06,1.1,5.63a13.19,13.19,0,0,0-2.3,6.73l-.18,3.9a3.52,3.52,0,0,1-4,2.1h-3.35a2.06,2.06,0,0,1,.1-2.13,4.7,4.7,0,0,0,2.34-2.8c-.76-1.78-3.46-1.23-3.2-4.23C407.46,220.7,407.14,218.43,406.43,216.39Z" transform="translate(-5.35 -3.65)" fill="#f7897a"/><path d="M417.65,230.38c2.16-1,4.07-1,5.28,2-1.89-.08-3.86,1-5.63-.64A1.59,1.59,0,0,1,417.65,230.38Z" transform="translate(-5.35 -3.65)" fill="#d9dfe0"/><path d="M409.59,229.43c0,.71-.07,1.42-.1,2.13a3.86,3.86,0,0,1-3.69.75l2.16-3.9A1.75,1.75,0,0,1,409.59,229.43Z" transform="translate(-5.35 -3.65)" fill="#5d87c8"/><path d="M417.65,230.38c-.12.44-.24.87-.35,1.31-1.5.87-3,1.58-4.46-.12l4-2.1Z" transform="translate(-5.35 -3.65)" fill="#4a75b4"/><path d="M311.53,286.69l.18,5.77c-1.56,3.4-2.81,7.09-6.76,7.11-4.67,0-5.85-1.2-5.94-7.12,0-1.33,0-2.65,0-4,.85-3,2.34-5.11,4.83-6C307.35,281.13,310,282.36,311.53,286.69Z" transform="translate(-5.35 -3.65)" fill="#fbfdfc"/><path d="M303.84,282.49l-4.83,6-.67,0a13.83,13.83,0,0,1,4.66-7.06Z" transform="translate(-5.35 -3.65)" fill="#c8ddf9"/><path d="M345.94,301.53c-.91,1.4-2.18.92-3.32.92-9.76,0-19.53,0-29.29,0a3.87,3.87,0,0,0,.05-1l3.19,0Z" transform="translate(-5.35 -3.65)" fill="#5c728a"/><path d="M329,290.51c.62,0,1.45-.06,1.27,1.14a2.64,2.64,0,0,1-1.69,2.41c-.56.13-.83-.58-.93-1.26C327.49,291.45,327.82,290.57,329,290.51Z" transform="translate(-5.35 -3.65)" fill="#2d84eb"/><path d="M87.4,144.58c1.41.41,2.87.64,4,2,2.27,6.88,1,14,.82,21-1.49,1.23-3,2.6-4.86,1.16-2.29-5.67-.7-11.73-1.08-17.6C86.11,148.9,85.87,146.44,87.4,144.58Z" transform="translate(-5.35 -3.65)" fill="#df9690"/><path d="M73.05,161.59c1.66-2.67.7-5.75.78-8.62.15-6.13,0-12.26,0-18.39a10,10,0,0,1,3.21,3.94c1.1,1.62,1.21,3.58,1.22,5.57,0,5.09.14,10.19,0,15.27-.07,1.93.44,4.48-1.94,5.16A6,6,0,0,1,73.05,161.59Z" transform="translate(-5.35 -3.65)" fill="#eeb1aa"/><path d="M76.31,164.52c1.59-4.08.52-8.41.7-12.61.2-4.45.06-8.93.07-13.39,1.36-.05,2.07,1.45,3.16,2.06,2.29,5.3.92,11,1.11,16.55.12,3.17.86,6.65-1.13,9.51A4.81,4.81,0,0,1,76.31,164.52Z" transform="translate(-5.35 -3.65)" fill="#eaaba4"/><path d="M80.22,166.64q0-13,0-26.06l2.4,1.95c2.25,4.61,1,9.69,1.09,14.53.09,3.51.94,7.31-1.11,10.52C81.75,167.57,80.85,167.64,80.22,166.64Z" transform="translate(-5.35 -3.65)" fill="#e8a59e"/><path d="M82.62,167.58q0-12.53,0-25.05c.87.07,1.81-.12,2.38,1,2.26,4.57,1,9.61,1.1,14.43.09,3.48.92,7.26-1.11,10.45A2.15,2.15,0,0,1,82.62,167.58Z" transform="translate(-5.35 -3.65)" fill="#e5a19a"/><path d="M85,168.44q0-12.44,0-24.88l2.38,1-.06,24.16Z" transform="translate(-5.35 -3.65)" fill="#e39c96"/><path d="M92.2,167.58c-1.76-4.73-.43-9.72-.79-14.57-.16-2.13,0-4.3,0-6.45.87,0,1.81-.16,2.39,1,.45,6-1,12.1.79,18A2.84,2.84,0,0,1,92.2,167.58Z" transform="translate(-5.35 -3.65)" fill="#dc908a"/><path d="M147.75,213.64q0,3.88,0,7.77c-.7.34-1.06-.13-1.32-.87-.09-.58-.19-1.17-.28-1.75C146.67,217.07,147.21,215.36,147.75,213.64Z" transform="translate(-5.35 -3.65)" fill="#15192d"/><path d="M147.8,182.59q0,3.43,0,6.88A7.77,7.77,0,0,1,147.8,182.59Z" transform="translate(-5.35 -3.65)" fill="#1a2539"/><path d="M225.28,134.66c-.18-.67-.35-1.33-.52-2,2.4-2.34.9-5.76,1.51-8.59.12-.17.24-.34.37-.5,3.1,4,3.33,7.25.8,11Z" transform="translate(-5.35 -3.65)" fill="#f9ac3d"/><path d="M223.7,123.63c-.1-.67-.19-1.33-.28-2a2.58,2.58,0,0,1,3.22,1.94l-.19.08A1.64,1.64,0,0,1,223.7,123.63Z" transform="translate(-5.35 -3.65)" fill="#f69659"/><path d="M146.42,220.54l1.32.87c0,1,0,1.92,0,2.88A5.18,5.18,0,0,1,146.42,220.54Z" transform="translate(-5.35 -3.65)" fill="#263044"/><path d="M220.13,258.67c4.44,3.5,4.69,5.44,1.34,8.88-1.58,1.61-2.66.82-3.71-.66a2.59,2.59,0,0,1-.41-1.73c.18-.9.82-.58,1.28-.26,1,.74,1.18-1,2.91-.06-4.52-4.57-4.91-7.19-2.39-10,.64-.71,1.16-1.51,1.95-.56s2.32.72,2.14,2.5C223,259.22,220.64,256.62,220.13,258.67Z" transform="translate(-5.35 -3.65)" fill="#f9f1d9"/><path d="M223.7,123.63l2.75,0c.33,1.73.69,3.44,1,5.18.42,2.67-.47,4-2.66,3.83C222.78,130,223.59,126.72,223.7,123.63Z" transform="translate(-5.35 -3.65)" fill="#f84941"/><path d="M45.22,165.55c2.15,3.3-.55,7.73,1.64,11,0,8.46-2,16.59-2.54,25-2.16-.61-1.43-2.83-1.45-4.46-.07-7,0-13.93,0-20.89,0-1.6.43-3.37-.8-4.65Q43.63,168.54,45.22,165.55Z" transform="translate(-5.35 -3.65)" fill="#db8f89"/><path d="M85.75,138.83c-2.66-1.09-5.5-1.53-7.89-3.56,1.13-3.46.68-7.1.81-10.68.06-1.73-.53-3.67.86-5a1.23,1.23,0,0,1,1.2-.29c1.79.86,3.87.87,5.27,2.87C87.43,127.73,87.85,133.31,85.75,138.83Z" transform="translate(-5.35 -3.65)" fill="#5e330b"/><path d="M80.24,119.58h-.35l-.36,0A30.48,30.48,0,0,1,76.41,98a5.59,5.59,0,0,1,.71-.15,14.32,14.32,0,0,0,3.11-4.21v0a.81.81,0,0,1,1.18-.06,5.27,5.27,0,0,1,1.33,3.67,11.11,11.11,0,0,1,0,1.73c-.77,5.17-.31,10.41-.55,15.61C82.06,116.43,82.67,119,80.24,119.58Z" transform="translate(-5.35 -3.65)" fill="#f0b7af"/><path d="M68.41,105.4c-.63,1.26-1.59,1.23-2.59,1s-1,.58-1.11,1.45.05,2.09-1.2,1.77c-.93-2.64-1.1-5,1.69-5.93a12,12,0,0,1,3.18,1.83Z" transform="translate(-5.35 -3.65)" fill="#d28e7c"/><path d="M63.51,109.66c1.62-.11-.44-4.4,2.32-3.22-1.1,1.13-.58,2.66-.64,4l-.86,1.1C64.05,110.94,63.78,110.3,63.51,109.66Z" transform="translate(-5.35 -3.65)" fill="#de6d56"/><path d="M68.38,105.56a3.93,3.93,0,0,1-3.18-1.83l2.19.26Z" transform="translate(-5.35 -3.65)" fill="#f6c0b9"/><path d="M96.15,81.76,96,93a2.18,2.18,0,0,1-2.42.34,2.83,2.83,0,0,1-1.27-1.6,24.45,24.45,0,0,1-.44-5.21C91.75,84.6,91.36,83,89.47,83a7.72,7.72,0,0,1-3-.53,2.15,2.15,0,0,1-.92-1.06C86,78.8,87.86,80.25,89,79.58l6.37,1.87Z" transform="translate(-5.35 -3.65)" fill="#e29b94"/><path d="M101.73,111.64v5.82c-1.37,3.29-3.61,2.38-5.76,1.9-1.49-1.65-1.12-4.86-3.19-6,.29-1.57,1.33-1.71,2.33-1.94,1.22-.08,2.47.45,3.68-.23C99.79,111.2,100.87,110.36,101.73,111.64Z" transform="translate(-5.35 -3.65)" fill="#5a2c18"/><path d="M95.4,118.71c2-1,4.48,1.25,6.34-1.25,1,.7,2.93-1.23,3.12,1.38s-2.06,1.9-3.12,2.86c-2.14-.2-4.36.18-6.34-1.27A1.33,1.33,0,0,1,95.4,118.71Z" transform="translate(-5.35 -3.65)" fill="#ebeaea"/><path d="M101.73,111.64c-1.08-.56-2.17-.18-3.25,0-.87.43-1.68.73-1.5-1.1,4.91.43,2.61-4.27,3.15-7a9.19,9.19,0,0,1,3.13,7.81Z" transform="translate(-5.35 -3.65)" fill="#d98c86"/><path d="M85.52,81.39l1.09.22c1.75,3.5,1.34,7.06.2,10.65a6.31,6.31,0,0,1-2.42,2.67,1.48,1.48,0,0,1-1.18-.11c-2.35-2-.57-4.9-1-7.34-.13,2.12.1,4.36-1.2,6.12l-.8,0c.59-4-1.41-8.53,1.79-11.86Z" transform="translate(-5.35 -3.65)" fill="#edafa7"/><path d="M80.23,93.6c-.38,2.17-1,4-3.11,4.21C77.75,95.94,79.13,94.92,80.23,93.6Z" transform="translate(-5.35 -3.65)" fill="#f0b3ac"/><path d="M95.4,118.71v1.72c1.6,6.92.37,14,.75,21-3.6,0-7-1.61-10.4-2.57-.26-5.77.91-11.64-.76-17.32a1.2,1.2,0,0,1-.25-.76c0-.29,0-.43.08-.43a27.31,27.31,0,0,1,3-3.65c1.35-1.07,2-3.23,3.66-3.78a1.51,1.51,0,0,1,1.49.67C96.54,113.19,96.61,115.47,95.4,118.71Z" transform="translate(-5.35 -3.65)" fill="#59300a"/><path d="M92.94,113.56l-1.57-.06c-1.94-3-.38-6.93-1.74-10.07a4.34,4.34,0,0,1-.16-1.39c.54-1.43,2.29-2.22,1.46-4.38a4.83,4.83,0,0,1,0-1.37,2.49,2.49,0,0,1,.71-1.07c1.45-.58,2.6.17,3.67,1.29,1.08,3.59.79,7.33.81,11-.42,1.64-.23,3.42-.8,5C94.51,112.76,93.59,112.62,92.94,113.56Z" transform="translate(-5.35 -3.65)" fill="#e29d96"/><path d="M95.34,96.51l-4-.73-.49,0a6.2,6.2,0,0,0-3.36.49,7.66,7.66,0,0,1-1,.39c-.88.16-1.78.73-2.55-.32a2.16,2.16,0,0,1,.23-2l1.67-2c1.37-.71,2.56-2,4.15-2a3,3,0,0,1,3,1.31l.84,1a7.52,7.52,0,0,1,1.7,3C95.43,96,95.39,96.24,95.34,96.51Z" transform="translate(-5.35 -3.65)" fill="#5e3314"/><path d="M95.35,112.57c-.83-1.95-1.22-3.79.8-5,.91.74.77,1.93.83,3a1.68,1.68,0,0,0,1.5,1.1C97.61,113,96.47,112.73,95.35,112.57Z" transform="translate(-5.35 -3.65)" fill="#e27868"/><path d="M95.48,95.68c-1.56-.12-1.77-1.43-1.7-3L96,93C96.13,94,96.42,95,95.48,95.68Z" transform="translate(-5.35 -3.65)" fill="#46281b"/><path d="M101.65,99.08c1.08-.29,1.57.43,1.78,1.64l-.9,1.88C100.61,102.06,100.44,100.84,101.65,99.08Z" transform="translate(-5.35 -3.65)" fill="#e26a56"/><path d="M377.8,331.4a4.47,4.47,0,0,1-3.17,1.25c-2.15-1.61-2.17-4-1.13-6.31a2,2,0,0,1,3.12-.95C378.8,326.78,378.13,329.17,377.8,331.4Z" transform="translate(-5.35 -3.65)" fill="#b6bdc0"/><path d="M408.73,222.4c.65,1.92,3.76.87,3.2,4.23C410.13,226.1,407,227.19,408.73,222.4Z" transform="translate(-5.35 -3.65)" fill="#292f32"/><path d="M85.11,120.63a4.34,4.34,0,0,0-.12.88c-1.81.24-3.57.28-4.75-1.93,1.59-2.51.61-5.42.76-8.13.26-4.76-.49-9.61,1-14.23a2.66,2.66,0,0,1,2.22.89,3.48,3.48,0,0,1,.69,1.29,15.51,15.51,0,0,1,.43,3.2C85.3,108.61,85.68,114.63,85.11,120.63Z" transform="translate(-5.35 -3.65)" fill="#f0b3ac"/><path d="M81,93.6c.16-3,1.38-5.93.76-9.14,1.65,3.12-.08,7,1.63,10-.08,1.19-.25,2.29-1.47,2.4Z" transform="translate(-5.35 -3.65)" fill="#f0b3ac"/><path d="M82,96.87l1.47-2.4a1.69,1.69,0,0,0,.74,0c0,.88.11,1.76.16,2.64a1.58,1.58,0,0,1-1,1.44L82,97.22Z" transform="translate(-5.35 -3.65)" fill="#713f1a"/><path d="M89.78,91.42c-1.35.09-2.5,1.52-4,1,1.49-3.45.48-7.18.78-10.76h3.18A10.21,10.21,0,0,1,89.78,91.42Z" transform="translate(-5.35 -3.65)" fill="#e9a7a0"/><path d="M89.78,91.42q0-4.89,0-9.8c2.41-.23,3.3,1.32,3.19,4.18-.07,2,0,4,0,5.93Z" transform="translate(-5.35 -3.65)" fill="#e6a19b"/><path d="M85.11,120.63c-1.94-4.18-.47-8.72-.86-13.06-.18-2,0-4,0-6a5.22,5.22,0,0,1,2.68-1.85c1.23-.07,2.62-.57,3,1.73l-.09,1.1c-1,4.83.57,10.11-1.59,14.74Z" transform="translate(-5.35 -3.65)" fill="#eaaba4"/><path d="M88.19,117.32c0-3.63,0-7.26,0-10.9,0-1.58-.36-3.47,1.57-3.84,2.52.74,1.41,3.3,1.56,5.14s0,3.85,0,5.78C90.17,114.58,89.92,116.93,88.19,117.32Z" transform="translate(-5.35 -3.65)" fill="#e6a69f"/><path d="M89.87,101.48c-.82-1.86-2.15-.6-3.23-.83.32-3.68,1.16-4.23,4.74-3.1.74.71,1.61,1.61,1.11,2.78S91.1,102.37,89.87,101.48Z" transform="translate(-5.35 -3.65)" fill="#231716"/><path d="M91.38,97.55c-1.82.44-4,.1-4.74,3.1-.58,1.25-1.54.94-2.43.95,0-1,0-2,0-3a4.23,4.23,0,0,1,3-2.51c1.45-.49,2.9-1,4.17.58C91.36,97,91.36,97.25,91.38,97.55Z" transform="translate(-5.35 -3.65)" fill="#dc796f"/><path d="M91.36,96.67l-4.76-.13v-.69l.82-.49a5.77,5.77,0,0,1,4,.12l-.07.3C91.35,96.07,91.36,96.37,91.36,96.67Z" transform="translate(-5.35 -3.65)" fill="#e8a69f"/><path d="M86.61,95.85c0,.23,0,.46,0,.69-.54,1.17-1.52,1.52-2.41,2.06l-.91-.1,1-1.44C85,96.27,85.54,95.33,86.61,95.85Z" transform="translate(-5.35 -3.65)" fill="#e4a59e"/><path d="M91.4,95.48l-4-.12A2.59,2.59,0,0,1,91.4,95.48Z" transform="translate(-5.35 -3.65)" fill="#713f1a"/></svg>