<?xml version="1.0" encoding="utf-8"?>
<!-- Generator: Adobe Illustrator 25.2.1, SVG Export Plug-In . SVG Version: 6.00 Build 0)  -->
<svg version="1.1" xmlns="http://www.w3.org/2000/svg" xmlns:xlink="http://www.w3.org/1999/xlink" x="0px" y="0px"
	 viewBox="0 0 396.9 396.9" style="enable-background:new 0 0 396.9 396.9;" xml:space="preserve">
<style type="text/css">
	.st0{fill:#FFFFFF;}
</style>
<g id="Capa_1">
</g>
<g id="Capa_2">
	<path class="st0" d="M350.9,192.2c-12.5-9.9-37.5-12.9-40.3-13.2l-0.1,1.3v-0.2c-0.1-51-13.5-89.2-39.6-113.4
		C244,41.9,212.3,39.9,202.3,40c-10,0-41.7,1.9-68.5,26.7c-26.2,24.2-39.5,62.4-39.6,113.4v0.2l-0.1-1.3
		c-2.8,0.3-27.8,3.3-40.3,13.2c-13.7,10.8-17.7,33.5-12,67.3c1.9,11.1,10.5,26.2,41,34.4c16.2,4.4,32,5.1,38.1,5.1
		c0.8,0,1.5,0,1.9,0c10.8-0.5,16-10.5,16.3-19.6l0-0.2l0-0.2c0-0.2-0.3-21.2-1.1-42.6c-1.6-45.5-3.6-48.3-5.3-50.8
		c-4-5.8-13.1-7.5-22.2-7.5c-0.1,0-0.2,0-0.2,0c0.5-45.2,12-78.7,34.3-99.5c21-19.6,46.3-22.3,55.8-22.6l0,0c0,0,0.6,0,1.6,0
		c1.5,0,2.3,0,2.3,0l0,0c9.5,0.3,34.8,3,55.8,22.6c22.3,20.8,33.8,54.2,34.3,99.5c-0.1,0-0.2,0-0.2,0c-9.1,0-18.2,1.6-22.2,7.5
		c-1.7,2.5-3.7,5.4-5.3,50.8c-0.8,21.4-1.1,42.4-1.1,42.6l0,0.2l0,0.2c0.3,9.1,5.6,19.1,16.3,19.6c0.4,0,1.1,0,1.9,0
		c1.6,0,3.9-0.1,6.6-0.2c-0.2,2.8-1,6.4-3.5,10c-5.9,8.5-18.7,14.3-37.4,17c-0.1,0-0.3,0-0.4,0.1c-2.4,0.3-4.9,0.6-7.5,0.9
		c-0.5,0-0.9,0.1-1.4,0.2c-0.2,0.1-0.4,0.1-0.6,0.2c-0.8,0.1-1.6,0.1-2.4,0.2c-0.2,0-0.3-0.1-0.5-0.1c-0.1,0-0.2,0-0.3,0
		c-0.2,0-0.3,0-0.5-0.1c0,0,0,0,0,0c-0.1,0-0.2,0-0.3,0c-0.1,0-0.3,0-0.4-0.1c-0.3,0-0.6,0-1,0c-0.8-0.1-1.5-0.3-2.2-0.7
		c-0.3-0.1-0.6-0.2-0.9-0.2c-1.2-0.4-2.3-1-3.2-1.7c-0.3-0.2-0.6-0.5-0.8-0.8c-0.2-0.1-0.4-0.2-0.5-0.2c-6.2-7.8-15.6-17.4-27.2-17
		c-20.3,0.8-22,31.8-22.2,35.3c0,0.2,0,0.3,0,0.5c0.1,1.9,0.6,11.8,6.7,17.4c2.7,2.5,6,3.8,9.7,3.8c0.2,0,0.5,0,0.7,0
		c6-0.3,14.9-3,20.7-5.3c2.7-1,4.9-2,6.9-3l0,0l0,0c3.2-1.6,5.5-3.1,7.1-4.5l11.5-7.2l0,0c1-0.2,2-0.5,3.1-0.8
		c28.2-2.7,47.2-11.1,56.6-25.1c4.8-7.1,6.1-14.5,6.1-20.4c4.9-0.8,10.2-1.8,15.5-3.2c30.5-8.2,39.1-23.2,41-34.4
		C368.6,225.6,364.6,203,350.9,192.2z M119.3,195c1.8,9.7,3.3,48.8,3.8,83.9c-0.1,1.4-0.7,3.4-1.2,4c-12.9,0.5-60.8-4.5-64.4-26.2
		c-4.5-26.8-2.3-45.3,6.2-52.1c7-5.6,23.1-8.7,30.6-9.7v0.3l8.8-0.9C109.2,193.9,116.2,194.2,119.3,195z M213.4,341.5
		c-5,2.3-12.1,4.7-17,5.6c-0.1-0.1-0.2-0.2-0.4-0.2c0,0-0.1,0-0.1,0c-0.2,0-0.4-0.1-0.6-0.1c0,0-0.1,0-0.1,0c0,0,0,0,0,0
		c-0.1-0.1-0.3-0.2-0.4-0.3c0,0,0,0,0,0c0,0,0,0,0,0c0,0,0,0,0,0c0,0,0,0,0,0l-0.3-0.4c0,0,0-0.1-0.1-0.1c-0.1-0.1-0.1-0.2-0.1-0.3
		c-0.1-0.1-0.2-0.1-0.3-0.2c-0.3-1.1-0.5-2.3-0.5-3.4c0.4-9.5,3.9-19.5,6.8-19.6c0.1,0,0.1,0,0.2,0c5.7,0,13.8,10.7,17.3,15.3
		c0.2,0.3,0.5,0.6,0.7,0.9L213.4,341.5z M347.2,256.8c-3.7,21.7-51.5,26.7-64.4,26.2c-0.5-0.7-1.1-2.6-1.2-4
		c0.5-35.1,2-74.3,3.8-83.9c3-0.9,10.1-1.2,16.3-0.6l8.8,0.9v-0.3c7.4,1,23.5,4.1,30.6,9.7C349.5,211.5,351.7,230,347.2,256.8z"/>
</g>
</svg>
