<svg id="Capa_1" data-name="Capa 1" xmlns="http://www.w3.org/2000/svg" viewBox="0 0 247.11 243.5"><path d="M72.78,36a35.7,35.7,0,0,1,11.33,1.43c2.46.67,3.37.19,4.51-2.08C103.75,5.22,140.78-2.12,166,20a41.89,41.89,0,0,1,10.55,14.4c1.15,2.55,2.08,3.73,5.49,2.92,29.12-6.92,57.35,14.55,59.64,44.8a43.35,43.35,0,0,1-4.64,23.2c-1.49,2.92-1.19,4.68,1.35,6.72,15.26,12.26,20.49,28.67,16.87,47.22-3.72,19.1-15.51,32.15-34.65,37.43-4.42,1.22-5.92,2.76-5.91,7.53,0,21.86-18.28,42.19-40.15,45.68-14.66,2.33-27.79-.81-39.16-10.29-2.79-2.33-4-.6-5.78.73-26.52,19.53-62,10.27-75.19-19.66A39.45,39.45,0,0,1,51,202.27c.18-3.07-.91-4.15-3.91-4.94C23,191,8.52,172,9.32,147.13c.45-14.16,6.54-26,17.69-34.89,2.86-2.28,3.06-4,1.59-7C14.84,77,32.72,41.91,65.81,36.43A67.22,67.22,0,0,1,72.78,36ZM200.07,111.3a30.14,30.14,0,0,0-2-2.48c-2.55-2.62-5.36-5-7.71-7.82-2.5-3-4.16-2.93-7-.06-16.57,16.87-33.42,33.47-50,50.29-2.51,2.53-4,2.94-6.67.11-8.51-8.91-17.26-17.59-26.09-26.19-3.53-3.44-6.67-9.84-10.84-9.38-3.93.44-7.16,6.36-10.89,9.66-2.49,2.2-2.28,3.78,0,6q24.31,24.08,48.38,48.39c2.19,2.22,3.44,2.12,5.57,0q32.57-32.78,65.3-65.4C199,113.64,200,112.94,200.07,111.3Z" transform="translate(-9.29 -7.18)" fill="#a1a1a1"/></svg>