<svg id="Capa_1_Imagen" data-name="Capa 1 Imagen" xmlns="http://www.w3.org/2000/svg" viewBox="0 0 446.44 756.68"><path d="M444.59,542.5c-1.5-17.13-5.36-33.77-10.11-50.21A314.73,314.73,0,0,0,414,438.93a322.64,322.64,0,0,0-26.19-43.66c-7.82-11-16.87-20.68-25.52-30.85-8.36-9.83-18.65-17-28.5-24.92-1.77-1.42-4-2.25-6.35-3.53,9.92-7.6,19.1-15.21,27.1-24.12A186.87,186.87,0,0,0,380,275.73a180.85,180.85,0,0,0,17.13-47.27c1.87-8.38,2.13-17,3.79-25.48,2.23-11.39,3.7-23,3-34.71a167.75,167.75,0,0,0-12.56-55.09,188.79,188.79,0,0,0-24.13-41.09,179.7,179.7,0,0,0-28.12-28.91,194.48,194.48,0,0,0-40.15-25.84c-15.85-7.69-32.37-13.2-49.85-15.47-.84-.11-2.12.09-2-1A28,28,0,0,1,241.24,0H206.68a23,23,0,0,0-2.93.77,1.27,1.27,0,0,1-.86,0c-.77.17-1.54.35-2.3.54a1.41,1.41,0,0,1-1.24-.24c-.1.84-1.21.69-2,.82A170.3,170.3,0,0,0,140.84,21.3a191.33,191.33,0,0,0-37.23,26.5C84.61,65.19,68.87,85,58.13,108.68a162.7,162.7,0,0,0-11.7,39.63,142.76,142.76,0,0,0-1.81,36.86c1.14,12.92,4.91,25.37,8,38,3.2,13,5.89,26.07,11.27,38.37,6.25,14.27,13.4,28,23.36,40,4.62,5.57,9,11.45,14.26,16.35a251.68,251.68,0,0,0,21.56,18.25c-9.22,6.91-19.55,12.06-27.43,20.51-6.7,7.19-13.12,14.66-19.73,22-13.47,14.87-24.5,31.56-34.54,48.92A314.25,314.25,0,0,0,18.55,476.7,318.43,318.43,0,0,0,5,524.39c-1.41,7-2.92,14.16-3.15,21.42-.06,1.85-.08,1.85-1.85,2.77V602.5c2-.88,1.71.79,1.84,1.82C5.18,631.74,14.73,656.8,31,678.8a148.88,148.88,0,0,0,33.3,32.37c25.35,18.09,53.74,29.11,83.45,36.71a253.91,253.91,0,0,0,40.8,6.94c1.19.11,2.79-.33,2.25,1.9h70.37c-.89-2.1.8-1.79,1.79-1.87a242.94,242.94,0,0,0,46-8.63,258.4,258.4,0,0,0,42.21-15.91,209.41,209.41,0,0,0,26.74-15.51,151.19,151.19,0,0,0,22.75-19.52,156.12,156.12,0,0,0,22.57-28.93,149,149,0,0,0,18.58-48.55c1.07-5.57,2.43-11.08,2.81-16.77.07-1,.26-2.24,1.81-1.35V544.8C444.25,545.36,444.69,543.72,444.59,542.5Zm-332.22-228c-4.91-5.15-10.89-9.3-14.71-15.59a46.46,46.46,0,0,0-6.55-8.78,2.71,2.71,0,0,1-.77-2.26c-1-.09-1.47-1.07-1.54-2.14a2.26,2.26,0,0,1-1-1.7,2,2,0,0,1-.66-1,.64.64,0,0,1-.08-.14c-1.87-5.3-6.38-9-7.76-14.85-.56-2.37-2.93-5-3.93-7.61-2.31-6.18-4.1-12.72-6.63-18.65a204.21,204.21,0,0,1-7.5-19.09,22.87,22.87,0,0,1-1.38-7.63c-1-2.72-1.47-5.57-2.25-8.34-.85-3-1.72-6.07-2.4-9.15a48.37,48.37,0,0,1-.79-17.9c.88-5.91,2.77-12.85,7.51-16.44l.27-.45a1.24,1.24,0,0,1,1.41-.65,6.08,6.08,0,0,1,1.78-.94c.51-.29,1-.56,1.54-.82a1.19,1.19,0,0,1,.42-.11,10,10,0,0,1,4,0c11.85,1.64,16.33,10.25,20.36,20.08,5.86,14.27,11.31,28.79,19.78,41.79.9,1.39,1.57,3.45,3.69,3.19,2.37-.3,3.06-2.49,3.31-4.41,2.23-17.46,6.22-34.55,10.23-51.64,4.13-17.63,18.12-28.6,35.51-27.25,10,.77,19.49,4.54,29.19,7,13.24,3.32,26.3,6.92,40,8.33,14.34,1.47,28-1.15,41.8-3.65a142.28,142.28,0,0,0,34.2-11,73.35,73.35,0,0,0,18.92-12.07c5-4.5,10.21-8.69,15.42-12.92,1.42-1.15,3.12-1.63,4.87-.33,2.18,1.62,4.55,3,6.61,4.77,10.71,9.18,21.42,18.43,27.91,31.47,2.3,4.63,2.93,9.89,3.93,14.94a136.31,136.31,0,0,1,2.61,29.55c-.27,10.19-.73,20.57-3.79,30.48a15.13,15.13,0,0,0-.63,2.66c-.24,2.43-.4,3-1.55,4.64h0a19.25,19.25,0,0,1-1.54,6.51c.28.74.32,1.39-.71,1.84-.23.62-.45,1.24-.65,1.86.49.4.88.8.59,1.09-1.6,1.59-1.11,3.74-2.12,5.47-.27.48-.58,1-.89,1.43-.31.95-.63,1.9-1,2.82-.19.47-.39.93-.6,1.39v.37h-.16c-.65,1.41-1.35,2.79-2,4.18a2.59,2.59,0,0,1-.31,2.1c-2,2.56-3.11,5.88-4.8,8.74-2.7,4.54-4.91,9.64-8.51,13.27-4.52,4.56-7.62,10.14-11.65,15-5.24,6.31-11.34,11.4-17.23,16.84-4.08,3.78-7.92,8.72-12.8,10.48-5.38,2-9.27,5.94-14.34,8.25a174.29,174.29,0,0,0-16.93,9.1c-3,1.78-6.82,1.27-9.46,3.89a.76.76,0,0,1-.71-.18c-1.39-1.46-1.41-.62-2.87.39-2.19,1.53-5.19,4-8.79,2.75a9.86,9.86,0,0,1-1.5.43,9.31,9.31,0,0,1-2.93.2,3.87,3.87,0,0,0,.07.86c-2.15-.17-3.93,1.21-5.93,1.53-4.77.76-9.56,1.31-14.34,1.94-15.7,2.05-31.29.49-46.77-2-6.51-1.05-12.72-3.74-19.29-4.75-.06,0-.15-.27-.12-.38a7.32,7.32,0,0,1,.35-.81l-.77-.65c-3.76.76-5.88-.08-7.44-3-.13-.24-.45-.66-.51-.63-5.07,2.52-7.81-2.33-11.63-3.48a64.2,64.2,0,0,1-11.76-5.19c-11.49-6.1-22.26-13.59-31.3-23.08Zm158.69,96.9c-16.24-7.67-21.84-5.38-36.29,5.88-11,8.54-19.67,19.38-28.09,30.44-1.13,1.48-1.89,2.44-3.47-.24-7.27-12.4-15.2-24.4-22.24-37-6.88-12.29-14.35-24.24-21.58-36.32a45.51,45.51,0,0,1-5-10.66c-1.33-4.58-.42-6,5.48-6,5.44.88,11.93,3.27,18.49,5.14,19.69,5.63,39.75,7.3,60,6.05a147.81,147.81,0,0,0,48.74-11.38c1.89-.8,3.19.47,4.93-.35,6.8-3.24,13.82-6,20.66-9.15,5-2.32,8-.6,7.72,5.26a119.73,119.73,0,0,1-1.94,17,77.14,77.14,0,0,0-1.53,14.21c-.05,10.76-2.36,21.11-4.2,31.56q-1.65,9.42-4,18.71c-.87,3.37-1.49,2.43-3.23.84-10.48-9.52-21.65-18-34.45-24ZM304.67,451c-3.06,10.53-6.47,20.94-10.62,31.58-3.34-13.34-6.72-26.07-14-37.26a2.29,2.29,0,0,1,.46-3c2.17-2.49,2.58-5.68,3.26-9.08,6.79,5,13.45,9.87,20.12,14.74a2.56,2.56,0,0,1,.78,3Zm-64.73.34c-4.76,10.23-6.5,21.41-9.3,32.26-.43,1.69-.74,3.42-1.35,6.25-4.85-7.52-9.19-14.22-13.5-20.95-1.71-2.68-3-5.78-5.09-8-2.79-2.95-2-5.3.11-7.82,4.87-5.67,9.83-11.27,14.7-16.94,1.83-2.13,2.79-2.53,4.54.5a43.1,43.1,0,0,0,9,10.46c1.5,1.24,1.73,2.29.84,4.21Zm21.85,108.84c-4.83-.92-8.63-4-12.65-6.48-12.81-7.8-25.57-15.72-38-24.07-8.68-5.82-16.92-12.34-25.24-18.7-10.25-7.85-20.54-15.66-30.5-23.88-5.23-4.32-10.51-8.86-10.07-17.1.22-4.13,2.77-6.41,5-8.9,5.64-6.31,12.61-11.23,17.77-18.13,4-5.37,3.3-11-2.56-14.15-8.91-4.73-18.72-6.06-28.4-7.78a27.42,27.42,0,0,1-14.3-7.39c-5.23-4.9-4.06-11.32-2.88-16.68,2.25-10.19,8.41-18.67,14.68-26.84.56-.74,1.42-1.26,1.93-2,3.93-5.92,3.78-7.56,8.41.9,13.57,24.87,27.21,49.69,42.4,73.59,8.06,12.67,15.62,25.67,23.68,38.35,8.49,13.35,17.3,26.49,26,39.72,6.9,10.53,14.12,20.86,20.49,31.71,1.38,2.42,4.71,4.18,4.24,7.8Zm1.85.45c-.69.58-1.16.18-1.61-.29l1.76-.11c-.05.11-.06.29-.15.37Zm1.41.81a1.09,1.09,0,0,1,.16-.33c.06-.11.24,0,.3,0s.18.26.15.33c-.2.44-.48.39-.61,0Zm101.29-112.1c-4,10.95-10.64,20.18-18.1,28.89-12.59,14.69-24.72,29.81-37.79,44-11.1,12.11-22.13,24.48-36.41,33.08-2.68,1.61-4.93,3.93-8.73,4.91.9-4.37,3.64-7,5.81-9.76,10-12.7,17.35-26.89,24.47-41.37,9.6-19.55,15.87-40.27,21.7-61.13,3.11-11.13,4.77-22.7,6.86-34.11,1.68-9.23,2.88-18.53,3.79-27.88.76-7.88,1.78-15.72,1.85-23.66,0-4.09,2.84-1.61,3.68-.89,7.15,6,14.68,11.58,20.57,19.15A35.46,35.46,0,0,1,361,393.69c1.38,5.39-1.26,11.18-5.87,14.24-5.3,3.53-10.92,6.64-15.6,11.08-1.78,1.68-4.45,3.5-3.92,5.88s3.36,3.56,5.88,4.58c7.25,2.91,15.24,4,21.57,9.3,3.33,2.81,4.82,6.46,3.33,10.51Z" transform="translate(0 -0.04)" fill="#fafbfc"/><path d="M260.78,538.13,263,538a.61.61,0,0,1-.16.42c-.81.66-1.34.11-1.88-.43Z" transform="translate(0 -0.04)" fill="#020202"/><path d="M264.49,538.94h.33c.07,0,.19.27.16.34-.22.48-.48.47-.66,0C264.29,539.2,264.43,539.05,264.49,538.94Z" transform="translate(0 -0.04)" fill="#020202"/><path d="M167.18,315.73c.31-1,.93-1.09,1.76-.68l-.93,1.36Z" transform="translate(0 -0.04)" fill="#e6edf2"/></svg>