<svg id="Capa_1" data-name="Capa 1" xmlns="http://www.w3.org/2000/svg" viewBox="0 0 327.94 329.92"><path d="M15.9,343.27c7.32-26.8,14.4-52.93,21.65-79a10.86,10.86,0,0,0-.95-8.83A164.2,164.2,0,0,1,17.84,193.2C9.91,112.81,64.35,36.79,145.55,19.37c31.24-6.7,62.18-4.56,92,7.29A172.14,172.14,0,0,1,280.64,51.9a160.19,160.19,0,0,1,34,37.28,150.45,150.45,0,0,1,24.47,63.27c1.86,13.12,3,26.1,1.94,39.36A162.44,162.44,0,0,1,218.88,335.88c-39.42,9.89-77.38,5.23-113.6-13.1a10.36,10.36,0,0,0-8-.71Q58.69,332.31,20.06,342.5C19,342.8,17.81,342.92,15.9,343.27Zm163.24-29.62c36.41,1,67.9-14,96.66-40.92,9.7-9.07,16.77-20.3,23.12-31.82,8.49-15.38,12.06-32.2,14.34-49.63,1.8-13.73.61-27.11-1.91-40.22a126.06,126.06,0,0,0-14.06-38.36c-15.11-26.64-36.87-45.91-64.54-58.38-24.08-10.85-49.44-13.62-75.52-9.25-23.69,4-45,13.34-63.4,28.8Q52.27,108.88,45,163a120.32,120.32,0,0,0,1.39,41.2,142,142,0,0,0,20.16,48.7,5.7,5.7,0,0,1,.69,5.44c-4,14.14-7.48,28.4-11.59,42.5-1.33,4.58,0,4.18,3.45,3.24,14.23-3.93,28.52-7.61,42.76-11.52a7.58,7.58,0,0,1,6.53.81C128.79,306.12,151.11,312.55,179.14,313.65Z" transform="translate(-14.52 -14.61)" fill="#fbfcfb"/><path d="M14.52,344.53l5.57-20.42c5.64-20.67,11-40.2,16.5-60.12a9.82,9.82,0,0,0-.88-8.1,166.64,166.64,0,0,1-18.87-62.6A161.83,161.83,0,0,1,47.46,82.08a163.55,163.55,0,0,1,97.88-63.69c31.94-6.85,63.07-4.38,92.54,7.34a174.17,174.17,0,0,1,43.38,25.38,160.37,160.37,0,0,1,34.22,37.51,152.32,152.32,0,0,1,24.63,63.69c1.52,10.76,3.12,25,1.94,39.58a163.42,163.42,0,0,1-122.93,145c-39.15,9.82-77.6,5.39-114.3-13.18a9.39,9.39,0,0,0-7.26-.64q-38.61,10.26-77.24,20.44a24.06,24.06,0,0,1-2.49.48l-1.75.3ZM180.23,16.61a164.17,164.17,0,0,0-34.47,3.74C65.39,37.59,10.82,111.85,18.83,193.1a164.32,164.32,0,0,0,18.65,61.84,11.93,11.93,0,0,1,1,9.58C33,284.44,27.65,304,22,324.64L17.28,342l.23,0c.91-.15,1.63-.27,2.3-.44q38.63-10.2,77.24-20.44a11.33,11.33,0,0,1,8.68.79c36.25,18.34,74.24,22.72,112.91,13A160.9,160.9,0,0,0,340.06,191.73c1.16-14.4-.42-28.48-1.93-39.14a150.46,150.46,0,0,0-24.31-62.86A158.53,158.53,0,0,0,280,52.68a172.07,172.07,0,0,0-42.88-25.09A153,153,0,0,0,180.23,16.61Zm2.36,298.09c-1.16,0-2.31,0-3.47-.05h0c-28.08-1.11-50.71-7.6-71.23-20.45a6.56,6.56,0,0,0-5.74-.68c-6.89,1.89-13.9,3.76-20.69,5.56C74.2,301,66.72,303,59.37,305c-2.25.62-3.7,1-4.64.07s-.66-2.4,0-4.55c2.34-8,4.53-16.28,6.65-24.24,1.59-6,3.24-12.18,4.94-18.25.57-2,.45-3.08-.56-4.62a142.85,142.85,0,0,1-20.31-49A122,122,0,0,1,44,162.85c4.91-36.21,21.45-66.4,49.18-89.75,18-15.18,39.53-24.95,63.87-29,26.81-4.48,52.41-1.34,76.1,9.33,28.21,12.71,50.08,32.5,65,58.8a126.86,126.86,0,0,1,14.17,38.66c2.94,15.26,3.55,28.14,1.92,40.54-2,15.42-5.31,33.41-14.45,50-5.78,10.48-13.07,22.48-23.31,32.06C246.84,301.18,216.08,314.7,182.59,314.7Zm-3.42-2.05c34.31,1,65.68-12.35,96-40.65,10-9.39,17.23-21.23,22.93-31.57,9-16.28,12.23-34.05,14.22-49.28,1.6-12.18,1-24.86-1.9-39.9a124.82,124.82,0,0,0-13.95-38c-14.7-25.93-36.26-45.43-64.08-58-23.32-10.51-48.54-13.6-75-9.18-24,4-45.15,13.63-62.91,28.59-27.34,23-43.65,52.78-48.48,88.48A119.48,119.48,0,0,0,47.38,204a140.55,140.55,0,0,0,20,48.36,6.71,6.71,0,0,1,.82,6.26c-1.7,6.06-3.34,12.24-4.94,18.22-2.12,8-4.31,16.23-6.66,24.29a6.5,6.5,0,0,0-.45,2.56,11.29,11.29,0,0,0,2.62-.55c7.4-2,14.89-4,22.14-6,6.78-1.8,13.79-3.67,20.67-5.56a8.52,8.52,0,0,1,7.33.92C129.14,305.16,151.46,311.56,179.17,312.65Z" transform="translate(-14.52 -14.61)"/><path d="M179.14,313.65c-28-1.1-50.35-7.53-70.74-20.29a7.58,7.58,0,0,0-6.53-.81c-14.24,3.91-28.53,7.59-42.76,11.52-3.43.94-4.78,1.34-3.45-3.24,4.11-14.1,7.63-28.36,11.59-42.5a5.7,5.7,0,0,0-.69-5.44,142,142,0,0,1-20.16-48.7A120.32,120.32,0,0,1,45,163q7.32-54.11,48.82-89.12c18.36-15.46,39.71-24.84,63.4-28.8,26.08-4.37,51.44-1.6,75.52,9.25,27.67,12.47,49.43,31.74,64.54,58.38a126.06,126.06,0,0,1,14.06,38.36c2.52,13.11,3.71,26.49,1.91,40.22-2.28,17.43-5.85,34.25-14.34,49.63-6.35,11.52-13.42,22.75-23.12,31.82C247,299.62,215.55,314.65,179.14,313.65ZM223.54,256c1,0,2,0,3,0,18.85-.51,33.41-13.92,35.18-32.52.3-3.1.83-6.55-2.82-8.32q-16.66-8.1-33.38-16.08c-4.09-1.95-7-.83-9.7,3-3.64,5.14-7.93,9.81-11.87,14.74a6.14,6.14,0,0,1-7.62,2,111.22,111.22,0,0,1-56.25-48.27c-2.08-3.54-1.45-6.66,1.39-9.4a55.62,55.62,0,0,0,7.8-9.06c2.16-3.23,3.9-6.75,2.32-10.7-4.16-10.44-8.46-20.82-12.82-31.17-1.16-2.76-2.65-5.76-5.91-6.31-6.9-1.16-13.77-1.95-20,2.79-7,5.34-11,12.68-13.71,20.7-5.15,15.37-1.6,30.06,5.81,43.58a180.39,180.39,0,0,0,30.83,41.41c12.16,12.13,25,23.33,40.8,30.36C191.54,249.32,206.78,255.45,223.54,256Z" transform="translate(-14.52 -14.61)" fill="#00c446"/><path d="M182.6,316.2c-1.18,0-2.35,0-3.53-.05h0c-28.36-1.12-51.23-7.69-72-20.67a5.09,5.09,0,0,0-4.54-.52c-6.89,1.9-13.91,3.77-20.7,5.57-7.24,1.93-14.72,3.92-22.06,6-2.47.68-4.55,1.25-6.11-.33s-1-3.92-.4-6c2.34-8,4.53-16.25,6.64-24.21,1.6-6,3.24-12.18,4.95-18.26.45-1.63.39-2.23-.38-3.4A144.3,144.3,0,0,1,44,204.71a123.45,123.45,0,0,1-1.42-42.06c5-36.59,21.67-67.1,49.69-90.69,18.25-15.37,40-25.24,64.6-29.36,27.1-4.53,53-1.36,77,9.44,28.51,12.85,50.61,32.84,65.68,59.43a128,128,0,0,1,14.34,39.12c3,15.42,3.59,28.45,1.94,41-2,15.55-5.37,33.72-14.63,50.51-5.83,10.58-13.2,22.71-23.6,32.43C247.57,302.55,216.49,316.2,182.6,316.2Zm-3.37-5.05c33.88,1,64.91-12.23,94.87-40.25,9.89-9.24,17-21,22.63-31.19,8.86-16.07,12.08-33.66,14-48.75,1.58-12,1-24.55-1.89-39.43a122.8,122.8,0,0,0-13.78-37.59C280.57,88.29,259.24,69,231.72,56.6c-23-10.38-48-13.43-74.08-9.07C133.92,51.5,113,61,95.44,75.78c-27,22.77-43.17,52.22-48,87.54a118.6,118.6,0,0,0,1.36,40.36,139.27,139.27,0,0,0,19.82,47.84,8.22,8.22,0,0,1,1,7.49c-1.69,6-3.34,12.22-4.93,18.2-2.12,8-4.32,16.24-6.67,24.32,0,.09-.05.17-.07.25l.4-.11c7.41-2,14.91-4,22.15-6,6.78-1.8,13.79-3.67,20.66-5.56a10.06,10.06,0,0,1,8.52,1.1C129.7,303.74,151.79,310.07,179.23,311.15Zm46.2-52.65h-2c-17.35-.56-33.18-7-47.9-13.55-16.85-7.49-30.46-19.81-41.54-30.87a183.4,183.4,0,0,1-31.27-42c-8.87-16.2-10.82-31.11-6-45.58,3.33-9.93,8-16.88,14.57-21.9,6.93-5.25,14.33-4.54,21.93-3.26,4.86.82,6.77,5.37,7.8,7.81,4.78,11.33,9,21.54,12.84,31.21,2,5.08-.16,9.44-2.57,13a57.81,57.81,0,0,1-8.14,9.47c-2.1,2-2.39,3.91-1,6.33a109.29,109.29,0,0,0,55,47.21,3.64,3.64,0,0,0,4.73-1.2c1.42-1.77,2.89-3.53,4.32-5.23,2.55-3,5.18-6.16,7.47-9.4,3.47-4.9,7.78-6.17,12.82-3.76,12.89,6.16,23.5,11.27,33.39,16.08,5,2.45,4.57,7.21,4.26,10.37l0,.44c-1.9,19.93-17.36,34.23-37.6,34.78Zm-1.85-5h.92c.65,0,1.31,0,2,0,17.64-.48,31.11-12.92,32.76-30.26l0-.45c.34-3.45.19-4.58-1.47-5.38-9.89-4.81-20.49-9.91-33.37-16.07-2.46-1.18-4.23-1.18-6.58,2.14s-5.11,6.62-7.72,9.73c-1.41,1.68-2.86,3.41-4.24,5.13a8.61,8.61,0,0,1-10.49,2.72,114.09,114.09,0,0,1-57.49-49.32c-2.59-4.42-1.95-8.85,1.82-12.47a53.43,53.43,0,0,0,7.45-8.65c2-3,3.18-5.63,2.08-8.39-3.85-9.64-8-19.82-12.8-31.12-1.19-2.82-2.23-4.51-4-4.82-6.73-1.13-12.74-1.74-18.08,2.32-5.77,4.37-9.85,10.57-12.85,19.5-4.38,13.07-2.54,26.68,5.63,41.59a178.38,178.38,0,0,0,30.41,40.84c10.76,10.74,23.94,22.68,40,29.84C191.84,246.72,207.14,253,223.58,253.49Z" transform="translate(-14.52 -14.61)" fill="#00c446"/><path d="M223.54,256c-16.76-.54-32-6.67-47-13.33-15.81-7-28.64-18.23-40.8-30.36a180.39,180.39,0,0,1-30.83-41.41c-7.41-13.52-11-28.21-5.81-43.58,2.69-8,6.66-15.36,13.71-20.7,6.24-4.74,13.11-4,20-2.79,3.26.55,4.75,3.55,5.91,6.31,4.36,10.35,8.66,20.73,12.82,31.17,1.58,3.95-.16,7.47-2.32,10.7a55.62,55.62,0,0,1-7.8,9.06c-2.84,2.74-3.47,5.86-1.39,9.4a111.22,111.22,0,0,0,56.25,48.27,6.14,6.14,0,0,0,7.62-2c3.94-4.93,8.23-9.6,11.87-14.74,2.68-3.79,5.61-4.91,9.7-3q16.71,8,33.38,16.08c3.65,1.77,3.12,5.22,2.82,8.32-1.77,18.6-16.33,32-35.18,32.52C225.53,256,224.53,256,223.54,256Z" transform="translate(-14.52 -14.61)" fill="#fbfcfb"/></svg>