<svg id="Capa_1" data-name="Capa 1" xmlns="http://www.w3.org/2000/svg" viewBox="0 0 331.27 302.01"><path d="M20.48,321.45a13.26,13.26,0,0,1-7.68-6.94,11.31,11.31,0,0,1,0-8.06l1.52-2.81,3.45-3.26c8.83-8,17.69-16,26.49-24q35.13-32,70.21-64,21.9-20,43.81-39.92c1.1-1,1.11-1.5,0-2.5q-37.48-34.09-74.9-68.25Q49.86,71.12,16.3,40.57a15.84,15.84,0,0,1-4.25-7.06,15.09,15.09,0,0,1,.75-5.65l1.53-2.8,3.07-2.8,3.08-1.4A15,15,0,0,1,28,20.52a16.66,16.66,0,0,1,6.64,3.76Q92.41,77,150.25,129.74c8.65,7.89,17.32,15.75,25.92,23.68,1.1,1,1.68,1.2,2.92.07q45.82-41.91,91.73-83.72,23.61-21.52,47.22-43c.46-.42.88-.88,1.32-1.32l3.58-3.14,3.08-1.4a15,15,0,0,1,8.84,0,13,13,0,0,1,7.84,7.6,11,11,0,0,1-.16,7.46l-1.93,3.2-1.73,1.7a44.13,44.13,0,0,0-5.29,4.82l-1.35,1.24A42.58,42.58,0,0,0,327,51.7l-1.36,1.24a43.21,43.21,0,0,0-5.28,4.82L318.94,59a48.57,48.57,0,0,0-5.28,4.84L312.31,65A44.21,44.21,0,0,0,307,69.87l-1.36,1.23a48.6,48.6,0,0,0-5.3,4.82L299,77.16A42.49,42.49,0,0,0,293.74,82l-1.36,1.24A41.05,41.05,0,0,0,287.1,88l-1.36,1.23a45,45,0,0,0-5.29,4.82l-1.36,1.24a44,44,0,0,0-5.28,4.82l-1.35,1.25a41.74,41.74,0,0,0-5.29,4.81l-1.36,1.23a42.49,42.49,0,0,0-5.28,4.82l-1.36,1.24a41.7,41.7,0,0,0-5.27,4.82l-1.38,1.23a44.81,44.81,0,0,0-5.28,4.82l-1.36,1.24a44,44,0,0,0-5.28,4.82l-1.36,1.24a41.73,41.73,0,0,0-5.28,4.82l-1.36,1.23a43.38,43.38,0,0,0-5.29,4.82c-.45.41-.9.82-1.36,1.22a48.57,48.57,0,0,0-5.28,4.84l-1.36,1.23a45.69,45.69,0,0,0-5.28,4.82l-1.36,1.24a48.61,48.61,0,0,0-5.3,4.81L206,162a44,44,0,0,0-5.28,4.82L199.39,168a27.25,27.25,0,0,1-2.13,1.73c-1.53,1-1.24,1.82,0,2.94,5.12,4.55,10.13,9.2,15.18,13.8q62.67,57.14,125.34,114.25a19,19,0,0,1,4.73,5.73,11.31,11.31,0,0,1,0,8l-1.93,3.21-1.75,1.66a18,18,0,0,1-5.78,2.55,14.56,14.56,0,0,1-7.06-.47,16.14,16.14,0,0,1-4.73-2.85q-70.2-64.05-140.44-128.07c-3.44-3.14-3.44-3.14-6.67.46l-1.36,1.24a44.91,44.91,0,0,0-5.29,4.82l-1.36,1.22a49.51,49.51,0,0,0-5.28,4.83l-1.36,1.24a44,44,0,0,0-5.28,4.82l-1.36,1.23a48.6,48.6,0,0,0-5.3,4.82l-1.34,1.25a42.41,42.41,0,0,0-5.28,4.81l-1.36,1.24a42.58,42.58,0,0,0-5.29,4.82L133,228.56a45.69,45.69,0,0,0-5.28,4.82l-1.36,1.24a45.71,45.71,0,0,0-5.29,4.82l-1.34,1.25a41.81,41.81,0,0,0-5.29,4.81L113,246.74a42.51,42.51,0,0,0-5.29,4.82l-1.35,1.23a41,41,0,0,0-5.27,4.83l-1.38,1.23a43.21,43.21,0,0,0-5.28,4.82l-1.36,1.23a44.91,44.91,0,0,0-5.29,4.82L86.47,271a43.31,43.31,0,0,0-5.29,4.82L79.83,277a41.82,41.82,0,0,0-5.29,4.82l-1.36,1.22a46.62,46.62,0,0,0-5.28,4.83l-1.36,1.24A44.83,44.83,0,0,0,61.25,294l-1.35,1.23A47.69,47.69,0,0,0,54.6,300l-1.34,1.24A44.91,44.91,0,0,0,48,306.06l-1.35,1.24a44.13,44.13,0,0,0-5.29,4.82L40,313.35a45.69,45.69,0,0,0-5.28,4.82l-1.38,1.2a17.94,17.94,0,0,1-5.77,2.55A14.55,14.55,0,0,1,20.48,321.45Z" transform="translate(-12.01 -20.18)" fill="#545454"/></svg>